<svg width="249" height="852" viewBox="0 0 249 852" fill="none" 
    xmlns="http://www.w3.org/2000/svg">
    <path opacity="0.8" d="M222.612 -394.893L514.719 -403H571.77C591.15 -403 609.871 -395.965 624.455 -383.202L708.033 -310.06C726.34 -294.039 736.362 -270.559 735.267 -246.257L689.228 775.41C686.088 845.088 601.502 877.657 552.443 828.077L44.8318 315.076C14.1033 284.021 13.9709 234.057 44.5344 202.84L127.535 118.064C158.223 86.7188 157.946 36.5064 126.913 5.50223L29.7809 -91.5384C-9.30432 -130.587 -9.31732 -193.932 29.7517 -232.997L168.266 -371.496C182.725 -385.954 202.172 -394.326 222.612 -394.893Z" fill="#DCEBFF"/>
</svg>