<svg width="1060" height="1550" viewBox="0 0 1060 1550" fill="none" 
    xmlns="http://www.w3.org/2000/svg">
    <path opacity="0.8" d="M463.196 -36.801L855.906 -429.817C931.376 -505.346 878.028 -634.427 771.255 -634.636L-825.934 -637.767C-891.792 -637.896 -945.448 -584.922 -946.162 -519.068L-966.902 1394.72C-967.536 1453.22 -925.901 1503.64 -868.344 1514.09L-199.106 1635.59C-160.783 1642.54 -121.467 1630.47 -93.656 1603.2L877.41 651.019C916.537 612.652 917.498 549.942 879.564 510.394L462.052 75.1241C431.925 43.7156 432.433 -6.01465 463.196 -36.801Z" fill="#F7FBFF"/>
    <g style="mix-blend-mode:screen" opacity="0.8">
        <path d="M251.774 362.631L644.841 -30.749C720.32 -106.288 666.947 -235.384 560.161 -235.568L-1313.96 -238.795C-1379.81 -238.909 -1433.45 -185.939 -1434.16 -120.096L-1454.69 1773.7C-1455.41 1840.48 -1401.48 1895 -1334.69 1895H-548.673C-517.255 1895 -487.09 1882.68 -464.657 1860.68L516.287 898.8C555.196 860.646 556.394 798.364 518.981 758.743L250.2 474.102C220.487 442.636 221.184 393.245 251.774 362.631Z" fill="url(#bg-before)"/>
    </g>
    <defs>
        <linearGradient id="bg-before" x1="87.5" y1="353" x2="87.5" y2="-167" gradientUnits="userSpaceOnUse">
            <stop stop-color="white"/>
            <stop offset="1" stop-color="white" stop-opacity="0"/>
        </linearGradient>
    </defs>
</svg>