<svg width="320" height="976" viewBox="0 0 320 976" fill="none" 
    xmlns="http://www.w3.org/2000/svg">
    <path opacity="0.8" d="M238.219 311.387L121.957 190.094C100.124 167.316 100.492 131.267 122.786 108.94C195.734 35.882 144.131 -88.9139 40.8893 -89.1164L-290.644 -89.7667C-356.503 -89.8959 -410.159 -36.9216 -410.872 28.9335L-416.903 585.863C-417.537 644.351 -375.909 694.774 -318.36 705.23L-177.099 730.892C-138.757 737.858 -99.4196 725.771 -71.604 698.477L236.926 395.732C260.383 372.715 260.959 335.112 238.219 311.387Z" fill="#F7FBFF"/>
    <g style="mix-blend-mode:screen" opacity="0.8">
        <path d="M99.0727 410.591L240.973 268.533C266.126 243.352 248.334 200.326 212.742 200.265L-481.945 199.068C-503.894 199.03 -521.774 216.687 -522.012 238.635L-529.562 935.567C-529.803 957.826 -511.825 976 -489.564 976H-198.242C-187.767 976 -177.71 971.891 -170.232 964.556L185.385 615.741C200.943 600.48 201.422 575.574 186.463 559.727L98.2855 466.317C83.4348 450.586 83.7836 425.897 99.0727 410.591Z" fill="url(#bg-before-mobile)"/>
    </g>
    <defs>
        <linearGradient id="bg-before-mobile" x1="31.8206" y1="414.55" x2="31.8206" y2="225.216" gradientUnits="userSpaceOnUse">
            <stop stop-color="white"/>
            <stop offset="1" stop-color="white" stop-opacity="0"/>
        </linearGradient>
    </defs>
</svg>
