<svg width="56" height="56" viewBox="0 0 56 56" fill="none" 
    xmlns="http://www.w3.org/2000/svg">
    <circle cx="28" cy="28" r="28" fill="#276BFB"/>
    <path fill-rule="evenodd" clip-rule="evenodd" d="M34.0988 37.9437C34.9618 39.0584 35.9975 40.3197 35.9975 40.3197C42.355 40.1144 44.8002 35.8611 44.8002 35.8611C44.8002 26.4158 40.6577 18.7599 40.6577 18.7599C36.5153 15.5919 32.5742 15.6799 32.5742 15.6799L32.1714 16.1493C37.0618 17.6746 39.3344 19.8746 39.3344 19.8746C36.3427 18.2026 33.4084 17.3812 30.6755 17.0586C28.6043 16.8239 26.6194 16.8826 24.8646 17.1173C24.7139 17.1173 24.5852 17.1396 24.44 17.1648C24.4189 17.1685 24.3975 17.1722 24.3755 17.1759C23.3687 17.2639 20.9235 17.6452 17.8454 19.0239C16.781 19.5226 16.1481 19.8746 16.1481 19.8746C16.1481 19.8746 18.5358 17.5572 23.7139 16.0319L23.4262 15.6799C23.4262 15.6799 19.4851 15.5919 15.3427 18.7599C15.3427 18.7599 11.2002 26.4158 11.2002 35.8611C11.2002 35.8611 13.6166 40.1144 19.9742 40.3197C19.9742 40.3197 21.0386 38.9997 21.9016 37.885C18.2481 36.7704 16.8673 34.4237 16.8673 34.4237C17.1281 34.6027 17.3968 34.7691 17.6728 34.9224C17.7056 34.9586 17.7446 34.9885 17.7879 35.0104C17.831 35.0397 17.8742 35.0617 17.9173 35.0837C17.9605 35.1057 18.0036 35.1277 18.0468 35.1571C18.7235 35.5382 19.4252 35.8714 20.1468 36.1544C21.5157 36.7054 22.9312 37.1275 24.3755 37.4157C26.5331 37.8264 29.0646 37.973 31.8262 37.445C33.1783 37.2104 34.5591 36.7997 35.9975 36.1837C37.1608 35.7361 38.2706 35.1555 39.3057 34.4531C39.3057 34.4531 37.8673 36.8584 34.0988 37.9437ZM20.1602 28.5597C20.1602 26.4055 21.4888 24.6397 23.1718 24.6397C24.8547 24.6397 26.2129 26.4055 26.1834 28.5597C26.1834 30.7139 24.8547 32.4797 23.1718 32.4797C21.5184 32.4797 20.1602 30.7139 20.1602 28.5597ZM30.937 28.5597C30.937 26.4055 32.2656 24.6397 33.9486 24.6397C35.6315 24.6397 36.9602 26.4055 36.9602 28.5597C36.9602 30.7139 35.6315 32.4797 33.9486 32.4797C32.2952 32.4797 30.937 30.7139 30.937 28.5597Z" fill="white"/>
</svg>
