<svg width="56" height="56" viewBox="0 0 56 56" fill="none" 
    xmlns="http://www.w3.org/2000/svg">
    <circle cx="28" cy="28" r="28" fill="#276BFB"/>
    <path d="M28.0001 11.2002C31.2515 11.2002 34.2499 11.9697 36.9952 13.5094C39.7405 15.0491 41.9146 17.1388 43.5166 19.777C45.1187 22.4152 45.9201 25.2968 45.9201 28.4212C45.9201 32.1733 44.7804 35.548 42.5017 38.5447C40.2222 41.5421 37.2791 43.6163 33.6707 44.7667C33.2499 44.8417 32.9395 44.7898 32.7367 44.6103C32.639 44.5266 32.5613 44.423 32.5089 44.3068C32.4565 44.1906 32.4308 44.0645 32.4335 43.9376L32.445 42.2225C32.4528 41.1233 32.4564 40.1181 32.4564 39.2062C32.4564 37.7562 32.0521 36.6949 31.2436 36.0222C32.1303 35.9324 32.9274 35.7978 33.6348 35.6189C34.343 35.4393 35.0742 35.1475 35.8282 34.7442C36.583 34.3408 37.2131 33.8435 37.7184 33.2528C38.2238 32.6629 38.636 31.878 38.9549 30.8987C39.2739 29.9195 39.4338 28.7943 39.4338 27.5247C39.4338 25.7451 38.8187 24.2054 37.5901 22.9048C38.1657 21.544 38.1034 20.0197 37.4038 18.3313C36.968 18.1959 36.3379 18.2787 35.5136 18.5768C34.6893 18.8763 33.9732 19.2053 33.3668 19.5638L32.4801 20.1018C31.0202 19.7117 29.5134 19.5158 28.0001 19.5196C26.4868 19.5158 24.9799 19.7117 23.5201 20.1018C23.1955 19.8909 22.8649 19.6891 22.5287 19.4964C22.1159 19.2579 21.4664 18.9703 20.5798 18.6336C19.6931 18.2969 19.0322 18.1959 18.5971 18.3306C17.8968 20.0197 17.8344 21.5447 18.4107 22.9048C17.1814 24.2054 16.5664 25.7458 16.5664 27.524C16.5664 28.7943 16.7262 29.916 17.0452 30.8875C17.3642 31.859 17.7721 32.644 18.2702 33.2416C18.7677 33.84 19.3942 34.3408 20.1482 34.7442C20.903 35.1475 21.6342 35.4393 22.3417 35.6189C23.0499 35.7978 23.8469 35.9324 24.7336 36.0222C24.1265 36.5603 23.7459 37.3305 23.5903 38.3322C23.255 38.4843 22.9026 38.5971 22.5402 38.6682C22.1668 38.7432 21.7231 38.7804 21.2098 38.7804C20.6966 38.7804 20.187 38.6191 19.6816 38.2985C19.1763 37.9765 18.7448 37.5093 18.3871 36.897C18.103 36.4307 17.7161 36.0323 17.2545 35.7311C16.7958 35.4316 16.4109 35.2527 16.1005 35.1924L15.6331 35.1251C15.307 35.1251 15.0812 35.1587 14.9565 35.2261C14.8325 35.2934 14.7938 35.3797 14.8403 35.4842C14.8869 35.5894 14.9565 35.6932 15.0504 35.7978C15.1436 35.903 15.2439 35.9921 15.3536 36.0671L15.517 36.1794C15.8589 36.3288 16.198 36.6129 16.532 37.0316C16.866 37.4497 17.1112 37.8313 17.2667 38.175L17.5004 38.6906C17.7025 39.2588 18.0452 39.7182 18.5268 40.0697C19.0093 40.4204 19.5304 40.6449 20.0895 40.7424C20.65 40.8392 21.1905 40.8918 21.7116 40.8995C22.2327 40.9065 22.6649 40.8806 23.0068 40.8209L23.5437 40.7312C23.5437 41.2993 23.5473 41.9608 23.5552 42.7156L23.5667 43.9376C23.5667 44.2069 23.4656 44.4307 23.2635 44.6103C23.0613 44.7898 22.7502 44.8417 22.3302 44.7674C18.7211 43.6163 15.7772 41.5421 13.4985 38.5454C11.2191 35.5466 10.0801 32.1726 10.0801 28.4212C10.0801 25.2968 10.8815 22.4152 12.4835 19.777C14.0856 17.1388 16.2596 15.0491 19.005 13.5094C21.7503 11.9697 24.7487 11.2002 28.0001 11.2002ZM16.8703 35.9324C16.9169 35.8279 16.8624 35.7381 16.7069 35.6638C16.5513 35.6189 16.4503 35.6336 16.4037 35.7087C16.3571 35.8132 16.4109 35.903 16.5664 35.9773C16.7069 36.0671 16.808 36.0524 16.8703 35.9324ZM17.5936 36.6949C17.7025 36.6206 17.6868 36.5006 17.547 36.3365C17.3914 36.2018 17.2667 36.1794 17.1735 36.2691C17.0646 36.3435 17.0803 36.4634 17.2201 36.6276C17.3757 36.777 17.4997 36.7995 17.5929 36.6949H17.5936ZM18.2932 37.7043C18.4337 37.5991 18.4337 37.4574 18.2932 37.2778C18.1692 37.0835 18.0366 37.0394 17.8968 37.1432C17.757 37.2182 17.757 37.3529 17.8968 37.5472C18.0366 37.7415 18.1692 37.7934 18.2932 37.7043ZM19.2738 38.6457C19.3978 38.5265 19.3669 38.3841 19.1806 38.2199C18.9935 38.0403 18.8379 38.0179 18.7132 38.1526C18.5734 38.2718 18.6043 38.4142 18.8064 38.5784C18.9928 38.7579 19.149 38.7804 19.2738 38.6457ZM20.6034 39.2069C20.65 39.042 20.5489 38.9221 20.3002 38.8477C20.0665 38.7881 19.9189 38.8407 19.8565 39.0049C19.7949 39.169 19.8959 39.2812 20.1604 39.3409C20.3934 39.4306 20.5411 39.3858 20.6034 39.2062V39.2069ZM22.0729 39.3191C22.0729 39.1241 21.941 39.042 21.6765 39.0715C21.4277 39.0715 21.3037 39.1543 21.3037 39.3184C21.3037 39.5127 21.4356 39.5948 21.7001 39.5653C21.9489 39.5653 22.0729 39.4826 22.0729 39.3184V39.3191ZM23.4269 39.0946C23.3954 38.9298 23.2556 38.8632 23.0068 38.8926C22.7581 38.9375 22.6484 39.049 22.68 39.2293C22.7115 39.4082 22.8513 39.4678 23.1 39.4082C23.3488 39.3486 23.4584 39.2441 23.4269 39.0939V39.0946Z" fill="white"/>
</svg>
