<svg width="35" height="35" viewBox="0 0 35 35" fill="none" 
    xmlns="http://www.w3.org/2000/svg">
    <path d="M10.6087 5.47424C8.88046 6.02729 7.14066 6.58033 6.73164 6.70707L6 6.94327V12.0244C6 15.0662 6.02304 17.359 6.05761 17.7392C6.31109 20.4008 7.46327 22.924 9.38742 25.021C9.82525 25.4992 16.7729 31.5539 16.9688 31.6288C17.0494 31.6576 23.156 26.4497 24.1584 25.4934C25.8982 23.84 27.2578 21.4204 27.7417 19.1046C27.9952 17.8832 28.0125 17.4281 27.9952 12.0129L27.9779 6.92023L24.0662 5.68739C21.9174 5.01336 20.1488 4.46608 20.1373 4.47184C20.1315 4.48336 20.4541 5.12282 20.8632 5.90054L21.6063 7.31197L22.7182 7.66914C23.3288 7.86502 24.2506 8.15882 24.7691 8.32013L25.7081 8.61393L25.685 13.2918C25.6678 17.7853 25.662 17.9927 25.5468 18.5169C25.109 20.4929 24.2045 22.1694 22.8161 23.5866C22.5511 23.8573 21.2031 25.0498 19.8262 26.2308C18.4493 27.4176 17.2511 28.4488 17.1647 28.5294L17.0149 28.6677L14.3706 26.3921C11.1387 23.6038 10.6548 23.1314 9.88286 21.9447C9.28948 21.0287 8.85165 20.0436 8.58665 19.0239C8.32741 17.9869 8.30437 17.601 8.30437 12.9807V8.61969L9.12818 8.36045C9.57753 8.21643 10.4993 7.92263 11.1733 7.70947C11.8416 7.49632 12.3946 7.30045 12.3946 7.28316C12.3946 7.26588 12.7172 6.63218 13.1147 5.8775C13.5122 5.11706 13.8348 4.48912 13.8348 4.4776C13.8348 4.44303 13.7657 4.46608 10.6087 5.47424Z" fill="#FF4C2F"/>
    <path d="M16.8535 4.64511C16.8017 4.7488 15.3499 7.5198 13.6332 10.7978L10.5107 16.7603L10.5568 17.2442C10.6605 18.2351 11.0292 19.2836 11.6284 20.2341C11.8415 20.5798 11.9049 20.6432 11.9625 20.5798C11.9971 20.5395 13.1377 18.3849 14.4973 15.7925C15.8511 13.2058 16.9745 11.0858 16.9975 11.0858C17.0148 11.0858 18.1555 13.1828 19.5266 15.7406C20.8977 18.2985 22.0441 20.4358 22.0787 20.4934C22.1363 20.5913 22.1478 20.5856 22.24 20.4646C22.8333 19.6869 23.323 18.4022 23.4613 17.2673L23.5304 16.6912L20.2582 10.5904C18.4608 7.23752 16.9802 4.47804 16.9687 4.47228C16.963 4.46076 16.9111 4.53565 16.8535 4.64511Z" fill="#FF4C2F"/>
    <path d="M15.3899 19.3175L13.8057 22.4803L14.6986 23.258C15.1883 23.6843 15.9084 24.3007 16.2944 24.6233L17.003 25.2109L17.1585 25.0842C17.2507 25.0151 17.9593 24.3986 18.737 23.7131L20.16 22.4687L18.5815 19.3118C17.7116 17.5777 16.9972 16.1548 16.9857 16.1548C16.9799 16.1548 16.2598 17.5777 15.3899 19.3175Z" fill="#FF4C2F"/>
</svg>