<svg width="35" height="35" viewBox="0 0 35 35" fill="none" 
    xmlns="http://www.w3.org/2000/svg">
    <path d="M6.56804 19.7933L6.16224 20.1991C5.75227 20.6091 5.74663 21.2681 6.14965 21.6711L15.8424 31.3639C16.2454 31.7669 16.9045 31.7613 17.3144 31.3513L17.7203 30.9455C18.1302 30.5355 18.1359 29.8765 17.7328 29.4735L8.04009 19.7807C7.63707 19.3777 6.97801 19.3833 6.56804 19.7933Z" fill="url(#paint0_linear)"/>
    <path fill-rule="evenodd" clip-rule="evenodd" d="M5.61695 12.0686L10.4499 7.23562C13.6488 4.03673 17.2699 4.25305 20.0798 7.06299C20.4747 7.49337 20.8321 7.95676 21.1484 8.44827C21.228 8.5743 21.3172 8.69392 21.4152 8.80612C21.5933 8.98418 21.7754 9.02972 22.1571 8.91263C23.3124 8.5948 24.529 8.61356 25.6625 8.9667C26.7959 9.31984 27.7987 9.99252 28.5519 10.9049C31.2956 13.6487 31.5563 17.3577 28.017 20.8971L21.2312 27.6829C20.868 28.0461 20.5807 28.0221 20.2236 27.665L5.63483 13.0762C5.27775 12.7192 5.25866 12.4269 5.61695 12.0686ZM15.4226 14.5224L16.5797 13.3653C16.7303 13.2331 16.8511 13.0704 16.9339 12.8883C17.0166 12.7061 17.0592 12.509 17.0589 12.3102C17.0585 12.1115 17.0152 11.9159 16.9318 11.7369C16.8485 11.5579 16.7271 11.3998 16.576 11.2733C16.4485 11.1236 16.29 11.0035 16.1111 10.9211C15.9323 10.8387 15.7371 10.7958 15.5389 10.7955C15.3407 10.7951 15.1439 10.8373 14.9619 10.919C14.78 11.0008 14.6169 11.1203 14.4839 11.2696L13.3308 12.4226C12.9676 12.7859 12.9916 13.0732 13.3487 13.4303L14.419 14.5005C14.776 14.8655 15.0672 14.8855 15.4305 14.5223L15.4226 14.5224ZM20.8654 19.9652L23.9099 16.9207C24.7948 16.0358 24.9833 15.2227 24.2477 14.4871C23.5335 13.773 22.7049 13.9341 21.8141 14.8249L18.7736 17.8654C18.4104 18.2287 18.4344 18.516 18.7915 18.8731L19.8618 19.9433C20.2178 20.3073 20.51 20.3284 20.8733 19.9651L20.8654 19.9652Z" fill="#2926CF"/>
    <defs>
        <linearGradient id="paint0_linear" x1="8.37586" y1="20.2828" x2="5.79493" y2="23.7145" gradientUnits="userSpaceOnUse">
            <stop stop-color="#CF0BC3"/>
            <stop offset="1" stop-color="#FF3568"/>
        </linearGradient>
    </defs>
</svg>