<svg width="76" height="32" viewBox="0 0 76 32" fill="none"
    xmlns="http://www.w3.org/2000/svg">
    <path d="M53.7643 30.9679C53.5678 30.7727 53.4893 30.5774 53.4893 30.3041C53.4893 30.0307 53.5678 29.7964 53.7643 29.5621L61.1501 19.7604L54.3143 10.5444C54.1571 10.3101 54.0393 10.0758 54.0393 9.80245C54.0393 9.5291 54.1178 9.33384 54.3143 9.13859C54.5107 8.94334 54.7071 8.86523 54.9821 8.86523H58.7929C59.1072 8.86523 59.3429 8.94334 59.5001 9.06049C59.6572 9.17764 59.8144 9.37289 60.0108 9.6072L64.843 16.0115L69.6359 9.6072C69.6752 9.56815 69.7538 9.45099 69.9502 9.21669C70.1466 8.98239 70.4216 8.86523 70.8538 8.86523H74.5467C74.8217 8.86523 75.0181 8.94334 75.2146 9.13859C75.3717 9.33384 75.4896 9.5291 75.4896 9.7634C75.4896 10.0368 75.411 10.3101 75.2146 10.5444L68.3002 19.7994L75.7253 29.5621C75.8824 29.7964 76.0003 30.0307 76.0003 30.3041C76.0003 30.5774 75.9217 30.7727 75.7253 30.9679C75.5289 31.1632 75.3324 31.2413 75.0574 31.2413H71.0895C70.6181 31.2413 70.2252 31.007 69.9109 30.5384L64.7251 23.7435L59.5001 30.5384C59.1858 31.007 58.7929 31.2413 58.3215 31.2413H54.4714C54.1571 31.2413 53.9214 31.1632 53.7643 30.9679Z" fill="#283049"/>
    <path d="M22.241 18.5099C22.1615 15.4324 21.2085 13.0142 19.6201 11.1204C18.0317 9.22654 15.7682 8.27961 12.8297 8.27961C10.0102 8.27961 7.78647 9.22654 6.15835 11.1598V1.49331C6.15835 0.862028 5.52299 0.467475 4.96705 0.704207L0.28125 2.63751V30.2956C0.28125 30.5718 0.400382 30.848 0.598932 31.0453C0.797483 31.2426 1.03575 31.3609 1.35343 31.3609H4.84792C5.1656 31.3609 5.44357 31.2426 5.64212 31.0453C5.84067 30.848 5.9598 30.6113 5.9598 30.2956V28.678C7.54821 30.7296 9.89111 31.7555 12.9091 31.7555C15.8476 31.7555 18.1111 30.8086 19.6995 28.9542C21.2879 27.0998 22.1218 24.5746 22.241 21.4577C22.3399 20.4751 22.241 19.4838 22.241 18.5099ZM16.1256 21.2998C15.927 25.127 14.2592 27.0208 11.1618 27.0208C9.49401 27.0208 8.26299 26.4685 7.42908 25.4032C6.59516 24.3379 6.15836 23.0359 6.11865 21.4971C6.07894 21.142 6.07893 20.5896 6.07893 19.84C6.07893 19.0509 6.07894 18.4985 6.11865 18.1434C6.15836 16.6836 6.63487 15.4605 7.46879 14.4346C8.3027 13.4088 9.53371 12.8959 11.1221 12.8959C14.2592 12.8959 15.8873 14.7897 16.0859 18.6169C16.1256 18.8931 16.1256 19.3271 16.1256 19.9189C16.1653 20.5896 16.1653 21.0237 16.1256 21.2998Z" fill="#283049"/>
    <path d="M49.3778 26.2602H33.8304L38.0282 20.6284C38.5724 19.9195 38.0671 18.8955 37.1731 18.8955H31.7315L26.5231 25.7088C26.3676 25.9451 26.2121 26.1814 26.0566 26.4177C25.94 26.654 25.8623 26.9691 25.8623 27.3235V30.3954C25.8623 30.7104 25.94 30.9861 26.1344 31.183C26.3287 31.38 26.5619 31.4981 26.8729 31.4981H46.8125C47.3567 31.4981 47.862 31.2224 48.1729 30.7892L50.1941 28.0324C50.7382 27.2447 50.2329 26.2602 49.3778 26.2602Z" fill="#283049"/>
    <path d="M26.1476 5.76583H41.857L37.6154 11.2827C37.0656 11.9771 37.5761 12.9802 38.4794 12.9802H43.9777L49.2404 6.30594C49.3975 6.07446 49.5546 5.84298 49.7117 5.61151C49.8295 5.38003 49.908 5.0714 49.908 4.72418V1.71499C49.908 1.40635 49.8295 1.1363 49.6331 0.943401C49.4368 0.750504 49.2011 0.634766 48.8869 0.634766H28.7396C28.1898 0.634766 27.6792 0.904822 27.365 1.3292L25.3228 4.02975C24.773 4.76276 25.2835 5.76583 26.1476 5.76583Z" fill="#283049"/>
</svg>
