<svg width="35" height="35" viewBox="0 0 35 35" fill="none" 
    xmlns="http://www.w3.org/2000/svg">
    <path d="M27.8348 10.5603C22.127 4.99942 12.8729 4.99942 7.16519 10.5603L6.47825 11.2296C6.19287 11.5076 6.19287 11.9584 6.47825 12.2365L8.82813 14.5259C8.97082 14.6649 9.20217 14.6649 9.34487 14.5259L10.2902 13.6049C14.272 9.72548 20.7279 9.72548 24.7098 13.6049L25.7221 14.5912C25.8648 14.7302 26.0962 14.7302 26.2389 14.5912L28.5887 12.3018C28.8741 12.0237 28.8741 11.5729 28.5887 11.2949L27.8348 10.5603ZM2.30543 15.2951L0.214039 17.3327C-0.0713463 17.6107 -0.0713501 18.0615 0.214035 18.3396L9.64426 27.5273C9.92965 27.8054 10.3924 27.8054 10.6777 27.5273C10.6777 27.5273 10.6777 27.5273 10.6777 27.5273L17.3708 21.0065C17.4421 20.937 17.5578 20.937 17.6291 21.0065C17.6291 21.0065 17.6291 21.0065 17.6291 21.0065L24.322 27.5273C24.6074 27.8054 25.0701 27.8054 25.3555 27.5273C25.3555 27.5273 25.3555 27.5273 25.3555 27.5273L34.786 18.3394C35.0713 18.0614 35.0713 17.6106 34.786 17.3326L32.6946 15.295C32.4092 15.0169 31.9465 15.0169 31.6611 15.295L24.968 21.8159C24.8966 21.8854 24.781 21.8854 24.7096 21.8159C24.7096 21.8159 24.7096 21.8159 24.7096 21.8159L18.0168 15.295C17.7315 15.0169 17.2688 15.0169 16.9834 15.2949C16.9834 15.2949 16.9834 15.2949 16.9834 15.295L10.2903 21.8159C10.2189 21.8854 10.1032 21.8854 10.0319 21.8159L3.33891 15.2951C3.05352 15.017 2.59082 15.017 2.30543 15.2951Z" fill="#3B99FC"/>
</svg>