<svg width="184" height="32" viewBox="0 0 184 32" fill="none"
    xmlns="http://www.w3.org/2000/svg">
    <path d="M37.3857 24.0201C37.249 23.8848 37.1943 23.7496 37.1943 23.5603C37.1943 23.3709 37.249 23.2086 37.3857 23.0464L42.5264 16.2576L37.7686 9.87445C37.6592 9.71217 37.5771 9.54988 37.5771 9.36055C37.5771 9.17122 37.6318 9.03599 37.7686 8.90076C37.9053 8.76552 38.042 8.71143 38.2334 8.71143H40.8857C41.1045 8.71143 41.2685 8.76552 41.3779 8.84666C41.4873 8.9278 41.5967 9.06304 41.7334 9.22532L45.0967 13.661L48.4326 9.22532C48.4599 9.19827 48.5146 9.11713 48.6513 8.95485C48.7881 8.79257 48.9795 8.71143 49.2802 8.71143H51.8505C52.042 8.71143 52.1787 8.76552 52.3154 8.90076C52.4248 9.03599 52.5068 9.17123 52.5068 9.33351C52.5068 9.52284 52.4521 9.71217 52.3154 9.87445L47.5029 16.2846L52.6709 23.0464C52.7802 23.2086 52.8623 23.3709 52.8623 23.5603C52.8623 23.7496 52.8076 23.8848 52.6709 24.0201C52.5341 24.1553 52.3974 24.2094 52.206 24.2094H49.4443C49.1162 24.2094 48.8427 24.0471 48.624 23.7225L45.0146 19.0163L41.3779 23.7225C41.1592 24.0471 40.8857 24.2094 40.5576 24.2094H37.8779C37.6592 24.2094 37.4951 24.1553 37.3857 24.0201Z" fill="#283049"/>
    <path d="M15.4453 15.3918C15.39 13.2603 14.7267 11.5854 13.6212 10.2737C12.5156 8.96201 10.9402 8.30616 8.89495 8.30616C6.9326 8.30616 5.38484 8.96201 4.25165 10.301V3.60587C4.25165 3.16864 3.80944 2.89536 3.42249 3.05933L0.161133 4.39836V23.5548C0.161133 23.746 0.24405 23.9373 0.382243 24.074C0.520436 24.2106 0.686271 24.2926 0.90738 24.2926H3.33958C3.56069 24.2926 3.75416 24.2106 3.89235 24.074C4.03054 23.9373 4.11346 23.7734 4.11346 23.5548V22.4343C5.21901 23.8554 6.84969 24.5659 8.95023 24.5659C10.9955 24.5659 12.5709 23.91 13.6764 22.6256C14.782 21.3413 15.3624 19.5923 15.4453 17.4335C15.5141 16.7529 15.4453 16.0663 15.4453 15.3918ZM11.189 17.3241C11.0508 19.9749 9.88994 21.2866 7.73413 21.2866C6.5733 21.2866 5.7165 20.904 5.13609 20.1662C4.55568 19.4283 4.25166 18.5265 4.22402 17.4608C4.19638 17.2148 4.19638 16.8323 4.19638 16.313C4.19638 15.7665 4.19638 15.3839 4.22402 15.138C4.25166 14.1269 4.58332 13.2797 5.16373 12.5692C5.74414 11.8587 6.60094 11.5034 7.70649 11.5034C9.88994 11.5034 11.0231 12.8152 11.1613 15.4659C11.189 15.6572 11.189 15.9578 11.189 16.3677C11.2166 16.8323 11.2166 17.1329 11.189 17.3241Z" fill="#283049"/>
    <path d="M34.3328 20.76H23.5117L26.4334 16.8594C26.8121 16.3684 26.4604 15.6592 25.8382 15.6592H22.0508L18.4257 20.3782C18.3175 20.5418 18.2093 20.7055 18.1011 20.8691C18.0199 21.0328 17.9658 21.251 17.9658 21.4965V23.6242C17.9658 23.8424 18.0199 24.0333 18.1552 24.1697C18.2905 24.3061 18.4528 24.3879 18.6692 24.3879H32.5474C32.9261 24.3879 33.2778 24.197 33.4942 23.8969L34.901 21.9875C35.2797 21.442 34.928 20.76 34.3328 20.76Z" fill="#283049"/>
    <path d="M18.1644 6.56507H29.0983L26.1462 10.3861C25.7635 10.8671 26.1188 11.5618 26.7475 11.5618H30.5744L34.2373 6.93916C34.3466 6.77884 34.4559 6.61851 34.5653 6.45819C34.6473 6.29787 34.7019 6.0841 34.7019 5.84362V3.75941C34.7019 3.54564 34.6473 3.3586 34.5106 3.225C34.3739 3.09139 34.2099 3.01123 33.9912 3.01123H19.9685C19.5858 3.01123 19.2305 3.19828 19.0118 3.4922L17.5904 5.36265C17.2077 5.87034 17.5631 6.56507 18.1644 6.56507Z" fill="#283049"/>
    <path d="M74.79 24.4521C73.4484 23.9004 72.4345 23.1648 71.7325 22.2606C71.0462 21.3564 70.6718 20.3602 70.625 19.2874C70.625 19.1188 70.6874 18.9809 70.8122 18.8429C70.937 18.705 71.093 18.6437 71.2802 18.6437H74.1504C74.3844 18.6437 74.5716 18.6897 74.712 18.797C74.8524 18.9043 74.9928 19.0422 75.1176 19.2261C75.3203 19.9311 75.8039 20.5134 76.5527 20.9885C77.3014 21.4636 78.3154 21.6935 79.6257 21.6935C81.092 21.6935 82.1996 21.4483 82.9483 20.9732C83.6971 20.4828 84.0715 19.8238 84.0715 18.9809C84.0715 18.4292 83.8843 17.9541 83.5099 17.5862C83.1355 17.2184 82.5583 16.8966 81.794 16.6054C81.0296 16.3295 79.8909 15.9924 78.3778 15.5939C75.8975 15.0115 74.088 14.2606 72.9337 13.3104C71.7793 12.3602 71.2022 10.9962 71.2022 9.23375C71.2022 8.03835 71.5453 6.96555 72.2161 6.03069C72.8869 5.09582 73.854 4.36019 75.102 3.82379C76.3499 3.28739 77.8006 3.02686 79.4541 3.02686C81.2012 3.02686 82.6987 3.33337 83.9779 3.93107C85.2414 4.52877 86.2085 5.27973 86.8793 6.16862C87.5501 7.05751 87.8932 7.96172 87.94 8.85061C87.94 9.01919 87.8777 9.17245 87.7529 9.29506C87.6281 9.43299 87.4721 9.49429 87.2849 9.49429H84.2587C83.7907 9.49429 83.4787 9.31038 83.3071 8.94256C83.1979 8.28356 82.7923 7.73184 82.0748 7.28739C81.3572 6.84295 80.4837 6.62839 79.4229 6.62839C78.2686 6.62839 77.3638 6.84295 76.6931 7.27207C76.0223 7.70119 75.6947 8.32954 75.6947 9.15712C75.6947 9.70885 75.8663 10.1839 76.1939 10.5518C76.5371 10.9196 77.0518 11.2414 77.7694 11.5326C78.487 11.8085 79.5165 12.1303 80.8892 12.4828C82.7611 12.8966 84.2431 13.3564 85.3506 13.8774C86.4581 14.3985 87.2693 15.0422 87.7841 15.8238C88.3144 16.6054 88.564 17.6016 88.564 18.8276C88.564 20.161 88.1896 21.3257 87.4409 22.3065C86.6921 23.2874 85.647 24.0384 84.2899 24.5441C82.9327 25.0652 81.3728 25.3104 79.5789 25.3104C77.7382 25.2797 76.1315 25.0039 74.79 24.4521Z" fill="#283049"/>
    <path d="M107.19 24.6514C106.3 24.2223 105.598 23.6553 105.084 22.935C104.569 22.2147 104.319 21.4177 104.319 20.5595C104.319 19.1649 104.897 18.0308 106.051 17.1572C107.205 16.299 108.796 15.7013 110.809 15.3947L115.114 14.7817V14.138C115.114 13.2491 114.88 12.5748 114.428 12.1304C113.96 11.6706 113.226 11.456 112.228 11.456C111.542 11.456 110.98 11.5786 110.559 11.8239C110.138 12.0691 109.795 12.3296 109.529 12.5748C109.264 12.8354 109.093 13.0039 109.015 13.0806C108.937 13.3258 108.781 13.4484 108.547 13.4484H106.098C105.91 13.4484 105.739 13.3871 105.614 13.2645C105.474 13.1419 105.411 12.9733 105.411 12.7741C105.427 12.253 105.692 11.6706 106.176 11.0269C106.675 10.3832 107.424 9.8162 108.453 9.32578C109.483 8.83535 110.746 8.60547 112.259 8.60547C114.739 8.60547 116.533 9.15719 117.672 10.2453C118.811 11.3334 119.372 12.7741 119.372 14.5365V24.253C119.372 24.4522 119.31 24.6361 119.17 24.774C119.029 24.912 118.842 24.9886 118.624 24.9886H116.019C115.816 24.9886 115.629 24.912 115.488 24.774C115.348 24.6361 115.27 24.4522 115.27 24.253V23.0422C114.802 23.7013 114.162 24.2376 113.32 24.6668C112.478 25.0959 111.432 25.2951 110.169 25.2951C109.061 25.2798 108.079 25.0652 107.19 24.6514ZM114.038 21.2032C114.771 20.4675 115.145 19.3947 115.145 17.9848V17.3718L111.994 17.8622C109.576 18.23 108.375 19.0269 108.375 20.2376C108.375 20.8967 108.656 21.4024 109.202 21.7702C109.763 22.138 110.419 22.3066 111.199 22.3066C112.353 22.3066 113.304 21.9388 114.038 21.2032Z" fill="#283049"/>
    <path d="M123.631 24.7588C123.491 24.6209 123.413 24.437 123.413 24.2378V4.62091L126.783 3.01172C126.985 3.01172 127.172 3.08835 127.313 3.22628C127.453 3.36421 127.531 3.54812 127.531 3.74735V14.3221L132.757 9.40252C132.819 9.35655 132.913 9.27992 133.053 9.17264C133.194 9.06536 133.319 8.98873 133.443 8.94275C133.568 8.89678 133.724 8.88145 133.911 8.88145H136.906C137.109 8.88145 137.281 8.94275 137.406 9.06536C137.53 9.18796 137.593 9.35655 137.593 9.55578C137.593 9.73969 137.484 9.9236 137.281 10.1075L130.854 16.0692L138.061 23.732C138.248 23.9159 138.341 24.0998 138.341 24.2531C138.341 24.4523 138.279 24.6209 138.154 24.7435C138.03 24.8661 137.874 24.9274 137.686 24.9274H134.644C134.348 24.9274 134.13 24.8968 134.005 24.8201C133.865 24.7435 133.693 24.6056 133.49 24.4064L127.547 18.1841V23.3182L124.177 24.9274C123.959 24.9734 123.787 24.8968 123.631 24.7588Z" fill="#283049"/>
    <path d="M140.978 24.7586C140.838 24.6206 140.76 24.4367 140.76 24.2375L140.713 10.4597L144.192 8.89648C144.394 8.89648 144.582 8.97311 144.722 9.11104C144.862 9.24897 144.94 9.43288 144.94 9.63212V23.3639L141.508 24.9731C141.306 24.9731 141.118 24.8965 140.978 24.7586Z" fill="#283049"/>
    <path d="M149.323 24.7589C149.182 24.621 149.104 24.4371 149.104 24.2378V10.506L152.474 8.89685C152.708 8.89685 152.895 8.95815 153.02 9.09608C153.16 9.23401 153.223 9.41792 153.223 9.63248V10.9045C154.502 9.35662 156.249 8.59033 158.48 8.59033C160.414 8.59033 161.943 9.20336 163.081 10.4447C164.22 11.6861 164.782 13.3873 164.782 15.5482V23.3643L161.194 24.9735C160.991 24.9735 160.804 24.8968 160.664 24.7589C160.523 24.621 160.445 24.4371 160.445 24.2378V15.7321C160.445 14.5367 160.149 13.6018 159.54 12.9275C158.948 12.2532 158.09 11.916 156.982 11.916C155.906 11.916 155.048 12.2532 154.408 12.9428C153.753 13.6172 153.425 14.552 153.425 15.7321V23.3643L149.869 24.9735C149.635 24.9735 149.463 24.8968 149.323 24.7589Z" fill="#283049"/>
    <path d="M101.714 21.7241C101.573 21.5862 101.386 21.5249 101.168 21.5249H98.9684C98.2508 21.5249 97.7361 21.295 97.4241 20.8505C97.1121 20.3908 96.9561 19.7318 96.9561 18.8429V12.2528C96.9561 12.2222 96.9873 12.2069 97.0029 12.2069H101.371C101.605 12.2069 101.823 12.1302 101.979 11.9616C102.104 11.8237 102.182 11.6551 102.182 11.4559V9.61682C102.182 9.41759 102.104 9.23368 101.963 9.09575C101.823 8.95781 101.636 8.88119 101.433 8.88119H97.0185C96.9873 8.88119 96.9717 8.85053 96.9717 8.83521V3.70111C96.9717 3.14939 96.4101 2.78157 95.8954 2.99613L92.8847 4.20686C92.8691 4.22218 92.8535 4.23751 92.8535 4.25283V19.1494C92.8535 21.0498 93.3371 22.4904 94.3042 23.4559C95.2714 24.4367 96.7065 24.9272 98.6096 24.9272H101.183C101.417 24.9272 101.605 24.8505 101.729 24.7126C101.87 24.5747 101.932 24.3908 101.932 24.1915V22.2452C101.917 22.0306 101.854 21.8467 101.714 21.7241Z" fill="#283049"/>
    <path d="M144.613 6.06151L141.805 7.37952C141.259 7.64005 140.635 7.24158 140.635 6.65921V4.6822C140.635 4.37568 140.822 4.0845 141.103 3.96189L143.911 2.64388C144.457 2.38334 145.081 2.78181 145.081 3.36419V5.32587C145.081 5.64771 144.893 5.92358 144.613 6.06151Z" fill="#283049"/>
    <path d="M183.969 9.66313C183.969 9.43324 183.891 9.24934 183.75 9.1114C183.61 8.97347 183.423 8.89685 183.22 8.89685L179.851 10.5367V10.8739C179.305 10.1689 178.618 9.61715 177.776 9.20336C176.934 8.78957 175.966 8.59033 174.843 8.59033C172.675 8.59033 171.053 9.26466 169.93 10.598C168.822 11.9313 168.214 13.7091 168.136 15.916L168.104 16.7436L168.136 17.5712C168.214 19.824 168.806 21.5865 169.914 22.8892C171.022 24.1919 172.659 24.8355 174.843 24.8355C176.918 24.8355 178.525 24.1765 179.663 22.8585V24.9581C179.663 26.3221 179.367 27.2723 178.774 27.824C178.182 28.3758 177.261 28.6363 175.998 28.6363H175.249C174.687 28.6363 174.235 29.0808 174.235 29.6325V30.9965C174.235 31.3796 174.531 31.6861 174.921 31.7168C175.311 31.7474 175.732 31.7627 176.154 31.7627C178.774 31.7627 180.74 31.1344 182.035 29.8777C183.329 28.621 183.984 26.8432 183.984 24.5597L183.969 9.66313ZM179.663 17.7398C179.601 18.8126 179.273 19.7168 178.681 20.4677C178.088 21.2034 177.214 21.5865 176.044 21.5865C173.627 21.5865 172.425 19.9773 172.425 16.7589L172.457 16.0233C172.581 13.2953 173.783 11.9467 176.044 11.9467C177.214 11.9467 178.104 12.3145 178.681 13.0654C179.273 13.8011 179.601 14.7206 179.663 15.7934C179.679 15.962 179.695 16.2838 179.695 16.7896C179.695 17.2493 179.679 17.5712 179.663 17.7398Z" fill="#283049"/>
    <path d="M55.2901 27.0801C55.4093 27.2024 55.5483 27.2636 55.7072 27.2636H57.6438C57.902 27.2636 58.1006 27.1922 58.2396 27.0496C58.3985 26.9273 58.5078 26.7846 58.5674 26.6216L68.7568 1.64479C68.7965 1.54288 68.8163 1.43079 68.8163 1.3085C68.8163 1.12507 68.7568 0.972216 68.6376 0.849931C68.5184 0.727646 68.3694 0.666504 68.1907 0.666504H66.2541C66.0158 0.666504 65.8171 0.737837 65.6582 0.880502C65.4993 1.00279 65.3802 1.14545 65.3007 1.3085L55.1709 26.2853C55.1312 26.3872 55.1113 26.4993 55.1113 26.6216C55.1113 26.805 55.1709 26.9579 55.2901 27.0801Z" fill="#283049"/>
</svg>