<svg viewBox="0 0 56 56" fill="none" 
    xmlns="http://www.w3.org/2000/svg">
    <circle cx="28" cy="28" r="28" fill="#276BFB"/>
    <path d="M15.9059 20.478C15.9435 20.1143 15.8019 19.7548 15.5247 19.5101L12.7012 16.1777V15.6799H21.4682L28.2447 30.2399L34.2024 15.6799H42.56V16.1777L40.1459 18.4454C39.9378 18.6008 39.8345 18.8562 39.8777 19.1091V35.7708C39.8345 36.0236 39.9378 36.2791 40.1459 36.4345L42.5035 38.7022V39.1999H30.6447V38.7022L33.0871 36.3792C33.3271 36.1441 33.3271 36.075 33.3271 35.7155V22.2478L26.5365 39.1446H25.6188L17.7129 22.2478V33.5723C17.647 34.0484 17.8084 34.5277 18.1506 34.872L21.3271 38.6468V39.1446H12.32V38.6468L15.4965 34.872C15.8361 34.5272 15.9881 34.0446 15.9059 33.5723V20.478Z" fill="white"/>
</svg>
