<svg width="56" height="56" viewBox="0 0 56 56" fill="none" 
    xmlns="http://www.w3.org/2000/svg">
    <circle cx="28" cy="28" r="28" fill="#276BFB"/>
    <path d="M11.7147 27.4473L18.4226 30.102L21.0242 38.9512C21.1892 39.5172 21.8493 39.723 22.2765 39.3525L26.0138 36.1215C26.4021 35.782 26.9652 35.7614 27.3729 36.0804L34.1196 41.2767C34.5856 41.6369 35.2457 41.3693 35.3622 40.7725L40.3033 15.5729C40.4295 14.9246 39.8276 14.3792 39.2452 14.6159L11.705 25.8832C11.0255 26.161 11.0352 27.1797 11.7147 27.4473ZM20.6068 28.6923L33.7216 20.1312C33.9546 19.9769 34.1973 20.3164 33.9934 20.5119L23.1696 31.1824C22.791 31.5529 22.5483 32.0571 22.4706 32.6024L22.1017 35.4939C22.0532 35.8849 21.5387 35.9157 21.4416 35.5453L20.0243 30.2667C19.869 29.6698 20.102 29.0216 20.6068 28.6923Z" fill="white"/>
</svg>
