<svg xmlns="http://www.w3.org/2000/svg" x="0px" y="0px" width="32" height="32" viewBox="0 0 32 32">
  <linearGradient id="a" gradientUnits="userSpaceOnUse" x1="29.92" y1="-51.92" x2="4.32" y2="-26.32" gradientTransform="matrix(1 0 0 -1 0 -22)">
    <stop offset="0.1594" stop-color="#003cda"/>
    <stop offset="1" stop-color="#33dfcc"/>
  </linearGradient>
  <circle fill="url(#a)" cx="16" cy="16" r="16"/>
  <path fill="#FFF" d="M12 0H9.3v8H12V0z"/>
  <path fill="#FFF" d="M18.3 22.7H14c-2.4 0-4.4-2-4.4-4.5V15h3.2v3.2c0 .7.5 1.2 1.2 1.2h4.3c.6 0 1.2-.5 1.2-1.2v-4.3c0-.7-.5-1.2-1.2-1.2H0V9.3h18.3c2.4 0 4.4 2 4.4 4.5v4.4c0 2.5-2 4.5-4.4 4.5z"/>
</svg>