<svg width="56" height="56" viewBox="0 0 56 56" fill="none" 
    xmlns="http://www.w3.org/2000/svg">
    <circle cx="28" cy="28" r="28" fill="#276BFB"/>
    <path fill-rule="evenodd" clip-rule="evenodd" d="M43.6805 19.7166C42.6092 20.2113 41.4578 20.5457 40.2492 20.6961C41.4826 19.9262 42.43 18.7073 42.8761 17.2546C41.7216 17.9676 40.4431 18.4852 39.0822 18.7641C37.9925 17.5552 36.4397 16.7998 34.7214 16.7998C31.4221 16.7998 28.7471 19.5849 28.7471 23.0201C28.7471 23.5076 28.7999 23.9823 28.9017 24.4377C23.9366 24.1782 19.5344 21.7018 16.5878 17.9383C16.0735 18.8571 15.7789 19.9256 15.7789 21.0656C15.7789 23.2238 16.8336 25.1277 18.4367 26.2431C17.4573 26.2108 16.5362 25.9309 15.7306 25.4651C15.7301 25.4911 15.7301 25.5171 15.7301 25.5434C15.7301 28.5571 17.7896 31.0711 20.5225 31.6429C20.0212 31.7849 19.4935 31.861 18.9486 31.861C18.5636 31.861 18.1894 31.822 17.8245 31.7494C18.5848 34.2206 20.7911 36.019 23.4055 36.069C21.3607 37.7374 18.7848 38.7321 15.9856 38.7321C15.5034 38.7321 15.0279 38.7024 14.5605 38.645C17.2045 40.41 20.3447 41.4398 23.7186 41.4398C34.7076 41.4398 40.7168 31.9614 40.7168 23.7414C40.7168 23.4717 40.711 23.2034 40.6994 22.9366C41.8668 22.0595 42.8796 20.964 43.6805 19.7166Z" fill="white"/>
</svg>
