<svg version="1.1" id="Layer_1"
  xmlns="http://www.w3.org/2000/svg"
  xmlns:xlink="http://www.w3.org/1999/xlink" x="0px" y="0px" width="69" height="69" viewBox="0 0 69 69" style="" xml:space="preserve">
  <g>
    <path class="st0 animation-tx-1" d="M45.1,4.9C39.2-1,29.8-1,23.9,4.9l-19,19C-1,29.8-1,39.2,4.9,45.1l19,19c5.9,5.9,15.4,5.9,21.2,0l19-19
		c5.9-5.9,5.9-15.4,0-21.2L45.1,4.9z"></path>
    <path class="st1 animation-tx-2" d="M39.3,10.5l19,19c2.7,2.7,2.7,7.2,0,9.9l-19,19c-2.7,2.7-7.2,2.7-9.9,0l-19-19c-2.7-2.7-2.7-7.2,0-9.9l19-19
		C32.2,7.8,36.6,7.8,39.3,10.5z"></path>
  </g>
</svg>