<svg xmlns="http://www.w3.org/2000/svg" width="64" height="64" viewBox="0 0 64 64">
    <defs>
        <style>
            .cls-1{fill:#7668d5}.cls-2{fill:#fff}
        </style>
    </defs>
    <g id="ic_token_zrx" transform="translate(-32 -376)">
        <rect id="Rectangle_412" width="64" height="64" class="cls-1" data-name="Rectangle 412" rx="32" transform="translate(32 376)"/>
        <g id="Group_404" data-name="Group 404" transform="translate(46 390)">
            <path id="Path_331" d="M17.385 0h1.079c.677.044 1.354.085 2.027.18a17.744 17.744 0 0 1 6.545 2.273c-.46.366-.954.688-1.426 1.038-3.192 2.284-6.375 4.581-9.571 6.859-.259-.215-.483-.466-.729-.7-.729-.7-1.438-1.417-2.174-2.107a5.818 5.818 0 0 0-.763.38 11.761 11.761 0 0 0-4.125 3.894 153.434 153.434 0 0 1-3.912-5.2c-.04-.058-.076-.119-.112-.18a17.47 17.47 0 0 1 1.55-1.627A18.009 18.009 0 0 1 15.861.135C16.367.067 16.878.054 17.385 0zm8.745 6.731c1.129-.852 2.26-1.7 3.417-2.516A17.954 17.954 0 0 1 35.261 23.1a17.761 17.761 0 0 1-1.6 3.755 1.9 1.9 0 0 1-.262-.318l-6.54-8.637c-.423-.566-.859-1.122-1.275-1.692.954-1.025 1.949-2.014 2.906-3.036a11.616 11.616 0 0 0-2.807-3.786 13.579 13.579 0 0 0-1.5-1.143c.632-.523 1.293-1.011 1.944-1.511M1.263 11.4A16.15 16.15 0 0 1 2.4 9.072c.634.8 1.24 1.621 1.863 2.43l5.92 7.758a6.137 6.137 0 0 1 .379.517c-1 1.04-2.018 2.055-3.01 3.1a10.01 10.01 0 0 0 .9 1.6 11.633 11.633 0 0 0 1.789 2.061 13.747 13.747 0 0 0 1.574 1.219c-.475.4-.977.767-1.467 1.147q-1.31 1-2.642 1.977c-.42.3-.823.62-1.256.9a18.069 18.069 0 0 1-5.81-9.055A18.99 18.99 0 0 1 0 18.45v-.9c.021-.312.04-.624.062-.936a17.888 17.888 0 0 1 1.2-5.209zm25.308 14.336a13.773 13.773 0 0 0 1.2-1.556c.4.494.785 1 1.175 1.509a150.07 150.07 0 0 1 2.845 3.844 10.215 10.215 0 0 1-.9 1.016 18.046 18.046 0 0 1-9.669 5.158A21.251 21.251 0 0 1 18.6 36h-1.3c-.387-.049-.777-.057-1.163-.1a17.736 17.736 0 0 1-7.157-2.346c.746-.568 1.5-1.122 2.251-1.687l8.575-6.4c.485.447.943.923 1.42 1.379.558.534 1.094 1.093 1.664 1.616a11.469 11.469 0 0 0 3.686-2.72" class="cls-2" data-name="Path 331"/>
        </g>
    </g>
</svg>
