<svg xmlns="http://www.w3.org/2000/svg" width="96" height="29.288" viewBox="0 0 96 29.288">
    <defs>
        <style>
            .cls-1{fill:#133444}.cls-2{fill:#c42370}.cls-3{fill:#1c4d6b}.cls-4{fill:#1d4259}.cls-5{fill:#4b6b9a}.cls-6{fill:#343535}.cls-7{fill:#3e5578}.cls-8{fill:#6db2d8}.cls-9{fill:#335f8a}.cls-10{fill:#529bba}.cls-11{fill:#fff}
        </style>
    </defs>
    <g id="logo_big___portis" transform="translate(0 .002)">
        <g id="Layer_1" data-name="Layer 1" transform="translate(0 -.002)">
            <g id="Layer_2" data-name="Layer 2" transform="translate(0 .058)">
                <g id="Layer_1-2" data-name="Layer 1-2">
                    <path id="Path_453" d="M2 92.579l.705-.308 8.677-3.771 9.375 4.079-3.52 7.272-8.619 1.218-6.47-6.99z" class="cls-1" data-name="Path 453" transform="translate(-1.711 -75.77)"/>
                    <path id="Path_454" d="M21.271 65.014a9.64 9.64 0 0 0-6.144-3.4l-.153-.02a9.36 9.36 0 0 0-2.257 0l-.155.019a9.63 9.63 0 0 0-6.144 3.4l-.39.647-.648 1.08-.474.789a.236.236 0 0 1-.026.064v.013l1.045.623 6.647 3.93 1.283.757v-9.393l-1.283.578V62.7l1.283-.578 1.282.578 6.522 2.969z" class="cls-2" data-name="Path 454" transform="translate(-4.175 -52.695)"/>
                    <path id="Path_455" d="M19.334 119.021a10.358 10.358 0 0 1-3.79 7.947 9.665 9.665 0 0 1-3.052 1.693 8.985 8.985 0 0 1-2.812.448c-5.345 0-9.68-4.752-9.68-10.088a9.929 9.929 0 0 1 .289-2.341l9.375 5.547 9.376-5.547a9.305 9.305 0 0 1 .294 2.341z" class="cls-3" data-name="Path 455" transform="translate(0 -99.879)"/>
                    <path id="Path_456" d="M58.2 61.631l1.128.507-1.283.582v-1.16z" data-name="Path 456" transform="translate(-49.662 -52.723)"/>
                    <path id="Path_457" d="M58.05 75.9l1.283-.584v9.395l-1.283-.757z" data-name="Path 457" transform="translate(-49.662 -64.495)"/>
                    <path id="Path_458" d="M66.93 75.32v9.395l8.984-5.31z" class="cls-4" data-name="Path 458" transform="translate(-57.259 -64.495)"/>
                    <path id="Path_459" d="M66.93.4v10.825l8.984 4.085z" class="cls-5" data-name="Path 459" transform="translate(-57.259 -.4)"/>
                    <path id="Path_460" d="M13.734 70.538v9.392l-1.283-.757-7.688-4.55h.006c0-.019.02-.045.026-.064l1.123-1.867 6.534-2.962v1.4z" class="cls-6" data-name="Path 460" transform="translate(-4.064 -59.713)"/>
                    <path id="Path_461" d="M13.734 75.32v9.395l-1.283-.757-7.7-4.546-.001-.012.013-.013 7.688-3.487z" class="cls-7" data-name="Path 461" transform="translate(-4.064 -64.495)"/>
                    <path id="Path_462" d="M13.734.4v10.825L4.75 15.31z" class="cls-8" data-name="Path 462" transform="translate(-4.064 -.4)"/>
                    <path id="Path_463" d="M41.76 197.37c.136.058.27.116.4.166-.13-.05-.26-.108-.4-.166z" class="cls-9" data-name="Path 463" transform="translate(-35.726 -168.91)"/>
                    <path id="Path_464" d="M44.56 198.52c.134.052.276.1.416.144a3.543 3.543 0 0 1-.416-.144z" class="cls-9" data-name="Path 464" transform="translate(-38.122 -169.894)"/>
                    <path id="Path_465" d="M49.89 200.34c.108.033.211.058.319.084-.102-.024-.209-.058-.319-.084z" class="cls-9" data-name="Path 465" transform="translate(-42.681 -171.451)"/>
                    <path id="Path_466" d="M.289 116.73l9.375 5.547a10.87 10.87 0 0 1-.673 2.456c-.754 1.821-2.263 3.739-5.2 2.276A10.351 10.351 0 0 1 0 119.064a10.136 10.136 0 0 1 .289-2.334z" class="cls-8" data-name="Path 466" transform="translate(0 -99.921)"/>
                    <path id="Path_467" d="M37.944 159.972l-.026.02c-.051.038-.1.077-.144.116l-.013.012c-.051.045-.108.084-.16.123a1.743 1.743 0 0 1-.179.127 1.822 1.822 0 0 0-.179.129c-.058.045-.11.071-.16.11l-.033.019c-.056.039-.114.071-.166.108a.022.022 0 0 0-.019.013c-.058.039-.116.071-.173.11s-.129.071-.192.108-.129.071-.192.1H36.3l-.192.1-.2.1a10.676 10.676 0 0 1-.6.256c-.13.05-.276.1-.416.145a1.5 1.5 0 0 1-.168.052l-.185.058c-.11.032-.212.058-.321.084-.039.012-.084.019-.123.032l-.069.013-.173.038c-.058.013-.1.02-.16.032a1.089 1.089 0 0 1-.144.026c-.052.007-.11.02-.16.026a.156.156 0 0 0-.077.013l-.123.013h-.064a.846.846 0 0 1-.134.013 1.306 1.306 0 0 1-.168.013h-.129c-.046 0-.077.007-.114.007h-.692a1.441 1.441 0 0 1-.181 0h-.134c-.039 0-.077-.007-.116-.007h-.129a1.61 1.61 0 0 0-.166-.013.472.472 0 0 1-.134-.013h-.068a.693.693 0 0 0-.121-.013.34.34 0 0 1-.077-.013 1.2 1.2 0 0 1-.16-.026.914.914 0 0 1-.144-.026 1.493 1.493 0 0 1-.16-.032c-.052-.013-.116-.025-.173-.038l-.071-.013a1.16 1.16 0 0 1-.133-.017c-.11-.026-.218-.058-.321-.084l-.192-.058c-.058-.019-.116-.032-.168-.052-.144-.045-.276-.1-.416-.144s-.276-.108-.4-.166c-.064-.032-.134-.058-.2-.09l-.2-.1-.192-.1c-.064-.032-.127-.071-.192-.1s-.129-.071-.192-.108-.116-.071-.173-.11l-.019-.013a1.444 1.444 0 0 1-.168-.108l-.032-.019c-.051-.032-.108-.071-.16-.11s-.121-.082-.179-.129-.121-.082-.179-.127l-.16-.123-.013-.012a2.687 2.687 0 0 1-.144-.116l-.026-.02c2.93 1.462 4.45-.461 5.2-2.27a10.9 10.9 0 0 0 .675-2.456 10.9 10.9 0 0 0 .673 2.464c.757 1.785 2.271 3.71 5.201 2.246z" class="cls-10" data-name="Path 467" transform="translate(-22.406 -132.884)"/>
                    <path id="Path_468" d="M81.71 200.424c.108-.026.218-.058.321-.084-.103.026-.213.06-.321.084z" class="cls-9" data-name="Path 468" transform="translate(-69.904 -171.451)"/>
                    <path id="Path_469" d="M86.41 198.694c.144-.045.276-.1.418-.144-.136.05-.276.1-.418.144z" class="cls-9" data-name="Path 469" transform="translate(-73.925 -169.919)"/>
                    <path id="Path_470" d="M89.3 197.536z" class="cls-9" data-name="Path 470" transform="translate(-76.397 -168.91)"/>
                    <path id="Path_471" d="M76.585 119.106a10.358 10.358 0 0 1-3.79 7.947c-2.93 1.462-4.45-.462-5.2-2.27a10.919 10.919 0 0 1-.673-2.456l9.375-5.547a9.472 9.472 0 0 1 .288 2.326z" class="cls-5" data-name="Path 471" transform="translate(-57.251 -99.964)"/>
                </g>
            </g>
            <g id="Group_512" data-name="Group 512">
                <path id="Path_472" d="M186.6 72.8h-3.18V51.576h3.18v1.5a6.014 6.014 0 0 1 8.929.217 7.53 7.53 0 0 1 1.864 5.231 7.417 7.417 0 0 1-1.849 5.144 6.012 6.012 0 0 1-8.944.116V72.8zm7.557-14.276a4.816 4.816 0 0 0-1.069-3.222 3.453 3.453 0 0 0-2.731-1.257 3.61 3.61 0 0 0-2.832 1.214 4.623 4.623 0 0 0-1.084 3.193 4.725 4.725 0 0 0 1.084 3.193 3.521 3.521 0 0 0 2.818 1.228 3.435 3.435 0 0 0 2.716-1.243 4.558 4.558 0 0 0 1.097-3.104z" class="cls-11" data-name="Path 472" transform="translate(-156.918 -43.802)"/>
                <path id="Path_473" d="M298.916 58.26a6.876 6.876 0 0 1 2.124-5.072 7.486 7.486 0 0 1 10.4.014 7.361 7.361 0 0 1-.014 10.331 7.236 7.236 0 0 1-5.259 2.081A6.961 6.961 0 0 1 301 63.5a7.157 7.157 0 0 1-2.084-5.24zm3.251.058a4.653 4.653 0 0 0 1.1 3.265 3.856 3.856 0 0 0 2.976 1.214 3.9 3.9 0 0 0 2.976-1.2 5.18 5.18 0 0 0 0-6.415 3.856 3.856 0 0 0-2.976-1.214 3.814 3.814 0 0 0-2.948 1.214 4.417 4.417 0 0 0-1.128 3.136z" class="cls-11" data-name="Path 473" transform="translate(-255.725 -43.709)"/>
                <path id="Path_474" d="M423.534 51.57h3.179v1.23a6.258 6.258 0 0 1 1.546-1.257 3.624 3.624 0 0 1 1.633-.347 5.153 5.153 0 0 1 2.63.824l-1.459 2.9a3.027 3.027 0 0 0-1.763-.65c-1.734 0-2.6 1.3-2.6 3.916v7.123h-3.18V51.57z" class="cls-11" data-name="Path 474" transform="translate(-362.326 -43.796)"/>
                <path id="Path_475" d="M494.257 26.9v10.784h-3.179V26.9h-1.358v-2.957h1.358V18.9h3.179v5.043h2.471V26.9z" class="cls-11" data-name="Path 475" transform="translate(-418.96 -16.169)"/>
                <path id="Path_476" d="M549.817 2.05a1.988 1.988 0 0 1 .607-1.445 2.075 2.075 0 0 1 2.933 0 1.952 1.952 0 0 1 .607 1.459 2.007 2.007 0 0 1-.607 1.474 1.952 1.952 0 0 1-1.459.607 2.007 2.007 0 0 1-1.477-.607 2.023 2.023 0 0 1-.6-1.488zm3.656 5.722v13.741h-3.179V7.772z" class="cls-11" data-name="Path 476" transform="translate(-470.374 .002)"/>
                <path id="Path_477" d="M605.418 53.91l-2.633 1.4c-.419-.852-.925-1.272-1.532-1.272a1.111 1.111 0 0 0-.751.289.959.959 0 0 0-.3.737c0 .52.607 1.055 1.835 1.56a10.52 10.52 0 0 1 3.4 2.008 3.466 3.466 0 0 1 .881 2.471 4.283 4.283 0 0 1-1.474 3.323 5.26 5.26 0 0 1-8.337-2.1l2.716-1.257a5.391 5.391 0 0 0 .867 1.257 1.966 1.966 0 0 0 1.387.535q1.6 0 1.6-1.474c0-.564-.419-1.1-1.243-1.575-.318-.159-.636-.318-.954-.462s-.65-.3-.968-.462a5.734 5.734 0 0 1-1.951-1.358 3.362 3.362 0 0 1-.722-2.211 3.892 3.892 0 0 1 1.228-2.962 4.3 4.3 0 0 1 3.049-1.17 4.131 4.131 0 0 1 3.902 2.723z" class="cls-11" data-name="Path 477" transform="translate(-510.312 -43.795)"/>
            </g>
        </g>
    </g>
</svg>
