<svg xmlns="http://www.w3.org/2000/svg" width="64" height="16.276" viewBox="0 0 64 16.276">
    <defs>
        <style>
            .cls-1{fill:url(#linear-gradient)}.cls-2{fill:#fff;fill-rule:evenodd}
        </style>
        <linearGradient id="linear-gradient" x1=".956" x2="0" y1=".103" y2=".901" gradientUnits="objectBoundingBox">
            <stop offset="0" stop-color="#cf0bc3"/>
            <stop offset="1" stop-color="#ff3568"/>
        </linearGradient>
    </defs>
    <g id="logo_big___bitski" transform="translate(0 -.44)">
        <rect id="stripe" width="1.91" height="11.462" class="cls-1" rx=".75" transform="translate(0 4.898)"/>
        <path id="Bitski" d="M10.5.44h4.883c3.232 0 4.952 1.972 4.952 4.86a7.585 7.585 0 0 1-.16 1.261 2.137 2.137 0 0 0-.046.321c0 .183.069.3.321.436a4.493 4.493 0 0 1 2.224 4.31c0 2.82-1.742 4.86-5.318 4.86H10.5c-.367 0-.5-.16-.5-.527V.967c0-.367.138-.527.5-.527zm3.714 6.3h1.169a.993.993 0 0 0 1.055-1.077 1 1 0 0 0-1.055-1.077h-1.165c-.367 0-.5.16-.5.527v1.1c-.004.371.133.531.5.531zm0 5.594h3.076c.894 0 1.4-.321 1.4-1.077 0-.734-.5-1.077-1.4-1.077h-3.072c-.367 0-.5.16-.5.527v1.1c-.004.37.133.531.5.531zM24.1 15.96V5.552c0-.367.138-.527.5-.527h2.82c.367 0 .5.16.5.527V15.96c0 .367-.138.527-.5.527H24.6c-.364 0-.5-.16-.5-.527zm0-12.7V.967c0-.367.138-.527.5-.527h2.82c.367 0 .5.16.5.527V3.26c0 .367-.138.527-.5.527H24.6c-.364 0-.5-.16-.5-.527zm6.923 5.548h-1.308c-.367 0-.527-.138-.527-.5V5.529c0-.367.138-.5.527-.5h1.307c.367 0 .5-.16.5-.527V.967c0-.367.138-.527.5-.527h2.82c.367 0 .5.16.5.527V4.5c0 .367.138.527.5.527h2.613c.367 0 .527.138.527.5V8.3c0 .367-.16.5-.527.5h-2.596c-.367 0-.5.16-.5.527v6.633c0 .367-.138.527-.5.527H32.03c-.367 0-.5-.16-.5-.527V9.335c-.004-.367-.141-.528-.508-.528zM44.8 16.716a9.819 9.819 0 0 1-4.929-1.353.468.468 0 0 1-.138-.665l1.032-1.949c.183-.344.458-.321.779-.138a6.957 6.957 0 0 0 3.232.986c.619 0 1.077-.183 1.077-.6 0-.39-.413-.527-1.032-.527h-.5c-2.705 0-4.562-1.353-4.562-3.691 0-2.613 2.338-3.989 4.906-3.989a8.393 8.393 0 0 1 4.31 1.032.446.446 0 0 1 .183.665l-1.169 2.04a.536.536 0 0 1-.8.138 4.538 4.538 0 0 0-2.5-.734c-.688 0-1.032.229-1.032.55 0 .39.344.55 1.33.55h.573c2.59 0 4.264 1.261 4.264 3.462-.004 2.733-2.09 4.223-5.024 4.223zm14.19-6.442l3.71 5.548c.229.344.092.665-.321.665h-3.321a1.019 1.019 0 0 1-1.009-.527l-1.788-2.59c-.206-.3-.413-.3-.665-.046l-.183.183a.96.96 0 0 0-.321.871v1.6c0 .344-.138.5-.5.5h-2.847c-.344 0-.481-.16-.481-.5V.944c0-.344.138-.5.481-.5h2.843c.367 0 .5.16.5.5v6.671c0 .367.344.458.6.16l1.949-2.2a1.348 1.348 0 0 1 1.055-.55h3.576c.436 0 .55.39.252.688L59.058 9.4c-.275.3-.344.485-.068.875zm4.81 5.686V5.552c0-.367.138-.527.5-.527h2.82c.367 0 .5.16.5.527V15.96c0 .367-.138.527-.5.527H64.3c-.359 0-.5-.16-.5-.527zm0-12.7V.967c0-.367.138-.527.5-.527h2.82c.367 0 .5.16.5.527V3.26c0 .367-.138.527-.5.527H64.3c-.359 0-.5-.16-.5-.527z" class="cls-2" transform="translate(-3.632)"/>
    </g>
</svg>
