<svg width="200" height="200" viewBox="0 0 200 200" fill="none" xmlns="http://www.w3.org/2000/svg">
<path d="M0 40C0 17.9086 17.9086 0 40 0H160C182.091 0 200 17.9086 200 40V160C200 182.091 182.091 200 160 200H40C17.9086 200 0 182.091 0 160V40Z" fill="url(#paint0_linear)"/>
<path d="M94.3413 92.7855C90.4084 94.2001 87.7396 98.161 88.0205 102.405C88.0205 103.254 88.3014 104.244 88.5823 105.092L90.2679 109.619C92.0939 114.57 97.4315 117.258 102.348 115.419L108.949 113.014L125.664 107.073C130.581 105.234 133.249 99.8585 131.423 94.9074L129.738 90.3807C127.912 85.4296 122.574 82.7419 117.658 84.5808L98.9766 91.2294L94.9032 92.644L94.3413 92.7855Z" fill="white"/>
<path d="M112.526 143.352C111.394 143.779 110.262 144.347 109.13 144.631C98.373 148.327 88.1827 147.759 77.8507 142.784C75.3032 141.504 72.7556 140.083 70.491 138.377C68.5096 136.813 66.5281 135.25 64.8297 133.26C63.1313 131.412 61.5745 129.279 60.1591 127.147C58.7438 124.731 57.47 122.03 56.4793 119.329C53.5071 111.084 53.224 103.124 55.4885 95.1637C56.1962 92.605 57.1869 90.1885 58.3192 87.7719C61.4329 81.2331 65.6789 76.1157 71.0572 72.1355C74.3124 69.8612 77.8507 68.0132 81.5306 66.5917C82.6629 66.1653 83.9367 65.7388 85.0689 65.4545L88.0411 64.6016L79.9737 42L77.2846 42.8529C76.0108 43.2793 74.8786 43.5636 73.6048 43.9901C64.9713 47.1173 57.6115 51.3818 51.3841 57.0678C50.9595 57.4942 50.5349 57.9206 49.9688 58.3471C44.449 63.7488 39.9199 70.1455 36.5231 77.2529C29.1634 92.8893 28.0312 108.952 33.1263 125.157C33.4094 125.868 33.5509 126.579 33.834 127.289C37.2308 137.098 42.4675 145.342 49.4026 152.165C54.6394 157.283 60.7253 161.405 67.2358 164.532C69.3588 165.527 71.4818 166.38 73.6048 167.233C75.0201 167.802 76.2939 168.228 77.7092 168.655C87.7581 171.498 98.5146 171.782 108.705 169.365C111.394 168.797 114.083 167.944 116.772 166.949C118.046 166.522 119.32 165.954 120.452 165.527L123 164.39L116.772 146.622L115.074 141.931L112.526 143.352Z" fill="white"/>
<path d="M123.75 25.23L118.125 27.225L107.437 31.0725L98.156 34.35L89.9998 37.2L98.0154 60L98.4373 59.8575L103.359 58.1475L135.14 46.7475L145.828 42.9L151.734 40.7625L158.625 38.34L181.828 29.9325L198 24.09C196.453 15.6825 191.812 8.27247 185.203 2.99997L173.812 7.27497L123.75 25.23Z" fill="white"/>
<defs>
<linearGradient id="paint0_linear" x1="187" y1="187" x2="27" y2="27" gradientUnits="userSpaceOnUse">
<stop offset="0.159375" stop-color="#003CDA"/>
<stop offset="1" stop-color="#33DFCC"/>
</linearGradient>
</defs>
</svg>
