<svg width="90" height="90" viewBox="0 0 90 90" fill="none" xmlns="http://www.w3.org/2000/svg">
<g clip-path="url(#clip0)">
<path d="M45 17.3531C50.468 17.3531 55.8133 18.9746 60.3598 22.0125C64.9063 25.0503 68.4498 29.3682 70.5424 34.42C72.6349 39.4718 73.1824 45.0307 72.1156 50.3936C71.0489 55.7566 68.4158 60.6828 64.5493 64.5493C60.6828 68.4158 55.7566 71.0489 50.3936 72.1156C45.0307 73.1824 39.4718 72.6349 34.42 70.5424C29.3682 68.4498 25.0503 64.9063 22.0125 60.3598C18.9746 55.8133 17.3531 50.468 17.3531 45C17.3624 37.6704 20.2782 30.6438 25.461 25.461C30.6437 20.2782 37.6704 17.3624 45 17.3531ZM45 0C36.0998 0 27.3995 2.6392 19.9993 7.58387C12.5991 12.5285 6.83135 19.5566 3.42541 27.7792C0.0194671 36.0019 -0.871683 45.0499 0.864652 53.7791C2.60099 62.5082 6.88682 70.5264 13.1802 76.8198C19.4735 83.1132 27.4918 87.399 36.2209 89.1353C44.9501 90.8717 53.9981 89.9805 62.2207 86.5746C70.4434 83.1686 77.4715 77.4009 82.4161 70.0006C87.3608 62.6004 90 53.9002 90 45C90 33.0653 85.2589 21.6193 76.8198 13.1802C68.3807 4.74106 56.9347 0 45 0Z" fill="url(#paint0_linear)"/>
<path d="M45 80.2758C64.4823 80.2758 80.2758 64.4823 80.2758 45C80.2758 25.5177 64.4823 9.72421 45 9.72421C25.5177 9.72421 9.72421 25.5177 9.72421 45C9.72421 64.4823 25.5177 80.2758 45 80.2758Z" fill="white"/>
<path d="M65.4154 65.6646C62.7139 68.3667 59.4972 70.4967 55.957 71.9277C52.4168 73.3588 48.6253 74.0618 44.8083 73.9947C41.0152 74.0694 37.2466 73.3686 33.733 71.9351C30.2193 70.5016 27.0343 68.3656 24.3725 65.6574C21.6481 63.0001 19.4993 59.8092 18.06 56.2835C16.6207 52.7577 15.9219 48.9728 16.0069 45.1647C16.0069 36.8322 18.8002 29.8892 24.3868 24.3358C27.0503 21.6284 30.2368 19.4934 33.7516 18.0612C37.2665 16.6289 41.0359 15.9295 44.8297 16.0057C48.646 15.9409 52.4363 16.6457 55.9752 18.0779C59.5141 19.5102 62.7293 21.6408 65.4296 24.343C71.1399 29.9011 73.9951 36.8465 73.9951 45.179C74.0673 49.0037 73.3414 52.8015 71.864 56.329C70.3866 59.8566 68.1902 63.0363 65.4154 65.6646Z" fill="#C43C86"/>
<path d="M35.1773 52.0437L54.7875 52.0788L45.0141 35.1406L35.1773 52.0437Z" fill="white"/>
<path d="M45.0422 22.7234C44.877 22.7242 44.7149 22.768 44.5718 22.8506C44.4288 22.9333 44.3098 23.0518 44.2266 23.1945L24.7008 56.7546C24.6181 56.8979 24.5746 57.0603 24.5746 57.2257C24.5746 57.3911 24.6181 57.5536 24.7008 57.6968L36.5977 50.8203L45 36.357L45.0422 22.7234Z" fill="#EF4B2D"/>
<path d="M65.257 56.8249L45.8508 23.1945C45.7687 23.0523 45.6509 22.9341 45.5091 22.8514C45.3673 22.7688 45.2063 22.7247 45.0422 22.7234V36.364L53.3742 50.8554L65.25 57.7671C65.3359 57.6253 65.3819 57.4628 65.3831 57.297C65.3843 57.1312 65.3408 56.9681 65.257 56.8249Z" fill="#9D2063"/>
<path d="M65.25 57.7531L53.3742 50.8414H36.5977L24.7008 57.6828C24.7818 57.8259 24.8993 57.9449 25.0414 58.0277C25.1834 58.1105 25.345 58.154 25.5094 58.1539L64.4344 58.2242C64.5996 58.2234 64.7617 58.1796 64.9048 58.0969C65.0478 58.0143 65.1668 57.8958 65.25 57.7531Z" fill="#662F8E"/>
</g>
<defs>
<linearGradient id="paint0_linear" x1="84.15" y1="84.15" x2="12.15" y2="12.15" gradientUnits="userSpaceOnUse">
<stop offset="0.159375" stop-color="#003CDA"/>
<stop offset="1" stop-color="#33DFCC"/>
</linearGradient>
<clipPath id="clip0">
<rect width="90" height="90" fill="white"/>
</clipPath>
</defs>
</svg>
