<svg width="90" height="90" viewBox="0 0 90 90" fill="none" xmlns="http://www.w3.org/2000/svg">
<g clip-path="url(#clip0)">
<path d="M45 17.3531C50.468 17.3531 55.8133 18.9746 60.3598 22.0125C64.9063 25.0503 68.4498 29.3682 70.5424 34.42C72.6349 39.4718 73.1824 45.0307 72.1156 50.3936C71.0489 55.7566 68.4158 60.6828 64.5493 64.5493C60.6828 68.4158 55.7566 71.0489 50.3936 72.1156C45.0307 73.1824 39.4718 72.6349 34.42 70.5424C29.3682 68.4499 25.0503 64.9063 22.0125 60.3598C18.9746 55.8133 17.3531 50.468 17.3531 45C17.3624 37.6704 20.2782 30.6438 25.461 25.461C30.6437 20.2782 37.6704 17.3624 45 17.3531ZM45 0C36.0998 0 27.3995 2.6392 19.9993 7.58387C12.5991 12.5285 6.83135 19.5566 3.42541 27.7792C0.0194671 36.0019 -0.871683 45.0499 0.864652 53.7791C2.60099 62.5082 6.88682 70.5264 13.1802 76.8198C19.4735 83.1132 27.4918 87.399 36.2209 89.1353C44.9501 90.8717 53.9981 89.9805 62.2207 86.5746C70.4434 83.1686 77.4715 77.4009 82.4161 70.0007C87.3608 62.6004 90 53.9002 90 45C90 33.0653 85.2589 21.6193 76.8198 13.1802C68.3807 4.74106 56.9347 0 45 0V0Z" fill="url(#paint0_linear)"/>
<path d="M45 80.2758C64.4823 80.2758 80.2758 64.4823 80.2758 45C80.2758 25.5177 64.4823 9.72421 45 9.72421C25.5177 9.72421 9.72422 25.5177 9.72422 45C9.72422 64.4823 25.5177 80.2758 45 80.2758Z" fill="white"/>
<path d="M65.1586 64.9125C62.5 67.5725 59.3334 69.6705 55.8473 71.0813C52.3611 72.4922 48.6267 73.1872 44.8664 73.125C41.1278 73.1972 37.4138 72.5061 33.9513 71.094C30.4889 69.682 27.3508 67.5786 24.7289 64.9125C22.0458 62.3001 19.929 59.1636 18.5101 55.698C17.0912 52.2324 16.4006 48.5119 16.4812 44.768C16.4812 36.5695 19.2305 29.7398 24.7289 24.2789C27.3526 21.6166 30.4915 19.5171 33.9538 18.1087C37.4162 16.7003 41.1293 16.0126 44.8664 16.0875C48.6252 16.0225 52.3587 16.7142 55.8448 18.1214C59.3309 19.5286 62.4983 21.6227 65.1586 24.2789C70.7836 29.7398 73.5961 36.5695 73.5961 44.768C73.669 48.528 72.9562 52.2619 71.5033 55.7307C70.0504 59.1995 67.8894 62.3268 65.1586 64.9125Z" fill="#C8C8C8"/>
<path d="M45.0281 20.708L30.2655 45.1613L45.0281 38.46V20.708Z" fill="#8B8B8B"/>
<path d="M45.0281 38.46L30.2655 45.1613L45.0281 53.8673V38.46Z" fill="#393939"/>
<path d="M45.0281 20.708V38.46L59.7766 45.1613L45.0281 20.708Z" fill="#343434"/>
<path d="M45.0281 38.46V53.8673L59.7766 45.1613L45.0281 38.46Z" fill="#161616"/>
<path d="M30.2655 47.9522L45.0281 68.7219V56.6653L30.2655 47.9522Z" fill="#8B8B8B"/>
<path d="M59.7908 47.9522L45.0281 56.6653V68.7219L59.7908 47.9522Z" fill="#343434"/>
</g>
<defs>
<linearGradient id="paint0_linear" x1="84.15" y1="84.15" x2="12.15" y2="12.15" gradientUnits="userSpaceOnUse">
<stop offset="0.159375" stop-color="#003CDA"/>
<stop offset="1" stop-color="#33DFCC"/>
</linearGradient>
<clipPath id="clip0">
<rect width="90" height="90" fill="white"/>
</clipPath>
</defs>
</svg>
