<svg width="90" height="90" viewBox="0 0 90 90" fill="none" xmlns="http://www.w3.org/2000/svg">
<g clip-path="url(#clip0)">
<path d="M45 17.3531C50.468 17.3531 55.8133 18.9746 60.3598 22.0125C64.9063 25.0503 68.4498 29.3682 70.5424 34.42C72.6349 39.4718 73.1824 45.0307 72.1156 50.3936C71.0489 55.7566 68.4158 60.6828 64.5493 64.5493C60.6828 68.4158 55.7566 71.0489 50.3936 72.1156C45.0307 73.1824 39.4718 72.6349 34.42 70.5424C29.3682 68.4499 25.0503 64.9063 22.0124 60.3598C18.9746 55.8133 17.3531 50.468 17.3531 45C17.3624 37.6704 20.2782 30.6438 25.461 25.461C30.6437 20.2782 37.6704 17.3624 45 17.3531ZM45 0C36.0998 0 27.3995 2.6392 19.9993 7.58387C12.5991 12.5285 6.83135 19.5566 3.42541 27.7792C0.0194671 36.0019 -0.871683 45.0499 0.864652 53.7791C2.60099 62.5082 6.88682 70.5264 13.1802 76.8198C19.4735 83.1132 27.4918 87.399 36.2209 89.1353C44.9501 90.8717 53.9981 89.9805 62.2207 86.5746C70.4434 83.1686 77.4715 77.4009 82.4161 70.0007C87.3608 62.6004 90 53.9002 90 45C90 33.0653 85.2589 21.6193 76.8198 13.1802C68.3807 4.74106 56.9347 0 45 0V0Z" fill="url(#paint0_linear)"/>
<path d="M45 80.2758C64.4823 80.2758 80.2758 64.4823 80.2758 45C80.2758 25.5177 64.4823 9.72421 45 9.72421C25.5177 9.72421 9.72421 25.5177 9.72421 45C9.72421 64.4823 25.5177 80.2758 45 80.2758Z" fill="white"/>
<path d="M65.1235 65.3203C62.4623 67.9774 59.2937 70.0719 55.8064 71.4792C52.3191 72.8864 48.5842 73.5777 44.8242 73.5117C41.0877 73.5852 37.3755 72.896 33.9144 71.4864C30.4532 70.0768 27.3158 67.9763 24.6938 65.3133C22.01 62.7002 19.8933 59.5624 18.4756 56.0954C17.0578 52.6284 16.3693 48.9065 16.4531 45.1617C16.4531 36.968 19.2047 30.1406 24.7078 24.6797C27.3315 22.0174 30.4704 19.9179 33.9327 18.5095C37.3951 17.1011 41.1082 16.4134 44.8453 16.4883C48.6046 16.4246 52.3383 17.1176 55.8243 18.526C59.3103 19.9344 62.4775 22.0295 65.1375 24.6867C70.7625 30.1523 73.575 36.982 73.575 45.1758C73.6461 48.9369 72.9311 52.6714 71.4757 56.1402C70.0204 59.6091 67.8568 62.7358 65.1235 65.3203Z" fill="#49BC98"/>
<path d="M56.2651 33.1945L46.8699 26.2832L46.3957 26.3201C46.1699 26.6013 45.9876 26.9146 45.8548 27.2494C45.0242 30.8171 44.2118 34.3937 43.3998 37.9688L43.3993 37.9711L43.3975 37.9792C43.1744 38.9612 42.9514 39.9431 42.728 40.9247C42.653 41.2635 42.5825 41.6067 42.5026 41.9962L42.4317 42.3409C42.5399 42.2854 42.6327 42.2403 42.7153 42.2001C42.8307 42.1439 42.9264 42.0974 43.017 42.0458L53.1161 36.499C54.2349 35.8942 55.3463 35.2893 56.4577 34.6698C56.5694 34.6124 56.6646 34.5278 56.7343 34.4237C56.8041 34.3197 56.8461 34.1997 56.8565 34.0751C56.8669 33.9504 56.8452 33.8252 56.7936 33.7112C56.742 33.5971 56.6621 33.498 56.5614 33.4232L56.2651 33.1945Z" fill="white"/>
<path d="M33.2217 33.9764C32.6239 34.3804 32.1577 34.9496 31.8806 35.6139L31.8584 54.7105C32.1227 55.1936 32.4462 55.642 32.8216 56.0456C34.939 57.7811 37.0808 59.4963 39.2198 61.2093L39.2213 61.2104C39.9636 61.8049 40.7057 62.3991 41.4462 62.9939C41.7278 63.2225 42.0316 63.3922 42.3872 63.1709C42.5372 63.0687 42.6485 62.9196 42.7035 62.7472C42.7586 62.5748 42.7542 62.389 42.691 62.2194C41.5697 56.7562 40.4608 51.288 39.3642 45.815C39.2789 45.3939 39.2789 44.9601 39.3642 44.5389C40.4756 39.0856 41.5993 33.6371 42.7355 28.1936C42.817 27.7953 42.8095 27.4265 42.4243 27.2052C42.039 26.9839 41.7352 27.1978 41.4462 27.4338C40.6749 28.0481 39.9042 28.6629 39.1336 29.2777C37.1652 30.8481 35.1973 32.418 33.2217 33.9764Z" fill="white"/>
<path d="M46.329 63.7168C46.1091 63.4491 45.9293 63.1509 45.7955 62.8317C44.9296 59.0308 44.082 55.2209 43.2347 51.4126C43.0017 50.3653 42.7687 49.3181 42.5354 48.2713C42.5354 48.1635 42.5125 48.0557 42.4841 47.922C42.4697 47.8544 42.454 47.7802 42.4391 47.696C42.5089 47.7297 42.5719 47.7592 42.6298 47.7863C42.762 47.8483 42.8672 47.8977 42.9651 47.9542L56.2576 55.2786C57.0801 55.7359 57.1097 56.2301 56.3317 56.7538L46.8699 63.6135L46.8032 63.6799L46.329 63.7168Z" fill="white"/>
<path d="M44.7656 43.7055L42.8466 44.7898L43.343 45.0922L52.1158 50.0121L56.9097 52.756C57.3691 53.0141 57.7914 52.9699 57.9915 52.6232C58.1016 52.3934 58.1525 52.1399 58.1397 51.8856V37.8711C58.1397 36.8532 57.6506 36.5729 56.7615 37.0671L44.7656 43.7055Z" fill="white"/>
</g>
<defs>
<linearGradient id="paint0_linear" x1="84.15" y1="84.15" x2="12.15" y2="12.15" gradientUnits="userSpaceOnUse">
<stop offset="0.159375" stop-color="#003CDA"/>
<stop offset="1" stop-color="#33DFCC"/>
</linearGradient>
<clipPath id="clip0">
<rect width="90" height="90" fill="white"/>
</clipPath>
</defs>
</svg>
