<svg width="90" height="90" viewBox="0 0 90 90" fill="none" xmlns="http://www.w3.org/2000/svg">
<g clip-path="url(#clip0)">
<path d="M45 17.3531C50.468 17.3531 55.8133 18.9746 60.3598 22.0125C64.9063 25.0503 68.4498 29.3682 70.5424 34.42C72.6349 39.4718 73.1824 45.0307 72.1156 50.3936C71.0489 55.7566 68.4158 60.6828 64.5493 64.5493C60.6828 68.4158 55.7566 71.0489 50.3936 72.1156C45.0307 73.1824 39.4718 72.6349 34.42 70.5424C29.3682 68.4498 25.0503 64.9063 22.0125 60.3598C18.9746 55.8133 17.3531 50.468 17.3531 45C17.3624 37.6704 20.2782 30.6438 25.461 25.461C30.6438 20.2782 37.6704 17.3624 45 17.3531ZM45 0C36.0998 0 27.3995 2.6392 19.9993 7.58387C12.5991 12.5285 6.83135 19.5566 3.42541 27.7792C0.0194672 36.0019 -0.871683 45.0499 0.864652 53.7791C2.60099 62.5082 6.88682 70.5264 13.1802 76.8198C19.4735 83.1132 27.4918 87.399 36.2209 89.1353C44.9501 90.8717 53.9981 89.9805 62.2207 86.5746C70.4434 83.1686 77.4715 77.4009 82.4161 70.0006C87.3608 62.6004 90 53.9002 90 45C90 33.0653 85.2589 21.6193 76.8198 13.1802C68.3807 4.74106 56.9347 0 45 0V0Z" fill="url(#paint0_linear)"/>
<path d="M45 80.2758C64.4823 80.2758 80.2758 64.4823 80.2758 45C80.2758 25.5177 64.4823 9.72421 45 9.72421C25.5177 9.72421 9.72421 25.5177 9.72421 45C9.72421 64.4823 25.5177 80.2758 45 80.2758Z" fill="white"/>
<path d="M65.1234 65.3203C62.4623 67.9774 59.2937 70.0719 55.8064 71.4792C52.319 72.8865 48.5842 73.5777 44.8242 73.5117C41.0877 73.5852 37.3755 72.896 33.9143 71.4864C30.4532 70.0768 27.3158 67.9763 24.6937 65.3133C22.01 62.7003 19.8933 59.5624 18.4755 56.0954C17.0578 52.6284 16.3693 48.9065 16.4531 45.1617C16.4531 36.968 19.2047 30.1407 24.7078 24.6797C27.3315 22.0174 30.4704 19.9179 33.9327 18.5096C37.3951 17.1012 41.1082 16.4134 44.8453 16.4883C48.6046 16.4246 52.3382 17.1176 55.8243 18.526C59.3103 19.9345 62.4775 22.0296 65.1375 24.6867C70.7625 30.1524 73.575 36.9821 73.575 45.1758C73.6461 48.9369 72.9311 52.6714 71.4757 56.1402C70.0204 59.6091 67.8568 62.7358 65.1234 65.3203Z" fill="#4160AB"/>
<path d="M45.0366 24.6903L41.2859 26.8044L31.0502 32.6166L27.3214 34.7961V55.0731L31.0575 57.2527L41.3444 63.1302L45.0877 65.3097L48.8092 63.1302L58.9279 57.3181L62.6786 55.1385V34.8615L58.9425 32.6819L48.7799 26.8044L45.0366 24.6903ZM34.7643 50.7794V39.0607L45 33.2486L55.2357 39.1552V50.8739L45 56.686L34.7643 50.7794Z" fill="white"/>
</g>
<defs>
<linearGradient id="paint0_linear" x1="84.15" y1="84.15" x2="12.15" y2="12.15" gradientUnits="userSpaceOnUse">
<stop offset="0.159375" stop-color="#003CDA"/>
<stop offset="1" stop-color="#33DFCC"/>
</linearGradient>
<clipPath id="clip0">
<rect width="90" height="90" fill="white"/>
</clipPath>
</defs>
</svg>
