<svg width="90" height="90" viewBox="0 0 90 90" fill="none" xmlns="http://www.w3.org/2000/svg">
<g clip-path="url(#clip0)">
<path d="M45 17.3531C50.468 17.3531 55.8133 18.9746 60.3598 22.0125C64.9063 25.0503 68.4498 29.3682 70.5424 34.42C72.6349 39.4718 73.1824 45.0307 72.1156 50.3936C71.0489 55.7566 68.4158 60.6828 64.5493 64.5493C60.6828 68.4158 55.7566 71.0489 50.3936 72.1156C45.0307 73.1824 39.4718 72.6349 34.42 70.5424C29.3682 68.4499 25.0503 64.9063 22.0125 60.3598C18.9746 55.8133 17.3531 50.468 17.3531 45C17.3624 37.6704 20.2782 30.6438 25.461 25.461C30.6438 20.2782 37.6704 17.3624 45 17.3531ZM45 0C36.0998 0 27.3995 2.6392 19.9993 7.58387C12.5991 12.5285 6.83135 19.5566 3.42541 27.7792C0.0194671 36.0019 -0.871683 45.0499 0.864652 53.7791C2.60099 62.5082 6.88682 70.5264 13.1802 76.8198C19.4735 83.1132 27.4918 87.399 36.2209 89.1353C44.9501 90.8717 53.9981 89.9805 62.2207 86.5746C70.4434 83.1686 77.4715 77.4009 82.4161 70.0007C87.3608 62.6004 90 53.9002 90 45C90 33.0653 85.2589 21.6193 76.8198 13.1802C68.3807 4.74106 56.9347 0 45 0V0Z" fill="url(#paint0_linear)"/>
<path d="M45 80.2758C64.4823 80.2758 80.2758 64.4823 80.2758 45C80.2758 25.5177 64.4823 9.72421 45 9.72421C25.5177 9.72421 9.72421 25.5177 9.72421 45C9.72421 64.4823 25.5177 80.2758 45 80.2758Z" fill="white"/>
<path d="M65.0953 65.3484C62.4304 68.0025 59.2585 70.093 55.7687 71.4955C52.2789 72.898 48.5424 73.5836 44.782 73.5117C41.0453 73.5795 37.3339 72.8843 33.8751 71.4686C30.4162 70.0529 27.2825 67.9464 24.6656 65.2781C19.1766 59.8078 16.4391 53.0883 16.4531 45.1195C16.4531 36.9305 19.2141 30.1078 24.7359 24.6516C27.3634 21.9923 30.5056 19.8968 33.9704 18.4932C37.4353 17.0896 41.15 16.4074 44.8875 16.4883C48.6471 16.4295 52.3801 17.1282 55.8639 18.5427C59.3478 19.9573 62.5112 22.0588 65.1656 24.7219C70.7906 30.1922 73.5844 37.0242 73.5469 45.218C73.6177 48.9769 72.9025 52.7093 71.4471 56.1758C69.9918 59.6423 67.8283 62.7666 65.0953 65.3484Z" fill="#5F2652"/>
<path fill-rule="evenodd" clip-rule="evenodd" d="M38.7629 45.7475L38.705 46.0941L38.686 46.2314C38.443 48.1391 37.7107 48.6966 35.8922 49.5094C35.8881 49.5111 35.884 49.5102 35.8806 49.5119L29.2871 52.4534L44.1744 61.0378V56.1241C44.1744 54.3218 44.067 53.9979 42.4833 53.1139C42.1725 52.9406 41.8576 52.7598 41.5129 52.5614L41.298 52.4375C40.3119 51.9051 39.5085 51.1191 38.9158 50.1858C38.8943 50.1523 38.7356 49.9104 38.7149 49.8761C38.8382 49.8079 38.9524 49.724 39.0547 49.6266C39.1627 49.5292 39.2548 49.4151 39.3274 49.2884C39.8457 50.308 40.6334 51.1702 41.6418 51.7319L41.8865 51.8725C42.2262 52.0675 42.5725 52.2592 42.8833 52.4317C44.8258 53.5157 44.9803 54.1812 44.9803 56.1249V61.0436L60.0057 52.3028L53.5758 49.4625L53.1576 49.2809C52.9939 49.2005 52.4798 48.9879 52.083 48.9762C51.678 48.9511 51.0631 48.977 50.7316 49.4031C50.4253 49.7952 50.119 50.1873 49.8125 50.5792C49.1033 51.5084 48.1759 52.2676 47.0682 52.723C47.0651 52.7252 47.0618 52.7271 47.0583 52.7288C46.7666 52.8494 46.4525 52.9189 46.1408 52.9925C46.0764 52.8678 45.9755 52.723 45.883 52.6058C45.816 52.5212 45.716 52.4166 45.6226 52.3187C46.0937 52.2257 46.6351 52.0742 47.0567 51.87L47.0583 51.8692C47.8998 51.4648 48.6272 50.8981 49.1859 50.1699C49.2133 50.1384 49.2382 50.1049 49.2603 50.0694C49.3173 49.9941 49.3744 49.9204 49.4264 49.8409C49.5752 49.6383 49.8017 49.3361 50.1183 48.9327C50.3307 48.6598 50.6283 48.4798 50.9449 48.3634L50.944 48.3651C51.2854 48.2412 51.6797 48.186 52.1103 48.1893C52.7633 48.2111 53.4874 48.5627 53.5023 48.5694L53.7279 48.6681L53.7453 48.6748L54.3305 48.9301C54.3346 48.931 54.3346 48.9352 54.3379 48.9368L59.9569 51.4196L44.9936 27.2948V37.5073C44.9936 39.2719 45.1217 39.6578 46.7194 40.5492C46.846 40.6184 46.9748 40.6834 47.1054 40.7443L47.3121 40.8473C47.3642 40.8707 47.4138 40.8983 47.4642 40.9234L47.4667 40.9243H47.4675C49.5637 41.9413 51.0275 44.0039 51.1548 46.4105C51.0176 46.4482 50.8093 46.5076 50.6928 46.5436C50.6076 46.5687 50.4787 46.634 50.3704 46.6926C50.3497 44.4685 49.0206 42.5499 47.1005 41.6241L47.0997 41.6232C47.0939 41.6207 47.0897 41.6216 47.0848 41.619C46.9733 41.5614 46.8608 41.5056 46.7475 41.4516C46.3402 41.2599 45.9493 41.0342 45.5788 40.7769C45.5201 40.7384 45.4713 40.6974 45.4176 40.6589C45.3002 40.5727 45.1903 40.4848 45.0944 40.3994C45.0382 40.35 44.9869 40.304 44.9514 40.2588C44.3116 39.6033 44.186 38.865 44.186 37.5073V27.2907L29.1763 51.6381L35.8013 48.6832H35.8046C37.2742 48.0269 37.7206 47.4778 37.9173 45.8991C37.9206 45.8781 37.9264 45.8237 37.9314 45.8036C38.3099 43.2798 40.1763 41.2549 42.6279 40.5467L42.9586 40.4505C42.9998 40.5794 43.0547 40.7034 43.1222 40.8205C43.1967 40.9459 43.2846 41.0627 43.3842 41.1687L43.0759 41.2382C40.8715 41.7823 39.1663 43.5335 38.7629 45.7475ZM27.9348 52.1261L44.2406 25.6768C44.2774 25.6181 44.3284 25.5699 44.3887 25.5366C44.4489 25.5034 44.5166 25.4862 44.5852 25.4867C44.6539 25.4862 44.7215 25.5034 44.7818 25.5366C44.8421 25.5699 44.8931 25.6181 44.9299 25.6768L61.2712 52.0198C61.298 52.0644 61.3158 52.114 61.3233 52.1656C61.3309 52.2173 61.3281 52.2699 61.3151 52.3204C61.3022 52.371 61.2793 52.4183 61.2479 52.4597C61.2165 52.5011 61.1772 52.5357 61.1323 52.5614L44.7911 62.069C44.7286 62.105 44.6579 62.1239 44.5861 62.1239C44.5142 62.1239 44.4436 62.105 44.3811 62.069L28.0745 52.6686C28.0293 52.6425 27.9895 52.6076 27.9576 52.566C27.9257 52.5243 27.9022 52.4767 27.8886 52.4258C27.8753 52.3753 27.8726 52.3226 27.8806 52.2711C27.8886 52.2195 27.907 52.1701 27.9348 52.1261Z" fill="white" stroke="white"/>
</g>
<defs>
<linearGradient id="paint0_linear" x1="84.15" y1="84.15" x2="12.15" y2="12.15" gradientUnits="userSpaceOnUse">
<stop offset="0.159375" stop-color="#003CDA"/>
<stop offset="1" stop-color="#33DFCC"/>
</linearGradient>
<clipPath id="clip0">
<rect width="90" height="90" fill="white"/>
</clipPath>
</defs>
</svg>
