<svg width="100" height="100" viewBox="0 0 100 100" fill="none" xmlns="http://www.w3.org/2000/svg">
<g clip-path="url(#clip0)">
<path d="M50 19.2812C56.0756 19.2812 62.0147 21.0829 67.0664 24.4583C72.1181 27.8337 76.0554 32.6313 78.3804 38.2444C80.7054 43.8576 81.3138 50.0341 80.1285 55.9929C78.9432 61.9518 76.0175 67.4253 71.7214 71.7214C67.4253 76.0175 61.9518 78.9432 55.9929 80.1285C50.0341 81.3138 43.8576 80.7054 38.2444 78.3804C32.6313 76.0554 27.8337 72.1181 24.4583 67.0664C21.0829 62.0147 19.2812 56.0756 19.2812 50C19.2916 41.8561 22.5313 34.0486 28.29 28.29C34.0486 22.5313 41.856 19.2916 50 19.2812ZM50 0C40.1109 0 30.4439 2.93245 22.2215 8.42652C13.999 13.9206 7.5904 21.7295 3.80601 30.8658C0.0216335 40.0021 -0.968533 50.0555 0.960728 59.7545C2.88999 69.4536 7.65203 78.3627 14.6447 85.3553C21.6373 92.348 30.5464 97.11 40.2455 99.0393C49.9445 100.969 59.9979 99.9783 69.1342 96.194C78.2705 92.4096 86.0794 86.001 91.5735 77.7785C97.0675 69.5561 100 59.8891 100 50C100 36.7392 94.7321 24.0215 85.3553 14.6447C75.9785 5.26784 63.2608 0 50 0Z" fill="url(#paint0_linear)"/>
<path d="M50 89.1953C71.647 89.1953 89.1953 71.647 89.1953 50C89.1953 28.353 71.647 10.8047 50 10.8047C28.353 10.8047 10.8047 28.353 10.8047 50C10.8047 71.647 28.353 89.1953 50 89.1953Z" fill="white"/>
<path d="M72.3672 72.5704C69.4116 75.5228 65.8925 77.8507 62.0192 79.4156C58.1458 80.9805 53.9973 81.7505 49.8203 81.6798C45.6675 81.7615 41.5416 80.9959 37.6945 79.4297C33.8475 77.8635 30.3601 75.5295 27.4453 72.5704C24.4641 69.6677 22.1121 66.1827 20.5355 62.332C18.959 58.4814 18.1916 54.3475 18.2813 50.1876C18.2813 41.0886 21.3359 33.5027 27.4453 27.4297C30.3601 24.4706 33.8475 22.1367 37.6945 20.5704C41.5416 19.0042 45.6675 18.2386 49.8203 18.3204C53.9973 18.2496 58.1458 19.0196 62.0192 20.5845C65.8925 22.1494 69.4116 24.4773 72.3672 27.4297C78.6172 33.5027 81.7422 41.0886 81.7422 50.1876C81.8232 54.3654 81.0312 58.5141 79.4168 62.3683C77.8025 66.2225 75.4014 69.6973 72.3672 72.5704Z" fill="#8778B7"/>
<path d="M49.8877 30.6414L69.0093 49.5124L50.1123 68.6167L30.9821 49.7456L49.8877 30.6414Z" fill="#FFCE45"/>
<path d="M50.0345 55.8258L30.9734 49.737L49.8877 30.6414L69.0265 49.5124L50.0345 55.8258Z" fill="#FDBC43"/>
<path d="M37.5805 48.4587L46.269 48.4069L49.9655 44.2526L54.1283 48.3637L62.8168 48.3119L49.905 34.545L37.5805 48.4587Z" fill="white"/>
<path d="M69.0006 49.5209L50.0345 55.8256L50.1123 68.6165L69.0006 49.5209Z" fill="#EDBB46"/>
<path d="M49.8877 30.6414L49.905 34.5451L62.8168 48.3119L54.1283 48.3638L49.9655 44.2527L50.0346 55.8258L69.0006 49.5211L69.0093 49.5124L49.8877 30.6414Z" fill="#ECB343"/>
<path d="M49.905 34.545L49.9655 44.2526L54.1283 48.3637L62.8168 48.3119L49.905 34.545Z" fill="#EFD8B1"/>
</g>
<defs>
<linearGradient id="paint0_linear" x1="93.5" y1="93.5" x2="13.5" y2="13.5" gradientUnits="userSpaceOnUse">
<stop offset="0.159375" stop-color="#003CDA"/>
<stop offset="1" stop-color="#33DFCC"/>
</linearGradient>
<clipPath id="clip0">
<rect width="100" height="100" fill="white"/>
</clipPath>
</defs>
</svg>
