<svg width="90" height="90" viewBox="0 0 90 90" fill="none" xmlns="http://www.w3.org/2000/svg">
<g clip-path="url(#clip0)">
<path d="M45 17.3531C50.468 17.3531 55.8133 18.9746 60.3598 22.0125C64.9063 25.0503 68.4498 29.3682 70.5424 34.42C72.6349 39.4718 73.1824 45.0307 72.1156 50.3936C71.0489 55.7566 68.4158 60.6828 64.5493 64.5493C60.6828 68.4158 55.7566 71.0489 50.3936 72.1156C45.0307 73.1824 39.4718 72.6349 34.42 70.5424C29.3682 68.4499 25.0503 64.9063 22.0125 60.3598C18.9746 55.8133 17.3531 50.468 17.3531 45C17.3624 37.6704 20.2782 30.6438 25.461 25.461C30.6438 20.2782 37.6704 17.3624 45 17.3531ZM45 0C36.0998 0 27.3995 2.6392 19.9993 7.58387C12.5991 12.5285 6.83135 19.5566 3.42541 27.7792C0.0194671 36.0019 -0.871683 45.0499 0.864652 53.7791C2.60099 62.5082 6.88682 70.5264 13.1802 76.8198C19.4735 83.1132 27.4918 87.399 36.2209 89.1353C44.9501 90.8717 53.9981 89.9805 62.2207 86.5746C70.4434 83.1686 77.4715 77.4009 82.4161 70.0007C87.3608 62.6004 90 53.9002 90 45C90 33.0653 85.2589 21.6193 76.8198 13.1802C68.3807 4.74106 56.9347 0 45 0V0Z" fill="url(#paint0_linear)"/>
<path d="M45 80.2757C64.4823 80.2757 80.2758 64.4822 80.2758 44.9999C80.2758 25.5176 64.4823 9.72412 45 9.72412C25.5177 9.72412 9.72421 25.5176 9.72421 44.9999C9.72421 64.4822 25.5177 80.2757 45 80.2757Z" fill="white"/>
<circle cx="45" cy="45" r="28.8" fill="url(#paint1_linear)"/>
<path d="M58.8885 51.4921C58.8885 49.6063 57.538 48.3629 55.8757 48.3629L50.941 48.3629L50.941 49.9793L55.8861 49.9793C56.738 49.9793 57.4237 50.5285 57.4237 51.5025C57.4237 52.435 56.738 52.9738 55.8861 52.9738L50.941 52.9738L50.941 54.6938L55.8757 54.6938C57.538 54.6938 58.8885 53.4505 58.8885 51.4921Z" fill="white"/>
<path d="M58.8885 44.2412C58.8885 42.5108 57.9535 41.3296 56.4679 41.3296C55.1693 41.3296 54.3901 42.1896 54.0992 43.6091L53.933 44.3552C53.7668 45.1012 53.4863 45.3913 53.0603 45.3913C52.5409 45.3913 52.198 44.9976 52.198 44.2723C52.198 43.4641 52.5928 43.0807 53.1227 42.946L53.1227 41.599L52.3331 41.599C51.3773 41.8166 50.7851 42.8009 50.7851 44.2308C50.7851 45.9405 51.6578 47.0595 53.1538 47.0595C54.4109 47.0595 55.1693 46.2721 55.4498 44.8525L55.5848 44.1376C55.7615 43.3501 56.0524 42.9978 56.5614 42.9978C57.1432 42.9978 57.4756 43.4848 57.4756 44.2101C57.4756 45.039 57.112 45.5364 56.5302 45.7436L56.5302 47.101L57.3094 47.101C58.1717 46.7694 58.8885 45.8472 58.8885 44.2412Z" fill="white"/>
<path d="M58.7327 40.0501L58.7327 37.325C58.7327 34.9314 56.9666 33.4497 54.8057 33.4497C52.6759 33.4497 50.941 34.9314 50.941 37.325L50.941 40.0501L58.7327 40.0501ZM57.2679 38.3301L52.4058 38.3301L52.4058 37.3561C52.4058 35.9987 53.4863 35.2216 54.8057 35.2216C56.1666 35.2216 57.2679 35.9987 57.2679 37.3561L57.2679 38.3301Z" fill="white"/>
<path d="M40.8395 42.9884C41.6306 42.9884 42.272 43.6273 42.272 44.4155C42.272 45.2037 41.6306 45.8427 40.8395 45.8427H37.121C33.5196 45.8427 30.6001 42.9341 30.6001 39.3463C30.6001 35.7584 33.5196 32.8499 37.121 32.8499H46.7107C47.5018 32.8499 48.1432 33.4888 48.1432 34.277C48.1432 35.0652 47.5018 35.7042 46.7107 35.7042H37.121C35.1019 35.7042 33.4652 37.3348 33.4652 39.3463C33.4652 41.3577 35.1019 42.9884 37.121 42.9884H40.8395Z" fill="white"/>
<path d="M37.9037 45.8427C37.1126 45.8427 36.4712 45.2037 36.4712 44.4155C36.4712 43.6273 37.1126 42.9884 37.9037 42.9884H41.6222C45.2236 42.9884 48.1431 45.8969 48.1431 49.4848C48.1431 53.0727 45.2236 55.9812 41.6222 55.9812H32.0325C31.2414 55.9812 30.6 55.3422 30.6 54.5541C30.6 53.7659 31.2414 53.1269 32.0325 53.1269H41.6222C43.6412 53.1269 45.278 51.4963 45.278 49.4848C45.278 47.4733 43.6412 45.8427 41.6222 45.8427H37.9037Z" fill="white"/>
<path d="M33.1645 55.4054L30.8356 53.7429L45.4834 33.3779L47.8123 35.0405L33.1645 55.4054Z" fill="white" fill-opacity="0.5"/>
</g>
<defs>
<linearGradient id="paint0_linear" x1="84.15" y1="84.15" x2="12.15" y2="12.15" gradientUnits="userSpaceOnUse">
<stop offset="0.159375" stop-color="#003CDA"/>
<stop offset="1" stop-color="#33DFCC"/>
</linearGradient>
<linearGradient id="paint1_linear" x1="29.475" y1="20.925" x2="71.325" y2="62.775" gradientUnits="userSpaceOnUse">
<stop stop-color="#342F49"/>
<stop offset="1"/>
</linearGradient>
<clipPath id="clip0">
<rect width="90" height="90" fill="white"/>
</clipPath>
</defs>
</svg>
