<svg width="91" height="90" viewBox="0 0 91 90" fill="none" xmlns="http://www.w3.org/2000/svg">
<g clip-path="url(#clip0)">
<path d="M45.5 17.3531C51.0288 17.3531 56.4334 18.9746 61.0305 22.0125C65.6275 25.0503 69.2104 29.3682 71.3262 34.42C73.442 39.4718 73.9956 45.0307 72.917 50.3936C71.8383 55.7566 69.176 60.6828 65.2665 64.5493C61.3571 68.4158 56.3761 71.0489 50.9536 72.1156C45.531 73.1824 39.9104 72.6349 34.8025 70.5424C29.6945 68.4499 25.3287 64.9063 22.2571 60.3598C19.1854 55.8133 17.546 50.468 17.546 45C17.5554 37.6704 20.5035 30.6438 25.7439 25.461C30.9843 20.2782 38.089 17.3624 45.5 17.3531ZM45.5 0C36.501 0 27.704 2.6392 20.2216 7.58387C12.7391 12.5285 6.90729 19.5566 3.4635 27.7792C0.0197143 36.0019 -0.881337 45.0499 0.87429 53.7791C2.62992 62.5082 6.96337 70.5264 13.3267 76.8198C19.69 83.1132 27.7973 87.399 36.6234 89.1353C45.4496 90.8717 54.5981 89.9805 62.9121 86.5746C71.2262 83.1686 78.3323 77.4009 83.3319 70.0007C88.3315 62.6004 91 53.9002 91 45C91 33.0653 86.2063 21.6193 77.6734 13.1802C69.1405 4.74106 57.5674 0 45.5 0V0Z" fill="url(#paint0_linear)"/>
<path d="M45.5 80.2758C65.1988 80.2758 81.1677 64.4823 81.1677 45C81.1677 25.5177 65.1988 9.72421 45.5 9.72421C25.8013 9.72421 9.83228 25.5177 9.83228 45C9.83228 64.4823 25.8013 80.2758 45.5 80.2758Z" fill="white"/>
<path d="M74.3651 45.0511C74.3929 29.3045 61.4926 16.5171 45.5514 16.4896C29.6103 16.462 16.6649 29.2049 16.6371 44.9514C16.6093 60.698 29.5097 73.4854 45.4508 73.5129C61.392 73.5404 74.3374 60.7976 74.3651 45.0511Z" fill="#3574B9"/>
<path d="M40.1751 64.6875C40.1751 65.3907 39.6917 65.6367 38.9665 65.6367C34.575 64.2593 30.742 61.533 28.0241 57.8539C25.3063 54.1748 23.8452 49.7346 23.8531 45.1782C23.861 40.6217 25.3376 36.1865 28.0682 32.5167C30.7988 28.8469 34.6414 26.1336 39.0376 24.7711C39.7485 24.5391 40.2462 25.0102 40.2391 25.7274V27.4219C40.2444 27.6658 40.1807 27.9064 40.0551 28.1164C39.9294 28.3264 39.7469 28.4974 39.5281 28.6102C36.0701 29.8412 33.0795 32.0958 30.9629 35.0674C28.8464 38.0389 27.7067 41.5831 27.699 45.218C27.6912 48.8528 28.8157 52.4017 30.9195 55.3821C33.0233 58.3625 36.0043 60.6296 39.457 61.875C39.6764 61.9871 39.8594 62.158 39.9851 62.3682C40.1108 62.5783 40.1742 62.8192 40.168 63.0633L40.1751 64.6875Z" fill="white"/>
<path d="M47.3982 58.7812C47.39 59.0338 47.2873 59.2743 47.1099 59.4562C46.9326 59.638 46.6933 59.7483 46.4384 59.7656H44.5118C44.2616 59.749 44.0261 59.6427 43.8494 59.4666C43.6727 59.2906 43.567 59.0569 43.552 58.8094V55.9969C39.6987 55.5117 37.7792 53.3742 37.0612 50.2805C37.0612 49.8094 37.31 49.3312 37.7721 49.3312H39.9405C40.4168 49.3312 40.6514 49.5703 40.9002 50.0344C41.3765 51.7008 42.3221 53.1281 45.4644 53.1351C47.8674 53.1351 49.5523 51.9539 49.5594 50.0555C49.5665 48.157 48.5997 47.4398 45.2369 46.9547C40.1822 46.2515 37.7792 44.8031 37.7863 40.7672C37.7863 37.6805 40.2035 35.3039 43.5733 34.8398V31.9289C43.5885 31.682 43.6945 31.4492 43.8713 31.2744C44.0481 31.0995 44.2835 30.9947 44.5331 30.9797H46.4598C46.7093 30.9947 46.9447 31.0995 47.1216 31.2744C47.2984 31.4492 47.4043 31.682 47.4195 31.9289V34.7836C50.3059 35.2617 52.2255 36.9281 52.7018 39.5437C52.7018 40.0148 52.4601 40.493 51.9908 40.493H50.0784C49.595 40.493 49.3675 40.2539 49.1187 39.7898C48.6423 38.1234 47.4408 37.4062 45.2725 37.4062C42.8695 37.4062 41.6609 38.5875 41.6609 40.2187C41.6609 41.85 42.3719 42.8344 45.9834 43.3195C51.0311 44.0226 53.434 45.4711 53.4269 49.507C53.4269 52.5937 51.0169 55.2023 47.4053 55.9125L47.3982 58.7812Z" fill="white"/>
<path d="M51.9553 65.6789C51.2444 65.9179 50.7538 65.4398 50.7538 64.7297V63.0633C50.7481 62.8202 50.8118 62.5804 50.9375 62.3715C51.0633 62.1626 51.246 61.9929 51.4648 61.882C54.923 60.6517 57.9142 58.3977 60.0314 55.4266C62.1486 52.4555 63.289 48.9115 63.2975 45.2767C63.3061 41.6419 62.1823 38.0927 60.0791 35.1119C57.976 32.1311 54.9954 29.8634 51.543 28.6172C51.3242 28.5044 51.1417 28.3334 51.016 28.1234C50.8904 27.9134 50.8267 27.6728 50.832 27.4289V25.7625C50.832 25.0594 51.3155 24.8133 52.0406 24.8133C60.6927 27.682 67.1694 35.775 67.1552 45.2742C67.1402 49.8308 65.6591 54.2643 62.9263 57.9328C60.1936 61.6013 56.3511 64.3143 51.9553 65.6789Z" fill="white"/>
</g>
<defs>
<linearGradient id="paint0_linear" x1="85.085" y1="84.15" x2="13.0894" y2="11.3545" gradientUnits="userSpaceOnUse">
<stop offset="0.159375" stop-color="#003CDA"/>
<stop offset="1" stop-color="#33DFCC"/>
</linearGradient>
<clipPath id="clip0">
<rect width="91" height="90" fill="white"/>
</clipPath>
</defs>
</svg>
