<svg width="91" height="90" viewBox="0 0 91 90" fill="none" xmlns="http://www.w3.org/2000/svg">
<g clip-path="url(#clip0)">
<path d="M45.5 17.3531C51.0288 17.3531 56.4334 18.9746 61.0305 22.0125C65.6275 25.0503 69.2104 29.3682 71.3262 34.42C73.442 39.4718 73.9956 45.0307 72.917 50.3936C71.8383 55.7566 69.176 60.6828 65.2665 64.5493C61.3571 68.4158 56.3761 71.0489 50.9536 72.1156C45.531 73.1824 39.9104 72.6349 34.8025 70.5424C29.6945 68.4499 25.3287 64.9063 22.2571 60.3598C19.1854 55.8133 17.546 50.468 17.546 45C17.5554 37.6704 20.5035 30.6438 25.7439 25.461C30.9843 20.2782 38.089 17.3624 45.5 17.3531ZM45.5 0C36.501 0 27.704 2.6392 20.2216 7.58387C12.7391 12.5285 6.90729 19.5566 3.4635 27.7792C0.0197143 36.0019 -0.881337 45.0499 0.87429 53.7791C2.62992 62.5082 6.96337 70.5264 13.3267 76.8198C19.69 83.1132 27.7973 87.399 36.6234 89.1353C45.4496 90.8717 54.5981 89.9805 62.9121 86.5746C71.2262 83.1686 78.3323 77.4009 83.3319 70.0007C88.3315 62.6004 91 53.9002 91 45C91 33.0653 86.2063 21.6193 77.6734 13.1802C69.1405 4.74106 57.5674 0 45.5 0V0Z" fill="url(#paint0_linear)"/>
<path d="M45.5 80.2758C65.1988 80.2758 81.1677 64.4823 81.1677 45C81.1677 25.5177 65.1988 9.72421 45.5 9.72421C25.8013 9.72421 9.83228 25.5177 9.83228 45C9.83228 64.4823 25.8013 80.2758 45.5 80.2758Z" fill="white"/>
<path d="M73.4896 51.9469C72.1061 57.4252 69.1105 62.3745 64.882 66.1686C60.6534 69.9626 55.3819 72.4308 49.7346 73.2608C44.0872 74.0908 38.3178 73.2454 33.1564 70.8315C27.9951 68.4176 23.6737 64.5437 20.7392 59.7C17.8047 54.8563 16.3889 49.2605 16.671 43.6208C16.9531 37.9811 18.9204 32.5508 22.324 28.0173C25.7276 23.4837 30.4145 20.0505 35.7915 18.1522C41.1686 16.254 46.9942 15.9758 52.5312 17.3531C59.9444 19.199 66.3145 23.878 70.2437 30.3635C74.1729 36.849 75.3402 44.6112 73.4896 51.9469Z" fill="url(#paint1_linear)"/>
<path d="M58.2329 40.957C58.8159 37.1671 55.8939 35.1562 51.8984 33.75L53.2066 28.6101L50.0429 27.8226L48.7632 32.8359C47.9314 32.625 47.0783 32.4351 46.2252 32.2382L47.5048 27.2039L44.3412 26.4234L43.033 31.5562C42.3221 31.4015 41.668 31.2468 41.014 31.0851L36.6488 30.0023L35.8028 33.3421C35.8028 33.3421 38.1489 33.8765 38.0991 33.9117C38.537 33.9647 38.9367 34.1847 39.2129 34.5249C39.4891 34.8651 39.6201 35.2985 39.5779 35.7328L36.0232 49.7953C35.923 50.0707 35.7193 50.2974 35.4546 50.4284C35.1898 50.5593 34.8843 50.5844 34.6013 50.4984C34.6013 50.5406 32.2979 49.9289 32.2979 49.9289L30.7196 53.5078L34.8359 54.5273L37.0967 55.1039L35.7175 60.3281L38.8812 61.1156L40.1893 55.9757C41.0566 56.2078 41.8884 56.4257 42.7131 56.6297L41.4121 61.7414L44.5758 62.5289L45.8981 57.3398C51.2941 58.3593 55.3607 57.9586 57.0741 53.1211C58.4959 49.2398 57.0172 46.9968 54.1805 45.5343C56.2494 45.0632 57.8134 43.7203 58.2329 40.9429V40.957ZM50.9742 50.9695C49.9931 54.8437 43.3672 52.7343 41.2344 52.214L42.9833 45.3304C45.1232 45.8578 52.0051 46.9195 50.9742 50.9695ZM51.9766 40.8937C51.0737 44.4093 45.5782 42.6234 43.7795 42.1804L45.3649 35.9367C47.1565 36.3797 52.908 37.2093 51.9766 40.8937Z" fill="white"/>
</g>
<defs>
<linearGradient id="paint0_linear" x1="85.085" y1="84.15" x2="13.0894" y2="11.3545" gradientUnits="userSpaceOnUse">
<stop offset="0.159375" stop-color="#003CDA"/>
<stop offset="1" stop-color="#33DFCC"/>
</linearGradient>
<linearGradient id="paint1_linear" x1="44.4496" y1="10.2627" x2="44.3494" y2="67.8638" gradientUnits="userSpaceOnUse">
<stop stop-color="#F8A94B"/>
<stop offset="1" stop-color="#F6921E"/>
</linearGradient>
<clipPath id="clip0">
<rect width="91" height="90" fill="white"/>
</clipPath>
</defs>
</svg>
