<svg width="91" height="90" viewBox="0 0 91 90" fill="none" xmlns="http://www.w3.org/2000/svg">
<g clip-path="url(#clip0)">
<path d="M45.5 17.3531C51.0288 17.3531 56.4334 18.9746 61.0305 22.0125C65.6275 25.0503 69.2104 29.3682 71.3262 34.42C73.442 39.4718 73.9956 45.0307 72.917 50.3936C71.8383 55.7566 69.176 60.6828 65.2665 64.5493C61.3571 68.4158 56.3761 71.0489 50.9536 72.1156C45.531 73.1824 39.9104 72.6349 34.8025 70.5424C29.6945 68.4499 25.3287 64.9063 22.2571 60.3598C19.1854 55.8133 17.546 50.468 17.546 45C17.5554 37.6704 20.5035 30.6438 25.7439 25.461C30.9843 20.2782 38.089 17.3624 45.5 17.3531ZM45.5 0C36.501 0 27.704 2.6392 20.2216 7.58387C12.7391 12.5285 6.90729 19.5566 3.4635 27.7792C0.0197143 36.0019 -0.881337 45.0499 0.87429 53.7791C2.62992 62.5082 6.96337 70.5264 13.3267 76.8198C19.69 83.1132 27.7973 87.399 36.6234 89.1353C45.4496 90.8717 54.5981 89.9805 62.9121 86.5746C71.2262 83.1686 78.3323 77.4009 83.3319 70.0007C88.3315 62.6004 91 53.9002 91 45C91 33.0653 86.2063 21.6193 77.6734 13.1802C69.1405 4.74106 57.5674 0 45.5 0V0Z" fill="url(#paint0_linear)"/>
<path d="M45.5 80.2758C65.1988 80.2758 81.1677 64.4823 81.1677 45C81.1677 25.5177 65.1988 9.72421 45.5 9.72421C25.8013 9.72421 9.83228 25.5177 9.83228 45C9.83228 64.4823 25.8013 80.2758 45.5 80.2758Z" fill="white"/>
<path d="M65.9945 65.5506C63.2764 68.231 60.0411 70.3422 56.4815 71.7586C52.9219 73.1749 49.1108 73.8674 45.2752 73.7948C41.4637 73.8632 37.6782 73.1611 34.1502 71.7314C30.6222 70.3016 27.4259 68.1743 24.7567 65.4796C19.1579 59.9551 16.3657 53.169 16.38 45.1213C16.38 36.8511 19.1961 29.9609 24.8284 24.4506C27.5084 21.7649 30.7134 19.6487 34.2475 18.2312C37.7816 16.8137 41.5706 16.1247 45.3828 16.2064C49.2175 16.147 53.0251 16.8527 56.5786 18.2812C60.1321 19.7098 63.3588 21.8321 66.0663 24.5216C71.8037 30.0461 74.6533 36.9458 74.6151 45.2207C74.6873 49.0169 73.9578 52.7862 72.4734 56.2871C70.9889 59.788 68.7822 62.9432 65.9945 65.5506Z" fill="#6F68AE"/>
<path d="M34.7009 63.5133C39.0518 60.307 43.3245 57.1852 47.6613 53.9719C48.7206 55.0055 49.7941 56.0039 50.7894 57.0445C50.8586 57.1438 50.9475 57.228 51.0508 57.2921C51.154 57.3562 51.2694 57.3987 51.3899 57.4171C51.5104 57.4356 51.6334 57.4295 51.7514 57.3993C51.8694 57.3691 51.9799 57.3153 52.0762 57.2414C53.9958 56.2155 55.6559 54.7732 56.9319 53.0227C57.0385 52.875 57.1594 52.7414 57.3371 52.5234C58.1192 53.5289 58.8656 54.4852 59.605 55.4555C60.3444 56.4258 61.0269 57.382 61.7378 58.3242C61.8058 58.3866 61.8592 58.4629 61.8944 58.5477C61.9296 58.6326 61.9457 58.724 61.9417 58.8156C61.9376 58.9072 61.9135 58.9969 61.8709 59.0784C61.8283 59.1599 61.7684 59.2312 61.6952 59.2875C59.1258 62.1113 55.8499 64.2162 52.197 65.3906C49.6631 66.2451 46.9852 66.6034 44.3127 66.4453C41.0494 66.2574 37.8708 65.3442 35.0137 63.7734C34.9023 63.6954 34.7977 63.6084 34.7009 63.5133Z" fill="white"/>
<path d="M37.8787 56.7071C35.7957 58.2328 33.8122 59.7024 31.7931 61.1297C31.6609 61.1652 31.5219 61.1683 31.3882 61.1389C31.2544 61.1095 31.1299 61.0485 31.0253 60.961C28.2818 58.5714 26.2078 55.5224 25.0037 52.1086C24.0378 49.4933 23.617 46.7117 23.7666 43.9313C23.9353 40.87 24.7591 37.8791 26.1838 35.1563C26.2976 34.9313 26.4326 34.7133 26.6246 34.3688C27.1933 35.0719 27.7123 35.775 28.2171 36.4078C30.8049 39.7688 33.3856 43.1438 35.9948 46.4977C36.0761 46.5691 36.1397 46.6581 36.1808 46.7577C36.2219 46.8573 36.2394 46.9649 36.2318 47.0722C36.2242 47.1795 36.1919 47.2836 36.1372 47.3766C36.0826 47.4696 36.0071 47.549 35.9166 47.6086C35.0066 48.4594 34.1748 49.3875 33.2576 50.2383C33.1597 50.3093 33.0774 50.3995 33.0161 50.5032C32.9547 50.6068 32.9155 50.7219 32.9008 50.8411C32.8862 50.9604 32.8964 51.0814 32.9309 51.1966C32.9653 51.3118 33.0233 51.4188 33.1012 51.511C34.1477 53.3749 35.591 54.9919 37.3313 56.25C37.4806 56.3695 37.6157 56.4891 37.8787 56.7071Z" fill="white"/>
<path d="M33.6558 37.4555C32.6107 36.0914 31.6296 34.8187 30.6556 33.532C30.158 32.8781 29.6888 32.2031 29.1911 31.5562C29.1339 31.5074 29.0881 31.447 29.0566 31.379C29.0252 31.3111 29.0089 31.2372 29.0089 31.1625C29.0089 31.0878 29.0252 31.0139 29.0566 30.946C29.0881 30.878 29.1339 30.8176 29.1911 30.7687C32.2121 27.4089 36.2188 25.0662 40.6514 24.068C43.5875 23.3894 46.6358 23.3343 49.595 23.9062C51.8194 24.3344 53.9634 25.1005 55.9508 26.1773C56.0737 26.2626 56.1901 26.3566 56.2991 26.4586C55.4034 27.1055 54.5573 27.7172 53.7042 28.3219C50.377 30.6703 47.0356 33.0047 43.7511 35.3531C43.2961 35.6766 43.0402 35.6766 42.6278 35.2617C41.8173 34.418 40.9358 33.6375 40.1182 32.7937C39.9971 32.6377 39.8185 32.5354 39.6214 32.5091C39.4243 32.4827 39.2247 32.5345 39.066 32.6531C37.1803 33.6434 35.5392 35.0336 34.2601 36.7242C34.0823 36.9422 33.9117 37.1391 33.6558 37.4555Z" fill="white"/>
<path d="M53.1071 33.293C54.4578 32.2805 55.7304 31.3172 57.0101 30.368C57.721 29.8617 58.432 29.3977 59.0647 28.8774C59.3633 28.6524 59.5624 28.6242 59.8539 28.8774C62.9621 31.5742 65.2244 35.0951 66.3731 39.0235C67.0544 41.236 67.3477 43.5475 67.2405 45.8578C67.083 49.1319 66.1738 52.3276 64.5816 55.2024C64.5816 55.2586 64.4892 55.2938 64.3541 55.4133C63.764 54.6469 63.1739 53.9086 62.5981 53.1492C60.2046 50.0039 57.8016 46.8539 55.3892 43.6992C54.5929 42.6516 54.7422 42.8906 55.4532 42.1313C56.1641 41.3719 57.003 40.493 57.8206 39.7195C57.9862 39.5894 58.0938 39.4003 58.1203 39.1927C58.1469 38.9851 58.0904 38.7755 57.9628 38.6086C56.9479 36.7242 55.5225 35.0863 53.7896 33.8133L53.1071 33.293Z" fill="white"/>
</g>
<defs>
<linearGradient id="paint0_linear" x1="85.085" y1="84.15" x2="13.0894" y2="11.3545" gradientUnits="userSpaceOnUse">
<stop offset="0.159375" stop-color="#003CDA"/>
<stop offset="1" stop-color="#33DFCC"/>
</linearGradient>
<clipPath id="clip0">
<rect width="91" height="90" fill="white"/>
</clipPath>
</defs>
</svg>
