<svg width="200" height="200" viewBox="0 0 200 200" fill="none" xmlns="http://www.w3.org/2000/svg">
<path d="M0 40C0 17.9086 17.9086 0 40 0H160C182.091 0 200 17.9086 200 40V160C200 182.091 182.091 200 160 200H40C17.9086 200 0 182.091 0 160V40Z" fill="url(#paint0_linear)"/>
<path d="M155.743 72.7911C148.61 57.7586 135.629 46.1297 119.795 40.5988C99.9672 33.6499 77.9993 36.9116 61.0241 49.1078L107.956 140.012C85.7023 145.259 63.4491 131.645 58.1711 109.521C56.3167 101.863 56.7446 93.7798 59.4549 86.4054L38.6282 79.031C28.7854 106.685 39.4841 137.459 64.4476 153.343C80.567 163.553 100.395 165.964 118.369 160.008L139.196 200H145.615L127.641 156.037C158.168 140.437 170.578 103.565 155.743 72.7911ZM137.484 113.776C134.346 122.852 127.926 130.51 119.653 135.474L89.8391 59.8858C97.2569 58.4676 105.103 58.8931 112.235 61.4458C133.775 68.962 145.044 92.3617 137.484 113.776Z" fill="white"/>
<defs>
<linearGradient id="paint0_linear" x1="187" y1="187" x2="27" y2="27" gradientUnits="userSpaceOnUse">
<stop offset="0.159375" stop-color="#003CDA"/>
<stop offset="1" stop-color="#33DFCC"/>
</linearGradient>
</defs>
</svg>
