<svg viewBox="0 0 30 30" fill="none" 
    xmlns="http://www.w3.org/2000/svg">
    <path d="M25.5597 25.6885C24.1623 27.0862 22.4986 28.1879 20.6674 28.9281C18.8363 29.6683 16.8752 30.0319 14.9008 29.9972C12.9389 30.0358 10.9896 29.6734 9.17223 28.9319C7.35482 28.1904 5.7074 27.0856 4.33062 25.6848C2.92144 24.3104 1.80998 22.6599 1.06553 20.8362C0.321074 19.0126 -0.0404178 17.0549 0.00358484 15.0851C0.00358484 10.7752 1.44839 7.18403 4.338 4.31158C5.71566 2.91121 7.36384 1.80689 9.18188 1.06608C10.9999 0.325263 12.9496 -0.0364943 14.9119 0.00290477C16.8859 -0.0305909 18.8464 0.333916 20.6768 1.07475C22.5073 1.81558 24.1703 2.9176 25.5671 4.31528C28.5207 7.1902 29.9975 10.7826 29.9975 15.0925C30.0348 17.0708 29.6593 19.0352 28.8952 20.8598C28.131 22.6844 26.9949 24.3291 25.5597 25.6885V25.6885Z" fill="#C43C86"/>
    <path d="M10.6712 17.6313L19.3104 17.6467L15.0047 10.1846L10.6712 17.6313Z" fill="white"/>
    <path d="M15.0169 4.71429C14.9442 4.71462 14.8727 4.73394 14.8097 4.77034C14.7467 4.80674 14.6943 4.85896 14.6576 4.92182L6.05561 19.7066C6.01918 19.7697 6 19.8413 6 19.9142C6 19.987 6.01918 20.0586 6.05561 20.1217L11.2967 17.0923L14.9984 10.7205L15.0169 4.71429Z" fill="#EF4B2D"/>
    <path d="M23.9224 19.7376L15.3731 4.92182C15.3369 4.8592 15.285 4.8071 15.2225 4.7707C15.1601 4.7343 15.0892 4.71485 15.0168 4.71429V10.7236L18.6875 17.1077L23.9193 20.1527C23.9572 20.0902 23.9774 20.0186 23.978 19.9456C23.9785 19.8725 23.9593 19.8007 23.9224 19.7376V19.7376Z" fill="#9D2063"/>
    <path d="M23.9194 20.1465L18.6876 17.1016H11.2967L6.05562 20.1156C6.09129 20.1786 6.14307 20.2311 6.20566 20.2675C6.26825 20.304 6.3394 20.3232 6.41184 20.3231L23.5601 20.3541C23.6329 20.3537 23.7043 20.3344 23.7673 20.298C23.8304 20.2616 23.8828 20.2094 23.9194 20.1465V20.1465Z" fill="#662F8E"/>
</svg>