<svg width="1176" height="2269" viewBox="0 0 1176 2269" fill="none" 
    xmlns="http://www.w3.org/2000/svg">
    <path d="M1148.11 678.636L746.283 276.505C699.803 229.989 699.803 154.619 746.283 108.103L820.098 34.2337L854.306 0H0V2209.41L31.5308 2239.78C73.589 2279.54 139.671 2278.61 180.585 2237.67L488.77 1929.25C535.252 1882.73 535.252 1807.36 488.77 1760.84L228.109 1499.98C181.627 1453.47 181.627 1378.11 228.109 1331.58L504.481 1055C532.407 1027.06 577.714 1027.06 605.64 1055L688.705 1138.13C725.939 1175.4 786.347 1175.4 823.582 1138.13L1148.11 813.358C1185.3 776.145 1185.3 715.848 1148.11 678.636Z" fill="#444E5A" fill-opacity="0.5"/>
</svg>