<svg width="946" height="2418" viewBox="0 0 946 2418" fill="none" 
    xmlns="http://www.w3.org/2000/svg">
    <path d="M612.761 679.708L389.629 456.951C317.258 384.702 317.258 267.432 389.629 195.181L512.12 72.8986L587.356 0H945.46V1137.09V2274.17L917.29 2299.94L829.535 2383.25C781.086 2429.26 704.812 2428.3 657.531 2381.1L45.2325 1769.83C-15.0769 1709.63 -15.0776 1611.9 45.231 1551.69L612.764 985.103C697.196 900.812 697.196 763.998 612.761 679.708Z" fill="#D9EBFD"/>
    <g filter="url(#filter0_d)">
        <path d="M348.105 248.749L482.536 310.783L348.105 372.82L213.673 310.783L348.105 248.749Z" fill="url(#paint0_linear)"/>
    </g>
    <path d="M348.105 104V372.818L213.673 310.783L348.105 104Z" fill="url(#paint1_linear)"/>
    <path d="M348.105 104V372.818L482.536 310.783L348.105 104Z" fill="url(#paint2_linear)"/>
    <path opacity="0.2" d="M348.105 248.749V372.82L213.673 310.783L348.105 248.749Z" fill="url(#paint3_linear)"/>
    <path d="M348.105 248.749V372.82L482.536 310.783L348.105 248.749Z" fill="url(#paint4_linear)"/>
    <g filter="url(#filter1_d)">
        <path d="M116.513 324.391L139.566 335.029L116.513 345.667L93.4601 335.029L116.513 324.391Z" fill="white"/>
    </g>
    <path d="M93.4601 335.029L116.513 345.668V372.262L93.4601 361.624V335.029Z" fill="#DEE3EA"/>
    <path d="M139.566 335.029L116.513 345.668V372.262L139.566 361.624V335.029Z" fill="#CFD6E0"/>
    <g filter="url(#filter2_d)">
        <path d="M692.807 509.169L738.913 530.446L692.807 551.723L646.7 530.446L692.807 509.169Z" fill="white"/>
    </g>
    <path d="M692.807 455.204V551.612L646.7 530.334L692.807 455.204Z" fill="white"/>
    <path d="M692.807 455.204V551.612L738.913 530.334L692.807 455.204Z" fill="#DDE2E8"/>
    <g filter="url(#filter3_d)">
        <path d="M418.34 311L461.68 331L418.34 351L375 331L418.34 311Z" fill="white"/>
    </g>
    <path d="M375 331.002L418.34 351.002V401L375 381V331.002Z" fill="#DEE3EA"/>
    <path d="M461.68 331.002L418.34 351.002V401L461.68 381V331.002Z" fill="#CFD6E0"/>
    <defs>
        <filter id="filter0_d" x="153.673" y="248.749" width="388.863" height="254.071" filterUnits="userSpaceOnUse" color-interpolation-filters="sRGB">
            <feFlood flood-opacity="0" result="BackgroundImageFix"/>
            <feColorMatrix in="SourceAlpha" type="matrix" values="0 0 0 0 0 0 0 0 0 0 0 0 0 0 0 0 0 0 127 0"/>
            <feOffset dy="70"/>
            <feGaussianBlur stdDeviation="30"/>
            <feColorMatrix type="matrix" values="0 0 0 0 0 0 0 0 0 0 0 0 0 0 0 0 0 0 0.161 0"/>
            <feBlend mode="normal" in2="BackgroundImageFix" result="effect1_dropShadow"/>
            <feBlend mode="normal" in="SourceGraphic" in2="effect1_dropShadow" result="shape"/>
        </filter>
        <filter id="filter1_d" x="85.4601" y="324.391" width="62.1063" height="69.2762" filterUnits="userSpaceOnUse" color-interpolation-filters="sRGB">
            <feFlood flood-opacity="0" result="BackgroundImageFix"/>
            <feColorMatrix in="SourceAlpha" type="matrix" values="0 0 0 0 0 0 0 0 0 0 0 0 0 0 0 0 0 0 127 0"/>
            <feOffset dy="40"/>
            <feGaussianBlur stdDeviation="4"/>
            <feColorMatrix type="matrix" values="0 0 0 0 0 0 0 0 0 0 0 0 0 0 0 0 0 0 0.051 0"/>
            <feBlend mode="normal" in2="BackgroundImageFix" result="effect1_dropShadow"/>
            <feBlend mode="normal" in="SourceGraphic" in2="effect1_dropShadow" result="shape"/>
        </filter>
        <filter id="filter2_d" x="622.7" y="509.169" width="140.213" height="96.5539" filterUnits="userSpaceOnUse" color-interpolation-filters="sRGB">
            <feFlood flood-opacity="0" result="BackgroundImageFix"/>
            <feColorMatrix in="SourceAlpha" type="matrix" values="0 0 0 0 0 0 0 0 0 0 0 0 0 0 0 0 0 0 127 0"/>
            <feOffset dy="30"/>
            <feGaussianBlur stdDeviation="12"/>
            <feColorMatrix type="matrix" values="0 0 0 0 0 0 0 0 0 0 0 0 0 0 0 0 0 0 0.149 0"/>
            <feBlend mode="normal" in2="BackgroundImageFix" result="effect1_dropShadow"/>
            <feBlend mode="normal" in="SourceGraphic" in2="effect1_dropShadow" result="shape"/>
        </filter>
        <filter id="filter3_d" x="351" y="311" width="134.68" height="124" filterUnits="userSpaceOnUse" color-interpolation-filters="sRGB">
            <feFlood flood-opacity="0" result="BackgroundImageFix"/>
            <feColorMatrix in="SourceAlpha" type="matrix" values="0 0 0 0 0 0 0 0 0 0 0 0 0 0 0 0 0 0 127 0"/>
            <feOffset dy="60"/>
            <feGaussianBlur stdDeviation="12"/>
            <feColorMatrix type="matrix" values="0 0 0 0 0 0 0 0 0 0 0 0 0 0 0 0 0 0 0.149 0"/>
            <feBlend mode="normal" in2="BackgroundImageFix" result="effect1_dropShadow"/>
            <feBlend mode="normal" in="SourceGraphic" in2="effect1_dropShadow" result="shape"/>
        </filter>
        <linearGradient id="paint0_linear" x1="284.653" y1="267.112" x2="321.632" y2="376.807" gradientUnits="userSpaceOnUse">
            <stop stop-color="#829EFB"/>
            <stop offset="1" stop-color="#61EEBF"/>
        </linearGradient>
        <linearGradient id="paint1_linear" x1="248.356" y1="238.409" x2="352.302" y2="250.809" gradientUnits="userSpaceOnUse">
            <stop stop-color="#94ACFB"/>
            <stop offset="1" stop-color="#77F3E6" stop-opacity="0.5"/>
        </linearGradient>
        <linearGradient id="paint2_linear" x1="336.543" y1="78.7306" x2="524.245" y2="214.149" gradientUnits="userSpaceOnUse">
            <stop stop-color="#4682FF"/>
            <stop offset="1" stop-color="#73D8DE"/>
        </linearGradient>
        <linearGradient id="paint3_linear" x1="236.392" y1="343.29" x2="342.945" y2="271.602" gradientUnits="userSpaceOnUse">
            <stop stop-color="#003CDA"/>
            <stop offset="1" stop-color="#003CDA" stop-opacity="0"/>
        </linearGradient>
        <linearGradient id="paint4_linear" x1="447.449" y1="344.283" x2="353.57" y2="272.157" gradientUnits="userSpaceOnUse">
            <stop stop-color="#00C0AB"/>
            <stop offset="1" stop-color="#00C0AB" stop-opacity="0"/>
        </linearGradient>
    </defs>
</svg>
