<svg width="934" height="1601" viewBox="0 0 934 1601" fill="none" 
    xmlns="http://www.w3.org/2000/svg">
    <g clip-path="url(#clip0)">
        <path d="M293.801 126.778L537.552 -117H749L1216 -68L1205 929L579.068 1544.79C547.752 1575.6 497.453 1575.39 466.392 1544.33L70.6977 1148.59C31.651 1109.54 31.6506 1046.23 70.6967 1007.18L438.577 639.242C493.241 584.57 493.241 495.936 438.575 441.265L293.801 296.474C246.945 249.613 246.945 173.64 293.801 126.778Z" fill="black" fill-opacity="0.3"/>
        <g filter="url(#filter0_d)">
            <path d="M207.832 188.536L267.664 216.147L207.832 243.756L148 216.147L207.832 188.536Z" fill="white"/>
        </g>
        <path d="M207.832 128V243.763L148 216.152L207.832 128Z" fill="#939FAC"/>
        <path d="M207.832 128V243.763L267.665 216.152L207.832 128Z" fill="#495460"/>
        <g filter="url(#filter1_d)">
            <path d="M516.514 111.786L576.347 139.397L516.514 167.006L456.682 139.397L516.514 111.786Z" fill="#C3CDD8"/>
        </g>
        <path d="M456.682 139.397L516.514 167.006V236.033L456.682 208.422V139.397Z" fill="#939FAC"/>
        <path d="M576.347 139.397L516.515 167.006V236.033L576.347 208.422V139.397Z" fill="#495460"/>
        <g filter="url(#filter2_d)">
            <path d="M740.885 100.571L927.861 186.852L740.885 273.135L553.91 186.852L740.885 100.571Z" fill="url(#paint0_linear)"/>
        </g>
        <path d="M553.91 186.853L740.885 273.136V488.841L553.91 402.56V186.853Z" fill="url(#paint1_linear)"/>
        <path d="M927.861 186.853L740.885 273.136V488.841L927.861 402.56V186.853Z" fill="url(#paint2_linear)"/>
        <path opacity="0.2" d="M740.885 316.275V488.839L553.91 402.556L740.885 316.275Z" fill="url(#paint3_linear)"/>
        <path d="M740.885 316.275V488.839L927.861 402.556L740.885 316.275Z" fill="url(#paint4_linear)"/>
        <g filter="url(#filter3_d)">
            <path d="M479.119 338.349L509.035 352.154L479.119 365.96L449.203 352.154L479.119 338.349Z" fill="white"/>
        </g>
        <path d="M479.119 303.334V365.887L449.203 352.082L479.119 303.334Z" fill="#C3CDD8"/>
        <path d="M479.119 303.334V365.887L509.035 352.082L479.119 303.334Z" fill="#939FAC"/>
        <g filter="url(#filter4_d)">
            <path d="M517.226 490.92L604.452 531.171L517.226 571.423L430 531.171L517.226 490.92Z" fill="url(#paint5_linear)"/>
        </g>
        <path d="M517.226 397V571.422L430 531.171L517.226 397Z" fill="url(#paint6_linear)"/>
        <path d="M517.226 397V571.422L604.451 531.171L517.226 397Z" fill="url(#paint7_linear)"/>
        <path opacity="0.2" d="M517.226 490.92V571.423L430 531.171L517.226 490.92Z" fill="url(#paint8_linear)"/>
        <path d="M517.226 490.92V571.423L604.451 531.171L517.226 490.92Z" fill="url(#paint9_linear)"/>
        <g filter="url(#filter5_d)">
            <path d="M674.486 497.575L721.972 519.49L674.486 541.404L627 519.49L674.486 497.575Z" fill="#283038"/>
        </g>
        <path d="M674.486 442V541.292L627 519.377L674.486 442Z" fill="#939FAC"/>
        <path d="M674.486 442V541.292L721.972 519.377L674.486 442Z" fill="#495460"/>
        <g filter="url(#filter6_d)">
            <path d="M580.416 531L604.832 542.267L580.416 553.535L556 542.267L580.416 531Z" fill="#C3CDD8"/>
        </g>
        <path d="M556 542.268L580.416 553.536V581.702L556 570.435V542.268Z" fill="#939FAC"/>
        <path d="M604.832 542.268L580.416 553.536V581.702L604.832 570.435V542.268Z" fill="#495460"/>
        <g filter="url(#filter7_d)">
            <path d="M688.532 114.016L718.448 127.821L688.532 141.626L658.616 127.821L688.532 114.016Z" fill="white"/>
        </g>
        <path d="M688.532 79.0005V141.554L658.616 127.748L688.532 79.0005Z" fill="#939FAC"/>
        <path d="M688.532 79.0005V141.554L718.448 127.748L688.532 79.0005Z" fill="#495460"/>
        <g filter="url(#filter8_d)">
            <path d="M366.958 257L381.916 263.903L366.958 270.805L352 263.903L366.958 257Z" fill="#C3CDD8"/>
        </g>
        <path d="M352 263.903L366.958 270.806V288.062L352 281.159V263.903Z" fill="#939FAC"/>
        <path d="M381.916 263.903L366.958 270.806V288.062L381.916 281.159V263.903Z" fill="#495460"/>
        <path d="M366.958 540L381.916 546.903L366.958 553.805L352 546.903L366.958 540Z" fill="#C3CDD8"/>
        <path d="M352 546.903L366.958 553.806V571.061L352 564.159V546.903Z" fill="#939FAC"/>
        <path d="M381.916 546.903L366.958 553.806V571.061L381.916 564.159V546.903Z" fill="#495460"/>
        <g filter="url(#filter9_d)">
            <path d="M740.5 661L767 673.5L740.5 686L714 673.5L740.5 661Z" fill="white"/>
        </g>
        <path d="M740.885 624.878V687.432L710.969 673.626L740.885 624.878Z" fill="#C3CDD8"/>
        <path d="M740.885 624.878V687.432L770.801 673.626L740.885 624.878Z" fill="#939FAC"/>
    </g>
    <defs>
        <filter id="filter0_d" x="108" y="188.536" width="199.664" height="165.22" filterUnits="userSpaceOnUse" color-interpolation-filters="sRGB">
            <feFlood flood-opacity="0" result="BackgroundImageFix"/>
            <feColorMatrix in="SourceAlpha" type="matrix" values="0 0 0 0 0 0 0 0 0 0 0 0 0 0 0 0 0 0 127 0"/>
            <feOffset dy="70"/>
            <feGaussianBlur stdDeviation="20"/>
            <feColorMatrix type="matrix" values="0 0 0 0 0 0 0 0 0 0 0 0 0 0 0 0 0 0 0.3 0"/>
            <feBlend mode="normal" in2="BackgroundImageFix" result="effect1_dropShadow"/>
            <feBlend mode="normal" in="SourceGraphic" in2="effect1_dropShadow" result="shape"/>
        </filter>
        <filter id="filter1_d" x="446.682" y="111.786" width="139.664" height="168.22" filterUnits="userSpaceOnUse" color-interpolation-filters="sRGB">
            <feFlood flood-opacity="0" result="BackgroundImageFix"/>
            <feColorMatrix in="SourceAlpha" type="matrix" values="0 0 0 0 0 0 0 0 0 0 0 0 0 0 0 0 0 0 127 0"/>
            <feOffset dy="103"/>
            <feGaussianBlur stdDeviation="5"/>
            <feColorMatrix type="matrix" values="0 0 0 0 0 0 0 0 0 0 0 0 0 0 0 0 0 0 0.15 0"/>
            <feBlend mode="normal" in2="BackgroundImageFix" result="effect1_dropShadow"/>
            <feBlend mode="normal" in="SourceGraphic" in2="effect1_dropShadow" result="shape"/>
        </filter>
        <filter id="filter2_d" x="493.91" y="100.571" width="493.951" height="572.564" filterUnits="userSpaceOnUse" color-interpolation-filters="sRGB">
            <feFlood flood-opacity="0" result="BackgroundImageFix"/>
            <feColorMatrix in="SourceAlpha" type="matrix" values="0 0 0 0 0 0 0 0 0 0 0 0 0 0 0 0 0 0 127 0"/>
            <feOffset dy="340"/>
            <feGaussianBlur stdDeviation="30"/>
            <feColorMatrix type="matrix" values="0 0 0 0 0 0 0 0 0 0 0 0 0 0 0 0 0 0 0.161 0"/>
            <feBlend mode="normal" in2="BackgroundImageFix" result="effect1_dropShadow"/>
            <feBlend mode="normal" in="SourceGraphic" in2="effect1_dropShadow" result="shape"/>
        </filter>
        <filter id="filter3_d" x="425.203" y="338.349" width="107.832" height="81.6108" filterUnits="userSpaceOnUse" color-interpolation-filters="sRGB">
            <feFlood flood-opacity="0" result="BackgroundImageFix"/>
            <feColorMatrix in="SourceAlpha" type="matrix" values="0 0 0 0 0 0 0 0 0 0 0 0 0 0 0 0 0 0 127 0"/>
            <feOffset dy="30"/>
            <feGaussianBlur stdDeviation="12"/>
            <feColorMatrix type="matrix" values="0 0 0 0 0 0 0 0 0 0 0 0 0 0 0 0 0 0 0.12 0"/>
            <feBlend mode="normal" in2="BackgroundImageFix" result="effect1_dropShadow"/>
            <feBlend mode="normal" in="SourceGraphic" in2="effect1_dropShadow" result="shape"/>
        </filter>
        <filter id="filter4_d" x="370" y="490.92" width="294.451" height="210.503" filterUnits="userSpaceOnUse" color-interpolation-filters="sRGB">
            <feFlood flood-opacity="0" result="BackgroundImageFix"/>
            <feColorMatrix in="SourceAlpha" type="matrix" values="0 0 0 0 0 0 0 0 0 0 0 0 0 0 0 0 0 0 127 0"/>
            <feOffset dy="70"/>
            <feGaussianBlur stdDeviation="30"/>
            <feColorMatrix type="matrix" values="0 0 0 0 0 0 0 0 0 0 0 0 0 0 0 0 0 0 0.161 0"/>
            <feBlend mode="normal" in2="BackgroundImageFix" result="effect1_dropShadow"/>
            <feBlend mode="normal" in="SourceGraphic" in2="effect1_dropShadow" result="shape"/>
        </filter>
        <filter id="filter5_d" x="611" y="497.575" width="126.972" height="89.8286" filterUnits="userSpaceOnUse" color-interpolation-filters="sRGB">
            <feFlood flood-opacity="0" result="BackgroundImageFix"/>
            <feColorMatrix in="SourceAlpha" type="matrix" values="0 0 0 0 0 0 0 0 0 0 0 0 0 0 0 0 0 0 127 0"/>
            <feOffset dy="30"/>
            <feGaussianBlur stdDeviation="8"/>
            <feColorMatrix type="matrix" values="0 0 0 0 0 0 0 0 0 0 0 0 0 0 0 0 0 0 0.3 0"/>
            <feBlend mode="normal" in2="BackgroundImageFix" result="effect1_dropShadow"/>
            <feBlend mode="normal" in="SourceGraphic" in2="effect1_dropShadow" result="shape"/>
        </filter>
        <filter id="filter6_d" x="532" y="531" width="96.8322" height="106.535" filterUnits="userSpaceOnUse" color-interpolation-filters="sRGB">
            <feFlood flood-opacity="0" result="BackgroundImageFix"/>
            <feColorMatrix in="SourceAlpha" type="matrix" values="0 0 0 0 0 0 0 0 0 0 0 0 0 0 0 0 0 0 127 0"/>
            <feOffset dy="60"/>
            <feGaussianBlur stdDeviation="12"/>
            <feColorMatrix type="matrix" values="0 0 0 0 0 0 0 0 0 0 0 0 0 0 0 0 0 0 0.149 0"/>
            <feBlend mode="normal" in2="BackgroundImageFix" result="effect1_dropShadow"/>
            <feBlend mode="normal" in="SourceGraphic" in2="effect1_dropShadow" result="shape"/>
        </filter>
        <filter id="filter7_d" x="634.616" y="114.016" width="107.832" height="81.6108" filterUnits="userSpaceOnUse" color-interpolation-filters="sRGB">
            <feFlood flood-opacity="0" result="BackgroundImageFix"/>
            <feColorMatrix in="SourceAlpha" type="matrix" values="0 0 0 0 0 0 0 0 0 0 0 0 0 0 0 0 0 0 127 0"/>
            <feOffset dy="30"/>
            <feGaussianBlur stdDeviation="12"/>
            <feColorMatrix type="matrix" values="0 0 0 0 0 0 0 0 0 0 0 0 0 0 0 0 0 0 0.149 0"/>
            <feBlend mode="normal" in2="BackgroundImageFix" result="effect1_dropShadow"/>
            <feBlend mode="normal" in="SourceGraphic" in2="effect1_dropShadow" result="shape"/>
        </filter>
        <filter id="filter8_d" x="344" y="257" width="45.9161" height="61.8054" filterUnits="userSpaceOnUse" color-interpolation-filters="sRGB">
            <feFlood flood-opacity="0" result="BackgroundImageFix"/>
            <feColorMatrix in="SourceAlpha" type="matrix" values="0 0 0 0 0 0 0 0 0 0 0 0 0 0 0 0 0 0 127 0"/>
            <feOffset dy="40"/>
            <feGaussianBlur stdDeviation="4"/>
            <feColorMatrix type="matrix" values="0 0 0 0 0 0 0 0 0 0 0 0 0 0 0 0 0 0 0.051 0"/>
            <feBlend mode="normal" in2="BackgroundImageFix" result="effect1_dropShadow"/>
            <feBlend mode="normal" in="SourceGraphic" in2="effect1_dropShadow" result="shape"/>
        </filter>
        <filter id="filter9_d" x="707" y="661" width="67" height="49" filterUnits="userSpaceOnUse" color-interpolation-filters="sRGB">
            <feFlood flood-opacity="0" result="BackgroundImageFix"/>
            <feColorMatrix in="SourceAlpha" type="matrix" values="0 0 0 0 0 0 0 0 0 0 0 0 0 0 0 0 0 0 127 0"/>
            <feOffset dy="17"/>
            <feGaussianBlur stdDeviation="3.5"/>
            <feColorMatrix type="matrix" values="0 0 0 0 0 0 0 0 0 0 0 0 0 0 0 0 0 0 0.1 0"/>
            <feBlend mode="normal" in2="BackgroundImageFix" result="effect1_dropShadow"/>
            <feBlend mode="normal" in="SourceGraphic" in2="effect1_dropShadow" result="shape"/>
        </filter>
        <linearGradient id="paint0_linear" x1="652.633" y1="126.111" x2="704.066" y2="278.682" gradientUnits="userSpaceOnUse">
            <stop stop-color="#99B0FC"/>
            <stop offset="1" stop-color="#79F5CC"/>
        </linearGradient>
        <linearGradient id="paint1_linear" x1="523.246" y1="278.657" x2="764.127" y2="323.29" gradientUnits="userSpaceOnUse">
            <stop stop-color="#718FF1"/>
            <stop offset="1" stop-color="#9BE2CA"/>
        </linearGradient>
        <linearGradient id="paint2_linear" x1="970.492" y1="417.874" x2="675.732" y2="348.589" gradientUnits="userSpaceOnUse">
            <stop stop-color="#3E68E9"/>
            <stop offset="1" stop-color="#57B193"/>
        </linearGradient>
        <linearGradient id="paint3_linear" x1="585.509" y1="447.769" x2="733.709" y2="348.06" gradientUnits="userSpaceOnUse">
            <stop stop-color="#354E9E"/>
            <stop offset="1" stop-color="#354E9E" stop-opacity="0"/>
        </linearGradient>
        <linearGradient id="paint4_linear" x1="879.06" y1="449.15" x2="748.487" y2="348.832" gradientUnits="userSpaceOnUse">
            <stop stop-color="#34AB84"/>
            <stop offset="1" stop-color="#34AB84" stop-opacity="0"/>
        </linearGradient>
        <linearGradient id="paint5_linear" x1="476.055" y1="502.835" x2="500.049" y2="574.01" gradientUnits="userSpaceOnUse">
            <stop stop-color="#829EFB"/>
            <stop offset="1" stop-color="#61EEBF"/>
        </linearGradient>
        <linearGradient id="paint6_linear" x1="452.504" y1="484.211" x2="519.949" y2="492.257" gradientUnits="userSpaceOnUse">
            <stop stop-color="#94ACFB"/>
            <stop offset="1" stop-color="#77F3E6" stop-opacity="0.5"/>
        </linearGradient>
        <linearGradient id="paint7_linear" x1="509.724" y1="380.604" x2="631.514" y2="468.47" gradientUnits="userSpaceOnUse">
            <stop stop-color="#4682FF"/>
            <stop offset="1" stop-color="#73D8DE"/>
        </linearGradient>
        <linearGradient id="paint8_linear" x1="444.741" y1="552.263" x2="513.878" y2="505.748" gradientUnits="userSpaceOnUse">
            <stop stop-color="#003CDA"/>
            <stop offset="1" stop-color="#003CDA" stop-opacity="0"/>
        </linearGradient>
        <linearGradient id="paint9_linear" x1="581.686" y1="552.907" x2="520.772" y2="506.108" gradientUnits="userSpaceOnUse">
            <stop stop-color="#00C0AB"/>
            <stop offset="1" stop-color="#00C0AB" stop-opacity="0"/>
        </linearGradient>
        <clipPath id="clip0">
            <rect width="934" height="1601" fill="white"/>
        </clipPath>
    </defs>
</svg>
