<svg width="331" height="1219" viewBox="0 0 331 1219" fill="none" 
    xmlns="http://www.w3.org/2000/svg">
    <g opacity="0.5">
        <g clip-path="url(#clip0)">
            <path d="M143.305 365.103L227.447 281.045C238.987 269.516 239.201 250.879 227.928 239.089L120.825 127.07C110.142 115.896 109.698 98.434 119.801 86.7328L196.79 -2.44154C214.799 -23.3009 197.515 -55.3678 170.19 -51.793L-76.0688 -19.5759C-89.8556 -17.7722 -100.596 -6.73156 -102.02 7.09964L-214.538 1100.5C-215.463 1109.49 -212.289 1118.41 -205.899 1124.8L-120.794 1209.82C-109.081 1221.52 -90.1018 1221.52 -78.3885 1209.82L65.1808 1066.39C76.9105 1054.67 76.9105 1035.66 65.1808 1023.94L-63.6172 895.273C-75.3469 883.555 -75.3469 864.543 -63.6172 852.825L58.0956 731.233C69.809 719.531 88.7878 719.531 100.501 731.233L138.394 769.088C150.107 780.79 169.086 780.79 180.799 769.088L321.755 628.271C333.485 616.553 333.485 597.542 321.755 585.824L143.305 407.55C131.576 395.832 131.576 376.821 143.305 365.103Z" fill="#444E5A"/>
        </g>
    </g>
    <defs>
        <clipPath id="clip0">
            <rect width="331" height="1219" fill="white"/>
        </clipPath>
    </defs>
</svg>