<svg width="1179" height="1900" viewBox="0 0 1179 1900" fill="none" 
    xmlns="http://www.w3.org/2000/svg">
    <path d="M817.211 90.7893L1012 -104H-111.5V1549.5L209.289 1870.29C248.342 1909.34 311.658 1909.34 350.711 1870.29L600.789 1620.21C639.842 1581.16 639.842 1517.84 600.789 1478.79L381.711 1259.71C342.658 1220.66 342.658 1157.34 381.711 1118.29L614.074 885.926C637.505 862.495 675.495 862.495 698.926 885.926L768.931 955.932C800.173 987.173 850.827 987.173 882.068 955.932L1154.93 683.069C1186.17 651.827 1186.17 601.173 1154.93 569.931L817.211 232.211C778.158 193.158 778.158 129.842 817.211 90.7893Z" fill="#444E5A" fill-opacity="0.5"/>
</svg>