<svg width="934" height="1601" viewBox="0 0 934 1601" fill="none" 
    xmlns="http://www.w3.org/2000/svg">
    <path d="M293.801 126.778L537.552 -117H749L1216 -68L1205 929L579.068 1544.79C547.752 1575.6 497.453 1575.39 466.392 1544.33L70.6976 1148.59C31.6509 1109.54 31.6505 1046.23 70.6966 1007.18L438.577 639.242C493.241 584.57 493.241 495.936 438.575 441.265L293.801 296.474C246.945 249.613 246.945 173.64 293.801 126.778Z" fill="#D9EBFD"/>
    <g filter="url(#filter0_d)">
        <path d="M517.514 111.786L577.347 139.397L517.514 167.006L457.682 139.397L517.514 111.786Z" fill="white"/>
    </g>
    <path d="M457.682 139.397L517.514 167.006V236.033L457.682 208.422V139.397Z" fill="#DEE3EA"/>
    <path d="M577.346 139.397L517.514 167.006V236.033L577.346 208.422V139.397Z" fill="#CFD6E0"/>
    <g filter="url(#filter1_d)">
        <path d="M741.885 100.571L928.861 186.852L741.885 273.135L554.91 186.852L741.885 100.571Z" fill="url(#paint0_linear)"/>
    </g>
    <path d="M554.91 186.853L741.885 273.135V488.841L554.91 402.56V186.853Z" fill="url(#paint1_linear)"/>
    <path d="M928.861 186.853L741.885 273.135V488.841L928.861 402.56V186.853Z" fill="url(#paint2_linear)"/>
    <path opacity="0.2" d="M741.885 316.275V488.839L554.91 402.556L741.885 316.275Z" fill="url(#paint3_linear)"/>
    <path d="M741.885 316.275V488.839L928.861 402.556L741.885 316.275Z" fill="url(#paint4_linear)"/>
    <g filter="url(#filter2_d)">
        <path d="M480.119 338.349L510.035 352.155L480.119 365.96L450.203 352.155L480.119 338.349Z" fill="white"/>
    </g>
    <path d="M480.119 303.334V365.887L450.203 352.082L480.119 303.334Z" fill="white"/>
    <path d="M480.119 303.334V365.887L510.035 352.082L480.119 303.334Z" fill="#DDE2E8"/>
    <g filter="url(#filter3_d)">
        <path d="M518.226 490.92L605.451 531.171L518.226 571.422L431 531.171L518.226 490.92Z" fill="url(#paint5_linear)"/>
    </g>
    <path d="M518.226 397V571.422L431 531.171L518.226 397Z" fill="url(#paint6_linear)"/>
    <path d="M518.226 397V571.422L605.451 531.171L518.226 397Z" fill="url(#paint7_linear)"/>
    <path opacity="0.2" d="M518.226 490.92V571.422L431 531.171L518.226 490.92Z" fill="url(#paint8_linear)"/>
    <path d="M518.226 490.92V571.422L605.451 531.171L518.226 490.92Z" fill="url(#paint9_linear)"/>
    <g filter="url(#filter4_d)">
        <path d="M675.486 497.575L722.972 519.489L675.486 541.404L628 519.489L675.486 497.575Z" fill="white"/>
    </g>
    <path d="M675.486 442V541.292L628 519.377L675.486 442Z" fill="white"/>
    <path d="M675.486 442V541.292L722.972 519.377L675.486 442Z" fill="#DDE2E8"/>
    <g filter="url(#filter5_d)">
        <path d="M581.416 531L605.832 542.267L581.416 553.535L557 542.267L581.416 531Z" fill="white"/>
    </g>
    <path d="M557 542.269L581.416 553.536V581.703L557 570.435V542.269Z" fill="#DEE3EA"/>
    <path d="M605.832 542.269L581.416 553.536V581.703L605.832 570.435V542.269Z" fill="#CFD6E0"/>
    <g filter="url(#filter6_d)">
        <path d="M689.532 114.016L719.448 127.821L689.532 141.626L659.616 127.821L689.532 114.016Z" fill="white"/>
    </g>
    <path d="M689.532 79.0005V141.554L659.616 127.748L689.532 79.0005Z" fill="white"/>
    <path d="M689.532 79.0005V141.554L719.448 127.748L689.532 79.0005Z" fill="#DDE2E8"/>
    <g filter="url(#filter7_d)">
        <path d="M367.958 257L382.916 263.903L367.958 270.805L353 263.903L367.958 257Z" fill="white"/>
    </g>
    <path d="M353 263.903L367.958 270.806V288.061L353 281.159V263.903Z" fill="#DEE3EA"/>
    <path d="M382.916 263.903L367.958 270.806V288.061L382.916 281.159V263.903Z" fill="#CFD6E0"/>
    <g filter="url(#filter8_d)">
        <path d="M367.958 540L382.916 546.903L367.958 553.805L353 546.903L367.958 540Z" fill="white"/>
    </g>
    <path d="M353 546.903L367.958 553.806V571.061L353 564.159V546.903Z" fill="#DEE3EA"/>
    <path d="M382.916 546.903L367.958 553.806V571.061L382.916 564.159V546.903Z" fill="#CFD6E0"/>
    <g filter="url(#filter9_d)">
        <path d="M741.885 659.894L771.801 673.699L741.885 687.504L711.969 673.699L741.885 659.894Z" fill="white"/>
    </g>
    <path d="M741.885 624.878V687.432L711.969 673.626L741.885 624.878Z" fill="white"/>
    <path d="M741.885 624.878V687.432L771.801 673.626L741.885 624.878Z" fill="#DDE2E8"/>
    <defs>
        <filter id="filter0_d" x="417.682" y="111.786" width="199.664" height="225.22" filterUnits="userSpaceOnUse" color-interpolation-filters="sRGB">
            <feFlood flood-opacity="0" result="BackgroundImageFix"/>
            <feColorMatrix in="SourceAlpha" type="matrix" values="0 0 0 0 0 0 0 0 0 0 0 0 0 0 0 0 0 0 127 0"/>
            <feOffset dy="130"/>
            <feGaussianBlur stdDeviation="20"/>
            <feColorMatrix type="matrix" values="0 0 0 0 0 0 0 0 0 0 0 0 0 0 0 0 0 0 0.102 0"/>
            <feBlend mode="normal" in2="BackgroundImageFix" result="effect1_dropShadow"/>
            <feBlend mode="normal" in="SourceGraphic" in2="effect1_dropShadow" result="shape"/>
        </filter>
        <filter id="filter1_d" x="494.91" y="100.571" width="493.951" height="572.564" filterUnits="userSpaceOnUse" color-interpolation-filters="sRGB">
            <feFlood flood-opacity="0" result="BackgroundImageFix"/>
            <feColorMatrix in="SourceAlpha" type="matrix" values="0 0 0 0 0 0 0 0 0 0 0 0 0 0 0 0 0 0 127 0"/>
            <feOffset dy="340"/>
            <feGaussianBlur stdDeviation="30"/>
            <feColorMatrix type="matrix" values="0 0 0 0 0 0 0 0 0 0 0 0 0 0 0 0 0 0 0.161 0"/>
            <feBlend mode="normal" in2="BackgroundImageFix" result="effect1_dropShadow"/>
            <feBlend mode="normal" in="SourceGraphic" in2="effect1_dropShadow" result="shape"/>
        </filter>
        <filter id="filter2_d" x="426.203" y="338.349" width="107.832" height="81.6108" filterUnits="userSpaceOnUse" color-interpolation-filters="sRGB">
            <feFlood flood-opacity="0" result="BackgroundImageFix"/>
            <feColorMatrix in="SourceAlpha" type="matrix" values="0 0 0 0 0 0 0 0 0 0 0 0 0 0 0 0 0 0 127 0"/>
            <feOffset dy="30"/>
            <feGaussianBlur stdDeviation="12"/>
            <feColorMatrix type="matrix" values="0 0 0 0 0 0 0 0 0 0 0 0 0 0 0 0 0 0 0.12 0"/>
            <feBlend mode="normal" in2="BackgroundImageFix" result="effect1_dropShadow"/>
            <feBlend mode="normal" in="SourceGraphic" in2="effect1_dropShadow" result="shape"/>
        </filter>
        <filter id="filter3_d" x="371" y="490.92" width="294.451" height="210.503" filterUnits="userSpaceOnUse" color-interpolation-filters="sRGB">
            <feFlood flood-opacity="0" result="BackgroundImageFix"/>
            <feColorMatrix in="SourceAlpha" type="matrix" values="0 0 0 0 0 0 0 0 0 0 0 0 0 0 0 0 0 0 127 0"/>
            <feOffset dy="70"/>
            <feGaussianBlur stdDeviation="30"/>
            <feColorMatrix type="matrix" values="0 0 0 0 0 0 0 0 0 0 0 0 0 0 0 0 0 0 0.161 0"/>
            <feBlend mode="normal" in2="BackgroundImageFix" result="effect1_dropShadow"/>
            <feBlend mode="normal" in="SourceGraphic" in2="effect1_dropShadow" result="shape"/>
        </filter>
        <filter id="filter4_d" x="604" y="497.575" width="142.972" height="97.8286" filterUnits="userSpaceOnUse" color-interpolation-filters="sRGB">
            <feFlood flood-opacity="0" result="BackgroundImageFix"/>
            <feColorMatrix in="SourceAlpha" type="matrix" values="0 0 0 0 0 0 0 0 0 0 0 0 0 0 0 0 0 0 127 0"/>
            <feOffset dy="30"/>
            <feGaussianBlur stdDeviation="12"/>
            <feColorMatrix type="matrix" values="0 0 0 0 0 0 0 0 0 0 0 0 0 0 0 0 0 0 0.051 0"/>
            <feBlend mode="normal" in2="BackgroundImageFix" result="effect1_dropShadow"/>
            <feBlend mode="normal" in="SourceGraphic" in2="effect1_dropShadow" result="shape"/>
        </filter>
        <filter id="filter5_d" x="533" y="531" width="96.8322" height="106.535" filterUnits="userSpaceOnUse" color-interpolation-filters="sRGB">
            <feFlood flood-opacity="0" result="BackgroundImageFix"/>
            <feColorMatrix in="SourceAlpha" type="matrix" values="0 0 0 0 0 0 0 0 0 0 0 0 0 0 0 0 0 0 127 0"/>
            <feOffset dy="60"/>
            <feGaussianBlur stdDeviation="12"/>
            <feColorMatrix type="matrix" values="0 0 0 0 0 0 0 0 0 0 0 0 0 0 0 0 0 0 0.149 0"/>
            <feBlend mode="normal" in2="BackgroundImageFix" result="effect1_dropShadow"/>
            <feBlend mode="normal" in="SourceGraphic" in2="effect1_dropShadow" result="shape"/>
        </filter>
        <filter id="filter6_d" x="635.616" y="114.016" width="107.832" height="81.6108" filterUnits="userSpaceOnUse" color-interpolation-filters="sRGB">
            <feFlood flood-opacity="0" result="BackgroundImageFix"/>
            <feColorMatrix in="SourceAlpha" type="matrix" values="0 0 0 0 0 0 0 0 0 0 0 0 0 0 0 0 0 0 127 0"/>
            <feOffset dy="30"/>
            <feGaussianBlur stdDeviation="12"/>
            <feColorMatrix type="matrix" values="0 0 0 0 0 0 0 0 0 0 0 0 0 0 0 0 0 0 0.149 0"/>
            <feBlend mode="normal" in2="BackgroundImageFix" result="effect1_dropShadow"/>
            <feBlend mode="normal" in="SourceGraphic" in2="effect1_dropShadow" result="shape"/>
        </filter>
        <filter id="filter7_d" x="345" y="257" width="45.9161" height="61.8054" filterUnits="userSpaceOnUse" color-interpolation-filters="sRGB">
            <feFlood flood-opacity="0" result="BackgroundImageFix"/>
            <feColorMatrix in="SourceAlpha" type="matrix" values="0 0 0 0 0 0 0 0 0 0 0 0 0 0 0 0 0 0 127 0"/>
            <feOffset dy="40"/>
            <feGaussianBlur stdDeviation="4"/>
            <feColorMatrix type="matrix" values="0 0 0 0 0 0 0 0 0 0 0 0 0 0 0 0 0 0 0.051 0"/>
            <feBlend mode="normal" in2="BackgroundImageFix" result="effect1_dropShadow"/>
            <feBlend mode="normal" in="SourceGraphic" in2="effect1_dropShadow" result="shape"/>
        </filter>
        <filter id="filter8_d" x="345" y="540" width="45.9161" height="61.8054" filterUnits="userSpaceOnUse" color-interpolation-filters="sRGB">
            <feFlood flood-opacity="0" result="BackgroundImageFix"/>
            <feColorMatrix in="SourceAlpha" type="matrix" values="0 0 0 0 0 0 0 0 0 0 0 0 0 0 0 0 0 0 127 0"/>
            <feOffset dy="40"/>
            <feGaussianBlur stdDeviation="4"/>
            <feColorMatrix type="matrix" values="0 0 0 0 0 0 0 0 0 0 0 0 0 0 0 0 0 0 0.051 0"/>
            <feBlend mode="normal" in2="BackgroundImageFix" result="effect1_dropShadow"/>
            <feBlend mode="normal" in="SourceGraphic" in2="effect1_dropShadow" result="shape"/>
        </filter>
        <filter id="filter9_d" x="687.969" y="659.894" width="107.832" height="81.6108" filterUnits="userSpaceOnUse" color-interpolation-filters="sRGB">
            <feFlood flood-opacity="0" result="BackgroundImageFix"/>
            <feColorMatrix in="SourceAlpha" type="matrix" values="0 0 0 0 0 0 0 0 0 0 0 0 0 0 0 0 0 0 127 0"/>
            <feOffset dy="30"/>
            <feGaussianBlur stdDeviation="12"/>
            <feColorMatrix type="matrix" values="0 0 0 0 0 0 0 0 0 0 0 0 0 0 0 0 0 0 0.149 0"/>
            <feBlend mode="normal" in2="BackgroundImageFix" result="effect1_dropShadow"/>
            <feBlend mode="normal" in="SourceGraphic" in2="effect1_dropShadow" result="shape"/>
        </filter>
        <linearGradient id="paint0_linear" x1="653.633" y1="126.111" x2="705.066" y2="278.682" gradientUnits="userSpaceOnUse">
            <stop stop-color="#99B0FC"/>
            <stop offset="1" stop-color="#79F5CC"/>
        </linearGradient>
        <linearGradient id="paint1_linear" x1="524.246" y1="278.657" x2="765.127" y2="323.29" gradientUnits="userSpaceOnUse">
            <stop stop-color="#718FF1"/>
            <stop offset="1" stop-color="#9BE2CA"/>
        </linearGradient>
        <linearGradient id="paint2_linear" x1="971.491" y1="417.874" x2="676.731" y2="348.589" gradientUnits="userSpaceOnUse">
            <stop stop-color="#3E68E9"/>
            <stop offset="1" stop-color="#57B193"/>
        </linearGradient>
        <linearGradient id="paint3_linear" x1="586.509" y1="447.769" x2="734.709" y2="348.06" gradientUnits="userSpaceOnUse">
            <stop stop-color="#354E9E"/>
            <stop offset="1" stop-color="#354E9E" stop-opacity="0"/>
        </linearGradient>
        <linearGradient id="paint4_linear" x1="880.06" y1="449.15" x2="749.487" y2="348.832" gradientUnits="userSpaceOnUse">
            <stop stop-color="#34AB84"/>
            <stop offset="1" stop-color="#34AB84" stop-opacity="0"/>
        </linearGradient>
        <linearGradient id="paint5_linear" x1="477.055" y1="502.834" x2="501.049" y2="574.01" gradientUnits="userSpaceOnUse">
            <stop stop-color="#829EFB"/>
            <stop offset="1" stop-color="#61EEBF"/>
        </linearGradient>
        <linearGradient id="paint6_linear" x1="453.504" y1="484.211" x2="520.949" y2="492.257" gradientUnits="userSpaceOnUse">
            <stop stop-color="#94ACFB"/>
            <stop offset="1" stop-color="#77F3E6" stop-opacity="0.5"/>
        </linearGradient>
        <linearGradient id="paint7_linear" x1="510.724" y1="380.604" x2="632.514" y2="468.47" gradientUnits="userSpaceOnUse">
            <stop stop-color="#4682FF"/>
            <stop offset="1" stop-color="#73D8DE"/>
        </linearGradient>
        <linearGradient id="paint8_linear" x1="445.741" y1="552.263" x2="514.878" y2="505.748" gradientUnits="userSpaceOnUse">
            <stop stop-color="#003CDA"/>
            <stop offset="1" stop-color="#003CDA" stop-opacity="0"/>
        </linearGradient>
        <linearGradient id="paint9_linear" x1="582.685" y1="552.907" x2="521.772" y2="506.108" gradientUnits="userSpaceOnUse">
            <stop stop-color="#00C0AB"/>
            <stop offset="1" stop-color="#00C0AB" stop-opacity="0"/>
        </linearGradient>
    </defs>
</svg>
