<svg width="195" height="937" viewBox="0 0 195 937" fill="none" 
    xmlns="http://www.w3.org/2000/svg">
    <path d="M42.3571 66.6626L141.07 -32.255C148.574 -39.7744 158.761 -44 169.384 -44H221.287C232.726 -44 242 -34.7263 242 -23.2866V581.28C242 587.374 239.213 593.134 234.434 596.915C226.492 603.199 215.102 602.532 207.949 595.364L28.2412 415.284C12.665 399.675 12.6584 374.405 28.2264 358.788L124.624 262.09C140.192 246.473 140.185 221.203 124.609 205.595L42.3571 123.173C26.7752 107.558 26.7751 82.2768 42.3571 66.6626Z" fill="#D9EBFD"/>
    <g filter="url(#filter0_d)">
        <path d="M174.511 747.462L239.021 777.231L174.511 807L110 777.231L174.511 747.462Z" fill="url(#paint0_linear)"/>
    </g>
    <path d="M174.511 678V807L110 777.23L174.511 678Z" fill="url(#paint1_linear)"/>
    <path d="M174.511 678V807L239.021 777.23L174.511 678Z" fill="url(#paint2_linear)"/>
    <path opacity="0.2" d="M174.511 747.462V807L110 777.231L174.511 747.462Z" fill="url(#paint3_linear)"/>
    <path d="M174.511 747.462V807L239.021 777.231L174.511 747.462Z" fill="url(#paint4_linear)"/>
    <defs>
        <filter id="filter0_d" x="50" y="747.462" width="249.021" height="189.538" filterUnits="userSpaceOnUse" color-interpolation-filters="sRGB">
            <feFlood flood-opacity="0" result="BackgroundImageFix"/>
            <feColorMatrix in="SourceAlpha" type="matrix" values="0 0 0 0 0 0 0 0 0 0 0 0 0 0 0 0 0 0 127 0"/>
            <feOffset dy="70"/>
            <feGaussianBlur stdDeviation="30"/>
            <feColorMatrix type="matrix" values="0 0 0 0 0 0 0 0 0 0 0 0 0 0 0 0 0 0 0.161 0"/>
            <feBlend mode="normal" in2="BackgroundImageFix" result="effect1_dropShadow"/>
            <feBlend mode="normal" in="SourceGraphic" in2="effect1_dropShadow" result="shape"/>
        </filter>
        <linearGradient id="paint0_linear" x1="144.062" y1="756.274" x2="161.807" y2="808.914" gradientUnits="userSpaceOnUse">
            <stop stop-color="#829EFB"/>
            <stop offset="1" stop-color="#61EEBF"/>
        </linearGradient>
        <linearGradient id="paint1_linear" x1="126.644" y1="742.5" x2="176.525" y2="748.45" gradientUnits="userSpaceOnUse">
            <stop stop-color="#94ACFB"/>
            <stop offset="1" stop-color="#77F3E6" stop-opacity="0.5"/>
        </linearGradient>
        <linearGradient id="paint2_linear" x1="168.963" y1="665.874" x2="259.036" y2="730.858" gradientUnits="userSpaceOnUse">
            <stop stop-color="#4682FF"/>
            <stop offset="1" stop-color="#73D8DE"/>
        </linearGradient>
        <linearGradient id="paint3_linear" x1="120.902" y1="792.83" x2="172.035" y2="758.428" gradientUnits="userSpaceOnUse">
            <stop stop-color="#003CDA"/>
            <stop offset="1" stop-color="#003CDA" stop-opacity="0"/>
        </linearGradient>
        <linearGradient id="paint4_linear" x1="222.184" y1="793.306" x2="177.133" y2="758.695" gradientUnits="userSpaceOnUse">
            <stop stop-color="#00C0AB"/>
            <stop offset="1" stop-color="#00C0AB" stop-opacity="0"/>
        </linearGradient>
    </defs>
</svg>