<svg width="50" height="50" viewBox="0 0 50 50" fill="none" xmlns="http://www.w3.org/2000/svg">
<circle cx="25" cy="25" r="25" fill="#26A17B"/>
<path d="M27.7606 27.1135V27.1095C27.5856 27.1215 26.682 27.1737 24.6713 27.1737C23.0635 27.1737 21.9361 27.1296 21.5372 27.1095V27.1135C15.3544 26.845 10.7428 25.7868 10.7428 24.5162C10.7428 23.2496 15.3585 22.1874 21.5372 21.9189V26.0594C21.9401 26.0874 23.1002 26.1556 24.6998 26.1556C26.6209 26.1556 27.5815 26.0754 27.7606 26.0594V21.9229C33.9312 22.1954 38.5306 23.2536 38.5306 24.5202C38.5306 25.7868 33.9271 26.845 27.7606 27.1175V27.1135ZM27.7606 21.494V17.7904H36.3692V12.1428H12.9326V17.7904H21.5412V21.494C14.5444 21.8107 9.28564 23.1734 9.28564 24.8088C9.28564 26.4442 14.5485 27.807 21.5412 28.1276V40H27.7647V28.1276C34.7493 27.811 39.9999 26.4482 39.9999 24.8128C39.9999 23.1815 34.7493 21.8147 27.7647 21.498" fill="white"/>
</svg>
