<svg viewBox="0 0 50 50" fill="none" 
    xmlns="http://www.w3.org/2000/svg">
    <g clip-path="url(#clip0)">
        <path d="M42.595 42.8391C40.2613 45.1658 37.4838 46.9985 34.4278 48.228C31.3719 49.4575 28.1 50.0586 24.8071 49.9955C21.5349 50.0549 18.2849 49.4454 15.2561 48.2044C12.2272 46.9633 9.48311 45.1167 7.19156 42.7775C2.3849 37.9819 -0.012267 32.0912 4.7201e-05 25.1054C4.7201e-05 17.9264 2.41774 11.9453 7.25313 7.16202C9.55393 4.83074 12.3055 2.99372 15.3396 1.76325C18.3737 0.532782 21.6266 -0.0652735 24.8994 0.00564389C28.1916 -0.0458967 31.4605 0.566625 34.5112 1.8067C37.562 3.04678 40.3321 4.88903 42.6565 7.22366C47.5822 12.0192 50.0286 18.0086 49.9958 25.1917C50.0578 28.487 49.4316 31.759 48.1571 34.7979C46.8827 37.8368 44.9882 40.5758 42.595 42.8391Z" fill="black"/>
        <path fill-rule="evenodd" clip-rule="evenodd" d="M17.3807 20.084C17.2087 19.8567 17.0394 19.6332 16.8723 19.4125C16.3858 18.7704 15.9169 18.1514 15.4506 17.5274C15.2994 17.3262 15.1523 17.1218 15.0053 16.9178L15.0053 16.9178L15.0053 16.9178C14.8412 16.6899 14.6774 16.4624 14.5085 16.24C14.4717 16.2082 14.4422 16.1688 14.422 16.1245C14.4017 16.0802 14.3913 16.0321 14.3913 15.9834C14.3913 15.9347 14.4017 15.8866 14.422 15.8423C14.4422 15.7981 14.4717 15.7587 14.5085 15.7269C16.4519 13.5375 19.0294 12.011 21.881 11.3605C23.7699 10.9184 25.7308 10.8825 27.6345 11.2552C29.0655 11.5342 30.4447 12.0334 31.7233 12.735C31.8023 12.7906 31.8772 12.8518 31.9474 12.9183L31.8435 12.9943C31.3055 13.3879 30.7938 13.7622 30.278 14.1324C29.6189 14.6037 28.9588 15.0741 28.2993 15.5442C26.8171 16.6005 25.3373 17.6551 23.8751 18.7141C23.5824 18.9248 23.4177 18.9248 23.1525 18.6545C22.8848 18.3723 22.6052 18.101 22.3252 17.8293L22.3252 17.8293C22.0597 17.5718 21.794 17.314 21.538 17.0464C21.4601 16.9447 21.3452 16.878 21.2184 16.8609C21.0916 16.8437 20.9632 16.8774 20.8611 16.9547C19.648 17.6 18.5923 18.5059 17.7694 19.6075C17.7215 19.667 17.6744 19.7242 17.6237 19.7856C17.5534 19.8708 17.4763 19.9643 17.3807 20.084ZM19.31 33.2138L19.3132 33.2113C19.5726 33.0185 19.8338 32.8243 20.0975 32.6287C20.0218 32.5652 19.9626 32.5145 19.9117 32.4709L19.9117 32.4709L19.9116 32.4708C19.8487 32.4169 19.7984 32.3739 19.7453 32.3308C18.6257 31.511 17.6972 30.4574 17.024 29.2428C16.9739 29.1828 16.9366 29.113 16.9144 29.038C16.8923 28.9629 16.8857 28.8841 16.8951 28.8064C16.9045 28.7286 16.9298 28.6537 16.9693 28.5861C17.0087 28.5186 17.0616 28.4598 17.1247 28.4135C17.4263 28.1301 17.7136 27.8335 18.0006 27.5372C18.275 27.2539 18.5491 26.9709 18.8352 26.7C18.8934 26.6612 18.942 26.6094 18.9771 26.5488C19.0123 26.4882 19.0331 26.4204 19.038 26.3504C19.0428 26.2805 19.0316 26.2104 19.0052 26.1455C18.9787 26.0806 18.9378 26.0227 18.8855 25.9761C17.6876 24.4165 16.4991 22.8498 15.3115 21.2845C14.8351 20.6564 14.3587 20.0286 13.882 19.4014C13.7376 19.218 13.5913 19.0255 13.4412 18.828L13.4412 18.8279L13.4411 18.8278L13.4411 18.8278L13.4411 18.8278C13.2538 18.5813 13.0606 18.327 12.8575 18.0728C12.81 18.1592 12.7679 18.2334 12.7299 18.3003L12.7299 18.3004C12.6692 18.4073 12.619 18.4957 12.574 18.5859C11.6575 20.3601 11.1275 22.3091 11.019 24.3038C10.9227 26.1155 11.1934 27.9281 11.8148 29.6323C12.5894 31.8567 13.9237 33.8435 15.6886 35.4005C15.7559 35.4576 15.836 35.4974 15.922 35.5165C16.008 35.5357 16.0974 35.5336 16.1825 35.5105C17.2248 34.7642 18.2523 34.0002 19.31 33.2138ZM21.2064 34.7149C20.1591 35.4941 19.1096 36.275 18.053 37.0637C18.1153 37.1256 18.1826 37.1823 18.2542 37.2332C20.0923 38.2567 22.1371 38.8518 24.2364 38.9742C25.9556 39.0772 27.6784 38.8438 29.3085 38.287C31.6584 37.5217 33.7658 36.1501 35.4187 34.3101C35.4658 34.2734 35.5044 34.2269 35.5318 34.1738C35.5592 34.1207 35.5747 34.0623 35.5773 34.0026C35.5799 33.9429 35.5695 33.8833 35.5469 33.8281C35.5243 33.7728 35.4899 33.7231 35.4462 33.6824C35.2383 33.4034 35.0342 33.1224 34.8287 32.8396L34.8286 32.8394C34.5821 32.5 34.3335 32.1579 34.0741 31.8131C33.6615 31.2646 33.2454 30.723 32.8139 30.1614L32.8137 30.161L32.8136 30.1609L32.6151 29.9025C32.5756 29.9517 32.5404 29.9943 32.5084 30.0329L32.5084 30.033L32.5084 30.033C32.4481 30.106 32.3993 30.165 32.3545 30.2278C31.5336 31.3685 30.4657 32.3083 29.2307 32.9768C29.1688 33.025 29.0977 33.06 29.0218 33.0797C28.9459 33.0994 28.8667 33.1034 28.7892 33.0913C28.7117 33.0793 28.6375 33.0516 28.5711 33.0099C28.5047 32.9681 28.4474 32.9132 28.4029 32.8485C27.9507 32.3697 27.4734 31.9045 26.992 31.4353L26.9919 31.4352C26.7917 31.2401 26.5907 31.0442 26.3906 30.8464C24.6542 32.1495 22.9338 33.4296 21.2073 34.7142L21.2067 34.7147L21.2064 34.7149ZM30.7415 16.727C30.4633 16.9389 30.1816 17.1535 29.8943 17.3715L30.3334 17.7106C31.4482 18.5401 32.3652 19.6074 33.018 20.8353C33.1001 20.944 33.1365 21.0806 33.1194 21.2159C33.1023 21.3511 33.0331 21.4743 32.9266 21.5592C32.4006 22.0632 31.8609 22.6359 31.4036 23.1307C31.177 23.3758 31.0391 23.4613 31.0199 23.5681C31.0003 23.6769 31.1039 23.8079 31.3624 24.1524C32.9144 26.208 34.4602 28.2606 36 30.3101C36.2159 30.5985 36.4349 30.8821 36.6551 31.1675C36.8129 31.3718 36.9713 31.577 37.1297 31.7854C37.1619 31.7565 37.1904 31.7352 37.2135 31.7179C37.2525 31.6886 37.276 31.671 37.276 31.648C38.3003 29.7747 38.8852 27.6924 38.9865 25.559C39.0555 24.0535 38.8668 22.5473 38.4285 21.1056C37.6895 18.5458 36.2342 16.2516 34.2346 14.4943C34.0471 14.3293 33.919 14.3477 33.7269 14.4943C33.4323 14.7397 33.1112 14.966 32.7829 15.1974C32.6577 15.2856 32.5314 15.3745 32.4052 15.4656C31.8541 15.8796 31.305 16.2978 30.7415 16.727Z" fill="white"/>
    </g>
    <defs>
        <clipPath id="clip0">
            <rect width="50" height="50" fill="white"/>
        </clipPath>
    </defs>
</svg>
