<svg width="215" height="721" viewBox="0 0 215 721" fill="none" 
    xmlns="http://www.w3.org/2000/svg">
    <g clip-path="url(#clip0)">
        <path d="M261.57 714.076L327.568 655.745C344.861 640.461 345.667 613.753 329.327 597.454L243.673 512.015C228.647 497.026 227.943 472.911 242.07 457.071L278.532 416.189C280.305 414.201 282.272 412.395 284.405 410.798L441.924 292.818C462.135 277.68 463.436 247.833 444.618 230.994L312.547 112.811C296.465 98.4209 271.868 99.3808 256.957 114.981L176.763 198.88C162.021 214.304 161.979 238.584 176.669 254.058L183.611 261.371C198.392 276.94 198.246 301.401 183.282 316.794L27.4744 477.053C12.2355 492.728 12.4032 517.733 27.8509 533.202L206.777 712.37C221.719 727.332 245.726 728.08 261.57 714.076Z" fill="#202830"/>
        <path opacity="0.3" d="M137.358 97.058L226.219 8.15367C231.437 2.9331 238.516 0 245.897 0C261.372 0 273.873 12.6271 273.718 28.1012L272.024 196.967C271.886 210.728 262.403 222.63 249.021 225.839L223.554 231.946C218.221 233.225 213.34 235.942 209.443 239.8L189.174 259.868C177.389 271.535 158.375 271.428 146.722 259.63L112.948 225.435C101.358 213.7 101.415 194.808 113.077 183.143L136.218 159.996C144.844 151.368 145.096 137.461 136.789 128.526C128.483 119.591 128.734 105.686 137.358 97.058Z" fill="black"/>
        <path d="M200.894 185.082C227.898 193.672 256.753 178.746 265.343 151.742C273.934 124.738 259.007 95.8836 232.004 87.293C205 78.7024 176.145 93.629 167.555 120.633C158.964 147.636 173.891 176.491 200.894 185.082Z" fill="url(#paint0_radial)"/>
    </g>
    <defs>
        <radialGradient id="paint0_radial" cx="0" cy="0" r="1" gradientUnits="userSpaceOnUse" gradientTransform="translate(235.756 117.203) rotate(17.6474) scale(89.8646)">
            <stop stop-color="#33DFCC"/>
            <stop offset="1" stop-color="#003CDA"/>
        </radialGradient>
        <clipPath id="clip0">
            <rect width="215" height="721" fill="white"/>
        </clipPath>
    </defs>
</svg>