<svg width="1440" height="1755" viewBox="0 0 1440 1755" fill="none" 
    xmlns="http://www.w3.org/2000/svg" 
    xmlns:xlink="http://www.w3.org/1999/xlink">
    <g>
        <path d="M1427.19 1726.19L1600.12 1573.43C1634.72 1542.86 1636.34 1489.42 1603.64 1456.82L1386.1 1239.94C1356.03 1209.96 1354.62 1161.71 1382.9 1130.02L1476.66 1024.94C1480.21 1020.97 1484.15 1017.35 1488.41 1014.16L1868.29 729.781C1908.74 699.506 1911.34 639.787 1873.68 606.109L1545.49 312.581C1513.33 283.819 1464.16 285.738 1434.34 316.919L1230.7 529.866C1201.19 560.717 1201.11 609.3 1230.51 640.252L1263.68 675.176C1293.26 706.319 1292.97 755.263 1263.02 786.051L883.257 1176.47C852.76 1207.82 853.096 1257.85 884.01 1288.79L1317.63 1722.78C1347.52 1752.69 1395.51 1754.18 1427.19 1726.19Z" fill="#202830" />
        <g style="mix-blend-mode:multiply">
            <path d="M1170.12 215.481L1558.04 -172.624C1574.92 -189.512 1597.82 -199 1621.69 -199H1661.09C1711.15 -199 1751.59 -158.153 1751.09 -108.097L1743.35 662.763C1742.94 704.045 1714.49 739.752 1674.35 749.379L1528.64 784.318C1512.64 788.155 1498 796.304 1486.31 807.88L1345.69 947.102C1322.12 970.436 1284.09 970.223 1260.79 946.627L1024.21 707.102C1001.03 683.632 1001.15 645.849 1024.47 622.519L1173.33 473.615C1207.57 439.368 1208.57 384.17 1175.6 348.704L1167.86 340.385C1134.89 304.922 1135.89 249.729 1170.12 215.481Z" fill="#151c24"/>
        </g>
        <path d="M691.275 -163.403L599.374 -85.6062C584.928 -73.3768 566.613 -66.6656 547.685 -66.6656H-140C-184.183 -66.6656 -220 -30.8485 -220 13.3343V589.036C-220 615.56 -206.854 640.359 -184.903 655.246L-82.6798 724.573C-50.4941 746.401 -7.27335 741.921 19.7511 713.956L434.473 284.794C465.15 253.049 515.744 252.154 547.526 282.793L695.808 425.748C727.209 456.02 777.071 455.561 807.908 424.716L1038.82 193.75C1070.04 162.518 1070.05 111.894 1038.84 80.6499L799.562 -158.882C770.141 -188.335 723.049 -190.301 691.275 -163.403Z" fill="#202830" />
        <path d="M1173.25 524.859C1214.63 523.078 1246.73 488.087 1244.95 446.704C1243.17 405.321 1208.18 373.217 1166.8 374.998C1125.41 376.779 1093.31 411.77 1095.09 453.153C1096.87 494.536 1131.86 526.64 1173.25 524.859Z" fill="url(#paint0_radial)"/>
        <g style="mix-blend-mode:multiply">
            <path d="M63 372C75.1503 372 85 362.15 85 350C85 337.85 75.1503 328 63 328C50.8497 328 41 337.85 41 350C41 362.15 50.8497 372 63 372Z" fill="url(#paint1_radial)"/>
        </g>
        <g style="mix-blend-mode:multiply">
            <path d="M854 683C859.523 683 864 678.523 864 673C864 667.477 859.523 663 854 663C848.477 663 844 667.477 844 673C844 678.523 848.477 683 854 683Z" fill="url(#paint2_radial)"/>
        </g>
        <path d="M1070 595C1079.94 595 1088 586.941 1088 577C1088 567.059 1079.94 559 1070 559C1060.06 559 1052 567.059 1052 577C1052 586.941 1060.06 595 1070 595Z" fill="url(#paint3_radial)"/>
        <g style="mix-blend-mode:multiply">
            <path d="M793 319C797.418 319 801 315.418 801 311C801 306.582 797.418 303 793 303C788.582 303 785 306.582 785 311C785 315.418 788.582 319 793 319Z" fill="url(#paint4_radial)"/>
        </g>
        <path d="M944 38C960.569 38 974 24.5685 974 8C974 -8.56854 960.569 -22 944 -22C927.431 -22 914 -8.56854 914 8C914 24.5685 927.431 38 944 38Z" fill="url(#paint5_radial)"/>
        <path d="M1230 480.213C1327.63 511.271 1431.95 457.306 1463.01 359.679C1494.06 262.051 1440.1 157.731 1342.47 126.672C1244.84 95.6142 1140.52 149.579 1109.47 247.207C1078.41 344.835 1132.37 449.155 1230 480.213Z" fill="url(#paint6_radial)"/>
        <path style="mix-blend-mode:multiply" opacity="0.6" d="M1172.13 282.197C1174.75 321.651 1160.02 354.594 1139.48 355.624C1118.93 356.654 1100.11 325.581 1097.68 286.185C1095.26 246.79 1109.8 213.788 1130.34 212.758C1150.94 211.547 1169.77 242.621 1172.13 282.197Z" fill="url(#paint7_radial)"/>
        <path d="M1019.55 361.406C1072.74 378.326 1129.52 349.103 1146.37 296.134C1163.22 243.165 1133.76 186.508 1080.58 169.587C1027.39 152.667 970.613 181.89 953.762 234.86C936.911 287.829 966.367 344.485 1019.55 361.406Z" fill="url(#paint8_radial)"/>
        <path style="mix-blend-mode:multiply" opacity="0.6" d="M1000.19 210.527C984.343 224.425 967.95 230.802 963.518 224.82C959.086 218.839 968.321 202.742 984.166 188.844C1000.01 174.946 1016.4 168.569 1020.84 174.551C1025.27 180.533 1016.03 196.63 1000.19 210.527Z" fill="url(#paint9_radial)"/>
        <path d="M956.829 199.421C975.512 205.365 995.477 195.037 1001.42 176.354C1007.36 157.67 997.037 137.706 978.353 131.762C959.67 125.819 939.705 136.146 933.762 154.83C927.818 173.513 938.146 193.477 956.829 199.421Z" fill="url(#paint10_radial)"/>
        <rect x="1011" y="803.254" width="19" height="4.74982" fill="url(#pattern0)"/>
        <rect x="523" y="-4" width="60" height="8" rx="4" fill="#276BFB"/>
    </g>
    <defs>
        <pattern id="pattern0" patternContentUnits="objectBoundingBox" width="1" height="1">
            <use xlink:href="#image0" transform="translate(0 -1.60534) scale(0.0526316 0.210534)"/>
        </pattern>
        <radialGradient id="paint0_radial" cx="0" cy="0" r="1" gradientUnits="userSpaceOnUse" gradientTransform="translate(1186.98 414.166) rotate(-2.46417) scale(131.358)">
            <stop stop-color="#33DFCC"/>
            <stop offset="1" stop-color="#003CDA"/>
        </radialGradient>
        <radialGradient id="paint1_radial" cx="0" cy="0" r="1" gradientUnits="userSpaceOnUse" gradientTransform="translate(68.421 339.733) scale(38.5317)">
            <stop stop-color="white"/>
            <stop offset="1" stop-color="#33DFCC"/>
        </radialGradient>
        <radialGradient id="paint2_radial" cx="0" cy="0" r="1" gradientUnits="userSpaceOnUse" gradientTransform="translate(856.464 668.333) scale(17.5144)">
            <stop stop-color="white"/>
            <stop offset="1" stop-color="#33DFCC"/>
        </radialGradient>
        <radialGradient id="paint3_radial" cx="0" cy="0" r="1" gradientUnits="userSpaceOnUse" gradientTransform="translate(1074.44 568.6) scale(31.5259)">
            <stop stop-color="white"/>
            <stop offset="1" stop-color="#33DFCC"/>
        </radialGradient>
        <radialGradient id="paint4_radial" cx="0" cy="0" r="1" gradientUnits="userSpaceOnUse" gradientTransform="translate(794.971 307.267) scale(14.0115)">
            <stop stop-color="white"/>
            <stop offset="1" stop-color="#33DFCC"/>
        </radialGradient>
        <radialGradient id="paint5_radial" cx="0" cy="0" r="1" gradientUnits="userSpaceOnUse" gradientTransform="translate(951.392 -6.00004) scale(52.5432)">
            <stop stop-color="#33DFCC"/>
            <stop offset="1" stop-color="#003CDA"/>
        </radialGradient>
        <radialGradient id="paint6_radial" cx="0" cy="0" r="1" gradientUnits="userSpaceOnUse" gradientTransform="translate(1356.04 234.807) rotate(17.6474) scale(324.892)">
            <stop stop-color="#33DFCC"/>
            <stop offset="1" stop-color="#003CDA"/>
        </radialGradient>
        <radialGradient id="paint7_radial" cx="0" cy="0" r="1" gradientUnits="userSpaceOnUse" gradientTransform="translate(1099.85 284.356) rotate(17.6474) scale(74.2301 73.1022)">
            <stop offset="0.000888724" stop-color="#001E6B" stop-opacity="0.5"/>
            <stop offset="0.9982" stop-color="#2246A2" stop-opacity="0"/>
        </radialGradient>
        <radialGradient id="paint8_radial" cx="0" cy="0" r="1" gradientUnits="userSpaceOnUse" gradientTransform="translate(1088.03 228.288) rotate(17.6474) scale(177 176.274)">
            <stop stop-color="#33DFCC"/>
            <stop offset="1" stop-color="#003CDA"/>
        </radialGradient>
        <radialGradient id="paint9_radial" cx="0" cy="0" r="1" gradientUnits="userSpaceOnUse" gradientTransform="translate(985.325 188.98) rotate(81.604) scale(29.6254 35.0946)">
            <stop offset="0.000888724" stop-color="#001271" stop-opacity="0.5"/>
            <stop offset="0.9982" stop-color="#001689" stop-opacity="0"/>
        </radialGradient>
        <radialGradient id="paint10_radial" cx="0" cy="0" r="1" gradientUnits="userSpaceOnUse" gradientTransform="translate(980.949 152.457) rotate(17.6474) scale(62.1761)">
            <stop stop-color="#33DFCC"/>
            <stop offset="1" stop-color="#003CDA"/>
        </radialGradient>
    </defs>
</svg>
