<svg width="215" height="634" viewBox="0 0 215 634" fill="none" 
    xmlns="http://www.w3.org/2000/svg">
    <path d="M261.57 627.076L327.568 568.745C344.861 553.461 345.667 526.753 329.327 510.454L243.673 425.015C228.647 410.026 227.943 385.911 242.07 370.071L278.532 329.189C280.305 327.201 282.272 325.395 284.405 323.798L441.924 205.818C462.135 190.68 463.436 160.833 444.618 143.994L312.547 25.8111C296.465 11.4209 271.868 12.3808 256.957 27.9806L176.763 111.88C162.021 127.304 161.979 151.584 176.669 167.058L183.611 174.371C198.392 189.94 198.246 214.401 183.282 229.794L27.4744 390.053C12.2355 405.728 12.4032 430.733 27.8509 446.202L206.777 625.37C221.719 640.332 245.726 641.08 261.57 627.076Z" fill="white"/>
</svg>