<svg width="1096" height="763" viewBox="0 0 1096 763" fill="none" 
    xmlns="http://www.w3.org/2000/svg">
    <g clip-path="url(#clip0)">
        <path d="M691.275 -163.403L599.374 -85.6062C584.928 -73.3768 566.613 -66.6656 547.685 -66.6656H-140C-184.183 -66.6656 -220 -30.8485 -220 13.3343V589.036C-220 615.56 -206.854 640.359 -184.903 655.246L-82.6798 724.573C-50.4941 746.401 -7.27335 741.921 19.7511 713.956L434.473 284.794C465.15 253.049 515.744 252.154 547.526 282.793L695.808 425.748C727.209 456.02 777.071 455.561 807.908 424.716L1038.82 193.75C1070.04 162.518 1070.05 111.894 1038.84 80.6499L799.562 -158.882C770.141 -188.335 723.049 -190.301 691.275 -163.403Z" fill="#202830"/>
        <path d="M63 372C75.1503 372 85 362.15 85 350C85 337.85 75.1503 328 63 328C50.8497 328 41 337.85 41 350C41 362.15 50.8497 372 63 372Z" fill="url(#paint0_radial)" style="mix-blend-mode:multiply"/>
        <path d="M793 319C797.418 319 801 315.418 801 311C801 306.582 797.418 303 793 303C788.582 303 785 306.582 785 311C785 315.418 788.582 319 793 319Z" fill="url(#paint1_radial)" style="mix-blend-mode:multiply"/>
    </g>
    <defs>
        <radialGradient id="paint0_radial" cx="0" cy="0" r="1" gradientUnits="userSpaceOnUse" gradientTransform="translate(68.421 339.733) scale(38.5317)">
            <stop stop-color="white"/>
            <stop offset="1" stop-color="#33DFCC"/>
        </radialGradient>
        <radialGradient id="paint1_radial" cx="0" cy="0" r="1" gradientUnits="userSpaceOnUse" gradientTransform="translate(794.971 307.267) scale(14.0115)">
            <stop stop-color="white"/>
            <stop offset="1" stop-color="#33DFCC"/>
        </radialGradient>
        <clipPath id="clip0">
            <rect width="1096" height="763" fill="white"/>
        </clipPath>
    </defs>
</svg>