<svg width="326" height="236" viewBox="0 0 326 236" fill="none" 
    xmlns="http://www.w3.org/2000/svg">
    <g clip-path="url(#clip0)">
        <path d="M198.861 -43.126L176.37 -24.0696C170.951 -19.4782 164.079 -16.9583 156.976 -16.9583H-45C-61.5685 -16.9583 -75 -3.52684 -75 13.0417V180.166C-75 190.108 -70.0747 199.404 -61.8489 204.987L-37.0535 221.818C-24.9792 230.014 -8.7586 228.333 1.37769 217.834L120.622 94.3279C132.128 82.4108 151.115 82.0747 163.036 93.5771L200.221 129.458C211.998 140.823 230.711 140.65 242.277 129.071L304.832 66.4444C316.528 54.7348 316.532 35.7653 304.841 24.051L239.488 -41.4297C228.453 -52.4866 210.779 -53.2246 198.861 -43.126Z" fill="#202830"/>
    </g>
    <defs>
        <clipPath id="clip0">
            <rect width="326" height="236" fill="white"/>
        </clipPath>
    </defs>
</svg>