<svg width="514" height="1335" viewBox="0 0 514 1335" fill="none" 
    xmlns="http://www.w3.org/2000/svg">
    <path d="M598.926 1285.19L771.853 1132.43C806.46 1101.86 808.072 1048.42 775.372 1015.82L557.837 798.942C527.765 768.96 526.357 720.707 554.63 689.024L648.399 583.941C651.946 579.966 655.882 576.355 660.147 573.162L1040.03 288.781C1080.47 258.506 1083.07 198.787 1045.42 165.109L717.227 -128.419C685.069 -157.181 635.897 -155.262 606.078 -124.081L402.431 88.8657C372.927 119.717 372.844 168.3 402.243 199.252L435.415 234.176C464.995 265.319 464.703 314.263 434.755 345.051L54.9919 735.466C24.4949 766.818 24.8304 816.851 55.7449 847.792L489.369 1281.78C519.25 1311.69 567.242 1313.18 598.926 1285.19Z" fill="white"/>
    <path d="M598.926 1285.19L771.853 1132.43C806.46 1101.86 808.072 1048.42 775.372 1015.82L557.837 798.942C527.765 768.96 526.357 720.707 554.63 689.024L648.399 583.941C651.946 579.966 655.882 576.355 660.147 573.162L1040.03 288.781C1080.47 258.506 1083.07 198.787 1045.42 165.109L717.227 -128.419C685.069 -157.181 635.897 -155.262 606.078 -124.081L402.431 88.8657C372.927 119.717 372.844 168.3 402.243 199.252L435.415 234.176C464.995 265.319 464.703 314.263 434.755 345.051L54.9919 735.466C24.4949 766.818 24.8304 816.851 55.7449 847.792L489.369 1281.78C519.25 1311.69 567.242 1313.18 598.926 1285.19Z" fill="white"/>
    <path d="M407 395C416.941 395 425 386.941 425 377C425 367.059 416.941 359 407 359C397.059 359 389 367.059 389 377C389 386.941 397.059 395 407 395Z" fill="url(#paint0_radial)"/>
    <defs>
        <radialGradient id="paint0_radial" cx="0" cy="0" r="1" gradientUnits="userSpaceOnUse" gradientTransform="translate(411.435 368.6) scale(31.5259)">
            <stop stop-color="white"/>
            <stop offset="1" stop-color="#33DFCC"/>
        </radialGradient>
    </defs>
</svg>