<svg width="334" height="302" viewBox="0 0 334 302" fill="none" 
    xmlns="http://www.w3.org/2000/svg">
    <path d="M-198.465 67.8012L-49.0087 -90.1161C-46.0962 -93.1935 -43.8686 -96.8529 -42.4726 -100.853L23.8392 -290.884C28.0428 -302.93 39.4056 -311 52.1642 -311L270.225 -311C280.177 -311 289.481 -306.065 295.062 -297.826L319.864 -261.217C328.037 -249.153 326.359 -232.96 315.886 -222.829L159.874 -71.9086C147.987 -60.4091 147.649 -41.4581 159.119 -29.542L209.042 22.3247C220.374 34.098 220.199 52.7754 208.649 64.3345L142.205 130.827C130.49 142.551 111.488 142.553 99.7696 130.833L68.6885 99.748C56.9306 87.9885 37.8509 88.0366 26.1525 99.8553L-75.7517 202.807C-88.1063 215.288 -108.493 214.535 -119.893 201.176L-199.496 107.897C-209.45 96.2324 -209.006 78.9387 -198.465 67.8012Z" fill="#202830"/>
    <g style="mix-blend-mode:multiply">
        <path d="M36 302C41.5228 302 46 297.523 46 292C46 286.477 41.5228 282 36 282C30.4772 282 26 286.477 26 292C26 297.523 30.4772 302 36 302Z" fill="url(#paint0_radial)"/>
    </g>
    <path d="M189.006 144.229C196.638 143.901 202.557 137.448 202.229 129.817C201.901 122.186 195.448 116.266 187.817 116.595C180.186 116.923 174.266 123.376 174.595 131.007C174.923 138.638 181.375 144.558 189.006 144.229Z" fill="url(#paint1_radial)"/>
    <defs>
        <radialGradient id="paint0_radial" cx="0" cy="0" r="1" gradientUnits="userSpaceOnUse" gradientTransform="translate(38.4641 287.333) scale(17.5144)">
            <stop stop-color="white"/>
            <stop offset="1" stop-color="#33DFCC"/>
        </radialGradient>
        <radialGradient id="paint1_radial" cx="0" cy="0" r="1" gradientUnits="userSpaceOnUse" gradientTransform="translate(191.539 123.817) rotate(-2.46417) scale(24.2224)">
            <stop stop-color="#DAD6FF"/>
            <stop offset="1" stop-color="#6F68AE"/>
        </radialGradient>
    </defs>
</svg>