<svg width="562" height="613" viewBox="0 0 562 613" fill="none" 
    xmlns="http://www.w3.org/2000/svg">
    <mask id="bg-light-left-bottom" mask-type="alpha" maskUnits="userSpaceOnUse" x="0" y="0" width="562" height="613">
        <rect width="562" height="613" fill="#C4C4C4"/>
    </mask>
    <g mask="url(#bg-light-left-bottom)">
        <path d="M279.873 95.18L239.26 134.11C207.557 164.5 157.284 163.65 126.625 132.21L-19.8103 -17.96C-61.2784 -60.486 -132.993 -44.586 -152.602 11.482L-360.67 606.41C-372.654 640.68 -360.065 678.72 -330.006 699.07L-293.692 723.65C-261.404 745.51 -218.061 740.91 -191.082 712.76L-1.44342 514.88C29.1731 482.93 79.9085 481.91 111.79 512.59L192.188 589.97C223.58 620.18 273.377 619.72 304.202 588.93L537.853 355.52C569.131 324.28 569.136 273.59 537.866 242.34L391.782 96.35C361.004 65.59 311.285 65.07 279.873 95.18Z" fill="white"/>
    </g>
</svg>
