<?xml version="1.0" standalone="no"?>
<!DOCTYPE svg PUBLIC "-//W3C//DTD SVG 20010904//EN"
 "http://www.w3.org/TR/2001/REC-SVG-20010904/DTD/svg10.dtd">
<svg version="1.0" 
    xmlns="http://www.w3.org/2000/svg" width="700.000000pt" height="700.000000pt" viewBox="0 0 700.000000 700.000000" preserveAspectRatio="xMidYMid meet">
    <metadata>
Created by potrace 1.11, written by Peter Selinger 2001-2013
    </metadata>
    <g transform="translate(0.000000,700.000000) scale(0.100000,-0.100000)" fill="#000000" stroke="none">
        <path d="M897 6984 c-417 -75 -751 -386 -865 -802 l-26 -97 -4 -582 -3 -583
2018 0 c1362 0 2047 -4 2108 -11 118 -14 288 -72 394 -134 96 -57 230 -179
303 -275 102 -133 176 -321 198 -500 13 -112 13 -1109 0 -1220 -30 -245 -130
-444 -309 -620 -147 -144 -313 -234 -511 -277 -77 -16 -142 -18 -700 -18 -657
0 -653 0 -815 52 -378 122 -655 461 -705 863 -5 46 -10 252 -10 457 l0 373
380 0 380 0 0 -374 c0 -438 2 -448 85 -532 86 -86 68 -84 686 -84 519 0 540 1
593 21 71 26 139 99 161 172 23 77 22 1079 -1 1156 -18 61 -77 131 -139 164
l-40 22 -2038 3 -2037 2 2 -1627 3 -1628 28 -95 c107 -364 353 -627 705 -754
165 -59 16 -56 2767 -56 2759 0 2591 -3 2758 57 170 61 293 138 418 263 124
123 209 260 266 425 56 164 53 26 53 2755 0 2729 3 2591 -53 2755 -119 348
-394 607 -757 712 l-95 28 -1682 3 -1683 2 0 -765 0 -765 -380 0 -380 0 0 765
0 765 -497 -1 c-383 -1 -516 -4 -576 -15z"/>
    </g>
</svg>
