<svg xmlns="http://www.w3.org/2000/svg" width="32" height="32">
    <defs>
        <style>
            .cls-1{fill:#3852a3}.cls-2{fill:#3754a4}.cls-3{fill:#3653a4}.cls-4{fill:#00b1ae}.cls-5{fill:#28b9a7}.cls-6{fill:#58be92}.cls-7{fill:#48bc9c}.cls-8{fill:#47bc9e}.cls-9{fill:#3658a7}.cls-10{fill:#00b4af}.cls-11{fill:#009fb7}.cls-12{fill:#42bb9f}.cls-13{fill:#1db9ab}.cls-14{fill:#00aeb0}.cls-15{fill:#04b5ad}.cls-16{fill:#13b9ab}.cls-17{fill:#117bbf}.cls-18{fill:#00a6b6}.cls-19{fill:#345aa8}.cls-20{fill:#345ca9}.cls-21{fill:#2d65af}.cls-22{fill:#0688bf}.cls-23{fill:#019fb5}.cls-24{fill:#0494ba}.cls-25{fill:#00a4b7}.cls-26{fill:#009cb7}.cls-27{fill:#0095ba}.cls-28{fill:#2471b8}.cls-29{fill:#3856a5}.cls-30{fill:#008bbc}.cls-31{fill:#028cbc}.cls-32{fill:#047cc0}.cls-33{fill:#3162ad}.cls-34{fill:#2c69b2}.cls-35{fill:#3655a5}.cls-36{fill:#1479be}.cls-37{fill:#2572b8}.cls-38{fill:#355ba8}.cls-39{fill:#2e66b0}.cls-40{fill:#3065af}.cls-41{fill:#3060ab}.cls-42{fill:#345eaa}.cls-43{fill:#335daa}.cls-44{fill:#3758a6}.cls-45{fill:#fff}
        </style>
    </defs>
    <g id="favicon_32" transform="translate(-135.65 -163.346)">
        <path id="Path_393" d="M221.725 226.379v-.869l-.641.792z" class="cls-1" data-name="Path 393" transform="translate(-54.074 -39.347)"/>
        <path id="Path_394" d="M218.785 222.7l.641-.792v-2.091l-1.974 1.773z" class="cls-2" data-name="Path 394" transform="translate(-51.775 -35.74)"/>
        <path id="Path_395" d="M219.426 208.975v-6.285l-1.974 8.058z" class="cls-3" data-name="Path 395" transform="translate(-51.775 -24.902)"/>
        <path id="Path_396" d="M154.32 166.348l-.993-3h-1.637l-.37 5.057z" class="cls-4" data-name="Path 396" transform="translate(-9.918)"/>
        <path id="Path_397" d="M144.174 163.347h-.636a5.472 5.472 0 0 0-4.094 1.847l4.359 3.21z" class="cls-5" data-name="Path 397" transform="translate(-2.401 -.001)"/>
        <path id="Path_398" d="M135.651 210.766v.333l.2-.239z" class="cls-6" data-name="Path 398" transform="translate(0 -30.014)"/>
        <path id="Path_399" d="M221.244 232.808a5.426 5.426 0 0 0 .481-2.235v-2.827l-.641-.077z" class="cls-2" data-name="Path 399" transform="translate(-54.074 -40.713)"/>
        <path id="Path_400" d="M137.052 168.378a5.48 5.48 0 0 0-1.3 2.628 5.2 5.2 0 0 0-.081.946l-.01 4.153 5.746-4.517z" class="cls-7" data-name="Path 400" transform="translate(-.009 -3.185)"/>
        <path id="Path_401" d="M141.4 177.123l-5.746 4.517-.005 1.94v5.891l.2.094z" class="cls-8" data-name="Path 401" transform="translate(0 -8.72)"/>
        <path id="Path_402" d="M211.7 184.476l4.085 1.972v-.508l-3.03-3.52z" class="cls-9" data-name="Path 402" transform="translate(-48.136 -12.073)"/>
        <path id="Path_403" d="M142.783 191.73a10.233 10.233 0 0 1 2.13-2.994l-.061-.414-8.665 8.332 6.055 2.645a10.023 10.023 0 0 1 .541-7.569" class="cls-10" data-name="Path 403" transform="translate(-.339 -15.808)"/>
        <path id="Path_404" d="M162.023 209.08a6.791 6.791 0 0 0 .58 1.234l-.739-5.064a6.15 6.15 0 0 0 .159 3.83" class="cls-10" data-name="Path 404" transform="translate(-16.444 -26.523)"/>
        <path id="Path_405" d="M159.63 231.793a10.487 10.487 0 0 1-2.831-1.948l-1.7 2.034 6.2 5.557h1.516l-2.165-5.22a10.984 10.984 0 0 1-1.022-.424" class="cls-11" data-name="Path 405" transform="translate(-12.313 -42.09)"/>
        <path id="Path_406" d="M135.848 211.022l-.2.239v2.924l.022 5.863a5.469 5.469 0 0 0 .563 2.444 5.531 5.531 0 0 0 1.24 1.617l5.315-4.143z" class="cls-12" data-name="Path 406" transform="translate(0 -30.176)"/>
        <path id="Path_407" d="M140.624 239.529a5.455 5.455 0 0 0 3.661 1.414h1.265l.389-5.557z" class="cls-13" data-name="Path 407" transform="translate(-3.148 -45.597)"/>
        <path id="Path_408" d="M154.32 171.524l-3 2.055 3.111 4.111z" class="cls-14" data-name="Path 408" transform="translate(-9.918 -5.176)"/>
        <path id="Path_409" d="M142.352 214.005c-.04-.113-.075-.226-.111-.338l-6.055-2.645 6.943 8.943 1.7-2.034a10.054 10.054 0 0 1-2.473-3.926" class="cls-15" data-name="Path 409" transform="translate(-.339 -30.176)"/>
        <path id="Path_410" d="M141.742 177.123l-5.555 12.442 8.665-8.332z" class="cls-16" data-name="Path 410" transform="translate(-.339 -8.72)"/>
        <path id="Path_411" d="M183.95 225.55l-.255.714 1 2.8-.406.169c-.192.08-.388.156-.588.227a11.323 11.323 0 0 1-1.279.371l-1.747 4.882h2.472l3.753-2.5z" class="cls-17" data-name="Path 411" transform="translate(-28.494 -39.372)"/>
        <path id="Path_412" d="M154.042 240.943h6.586l-6.2-5.557z" class="cls-18" data-name="Path 412" transform="translate(-11.64 -45.598)"/>
        <path id="Path_413" d="M206.724 203.474l1.974-8.058v-3.149l-8.2-1.069z" class="cls-19" data-name="Path 413" transform="translate(-41.048 -17.629)"/>
        <path id="Path_414" d="M200.5 189.186l8.2 1.069v-.264l-4.085-1.972z" class="cls-20" data-name="Path 414" transform="translate(-41.048 -15.617)"/>
        <path id="Path_415" d="M197.628 243.709l1.251 2.5h2.027z" class="cls-21" data-name="Path 415" transform="translate(-39.228 -50.866)"/>
        <path id="Path_416" d="M179.039 169.419l1.48-.526.329-2.156-1.219-3.391h-.574l-.039 3.724z" class="cls-22" data-name="Path 416" transform="translate(-27.447)"/>
        <path id="Path_417" d="M179.976 190.122l-.786.279.047 4.56z" class="cls-22" data-name="Path 417" transform="translate(-27.558 -16.948)"/>
        <path id="Path_418" d="M166.658 172.247l-7.166-.722.111 6.166z" class="cls-23" data-name="Path 418" transform="translate(-15.09 -5.177)"/>
        <path id="Path_419" d="M166.658 167.071l.039-3.724h-2.446l-4.759 3z" class="cls-24" data-name="Path 419" transform="translate(-15.09)"/>
        <path id="Path_420" d="M162.539 163.347h-5.751l.993 3z" class="cls-25" data-name="Path 420" transform="translate(-13.379)"/>
        <path id="Path_421" d="M162.706 197.825a7.259 7.259 0 0 0-.44 1.165l.739 5.064a6 6 0 0 0 .731.977l3.235-4.563a1.523 1.523 0 0 1 1.011-1.519l.088-.031.455-.641-3.8-2.916a6.281 6.281 0 0 0-2.019 2.465" class="cls-26" data-name="Path 421" transform="translate(-16.846 -20.263)"/>
        <path id="Path_422" d="M159.856 188.736c.07-.069.142-.137.214-.2l-.275-.211z" class="cls-26" data-name="Path 422" transform="translate(-15.282 -15.808)"/>
        <path id="Path_423" d="M160.07 179.147a10.324 10.324 0 0 1 3.529-2.078c.195-.069.388-.131.582-.189l.422-.125 1.271 3.582-.48.133c-.19.053-.38.113-.565.181a6.887 6.887 0 0 0-1.668.869l3.8 2.916-.047-4.56-.059.021-1.276-3.6 1.294-.46-.023-2.349-7.055 5.443z" class="cls-27" data-name="Path 423" transform="translate(-15.282 -6.422)"/>
        <path id="Path_424" d="M186.277 173.818l-2.27-1.234 1.375 1.551z" class="cls-28" data-name="Path 424" transform="translate(-30.607 -5.847)"/>
        <path id="Path_425" d="M196.889 183.558l-1.7.6 1.951 2.2z" class="cls-28" data-name="Path 425" transform="translate(-37.684 -12.793)"/>
        <path id="Path_426" d="M214.577 178.029l3.03-.964v-.552a5.454 5.454 0 0 0-.1-1.031l-2.589.919z" class="cls-29" data-name="Path 426" transform="translate(-49.956 -7.682)"/>
        <path id="Path_427" d="M171.792 211.352a1.524 1.524 0 0 1-1.944-.925l-.258-.726a1.528 1.528 0 0 1-.085-.425l-3.236 4.563a6.134 6.134 0 0 0 .9.8l7.667.612-1.978-4.275z" class="cls-30" data-name="Path 427" transform="translate(-19.379 -29.07)"/>
        <path id="Path_428" d="M178.723 203.716l-.191-.412-.455.641z" class="cls-30" data-name="Path 428" transform="translate(-26.854 -25.291)"/>
        <path id="Path_429" d="M169.887 224.575a6.324 6.324 0 0 0 4.975.3c.183-.062.367-.134.546-.212l.456-.2.266.75.255-.714-7.667-.612a7.275 7.275 0 0 0 1.168.691" class="cls-31" data-name="Path 429" transform="translate(-20.93 -38.317)"/>
        <path id="Path_430" d="M170.876 236.521c-.22-.063-.439-.136-.658-.215l2.165 5.219h1.672l1.747-4.882a9.774 9.774 0 0 1-4.926-.123" class="cls-31" data-name="Path 430" transform="translate(-21.879 -46.18)"/>
        <path id="Path_431" d="M187.093 187.4l-1.95-2.2-5.087 1.806-.739 4.839z" class="cls-32" data-name="Path 431" transform="translate(-27.638 -13.833)"/>
        <path id="Path_432" d="M183.441 172.584l-.329 2.156 1.7-.6z" class="cls-32" data-name="Path 432" transform="translate(-30.04 -5.847)"/>
        <path id="Path_433" d="M200.905 237.014l2.5-7.832-5.777 5.333z" class="cls-33" data-name="Path 433" transform="translate(-39.228 -41.67)"/>
        <path id="Path_434" d="M189.607 224.975l8.721 1.333 1.5-1.666z" class="cls-33" data-name="Path 434" transform="translate(-34.151 -38.797)"/>
        <path id="Path_435" d="M192.551 232.215l5.777-5.333-8.721-1.333z" class="cls-34" data-name="Path 435" transform="translate(-34.151 -39.371)"/>
        <path id="Path_436" d="M217.607 184.278v-4.484l-3.03.964z" class="cls-35" data-name="Path 436" transform="translate(-49.956 -10.411)"/>
        <path id="Path_437" d="M179.317 195.642l.191.412 3-1.064a1.522 1.522 0 0 1 1.944.925l.258.726a1.523 1.523 0 0 1-.926 1.944l-2.666.946 1.978 4.276 4-12.609z" class="cls-36" data-name="Path 437" transform="translate(-27.638 -17.629)"/>
        <path id="Path_438" d="M187.4 246.211h5l-1.251-2.5z" class="cls-37" data-name="Path 438" transform="translate(-32.757 -50.866)"/>
        <path id="Path_439" d="M209.056 229.182l-2.5 7.832H207.044a5.48 5.48 0 0 0 4.2-1.97z" class="cls-38" data-name="Path 439" transform="translate(-44.879 -41.67)"/>
        <path id="Path_440" d="M193.606 191.2l-4 12.609 10.221-.333z" class="cls-39" data-name="Path 440" transform="translate(-34.151 -17.629)"/>
        <path id="Path_441" d="M204.181 184.622l-3.426-1.97-.936.332.251 2.8z" class="cls-40" data-name="Path 441" transform="translate(-40.615 -12.22)"/>
        <path id="Path_442" d="M206.849 181.891l-3.377-.307-1.1.392 3.426 1.97z" class="cls-41" data-name="Path 442" transform="translate(-42.228 -11.544)"/>
        <path id="Path_443" d="M209.1 177.987l-3.718 1.32 3.377.307z" class="cls-42" data-name="Path 443" transform="translate(-44.133 -9.267)"/>
        <path id="Path_444" d="M213.793 165.609a5.536 5.536 0 0 0-.744-.483l-1.093 1.135z" class="cls-42" data-name="Path 444" transform="translate(-48.297 -1.127)"/>
        <path id="Path_445" d="M206.557 250.522h.025-.025z" class="cls-43" data-name="Path 445" transform="translate(-44.879 -55.176)"/>
        <path id="Path_446" d="M214.866 224.642l-1.5 1.666 2.833-.556z" class="cls-9" data-name="Path 446" transform="translate(-49.189 -38.797)"/>
        <path id="Path_447" d="M186.277 168.141l7.989-2.837 1.092-1.135a5.428 5.428 0 0 0-1.56-.555l-9.792 3.292z" class="cls-34" data-name="Path 447" transform="translate(-30.607 -.17)"/>
        <path id="Path_448" d="M191.7 163.445a5.453 5.453 0 0 0-1.027-.1h-9.984l1.219 3.391z" class="cls-28" data-name="Path 448" transform="translate(-28.505)"/>
        <path id="Path_449" d="M213.366 228.224l2.19 5.865a5.509 5.509 0 0 0 .8-1.281l-.16-5.139z" class="cls-44" data-name="Path 449" transform="translate(-49.189 -40.713)"/>
        <path id="Path_450" d="M176.091 202.7a1.523 1.523 0 0 0-1.011 1.519 1.546 1.546 0 0 0 .086.425l.258.726a1.524 1.524 0 0 0 1.944.925l1.066-.378 2.666-.947a1.522 1.522 0 0 0 .925-1.944l-.258-.726a1.523 1.523 0 0 0-1.944-.925l-3 1.065-.645.229z" class="cls-45" data-name="Path 450" transform="translate(-24.955 -24.014)"/>
        <path id="Path_451" d="M164.4 198.389a7.414 7.414 0 0 1-.546.212 6.324 6.324 0 0 1-4.975-.3 7.274 7.274 0 0 1-1.168-.691 6.153 6.153 0 0 1-.9-.8 5.974 5.974 0 0 1-.731-.977 6.808 6.808 0 0 1-.58-1.234 6.149 6.149 0 0 1-.159-3.829 7.263 7.263 0 0 1 .44-1.165 6.28 6.28 0 0 1 2.019-2.465 6.873 6.873 0 0 1 1.668-.869 7.57 7.57 0 0 1 .565-.181l.481-.133-1.272-3.582-.422.125q-.291.086-.582.189a10.323 10.323 0 0 0-3.529 2.078c-.073.066-.144.134-.214.2a10.234 10.234 0 0 0-2.13 2.994 10.021 10.021 0 0 0-.541 7.569c.036.113.071.226.111.338a10.055 10.055 0 0 0 2.465 3.932 10.486 10.486 0 0 0 2.831 1.948 11.146 11.146 0 0 0 1.68.638 9.779 9.779 0 0 0 4.926.123 11.307 11.307 0 0 0 1.279-.371c.2-.071.4-.147.588-.227l.406-.169-1-2.8-.266-.75z" class="cls-45" data-name="Path 451" transform="translate(-9.918 -12.048)"/>
        <path id="Path_452" d="M180.925 169.93l-.895.318-1.7.605-1.48.525-1.295.46 1.277 3.6.059-.021.785-.279 5.087-1.806 1.7-.6.936-.332 1.1-.392 3.718-1.32 2.589-.919a5.507 5.507 0 0 0-2.056-3.319l-1.836.652z" class="cls-45" data-name="Path 452" transform="translate(-25.255 -1.959)"/>
    </g>
</svg>
