<svg id="Layer_1" xmlns="http://www.w3.org/2000/svg" viewBox="0 0 1000 1000">
  <defs>
    <style>
      .cls-1{fill:#00b4af;}.cls-2{fill:#009fb7;}.cls-3{fill:#04b5ad;}.cls-4{fill:#117bbf;}.cls-5{fill:#0688bf;}.cls-6{fill:#009cb7;}.cls-7{fill:#0095ba;}.cls-8{fill:#2471b8;}.cls-9{fill:#008bbc;}.cls-10{fill:#028cbc;}.cls-11{fill:#047cc0;}.cls-12{fill:#3162ad;}.cls-13{fill:#2c69b2;}.cls-14{fill:#1479be;}.cls-15{fill:#2e66b0;}
    </style>
  </defs>
  <path class="cls-1" d="M237.57,223.74c-52.48,41.26-92.94,94.71-120.81,159.9C89.85,446.57,78.67,510.07,83,573.49L196.64,660Z"/>
  <path class="cls-2" d="M119.51,717.09c25.86,58,62.2,106.59,108.7,145.29L196.64,660Z"/>
  <path class="cls-3" d="M83,573.49q4.31,63.43,29.31,126.59c2.3,5.77,4.74,11.42,7.23,17L196.64,660Z"/>
  <path class="cls-4" d="M519.15,807.26,423,953.39a388,388,0,0,0,150.42-1.54L546.73,803.16A250.78,250.78,0,0,1,519.15,807.26Z"/>
  <polygon class="cls-5" points="551.62 77.21 509.53 258.36 544.27 244.43 625.12 47.73 551.62 77.21"/>
  <path class="cls-6" d="M243.92,618.85c-17.46-58.23-13.52-115.78,11.88-175.19,26.14-61.15,68-104.69,127.6-132.74L286.62,190.7a404.35,404.35,0,0,0-49.05,33L196.64,660Z"/>
  <path class="cls-7" d="M397.64,304.6c7.29-3,14.78-5.72,22.29-8.12l19-6.07-56.54-141-16.65,5.68c-7.63,2.61-15.28,5.41-22.92,8.48a449.3,449.3,0,0,0-56.18,27.1L383.4,310.92C388.05,308.73,392.77,306.61,397.64,304.6Z"/>
  <polygon class="cls-7" points="420.62 129.74 477.37 271.25 509.53 258.36 551.62 77.21 420.62 129.74"/>
  <polygon class="cls-8" points="664.38 31.99 662.81 32.62 734.52 168.13 801.76 141.17 687.54 37.62 664.38 31.99"/>
  <path class="cls-9" d="M468.26,480.05a60.83,60.83,0,0,0-33.82,79.1l11.46,28.59a60.84,60.84,0,0,0,66.23,37.38L482.39,474.38Z"/>
  <path class="cls-9" d="M273.57,685.28a275.33,275.33,0,0,1-21-41.73q-5-12.37-8.68-24.7L196.64,660Z"/>
  <path class="cls-10" d="M393.43,785.89c-52.75-22.55-92.25-55.71-119.86-100.61L196.64,660l31.57,202.43q46.07,38.36,105.29,63.7a433,433,0,0,0,68.07,22.79c7.13,1.73,14.26,3.19,21.4,4.52l96.18-146.13C477.27,811,435.68,804,393.43,785.89Z"/>
  <polygon class="cls-11" points="625.12 47.73 544.27 244.43 734.52 168.13 662.81 32.62 625.12 47.73"/>
  <path class="cls-12" d="M601.51,786c-3,1.27-6,2.52-9,3.68-2.07.8-4.13,1.49-6.2,2.24l64.29,26.44L641,794.24Z"/>
  <path class="cls-13" d="M546.73,803.16l26.66,148.69A440.33,440.33,0,0,0,648.93,929c7.89-3.15,15.59-6.51,23.13-10l16-7.41-37.38-93.19-64.29-26.44A279.58,279.58,0,0,1,546.73,803.16Z"/>
  <path class="cls-14" d="M694.24,455a60.82,60.82,0,0,0-79.1-33.82L482.39,474.38l29.74,150.74A61,61,0,0,0,525,621.56L668.55,564l40.77-67.15a61.09,61.09,0,0,0-3.62-13.29Z"/>
  <path class="cls-15" d="M631.91,771.68,614,780.35c-4.12,2-8.31,3.86-12.51,5.66L641,794.24Z"/>
  <path class="cls-15" d="M671.88,562.66a60.72,60.72,0,0,0,37.44-65.81L668.55,564Z"/>
  <polygon class="cls-13" points="801.76 141.17 919.43 93.98 687.54 37.62 801.76 141.17"/>
</svg>
