<svg xmlns="http://www.w3.org/2000/svg" width="520" height="432" viewBox="0 0 520 432">
<style type="text/css">
	.st0{opacity:0.2;}
	.st1{fill:#A9B5C7;}
	.st2{fill:url(#Ellipse_125_1_);}
	.st3{fill:url(#Ellipse_127_1_);}
	.st4{fill:url(#Ellipse_126_1_);}
	.st5{fill:url(#Intersection_3_1_);}
	.st6{fill:#377A72;}
	.st7{fill:url(#rect4147_1_);}
	.st8{fill:#E5F3F0;}
	.st9{fill:#A6D7D1;}
	.st10{fill:url(#path4155_1_);}
	.st11{stroke:#FFFFFF;stroke-linejoin:bevel;}
	.st12{stroke:#FFFFFF;}
</style>
<g>
	<g id="bg_tile_sai" transform="translate(-104 -640)">
		<g id="Group_1238" transform="translate(84 18)" class="st0">
			<circle id="Ellipse_112" class="st1" cx="392" cy="912" r="3"/>
			<circle id="Ellipse_145" class="st1" cx="488" cy="912" r="3"/>
			<circle id="Ellipse_147" class="st1" cx="488" cy="896" r="3"/>
			<circle id="Ellipse_113" class="st1" cx="392" cy="896" r="3"/>
			<circle id="Ellipse_114" class="st1" cx="392" cy="880" r="3"/>
			<circle id="Ellipse_115" class="st1" cx="392" cy="864" r="3"/>
			<circle id="Ellipse_116" class="st1" cx="392" cy="848" r="3"/>
			<circle id="Ellipse_112-2" class="st1" cx="378" cy="912" r="2"/>
			<circle id="Ellipse_113-2" class="st1" cx="378" cy="896" r="2"/>
			<circle id="Ellipse_114-2" class="st1" cx="378" cy="880" r="2"/>
			<circle id="Ellipse_115-2" class="st1" cx="378" cy="864" r="2"/>
			<circle id="Ellipse_116-2" class="st1" cx="378" cy="848" r="2"/>
			<circle id="Ellipse_112-3" class="st1" cx="408" cy="912" r="4"/>
			<circle id="Ellipse_113-3" class="st1" cx="408" cy="896" r="4"/>
			<circle id="Ellipse_114-3" class="st1" cx="408" cy="880" r="4"/>
			<circle id="Ellipse_115-3" class="st1" cx="408" cy="864" r="4"/>
			<circle id="Ellipse_116-3" class="st1" cx="408" cy="848" r="4"/>
			<circle id="Ellipse_112-4" class="st1" cx="472" cy="928" r="3"/>
			<circle id="Ellipse_146" class="st1" cx="488" cy="928" r="3"/>
			<circle id="Ellipse_113-4" class="st1" cx="456" cy="928" r="3"/>
			<circle id="Ellipse_114-4" class="st1" cx="440" cy="928" r="3"/>
			<circle id="Ellipse_115-4" class="st1" cx="424" cy="928" r="3"/>
			<circle id="Ellipse_116-4" class="st1" cx="408" cy="928" r="3"/>
			<circle id="Ellipse_136" class="st1" cx="392" cy="928" r="3"/>
			<circle id="Ellipse_112-5" class="st1" cx="472" cy="942" r="2"/>
			<circle id="Ellipse_144" class="st1" cx="502" cy="912" r="2"/>
			<circle id="Ellipse_148" class="st1" cx="502" cy="896" r="2"/>
			<circle id="Ellipse_113-5" class="st1" cx="456" cy="942" r="2"/>
			<circle id="Ellipse_114-5" class="st1" cx="440" cy="942" r="2"/>
			<circle id="Ellipse_115-5" class="st1" cx="424" cy="942" r="2"/>
			<circle id="Ellipse_116-5" class="st1" cx="408" cy="942" r="2"/>
			<circle id="Ellipse_112-6" class="st1" cx="472" cy="912" r="4"/>
			<circle id="Ellipse_113-6" class="st1" cx="456" cy="912" r="4"/>
			<circle id="Ellipse_114-6" class="st1" cx="440" cy="912" r="4"/>
			<circle id="Ellipse_115-6" class="st1" cx="424" cy="912" r="4"/>
			<circle id="Ellipse_137" class="st1" cx="424" cy="896" r="5"/>
			<circle id="Ellipse_138" class="st1" cx="440" cy="896" r="5"/>
			<circle id="Ellipse_140" class="st1" cx="456" cy="896" r="5"/>
			<circle id="Ellipse_141" class="st1" cx="472" cy="896" r="5"/>
			<circle id="Ellipse_139" class="st1" cx="424" cy="880" r="5"/>
			<circle id="Ellipse_142" class="st1" cx="440" cy="880" r="5"/>
			<circle id="Ellipse_143" class="st1" cx="456" cy="880" r="6"/>
			<circle id="Ellipse_116-6" class="st1" cx="408" cy="912" r="4"/>
		</g>
		
			<linearGradient id="Ellipse_125_1_" gradientUnits="userSpaceOnUse" x1="202.3672" y1="1271.0851" x2="202.3672" y2="1272.0851" gradientTransform="matrix(128 0 0 -128 -25423 163602.8906)">
			<stop  offset="0" style="stop-color:#557EBF"/>
			<stop  offset="1" style="stop-color:#E7E9F5"/>
		</linearGradient>
		<circle id="Ellipse_125" class="st2" cx="480" cy="840" r="64"/>
		
			<linearGradient id="Ellipse_127_1_" gradientUnits="userSpaceOnUse" x1="201.9531" y1="1272.6871" x2="201.9531" y2="1273.6866" gradientTransform="matrix(192 0 0 -192 -38223 245259.8281)">
			<stop  offset="0" style="stop-color:#00B486"/>
			<stop  offset="1" style="stop-color:#BBE3E4"/>
		</linearGradient>
		<path id="Ellipse_127" class="st3" d="M576,712c17.5,0,33.9,4.7,48,12.8l0,0v166.3l0,0c-14.1,8.2-30.5,12.8-48,12.8
			c-53,0-96-43-96-96S523,712,576,712z"/>
		
			<linearGradient id="Ellipse_126_1_" gradientUnits="userSpaceOnUse" x1="206.125" y1="1250.2648" x2="206.125" y2="1251.2648" gradientTransform="matrix(24 0 0 -24 -4495 30758.3535)">
			<stop  offset="0" style="stop-color:#8CBAF2"/>
			<stop  offset="1" style="stop-color:#E5E9F9"/>
		</linearGradient>
		<circle id="Ellipse_126" class="st4" cx="452" cy="740" r="12"/>
		
			<linearGradient id="Intersection_3_1_" gradientUnits="userSpaceOnUse" x1="203.2344" y1="1270.3766" x2="203.2344" y2="1271.377" gradientTransform="matrix(64.0001 0 0 -111.555 -12495.0205 142604.6563)">
			<stop  offset="0" style="stop-color:#AD3089"/>
			<stop  offset="1" style="stop-color:#E4D3E7"/>
		</linearGradient>
		<path id="Intersection_3" class="st5" d="M480,808c0-10.8,1.8-21.6,5.4-31.8C518.5,779,544,806.7,544,840
			c0,18.3-7.8,35.6-21.4,47.8C496,870,480,840,480,808z"/>
	</g>
</g>
<g id="ic_token_knc" transform="translate(-181 -472)">
	<path id="Rectangle_414" class="st6" d="M652,607.9L652,607.9c17.7,0,32,14.3,32,32l0,0c0,17.7-14.3,32-32,32l0,0
		c-17.7,0-32-14.3-32-32l0,0C620,622.3,634.3,607.9,652,607.9z"/>
	<g id="layer1" transform="translate(200.859 485.555)">
		<g id="g4228" transform="translate(.141 -2.555)">
			
				<linearGradient id="rect4147_1_" gradientUnits="userSpaceOnUse" x1="-4.1898" y1="616.7173" x2="-4.2338" y2="617.8134" gradientTransform="matrix(9.1 0 0 -40.364 482.8171 25059.7383)">
				<stop  offset="0" style="stop-color:#65C199"/>
				<stop  offset="1" style="stop-color:#259EAB"/>
			</linearGradient>
			<path id="rect4147" class="st7" d="M440.1,146.9l8.7-9.6l0.4,40.4l-6.9-9.7L440.1,146.9z"/>
			<path id="path4150" class="st8" d="M449.8,152.9l-0.2-15.9l13.1,9.6L449.8,152.9z"/>
			<path id="path4153" class="st9" d="M462.6,167.2l-12.4-13.4l12.7-6.4L462.6,167.2z"/>
			
				<linearGradient id="path4155_1_" gradientUnits="userSpaceOnUse" x1="-18.2077" y1="610.9822" x2="-18.3157" y2="609.8672" gradientTransform="matrix(12.426 0 0 -23.538 682.1096 14546.0693)">
				<stop  offset="0" style="stop-color:#008496"/>
				<stop  offset="1" style="stop-color:#02A98D"/>
			</linearGradient>
			<path id="path4155" class="st10" d="M450.3,178.3l-0.4-23.5l12.4,13.4L450.3,178.3z"/>
			<circle id="path4157-3" class="st11" cx="439.8" cy="147" r="0.8"/>
			<circle id="path4157-6" class="st11" cx="448.9" cy="136.7" r="0.8"/>
			<circle id="path4157-7" class="st11" cx="462.9" cy="147.1" r="2.8"/>
			<circle id="path4157-5" class="st11" cx="449.1" cy="153.9" r="0.8"/>
			<path id="path4157-35" class="st12" d="M441.8,166.9c0.4,0,0.8,0.4,0.8,0.8s-0.4,0.8-0.8,0.8s-0.8-0.4-0.8-0.8c0,0,0,0,0,0
				C441,167.3,441.4,166.9,441.8,166.9z"/>
			<circle id="path4157-62" class="st11" cx="449.7" cy="178.2" r="0.8"/>
			<circle id="path4157-9" class="st11" cx="462.2" cy="167.9" r="2.8"/>
		</g>
	</g>
</g>
</svg>
