<svg width="520" height="432" viewBox="0 0 520 432" fill="none" xmlns="http://www.w3.org/2000/svg">
<rect width="520" height="432" fill="white"/>
<g opacity="0.2">
<path opacity="0.2" d="M372 293C373.657 293 375 291.657 375 290C375 288.343 373.657 287 372 287C370.343 287 369 288.343 369 290C369 291.657 370.343 293 372 293Z" fill="#A9B5C7"/>
<path opacity="0.2" d="M468 293C469.657 293 471 291.657 471 290C471 288.343 469.657 287 468 287C466.343 287 465 288.343 465 290C465 291.657 466.343 293 468 293Z" fill="#A9B5C7"/>
<path opacity="0.2" d="M468 277C469.657 277 471 275.657 471 274C471 272.343 469.657 271 468 271C466.343 271 465 272.343 465 274C465 275.657 466.343 277 468 277Z" fill="#A9B5C7"/>
<path opacity="0.2" d="M372 277C373.657 277 375 275.657 375 274C375 272.343 373.657 271 372 271C370.343 271 369 272.343 369 274C369 275.657 370.343 277 372 277Z" fill="#A9B5C7"/>
<path opacity="0.2" d="M372 261C373.657 261 375 259.657 375 258C375 256.343 373.657 255 372 255C370.343 255 369 256.343 369 258C369 259.657 370.343 261 372 261Z" fill="#A9B5C7"/>
<path opacity="0.2" d="M372 245C373.657 245 375 243.657 375 242C375 240.343 373.657 239 372 239C370.343 239 369 240.343 369 242C369 243.657 370.343 245 372 245Z" fill="#A9B5C7"/>
<path opacity="0.2" d="M372 229C373.657 229 375 227.657 375 226C375 224.343 373.657 223 372 223C370.343 223 369 224.343 369 226C369 227.657 370.343 229 372 229Z" fill="#A9B5C7"/>
<path opacity="0.2" d="M358 292C359.105 292 360 291.105 360 290C360 288.895 359.105 288 358 288C356.895 288 356 288.895 356 290C356 291.105 356.895 292 358 292Z" fill="#A9B5C7"/>
<path opacity="0.2" d="M358 276C359.105 276 360 275.105 360 274C360 272.895 359.105 272 358 272C356.895 272 356 272.895 356 274C356 275.105 356.895 276 358 276Z" fill="#A9B5C7"/>
<path opacity="0.2" d="M358 260C359.105 260 360 259.105 360 258C360 256.895 359.105 256 358 256C356.895 256 356 256.895 356 258C356 259.105 356.895 260 358 260Z" fill="#A9B5C7"/>
<path opacity="0.2" d="M358 244C359.105 244 360 243.105 360 242C360 240.895 359.105 240 358 240C356.895 240 356 240.895 356 242C356 243.105 356.895 244 358 244Z" fill="#A9B5C7"/>
<path opacity="0.2" d="M358 228C359.105 228 360 227.105 360 226C360 224.895 359.105 224 358 224C356.895 224 356 224.895 356 226C356 227.105 356.895 228 358 228Z" fill="#A9B5C7"/>
<path opacity="0.2" d="M388 294C390.209 294 392 292.209 392 290C392 287.791 390.209 286 388 286C385.791 286 384 287.791 384 290C384 292.209 385.791 294 388 294Z" fill="#A9B5C7"/>
<path opacity="0.2" d="M388 278C390.209 278 392 276.209 392 274C392 271.791 390.209 270 388 270C385.791 270 384 271.791 384 274C384 276.209 385.791 278 388 278Z" fill="#A9B5C7"/>
<path opacity="0.2" d="M388 262C390.209 262 392 260.209 392 258C392 255.791 390.209 254 388 254C385.791 254 384 255.791 384 258C384 260.209 385.791 262 388 262Z" fill="#A9B5C7"/>
<path opacity="0.2" d="M388 246C390.209 246 392 244.209 392 242C392 239.791 390.209 238 388 238C385.791 238 384 239.791 384 242C384 244.209 385.791 246 388 246Z" fill="#A9B5C7"/>
<path opacity="0.2" d="M388 230C390.209 230 392 228.209 392 226C392 223.791 390.209 222 388 222C385.791 222 384 223.791 384 226C384 228.209 385.791 230 388 230Z" fill="#A9B5C7"/>
<path opacity="0.2" d="M452 309C453.657 309 455 307.657 455 306C455 304.343 453.657 303 452 303C450.343 303 449 304.343 449 306C449 307.657 450.343 309 452 309Z" fill="#A9B5C7"/>
<path opacity="0.2" d="M468 309C469.657 309 471 307.657 471 306C471 304.343 469.657 303 468 303C466.343 303 465 304.343 465 306C465 307.657 466.343 309 468 309Z" fill="#A9B5C7"/>
<path opacity="0.2" d="M436 309C437.657 309 439 307.657 439 306C439 304.343 437.657 303 436 303C434.343 303 433 304.343 433 306C433 307.657 434.343 309 436 309Z" fill="#A9B5C7"/>
<path opacity="0.2" d="M420 309C421.657 309 423 307.657 423 306C423 304.343 421.657 303 420 303C418.343 303 417 304.343 417 306C417 307.657 418.343 309 420 309Z" fill="#A9B5C7"/>
<path opacity="0.2" d="M404 309C405.657 309 407 307.657 407 306C407 304.343 405.657 303 404 303C402.343 303 401 304.343 401 306C401 307.657 402.343 309 404 309Z" fill="#A9B5C7"/>
<path opacity="0.2" d="M388 309C389.657 309 391 307.657 391 306C391 304.343 389.657 303 388 303C386.343 303 385 304.343 385 306C385 307.657 386.343 309 388 309Z" fill="#A9B5C7"/>
<path opacity="0.2" d="M372 309C373.657 309 375 307.657 375 306C375 304.343 373.657 303 372 303C370.343 303 369 304.343 369 306C369 307.657 370.343 309 372 309Z" fill="#A9B5C7"/>
<path opacity="0.2" d="M452 322C453.105 322 454 321.105 454 320C454 318.895 453.105 318 452 318C450.895 318 450 318.895 450 320C450 321.105 450.895 322 452 322Z" fill="#A9B5C7"/>
<path opacity="0.2" d="M482 292C483.105 292 484 291.105 484 290C484 288.895 483.105 288 482 288C480.895 288 480 288.895 480 290C480 291.105 480.895 292 482 292Z" fill="#A9B5C7"/>
<path opacity="0.2" d="M482 276C483.105 276 484 275.105 484 274C484 272.895 483.105 272 482 272C480.895 272 480 272.895 480 274C480 275.105 480.895 276 482 276Z" fill="#A9B5C7"/>
<path opacity="0.2" d="M436 322C437.105 322 438 321.105 438 320C438 318.895 437.105 318 436 318C434.895 318 434 318.895 434 320C434 321.105 434.895 322 436 322Z" fill="#A9B5C7"/>
<path opacity="0.2" d="M420 322C421.105 322 422 321.105 422 320C422 318.895 421.105 318 420 318C418.895 318 418 318.895 418 320C418 321.105 418.895 322 420 322Z" fill="#A9B5C7"/>
<path opacity="0.2" d="M404 322C405.105 322 406 321.105 406 320C406 318.895 405.105 318 404 318C402.895 318 402 318.895 402 320C402 321.105 402.895 322 404 322Z" fill="#A9B5C7"/>
<path opacity="0.2" d="M388 322C389.105 322 390 321.105 390 320C390 318.895 389.105 318 388 318C386.895 318 386 318.895 386 320C386 321.105 386.895 322 388 322Z" fill="#A9B5C7"/>
<path opacity="0.2" d="M452 294C454.209 294 456 292.209 456 290C456 287.791 454.209 286 452 286C449.791 286 448 287.791 448 290C448 292.209 449.791 294 452 294Z" fill="#A9B5C7"/>
<path opacity="0.2" d="M436 294C438.209 294 440 292.209 440 290C440 287.791 438.209 286 436 286C433.791 286 432 287.791 432 290C432 292.209 433.791 294 436 294Z" fill="#A9B5C7"/>
<path opacity="0.2" d="M420 294C422.209 294 424 292.209 424 290C424 287.791 422.209 286 420 286C417.791 286 416 287.791 416 290C416 292.209 417.791 294 420 294Z" fill="#A9B5C7"/>
<path opacity="0.2" d="M404 294C406.209 294 408 292.209 408 290C408 287.791 406.209 286 404 286C401.791 286 400 287.791 400 290C400 292.209 401.791 294 404 294Z" fill="#A9B5C7"/>
<path opacity="0.2" d="M404 279C406.761 279 409 276.761 409 274C409 271.239 406.761 269 404 269C401.239 269 399 271.239 399 274C399 276.761 401.239 279 404 279Z" fill="#A9B5C7"/>
<path opacity="0.2" d="M420 279C422.761 279 425 276.761 425 274C425 271.239 422.761 269 420 269C417.239 269 415 271.239 415 274C415 276.761 417.239 279 420 279Z" fill="#A9B5C7"/>
<path opacity="0.2" d="M436 279C438.761 279 441 276.761 441 274C441 271.239 438.761 269 436 269C433.239 269 431 271.239 431 274C431 276.761 433.239 279 436 279Z" fill="#A9B5C7"/>
<path opacity="0.2" d="M452 279C454.761 279 457 276.761 457 274C457 271.239 454.761 269 452 269C449.239 269 447 271.239 447 274C447 276.761 449.239 279 452 279Z" fill="#A9B5C7"/>
<path opacity="0.2" d="M404 263C406.761 263 409 260.761 409 258C409 255.239 406.761 253 404 253C401.239 253 399 255.239 399 258C399 260.761 401.239 263 404 263Z" fill="#A9B5C7"/>
<path opacity="0.2" d="M420 263C422.761 263 425 260.761 425 258C425 255.239 422.761 253 420 253C417.239 253 415 255.239 415 258C415 260.761 417.239 263 420 263Z" fill="#A9B5C7"/>
<path opacity="0.2" d="M436 264C439.314 264 442 261.314 442 258C442 254.686 439.314 252 436 252C432.686 252 430 254.686 430 258C430 261.314 432.686 264 436 264Z" fill="#A9B5C7"/>
<path opacity="0.2" d="M388 294C390.209 294 392 292.209 392 290C392 287.791 390.209 286 388 286C385.791 286 384 287.791 384 290C384 292.209 385.791 294 388 294Z" fill="#A9B5C7"/>
</g>
<path d="M376 264C411.346 264 440 235.346 440 200C440 164.654 411.346 136 376 136C340.654 136 312 164.654 312 200C312 235.346 340.654 264 376 264Z" fill="url(#paint0_linear)"/>
<path d="M472 72C489.5 72 505.9 76.7 520 84.8V251.1C505.9 259.3 489.5 263.9 472 263.9C419 263.9 376 220.9 376 167.9C376 114.9 419 72 472 72Z" fill="url(#paint1_linear)"/>
<path d="M348 112C354.627 112 360 106.627 360 100C360 93.3726 354.627 88 348 88C341.373 88 336 93.3726 336 100C336 106.627 341.373 112 348 112Z" fill="url(#paint2_linear)"/>
<path d="M376 168C376 157.2 377.8 146.4 381.4 136.2C414.5 139 440 166.7 440 200C440 218.3 432.2 235.6 418.6 247.8C392 230 376 200 376 168Z" fill="url(#paint3_linear)"/>
<circle cx="472" cy="168" r="32" fill="url(#paint4_linear)"/>
<path d="M487.432 175.214C487.432 173.118 485.931 171.737 484.084 171.737L478.601 171.737L478.601 173.533L484.096 173.533C485.042 173.533 485.804 174.143 485.804 175.225C485.804 176.261 485.042 176.86 484.096 176.86L478.601 176.86L478.601 178.771L484.084 178.771C485.931 178.771 487.432 177.389 487.432 175.214Z" fill="white"/>
<path d="M487.432 167.157C487.432 165.234 486.393 163.922 484.742 163.922C483.299 163.922 482.433 164.877 482.11 166.455L481.926 167.284C481.741 168.112 481.429 168.435 480.956 168.435C480.379 168.435 479.998 167.997 479.998 167.191C479.998 166.293 480.436 165.867 481.025 165.718L481.025 164.221L480.148 164.221C479.086 164.463 478.428 165.557 478.428 167.145C478.428 169.045 479.398 170.288 481.06 170.288C482.457 170.288 483.299 169.413 483.611 167.836L483.761 167.042C483.957 166.167 484.28 165.775 484.846 165.775C485.492 165.775 485.862 166.316 485.862 167.122C485.862 168.043 485.458 168.596 484.811 168.826L484.811 170.334L485.677 170.334C486.635 169.966 487.432 168.941 487.432 167.157Z" fill="white"/>
<path d="M487.259 162.5L487.259 159.472C487.259 156.813 485.296 155.166 482.895 155.166C480.529 155.166 478.601 156.813 478.601 159.472L478.601 162.5L487.259 162.5ZM485.631 160.589L480.229 160.589L480.229 159.507C480.229 157.999 481.429 157.135 482.895 157.135C484.407 157.135 485.631 157.999 485.631 159.507L485.631 160.589Z" fill="white"/>
<path d="M467.377 165.765C468.256 165.765 468.969 166.475 468.969 167.351C468.969 168.227 468.256 168.936 467.377 168.936H463.246C459.244 168.936 456 165.705 456 161.718C456 157.732 459.244 154.5 463.246 154.5H473.901C474.78 154.5 475.492 155.21 475.492 156.086C475.492 156.961 474.78 157.671 473.901 157.671H463.246C461.002 157.671 459.184 159.483 459.184 161.718C459.184 163.953 461.002 165.765 463.246 165.765H467.377Z" fill="white"/>
<path d="M464.115 168.936C463.236 168.936 462.524 168.226 462.524 167.351C462.524 166.475 463.236 165.765 464.115 165.765H468.247C472.248 165.765 475.492 168.997 475.492 172.983C475.492 176.97 472.248 180.201 468.247 180.201H457.592C456.713 180.201 456 179.491 456 178.616C456 177.74 456.713 177.03 457.592 177.03H468.247C470.49 177.03 472.309 175.218 472.309 172.983C472.309 170.748 470.49 168.936 468.247 168.936H464.115Z" fill="white"/>
<path d="M458.849 179.562L456.262 177.714L472.537 155.087L475.125 156.934L458.849 179.562Z" fill="white" fill-opacity="0.5"/>
<defs>
<linearGradient id="paint0_linear" x1="376.002" y1="263.998" x2="376.002" y2="135.998" gradientUnits="userSpaceOnUse">
<stop stop-color="#4DF4FF"/>
<stop offset="1" stop-color="#FCD6FF"/>
</linearGradient>
<linearGradient id="paint1_linear" x1="447.995" y1="263.905" x2="447.995" y2="72.0009" gradientUnits="userSpaceOnUse">
<stop stop-color="#217C91"/>
<stop offset="1" stop-color="#BFCDFF"/>
</linearGradient>
<linearGradient id="paint2_linear" x1="347.999" y1="112.001" x2="347.999" y2="88.0001" gradientUnits="userSpaceOnUse">
<stop stop-color="#FAB7CB"/>
<stop offset="1" stop-color="#E9F1FF"/>
</linearGradient>
<linearGradient id="paint3_linear" x1="408.001" y1="247.795" x2="408.001" y2="136.195" gradientUnits="userSpaceOnUse">
<stop stop-color="#46B351"/>
<stop offset="0.979167" stop-color="#D7FFCD"/>
</linearGradient>
<linearGradient id="paint4_linear" x1="454.75" y1="141.25" x2="501.25" y2="187.75" gradientUnits="userSpaceOnUse">
<stop stop-color="#342F49"/>
<stop offset="1"/>
</linearGradient>
</defs>
</svg>
