<svg xmlns="http://www.w3.org/2000/svg" xmlns:xlink="http://www.w3.org/1999/xlink" width="520" height="432" viewBox="0 0 520 432">
  <defs>
    <clipPath id="clip-path">
      <rect id="Rectangle_557" data-name="Rectangle 557" width="520" height="432" rx="8" transform="translate(104 640)" fill="#fff"/>
    </clipPath>
    <filter id="Path_575" x="212" y="43.076" width="248" height="249.076" filterUnits="userSpaceOnUse">
      <feOffset dy="130" input="SourceAlpha"/>
      <feGaussianBlur stdDeviation="20" result="blur"/>
      <feFlood flood-opacity="0.102"/>
      <feComposite operator="in" in2="blur"/>
      <feComposite in="SourceGraphic"/>
    </filter>
    <linearGradient id="linear-gradient" x1="0.264" y1="0.148" x2="0.733" y2="0.79" gradientUnits="objectBoundingBox">
      <stop offset="0" stop-color="#99b0fc"/>
      <stop offset="1" stop-color="#79f5cc"/>
    </linearGradient>
    <filter id="Path_572" x="262" y="64" width="388" height="366" filterUnits="userSpaceOnUse">
      <feOffset dy="180" input="SourceAlpha"/>
      <feGaussianBlur stdDeviation="30" result="blur-2"/>
      <feFlood flood-opacity="0.161"/>
      <feComposite operator="in" in2="blur-2"/>
      <feComposite in="SourceGraphic"/>
    </filter>
    <linearGradient id="linear-gradient-2" x1="-0.164" y1="0.304" x2="1.059" y2="0.67" gradientUnits="objectBoundingBox">
      <stop offset="0" stop-color="#718ff1"/>
      <stop offset="1" stop-color="#9be2ca"/>
    </linearGradient>
    <linearGradient id="linear-gradient-3" x1="1.228" y1="0.765" x2="-0.226" y2="0.213" gradientUnits="objectBoundingBox">
      <stop offset="0" stop-color="#3e68e9"/>
      <stop offset="1" stop-color="#57b193"/>
    </linearGradient>
    <linearGradient id="linear-gradient-4" x1="0.169" y1="0.762" x2="1" y2="0.246" gradientUnits="objectBoundingBox">
      <stop offset="0" stop-color="#354e9e"/>
      <stop offset="1" stop-color="#354e9e" stop-opacity="0"/>
    </linearGradient>
    <linearGradient id="linear-gradient-5" x1="0.739" y1="0.77" x2="0" y2="0.246" gradientUnits="objectBoundingBox">
      <stop offset="0" stop-color="#34ab84"/>
      <stop offset="1" stop-color="#34ab84" stop-opacity="0"/>
    </linearGradient>
    <filter id="Path_575-2" x="268" y="208" width="136" height="125.539" filterUnits="userSpaceOnUse">
      <feOffset dy="60" input="SourceAlpha"/>
      <feGaussianBlur stdDeviation="12" result="blur-3"/>
      <feFlood flood-opacity="0.149"/>
      <feComposite operator="in" in2="blur-3"/>
      <feComposite in="SourceGraphic"/>
    </filter>
  </defs>
  <g id="bg_tile_non_web_3_wallets" transform="translate(-104 -640)" clip-path="url(#clip-path)">
    <g id="Group_1238" data-name="Group 1238" transform="translate(84 18)" opacity="0.2">
      <circle id="Ellipse_112" data-name="Ellipse 112" cx="3" cy="3" r="3" transform="translate(389 915) rotate(-90)" fill="#a9b5c7"/>
      <circle id="Ellipse_145" data-name="Ellipse 145" cx="3" cy="3" r="3" transform="translate(485 915) rotate(-90)" fill="#a9b5c7"/>
      <circle id="Ellipse_147" data-name="Ellipse 147" cx="3" cy="3" r="3" transform="translate(485 899) rotate(-90)" fill="#a9b5c7"/>
      <circle id="Ellipse_113" data-name="Ellipse 113" cx="3" cy="3" r="3" transform="translate(389 899) rotate(-90)" fill="#a9b5c7"/>
      <circle id="Ellipse_114" data-name="Ellipse 114" cx="3" cy="3" r="3" transform="translate(389 883) rotate(-90)" fill="#a9b5c7"/>
      <circle id="Ellipse_115" data-name="Ellipse 115" cx="3" cy="3" r="3" transform="translate(389 867) rotate(-90)" fill="#a9b5c7"/>
      <circle id="Ellipse_116" data-name="Ellipse 116" cx="3" cy="3" r="3" transform="translate(389 851) rotate(-90)" fill="#a9b5c7"/>
      <circle id="Ellipse_112-2" data-name="Ellipse 112" cx="2" cy="2" r="2" transform="translate(376 914) rotate(-90)" fill="#a9b5c7"/>
      <circle id="Ellipse_113-2" data-name="Ellipse 113" cx="2" cy="2" r="2" transform="translate(376 898) rotate(-90)" fill="#a9b5c7"/>
      <circle id="Ellipse_114-2" data-name="Ellipse 114" cx="2" cy="2" r="2" transform="translate(376 882) rotate(-90)" fill="#a9b5c7"/>
      <circle id="Ellipse_115-2" data-name="Ellipse 115" cx="2" cy="2" r="2" transform="translate(376 866) rotate(-90)" fill="#a9b5c7"/>
      <circle id="Ellipse_116-2" data-name="Ellipse 116" cx="2" cy="2" r="2" transform="translate(376 850) rotate(-90)" fill="#a9b5c7"/>
      <circle id="Ellipse_112-3" data-name="Ellipse 112" cx="4" cy="4" r="4" transform="translate(404 916) rotate(-90)" fill="#a9b5c7"/>
      <circle id="Ellipse_113-3" data-name="Ellipse 113" cx="4" cy="4" r="4" transform="translate(404 900) rotate(-90)" fill="#a9b5c7"/>
      <circle id="Ellipse_114-3" data-name="Ellipse 114" cx="4" cy="4" r="4" transform="translate(404 884) rotate(-90)" fill="#a9b5c7"/>
      <circle id="Ellipse_115-3" data-name="Ellipse 115" cx="4" cy="4" r="4" transform="translate(404 868) rotate(-90)" fill="#a9b5c7"/>
      <circle id="Ellipse_116-3" data-name="Ellipse 116" cx="4" cy="4" r="4" transform="translate(404 852) rotate(-90)" fill="#a9b5c7"/>
      <circle id="Ellipse_112-4" data-name="Ellipse 112" cx="3" cy="3" r="3" transform="translate(475 931) rotate(180)" fill="#a9b5c7"/>
      <circle id="Ellipse_146" data-name="Ellipse 146" cx="3" cy="3" r="3" transform="translate(491 931) rotate(180)" fill="#a9b5c7"/>
      <circle id="Ellipse_113-4" data-name="Ellipse 113" cx="3" cy="3" r="3" transform="translate(459 931) rotate(180)" fill="#a9b5c7"/>
      <circle id="Ellipse_114-4" data-name="Ellipse 114" cx="3" cy="3" r="3" transform="translate(443 931) rotate(180)" fill="#a9b5c7"/>
      <circle id="Ellipse_115-4" data-name="Ellipse 115" cx="3" cy="3" r="3" transform="translate(427 931) rotate(180)" fill="#a9b5c7"/>
      <circle id="Ellipse_116-4" data-name="Ellipse 116" cx="3" cy="3" r="3" transform="translate(411 931) rotate(180)" fill="#a9b5c7"/>
      <circle id="Ellipse_136" data-name="Ellipse 136" cx="3" cy="3" r="3" transform="translate(395 931) rotate(180)" fill="#a9b5c7"/>
      <circle id="Ellipse_112-5" data-name="Ellipse 112" cx="2" cy="2" r="2" transform="translate(474 944) rotate(180)" fill="#a9b5c7"/>
      <circle id="Ellipse_144" data-name="Ellipse 144" cx="2" cy="2" r="2" transform="translate(504 914) rotate(180)" fill="#a9b5c7"/>
      <circle id="Ellipse_148" data-name="Ellipse 148" cx="2" cy="2" r="2" transform="translate(504 898) rotate(180)" fill="#a9b5c7"/>
      <circle id="Ellipse_113-5" data-name="Ellipse 113" cx="2" cy="2" r="2" transform="translate(458 944) rotate(180)" fill="#a9b5c7"/>
      <circle id="Ellipse_114-5" data-name="Ellipse 114" cx="2" cy="2" r="2" transform="translate(442 944) rotate(180)" fill="#a9b5c7"/>
      <circle id="Ellipse_115-5" data-name="Ellipse 115" cx="2" cy="2" r="2" transform="translate(426 944) rotate(180)" fill="#a9b5c7"/>
      <circle id="Ellipse_116-5" data-name="Ellipse 116" cx="2" cy="2" r="2" transform="translate(410 944) rotate(180)" fill="#a9b5c7"/>
      <circle id="Ellipse_112-6" data-name="Ellipse 112" cx="4" cy="4" r="4" transform="translate(476 916) rotate(180)" fill="#a9b5c7"/>
      <circle id="Ellipse_113-6" data-name="Ellipse 113" cx="4" cy="4" r="4" transform="translate(460 916) rotate(180)" fill="#a9b5c7"/>
      <circle id="Ellipse_114-6" data-name="Ellipse 114" cx="4" cy="4" r="4" transform="translate(444 916) rotate(180)" fill="#a9b5c7"/>
      <circle id="Ellipse_115-6" data-name="Ellipse 115" cx="4" cy="4" r="4" transform="translate(428 916) rotate(180)" fill="#a9b5c7"/>
      <circle id="Ellipse_137" data-name="Ellipse 137" cx="5" cy="5" r="5" transform="translate(429 901) rotate(180)" fill="#a9b5c7"/>
      <circle id="Ellipse_138" data-name="Ellipse 138" cx="5" cy="5" r="5" transform="translate(445 901) rotate(180)" fill="#a9b5c7"/>
      <circle id="Ellipse_140" data-name="Ellipse 140" cx="5" cy="5" r="5" transform="translate(461 901) rotate(180)" fill="#a9b5c7"/>
      <circle id="Ellipse_141" data-name="Ellipse 141" cx="5" cy="5" r="5" transform="translate(477 901) rotate(180)" fill="#a9b5c7"/>
      <circle id="Ellipse_139" data-name="Ellipse 139" cx="5" cy="5" r="5" transform="translate(429 885) rotate(180)" fill="#a9b5c7"/>
      <circle id="Ellipse_142" data-name="Ellipse 142" cx="5" cy="5" r="5" transform="translate(445 885) rotate(180)" fill="#a9b5c7"/>
      <circle id="Ellipse_143" data-name="Ellipse 143" cx="6" cy="6" r="6" transform="translate(462 886) rotate(180)" fill="#a9b5c7"/>
      <circle id="Ellipse_116-6" data-name="Ellipse 116" cx="4" cy="4" r="4" transform="translate(412 916) rotate(180)" fill="#a9b5c7"/>
    </g>
    <g id="Group_1243" data-name="Group 1243" transform="translate(-8 355.076)">
      <g transform="matrix(1, 0, 0, 1, 112, 284.92)" filter="url(#Path_575)">
        <path id="Path_575-3" data-name="Path 575" d="M-20245-19826l64,29.539-64,29.537-64-29.537Z" transform="translate(20581 19869.08)" fill="#fff"/>
      </g>
      <path id="Path_576" data-name="Path 576" d="M-20309-19906l64,29.537v73.848l-64-29.539Z" transform="translate(20693 20263.539)" fill="#a9b5c7" opacity="0.3"/>
      <path id="Path_577" data-name="Path 577" d="M-20245-19906l-64,29.537v73.848l64-29.539Z" transform="translate(20757 20263.539)" fill="#a9b5c7" opacity="0.5"/>
    </g>
    <g transform="matrix(1, 0, 0, 1, 104, 640)" filter="url(#Path_572)">
      <path id="Path_572-2" data-name="Path 572" d="M-20205-19826l104,48-104,48-104-48Z" transform="translate(20661 19890)" fill="url(#linear-gradient)"/>
    </g>
    <path id="Path_573" data-name="Path 573" d="M-20309-19906l104,48v120l-104-48Z" transform="translate(20765 20658)" fill="url(#linear-gradient-2)"/>
    <path id="Path_574" data-name="Path 574" d="M-20205-19906l-104,48v120l104-48Z" transform="translate(20869 20658)" fill="url(#linear-gradient-3)"/>
    <path id="Path_590" data-name="Path 590" d="M-20205-19826v96l-104-48Z" transform="translate(20765 20650)" opacity="0.2" fill="url(#linear-gradient-4)"/>
    <path id="Path_591" data-name="Path 591" d="M-20309-19826v96l104-48Z" transform="translate(20869 20650)" fill="url(#linear-gradient-5)"/>
    <g id="Group_1244" data-name="Group 1244" transform="translate(24 520)">
      <g transform="matrix(1, 0, 0, 1, 80, 120)" filter="url(#Path_575-2)">
        <path id="Path_575-4" data-name="Path 575" d="M-20277-19826l32,14.77-32,14.77-32-14.77Z" transform="translate(20613 20034)" fill="#fff"/>
      </g>
      <path id="Path_576-2" data-name="Path 576" d="M-20309-19906l32,14.77v36.922l-32-14.77Z" transform="translate(20693 20248.77)" fill="#dee3ea"/>
      <path id="Path_577-2" data-name="Path 577" d="M-20277-19906l-32,14.77v36.922l32-14.77Z" transform="translate(20725 20248.77)" fill="#cfd6e0"/>
    </g>
  </g>
</svg>
