<svg xmlns="http://www.w3.org/2000/svg" width="520" height="432" viewBox="0 0 520 432">
    <defs>
        <style>
            .cls-1{fill:#fff}.cls-2{clip-path:url(#clip-path)}.cls-3,.cls-9{opacity:.2}.cls-4{fill:#a9b5c7}.cls-5{fill:url(#linear-gradient)}.cls-6{fill:#dde2e8}.cls-7{fill:url(#linear-gradient-2)}.cls-8{fill:url(#linear-gradient-3)}.cls-9{fill:url(#linear-gradient-4)}.cls-10{fill:url(#linear-gradient-5)}.cls-11{filter:url(#Path_584)}.cls-12{filter:url(#Path_578)}.cls-13{filter:url(#Path_581)}
        </style>
        <clipPath id="clip-path">
            <rect id="Rectangle_557" width="520" height="432" class="cls-1" data-name="Rectangle 557" rx="8" transform="translate(104 640)"/>
        </clipPath>
        <linearGradient id="linear-gradient" x1=".264" x2=".733" y1=".148" y2=".79" gradientUnits="objectBoundingBox">
            <stop offset="0" stop-color="#829efb"/>
            <stop offset="1" stop-color="#61eebf"/>
        </linearGradient>
        <filter id="Path_581" width="388" height="276" x="262" y="164" filterUnits="userSpaceOnUse">
            <feOffset dy="70"/>
            <feGaussianBlur result="blur" stdDeviation="30"/>
            <feFlood flood-opacity=".161"/>
            <feComposite in2="blur" operator="in"/>
            <feComposite in="SourceGraphic"/>
        </filter>
        <filter id="Path_578" width="248" height="189.076" x="228" y="116.924" filterUnits="userSpaceOnUse">
            <feOffset dy="70"/>
            <feGaussianBlur result="blur-2" stdDeviation="20"/>
            <feFlood flood-opacity=".102"/>
            <feComposite in2="blur-2" operator="in"/>
            <feComposite in="SourceGraphic"/>
        </filter>
        <linearGradient id="linear-gradient-2" x1=".258" x2="1" y1=".5" y2=".677" gradientUnits="objectBoundingBox">
            <stop offset="0" stop-color="#94acfb"/>
            <stop offset="1" stop-color="#9be2ca"/>
        </linearGradient>
        <linearGradient id="linear-gradient-3" x1="-.086" x2=".603" y1="-.094" y2=".9" gradientUnits="objectBoundingBox">
            <stop offset="0" stop-color="#5f85fc"/>
            <stop offset="1" stop-color="#57b193"/>
        </linearGradient>
        <linearGradient id="linear-gradient-4" x1=".169" x2="1" y1=".762" y2=".246" gradientUnits="objectBoundingBox">
            <stop offset="0" stop-color="#354e9e"/>
            <stop offset="1" stop-color="#354e9e" stop-opacity="0"/>
        </linearGradient>
        <linearGradient id="linear-gradient-5" x1=".739" x2="0" y1=".77" y2=".246" gradientUnits="objectBoundingBox">
            <stop offset="0" stop-color="#34ab84"/>
            <stop offset="1" stop-color="#208162" stop-opacity="0"/>
        </linearGradient>
        <filter id="Path_584" width="136" height="101.539" x="284" y="239" filterUnits="userSpaceOnUse">
            <feOffset dy="30"/>
            <feGaussianBlur result="blur-3" stdDeviation="12"/>
            <feFlood flood-opacity=".149"/>
            <feComposite in2="blur-3" operator="in"/>
            <feComposite in="SourceGraphic"/>
        </filter>
    </defs>
    <g id="bg_tile_non_web_3_wallets" class="cls-2" transform="translate(-104 -640)">
        <g id="Group_1239" class="cls-3" data-name="Group 1239" transform="translate(84 18)">
            <circle id="Ellipse_112" cx="3" cy="3" r="3" class="cls-4" data-name="Ellipse 112" transform="rotate(-90 652 263)"/>
            <circle id="Ellipse_145" cx="3" cy="3" r="3" class="cls-4" data-name="Ellipse 145" transform="rotate(-90 700 215)"/>
            <circle id="Ellipse_147" cx="3" cy="3" r="3" class="cls-4" data-name="Ellipse 147" transform="rotate(-90 692 207)"/>
            <circle id="Ellipse_113" cx="3" cy="3" r="3" class="cls-4" data-name="Ellipse 113" transform="rotate(-90 644 255)"/>
            <circle id="Ellipse_114" cx="3" cy="3" r="3" class="cls-4" data-name="Ellipse 114" transform="rotate(-90 636 247)"/>
            <circle id="Ellipse_115" cx="3" cy="3" r="3" class="cls-4" data-name="Ellipse 115" transform="rotate(-90 628 239)"/>
            <circle id="Ellipse_116" cx="3" cy="3" r="3" class="cls-4" data-name="Ellipse 116" transform="rotate(-90 620 231)"/>
            <circle id="Ellipse_112-2" cx="2" cy="2" r="2" class="cls-4" data-name="Ellipse 112" transform="rotate(-90 645 269)"/>
            <circle id="Ellipse_113-2" cx="2" cy="2" r="2" class="cls-4" data-name="Ellipse 113" transform="rotate(-90 637 261)"/>
            <circle id="Ellipse_114-2" cx="2" cy="2" r="2" class="cls-4" data-name="Ellipse 114" transform="rotate(-90 629 253)"/>
            <circle id="Ellipse_115-2" cx="2" cy="2" r="2" class="cls-4" data-name="Ellipse 115" transform="rotate(-90 621 245)"/>
            <circle id="Ellipse_116-2" cx="2" cy="2" r="2" class="cls-4" data-name="Ellipse 116" transform="rotate(-90 613 237)"/>
            <circle id="Ellipse_112-3" cx="4" cy="4" r="4" class="cls-4" data-name="Ellipse 112" transform="rotate(-90 660 256)"/>
            <circle id="Ellipse_113-3" cx="4" cy="4" r="4" class="cls-4" data-name="Ellipse 113" transform="rotate(-90 652 248)"/>
            <circle id="Ellipse_114-3" cx="4" cy="4" r="4" class="cls-4" data-name="Ellipse 114" transform="rotate(-90 644 240)"/>
            <circle id="Ellipse_115-3" cx="4" cy="4" r="4" class="cls-4" data-name="Ellipse 115" transform="rotate(-90 636 232)"/>
            <circle id="Ellipse_116-3" cx="4" cy="4" r="4" class="cls-4" data-name="Ellipse 116" transform="rotate(-90 628 224)"/>
            <circle id="Ellipse_112-4" cx="3" cy="3" r="3" class="cls-4" data-name="Ellipse 112" transform="rotate(180 237.5 465.5)"/>
            <circle id="Ellipse_146" cx="3" cy="3" r="3" class="cls-4" data-name="Ellipse 146" transform="rotate(180 245.5 465.5)"/>
            <circle id="Ellipse_113-4" cx="3" cy="3" r="3" class="cls-4" data-name="Ellipse 113" transform="rotate(180 229.5 465.5)"/>
            <circle id="Ellipse_114-4" cx="3" cy="3" r="3" class="cls-4" data-name="Ellipse 114" transform="rotate(180 221.5 465.5)"/>
            <circle id="Ellipse_115-4" cx="3" cy="3" r="3" class="cls-4" data-name="Ellipse 115" transform="rotate(180 213.5 465.5)"/>
            <circle id="Ellipse_116-4" cx="3" cy="3" r="3" class="cls-4" data-name="Ellipse 116" transform="rotate(180 205.5 465.5)"/>
            <circle id="Ellipse_136" cx="3" cy="3" r="3" class="cls-4" data-name="Ellipse 136" transform="rotate(180 197.5 465.5)"/>
            <circle id="Ellipse_112-5" cx="2" cy="2" r="2" class="cls-4" data-name="Ellipse 112" transform="rotate(180 237 472)"/>
            <circle id="Ellipse_144" cx="2" cy="2" r="2" class="cls-4" data-name="Ellipse 144" transform="rotate(180 252 457)"/>
            <circle id="Ellipse_148" cx="2" cy="2" r="2" class="cls-4" data-name="Ellipse 148" transform="rotate(180 252 449)"/>
            <circle id="Ellipse_113-5" cx="2" cy="2" r="2" class="cls-4" data-name="Ellipse 113" transform="rotate(180 229 472)"/>
            <circle id="Ellipse_114-5" cx="2" cy="2" r="2" class="cls-4" data-name="Ellipse 114" transform="rotate(180 221 472)"/>
            <circle id="Ellipse_115-5" cx="2" cy="2" r="2" class="cls-4" data-name="Ellipse 115" transform="rotate(180 213 472)"/>
            <circle id="Ellipse_116-5" cx="2" cy="2" r="2" class="cls-4" data-name="Ellipse 116" transform="rotate(180 205 472)"/>
            <circle id="Ellipse_112-6" cx="4" cy="4" r="4" class="cls-4" data-name="Ellipse 112" transform="rotate(180 238 458)"/>
            <circle id="Ellipse_113-6" cx="4" cy="4" r="4" class="cls-4" data-name="Ellipse 113" transform="rotate(180 230 458)"/>
            <circle id="Ellipse_114-6" cx="4" cy="4" r="4" class="cls-4" data-name="Ellipse 114" transform="rotate(180 222 458)"/>
            <circle id="Ellipse_115-6" cx="4" cy="4" r="4" class="cls-4" data-name="Ellipse 115" transform="rotate(180 214 458)"/>
            <circle id="Ellipse_137" cx="5" cy="5" r="5" class="cls-4" data-name="Ellipse 137" transform="rotate(180 214.5 450.5)"/>
            <circle id="Ellipse_138" cx="5" cy="5" r="5" class="cls-4" data-name="Ellipse 138" transform="rotate(180 222.5 450.5)"/>
            <circle id="Ellipse_140" cx="5" cy="5" r="5" class="cls-4" data-name="Ellipse 140" transform="rotate(180 230.5 450.5)"/>
            <circle id="Ellipse_141" cx="5" cy="5" r="5" class="cls-4" data-name="Ellipse 141" transform="rotate(180 238.5 450.5)"/>
            <circle id="Ellipse_139" cx="5" cy="5" r="5" class="cls-4" data-name="Ellipse 139" transform="rotate(180 214.5 442.5)"/>
            <circle id="Ellipse_142" cx="5" cy="5" r="5" class="cls-4" data-name="Ellipse 142" transform="rotate(180 222.5 442.5)"/>
            <circle id="Ellipse_143" cx="6" cy="6" r="6" class="cls-4" data-name="Ellipse 143" transform="rotate(180 231 443)"/>
            <circle id="Ellipse_116-6" cx="4" cy="4" r="4" class="cls-4" data-name="Ellipse 116" transform="rotate(180 206 458)"/>
        </g>
        <g class="cls-13" transform="translate(104 640)">
            <path id="Path_581-2" d="M-20205-19826l104 48-104 48-104-48z" class="cls-5" data-name="Path 581" transform="translate(20661 20010)"/>
        </g>
        <g id="Group_1245" data-name="Group 1245" transform="translate(8 355.076)">
            <g class="cls-12" transform="translate(96 284.92)">
                <path id="Path_578-2" d="M-20245-19826l64 29.539-64 29.537-64-29.537z" class="cls-1" data-name="Path 578" transform="translate(20597 19942.92)"/>
            </g>
            <path id="Path_579" d="M-20245-19926.463v123.848l-64-29.539z" class="cls-1" data-name="Path 579" transform="translate(20693 20263.539)"/>
            <path id="Path_580" d="M-20309-19926.463v123.848l64-29.539z" class="cls-6" data-name="Path 580" transform="translate(20757 20263.539)"/>
        </g>
        <path id="Path_582" d="M-20205-19946v208l-104-48z" class="cls-7" data-name="Path 582" transform="translate(20765 20658)"/>
        <path id="Path_583" d="M-20309-19946v208l104-48z" class="cls-8" data-name="Path 583" transform="translate(20869 20658)"/>
        <path id="Path_592" d="M-20205-19826v96l-104-48z" class="cls-9" data-name="Path 592" transform="translate(20765 20650)"/>
        <path id="Path_593" d="M-20309-19826v96l104-48z" class="cls-10" data-name="Path 593" transform="translate(20869 20650)"/>
        <g id="Group_1246" data-name="Group 1246" transform="translate(40 520)">
            <g class="cls-11" transform="translate(64 120)">
                <path id="Path_584-2" d="M-20277-19826l32 14.77-32 14.77-32-14.77z" class="cls-1" data-name="Path 584" transform="translate(20629 20071)"/>
            </g>
            <path id="Path_585" d="M-20277-19921.23v66.922l-32-14.77z" class="cls-1" data-name="Path 585" transform="translate(20693 20248.77)"/>
            <path id="Path_586" d="M-20309-19921.23v66.922l32-14.77z" class="cls-6" data-name="Path 586" transform="translate(20725 20248.77)"/>
        </g>
    </g>
</svg>
