<svg width="520" height="432" viewBox="0 0 520 432" fill="none" xmlns="http://www.w3.org/2000/svg">
<g clip-path="url(#clip0)">
<g opacity="0.2">
<path opacity="0.2" d="M375 290C375 288.343 373.657 287 372 287C370.343 287 369 288.343 369 290C369 291.657 370.343 293 372 293C373.657 293 375 291.657 375 290Z" fill="#A9B5C7"/>
<path opacity="0.2" d="M471 290C471 288.343 469.657 287 468 287C466.343 287 465 288.343 465 290C465 291.657 466.343 293 468 293C469.657 293 471 291.657 471 290Z" fill="#A9B5C7"/>
<path opacity="0.2" d="M471 274C471 272.343 469.657 271 468 271C466.343 271 465 272.343 465 274C465 275.657 466.343 277 468 277C469.657 277 471 275.657 471 274Z" fill="#A9B5C7"/>
<path opacity="0.2" d="M375 274C375 272.343 373.657 271 372 271C370.343 271 369 272.343 369 274C369 275.657 370.343 277 372 277C373.657 277 375 275.657 375 274Z" fill="#A9B5C7"/>
<path opacity="0.2" d="M375 258C375 256.343 373.657 255 372 255C370.343 255 369 256.343 369 258C369 259.657 370.343 261 372 261C373.657 261 375 259.657 375 258Z" fill="#A9B5C7"/>
<path opacity="0.2" d="M375 242C375 240.343 373.657 239 372 239C370.343 239 369 240.343 369 242C369 243.657 370.343 245 372 245C373.657 245 375 243.657 375 242Z" fill="#A9B5C7"/>
<path opacity="0.2" d="M375 226C375 224.343 373.657 223 372 223C370.343 223 369 224.343 369 226C369 227.657 370.343 229 372 229C373.657 229 375 227.657 375 226Z" fill="#A9B5C7"/>
<path opacity="0.2" d="M360 290C360 288.895 359.105 288 358 288C356.895 288 356 288.895 356 290C356 291.105 356.895 292 358 292C359.105 292 360 291.105 360 290Z" fill="#A9B5C7"/>
<path opacity="0.2" d="M360 274C360 272.895 359.105 272 358 272C356.895 272 356 272.895 356 274C356 275.105 356.895 276 358 276C359.105 276 360 275.105 360 274Z" fill="#A9B5C7"/>
<path opacity="0.2" d="M360 258C360 256.895 359.105 256 358 256C356.895 256 356 256.895 356 258C356 259.105 356.895 260 358 260C359.105 260 360 259.105 360 258Z" fill="#A9B5C7"/>
<path opacity="0.2" d="M360 242C360 240.895 359.105 240 358 240C356.895 240 356 240.895 356 242C356 243.105 356.895 244 358 244C359.105 244 360 243.105 360 242Z" fill="#A9B5C7"/>
<path opacity="0.2" d="M360 226C360 224.895 359.105 224 358 224C356.895 224 356 224.895 356 226C356 227.105 356.895 228 358 228C359.105 228 360 227.105 360 226Z" fill="#A9B5C7"/>
<path opacity="0.2" d="M392 290C392 287.791 390.209 286 388 286C385.791 286 384 287.791 384 290C384 292.209 385.791 294 388 294C390.209 294 392 292.209 392 290Z" fill="#A9B5C7"/>
<path opacity="0.2" d="M392 274C392 271.791 390.209 270 388 270C385.791 270 384 271.791 384 274C384 276.209 385.791 278 388 278C390.209 278 392 276.209 392 274Z" fill="#A9B5C7"/>
<path opacity="0.2" d="M392 258C392 255.791 390.209 254 388 254C385.791 254 384 255.791 384 258C384 260.209 385.791 262 388 262C390.209 262 392 260.209 392 258Z" fill="#A9B5C7"/>
<path opacity="0.2" d="M392 242C392 239.791 390.209 238 388 238C385.791 238 384 239.791 384 242C384 244.209 385.791 246 388 246C390.209 246 392 244.209 392 242Z" fill="#A9B5C7"/>
<path opacity="0.2" d="M392 226C392 223.791 390.209 222 388 222C385.791 222 384 223.791 384 226C384 228.209 385.791 230 388 230C390.209 230 392 228.209 392 226Z" fill="#A9B5C7"/>
<path opacity="0.2" d="M452 303C450.343 303 449 304.343 449 306C449 307.657 450.343 309 452 309C453.657 309 455 307.657 455 306C455 304.343 453.657 303 452 303Z" fill="#A9B5C7"/>
<path opacity="0.2" d="M468 303C466.343 303 465 304.343 465 306C465 307.657 466.343 309 468 309C469.657 309 471 307.657 471 306C471 304.343 469.657 303 468 303Z" fill="#A9B5C7"/>
<path opacity="0.2" d="M436 303C434.343 303 433 304.343 433 306C433 307.657 434.343 309 436 309C437.657 309 439 307.657 439 306C439 304.343 437.657 303 436 303Z" fill="#A9B5C7"/>
<path opacity="0.2" d="M420 303C418.343 303 417 304.343 417 306C417 307.657 418.343 309 420 309C421.657 309 423 307.657 423 306C423 304.343 421.657 303 420 303Z" fill="#A9B5C7"/>
<path opacity="0.2" d="M404 303C402.343 303 401 304.343 401 306C401 307.657 402.343 309 404 309C405.657 309 407 307.657 407 306C407 304.343 405.657 303 404 303Z" fill="#A9B5C7"/>
<path opacity="0.2" d="M388 303C386.343 303 385 304.343 385 306C385 307.657 386.343 309 388 309C389.657 309 391 307.657 391 306C391 304.343 389.657 303 388 303Z" fill="#A9B5C7"/>
<path opacity="0.2" d="M372 303C370.343 303 369 304.343 369 306C369 307.657 370.343 309 372 309C373.657 309 375 307.657 375 306C375 304.343 373.657 303 372 303Z" fill="#A9B5C7"/>
<path opacity="0.2" d="M452 318C450.895 318 450 318.895 450 320C450 321.105 450.895 322 452 322C453.105 322 454 321.105 454 320C454 318.895 453.105 318 452 318Z" fill="#A9B5C7"/>
<path opacity="0.2" d="M482 288C480.895 288 480 288.895 480 290C480 291.105 480.895 292 482 292C483.105 292 484 291.105 484 290C484 288.895 483.105 288 482 288Z" fill="#A9B5C7"/>
<path opacity="0.2" d="M482 272C480.895 272 480 272.895 480 274C480 275.105 480.895 276 482 276C483.105 276 484 275.105 484 274C484 272.895 483.105 272 482 272Z" fill="#A9B5C7"/>
<path opacity="0.2" d="M436 318C434.895 318 434 318.895 434 320C434 321.105 434.895 322 436 322C437.105 322 438 321.105 438 320C438 318.895 437.105 318 436 318Z" fill="#A9B5C7"/>
<path opacity="0.2" d="M420 318C418.895 318 418 318.895 418 320C418 321.105 418.895 322 420 322C421.105 322 422 321.105 422 320C422 318.895 421.105 318 420 318Z" fill="#A9B5C7"/>
<path opacity="0.2" d="M404 318C402.895 318 402 318.895 402 320C402 321.105 402.895 322 404 322C405.105 322 406 321.105 406 320C406 318.895 405.105 318 404 318Z" fill="#A9B5C7"/>
<path opacity="0.2" d="M388 318C386.895 318 386 318.895 386 320C386 321.105 386.895 322 388 322C389.105 322 390 321.105 390 320C390 318.895 389.105 318 388 318Z" fill="#A9B5C7"/>
<path opacity="0.2" d="M452 286C449.791 286 448 287.791 448 290C448 292.209 449.791 294 452 294C454.209 294 456 292.209 456 290C456 287.791 454.209 286 452 286Z" fill="#A9B5C7"/>
<path opacity="0.2" d="M436 286C433.791 286 432 287.791 432 290C432 292.209 433.791 294 436 294C438.209 294 440 292.209 440 290C440 287.791 438.209 286 436 286Z" fill="#A9B5C7"/>
<path opacity="0.2" d="M420 286C417.791 286 416 287.791 416 290C416 292.209 417.791 294 420 294C422.209 294 424 292.209 424 290C424 287.791 422.209 286 420 286Z" fill="#A9B5C7"/>
<path opacity="0.2" d="M404 286C401.791 286 400 287.791 400 290C400 292.209 401.791 294 404 294C406.209 294 408 292.209 408 290C408 287.791 406.209 286 404 286Z" fill="#A9B5C7"/>
<path opacity="0.2" d="M404 269C401.239 269 399 271.239 399 274C399 276.761 401.239 279 404 279C406.761 279 409 276.761 409 274C409 271.239 406.761 269 404 269Z" fill="#A9B5C7"/>
<path opacity="0.2" d="M420 269C417.239 269 415 271.239 415 274C415 276.761 417.239 279 420 279C422.761 279 425 276.761 425 274C425 271.239 422.761 269 420 269Z" fill="#A9B5C7"/>
<path opacity="0.2" d="M436 269C433.239 269 431 271.239 431 274C431 276.761 433.239 279 436 279C438.761 279 441 276.761 441 274C441 271.239 438.761 269 436 269Z" fill="#A9B5C7"/>
<path opacity="0.2" d="M452 269C449.239 269 447 271.239 447 274C447 276.761 449.239 279 452 279C454.761 279 457 276.761 457 274C457 271.239 454.761 269 452 269Z" fill="#A9B5C7"/>
<path opacity="0.2" d="M404 253C401.239 253 399 255.239 399 258C399 260.761 401.239 263 404 263C406.761 263 409 260.761 409 258C409 255.239 406.761 253 404 253Z" fill="#A9B5C7"/>
<path opacity="0.2" d="M420 253C417.239 253 415 255.239 415 258C415 260.761 417.239 263 420 263C422.761 263 425 260.761 425 258C425 255.239 422.761 253 420 253Z" fill="#A9B5C7"/>
<path opacity="0.2" d="M436 252C432.686 252 430 254.686 430 258C430 261.314 432.686 264 436 264C439.314 264 442 261.314 442 258C442 254.686 439.314 252 436 252Z" fill="#A9B5C7"/>
<path opacity="0.2" d="M388 286C385.791 286 384 287.791 384 290C384 292.209 385.791 294 388 294C390.209 294 392 292.209 392 290C392 287.791 390.209 286 388 286Z" fill="#A9B5C7"/>
</g>
<path d="M376 264C411.346 264 440 235.346 440 200C440 164.654 411.346 136 376 136C340.654 136 312 164.654 312 200C312 235.346 340.654 264 376 264Z" fill="url(#paint0_linear)"/>
<path d="M472 264C525.019 264 568 221.019 568 168C568 114.981 525.019 72 472 72C418.981 72 376 114.981 376 168C376 221.019 418.981 264 472 264Z" fill="url(#paint1_linear)"/>
<path d="M348 112C354.627 112 360 106.627 360 100C360 93.3726 354.627 88 348 88C341.373 88 336 93.3726 336 100C336 106.627 341.373 112 348 112Z" fill="url(#paint2_linear)"/>
<path d="M375.998 168C375.987 157.179 377.808 146.435 381.383 136.222C397.368 137.573 412.263 144.878 423.118 156.689C433.973 168.501 439.998 183.958 439.998 200C440.008 209.025 438.105 217.949 434.414 226.185C430.723 234.42 425.328 241.779 418.584 247.777C405.473 239.007 394.727 227.138 387.299 213.222C379.871 199.307 375.989 183.774 375.998 168V168Z" fill="url(#paint3_linear)"/>
<path d="M492.935 177.967C492.935 175.138 490.909 173.273 488.415 173.273L481.012 173.273L481.012 175.697L488.431 175.697C489.709 175.697 490.737 176.521 490.737 177.982C490.737 179.381 489.709 180.19 488.431 180.19L481.012 180.19L481.012 182.77L488.415 182.77C490.909 182.77 492.935 180.905 492.935 177.967Z" fill="white"/>
<path d="M492.935 167.089C492.935 164.493 491.532 162.721 489.303 162.721C487.355 162.721 486.186 164.011 485.75 166.141L485.5 167.26C485.251 168.379 484.83 168.815 484.191 168.815C483.412 168.815 482.898 168.224 482.898 167.136C482.898 165.923 483.49 165.348 484.285 165.146L484.285 163.125L483.1 163.125C481.666 163.452 480.778 164.928 480.778 167.074C480.778 169.638 482.087 171.317 484.332 171.317C486.217 171.317 487.355 170.136 487.776 168.006L487.979 166.934C488.244 165.752 488.68 165.224 489.444 165.224C490.316 165.224 490.815 165.954 490.815 167.042C490.815 168.286 490.27 169.032 489.397 169.343L489.397 171.379L490.566 171.379C491.859 170.882 492.935 169.499 492.935 167.089Z" fill="white"/>
<path d="M492.701 160.802L492.701 156.713C492.701 153.123 490.051 150.9 486.81 150.9C483.615 150.9 481.012 153.123 481.012 156.713L481.012 160.802L492.701 160.802ZM490.503 158.221L483.209 158.221L483.209 156.76C483.209 154.724 484.83 153.558 486.81 153.558C488.851 153.558 490.503 154.724 490.503 156.76L490.503 158.221Z" fill="white"/>
<path d="M465.858 165.21C467.045 165.21 468.007 166.168 468.007 167.351C468.007 168.533 467.045 169.492 465.858 169.492H460.279C454.876 169.492 450.497 165.128 450.497 159.746C450.497 154.363 454.876 150 460.279 150H474.666C475.852 150 476.815 150.959 476.815 152.141C476.815 153.323 475.852 154.282 474.666 154.282H460.279C457.25 154.282 454.795 156.728 454.795 159.746C454.795 162.763 457.25 165.21 460.279 165.21H465.858Z" fill="white"/>
<path d="M461.454 169.492C460.267 169.492 459.305 168.533 459.305 167.351C459.305 166.168 460.267 165.21 461.454 165.21H467.032C472.435 165.21 476.815 169.573 476.815 174.956C476.815 180.338 472.435 184.701 467.032 184.701H452.646C451.459 184.701 450.497 183.743 450.497 182.56C450.497 181.378 451.459 180.419 452.646 180.419H467.032C470.061 180.419 472.517 177.973 472.517 174.956C472.517 171.938 470.061 169.492 467.032 169.492H461.454Z" fill="white"/>
<path d="M454.344 183.838L450.85 181.344L472.825 150.792L476.319 153.286L454.344 183.838Z" fill="white" fill-opacity="0.5"/>
</g>
<defs>
<linearGradient id="paint0_linear" x1="376" y1="264" x2="376" y2="136" gradientUnits="userSpaceOnUse">
<stop stop-color="#FCD6FF"/>
<stop offset="1" stop-color="#96C2F6"/>
</linearGradient>
<linearGradient id="paint1_linear" x1="472" y1="264" x2="472" y2="72" gradientUnits="userSpaceOnUse">
<stop stop-color="#08070B"/>
<stop offset="1" stop-color="#918AAD"/>
</linearGradient>
<linearGradient id="paint2_linear" x1="348" y1="112" x2="348" y2="88" gradientUnits="userSpaceOnUse">
<stop stop-color="#8CBAF2"/>
<stop offset="1" stop-color="#E5E9F9"/>
</linearGradient>
<linearGradient id="paint3_linear" x1="414.078" y1="247.777" x2="414.078" y2="136.222" gradientUnits="userSpaceOnUse">
<stop stop-color="#46B251"/>
<stop offset="1" stop-color="#E2FFEC"/>
</linearGradient>
<clipPath id="clip0">
<rect width="520" height="432" fill="white"/>
</clipPath>
</defs>
</svg>
