<svg xmlns="http://www.w3.org/2000/svg" width="520" height="432" viewBox="0 0 520 432">
<style type="text/css">
	.st0{opacity:0.2;}
	.st1{fill:#A9B5C7;}
	.st2{fill:url(#Ellipse_125_1_);}
	.st3{fill:url(#Ellipse_127_1_);}
	.st4{fill:url(#Ellipse_126_1_);}
	.st5{fill:url(#Intersection_3_1_);}
	.st6{fill:#725DA7;}
	.st7{fill:#FFFFFF;}
</style>
<g>
	<g id="bg_tile_sai" transform="translate(-104 -640)">
		<g id="Group_1238" transform="translate(84 18)" class="st0">
			<circle id="Ellipse_112" class="st1" cx="392" cy="912" r="3"/>
			<circle id="Ellipse_145" class="st1" cx="488" cy="912" r="3"/>
			<circle id="Ellipse_147" class="st1" cx="488" cy="896" r="3"/>
			<circle id="Ellipse_113" class="st1" cx="392" cy="896" r="3"/>
			<circle id="Ellipse_114" class="st1" cx="392" cy="880" r="3"/>
			<circle id="Ellipse_115" class="st1" cx="392" cy="864" r="3"/>
			<circle id="Ellipse_116" class="st1" cx="392" cy="848" r="3"/>
			<circle id="Ellipse_112-2" class="st1" cx="378" cy="912" r="2"/>
			<circle id="Ellipse_113-2" class="st1" cx="378" cy="896" r="2"/>
			<circle id="Ellipse_114-2" class="st1" cx="378" cy="880" r="2"/>
			<circle id="Ellipse_115-2" class="st1" cx="378" cy="864" r="2"/>
			<circle id="Ellipse_116-2" class="st1" cx="378" cy="848" r="2"/>
			<circle id="Ellipse_112-3" class="st1" cx="408" cy="912" r="4"/>
			<circle id="Ellipse_113-3" class="st1" cx="408" cy="896" r="4"/>
			<circle id="Ellipse_114-3" class="st1" cx="408" cy="880" r="4"/>
			<circle id="Ellipse_115-3" class="st1" cx="408" cy="864" r="4"/>
			<circle id="Ellipse_116-3" class="st1" cx="408" cy="848" r="4"/>
			<circle id="Ellipse_112-4" class="st1" cx="472" cy="928" r="3"/>
			<circle id="Ellipse_146" class="st1" cx="488" cy="928" r="3"/>
			<circle id="Ellipse_113-4" class="st1" cx="456" cy="928" r="3"/>
			<circle id="Ellipse_114-4" class="st1" cx="440" cy="928" r="3"/>
			<circle id="Ellipse_115-4" class="st1" cx="424" cy="928" r="3"/>
			<circle id="Ellipse_116-4" class="st1" cx="408" cy="928" r="3"/>
			<circle id="Ellipse_136" class="st1" cx="392" cy="928" r="3"/>
			<circle id="Ellipse_112-5" class="st1" cx="472" cy="942" r="2"/>
			<circle id="Ellipse_144" class="st1" cx="502" cy="912" r="2"/>
			<circle id="Ellipse_148" class="st1" cx="502" cy="896" r="2"/>
			<circle id="Ellipse_113-5" class="st1" cx="456" cy="942" r="2"/>
			<circle id="Ellipse_114-5" class="st1" cx="440" cy="942" r="2"/>
			<circle id="Ellipse_115-5" class="st1" cx="424" cy="942" r="2"/>
			<circle id="Ellipse_116-5" class="st1" cx="408" cy="942" r="2"/>
			<circle id="Ellipse_112-6" class="st1" cx="472" cy="912" r="4"/>
			<circle id="Ellipse_113-6" class="st1" cx="456" cy="912" r="4"/>
			<circle id="Ellipse_114-6" class="st1" cx="440" cy="912" r="4"/>
			<circle id="Ellipse_115-6" class="st1" cx="424" cy="912" r="4"/>
			<circle id="Ellipse_137" class="st1" cx="424" cy="896" r="5"/>
			<circle id="Ellipse_138" class="st1" cx="440" cy="896" r="5"/>
			<circle id="Ellipse_140" class="st1" cx="456" cy="896" r="5"/>
			<circle id="Ellipse_141" class="st1" cx="472" cy="896" r="5"/>
			<circle id="Ellipse_139" class="st1" cx="424" cy="880" r="5"/>
			<circle id="Ellipse_142" class="st1" cx="440" cy="880" r="5"/>
			<circle id="Ellipse_143" class="st1" cx="456" cy="880" r="6"/>
			<circle id="Ellipse_116-6" class="st1" cx="408" cy="912" r="4"/>
		</g>
		
			<linearGradient id="Ellipse_125_1_" gradientUnits="userSpaceOnUse" x1="269.6563" y1="7.4062" x2="269.6563" y2="6.4062" gradientTransform="matrix(128 0 0 128 -34036 -43.9991)">
			<stop  offset="0" style="stop-color:#FAE46A"/>
			<stop  offset="1" style="stop-color:#FDF7BF"/>
		</linearGradient>
		<circle id="Ellipse_125" class="st2" cx="480" cy="840" r="64"/>
		
			<linearGradient id="Ellipse_127_1_" gradientUnits="userSpaceOnUse" x1="269.1458" y1="5.2703" x2="269.1458" y2="4.2709" gradientTransform="matrix(192 0 0 192 -51124 -108.0065)">
			<stop  offset="0" style="stop-color:#557EBF"/>
			<stop  offset="1" style="stop-color:#E7E9F5"/>
		</linearGradient>
		<path id="Ellipse_127" class="st3" d="M576,712c17.5,0,33.9,4.7,48,12.8l0,0v166.3l0,0c-14.1,8.2-30.5,12.8-48,12.8
			c-53,0-96-43-96-96S523,712,576,712z"/>
		
			<linearGradient id="Ellipse_126_1_" gradientUnits="userSpaceOnUse" x1="274.6667" y1="35.1667" x2="274.6667" y2="34.1667" gradientTransform="matrix(24 0 0 24 -6140 -92.0008)">
			<stop  offset="0" style="stop-color:#8CBAF2"/>
			<stop  offset="1" style="stop-color:#E5E9F9"/>
		</linearGradient>
		<circle id="Ellipse_126" class="st4" cx="452" cy="740" r="12"/>
		
			<linearGradient id="Intersection_3_1_" gradientUnits="userSpaceOnUse" x1="270.8125" y1="8.3509" x2="270.8125" y2="7.3505" gradientTransform="matrix(64.0001 0 0 111.555 -16820.0273 -43.7817)">
			<stop  offset="0" style="stop-color:#75C061"/>
			<stop  offset="1" style="stop-color:#C2E2C7"/>
		</linearGradient>
		<path id="Intersection_3" class="st5" d="M480,808c0-10.8,1.8-21.6,5.4-31.8C518.5,779,544,806.7,544,840
			c0,18.3-7.8,35.6-21.4,47.8C496,870,480,840,480,808z"/>
	</g>
</g>
<g id="ic_token_zrx" transform="translate(-32 -376)">
	<path id="Rectangle_412" class="st6" d="M504,511.8L504,511.8c17.7,0,32,14.3,32,32l0,0c0,17.7-14.3,32-32,32l0,0
		c-17.7,0-32-14.3-32-32l0,0C472,526.1,486.3,511.8,504,511.8z"/>
	<g id="Group_404" transform="translate(46 390)">
		<path id="Path_331" class="st7" d="M457.4,135.8h1.1c0.7,0,1.4,0.1,2,0.2c2.3,0.3,4.5,1.1,6.5,2.3c-0.5,0.4-1,0.7-1.4,1
			c-3.2,2.3-6.4,4.6-9.6,6.9c-0.3-0.2-0.5-0.5-0.7-0.7c-0.7-0.7-1.4-1.4-2.2-2.1c-0.3,0.1-0.5,0.2-0.8,0.4c-1.7,0.9-3.1,2.3-4.1,3.9
			c-1.3-1.7-2.6-3.4-3.9-5.2c0-0.1-0.1-0.1-0.1-0.2c0.5-0.6,1-1.1,1.5-1.6c2.8-2.6,6.3-4.2,10.1-4.7
			C456.4,135.9,456.9,135.9,457.4,135.8z M466.1,142.5c1.1-0.9,2.3-1.7,3.4-2.5c5.5,4.6,7.7,12,5.7,18.9c-0.4,1.3-0.9,2.6-1.6,3.8
			c-0.1-0.1-0.2-0.2-0.3-0.3l-6.5-8.6c-0.4-0.6-0.9-1.1-1.3-1.7c1-1,1.9-2,2.9-3c-0.7-1.4-1.6-2.7-2.8-3.8c-0.5-0.4-1-0.8-1.5-1.1
			C464.8,143.5,465.5,143,466.1,142.5 M441.3,147.2c0.3-0.8,0.7-1.6,1.1-2.3c0.6,0.8,1.2,1.6,1.9,2.4l5.9,7.8
			c0.1,0.2,0.3,0.3,0.4,0.5c-1,1-2,2.1-3,3.1c0.3,0.6,0.6,1.1,0.9,1.6c0.5,0.8,1.1,1.4,1.8,2.1c0.5,0.4,1,0.9,1.6,1.2
			c-0.5,0.4-1,0.8-1.5,1.1c-0.9,0.7-1.8,1.3-2.6,2c-0.4,0.3-0.8,0.6-1.3,0.9c-2.8-2.4-4.8-5.5-5.8-9.1c-0.4-1.4-0.6-2.8-0.6-4.3
			v-0.9c0-0.3,0-0.6,0.1-0.9C440.2,150.6,440.6,148.9,441.3,147.2L441.3,147.2z M466.6,161.5c0.4-0.5,0.8-1,1.2-1.6
			c0.4,0.5,0.8,1,1.2,1.5c1,1.3,1.9,2.5,2.8,3.8c-0.3,0.4-0.6,0.7-0.9,1c-2.6,2.7-6,4.5-9.7,5.2c-0.9,0.2-1.7,0.2-2.6,0.3h-1.3
			c-0.4,0-0.8-0.1-1.2-0.1c-2.5-0.3-5-1.1-7.2-2.3c0.7-0.6,1.5-1.1,2.3-1.7l8.6-6.4c0.5,0.4,0.9,0.9,1.4,1.4
			c0.6,0.5,1.1,1.1,1.7,1.6C464.3,163.6,465.5,162.7,466.6,161.5"/>
	</g>
</g>
</svg>
