<svg width="520" height="432" viewBox="0 0 520 432" fill="none" xmlns="http://www.w3.org/2000/svg">
<g opacity="0.2">
<path opacity="0.2" d="M372 293C373.657 293 375 291.657 375 290C375 288.343 373.657 287 372 287C370.343 287 369 288.343 369 290C369 291.657 370.343 293 372 293Z" fill="#A9B5C7"/>
<path opacity="0.2" d="M468 293C469.657 293 471 291.657 471 290C471 288.343 469.657 287 468 287C466.343 287 465 288.343 465 290C465 291.657 466.343 293 468 293Z" fill="#A9B5C7"/>
<path opacity="0.2" d="M468 277C469.657 277 471 275.657 471 274C471 272.343 469.657 271 468 271C466.343 271 465 272.343 465 274C465 275.657 466.343 277 468 277Z" fill="#A9B5C7"/>
<path opacity="0.2" d="M372 277C373.657 277 375 275.657 375 274C375 272.343 373.657 271 372 271C370.343 271 369 272.343 369 274C369 275.657 370.343 277 372 277Z" fill="#A9B5C7"/>
<path opacity="0.2" d="M372 261C373.657 261 375 259.657 375 258C375 256.343 373.657 255 372 255C370.343 255 369 256.343 369 258C369 259.657 370.343 261 372 261Z" fill="#A9B5C7"/>
<path opacity="0.2" d="M372 245C373.657 245 375 243.657 375 242C375 240.343 373.657 239 372 239C370.343 239 369 240.343 369 242C369 243.657 370.343 245 372 245Z" fill="#A9B5C7"/>
<path opacity="0.2" d="M372 229C373.657 229 375 227.657 375 226C375 224.343 373.657 223 372 223C370.343 223 369 224.343 369 226C369 227.657 370.343 229 372 229Z" fill="#A9B5C7"/>
<path opacity="0.2" d="M358 292C359.105 292 360 291.105 360 290C360 288.895 359.105 288 358 288C356.895 288 356 288.895 356 290C356 291.105 356.895 292 358 292Z" fill="#A9B5C7"/>
<path opacity="0.2" d="M358 276C359.105 276 360 275.105 360 274C360 272.895 359.105 272 358 272C356.895 272 356 272.895 356 274C356 275.105 356.895 276 358 276Z" fill="#A9B5C7"/>
<path opacity="0.2" d="M358 260C359.105 260 360 259.105 360 258C360 256.895 359.105 256 358 256C356.895 256 356 256.895 356 258C356 259.105 356.895 260 358 260Z" fill="#A9B5C7"/>
<path opacity="0.2" d="M358 244C359.105 244 360 243.105 360 242C360 240.895 359.105 240 358 240C356.895 240 356 240.895 356 242C356 243.105 356.895 244 358 244Z" fill="#A9B5C7"/>
<path opacity="0.2" d="M358 228C359.105 228 360 227.105 360 226C360 224.895 359.105 224 358 224C356.895 224 356 224.895 356 226C356 227.105 356.895 228 358 228Z" fill="#A9B5C7"/>
<path opacity="0.2" d="M388 294C390.209 294 392 292.209 392 290C392 287.791 390.209 286 388 286C385.791 286 384 287.791 384 290C384 292.209 385.791 294 388 294Z" fill="#A9B5C7"/>
<path opacity="0.2" d="M388 278C390.209 278 392 276.209 392 274C392 271.791 390.209 270 388 270C385.791 270 384 271.791 384 274C384 276.209 385.791 278 388 278Z" fill="#A9B5C7"/>
<path opacity="0.2" d="M388 262C390.209 262 392 260.209 392 258C392 255.791 390.209 254 388 254C385.791 254 384 255.791 384 258C384 260.209 385.791 262 388 262Z" fill="#A9B5C7"/>
<path opacity="0.2" d="M388 246C390.209 246 392 244.209 392 242C392 239.791 390.209 238 388 238C385.791 238 384 239.791 384 242C384 244.209 385.791 246 388 246Z" fill="#A9B5C7"/>
<path opacity="0.2" d="M388 230C390.209 230 392 228.209 392 226C392 223.791 390.209 222 388 222C385.791 222 384 223.791 384 226C384 228.209 385.791 230 388 230Z" fill="#A9B5C7"/>
<path opacity="0.2" d="M452 309C453.657 309 455 307.657 455 306C455 304.343 453.657 303 452 303C450.343 303 449 304.343 449 306C449 307.657 450.343 309 452 309Z" fill="#A9B5C7"/>
<path opacity="0.2" d="M468 309C469.657 309 471 307.657 471 306C471 304.343 469.657 303 468 303C466.343 303 465 304.343 465 306C465 307.657 466.343 309 468 309Z" fill="#A9B5C7"/>
<path opacity="0.2" d="M436 309C437.657 309 439 307.657 439 306C439 304.343 437.657 303 436 303C434.343 303 433 304.343 433 306C433 307.657 434.343 309 436 309Z" fill="#A9B5C7"/>
<path opacity="0.2" d="M420 309C421.657 309 423 307.657 423 306C423 304.343 421.657 303 420 303C418.343 303 417 304.343 417 306C417 307.657 418.343 309 420 309Z" fill="#A9B5C7"/>
<path opacity="0.2" d="M404 309C405.657 309 407 307.657 407 306C407 304.343 405.657 303 404 303C402.343 303 401 304.343 401 306C401 307.657 402.343 309 404 309Z" fill="#A9B5C7"/>
<path opacity="0.2" d="M388 309C389.657 309 391 307.657 391 306C391 304.343 389.657 303 388 303C386.343 303 385 304.343 385 306C385 307.657 386.343 309 388 309Z" fill="#A9B5C7"/>
<path opacity="0.2" d="M372 309C373.657 309 375 307.657 375 306C375 304.343 373.657 303 372 303C370.343 303 369 304.343 369 306C369 307.657 370.343 309 372 309Z" fill="#A9B5C7"/>
<path opacity="0.2" d="M452 322C453.105 322 454 321.105 454 320C454 318.895 453.105 318 452 318C450.895 318 450 318.895 450 320C450 321.105 450.895 322 452 322Z" fill="#A9B5C7"/>
<path opacity="0.2" d="M482 292C483.105 292 484 291.105 484 290C484 288.895 483.105 288 482 288C480.895 288 480 288.895 480 290C480 291.105 480.895 292 482 292Z" fill="#A9B5C7"/>
<path opacity="0.2" d="M482 276C483.105 276 484 275.105 484 274C484 272.895 483.105 272 482 272C480.895 272 480 272.895 480 274C480 275.105 480.895 276 482 276Z" fill="#A9B5C7"/>
<path opacity="0.2" d="M436 322C437.105 322 438 321.105 438 320C438 318.895 437.105 318 436 318C434.895 318 434 318.895 434 320C434 321.105 434.895 322 436 322Z" fill="#A9B5C7"/>
<path opacity="0.2" d="M420 322C421.105 322 422 321.105 422 320C422 318.895 421.105 318 420 318C418.895 318 418 318.895 418 320C418 321.105 418.895 322 420 322Z" fill="#A9B5C7"/>
<path opacity="0.2" d="M404 322C405.105 322 406 321.105 406 320C406 318.895 405.105 318 404 318C402.895 318 402 318.895 402 320C402 321.105 402.895 322 404 322Z" fill="#A9B5C7"/>
<path opacity="0.2" d="M388 322C389.105 322 390 321.105 390 320C390 318.895 389.105 318 388 318C386.895 318 386 318.895 386 320C386 321.105 386.895 322 388 322Z" fill="#A9B5C7"/>
<path opacity="0.2" d="M452 294C454.209 294 456 292.209 456 290C456 287.791 454.209 286 452 286C449.791 286 448 287.791 448 290C448 292.209 449.791 294 452 294Z" fill="#A9B5C7"/>
<path opacity="0.2" d="M436 294C438.209 294 440 292.209 440 290C440 287.791 438.209 286 436 286C433.791 286 432 287.791 432 290C432 292.209 433.791 294 436 294Z" fill="#A9B5C7"/>
<path opacity="0.2" d="M420 294C422.209 294 424 292.209 424 290C424 287.791 422.209 286 420 286C417.791 286 416 287.791 416 290C416 292.209 417.791 294 420 294Z" fill="#A9B5C7"/>
<path opacity="0.2" d="M404 294C406.209 294 408 292.209 408 290C408 287.791 406.209 286 404 286C401.791 286 400 287.791 400 290C400 292.209 401.791 294 404 294Z" fill="#A9B5C7"/>
<path opacity="0.2" d="M404 279C406.761 279 409 276.761 409 274C409 271.239 406.761 269 404 269C401.239 269 399 271.239 399 274C399 276.761 401.239 279 404 279Z" fill="#A9B5C7"/>
<path opacity="0.2" d="M420 279C422.761 279 425 276.761 425 274C425 271.239 422.761 269 420 269C417.239 269 415 271.239 415 274C415 276.761 417.239 279 420 279Z" fill="#A9B5C7"/>
<path opacity="0.2" d="M436 279C438.761 279 441 276.761 441 274C441 271.239 438.761 269 436 269C433.239 269 431 271.239 431 274C431 276.761 433.239 279 436 279Z" fill="#A9B5C7"/>
<path opacity="0.2" d="M452 279C454.761 279 457 276.761 457 274C457 271.239 454.761 269 452 269C449.239 269 447 271.239 447 274C447 276.761 449.239 279 452 279Z" fill="#A9B5C7"/>
<path opacity="0.2" d="M404 263C406.761 263 409 260.761 409 258C409 255.239 406.761 253 404 253C401.239 253 399 255.239 399 258C399 260.761 401.239 263 404 263Z" fill="#A9B5C7"/>
<path opacity="0.2" d="M420 263C422.761 263 425 260.761 425 258C425 255.239 422.761 253 420 253C417.239 253 415 255.239 415 258C415 260.761 417.239 263 420 263Z" fill="#A9B5C7"/>
<path opacity="0.2" d="M436 264C439.314 264 442 261.314 442 258C442 254.686 439.314 252 436 252C432.686 252 430 254.686 430 258C430 261.314 432.686 264 436 264Z" fill="#A9B5C7"/>
<path opacity="0.2" d="M388 294C390.209 294 392 292.209 392 290C392 287.791 390.209 286 388 286C385.791 286 384 287.791 384 290C384 292.209 385.791 294 388 294Z" fill="#A9B5C7"/>
</g>
<path d="M376 264C411.346 264 440 235.346 440 200C440 164.654 411.346 136 376 136C340.654 136 312 164.654 312 200C312 235.346 340.654 264 376 264Z" fill="url(#paint0_linear)"/>
<path d="M472 72C489.5 72 505.9 76.7 520 84.8V251.1C505.9 259.3 489.5 263.9 472 263.9C419 263.9 376 220.9 376 167.9C376 114.9 419 72 472 72Z" fill="url(#paint1_linear)"/>
<path d="M348 112C354.627 112 360 106.627 360 100C360 93.3726 354.627 88 348 88C341.373 88 336 93.3726 336 100C336 106.627 341.373 112 348 112Z" fill="url(#paint2_linear)"/>
<path d="M376 168C376 157.2 377.8 146.4 381.4 136.2C414.5 139 440 166.7 440 200C440 218.3 432.2 235.6 418.6 247.8C392 230 376 200 376 168Z" fill="url(#paint3_linear)"/>
<path fill-rule="evenodd" clip-rule="evenodd" d="M479.139 166.762C480.817 165.854 481.866 164.255 481.621 161.591C481.291 157.951 478.333 156.73 474.598 156.383L474.597 151.333H471.704L471.703 156.25C470.941 156.25 470.165 156.266 469.393 156.282L469.392 151.334L466.501 151.334L466.5 156.382C465.874 156.395 465.259 156.408 464.658 156.408V156.393L460.667 156.392L460.667 159.674C460.667 159.674 462.804 159.631 462.769 159.673C463.94 159.674 464.323 160.396 464.433 161.02L464.434 174.853C464.382 175.244 464.165 175.87 463.346 175.871C463.383 175.906 461.241 175.871 461.241 175.871L460.667 179.541H464.432C464.892 179.542 465.346 179.547 465.795 179.552C466.031 179.555 466.267 179.557 466.499 179.559L466.502 184.666L469.392 184.667L469.391 179.614C470.186 179.631 470.954 179.638 471.704 179.637L471.703 184.667H474.596L474.598 179.569C479.462 179.272 482.867 177.97 483.29 173.117C483.632 169.21 481.901 167.466 479.139 166.762ZM469.462 159.895C469.627 159.895 469.828 159.89 470.056 159.883C472.08 159.826 476.226 159.71 476.227 162.965C476.226 166.148 471.915 166.073 469.938 166.038C469.758 166.035 469.598 166.032 469.462 166.032V159.895ZM469.461 175.896L469.462 169.13C469.658 169.13 469.896 169.124 470.166 169.117C472.592 169.055 477.573 168.929 477.573 172.512C477.574 176.015 472.395 175.937 470.025 175.902C469.812 175.899 469.622 175.896 469.461 175.896Z" fill="white"/>
<path d="M472 146.846C466.011 146.846 460.603 149.335 456.754 153.336L455.011 151.66C459.299 147.202 465.326 144.429 472 144.429C478.678 144.429 484.707 147.206 488.996 151.668L487.261 153.352C483.412 149.342 477.997 146.846 472 146.846Z" fill="white"/>
<path d="M453.424 153.488L455.177 155.173C452.46 158.731 450.846 163.177 450.846 168C450.846 173.748 453.139 178.961 456.86 182.773L455.122 184.454C450.98 180.207 448.429 174.401 448.429 168C448.429 162.527 450.294 157.489 453.424 153.488Z" fill="white"/>
<path d="M458.647 184.408L456.899 186.099C460.989 189.516 466.254 191.571 472 191.571C477.763 191.571 483.043 189.503 487.138 186.069L485.39 184.378C481.743 187.363 477.081 189.154 472 189.154C466.937 189.154 462.289 187.375 458.647 184.408Z" fill="white"/>
<path d="M488.911 184.42L487.174 182.739C490.875 178.93 493.154 173.731 493.154 168C493.154 163.186 491.546 158.747 488.837 155.192L490.583 153.497C493.709 157.496 495.571 162.531 495.571 168C495.571 174.384 493.033 180.176 488.911 184.42Z" fill="white"/>
<path fill-rule="evenodd" clip-rule="evenodd" d="M502 168C502 184.569 488.569 198 472 198C455.431 198 442 184.569 442 168C442 151.431 455.431 138 472 138C488.569 138 502 151.431 502 168ZM472 195.857C487.385 195.857 499.857 183.385 499.857 168C499.857 152.615 487.385 140.143 472 140.143C456.615 140.143 444.143 152.615 444.143 168C444.143 183.385 456.615 195.857 472 195.857Z" fill="white"/>
<defs>
<linearGradient id="paint0_linear" x1="375.996" y1="264.003" x2="375.996" y2="136.001" gradientUnits="userSpaceOnUse">
<stop stop-color="#FFD342"/>
<stop offset="1" stop-color="#FFF6B1"/>
</linearGradient>
<linearGradient id="paint1_linear" x1="423.5" y1="264" x2="423.5" y2="35" gradientUnits="userSpaceOnUse">
<stop stop-color="#884294"/>
<stop offset="1" stop-color="#E6CEEA"/>
</linearGradient>
<linearGradient id="paint2_linear" x1="348" y1="111.998" x2="348" y2="87.9983" gradientUnits="userSpaceOnUse">
<stop stop-color="#8CBAF2"/>
<stop offset="1" stop-color="#E5E9F9"/>
</linearGradient>
<linearGradient id="paint3_linear" x1="408.001" y1="247.795" x2="408.001" y2="136.195" gradientUnits="userSpaceOnUse">
<stop stop-color="#75C061"/>
<stop offset="1" stop-color="#C2E2C7"/>
</linearGradient>
</defs>
</svg>
