<svg xmlns="http://www.w3.org/2000/svg" width="520" height="432" viewBox="0 0 520 432">
<style type="text/css">
	.st0{opacity:0.2;}
	.st1{fill:#A9B5C7;}
	.st2{fill:url(#Ellipse_125_1_);}
	.st3{fill:url(#Ellipse_127_1_);}
	.st4{fill:url(#Ellipse_126_1_);}
	.st5{fill:url(#Intersection_3_1_);}
	.st6{fill:#1E69B3;}
</style>
<g>
	<g id="bg_tile_dai" transform="translate(-104 -640)">
		<g id="Group_1238" transform="translate(84 18)" class="st0">
			<circle id="Ellipse_112" class="st1" cx="392" cy="912" r="3"/>
			<circle id="Ellipse_145" class="st1" cx="488" cy="912" r="3"/>
			<circle id="Ellipse_147" class="st1" cx="488" cy="896" r="3"/>
			<circle id="Ellipse_113" class="st1" cx="392" cy="896" r="3"/>
			<circle id="Ellipse_114" class="st1" cx="392" cy="880" r="3"/>
			<circle id="Ellipse_115" class="st1" cx="392" cy="864" r="3"/>
			<circle id="Ellipse_116" class="st1" cx="392" cy="848" r="3"/>
			<circle id="Ellipse_112-2" class="st1" cx="378" cy="912" r="2"/>
			<circle id="Ellipse_113-2" class="st1" cx="378" cy="896" r="2"/>
			<circle id="Ellipse_114-2" class="st1" cx="378" cy="880" r="2"/>
			<circle id="Ellipse_115-2" class="st1" cx="378" cy="864" r="2"/>
			<circle id="Ellipse_116-2" class="st1" cx="378" cy="848" r="2"/>
			<circle id="Ellipse_112-3" class="st1" cx="408" cy="912" r="4"/>
			<circle id="Ellipse_113-3" class="st1" cx="408" cy="896" r="4"/>
			<circle id="Ellipse_114-3" class="st1" cx="408" cy="880" r="4"/>
			<circle id="Ellipse_115-3" class="st1" cx="408" cy="864" r="4"/>
			<circle id="Ellipse_116-3" class="st1" cx="408" cy="848" r="4"/>
			<circle id="Ellipse_112-4" class="st1" cx="472" cy="928" r="3"/>
			<circle id="Ellipse_146" class="st1" cx="488" cy="928" r="3"/>
			<circle id="Ellipse_113-4" class="st1" cx="456" cy="928" r="3"/>
			<circle id="Ellipse_114-4" class="st1" cx="440" cy="928" r="3"/>
			<circle id="Ellipse_115-4" class="st1" cx="424" cy="928" r="3"/>
			<circle id="Ellipse_116-4" class="st1" cx="408" cy="928" r="3"/>
			<circle id="Ellipse_136" class="st1" cx="392" cy="928" r="3"/>
			<circle id="Ellipse_112-5" class="st1" cx="472" cy="942" r="2"/>
			<circle id="Ellipse_144" class="st1" cx="502" cy="912" r="2"/>
			<circle id="Ellipse_148" class="st1" cx="502" cy="896" r="2"/>
			<circle id="Ellipse_113-5" class="st1" cx="456" cy="942" r="2"/>
			<circle id="Ellipse_114-5" class="st1" cx="440" cy="942" r="2"/>
			<circle id="Ellipse_115-5" class="st1" cx="424" cy="942" r="2"/>
			<circle id="Ellipse_116-5" class="st1" cx="408" cy="942" r="2"/>
			<circle id="Ellipse_112-6" class="st1" cx="472" cy="912" r="4"/>
			<circle id="Ellipse_113-6" class="st1" cx="456" cy="912" r="4"/>
			<circle id="Ellipse_114-6" class="st1" cx="440" cy="912" r="4"/>
			<circle id="Ellipse_115-6" class="st1" cx="424" cy="912" r="4"/>
			<circle id="Ellipse_137" class="st1" cx="424" cy="896" r="5"/>
			<circle id="Ellipse_138" class="st1" cx="440" cy="896" r="5"/>
			<circle id="Ellipse_140" class="st1" cx="456" cy="896" r="5"/>
			<circle id="Ellipse_141" class="st1" cx="472" cy="896" r="5"/>
			<circle id="Ellipse_139" class="st1" cx="424" cy="880" r="5"/>
			<circle id="Ellipse_142" class="st1" cx="440" cy="880" r="5"/>
			<circle id="Ellipse_143" class="st1" cx="456" cy="880" r="6"/>
			<circle id="Ellipse_116-6" class="st1" cx="408" cy="912" r="4"/>
		</g>
		
			<linearGradient id="Ellipse_125_1_" gradientUnits="userSpaceOnUse" x1="202.3672" y1="1271.0851" x2="202.3672" y2="1272.0851" gradientTransform="matrix(128 0 0 -128 -25423 163602.8906)">
			<stop  offset="0" style="stop-color:#F5C464"/>
			<stop  offset="1" style="stop-color:#FDF7BF"/>
		</linearGradient>
		<circle id="Ellipse_125" class="st2" cx="480" cy="840" r="64"/>
		
			<linearGradient id="Ellipse_127_1_" gradientUnits="userSpaceOnUse" x1="201.9531" y1="1272.6871" x2="201.9531" y2="1273.6866" gradientTransform="matrix(192 0 0 -192 -38223 245259.8281)">
			<stop  offset="0" style="stop-color:#00AC71"/>
			<stop  offset="1" style="stop-color:#DFF1EC"/>
		</linearGradient>
		<path id="Ellipse_127" class="st3" d="M576,712c17.5,0,33.9,4.7,48,12.8l0,0v166.3l0,0c-14.1,8.2-30.5,12.8-48,12.8
			c-53,0-96-43-96-96S523,712,576,712z"/>
		
			<linearGradient id="Ellipse_126_1_" gradientUnits="userSpaceOnUse" x1="206.125" y1="1250.2648" x2="206.125" y2="1251.2648" gradientTransform="matrix(24 0 0 -24 -4495 30758.3535)">
			<stop  offset="0" style="stop-color:#8CBAF2"/>
			<stop  offset="1" style="stop-color:#E5E9F9"/>
		</linearGradient>
		<circle id="Ellipse_126" class="st4" cx="452" cy="740" r="12"/>
		
			<linearGradient id="Intersection_3_1_" gradientUnits="userSpaceOnUse" x1="203.2344" y1="1270.3766" x2="203.2344" y2="1271.377" gradientTransform="matrix(64.0001 0 0 -111.555 -12495.0205 142604.6563)">
			<stop  offset="0" style="stop-color:#8E6FB0"/>
			<stop  offset="1" style="stop-color:#E7E9F5"/>
		</linearGradient>
		<path id="Intersection_3" class="st5" d="M480,808c0-10.8,1.8-21.6,5.4-31.8C518.5,779,544,806.7,544,840
			c0,18.3-7.8,35.6-21.4,47.8C496,870,480,840,480,808z"/>
	</g>
</g>
<path class="st6" d="M472.2,135.9l-5.8,3.4l-16,9.3l-6,3.2v32.1l5.8,3.4l16.2,9.3l5.8,3.4l5.8-3.4l15.9-9.3l5.8-3.4v-32.1l-5.8-3.4
	l-16-9.3C478,139.3,472.2,135.9,472.2,135.9z M456.1,177.2v-18.5l16-9.3l16,9.3v18.5l-16,9.3L456.1,177.2z"/>
</svg>
