<svg width="520" height="432" viewBox="0 0 520 432" fill="none" xmlns="http://www.w3.org/2000/svg">
<g opacity="0.2">
<path opacity="0.2" d="M372 293C373.657 293 375 291.657 375 290C375 288.343 373.657 287 372 287C370.343 287 369 288.343 369 290C369 291.657 370.343 293 372 293Z" fill="#A9B5C7"/>
<path opacity="0.2" d="M468 293C469.657 293 471 291.657 471 290C471 288.343 469.657 287 468 287C466.343 287 465 288.343 465 290C465 291.657 466.343 293 468 293Z" fill="#A9B5C7"/>
<path opacity="0.2" d="M468 277C469.657 277 471 275.657 471 274C471 272.343 469.657 271 468 271C466.343 271 465 272.343 465 274C465 275.657 466.343 277 468 277Z" fill="#A9B5C7"/>
<path opacity="0.2" d="M372 277C373.657 277 375 275.657 375 274C375 272.343 373.657 271 372 271C370.343 271 369 272.343 369 274C369 275.657 370.343 277 372 277Z" fill="#A9B5C7"/>
<path opacity="0.2" d="M372 261C373.657 261 375 259.657 375 258C375 256.343 373.657 255 372 255C370.343 255 369 256.343 369 258C369 259.657 370.343 261 372 261Z" fill="#A9B5C7"/>
<path opacity="0.2" d="M372 245C373.657 245 375 243.657 375 242C375 240.343 373.657 239 372 239C370.343 239 369 240.343 369 242C369 243.657 370.343 245 372 245Z" fill="#A9B5C7"/>
<path opacity="0.2" d="M372 229C373.657 229 375 227.657 375 226C375 224.343 373.657 223 372 223C370.343 223 369 224.343 369 226C369 227.657 370.343 229 372 229Z" fill="#A9B5C7"/>
<path opacity="0.2" d="M358 292C359.105 292 360 291.105 360 290C360 288.895 359.105 288 358 288C356.895 288 356 288.895 356 290C356 291.105 356.895 292 358 292Z" fill="#A9B5C7"/>
<path opacity="0.2" d="M358 276C359.105 276 360 275.105 360 274C360 272.895 359.105 272 358 272C356.895 272 356 272.895 356 274C356 275.105 356.895 276 358 276Z" fill="#A9B5C7"/>
<path opacity="0.2" d="M358 260C359.105 260 360 259.105 360 258C360 256.895 359.105 256 358 256C356.895 256 356 256.895 356 258C356 259.105 356.895 260 358 260Z" fill="#A9B5C7"/>
<path opacity="0.2" d="M358 244C359.105 244 360 243.105 360 242C360 240.895 359.105 240 358 240C356.895 240 356 240.895 356 242C356 243.105 356.895 244 358 244Z" fill="#A9B5C7"/>
<path opacity="0.2" d="M358 228C359.105 228 360 227.105 360 226C360 224.895 359.105 224 358 224C356.895 224 356 224.895 356 226C356 227.105 356.895 228 358 228Z" fill="#A9B5C7"/>
<path opacity="0.2" d="M388 294C390.209 294 392 292.209 392 290C392 287.791 390.209 286 388 286C385.791 286 384 287.791 384 290C384 292.209 385.791 294 388 294Z" fill="#A9B5C7"/>
<path opacity="0.2" d="M388 278C390.209 278 392 276.209 392 274C392 271.791 390.209 270 388 270C385.791 270 384 271.791 384 274C384 276.209 385.791 278 388 278Z" fill="#A9B5C7"/>
<path opacity="0.2" d="M388 262C390.209 262 392 260.209 392 258C392 255.791 390.209 254 388 254C385.791 254 384 255.791 384 258C384 260.209 385.791 262 388 262Z" fill="#A9B5C7"/>
<path opacity="0.2" d="M388 246C390.209 246 392 244.209 392 242C392 239.791 390.209 238 388 238C385.791 238 384 239.791 384 242C384 244.209 385.791 246 388 246Z" fill="#A9B5C7"/>
<path opacity="0.2" d="M388 230C390.209 230 392 228.209 392 226C392 223.791 390.209 222 388 222C385.791 222 384 223.791 384 226C384 228.209 385.791 230 388 230Z" fill="#A9B5C7"/>
<path opacity="0.2" d="M452 309C453.657 309 455 307.657 455 306C455 304.343 453.657 303 452 303C450.343 303 449 304.343 449 306C449 307.657 450.343 309 452 309Z" fill="#A9B5C7"/>
<path opacity="0.2" d="M468 309C469.657 309 471 307.657 471 306C471 304.343 469.657 303 468 303C466.343 303 465 304.343 465 306C465 307.657 466.343 309 468 309Z" fill="#A9B5C7"/>
<path opacity="0.2" d="M436 309C437.657 309 439 307.657 439 306C439 304.343 437.657 303 436 303C434.343 303 433 304.343 433 306C433 307.657 434.343 309 436 309Z" fill="#A9B5C7"/>
<path opacity="0.2" d="M420 309C421.657 309 423 307.657 423 306C423 304.343 421.657 303 420 303C418.343 303 417 304.343 417 306C417 307.657 418.343 309 420 309Z" fill="#A9B5C7"/>
<path opacity="0.2" d="M404 309C405.657 309 407 307.657 407 306C407 304.343 405.657 303 404 303C402.343 303 401 304.343 401 306C401 307.657 402.343 309 404 309Z" fill="#A9B5C7"/>
<path opacity="0.2" d="M388 309C389.657 309 391 307.657 391 306C391 304.343 389.657 303 388 303C386.343 303 385 304.343 385 306C385 307.657 386.343 309 388 309Z" fill="#A9B5C7"/>
<path opacity="0.2" d="M372 309C373.657 309 375 307.657 375 306C375 304.343 373.657 303 372 303C370.343 303 369 304.343 369 306C369 307.657 370.343 309 372 309Z" fill="#A9B5C7"/>
<path opacity="0.2" d="M452 322C453.105 322 454 321.105 454 320C454 318.895 453.105 318 452 318C450.895 318 450 318.895 450 320C450 321.105 450.895 322 452 322Z" fill="#A9B5C7"/>
<path opacity="0.2" d="M482 292C483.105 292 484 291.105 484 290C484 288.895 483.105 288 482 288C480.895 288 480 288.895 480 290C480 291.105 480.895 292 482 292Z" fill="#A9B5C7"/>
<path opacity="0.2" d="M482 276C483.105 276 484 275.105 484 274C484 272.895 483.105 272 482 272C480.895 272 480 272.895 480 274C480 275.105 480.895 276 482 276Z" fill="#A9B5C7"/>
<path opacity="0.2" d="M436 322C437.105 322 438 321.105 438 320C438 318.895 437.105 318 436 318C434.895 318 434 318.895 434 320C434 321.105 434.895 322 436 322Z" fill="#A9B5C7"/>
<path opacity="0.2" d="M420 322C421.105 322 422 321.105 422 320C422 318.895 421.105 318 420 318C418.895 318 418 318.895 418 320C418 321.105 418.895 322 420 322Z" fill="#A9B5C7"/>
<path opacity="0.2" d="M404 322C405.105 322 406 321.105 406 320C406 318.895 405.105 318 404 318C402.895 318 402 318.895 402 320C402 321.105 402.895 322 404 322Z" fill="#A9B5C7"/>
<path opacity="0.2" d="M388 322C389.105 322 390 321.105 390 320C390 318.895 389.105 318 388 318C386.895 318 386 318.895 386 320C386 321.105 386.895 322 388 322Z" fill="#A9B5C7"/>
<path opacity="0.2" d="M452 294C454.209 294 456 292.209 456 290C456 287.791 454.209 286 452 286C449.791 286 448 287.791 448 290C448 292.209 449.791 294 452 294Z" fill="#A9B5C7"/>
<path opacity="0.2" d="M436 294C438.209 294 440 292.209 440 290C440 287.791 438.209 286 436 286C433.791 286 432 287.791 432 290C432 292.209 433.791 294 436 294Z" fill="#A9B5C7"/>
<path opacity="0.2" d="M420 294C422.209 294 424 292.209 424 290C424 287.791 422.209 286 420 286C417.791 286 416 287.791 416 290C416 292.209 417.791 294 420 294Z" fill="#A9B5C7"/>
<path opacity="0.2" d="M404 294C406.209 294 408 292.209 408 290C408 287.791 406.209 286 404 286C401.791 286 400 287.791 400 290C400 292.209 401.791 294 404 294Z" fill="#A9B5C7"/>
<path opacity="0.2" d="M404 279C406.761 279 409 276.761 409 274C409 271.239 406.761 269 404 269C401.239 269 399 271.239 399 274C399 276.761 401.239 279 404 279Z" fill="#A9B5C7"/>
<path opacity="0.2" d="M420 279C422.761 279 425 276.761 425 274C425 271.239 422.761 269 420 269C417.239 269 415 271.239 415 274C415 276.761 417.239 279 420 279Z" fill="#A9B5C7"/>
<path opacity="0.2" d="M436 279C438.761 279 441 276.761 441 274C441 271.239 438.761 269 436 269C433.239 269 431 271.239 431 274C431 276.761 433.239 279 436 279Z" fill="#A9B5C7"/>
<path opacity="0.2" d="M452 279C454.761 279 457 276.761 457 274C457 271.239 454.761 269 452 269C449.239 269 447 271.239 447 274C447 276.761 449.239 279 452 279Z" fill="#A9B5C7"/>
<path opacity="0.2" d="M404 263C406.761 263 409 260.761 409 258C409 255.239 406.761 253 404 253C401.239 253 399 255.239 399 258C399 260.761 401.239 263 404 263Z" fill="#A9B5C7"/>
<path opacity="0.2" d="M420 263C422.761 263 425 260.761 425 258C425 255.239 422.761 253 420 253C417.239 253 415 255.239 415 258C415 260.761 417.239 263 420 263Z" fill="#A9B5C7"/>
<path opacity="0.2" d="M436 264C439.314 264 442 261.314 442 258C442 254.686 439.314 252 436 252C432.686 252 430 254.686 430 258C430 261.314 432.686 264 436 264Z" fill="#A9B5C7"/>
<path opacity="0.2" d="M388 294C390.209 294 392 292.209 392 290C392 287.791 390.209 286 388 286C385.791 286 384 287.791 384 290C384 292.209 385.791 294 388 294Z" fill="#A9B5C7"/>
</g>
<path d="M376 264C411.346 264 440 235.346 440 200C440 164.654 411.346 136 376 136C340.654 136 312 164.654 312 200C312 235.346 340.654 264 376 264Z" fill="url(#paint0_linear)"/>
<path d="M472 72C489.5 72 505.9 76.7 520 84.8V251.1C505.9 259.3 489.5 263.9 472 263.9C419 263.9 376 220.9 376 167.9C376 114.9 419 72 472 72Z" fill="url(#paint1_linear)"/>
<path d="M348 112C354.627 112 360 106.627 360 100C360 93.3726 354.627 88 348 88C341.373 88 336 93.3726 336 100C336 106.627 341.373 112 348 112Z" fill="url(#paint2_linear)"/>
<path d="M376 168C376 157.2 377.8 146.4 381.4 136.2C414.5 139 440 166.7 440 200C440 218.3 432.2 235.6 418.6 247.8C392 230 376 200 376 168Z" fill="url(#paint3_linear)"/>
<path fill-rule="evenodd" clip-rule="evenodd" d="M463.296 171.31L463.215 171.811L463.188 172.01C462.847 174.769 461.818 175.576 459.263 176.752C459.257 176.754 459.251 176.753 459.247 176.755L449.982 181.011L470.9 193.429V186.321C470.9 183.713 470.749 183.245 468.523 181.966C468.087 181.715 467.644 181.454 467.16 181.167L466.858 180.988C465.473 180.217 464.344 179.08 463.511 177.73C463.481 177.682 463.258 177.332 463.229 177.282C463.402 177.183 463.562 177.062 463.706 176.921C463.858 176.78 463.987 176.615 464.089 176.432C464.818 177.907 465.924 179.154 467.341 179.967L467.685 180.17C468.162 180.452 468.649 180.73 469.086 180.979C471.815 182.547 472.032 183.51 472.032 186.322V193.437L493.143 180.793L484.109 176.684L483.521 176.421C483.291 176.305 482.569 175.997 482.011 175.98C481.442 175.944 480.578 175.981 480.113 176.598C479.682 177.165 479.252 177.732 478.821 178.299C477.825 179.643 476.522 180.742 474.965 181.4C474.961 181.404 474.956 181.406 474.952 181.409C474.542 181.583 474.1 181.684 473.662 181.79C473.572 181.61 473.43 181.4 473.3 181.231C473.206 181.109 473.065 180.957 472.934 180.816C473.596 180.681 474.357 180.462 474.949 180.167L474.952 180.165C476.134 179.58 477.156 178.761 477.941 177.707C477.979 177.662 478.014 177.613 478.045 177.562C478.125 177.453 478.206 177.346 478.279 177.231C478.488 176.938 478.806 176.501 479.251 175.917C479.549 175.523 479.967 175.262 480.412 175.094L480.411 175.096C480.891 174.917 481.445 174.837 482.05 174.842C482.967 174.873 483.984 175.382 484.005 175.392L484.322 175.535L484.347 175.544L485.169 175.914C485.175 175.915 485.175 175.921 485.18 175.923L493.074 179.515L472.05 144.616V159.389C472.05 161.942 472.23 162.5 474.475 163.79C474.653 163.89 474.834 163.984 475.018 164.072L475.308 164.221C475.381 164.255 475.451 164.295 475.522 164.331L475.525 164.332H475.526C478.472 165.804 480.528 168.787 480.707 172.269C480.514 172.323 480.222 172.409 480.058 172.461C479.938 172.498 479.757 172.592 479.605 172.677C479.576 169.459 477.709 166.684 475.011 165.345L475.01 165.343C475.001 165.34 474.996 165.341 474.989 165.337C474.832 165.254 474.674 165.173 474.515 165.095C473.942 164.818 473.393 164.491 472.873 164.119C472.79 164.063 472.722 164.004 472.646 163.948C472.481 163.824 472.327 163.696 472.192 163.573C472.113 163.502 472.041 163.435 471.991 163.37C471.092 162.421 470.916 161.353 470.916 159.389V144.61L449.827 179.831L459.135 175.556H459.14C461.205 174.607 461.832 173.813 462.108 171.529C462.113 171.499 462.121 171.42 462.128 171.391C462.66 167.74 465.282 164.811 468.727 163.786L469.191 163.647C469.249 163.833 469.326 164.013 469.421 164.182C469.526 164.364 469.649 164.532 469.789 164.686L469.356 164.786C466.259 165.573 463.863 168.107 463.296 171.31ZM448.082 180.537L470.992 142.275C471.044 142.19 471.116 142.12 471.201 142.072C471.285 142.024 471.38 141.999 471.477 142C471.573 141.999 471.668 142.024 471.753 142.072C471.838 142.12 471.909 142.19 471.961 142.275L494.921 180.383C494.959 180.448 494.984 180.519 494.994 180.594C495.005 180.669 495.001 180.745 494.983 180.818C494.964 180.891 494.932 180.96 494.888 181.02C494.844 181.08 494.789 181.13 494.726 181.167L471.766 194.921C471.678 194.973 471.579 195 471.478 195C471.377 195 471.278 194.973 471.19 194.921L448.279 181.322C448.215 181.284 448.159 181.234 448.114 181.173C448.07 181.113 448.037 181.044 448.017 180.971C447.999 180.898 447.995 180.821 448.006 180.747C448.017 180.672 448.043 180.601 448.082 180.537Z" fill="white" stroke="white"/>
<defs>
<linearGradient id="paint0_linear" x1="376.002" y1="263.998" x2="376.002" y2="135.998" gradientUnits="userSpaceOnUse">
<stop stop-color="#FAE46A"/>
<stop offset="1" stop-color="#FDF7BF"/>
</linearGradient>
<linearGradient id="paint1_linear" x1="447.995" y1="263.905" x2="447.995" y2="72.0009" gradientUnits="userSpaceOnUse">
<stop stop-color="#AD418E"/>
<stop offset="1" stop-color="#E4D3E7"/>
</linearGradient>
<linearGradient id="paint2_linear" x1="348" y1="111.998" x2="348" y2="87.9983" gradientUnits="userSpaceOnUse">
<stop stop-color="#8CBAF2"/>
<stop offset="1" stop-color="#E5E9F9"/>
</linearGradient>
<linearGradient id="paint3_linear" x1="408.001" y1="247.795" x2="408.001" y2="136.195" gradientUnits="userSpaceOnUse">
<stop stop-color="#75C061"/>
<stop offset="1" stop-color="#C2E2C7"/>
</linearGradient>
</defs>
</svg>
