<svg xmlns="http://www.w3.org/2000/svg" width="520" height="432" viewBox="0 0 520 432">
<style type="text/css">
	.st0{opacity:0.2;}
	.st1{fill:#A9B5C7;}
	.st2{fill:url(#Ellipse_125_1_);}
	.st3{fill:url(#Ellipse_127_1_);}
	.st4{fill:url(#Ellipse_126_1_);}
	.st5{fill:url(#Intersection_3_1_);}
	.st6{fill:#FCB514;}
	.st7{fill:#FFFFFF;}
</style>
<g>
	<g id="bg_tile_dai" transform="translate(-104 -640)">
		<g id="Group_1238" transform="translate(84 18)" class="st0">
			<circle id="Ellipse_112" class="st1" cx="392" cy="912" r="3"/>
			<circle id="Ellipse_145" class="st1" cx="488" cy="912" r="3"/>
			<circle id="Ellipse_147" class="st1" cx="488" cy="896" r="3"/>
			<circle id="Ellipse_113" class="st1" cx="392" cy="896" r="3"/>
			<circle id="Ellipse_114" class="st1" cx="392" cy="880" r="3"/>
			<circle id="Ellipse_115" class="st1" cx="392" cy="864" r="3"/>
			<circle id="Ellipse_116" class="st1" cx="392" cy="848" r="3"/>
			<circle id="Ellipse_112-2" class="st1" cx="378" cy="912" r="2"/>
			<circle id="Ellipse_113-2" class="st1" cx="378" cy="896" r="2"/>
			<circle id="Ellipse_114-2" class="st1" cx="378" cy="880" r="2"/>
			<circle id="Ellipse_115-2" class="st1" cx="378" cy="864" r="2"/>
			<circle id="Ellipse_116-2" class="st1" cx="378" cy="848" r="2"/>
			<circle id="Ellipse_112-3" class="st1" cx="408" cy="912" r="4"/>
			<circle id="Ellipse_113-3" class="st1" cx="408" cy="896" r="4"/>
			<circle id="Ellipse_114-3" class="st1" cx="408" cy="880" r="4"/>
			<circle id="Ellipse_115-3" class="st1" cx="408" cy="864" r="4"/>
			<circle id="Ellipse_116-3" class="st1" cx="408" cy="848" r="4"/>
			<circle id="Ellipse_112-4" class="st1" cx="472" cy="928" r="3"/>
			<circle id="Ellipse_146" class="st1" cx="488" cy="928" r="3"/>
			<circle id="Ellipse_113-4" class="st1" cx="456" cy="928" r="3"/>
			<circle id="Ellipse_114-4" class="st1" cx="440" cy="928" r="3"/>
			<circle id="Ellipse_115-4" class="st1" cx="424" cy="928" r="3"/>
			<circle id="Ellipse_116-4" class="st1" cx="408" cy="928" r="3"/>
			<circle id="Ellipse_136" class="st1" cx="392" cy="928" r="3"/>
			<circle id="Ellipse_112-5" class="st1" cx="472" cy="942" r="2"/>
			<circle id="Ellipse_144" class="st1" cx="502" cy="912" r="2"/>
			<circle id="Ellipse_148" class="st1" cx="502" cy="896" r="2"/>
			<circle id="Ellipse_113-5" class="st1" cx="456" cy="942" r="2"/>
			<circle id="Ellipse_114-5" class="st1" cx="440" cy="942" r="2"/>
			<circle id="Ellipse_115-5" class="st1" cx="424" cy="942" r="2"/>
			<circle id="Ellipse_116-5" class="st1" cx="408" cy="942" r="2"/>
			<circle id="Ellipse_112-6" class="st1" cx="472" cy="912" r="4"/>
			<circle id="Ellipse_113-6" class="st1" cx="456" cy="912" r="4"/>
			<circle id="Ellipse_114-6" class="st1" cx="440" cy="912" r="4"/>
			<circle id="Ellipse_115-6" class="st1" cx="424" cy="912" r="4"/>
			<circle id="Ellipse_137" class="st1" cx="424" cy="896" r="5"/>
			<circle id="Ellipse_138" class="st1" cx="440" cy="896" r="5"/>
			<circle id="Ellipse_140" class="st1" cx="456" cy="896" r="5"/>
			<circle id="Ellipse_141" class="st1" cx="472" cy="896" r="5"/>
			<circle id="Ellipse_139" class="st1" cx="424" cy="880" r="5"/>
			<circle id="Ellipse_142" class="st1" cx="440" cy="880" r="5"/>
			<circle id="Ellipse_143" class="st1" cx="456" cy="880" r="6"/>
			<circle id="Ellipse_116-6" class="st1" cx="408" cy="912" r="4"/>
		</g>
		
			<linearGradient id="Ellipse_125_1_" gradientUnits="userSpaceOnUse" x1="202.3672" y1="1271.0851" x2="202.3672" y2="1272.0851" gradientTransform="matrix(128 0 0 -128 -25423 163602.8906)">
			<stop  offset="0" style="stop-color:#8E6FB0"/>
			<stop  offset="1" style="stop-color:#E7E9F5"/>
		</linearGradient>
		<circle id="Ellipse_125" class="st2" cx="480" cy="840" r="64"/>
		
			<linearGradient id="Ellipse_127_1_" gradientUnits="userSpaceOnUse" x1="201.9531" y1="1272.6871" x2="201.9531" y2="1273.6866" gradientTransform="matrix(192 0 0 -192 -38223 245259.8281)">
			<stop  offset="0" style="stop-color:#FFD342"/>
			<stop  offset="1" style="stop-color:#FFF6B1"/>
		</linearGradient>
		<path id="Ellipse_127" class="st3" d="M576,712c17.5,0,33.9,4.7,48,12.8l0,0v166.3l0,0c-14.1,8.2-30.5,12.8-48,12.8
			c-53,0-96-43-96-96S523,712,576,712z"/>
		
			<linearGradient id="Ellipse_126_1_" gradientUnits="userSpaceOnUse" x1="206.125" y1="1250.2648" x2="206.125" y2="1251.2648" gradientTransform="matrix(24 0 0 -24 -4495 30758.3535)">
			<stop  offset="0" style="stop-color:#8CBAF2"/>
			<stop  offset="1" style="stop-color:#E5E9F9"/>
		</linearGradient>
		<circle id="Ellipse_126" class="st4" cx="452" cy="740" r="12"/>
		
			<linearGradient id="Intersection_3_1_" gradientUnits="userSpaceOnUse" x1="203.2344" y1="1270.3766" x2="203.2344" y2="1271.377" gradientTransform="matrix(64.0001 0 0 -111.555 -12495.0205 142604.6563)">
			<stop  offset="0" style="stop-color:#75C061"/>
			<stop  offset="1" style="stop-color:#C2E2C7"/>
		</linearGradient>
		<path id="Intersection_3" class="st5" d="M480,808c0-10.8,1.8-21.6,5.4-31.8C518.5,779,544,806.7,544,840
			c0,18.3-7.8,35.6-21.4,47.8C496,870,480,840,480,808z"/>
	</g>
</g>
<g id="ic_token_btc" transform="translate(-32 -184)">
	<circle id="Ellipse_49" class="st6" cx="504.1" cy="351.9" r="32"/>
	<g id="Group_375" transform="translate(-46.599 110.535)">
		<path id="Path_189" class="st7" d="M543.9,228.6c0.9,0.2,1.7,0.4,2.6,0.6c0.9,0.2,1.7,0.4,2.6,0.7c0.2,0.1,0.3,0,0.4-0.2
			c0.3-1.3,0.7-2.7,1-4c0.1-0.2,0.1-0.3,0.4-0.2c0.8,0.2,1.5,0.4,2.3,0.6c0.2,0,0.2,0.1,0.2,0.3c-0.3,1.3-0.6,2.6-1,3.9
			c0,0.1,0,0.2-0.1,0.3c0.7,0.2,1.3,0.3,1.9,0.5c0.1,0,0.2-0.1,0.2-0.2c0.3-1,0.5-2,0.8-3c0.1-0.3,0.2-0.6,0.2-0.9
			c0-0.1,0.1-0.2,0.3-0.2c0.8,0.2,1.6,0.4,2.4,0.6c0.1,0,0.1,0.1,0.2,0.1c-0.2,1-0.5,2-0.7,3c-0.1,0.4-0.2,0.8-0.3,1.2
			c-0.1,0.2,0,0.3,0.2,0.4c0.9,0.4,1.8,0.8,2.6,1.2c0.8,0.5,1.5,1.1,2,1.9c0.7,1.1,0.8,2.5,0.5,3.8c-0.2,0.9-0.6,1.7-1.2,2.3
			c-0.5,0.5-1.1,0.8-1.7,1l-0.3,0.1c0.3,0.2,0.6,0.4,0.9,0.6c0.9,0.6,1.6,1.6,1.8,2.7c0.2,0.9,0.1,1.8-0.1,2.7
			c-0.3,1.1-0.8,2.1-1.4,3c-0.8,1-2,1.6-3.2,1.8c-1.6,0.2-3.2,0.2-4.8-0.2c-0.3-0.1-0.4,0-0.4,0.3c-0.3,1.3-0.6,2.6-0.9,3.9
			c-0.1,0.4-0.1,0.4-0.4,0.3c-0.7-0.2-1.5-0.4-2.2-0.6c-0.2-0.1-0.2-0.2-0.2-0.4c0.3-1.3,0.7-2.7,1-4c0-0.1,0.1-0.2-0.1-0.3
			c-0.6-0.2-1.3-0.3-1.9-0.5l-0.5,2.2c-0.2,0.7-0.4,1.4-0.5,2.2c0,0.2-0.1,0.2-0.3,0.2c-0.8-0.2-1.5-0.4-2.3-0.6
			c-0.2,0-0.2-0.1-0.2-0.3c0.3-1.3,0.7-2.7,1-4c0-0.1,0-0.2,0.1-0.3l-5.5-1.4c0.1-0.3,0.2-0.6,0.4-0.9c0.3-0.7,0.6-1.4,0.9-2.1
			c0.1-0.2,0.2-0.3,0.4-0.2c0.6,0.2,1.2,0.3,1.7,0.4c0.5,0.2,1-0.1,1.2-0.6c0,0,0-0.1,0-0.1c1-4.1,2-8.2,3-12.2
			c0.2-0.7-0.3-1.4-0.9-1.6c-0.7-0.2-1.4-0.4-2.1-0.6c-0.1,0-0.2,0-0.2-0.2c0.2-0.9,0.5-1.8,0.7-2.7
			C543.8,228.6,543.8,228.6,543.9,228.6L543.9,228.6z M547.9,248.2c0.1,0,0.1,0.1,0.2,0.1c1.3,0.4,2.6,0.6,3.9,0.8
			c0.9,0.1,1.8,0,2.7-0.2c1.3-0.5,2-2,1.5-3.3c-0.1-0.2-0.1-0.3-0.2-0.5c-0.4-0.6-1-1.1-1.7-1.4c-1.5-0.7-3-1.2-4.6-1.5
			c-0.2-0.1-0.3,0-0.3,0.2c-0.2,0.8-0.4,1.5-0.6,2.3C548.4,245.9,548.2,247.1,547.9,248.2L547.9,248.2z M554.5,240.1
			c0.2,0,0.5-0.1,0.8-0.1c1.3-0.3,2.1-1.6,1.7-2.9c0-0.2-0.1-0.4-0.2-0.5c-0.4-0.7-1.1-1.2-1.8-1.5c-1.1-0.5-2.2-0.8-3.3-1
			c-0.2-0.1-0.3,0-0.4,0.2c-0.4,1.7-0.8,3.3-1.2,4.9c0,0.2,0,0.3,0.2,0.3c0.3,0.1,0.6,0.2,0.9,0.2
			C552.2,239.9,553.4,240.1,554.5,240.1L554.5,240.1z"/>
	</g>
</g>
</svg>
