<svg width="150" height="35" viewBox="0 0 150 35" fill="none" 
    xmlns="http://www.w3.org/2000/svg">
    <path fill-rule="evenodd" clip-rule="evenodd" d="M146.825 19.7011C146.825 17.7167 145.675 16.2227 143.861 16.2227C142.046 16.2227 140.895 17.7167 140.895 19.7011C140.895 21.6855 142.046 23.1795 143.861 23.1795C145.679 23.1833 146.825 21.6892 146.825 19.7011ZM146.736 14.891V9.69231C146.736 9.34899 146.962 9.05095 147.288 8.96418L150 8.22852V25.8203H146.992V24.3264C146.235 25.4468 144.877 26.1032 143.177 26.1032C139.686 26.1032 137.642 23.2549 137.642 19.7049C137.642 16.1548 139.686 13.3065 143.177 13.3065C144.873 13.3027 146.116 14.0497 146.736 14.891ZM128.225 13.5819V15.0759C128.778 14.0233 130.018 13.299 131.809 13.299C134.704 13.299 136.242 15.2607 136.242 18.1807V25.8203H132.982V18.558C132.982 17.1319 132.385 16.151 130.937 16.151C129.352 16.151 128.481 17.1772 128.481 18.8146V25.8203H125.22V13.5819H128.225ZM117.595 26.1032C114.081 26.1032 112.126 24.5603 112.126 20.5914V13.5819H115.387V20.6368C115.387 22.3419 116.144 23.1341 117.591 23.1341C119.038 23.1341 119.795 22.3382 119.795 20.6368V13.5819H123.057V20.5876C123.064 24.5603 121.109 26.1032 117.595 26.1032ZM101.359 19.7011C101.359 21.8968 102.691 23.1795 104.412 23.1795C106.134 23.1795 107.466 21.893 107.466 19.7011C107.466 17.5092 106.134 16.2227 104.412 16.2227C102.694 16.2227 101.359 17.5054 101.359 19.7011ZM104.416 26.1032C100.557 26.1032 98.0973 23.1833 98.0973 19.7049C98.0973 16.2266 100.554 13.3065 104.416 13.3065C108.275 13.3065 110.735 16.2266 110.735 19.7049C110.731 23.1833 108.275 26.1032 104.416 26.1032ZM88.1575 19.7011C88.1575 21.6855 89.3077 23.1795 91.1221 23.1795C92.9364 23.1795 94.0866 21.6855 94.0866 19.7011C94.0866 17.7167 92.9364 16.2227 91.1221 16.2227C89.3077 16.2227 88.1575 17.7167 88.1575 19.7011ZM88.2502 24.5149V29.6042C88.2502 29.9476 88.0239 30.2456 87.6975 30.3323L84.9889 31.0568V13.5819H87.998V15.0759C88.7548 13.9554 90.1128 13.299 91.8122 13.299C95.3035 13.299 97.3479 16.1473 97.3479 19.6974C97.3479 23.2474 95.3035 26.0957 91.8122 26.0957C90.1091 26.1032 88.8699 25.3563 88.2502 24.5149ZM75.3013 18.8598V25.8203H72.04V18.558C72.04 17.2036 71.5577 16.151 70.1106 16.151C68.5931 16.151 67.7657 17.1546 67.7657 18.7919V25.8241H64.5044V13.5819H67.5134V15.0759C68.0662 14.0233 69.261 13.299 70.9825 13.299C72.615 13.299 73.7839 13.9516 74.474 15.0268C75.5313 13.8346 76.7484 13.299 78.4699 13.299C81.364 13.299 82.8332 15.3324 82.8332 18.1807V25.8203H79.5719V18.558C79.5719 17.2036 79.0896 16.151 77.6425 16.151C76.1028 16.151 75.3013 17.1546 75.3013 18.8598ZM53.6221 19.7011C53.6221 21.8968 54.9541 23.1795 56.6756 23.1795C58.3972 23.1795 59.7292 21.893 59.7292 19.7011C59.7292 17.5092 58.3972 16.2227 56.6756 16.2227C54.9541 16.2227 53.6221 17.5054 53.6221 19.7011ZM56.6756 26.1032C52.8169 26.1032 50.357 23.1833 50.357 19.7049C50.357 16.2266 52.8132 13.3065 56.6756 13.3065C60.538 13.3065 62.9942 16.2266 62.9942 19.7049C62.9942 23.1833 60.5343 26.1032 56.6756 26.1032ZM33.4343 17.5054C33.4343 12.3218 36.948 8.88496 41.634 8.88496C45.7006 8.88496 48.9174 11.3372 49.537 15.3777H45.9528C45.4705 13.299 43.8158 12.1294 41.634 12.1294C38.6473 12.1294 36.9703 14.2308 36.9703 17.5016C36.9703 20.7725 38.6473 22.8738 41.634 22.8738C43.8158 22.8738 45.4705 21.7043 45.9528 19.6256H49.537C48.9174 23.6662 45.7006 26.1183 41.634 26.1183C36.948 26.1258 33.4343 22.6927 33.4343 17.5054Z" fill="#8992A4"/>
    <path fill-rule="evenodd" clip-rule="evenodd" d="M1.33942 26.8479C0.50831 26.3309 0 25.4105 0 24.422V18.9026C0 18.6914 0.0556545 18.4878 0.159543 18.3066C0.482339 17.7407 1.19843 17.5484 1.75497 17.8803L14.0064 25.1426C14.7225 25.5689 15.164 26.3461 15.164 27.1911V32.9105C15.164 33.1708 15.0934 33.4311 14.96 33.6537C14.5555 34.3252 13.6947 34.5365 13.0342 34.1252L1.33942 26.8479ZM19.6015 16.3674C20.3176 16.7938 20.7591 17.571 20.7591 18.416V30.0206C20.7591 30.364 20.5773 30.6808 20.2842 30.8468L17.6016 32.3823C17.5682 32.4012 17.5312 32.4163 17.4941 32.4276V25.9839C17.4941 25.1501 17.0637 24.3768 16.3587 23.9467L5.59884 17.4012V10.1276C5.59884 9.91628 5.6545 9.71257 5.75838 9.53148C6.08117 8.96558 6.79727 8.77318 7.35381 9.10516L19.6015 16.3674ZM24.9629 7.79607C25.6827 8.2186 26.1242 9.00331 26.1242 9.84838V26.7989C26.1242 27.1459 25.935 27.4665 25.6345 27.6325L23.0928 29.0284V17.2276C23.0928 16.3939 22.6625 15.6242 21.9613 15.1941L10.9639 8.48646V1.58632C10.9639 1.37505 11.0196 1.17133 11.1198 0.990241C11.4426 0.424347 12.1586 0.231943 12.7152 0.560162L24.9629 7.79607Z" fill="#00D395"/>
</svg>
