<svg width="123" height="50" viewBox="0 0 123 50" fill="none" xmlns="http://www.w3.org/2000/svg">
<path fill-rule="evenodd" clip-rule="evenodd" d="M120.396 25.5656C120.396 23.9652 119.454 22.7604 117.966 22.7604C116.478 22.7604 115.534 23.9652 115.534 25.5656C115.534 27.1659 116.478 28.3707 117.966 28.3707C119.457 28.3738 120.396 27.1689 120.396 25.5656ZM120.323 21.6865V17.494C120.323 17.2171 120.509 16.9767 120.776 16.9068L123 16.3135V30.5004H120.533V29.2956C119.913 30.1992 118.799 30.7286 117.405 30.7286C114.543 30.7286 112.866 28.4315 112.866 25.5686C112.866 22.7056 114.543 20.4086 117.405 20.4086C118.796 20.4056 119.815 21.008 120.323 21.6865ZM105.145 20.6307V21.8356C105.598 20.9867 106.614 20.4025 108.083 20.4025C110.457 20.4025 111.719 21.9846 111.719 24.3395V30.5004H109.045V24.6437C109.045 23.4936 108.555 22.7026 107.368 22.7026C106.069 22.7026 105.354 23.5302 105.354 24.8506V30.5004H102.681V20.6307H105.145ZM96.4279 30.7286C93.5467 30.7286 91.9433 29.4843 91.9433 26.2835V20.6307H94.6176V26.3201C94.6176 27.6953 95.2383 28.3341 96.4249 28.3341C97.6114 28.3341 98.2321 27.6922 98.2321 26.3201V20.6307H100.906V26.2805C100.912 29.4843 99.309 30.7286 96.4279 30.7286ZM83.1142 25.5656C83.1142 27.3363 84.2064 28.3707 85.6181 28.3707C87.0298 28.3707 88.1221 27.3332 88.1221 25.5656C88.1221 23.7979 87.0298 22.7604 85.6181 22.7604C84.2095 22.7604 83.1142 23.7948 83.1142 25.5656ZM85.6211 30.7286C82.457 30.7286 80.4398 28.3738 80.4398 25.5686C80.4398 22.7635 82.4539 20.4086 85.6211 20.4086C88.7853 20.4086 90.8024 22.7635 90.8024 25.5686C90.7994 28.3738 88.7853 30.7286 85.6211 30.7286ZM72.2892 25.5656C72.2892 27.1659 73.2323 28.3707 74.7201 28.3707C76.2078 28.3707 77.151 27.1659 77.151 25.5656C77.151 23.9652 76.2078 22.7604 74.7201 22.7604C73.2323 22.7604 72.2892 23.9652 72.2892 25.5656ZM72.3652 29.4477V33.5519C72.3652 33.8288 72.1796 34.0692 71.9119 34.1391L69.6909 34.7233V20.6307H72.1583V21.8356C72.7789 20.9319 73.8925 20.4025 75.286 20.4025C78.1489 20.4025 79.8253 22.6996 79.8253 25.5626C79.8253 28.4255 78.1489 30.7225 75.286 30.7225C73.8894 30.7286 72.8733 30.1262 72.3652 29.4477ZM61.7471 24.8871V30.5004H59.0728V24.6437C59.0728 23.5515 58.6773 22.7026 57.4907 22.7026C56.2464 22.7026 55.5679 23.512 55.5679 24.8324V30.5034H52.8936V20.6307H55.361V21.8356C55.8143 20.9867 56.794 20.4025 58.2057 20.4025C59.5443 20.4025 60.5028 20.9289 61.0687 21.7959C61.9357 20.8345 62.9337 20.4025 64.3453 20.4025C66.7184 20.4025 67.9232 22.0424 67.9232 24.3395V30.5004H65.2489V24.6437C65.2489 23.5515 64.8534 22.7026 63.6668 22.7026C62.4043 22.7026 61.7471 23.512 61.7471 24.8871ZM43.9701 25.5656C43.9701 27.3363 45.0623 28.3707 46.474 28.3707C47.8857 28.3707 48.978 27.3332 48.978 25.5656C48.978 23.7979 47.8857 22.7604 46.474 22.7604C45.0623 22.7604 43.9701 23.7948 43.9701 25.5656ZM46.474 30.7286C43.3098 30.7286 41.2928 28.3738 41.2928 25.5686C41.2928 22.7635 43.3068 20.4086 46.474 20.4086C49.6412 20.4086 51.6553 22.7635 51.6553 25.5686C51.6553 28.3738 49.6381 30.7286 46.474 30.7286ZM27.4161 23.7948C27.4161 19.6145 30.2974 16.8429 34.1399 16.8429C37.4745 16.8429 40.1122 18.8205 40.6203 22.0789H37.6813C37.2858 20.4025 35.9289 19.4594 34.1399 19.4594C31.6908 19.4594 30.3156 21.154 30.3156 23.7918C30.3156 26.4296 31.6908 28.1242 34.1399 28.1242C35.9289 28.1242 37.2858 27.1811 37.6813 25.5047H40.6203C40.1122 28.7632 37.4745 30.7407 34.1399 30.7407C30.2974 30.7468 27.4161 27.9782 27.4161 23.7948Z" fill="#8992A4"/>
<path fill-rule="evenodd" clip-rule="evenodd" d="M1.09832 31.3289C0.416814 30.912 0 30.1698 0 29.3726V24.9215C0 24.7511 0.0456367 24.5869 0.130825 24.4408C0.395518 23.9844 0.98271 23.8293 1.43907 24.097L11.4853 29.9537C12.0724 30.2975 12.4345 30.9243 12.4345 31.6057V36.2181C12.4345 36.428 12.3766 36.6379 12.2672 36.8174C11.9355 37.359 11.2296 37.5294 10.6881 37.1977L1.09832 31.3289ZM16.0732 22.8769C16.6604 23.2208 17.0224 23.8476 17.0224 24.529V33.8875C17.0224 34.1645 16.8734 34.42 16.633 34.5539L14.4333 35.7922C14.406 35.8074 14.3755 35.8196 14.3451 35.8287V30.6322C14.3451 29.9598 13.9922 29.3361 13.4141 28.9892L4.59105 23.7106V17.8448C4.59105 17.6744 4.63669 17.5101 4.72187 17.3641C4.98656 16.9077 5.57376 16.7525 6.03012 17.0203L16.0732 22.8769ZM20.4696 15.9646C21.0598 16.3053 21.4219 16.9381 21.4219 17.6196V31.2894C21.4219 31.5692 21.2667 31.8278 21.0203 31.9617L18.9361 33.0874V23.5706C18.9361 22.8983 18.5833 22.2776 18.0083 21.9307L8.99042 16.5213V10.9567C8.99042 10.7863 9.03605 10.622 9.11821 10.476C9.3829 10.0196 9.97009 9.86445 10.4265 10.1291L20.4696 15.9646Z" fill="#00D395"/>
</svg>
