<?xml version="1.0" standalone="no"?>
<!DOCTYPE svg PUBLIC "-//W3C//DTD SVG 20010904//EN"
 "http://www.w3.org/TR/2001/REC-SVG-20010904/DTD/svg10.dtd">
<svg version="1.0" xmlns="http://www.w3.org/2000/svg"
 width="188.000000pt" height="90.000000pt" viewBox="0 0 188.000000 90.000000"
 preserveAspectRatio="xMidYMid meet">

<g transform="translate(0.000000,90.000000) scale(0.100000,-0.100000)"
fill="#000000" stroke="none">
<path d="M1088 737 c-32 -67 -116 -246 -188 -397 -71 -151 -130 -278 -130
-282 0 -5 5 -8 10 -8 6 0 10 4 10 9 0 5 32 75 71 157 105 219 299 634 299 640
0 2 -3 4 -7 4 -5 0 -34 -55 -65 -123z"/>
<path d="M283 640 c-24 -10 -43 -39 -43 -65 0 -10 15 -32 33 -50 l34 -34 -28
-11 c-46 -20 -71 -55 -77 -108 -4 -43 -1 -53 25 -82 54 -60 162 -49 198 20 37
72 12 130 -85 194 -74 49 -89 78 -54 107 19 15 84 15 114 -1 16 -8 20 -8 20 4
0 28 -89 45 -137 26z m106 -206 c32 -41 28 -98 -8 -135 -33 -32 -67 -37 -110
-14 -33 17 -41 33 -41 84 0 47 30 88 73 99 37 10 57 2 86 -34z"/>
<path d="M1256 629 c-36 -28 -35 -72 3 -110 l29 -29 -34 -16 c-63 -30 -87 -93
-61 -157 20 -48 66 -71 126 -64 64 7 101 49 101 115 0 59 -15 81 -90 132 -68
46 -86 71 -71 99 15 27 54 33 100 17 39 -13 51 -12 51 5 0 10 -66 29 -101 29
-15 0 -38 -9 -53 -21z m131 -217 c12 -29 13 -44 4 -73 -14 -46 -30 -59 -80
-66 -35 -5 -44 -2 -71 25 -52 52 -36 132 34 163 36 16 43 16 69 3 16 -9 35
-31 44 -52z"/>
<path d="M502 559 c79 -142 83 -153 88 -227 3 -40 10 -72 15 -72 6 0 12 35 15
77 5 72 10 87 62 181 37 66 52 102 43 102 -8 0 -38 -43 -66 -96 -28 -52 -55
-92 -59 -87 -5 4 -28 46 -53 93 -25 47 -54 87 -63 89 -13 2 -9 -10 18 -60z"/>
<path d="M1476 608 c4 -7 27 -46 52 -86 24 -39 42 -78 39 -85 -3 -7 -28 -48
-56 -91 -28 -43 -51 -82 -51 -87 0 -26 24 0 72 76 29 46 55 85 58 85 3 0 29
-38 58 -85 49 -77 72 -102 72 -75 0 5 -25 48 -55 95 -30 46 -55 88 -55 92 0 5
23 42 50 83 27 41 50 78 50 83 0 23 -25 -2 -69 -70 l-49 -77 -49 77 c-26 42
-54 77 -61 77 -8 0 -10 -5 -6 -12z"/>
</g>
</svg>
