<svg width="89" height="46" viewBox="0 0 89 46" fill="none" 
    xmlns="http://www.w3.org/2000/svg">
    <path fill-rule="evenodd" clip-rule="evenodd" d="M55.121 0.679993L34.6834 45.32H33.1697L53.6073 0.679993H55.121ZM57.7607 15.4574C57.7607 14.2074 58.215 13.1909 59.1219 12.4093C60.0548 11.628 61.252 11.2372 62.7143 11.2372C63.673 11.2372 64.5932 11.3414 65.475 11.5497C66.3829 11.7581 67.4413 12.1616 68.6516 12.7615L67.9714 14.0898C66.8622 13.5165 65.9166 13.1129 65.1352 12.8784C64.3532 12.6701 63.5591 12.5659 62.7527 12.5659C61.6686 12.5659 60.8235 12.8267 60.2187 13.3475C59.5888 13.8683 59.2734 14.5589 59.2734 15.4184C59.2734 16.2521 59.5251 16.9685 60.0297 17.5677C60.5591 18.141 61.7313 18.9743 63.5468 20.0684C65.1856 21.0587 66.3702 21.9052 67.1015 22.6085C67.8579 23.338 68.4123 24.1196 68.7654 24.9533C69.0925 25.787 69.2567 26.79 69.2567 27.9625C69.2567 30.2811 68.6393 32.1175 67.4043 33.4724C66.1686 34.801 64.441 35.465 62.2233 35.465C60.0805 35.465 58.3655 34.8269 57.0798 33.551C55.8191 32.3 55.1889 30.6202 55.1889 28.5088C55.1889 26.5289 55.731 24.9144 56.8155 23.664C57.8739 22.3874 59.5755 21.4364 61.9203 20.8111C60.3575 19.8994 59.2734 19.0395 58.6686 18.2317C58.0628 17.3983 57.7607 16.4736 57.7607 15.4574ZM74.6295 12.8524L80.455 22.3854L86.3563 12.8524H87.9834L81.2878 23.5182L88.5122 35.1607H86.8101L80.4173 24.7687L73.9107 35.1607H72.247L79.5095 23.5182L72.9274 12.8524H74.6295ZM59.9027 22.7629C59.1455 23.1534 58.5393 23.622 58.0852 24.1681C57.6304 24.6888 57.2895 25.3139 57.0627 26.042C56.8104 26.7708 56.6841 27.5906 56.6841 28.5009C56.6841 30.1936 57.189 31.5464 58.1985 32.5619C59.2076 33.576 60.5586 34.0839 62.2494 34.0839C63.9907 34.0839 65.3417 33.5639 66.3001 32.5223C67.2598 31.4547 67.739 29.9199 67.739 27.9162C67.739 26.5627 67.3854 25.3918 66.6787 24.4028C65.9977 23.4139 64.8241 22.4897 63.1583 21.6306C61.7195 21.9952 60.6348 22.3725 59.9027 22.7629ZM10.9937 11.5497C11.9012 11.7581 12.9597 12.1616 14.1703 12.7615L13.4894 14.0898C12.3799 13.5165 11.4346 13.1129 10.6532 12.8784C9.8718 12.6701 9.07737 12.5659 8.27061 12.5659C7.18681 12.5659 6.34199 12.8267 5.73717 13.3475C5.10629 13.8683 4.79189 14.5589 4.79189 15.4184C4.79189 16.2521 5.04355 16.9685 5.54825 17.5677C6.07729 18.141 7.24989 18.9743 9.06502 20.0684C10.7036 21.0587 11.8885 21.9052 12.6192 22.6085C13.3759 23.338 13.9306 24.1196 14.2835 24.9533C14.6112 25.787 14.7751 26.79 14.7751 27.9625C14.7751 30.2811 14.1573 32.1175 12.9223 33.4724C11.6869 34.801 9.95957 35.465 7.74122 35.465C5.59831 35.465 3.88397 34.8269 2.59822 33.551C1.33749 32.3 0.707306 30.6202 0.707306 28.5088C0.707306 26.5289 1.24938 24.9144 2.33352 23.664C3.39229 22.3874 5.09393 21.4364 7.43879 20.8111C5.87566 19.8994 4.79186 19.0395 4.18637 18.2317C3.58121 17.3983 3.2788 16.4736 3.2788 15.4574C3.2788 14.2074 3.73275 13.1909 4.64032 12.4093C5.57325 11.628 6.77054 11.2372 8.23287 11.2372C9.19088 11.2372 10.1111 11.3414 10.9937 11.5497ZM5.44302 22.7629C4.68582 23.1534 4.08034 23.622 3.62553 24.1681C3.17141 24.6888 2.83058 25.3139 2.6037 26.042C2.35107 26.7708 2.22509 27.5906 2.22509 28.5009C2.22509 30.1936 2.72966 31.5464 3.73948 32.5619C4.74862 33.576 6.0993 34.0839 7.79046 34.0839C9.53174 34.0839 10.8821 33.5639 11.8411 32.5223C12.8001 31.4547 13.28 29.9199 13.28 27.9162C13.28 26.5627 12.9264 25.3918 12.2197 24.4028C11.5384 23.4139 10.3645 22.4897 8.69905 21.6306C7.2605 21.9952 6.17483 22.3725 5.44302 22.7629ZM33.872 12.8524L26.6817 26.5272V35.1607H25.1294V26.6437L17.9013 12.8524H19.642L25.9247 25.0422L32.2445 12.8524H33.872Z" fill="#283049"/>
</svg>
