<svg width="15" height="15" viewBox="0 0 15 15" fill="none"
  xmlns="http://www.w3.org/2000/svg">
  <path d="M8.17142 1H3C1.34315 1 0 2.34315 0 4V12C0 13.6569 1.34315 15 3 15H11C12.6569 15 14 13.6569 14 12V6.82828L12 8.82828V12C12 12.5523 11.5523 13 11 13H3C2.44772 13 2 12.5523 2 12V4C2 3.44772 2.44772 3 3 3H6.17142L8.17142 1Z" fill="#276BFB"/>
  <path fill-rule="evenodd" clip-rule="evenodd" d="M9.2618 8.70987C9.07604 8.89564 8.82408 9 8.56137 9H6V6.43863C6 6.17592 6.10436 5.92396 6.29013 5.7382L11.7382 0.290128C12.125 -0.0967089 12.7522 -0.0967095 13.1391 0.290127L14.7099 1.86094C15.0967 2.24778 15.0967 2.87496 14.7099 3.2618L9.2618 8.70987ZM7.69091 5.73827L6.99056 6.43863V8.00944H8.56137L9.26173 7.30909L7.69091 5.73827Z" fill="#276BFB"/>
</svg>