<svg width="40" height="40" viewBox="0 0 40 40" fill="none" 
    xmlns="http://www.w3.org/2000/svg">
    <path d="M40 20C40 8.9543 31.0457 0 20 0C8.9543 0 0 8.9543 0 20C0 31.0457 8.9543 40 20 40C31.0457 40 40 31.0457 40 20Z" fill="#1BBC9A"/>
    <path d="M9.72624 12.8256C9.80696 12.7851 9.89736 12.7679 9.98732 12.7759C10.0773 12.7838 10.1632 12.8166 10.2356 12.8706L18.7387 19.2575C18.799 19.3029 18.8481 19.3616 18.8821 19.429C18.9161 19.4964 18.9342 19.5707 18.935 19.6462V26.95C18.9347 27.079 18.8833 27.2027 18.792 27.2939C18.7008 27.3851 18.5771 27.4365 18.4481 27.4369C18.3191 27.4365 18.1954 27.3851 18.1042 27.2939C18.013 27.2027 17.9616 27.079 17.9613 26.95V19.8919L10.4313 14.2331V26.9506C10.4309 27.0796 10.3795 27.2033 10.2883 27.2945C10.197 27.3858 10.0734 27.4372 9.94438 27.4375C9.8806 27.4381 9.81733 27.426 9.75824 27.402C9.69916 27.3779 9.64542 27.3424 9.60014 27.2975C9.55487 27.2526 9.51894 27.1991 9.49446 27.1402C9.46997 27.0813 9.45741 27.0182 9.45749 26.9544V13.2594C9.45742 13.1692 9.48254 13.0808 9.53003 13.0042C9.57752 12.9275 9.64547 12.8657 9.72624 12.8256V12.8256Z" fill="white"/>
    <path d="M30.44 12.8256C30.5205 12.8659 30.5882 12.9279 30.6356 13.0045C30.6829 13.0811 30.708 13.1693 30.7081 13.2594V26.9537C30.7036 27.0798 30.6504 27.1991 30.5596 27.2867C30.4689 27.3742 30.3477 27.4232 30.2216 27.4232C30.0955 27.4232 29.9743 27.3742 29.8835 27.2867C29.7928 27.1991 29.7395 27.0798 29.735 26.9537V14.2325L22.2081 19.8919V26.9544C22.2036 27.0804 22.1504 27.1998 22.0596 27.2873C21.9689 27.3749 21.8477 27.4238 21.7216 27.4238C21.5955 27.4238 21.4743 27.3749 21.3835 27.2873C21.2928 27.1998 21.2395 27.0804 21.235 26.9544V19.65C21.2345 19.5743 21.2521 19.4995 21.2862 19.4319C21.3203 19.3644 21.3701 19.3058 21.4312 19.2612L29.9269 12.8706C30 12.8166 30.0866 12.7838 30.1771 12.7759C30.2676 12.768 30.3586 12.7852 30.44 12.8256V12.8256Z" fill="white"/>
</svg>
