<svg id="ic_arrow_right" xmlns="http://www.w3.org/2000/svg" width="40" height="40" viewBox="0 0 40 40">
  <defs>
    <style>
      .cls-1 {
        fill: none;
      }

      .cls-2, .cls-4 {
        fill: #a9b5c7;
      }

      .cls-3, .cls-4 {
        stroke: none;
      }
    </style>
  </defs>
  <g id="Path_569" data-name="Path 569" class="cls-1">
    <path class="cls-3" d="M20,0A20,20,0,1,1,0,20,20,20,0,0,1,20,0Z"/>
    <path class="cls-4" d="M 20.00015640258789 1.999996185302734 C 15.19213676452637 1.999996185302734 10.67190551757813 3.872337341308594 7.272125244140625 7.272125244140625 C 3.872337341308594 10.67190551757813 1.999996185302734 15.19213676452637 1.999996185302734 20.00015640258789 C 1.999996185302734 24.80817604064941 3.872337341308594 29.32840728759766 7.272125244140625 32.72818756103516 C 10.67190551757813 36.12797546386719 15.19213676452637 38.00031661987305 20.00015640258789 38.00031661987305 C 24.80817604064941 38.00031661987305 29.32840728759766 36.12797546386719 32.72818756103516 32.72818756103516 C 36.12797546386719 29.32840728759766 38.00031661987305 24.80817604064941 38.00031661987305 20.00015640258789 C 38.00031661987305 15.19213676452637 36.12797546386719 10.67190551757813 32.72818756103516 7.272125244140625 C 29.32840728759766 3.872337341308594 24.80817604064941 1.999996185302734 20.00015640258789 1.999996185302734 M 20.00015640258789 -3.814697265625e-06 C 31.04593658447266 -3.814697265625e-06 40.00031661987305 8.954376220703125 40.00031661987305 20.00015640258789 C 40.00031661987305 31.04593658447266 31.04593658447266 40.00031661987305 20.00015640258789 40.00031661987305 C 8.954376220703125 40.00031661987305 -3.814697265625e-06 31.04593658447266 -3.814697265625e-06 20.00015640258789 C -3.814697265625e-06 8.954376220703125 8.954376220703125 -3.814697265625e-06 20.00015640258789 -3.814697265625e-06 Z"/>
  </g>
  <rect id="Rectangle_552" data-name="Rectangle 552" class="cls-2" width="12" height="2" rx="1" transform="translate(20 11.515) rotate(45)"/>
  <rect id="Rectangle_553" data-name="Rectangle 553" class="cls-2" width="12" height="2" rx="1" transform="translate(18.586 27.071) rotate(-45)"/>
  <rect id="Rectangle_551" data-name="Rectangle 551" class="cls-2" width="15" height="2" rx="1" transform="translate(12 19)"/>
</svg>
