<svg width="40" height="40" viewBox="0 0 40 40" fill="none" 
    xmlns="http://www.w3.org/2000/svg">
    <path d="M20.0002 2C15.1921 2 10.6719 3.87234 7.27213 7.27213C3.87234 10.6719 2 15.1921 2 20.0002C2 24.8082 3.87234 29.3284 7.27213 32.7282C10.6719 36.128 15.1921 38.0003 20.0002 38.0003C24.8082 38.0003 29.3284 36.128 32.7282 32.7282C36.128 29.3284 38.0003 24.8082 38.0003 20.0002C38.0003 15.1921 36.128 10.6719 32.7282 7.27213C29.3284 3.87234 24.8082 2 20.0002 2ZM20.0002 -3.8147e-06C31.0459 -3.8147e-06 40.0003 8.95438 40.0003 20.0002C40.0003 31.0459 31.0459 40.0003 20.0002 40.0003C8.95438 40.0003 0 31.0459 0 20.0002C0 8.95438 8.95438 -3.8147e-06 20.0002 -3.8147e-06Z" fill="#A9B5C7"/>
    <path d="M27.7782 19.2932L20.7071 12.2221C20.3166 11.8316 19.6834 11.8316 19.2929 12.2221C18.9024 12.6126 18.9024 13.2458 19.2929 13.6363L26.364 20.7074C26.7545 21.0979 27.3877 21.0979 27.7782 20.7074C28.1687 20.3169 28.1687 19.6837 27.7782 19.2932Z" fill="#A9B5C7"/>
    <path d="M26.3642 19.2928L19.2931 26.3639C18.9026 26.7544 18.9026 27.3876 19.2931 27.7781C19.6836 28.1686 20.3168 28.1686 20.7073 27.7781L27.7784 20.707C28.1689 20.3165 28.1689 19.6833 27.7784 19.2928C27.3879 18.9023 26.7547 18.9023 26.3642 19.2928Z" fill="#A9B5C7"/>
    <path d="M26 19H13C12.4477 19 12 19.4477 12 20C12 20.5523 12.4477 21 13 21H26C26.5523 21 27 20.5523 27 20C27 19.4477 26.5523 19 26 19Z" fill="#A9B5C7"/>
</svg>
