<svg xmlns="http://www.w3.org/2000/svg" width="72" height="72" viewBox="0 0 72 72">
    <defs>
        <style>
            .cls-1{fill:none}.cls-2{fill:url(#linear-gradient)}.cls-3{fill:#160bbe}
        </style>
        <linearGradient id="linear-gradient" x1="6.345" x2="6.277" y1="-3.831" y2="-3.888" gradientUnits="objectBoundingBox">
            <stop offset="0" stop-color="#cf0bc3"/>
            <stop offset="1" stop-color="#ff3568"/>
        </linearGradient>
    </defs>
    <g id="ic_bitski" transform="translate(-132 -108)">
        <path id="Rectangle_581" d="M0 0h72v72H0z" class="cls-1" data-name="Rectangle 581" transform="translate(132 108)"/>
        <g id="Group_1143" data-name="Group 1143" transform="translate(140 115.001)">
            <path id="Stripe" d="M16.487 94.806l1.472-1.472a2.1 2.1 0 0 1 .929-.653 1.31 1.31 0 0 1 .776 0 2.09 2.09 0 0 1 .927.653l22 22a2.108 2.108 0 0 1 .653.927 1.31 1.31 0 0 1 0 .776 2.121 2.121 0 0 1-.653.929l-1.472 1.472a2.121 2.121 0 0 1-.929.653 1.31 1.31 0 0 1-.776 0 2.121 2.121 0 0 1-.929-.653l-22-22a2.09 2.09 0 0 1-.653-.927 1.31 1.31 0 0 1 0-.776 2.1 2.1 0 0 1 .655-.929z" class="cls-2" transform="translate(-13.824 -61.674)"/>
            <path id="B" d="M15.347 92.359l10.491-10.494c6.945-6.945 14.877-6.4 21.083-.2a23.181 23.181 0 0 1 2.366 3.054 6.534 6.534 0 0 0 .59.788c.394.394.788.492 1.625.247 5.173-1.429 9.705.147 14.04 4.481 6.059 6.059 6.7 14.189-.984 21.873l-14.73 14.732c-.788.788-1.429.739-2.217-.049L15.4 94.576c-.792-.788-.841-1.429-.053-2.217zm21.526 5.567l2.513-2.513a3.017 3.017 0 0 0-.049-4.581 3.052 3.052 0 0 0-4.581-.049l-2.513 2.511c-.788.788-.739 1.429.049 2.217l2.364 2.364c.788.788 1.429.839 2.217.051zm12.02 12.018l6.6-6.6c1.921-1.921 2.315-3.7.69-5.32-1.576-1.576-3.4-1.231-5.32.69l-6.6 6.6c-.788.788-.739 1.429.051 2.217l2.364 2.364c.786.789 1.422.838 2.215.049z" class="cls-3" transform="translate(-14.78 -76.835)"/>
        </g>
    </g>
</svg>
