<svg xmlns="http://www.w3.org/2000/svg" width="38" height="38" viewBox="0 0 38 38">
    <defs>
        <style>
            .cls-1{fill:#6488ff}.cls-2{fill:none}.cls-3{fill:#fff}
        </style>
    </defs>
    <g id="ic_copy" transform="translate(-293 -5)">
        <rect id="Rectangle_504" width="38" height="38" class="cls-1" data-name="Rectangle 504" rx="2" transform="translate(293 5)"/>
        <path id="Rectangle_585" d="M0 0h38v38H0z" class="cls-2" data-name="Rectangle 585" transform="translate(293 5)"/>
        <path id="Path_656" d="M4 2a2 2 0 0 0-2 2v10h2V4h10V2zm4 4a2 2 0 0 0-2 2v8a2 2 0 0 0 2 2h8a2 2 0 0 0 2-2V8a2 2 0 0 0-2-2zm0 2h8v8H8z" class="cls-3" data-name="Path 656" transform="translate(302 14)"/>
    </g>
</svg>
