<svg xmlns="http://www.w3.org/2000/svg" width="72" height="72" viewBox="0 0 72 72">
    <defs>
        <style>
            .cls-1{fill:none}.cls-2{fill:#133444}.cls-3{fill:#c42370}.cls-4{fill:#1c4d6b}.cls-5{fill:#1d4259}.cls-6{fill:#4b6b9a}.cls-7{fill:#343535}.cls-8{fill:#3e5578}.cls-9{fill:#6db2d8}.cls-10{fill:#335f8a}.cls-11{fill:#529bba}
        </style>
    </defs>
    <g id="ic_portis" transform="translate(-132 -100)">
        <path id="Rectangle_583" d="M0 0h72v72H0z" class="cls-1" data-name="Rectangle 583" transform="translate(132 100)"/>
        <g id="Layer_2" data-name="Layer 2" transform="translate(148 106.001)">
            <g id="Layer_1-2" data-name="Layer 1-2">
                <path id="Path_453" d="M2 96.939l1.459-.639 17.951-7.8 19.39 8.439-7.282 15.045-17.827 2.516L2.3 100.042z" class="cls-2" data-name="Path 453" transform="translate(-1.402 -62.164)"/>
                <path id="Path_454" d="M38.791 68.741a19.945 19.945 0 0 0-12.711-7.03l-.317-.042a19.365 19.365 0 0 0-4.669 0l-.32.039a19.924 19.924 0 0 0-12.71 7.033l-.807 1.339-1.342 2.23-.98 1.632a.489.489 0 0 1-.054.132v.026l2.16 1.29 13.751 8.131 2.655 1.566V65.656l-2.655 1.2v-2.9l2.655-1.2 2.652 1.2L39.592 70.1z" class="cls-3" data-name="Path 454" transform="translate(-3.421 -43.255)"/>
                <path id="Path_455" d="M40 121.523a21.43 21.43 0 0 1-7.841 16.441 20 20 0 0 1-6.313 3.5 18.588 18.588 0 0 1-5.817.927C8.968 142.394 0 132.562 0 121.523a20.542 20.542 0 0 1 .6-4.843l19.395 11.476 19.4-11.476a19.251 19.251 0 0 1 .605 4.843z" class="cls-4" data-name="Path 455" transform="translate(0 -81.92)"/>
                <path id="Path_456" d="M58.37 61.706l2.33 1.05-2.655 1.2v-2.4z" data-name="Path 456" transform="translate(-40.697 -43.277)"/>
                <path id="Path_457" d="M58.05 76.528l2.65-1.208v19.437l-2.65-1.567z" data-name="Path 457" transform="translate(-40.697 -52.924)"/>
                <path id="Path_458" d="M66.93 75.32v19.437l18.588-10.986z" class="cls-5" data-name="Path 458" transform="translate(-46.923 -52.924)"/>
                <path id="Path_459" d="M66.93.4v22.4l18.588 8.451z" class="cls-6" data-name="Path 459" transform="translate(-46.923 -.4)"/>
                <path id="Path_460" d="M23.338 71.4v19.432l-2.655-1.566-15.906-9.414h.012c0-.039.042-.093.054-.132l2.323-3.862 13.517-6.128v2.891z" class="cls-7" data-name="Path 460" transform="translate(-3.33 -49.005)"/>
                <path id="Path_461" d="M23.338 75.32v19.437l-2.655-1.567-15.921-9.4-.012-.015.027-.027 15.906-7.216z" class="cls-8" data-name="Path 461" transform="translate(-3.33 -52.924)"/>
                <path id="Path_462" d="M23.338.4v22.4L4.75 31.247z" class="cls-9" data-name="Path 462" transform="translate(-3.33 -.4)"/>
                <path id="Path_463" d="M41.76 197.37c.281.12.559.239.837.344-.278-.105-.556-.224-.837-.344z" class="cls-10" data-name="Path 463" transform="translate(-29.277 -138.49)"/>
                <path id="Path_464" d="M44.56 198.52c.278.108.571.215.861.3a7.332 7.332 0 0 1-.861-.3z" class="cls-10" data-name="Path 464" transform="translate(-31.24 -139.296)"/>
                <path id="Path_465" d="M49.89 200.34c.224.069.436.12.661.173-.213-.053-.437-.119-.661-.173z" class="cls-10" data-name="Path 465" transform="translate(-34.976 -140.572)"/>
                <path id="Path_466" d="M.6 116.73l19.395 11.476a22.489 22.489 0 0 1-1.393 5.082c-1.56 3.767-4.681 7.736-10.759 4.708A21.416 21.416 0 0 1 0 121.558a20.97 20.97 0 0 1 .6-4.828z" class="cls-9" data-name="Path 466" transform="translate(0 -81.955)"/>
                <path id="Path_467" d="M50.508 165.008l-.054.042c-.1.078-.2.158-.3.239l-.027.024c-.1.093-.224.173-.332.254a3.61 3.61 0 0 1-.371.263 3.767 3.767 0 0 0-.371.266c-.12.093-.227.146-.332.227l-.069.039c-.117.081-.236.147-.344.224a.045.045 0 0 0-.039.027c-.12.081-.239.146-.359.227s-.266.146-.4.224-.266.146-.4.212h-.01l-.4.2c-.132.066-.266.134-.413.2s-.278.131-.41.185c-.278.12-.559.239-.837.344s-.571.212-.861.3a3.1 3.1 0 0 1-.347.108l-.383.12c-.227.066-.439.12-.664.173-.081.024-.173.039-.254.066L42.4 169l-.359.078c-.12.027-.212.042-.332.066a2.252 2.252 0 0 1-.3.054c-.108.015-.227.042-.332.054a.324.324 0 0 0-.158.027l-.254.027h-.135a1.752 1.752 0 0 1-.278.027 2.7 2.7 0 0 1-.347.027h-.266c-.1 0-.158.015-.236.015h-1.432a2.987 2.987 0 0 1-.374 0h-.278c-.081 0-.158-.015-.239-.015h-.266a3.322 3.322 0 0 0-.344-.027.976.976 0 0 1-.278-.027h-.135a1.434 1.434 0 0 0-.251-.027.7.7 0 0 1-.158-.027 2.489 2.489 0 0 1-.332-.054 1.889 1.889 0 0 1-.3-.054 3.083 3.083 0 0 1-.332-.066c-.108-.027-.239-.051-.359-.078l-.146-.027a2.4 2.4 0 0 1-.275-.036c-.227-.054-.451-.12-.664-.173l-.4-.12c-.12-.039-.239-.066-.347-.108-.3-.093-.571-.2-.861-.3s-.571-.224-.837-.344c-.132-.066-.278-.12-.413-.185l-.41-.2-.4-.2c-.132-.066-.263-.146-.4-.212s-.266-.146-.4-.224-.239-.146-.359-.227l-.039-.027a2.984 2.984 0 0 1-.347-.224l-.066-.039c-.1-.066-.224-.146-.332-.227s-.251-.17-.371-.266-.251-.17-.371-.263l-.332-.254-.027-.024c-.108-.081-.2-.161-.3-.239l-.054-.042c6.062 3.025 9.207-.954 10.762-4.7a22.553 22.553 0 0 0 1.4-5.082 22.557 22.557 0 0 0 1.393 5.1c1.584 3.698 4.717 7.679 10.779 4.651z" class="cls-11" data-name="Path 467" transform="translate(-18.361 -108.968)"/>
                <path id="Path_468" d="M81.71 200.513c.224-.054.451-.12.664-.173-.213.054-.44.12-.664.173z" class="cls-10" data-name="Path 468" transform="translate(-57.284 -140.572)"/>
                <path id="Path_469" d="M86.41 198.849c.3-.093.571-.2.864-.3-.281.112-.574.207-.864.3z" class="cls-10" data-name="Path 469" transform="translate(-60.579 -139.317)"/>
                <path id="Path_470" d="M89.3 197.714c.278-.1.556-.224.834-.344-.278.12-.556.239-.834.344z" class="cls-10" data-name="Path 470" transform="translate(-62.605 -138.49)"/>
                <path id="Path_471" d="M86.915 121.593a21.43 21.43 0 0 1-7.841 16.441c-6.062 3.025-9.207-.957-10.762-4.7a22.589 22.589 0 0 1-1.393-5.082l19.396-11.472a19.6 19.6 0 0 1 .6 4.813z" class="cls-6" data-name="Path 471" transform="translate(-46.916 -81.99)"/>
            </g>
        </g>
    </g>
</svg>
