<svg xmlns="http://www.w3.org/2000/svg" width="40" height="40" viewBox="0 0 40 40">
  <defs>
    <style>
      .cls-1 {
        fill: #fe669f;
      }

      .cls-2 {
        fill: #fff;
      }
    </style>
  </defs>
  <g id="ic_small_3" transform="translate(0 0)">
    <path id="Path_547" data-name="Path 547" class="cls-1" d="M20,0A20,20,0,1,1,0,20,20,20,0,0,1,20,0Z"/>
    <path id="Path_558" data-name="Path 558" class="cls-2" d="M10,0A10,10,0,1,1,0,10,10,10,0,0,1,10,0Z" transform="translate(10 10)"/>
    <path id="Rectangle_522" data-name="Rectangle 522" class="cls-2" d="M0,0H20a0,0,0,0,1,0,0V4a6,6,0,0,1-6,6H6A6,6,0,0,1,0,4V0A0,0,0,0,1,0,0Z" transform="translate(10 20)"/>
    <path id="Path_559" data-name="Path 559" class="cls-1" d="M4,0A4,4,0,1,1,0,4,4,4,0,0,1,4,0Z" transform="translate(12 16)"/>
    <path id="Path_560" data-name="Path 560" class="cls-1" d="M4,0A4,4,0,1,1,0,4,4,4,0,0,1,4,0Z" transform="translate(20 16)"/>
    <path id="Subtraction_21" data-name="Subtraction 21" class="cls-2" d="M2.5,5a2.5,2.5,0,1,1,0-5V2.5h1c.108.007.236.01.4.01.134,0,.281,0,.442,0,.2,0,.414-.005.654-.005A2.5,2.5,0,0,1,2.5,5Z" transform="translate(13.5 17.5)"/>
    <path id="Subtraction_22" data-name="Subtraction 22" class="cls-2" d="M2.5,5a2.5,2.5,0,1,1,0-5V2.5h1c.108.007.236.01.4.01.134,0,.281,0,.442,0,.2,0,.414-.005.654-.005A2.5,2.5,0,0,1,2.5,5Z" transform="translate(21.5 17.5)"/>
  </g>
</svg>
