<svg xmlns="http://www.w3.org/2000/svg" width="40" height="40" viewBox="0 0 40 40">
  <defs>
    <style>
      .cls-1 {
        fill: #f5841f;
      }

      .cls-2 {
        fill: #fff;
      }
    </style>
  </defs>
  <g id="ic_small_1" transform="translate(0 0)">
    <path id="Path_547" data-name="Path 547" class="cls-1" d="M20,0A20,20,0,1,1,0,20,20,20,0,0,1,20,0Z"/>
    <g id="Group_1202" data-name="Group 1202" transform="translate(11 11.549)">
      <path id="Union_9" data-name="Union 9" class="cls-2" d="M7.646,16.693,6.066,15.6l-.734-.619-.043-.021.01-.006h0l-.008,0v0l0,0-.006,0,0-.006-.021-.031-.008-.008.027.045-3.994,1.1L.145,12.156l1.23-3.824,3.693-1.08L1.375,8.332.561,7.377l.357-.26-.566-.51L.789,6.27.217,5.838.6,5.553,0,2.674.887,0,6.613,2.141v0h4.77l0,0L17.111,0,10.387,4.986h0L17.111,0,18,2.674l-.592,2.879.369.285-.562.432.434.338-.568.51.359.26-.816.955L12.93,7.252l3.693,1.08,1.236,3.824-1.146,3.906-4.006-1.1-2.221,1.055,2.221-1.055-.77.641L10.35,16.693Zm2.68-1.492.184.156L10.318,13.8l-.008,0-.332-.234H8.02v-.139l0,.139-.465-2.41L7.92,9.117l-.369,2.037-.586-1.23-1.4.648L3.957,8.934l1.605,1.639,1.988.582.465,2.41-.318.223-.2,1.57.17-.156Zm-.348-1.637.006-.023-.006-.135ZM12.424,12.1l1.619-3.162Zm-1.979-.941,1.994-.582,1.6-1.639-1.6,1.639-1.412-.648-.582,1.23-.367-2.037Zm-.367-2.037,3.965-.184Zm-2.158,0L3.957,8.934Z"/>
      <path id="Path_509" data-name="Path 509" class="cls-1" d="M201.989,263.931,200,263.347l1.4-.647Z" transform="translate(-194.436 -252.777)"/>
      <path id="Path_510" data-name="Path 510" class="cls-1" d="M270.2,263.931l.584-1.231,1.412.647Z" transform="translate(-259.753 -252.777)"/>
      <path id="Path_522" data-name="Path 522" class="cls-1" d="M230.617,315.236l-.334-.236h-1.961l-.334.236-.188,1.558.174-.153h2.657l.181.153Z" transform="translate(-220.302 -301.439)"/>
      <path id="Union_10" data-name="Union 10" class="cls-1" d="M3.188,7.125l1.479-2.18L0,0,6.646,5.012,5.6,5.93,5.59,5.924,3.5,7.8.457,8.238Z" transform="translate(0.907 0.024)"/>
      <path id="Union_11" data-name="Union 11" class="cls-1" d="M4.687,3.267,3.22,1.108.486,0l3.05.439L5.926,2.584l0,.007.722.635L0,8.236Z" transform="translate(17.083 8.26) rotate(180)"/>
    </g>
  </g>
</svg>
