<svg xmlns="http://www.w3.org/2000/svg" width="40" height="40" viewBox="0 0 40 40">
  <defs>
    <style>
      .cls-1 {
        fill: #7656ea;
      }

      .cls-2 {
        fill: #fff;
      }
    </style>
  </defs>
  <g id="ic_small_4" transform="translate(0 0)">
    <path id="Path_547" data-name="Path 547" class="cls-1" d="M20,0A20,20,0,1,1,0,20,20,20,0,0,1,20,0Z"/>
    <g id="Group_1190" data-name="Group 1190" transform="translate(9.999 10)">
      <path id="Path_548" data-name="Path 548" class="cls-2" d="M-34.371,88.485c-.024-.317-.045-.644-.074-.969a1.961,1.961,0,0,0-.044-.271c-.084-.355-.166-.711-.262-1.063-.078-.286-.165-.57-.268-.848-.142-.383-.321-.753-.484-1.128-.134-.308-.373-.8-.53-1.1-.2-.373-.4-.741-.616-1.1-.26-.444-.526-.889-.818-1.313a13.1,13.1,0,0,0-.976-1.241,9.2,9.2,0,0,0-1.437-1.3,5.5,5.5,0,0,0-1.4-.679,4.549,4.549,0,0,0-.9-.216,6.481,6.481,0,0,0-1.174-.036,7.642,7.642,0,0,0-1.029.119c-.176.042-.359.058-.533.107-.322.09-.641.191-.957.3-.341.115-.684.227-1.014.368-.592.251-1.16.56-1.747.82-.638.348-1.257.727-1.878,1.1A14.11,14.11,0,0,0-53.458,82.5c-.019.322-.287.546-.409.83a7.459,7.459,0,0,0-.305.818,4.359,4.359,0,0,0-.176.807,7.832,7.832,0,0,0-.019.983c.008.309.043.619.067.928.049.2.093.394.147.589.078.282.153.565.245.842.065.2.16.389.235.586.063.165.108.338.177.5.109.259.23.514.351.768.192.4.38.812.587,1.208.262.5.572.977.857,1.462a7.487,7.487,0,0,0,.472.718,12.152,12.152,0,0,0,1.617,1.849,5.944,5.944,0,0,0,2.172,1.278,7.841,7.841,0,0,0,1.4.262,8.35,8.35,0,0,0,1.856-.2c.2-.05.4-.061.6-.119.279-.083.549-.192.824-.289.4-.14.8-.268,1.181-.436.618-.313,1.26-.586,1.865-.923.833-.463,1.643-.971,2.434-1.5a8.061,8.061,0,0,0,2.448-2.841,5.243,5.243,0,0,0,.379-1.2,8.9,8.9,0,0,0,.089-.942" transform="translate(54.373 -77.205)"/>
      <path id="Path_549" data-name="Path 549" class="cls-1" d="M-33.261,96.038a1.085,1.085,0,0,1-.581.926c-.465.252-.923.517-1.384.776l-2.319,1.3c-.788.442-1.571.9-2.368,1.322a1.041,1.041,0,0,1-1.485-.524,1,1,0,0,1,.48-1.279c.621-.339,1.229-.7,1.846-1.046.664-.372,1.335-.732,2-1.106.491-.277.971-.571,1.459-.851a7.35,7.35,0,0,1,.89-.475,1.027,1.027,0,0,1,1.331.518,3.545,3.545,0,0,1,.133.44" transform="translate(49.286 -84.225)"/>
      <path id="Path_550" data-name="Path 550" class="cls-1" d="M-37.705,89.086a1.093,1.093,0,0,1,1,.74,1.037,1.037,0,0,1-.5,1.206c-.626.338-1.237.7-1.857,1.052-.678.382-1.36.756-2.04,1.135q-.637.355-1.272.715c-.284.162-.568.323-.847.493a1.037,1.037,0,0,1-1.46-.38,1.024,1.024,0,0,1,.428-1.425c.534-.29,1.056-.6,1.586-.9.643-.362,1.287-.72,1.931-1.079L-39,89.67c.294-.165.583-.34.884-.49a1.776,1.776,0,0,1,.408-.094" transform="translate(50.606 -81.891)"/>
      <path id="Path_551" data-name="Path 551" class="cls-1" d="M-39.985,84.329a1.081,1.081,0,0,1-.58.9c-.618.344-1.229.7-1.846,1.049-.559.315-1.122.623-1.682.935s-1.1.615-1.645.92c-.32.179-.635.37-.965.529A1.042,1.042,0,0,1-48,88.28a1,1,0,0,1-.144-.765.986.986,0,0,1,.505-.679c.748-.42,1.493-.847,2.242-1.265s1.51-.833,2.263-1.254c.524-.292,1.039-.6,1.565-.888a1.042,1.042,0,0,1,1.456.46,3.578,3.578,0,0,1,.133.44" transform="translate(51.927 -79.608)"/>
    </g>
  </g>
</svg>
