<svg xmlns="http://www.w3.org/2000/svg" width="40" height="40" viewBox="0 0 40 40">
  <defs>
    <style>
      .cls-1 {
        fill: #8a92b2;
      }

      .cls-2 {
        fill: #fff;
        stroke: rgba(0,0,0,0);
      }
    </style>
  </defs>
  <g id="ic_small_eth" transform="translate(0 0)">
    <path id="Path_547" data-name="Path 547" class="cls-1" d="M20,0A20,20,0,1,1,0,20,20,20,0,0,1,20,0Z"/>
    <path id="Union_13" data-name="Union 13" class="cls-2" d="M11303,19959.6c0-.025-.02-.041-.03-.055l-2.108-2.922c-.722-1-1.437-1.988-2.159-2.984-.7-.963-1.388-1.924-2.084-2.885-.186-.256-.365-.506-.546-.762-.015-.016-.025-.035-.045-.061a.152.152,0,0,1,.075.029q1.472.858,2.945,1.709l3.386,1.969c.2.109.386.221.576.33.472-.27.942-.545,1.413-.82q2.757-1.594,5.5-3.191c.015-.01.03-.016.045-.025h.011a.1.1,0,0,1-.035.061q-3.133,4.342-6.267,8.67c-.216.3-.437.6-.656.906l-.01.031Zm-.03-6.953c-.1-.055-.2-.115-.3-.176l-6.582-3.816c-.021-.016-.041-.025-.061-.041l-.03,0v-.01a.017.017,0,0,1,.016-.006c.1-.164.205-.33.311-.5.586-.951,1.167-1.908,1.753-2.859l1.884-3.07q.872-1.421,1.743-2.846c.426-.691.846-1.377,1.271-2.068.011-.021.025-.035.025-.057h.025v.031q3.448,5.619,6.9,11.246a.4.4,0,0,1,.065.119h0l0,.006v.01c-.556.326-1.107.646-1.663.971q-2.622,1.521-5.245,3.041a.317.317,0,0,1-.06.035.034.034,0,0,1-.022.012C11302.994,19952.67,11302.981,19952.656,11302.971,19952.648Z" transform="translate(-11282.999 -19928.398)"/>
    <path id="Path_564" data-name="Path 564" class="cls-1" d="M7,11.369,0,15.612l7-3.063L14,15.583Z" transform="translate(12.999 4.631)"/>
  </g>
</svg>
