<svg width="24px" height="24px" viewBox="0 0 24 24" version="1.1" xmlns="http://www.w3.org/2000/svg" xmlns:xlink="http://www.w3.org/1999/xlink">
  <path d="M0,0.975977199 L18,0.975977199 C20.7614237,0.975977199 23,3.21455345 23,5.9759772 L23,19.0240228 C23,21.7854466 20.7614237,24.0240228 18,24.0240228 L5,24.0240228 C2.23857625,24.0240228 1.2263553e-15,21.7854466 8.8817842e-16,19.0240228 L0,0.975977199 Z M3.24485012,3.87812743 L3.24485012,19.1069391 C3.24485012,20.2115086 4.14028062,21.1069391 5.24485012,21.1069391 L17.7755807,21.1069391 C18.8801502,21.1069391 19.7755807,20.2115086 19.7755807,19.1069391 L19.7755807,5.87812743 C19.7755807,4.77355793 18.8801502,3.87812743 17.7755807,3.87812743 L3.24485012,3.87812743 Z M6.74049016,3.87812743 L9.96398804,3.87812743 L9.96398804,11.2702748 L9.96398804,15.5104895 C9.96398804,16.615059 9.06855754,17.5104895 7.96398804,17.5104895 L3.24485012,17.5104895 L3.24485012,14.6993529 L6.74049016,14.6993529 L6.74049016,3.87812743 Z M6.74049016,3.87812743 L9.96398804,3.87812743 L6.74049016,3.87812743 Z M3.24485012,17.5104895 L3.24485012,14.6993529 L3.24485012,17.5104895 Z M16.2799407,21.1069391 L13.0564428,21.1069391 L13.0564428,13.7147917 L13.0564428,9.47457701 C13.0564428,8.37000751 13.9518733,7.47457701 15.0564428,7.47457701 L19.7755807,7.47457701 L19.7755807,10.2857136 L16.2799407,10.2857136 L16.2799407,21.1069391 Z M19.7755807,7.47457701 L19.7755807,10.2857136 L19.7755807,7.47457701 Z M16.2799407,21.1069391 L13.0564428,21.1069391 L16.2799407,21.1069391 Z" id="Icon-Blue" fill="#3964DF"></path>
</svg>
