<svg width="40" height="40" viewBox="0 0 40 40" fill="none" 
    xmlns="http://www.w3.org/2000/svg">
    <circle cx="20" cy="20" r="20" fill="url(#gradient-susd)"/>
    <path d="M29.3724 24.4863C29.3724 23.2215 28.4666 22.3876 27.3518 22.3876L24.0421 22.3876L24.0421 23.4717L27.3587 23.4717C27.9301 23.4717 28.3899 23.84 28.3899 24.4933C28.3899 25.1187 27.9301 25.4801 27.3587 25.4801L24.0421 25.4801L24.0421 26.6336L27.3518 26.6336C28.4666 26.6336 29.3724 25.7997 29.3724 24.4863Z" fill="white"/>
    <path d="M29.3724 19.6233C29.3724 18.4628 28.7453 17.6706 27.7489 17.6706C26.878 17.6706 26.3554 18.2473 26.1603 19.1994L26.0488 19.6997C25.9373 20.2001 25.7492 20.3947 25.4635 20.3947C25.1152 20.3947 24.8852 20.1306 24.8852 19.6441C24.8852 19.1021 25.15 18.845 25.5053 18.7546L25.5053 17.8512L24.9758 17.8512C24.3348 17.9972 23.9376 18.6573 23.9376 19.6163C23.9376 20.763 24.5229 21.5135 25.5262 21.5135C26.3693 21.5135 26.878 20.9853 27.0661 20.0333L27.1567 19.5538C27.2751 19.0257 27.4702 18.7894 27.8116 18.7894C28.2018 18.7894 28.4248 19.116 28.4248 19.6024C28.4248 20.1584 28.1809 20.492 27.7907 20.6309L27.7907 21.5413L28.3133 21.5413C28.8916 21.3189 29.3724 20.7004 29.3724 19.6233Z" fill="white"/>
    <path d="M29.2679 16.8124L29.2679 14.9848C29.2679 13.3795 28.0834 12.3857 26.6341 12.3857C25.2057 12.3857 24.0421 13.3795 24.0421 14.9848L24.0421 16.8124L29.2679 16.8124ZM28.2854 15.6588L25.0246 15.6588L25.0246 15.0056C25.0246 14.0953 25.7492 13.5741 26.6341 13.5741C27.5469 13.5741 28.2854 14.0953 28.2854 15.0056L28.2854 15.6588Z" fill="white"/>
    <path d="M17.2673 18.7831C17.7979 18.7831 18.2281 19.2117 18.2281 19.7403C18.2281 20.2689 17.7979 20.6974 17.2673 20.6974H14.7734C12.3581 20.6974 10.4 18.7468 10.4 16.3405C10.4 13.9342 12.3581 11.9835 14.7734 11.9835H21.205C21.7356 11.9835 22.1658 12.412 22.1658 12.9406C22.1658 13.4693 21.7356 13.8978 21.205 13.8978H14.7734C13.4193 13.8978 12.3216 14.9914 12.3216 16.3405C12.3216 17.6895 13.4193 18.7831 14.7734 18.7831H17.2673Z" fill="white"/>
    <path d="M15.2985 20.6974C14.7679 20.6974 14.3377 20.2689 14.3377 19.7403C14.3377 19.2116 14.7679 18.7831 15.2985 18.7831H17.7924C20.2077 18.7831 22.1658 20.7338 22.1658 23.1401C22.1658 25.5464 20.2077 27.4971 17.7924 27.4971H11.3608C10.8302 27.4971 10.4 27.0685 10.4 26.5399C10.4 26.0113 10.8302 25.5828 11.3608 25.5828H17.7924C19.1465 25.5828 20.2442 24.4891 20.2442 23.1401C20.2442 21.791 19.1465 20.6974 17.7924 20.6974H15.2985Z" fill="white"/>
    <path d="M12.1202 27.1111L10.5582 25.9961L20.3822 12.3378L21.9441 13.4528L12.1202 27.1111Z" fill="white" fill-opacity="0.5"/>
    <defs>
        <linearGradient id="gradient-susd" x1="9.21875" y1="3.28125" x2="38.2813" y2="32.3437" gradientUnits="userSpaceOnUse">
            <stop stop-color="#342F49"/>
            <stop offset="1"/>
        </linearGradient>
    </defs>
</svg>
