<svg width="40" height="40" viewBox="0 0 40 40" fill="none" 
    xmlns="http://www.w3.org/2000/svg">
    <g clip-path="url(#clip0)">
        <path d="M40.0956 20.0661C40.1149 8.98479 31.1474 -0.0140975 20.066 -0.0334381C8.98467 -0.0527787 -0.0142131 8.91475 -0.0335537 19.9961C-0.0528943 31.0774 8.91464 40.0763 19.996 40.0957C31.0773 40.115 40.0762 31.1475 40.0956 20.0661Z" fill="#3574B9"/>
        <path d="M16.6526 32.1426C16.6526 32.5813 16.3489 32.7349 15.8934 32.7349C13.1349 31.8754 10.7272 30.1744 9.02001 27.8788C7.31281 25.5833 6.39503 22.8129 6.40001 19.97C6.40499 17.127 7.33246 14.3597 9.0477 12.07C10.7629 9.78025 13.1766 8.08736 15.9381 7.23722C16.3846 7.09245 16.6972 7.38639 16.6928 7.83387V8.89115C16.6962 9.04335 16.6561 9.19345 16.5772 9.32447C16.4983 9.45549 16.3836 9.56221 16.2462 9.63256C14.0741 10.4006 12.1955 11.8074 10.866 13.6615C9.53651 15.5155 8.82064 17.7269 8.81576 19.9948C8.81088 22.2627 9.51723 24.477 10.8387 26.3366C12.1602 28.1961 14.0327 29.6107 16.2015 30.3878C16.3393 30.4577 16.4543 30.5644 16.5332 30.6955C16.6122 30.8266 16.652 30.9769 16.6481 31.1292L16.6526 32.1426Z" fill="white"/>
        <path d="M21.1898 28.4574C21.1847 28.615 21.1201 28.765 21.0087 28.8785C20.8974 28.992 20.747 29.0608 20.5869 29.0716H19.3767C19.2196 29.0612 19.0717 28.9949 18.9607 28.885C18.8497 28.7752 18.7833 28.6294 18.7739 28.4749V26.7201C16.3534 26.4174 15.1477 25.0837 14.6967 23.1534C14.6967 22.8595 14.853 22.5612 15.1432 22.5612H16.5053C16.8045 22.5612 16.9518 22.7103 17.1081 22.9999C17.4074 24.0396 18.0013 24.9302 19.9751 24.9346C21.4846 24.9346 22.5429 24.1976 22.5474 23.013C22.5519 21.8285 21.9445 21.3811 19.8322 21.0783C16.6571 20.6396 15.1477 19.7359 15.1522 17.2177C15.1522 15.2918 16.6705 13.809 18.7873 13.5194V11.7032C18.7968 11.5492 18.8634 11.4039 18.9744 11.2948C19.0855 11.1857 19.2334 11.1203 19.3901 11.1109H20.6003C20.7571 11.1203 20.905 11.1857 21.0161 11.2948C21.1271 11.4039 21.1937 11.5492 21.2032 11.7032V13.4843C23.0163 13.7827 24.222 14.8224 24.5213 16.4544C24.5213 16.7483 24.3694 17.0466 24.0747 17.0466H22.8734C22.5697 17.0466 22.4268 16.8975 22.2705 16.6079C21.9713 15.5682 21.2166 15.1207 19.8546 15.1207C18.3452 15.1207 17.586 15.8577 17.586 16.8755C17.586 17.8933 18.0326 18.5075 20.3011 18.8102C23.4718 19.2489 24.9812 20.1527 24.9768 22.6709C24.9768 24.5968 23.4629 26.2244 21.1943 26.6675L21.1898 28.4574Z" fill="white"/>
        <path d="M23.2976 32.1689C23.2976 32.612 23.6057 32.9103 24.0523 32.7612C26.8134 31.9098 29.2271 30.217 30.9437 27.9281C32.6602 25.6392 33.5906 22.8729 33.6 20.0299C33.6089 14.103 29.5406 9.05347 24.1058 7.26354C23.6503 7.26354 23.3467 7.41709 23.3467 7.8558V8.89553C23.3433 9.04773 23.3833 9.19783 23.4622 9.32885C23.5412 9.45987 23.6558 9.56659 23.7932 9.63694C25.9619 10.4145 27.8341 11.8294 29.1552 13.6893C30.4763 15.5491 31.1822 17.7636 31.1768 20.0315C31.1714 22.2994 30.4551 24.5106 29.1252 26.3644C27.7953 28.2182 25.9164 29.6245 23.7441 30.3922C23.6067 30.4614 23.4919 30.5672 23.4129 30.6976C23.334 30.8279 23.294 30.9775 23.2976 31.1292V32.1689Z" fill="white"/>
    </g>
    <defs>
        <clipPath id="clip0">
            <rect width="40" height="40" fill="white"/>
        </clipPath>
    </defs>
</svg>
