<svg width="72" height="72" viewBox="0 0 72 72" fill="none" xmlns="http://www.w3.org/2000/svg">
<g filter="url(#filter0_d)">
<circle cx="36" cy="32" r="32" fill="white"/>
<path d="M30.0509 15.7809C30.3515 15.4803 30.5519 14.8624 30.6145 14.5911C30.7397 14.5284 31.6791 13.9648 32.4932 13.4639C31.7417 14.9668 30.9276 15.4052 30.0509 15.7809Z" fill="#D21318"/>
<path fill-rule="evenodd" clip-rule="evenodd" d="M36 64C53.6731 64 68 49.6731 68 32C68 21.2775 62.7262 11.7867 54.631 5.98001C54.255 6.39531 53.5746 6.72654 52.407 6.7006C51.0454 6.67034 49.2012 6.31841 47.4115 5.97686C45.4973 5.61158 43.6454 5.25817 42.5127 5.3229C40.3209 5.44814 38.7554 6.7006 38.7554 8.07829C46.7084 6.51274 50.8415 11.5851 51.6556 13.5891C51.1546 13.0881 50.6536 12.9002 49.5264 12.9628C51.0293 15.8434 53.91 16.8454 56.1644 16.9707C55.3294 17.4925 52.908 17.91 51.2798 17.0959C52.2192 19.1624 53.3464 23.1703 50.1526 27.9296C47.442 31.9689 43.1526 33.437 39.8878 34.5545C39.3058 34.7536 38.7565 34.9417 38.2544 35.1311C40.2583 35.0059 41.5734 35.1938 43.2016 36.5088C32.8063 35.1311 26.6693 41.8317 25.8552 48.2818C25.0411 54.7319 30.6145 56.7358 33.7456 56.7358C33.4325 57.049 31.6164 57.5499 30.3014 57.5499C36.8767 59.0529 41.9491 53.8552 43.452 52.2897C43.2516 53.1413 42.8258 54.3562 42.638 54.8572C44.4123 53.2499 48.5871 49.8098 51.092 48.9081C54.2231 47.7809 57.1037 48.7202 58.8571 50.0353C54.9083 48.9785 53.3798 50.194 51.2008 51.9269C50.9264 52.1452 50.6417 52.3716 50.3405 52.6027C51.5929 52.1018 53.7847 52.1018 54.9745 52.728C52.9706 52.6027 51.8028 52.9392 50.0274 54.1683C48.1828 55.4453 46.3382 57.7941 44.8173 59.7305C44.3246 60.358 43.8658 60.9421 43.452 61.4325C43.4751 61.3576 43.5521 61.224 43.6661 61.0263C43.9653 60.5074 44.5188 59.5473 45.0176 58.0509C42.3503 62.1246 36.8912 63.657 33.0904 63.8695C34.0487 63.9559 35.0192 64 36 64Z" fill="#3D3D3C"/>
<path fill-rule="evenodd" clip-rule="evenodd" d="M22.8697 61.1908C21.0118 58.9847 18.9441 55.7543 18.09 51.9765C17.9022 52.7906 17.6517 55.1076 17.6517 55.6712C16.8376 48.9706 16.3366 44.0861 20.6575 36.9472C19.5303 37.4481 17.6517 38.5127 16.4618 40.0157C19.2798 35.1937 22.2857 33.3151 25.1663 32.1252C25.951 31.8011 27.2932 31.3562 28.9044 30.8222C33.2083 29.3956 39.4316 27.3328 42.0744 25.2368C45.7065 22.3562 45.0802 18.9746 43.3268 16.9706C41.5734 14.9667 39.3816 15.3425 38.8806 15.8434C38.3796 16.3444 38.6301 16.8454 39.4442 17.0959C38.3796 17.409 37.4403 17.7221 37.2524 18.4736C37.0646 19.225 37.5656 19.9765 37.8787 20.3523C36.7515 20.1018 35.8748 19.9765 34.998 20.1018C34.1213 20.227 33.8082 20.5401 34.3092 21.2916C33.3699 20.9159 30.8075 20.4715 29.1742 22.3562C27.546 24.2348 28.9863 25.6125 32.3679 25.6125C32.1941 25.6537 32.0167 25.6978 31.8357 25.7429C29.5381 26.3147 26.6682 27.0289 23.4755 23.546C23.2833 23.7382 22.9436 23.9059 22.711 24.0206C22.6405 24.0554 22.5799 24.0853 22.5362 24.1096C22.2231 22.9824 22.0352 20.2395 24.0391 18.0352C24.0391 18.9746 24.7906 19.6008 25.8552 18.4736C26.7069 17.5718 27.7547 15.4677 28.1722 14.5284L26.6693 14.2153C27.4834 13.9857 28.6732 13.2133 29.9883 11.6477C29.6751 10.8337 29.0489 9.14286 30.6771 7.32681L30.75 7.2454C32.3755 5.4299 34.7542 2.77302 43.5147 3.94521C43.343 3.94521 43.1505 3.94351 42.9402 3.94164C39.7743 3.91368 32.5794 3.85013 31.9922 9.01761C32.3893 8.22331 32.953 7.69961 33.4192 7.2665C33.7616 6.9484 34.0514 6.67917 34.184 6.38748C34.0838 7.13894 34.0169 7.99479 33.9961 8.32877C34.2137 7.67577 34.6626 7.4431 35.0991 7.21679C35.4161 7.05246 35.7266 6.89148 35.9374 6.57534C36.0376 7.07632 36.1879 7.7443 36.2505 8.01566C36.4384 6.90934 37.1272 4.82192 40.3209 4.44618C43.1259 4.11619 45.456 4.50881 47.773 5.13503C48.0157 5.20062 48.2569 5.26825 48.4968 5.33551C50.4456 5.88185 52.3038 6.40279 54.0713 5.58747C48.9291 2.06241 42.7054 0 36 0C18.3269 0 4 14.3269 4 32C4 44.9938 11.7446 56.1788 22.8697 61.1908Z" fill="#D21318"/>
</g>
<defs>
<filter id="filter0_d" x="0" y="0" width="72" height="72" filterUnits="userSpaceOnUse" color-interpolation-filters="sRGB">
<feFlood flood-opacity="0" result="BackgroundImageFix"/>
<feColorMatrix in="SourceAlpha" type="matrix" values="0 0 0 0 0 0 0 0 0 0 0 0 0 0 0 0 0 0 127 0"/>
<feOffset dy="4"/>
<feGaussianBlur stdDeviation="2"/>
<feColorMatrix type="matrix" values="0 0 0 0 0 0 0 0 0 0 0 0 0 0 0 0 0 0 0.25 0"/>
<feBlend mode="normal" in2="BackgroundImageFix" result="effect1_dropShadow"/>
<feBlend mode="normal" in="SourceGraphic" in2="effect1_dropShadow" result="shape"/>
</filter>
</defs>
</svg>
