<svg width="40" height="40" viewBox="0 0 40 40" fill="none" 
    xmlns="http://www.w3.org/2000/svg">
    <path d="M34.0796 34.2514C32.2164 36.1149 29.9981 37.5838 27.5566 38.5708C25.115 39.5577 22.5002 40.0425 19.8678 39.9963C17.2518 40.0478 14.6528 39.5645 12.2296 38.5759C9.80642 37.5873 7.60987 36.1141 5.77416 34.2464C3.89525 32.4138 2.41331 30.2132 1.4207 27.7816C0.428099 25.3501 -0.0538903 22.7398 0.00477979 20.1135C0.00477979 14.3669 1.93119 9.57871 5.784 5.74877C7.62088 3.88162 9.81846 2.40919 12.2425 1.42144C14.6665 0.433684 17.2662 -0.048659 19.8826 0.00387302C22.5145 -0.0407879 25.1285 0.445222 27.5691 1.433C30.0097 2.42077 32.2271 3.89014 34.0894 5.75371C38.0276 9.58693 39.9966 14.3768 39.9966 20.1234C40.0464 22.7611 39.5458 25.3803 38.5269 27.8131C37.508 30.2459 35.9932 32.4388 34.0796 34.2514Z" fill="#49BC98"/>
    <path d="M26.8576 12.9357L21.1383 8.8L20.8496 8.82207C20.7122 8.99036 20.6012 9.17781 20.5204 9.3782C20.0147 11.513 19.5202 13.6533 19.0259 15.7926L19.0256 15.794L19.0244 15.7988C18.8887 16.3864 18.7529 16.974 18.6169 17.5614C18.5713 17.7641 18.5284 17.9695 18.4797 18.2026L18.4365 18.4088C18.5024 18.3756 18.5589 18.3486 18.6092 18.3246C18.6794 18.291 18.7377 18.2631 18.7928 18.2322L24.9407 14.9131C25.6218 14.5512 26.2983 14.1892 26.9749 13.8185C27.0429 13.7842 27.1009 13.7335 27.1433 13.6713C27.1858 13.609 27.2114 13.5372 27.2177 13.4626C27.224 13.388 27.2108 13.3131 27.1794 13.2449C27.148 13.1766 27.0994 13.1173 27.0381 13.0725L26.8576 12.9357Z" fill="white"/>
    <path d="M12.8299 13.4036C12.466 13.6453 12.1822 13.9859 12.0135 14.3834L12 25.8107C12.1609 26.0998 12.3578 26.3681 12.5864 26.6096C13.8753 27.6481 15.1791 28.6745 16.4813 29.6995L16.4822 29.7002C16.9341 30.0559 17.3858 30.4115 17.8366 30.7674C18.008 30.9042 18.1929 31.0057 18.4094 30.8733C18.5007 30.8122 18.5685 30.7229 18.602 30.6198C18.6355 30.5166 18.6328 30.4054 18.5944 30.3039C17.9118 27.0348 17.2367 23.7627 16.5692 20.4877C16.5173 20.2357 16.5173 19.9761 16.5692 19.7241C17.2457 16.4609 17.9298 13.2005 18.6214 9.94317C18.6711 9.70483 18.6665 9.48414 18.432 9.35173C18.1975 9.21931 18.0125 9.34731 17.8366 9.48855C17.3671 9.85611 16.8979 10.224 16.4288 10.5919C15.2305 11.5316 14.0325 12.471 12.8299 13.4036Z" fill="white"/>
    <path d="M20.809 31.2C20.6751 31.0398 20.5657 30.8614 20.4843 30.6703C19.9572 28.3959 19.4412 26.1161 18.9254 23.8372C18.7835 23.2106 18.6417 22.5839 18.4996 21.9575C18.4996 21.893 18.4857 21.8285 18.4684 21.7485C18.4597 21.7081 18.4501 21.6636 18.441 21.6133C18.4835 21.6334 18.5219 21.6511 18.5571 21.6673C18.6376 21.7044 18.7017 21.734 18.7613 21.7677L26.8531 26.1506C27.3538 26.4243 27.3719 26.72 26.8982 27.0334L21.1383 31.1382L21.0977 31.1779L20.809 31.2Z" fill="white"/>
    <path d="M19.8573 19.2254L18.6891 19.8742L18.9913 20.0552L24.3318 22.9992L27.2501 24.6411C27.5297 24.7956 27.7868 24.7691 27.9086 24.5617C27.9756 24.4241 28.0066 24.2725 27.9988 24.1203V15.7341C27.9988 15.125 27.7011 14.9573 27.1599 15.253L19.8573 19.2254Z" fill="white"/>
</svg>
