<svg width="40" height="40" viewBox="0 0 40 40" fill="none" xmlns="http://www.w3.org/2000/svg">
<path d="M34.076 34.2713C32.209 36.1326 29.987 37.5988 27.5422 38.5824C25.0975 39.566 22.48 40.0469 19.8457 39.9964C17.2279 40.0439 14.6279 39.5563 12.2049 38.5635C9.78176 37.5706 7.58649 36.0934 5.75325 34.222C1.90792 30.3855 -0.0098136 25.673 3.77607e-05 20.0843C3.77607e-05 14.3411 1.93419 9.55624 5.8025 5.72962C7.64315 3.86459 9.8444 2.39498 12.2717 1.4106C14.699 0.426226 17.3013 -0.0522188 19.9195 0.00451511C22.5533 -0.0367174 25.1684 0.4533 27.609 1.44536C30.0496 2.43742 32.2657 3.91122 34.1252 5.77893C38.0658 9.61536 40.0229 14.4069 39.9966 20.1534C40.0462 22.7896 39.5453 25.4072 38.5257 27.8383C37.5062 30.2694 35.9906 32.4606 34.076 34.2713Z" fill="black"/>
<path fill-rule="evenodd" clip-rule="evenodd" d="M13.9046 16.0672C13.767 15.8854 13.6316 15.7066 13.4979 15.53C13.1087 15.0164 12.7336 14.5212 12.3605 14.022C12.2396 13.861 12.1219 13.6975 12.0043 13.5343C11.873 13.352 11.742 13.17 11.6068 12.992C11.5774 12.9666 11.5538 12.9351 11.5376 12.8996C11.5214 12.8642 11.5131 12.8257 11.5131 12.7868C11.5131 12.7478 11.5214 12.7093 11.5376 12.6739C11.5538 12.6385 11.5774 12.607 11.6068 12.5816C13.1616 10.83 15.2236 9.60884 17.5048 9.08844C19.016 8.73476 20.5847 8.70604 22.1076 9.0042C23.2524 9.2274 24.3558 9.62676 25.3787 10.188C25.4419 10.2325 25.5018 10.2815 25.558 10.3347L25.4748 10.3955C25.0444 10.7104 24.6351 11.0098 24.2224 11.306C23.6952 11.683 23.1671 12.0593 22.6395 12.4354C21.4537 13.2804 20.2699 14.1241 19.1001 14.9713C18.866 15.1399 18.7342 15.1399 18.522 14.9236C18.3079 14.6979 18.0842 14.4808 17.8602 14.2635C17.6478 14.0575 17.4352 13.8512 17.2304 13.6372C17.1681 13.5558 17.0762 13.5024 16.9748 13.4888C16.8733 13.475 16.7706 13.502 16.6889 13.5638C15.7184 14.08 14.8739 14.8048 14.2156 15.686C14.1772 15.7336 14.1396 15.7794 14.099 15.8285C14.0428 15.8967 13.9811 15.9715 13.9046 16.0672ZM15.448 26.5711L15.4506 26.5691C15.6581 26.4148 15.8671 26.2595 16.078 26.103C16.0175 26.0522 15.9701 26.0116 15.9294 25.9768L15.9293 25.9767C15.879 25.9336 15.8388 25.8992 15.7963 25.8647C14.9006 25.2088 14.1578 24.366 13.6192 23.3943C13.5792 23.3463 13.5493 23.2904 13.5316 23.2304C13.5139 23.1704 13.5086 23.1073 13.5161 23.0452C13.5236 22.9829 13.5439 22.923 13.5755 22.8689C13.607 22.8149 13.6493 22.7679 13.6998 22.7308C13.9411 22.5041 14.1709 22.2668 14.4005 22.0298C14.62 21.8032 14.8393 21.5768 15.0682 21.36C15.1148 21.329 15.1536 21.2876 15.1817 21.2391C15.2099 21.1906 15.2265 21.1364 15.2304 21.0804C15.2343 21.0244 15.2253 20.9684 15.2042 20.9164C15.183 20.8645 15.1503 20.8182 15.1084 20.7809C14.1501 19.5332 13.1993 18.2799 12.2492 17.0276C11.8681 16.5252 11.487 16.0229 11.1056 15.5212C10.9901 15.3744 10.8731 15.2204 10.753 15.0624V15.0624L10.7529 15.0623C10.6031 14.8651 10.4485 14.6616 10.286 14.4583C10.248 14.5274 10.2144 14.5868 10.184 14.6403V14.6404C10.1354 14.7259 10.0952 14.7966 10.0592 14.8688C9.32604 16.2881 8.90204 17.8473 8.81524 19.4431C8.7382 20.8924 8.95476 22.3425 9.45188 23.7059C10.0716 25.4854 11.139 27.0748 12.5509 28.3204C12.6048 28.3661 12.6688 28.398 12.7376 28.4132C12.8064 28.4286 12.878 28.4269 12.946 28.4084C13.7799 27.8114 14.6019 27.2002 15.448 26.5711ZM16.9652 27.772C16.1273 28.3953 15.2877 29.02 14.4424 29.651C14.4923 29.7005 14.5461 29.7459 14.6034 29.7866C16.0739 30.6054 17.7097 31.0815 19.3892 31.1794C20.7645 31.2618 22.1428 31.0751 23.4468 30.6296C25.3268 30.0174 27.0127 28.9201 28.335 27.4481C28.3727 27.4188 28.4036 27.3816 28.4255 27.3391C28.4474 27.2966 28.4598 27.2499 28.4619 27.2021C28.464 27.1544 28.4556 27.1067 28.4376 27.0625C28.4195 27.0183 28.392 26.9785 28.357 26.946C28.1907 26.7228 28.0274 26.498 27.863 26.2717L27.8629 26.2716C27.6657 26 27.4668 25.7264 27.2593 25.4505C26.9292 25.0117 26.5964 24.5784 26.2512 24.1292L26.251 24.1288L26.2509 24.1288L26.0921 23.922C26.0605 23.9614 26.0324 23.9955 26.0068 24.0264V24.0264C25.9585 24.0848 25.9195 24.132 25.8836 24.1823C25.2269 25.0948 24.3726 25.8467 23.3846 26.3815C23.3351 26.42 23.2782 26.448 23.2175 26.4638C23.1568 26.4796 23.0934 26.4828 23.0314 26.4731C22.9694 26.4635 22.91 26.4413 22.8569 26.408C22.8038 26.3745 22.758 26.3306 22.7224 26.2788C22.3606 25.8958 21.9788 25.5236 21.5936 25.1483L21.5936 25.1482C21.4334 24.9921 21.2726 24.8354 21.1125 24.6772C19.7234 25.7196 18.3471 26.7437 16.9659 27.7714L16.9654 27.7718L16.9652 27.772ZM24.5932 13.3816C24.3707 13.5512 24.1453 13.7228 23.9155 13.8972L24.2668 14.1685C25.1586 14.8321 25.8922 15.686 26.4144 16.6683C26.4801 16.7552 26.5092 16.8645 26.4956 16.9728C26.4819 17.0809 26.4265 17.1795 26.3413 17.2474C25.9205 17.6506 25.4888 18.1088 25.1229 18.5046C24.9416 18.7007 24.8313 18.7691 24.816 18.8545C24.8003 18.9416 24.8832 19.0464 25.09 19.322C26.3316 20.9664 27.5682 22.6085 28.8 24.2481C28.9728 24.4788 29.148 24.7057 29.3241 24.934C29.4504 25.0975 29.5771 25.2616 29.7038 25.4284C29.7296 25.4052 29.7524 25.3882 29.7708 25.3744C29.802 25.3509 29.8208 25.3368 29.8208 25.3184C30.6403 23.8198 31.1082 22.154 31.1892 20.4472C31.2444 19.2428 31.0935 18.0379 30.7428 16.8845C30.1516 14.8367 28.9874 13.0013 27.3877 11.5955C27.2377 11.4635 27.1352 11.4782 26.9816 11.5955C26.7459 11.7918 26.489 11.9728 26.2264 12.158C26.1262 12.2285 26.0252 12.2996 25.9242 12.3725C25.4833 12.7037 25.044 13.0383 24.5932 13.3816Z" fill="white"/>
</svg>
