<svg width="40" height="40" viewBox="0 0 40 40" fill="none" 
    xmlns="http://www.w3.org/2000/svg">
    <path d="M34.0796 34.2514C32.2165 36.1149 29.9981 37.5838 27.5566 38.5708C25.115 39.5577 22.5002 40.0425 19.8678 39.9963C17.2518 40.0478 14.6528 39.5645 12.2296 38.5759C9.80642 37.5873 7.60987 36.1141 5.77416 34.2464C3.89525 32.4138 2.41331 30.2132 1.4207 27.7816C0.428099 25.3501 -0.0538904 22.7398 0.00477979 20.1135C0.00477979 14.3669 1.93119 9.57871 5.784 5.74877C7.62088 3.88162 9.81846 2.40919 12.2425 1.42144C14.6665 0.433684 17.2662 -0.048659 19.8826 0.00387302C22.5145 -0.0407879 25.1285 0.445222 27.5691 1.433C30.0097 2.42077 32.2271 3.89014 34.0894 5.75371C38.0276 9.58693 39.9966 14.3768 39.9966 20.1234C40.0464 22.7611 39.5458 25.3803 38.5269 27.8131C37.508 30.2459 35.9932 32.4388 34.0796 34.2514Z" fill="#C43C86"/>
    <path d="M14.9169 23.9774L25.068 23.9956L20.0088 15.2277L14.9169 23.9774Z" fill="white"/>
    <path d="M20.0234 8.8C19.9379 8.80039 19.854 8.8231 19.78 8.86587C19.7059 8.90863 19.6443 8.96999 19.6012 9.04386L9.49386 26.416C9.45106 26.4902 9.42852 26.5743 9.42852 26.6599C9.42852 26.7455 9.45106 26.8296 9.49386 26.9037L15.6522 23.3441L20.0016 15.8573L20.0234 8.8Z" fill="#EF4B2D"/>
    <path d="M30.4874 26.4524L20.4419 9.04386C20.3995 8.97027 20.3385 8.90906 20.2651 8.86629C20.1917 8.82352 20.1083 8.80066 20.0234 8.8V15.861L24.3364 23.3623L30.4838 26.9401C30.5283 26.8667 30.5521 26.7826 30.5527 26.6968C30.5533 26.6109 30.5308 26.5265 30.4874 26.4524V26.4524Z" fill="#9D2063"/>
    <path d="M30.4839 26.9328L24.3365 23.3551H15.6522L9.49392 26.8965C9.53583 26.9705 9.59667 27.0321 9.67022 27.075C9.74376 27.1178 9.82737 27.1404 9.91248 27.1403L30.0617 27.1767C30.1472 27.1763 30.2312 27.1536 30.3052 27.1108C30.3792 27.0681 30.4409 27.0067 30.4839 26.9328V26.9328Z" fill="#662F8E"/>
</svg>
