<svg width="40" height="40" viewBox="0 0 40 40" fill="none" 
    xmlns="http://www.w3.org/2000/svg">
    <path d="M34.0796 34.2514C32.2164 36.1149 29.9981 37.5838 27.5566 38.5708C25.115 39.5577 22.5002 40.0425 19.8678 39.9963C17.2518 40.0478 14.6528 39.5645 12.2296 38.5759C9.80642 37.5873 7.60987 36.1141 5.77416 34.2464C3.89525 32.4138 2.41331 30.2132 1.4207 27.7816C0.428099 25.3501 -0.0538903 22.7398 0.00477979 20.1135C0.00477979 14.3669 1.93119 9.57871 5.784 5.74877C7.62088 3.88162 9.81846 2.40919 12.2425 1.42144C14.6665 0.433684 17.2662 -0.048659 19.8826 0.00387302C22.5145 -0.0407879 25.1285 0.445222 27.5691 1.433C30.0097 2.42077 32.2271 3.89014 34.0894 5.75371C38.0276 9.58693 39.9966 14.3768 39.9966 20.1234C40.0464 22.7611 39.5458 25.3803 38.5269 27.8131C37.508 30.2459 35.9932 32.4388 34.0796 34.2514Z" fill="#4160AB"/>
    <path d="M20.0215 8L17.815 9.24915L11.7935 12.6832L9.59998 13.971V25.9517L11.7978 27.2395L17.8494 30.7122L20.0516 32L22.2408 30.7122L28.1935 27.2781L30.4 25.9903V14.0097L28.2021 12.7219L22.2236 9.24915L20.0215 8ZM13.9785 23.4148V16.4908L20 13.0567L26.0215 16.5466V23.4706L20 26.9047L13.9785 23.4148Z" fill="white"/>
</svg>
