<svg width="70" height="70" viewBox="0 0 70 70" fill="none" xmlns="http://www.w3.org/2000/svg">
<path d="M0 35C0 15.67 15.67 0 35 0V0C54.33 0 70 15.67 70 35V35C70 54.33 54.33 70 35 70V70C15.67 70 0 54.33 0 35V35Z" fill="url(#lend_linear)"/>
<path d="M32.8334 22.7834C33.7063 21.9742 34.5477 21.1335 35.3575 20.2613C36.5459 19.1368 37.7027 17.9809 38.828 16.7933C39.9638 15.6689 41.1102 14.5444 42.246 13.4095C43.4134 12.2535 44.5597 11.087 45.7271 9.93101C45.8638 9.8049 45.9584 9.61574 46.1793 9.59473C47.4834 10.9083 48.7875 12.2325 50.1126 13.5356C50.3755 13.7983 50.365 13.9349 50.1126 14.1871C48.7875 15.4902 47.4939 16.8144 46.1898 18.128C46.1267 18.3171 46.0215 18.4748 45.8848 18.6114C44.1285 20.3664 42.3827 22.1214 40.5948 23.8869C41.7096 25.0008 42.8244 26.1148 43.9497 27.2392C44.5597 27.8487 45.1592 28.4477 45.7691 29.0573C45.9479 29.2359 46.1057 29.4041 46.2003 29.6458C47.5044 30.9594 48.798 32.2835 50.1126 33.5761C50.3755 33.8388 50.365 33.9649 50.1126 34.2172C49.0819 35.226 48.0723 36.2664 47.0522 37.2963C47.0206 37.3173 46.9891 37.3278 46.968 37.3488C46.6631 37.5905 46.4317 38.137 46.0951 38.0739C45.7271 38.0109 45.4326 37.5695 45.1171 37.2858C44.9804 37.1597 44.8542 37.0125 44.728 36.8759C44.139 36.1403 43.4344 35.5098 42.7508 34.8582C42.4984 34.8267 42.3722 34.6165 42.2144 34.4694C40.7842 33.0507 39.3749 31.632 37.9446 30.2132C36.4302 28.6789 34.8947 27.1657 33.3803 25.6419C33.2226 25.4842 33.0438 25.3371 32.9596 25.1164C32.7703 24.8957 32.581 24.6645 32.3707 24.4544C31.7923 23.8659 31.7817 23.8659 32.3917 23.2668C32.5284 23.1197 32.6757 22.9516 32.8334 22.7834Z" fill="#FEFEFE"/>
<path d="M29.1422 55.1719C28.3008 56.0126 27.47 56.8533 26.6287 57.694C25.8294 58.4717 25.0196 59.2388 24.2519 60.0375C23.9469 60.3633 23.7681 60.3318 23.4841 60.027C22.9793 59.4805 22.4219 58.9761 21.8856 58.4507C21.2125 57.7676 20.5499 57.0635 19.8558 56.4014C19.5824 56.1387 19.6139 56.0021 19.8663 55.7499C20.5604 55.0878 21.2125 54.3837 21.8856 53.7006C21.9802 53.4484 22.1695 53.2698 22.3588 53.0806C23.7891 51.6514 25.2299 50.2222 26.6497 48.7825C27.5752 47.8892 28.4691 46.9539 29.3946 46.0606C28.4586 45.1674 27.5647 44.2426 26.6497 43.3388C25.2089 41.8886 23.7576 40.4489 22.3168 38.9986C22.1485 38.8305 21.9382 38.6834 21.8961 38.4101C21.2756 37.7796 20.6551 37.1386 20.0346 36.508C19.5614 36.0351 19.5613 36.0351 20.0556 35.5412C20.6656 34.9212 21.2756 34.3011 21.8856 33.6811C22.4219 33.1557 22.9793 32.6617 23.4841 32.1048C23.8101 31.737 23.9889 31.8105 24.2939 32.1258C25.0827 32.956 25.9135 33.7442 26.7338 34.5534C26.9862 34.6269 27.1335 34.8266 27.3123 34.9947C28.7215 36.4029 30.1308 37.8111 31.54 39.2088C32.6338 40.3228 33.7591 41.4157 34.8528 42.5296C35.0106 42.6873 35.2104 42.8134 35.2525 43.0551C36.1464 43.9589 37.0403 44.8731 37.9448 45.7664C38.1761 45.9976 38.1761 46.1132 37.9448 46.3339C37.0298 47.2271 36.1464 48.1414 35.2525 49.0452C34.3585 49.8333 33.5592 50.7161 32.7284 51.5673C31.5295 52.7864 30.3411 53.9739 29.1422 55.1719Z" fill="#FEFEFE"/>
<path d="M26.8393 28.7736C27.6806 28.0064 28.4799 27.1972 29.2582 26.3565C30.0154 25.7155 30.0048 25.7155 30.741 26.4406C31.3931 27.0921 32.0556 27.7332 32.7182 28.3847C32.9706 28.4373 33.1283 28.6475 33.2966 28.8156C34.7795 30.2974 36.2518 31.7791 37.7452 33.2504C39.1545 34.6796 40.5848 36.0878 42.0045 37.517C42.1623 37.6746 42.3621 37.8007 42.3937 38.0529C42.9405 38.6099 43.4769 39.1879 44.0448 39.7344C44.2446 39.934 44.2867 40.0391 44.0658 40.2598C42.7933 41.5104 41.5313 42.7715 40.2903 44.0325C40.0695 44.2532 39.9432 44.2322 39.7539 44.022C39.5121 43.7488 39.2281 43.5176 38.9652 43.2654C37.8083 42.0463 36.6094 40.8483 35.3895 39.6923C35.1265 39.6818 35.0003 39.4717 34.8531 39.314C33.7804 38.2526 32.7077 37.1702 31.635 36.1088C30.2047 34.6691 28.7639 33.2399 27.3336 31.8106C27.1443 31.6215 26.955 31.4428 26.8814 31.1801C26.5869 30.8753 26.3134 30.5601 26.0085 30.2763C25.7666 30.0556 25.714 29.9085 25.9874 29.6668C26.2714 29.3936 26.5448 29.0678 26.8393 28.7736Z" fill="#FEFEFE"/>
<defs>
<linearGradient id="lend_linear" x1="0" y1="70" x2="70" y2="70" gradientUnits="userSpaceOnUse">
<stop stop-color="#10ADC8"/>
<stop offset="1" stop-color="#1C91CB"/>
</linearGradient>
</defs>
</svg>
