<svg width="40" height="40" viewBox="0 0 40 40" fill="none" 
    xmlns="http://www.w3.org/2000/svg">
    <path d="M34.0885 34.2381C32.2269 36.1032 30.0097 37.5742 27.5686 38.5635C25.1276 39.5527 22.5128 40.0401 19.8798 39.9964C17.262 40.047 14.6614 39.5625 12.237 38.5724C9.81262 37.5823 7.61532 36.1075 5.77947 34.2381C3.90076 32.4064 2.41855 30.2072 1.42503 27.7772C0.431518 25.3473 -0.0520421 22.7386 0.00443394 20.1135C0.00443394 14.3651 1.92944 9.57638 5.77947 5.74738C7.61658 3.88067 9.81444 2.40861 12.2388 1.42109C14.6631 0.433579 17.2631 -0.0486472 19.8798 0.00387208C22.5118 -0.0417039 25.126 0.443283 27.5669 1.42998C30.0079 2.41668 32.2257 3.88492 34.0885 5.74738C38.0271 9.57638 39.9964 14.3651 39.9964 20.1135C40.0475 22.7499 39.5484 25.368 38.5311 27.8002C37.5137 30.2323 36.0006 32.4251 34.0885 34.2381Z" fill="#C8C8C8"/>
    <path d="M20.0125 6.8291L12 20.1012L20.0125 16.4641V6.8291Z" fill="#8B8B8B"/>
    <path d="M20.0125 16.4639L12 20.101L20.0125 24.8262V16.4639Z" fill="#393939"/>
    <path d="M20.0125 6.8291V16.4641L28.0172 20.1012L20.0125 6.8291Z" fill="#343434"/>
    <path d="M20.0125 16.4639V24.8262L28.0172 20.101L20.0125 16.4639Z" fill="#161616"/>
    <path d="M12 21.6162L20.0125 32.8891V26.3453L12 21.6162Z" fill="#8B8B8B"/>
    <path d="M28.0249 21.6162L20.0125 26.3453V32.8891L28.0249 21.6162Z" fill="#343434"/>
</svg>
