<svg width="40" height="40" viewBox="0 0 40 40" fill="none" 
    xmlns="http://www.w3.org/2000/svg">
    <path d="M34.076 34.2713C32.2091 36.1327 29.9871 37.5988 27.5423 38.5824C25.0975 39.566 22.48 40.0469 19.8456 39.9964C17.2279 40.0439 14.628 39.5564 12.2049 38.5635C9.78178 37.5706 7.58649 36.0933 5.75324 34.222C1.90792 30.3855 -0.00981362 25.673 3.77608e-05 20.0843C3.77608e-05 14.3411 1.93419 9.55622 5.8025 5.72962C7.64314 3.86459 9.84438 2.39497 12.2717 1.4106C14.6989 0.426225 17.3013 -0.0522188 19.9195 0.00451511C22.5533 -0.0367174 25.1684 0.4533 27.609 1.44536C30.0496 2.43743 32.2657 3.91123 34.1252 5.77893C38.0658 9.61539 40.0229 14.4069 39.9966 20.1533C40.0463 22.7896 39.5453 25.4072 38.5257 27.8383C37.5061 30.2695 35.9905 32.4606 34.076 34.2713V34.2713Z" fill="#5F2652"/>
    <path fill-rule="evenodd" clip-rule="evenodd" d="M16.3694 20.3875L16.3334 20.5994L16.3216 20.6833C16.1705 21.8497 15.7151 22.1905 14.5844 22.6875C14.5819 22.6885 14.5793 22.688 14.5772 22.689L10.4774 24.4875L19.7343 29.7359V26.7317C19.7343 25.6298 19.6675 25.4317 18.6827 24.8913C18.4895 24.7853 18.2937 24.6748 18.0793 24.5535L17.9457 24.4777C17.3326 24.1522 16.833 23.6717 16.4645 23.101C16.4511 23.0806 16.3524 22.9326 16.3396 22.9117C16.4162 22.87 16.4872 22.8187 16.5508 22.7591C16.618 22.6996 16.6752 22.6298 16.7204 22.5524C17.0427 23.1757 17.5325 23.7029 18.1595 24.0463L18.3117 24.1323C18.5229 24.2515 18.7382 24.3687 18.9315 24.4742C20.1393 25.1369 20.2354 25.5438 20.2354 26.7322V29.7395L29.5782 24.3953L25.5801 22.6588L25.32 22.5478C25.2182 22.4986 24.8986 22.3686 24.6519 22.3615C24.4 22.3461 24.0176 22.362 23.8115 22.6225C23.6211 22.8622 23.4306 23.1019 23.24 23.3416C22.799 23.9097 22.2224 24.3739 21.5337 24.6523C21.5317 24.6536 21.5296 24.6548 21.5275 24.6559C21.3461 24.7296 21.1508 24.772 20.957 24.8171C20.9169 24.7408 20.8542 24.6523 20.7966 24.5806C20.755 24.5289 20.6928 24.465 20.6348 24.4051C20.9277 24.3483 21.2644 24.2556 21.5265 24.1308L21.5275 24.1302C22.0507 23.883 22.503 23.5366 22.8504 23.0913C22.8675 23.0721 22.8829 23.0516 22.8967 23.0299C22.9321 22.9838 22.9676 22.9388 23 22.8902C23.0925 22.7663 23.2333 22.5816 23.4302 22.3349C23.5623 22.168 23.7473 22.058 23.9441 21.9868L23.9436 21.9879C24.1559 21.9121 24.401 21.8783 24.6688 21.8804C25.0748 21.8937 25.5251 22.1087 25.5343 22.1127L25.6746 22.1731L25.6854 22.1772L26.0493 22.3333C26.0519 22.3338 26.0519 22.3364 26.0539 22.3374L29.5478 23.8554L20.2436 9.10548V15.3494C20.2436 16.4282 20.3233 16.6642 21.3168 17.2092C21.3955 17.2515 21.4755 17.2913 21.5568 17.3285L21.6853 17.3914C21.7177 17.4058 21.7485 17.4227 21.7799 17.438L21.7814 17.4385H21.7819C23.0853 18.0604 23.9955 19.3214 24.0747 20.7928C23.9894 20.8159 23.8598 20.8522 23.7874 20.8742C23.7344 20.8896 23.6543 20.9295 23.5869 20.9653C23.5741 19.6055 22.7476 18.4324 21.5537 17.8664L21.5532 17.8659C21.5496 17.8643 21.547 17.8648 21.5439 17.8633C21.4746 17.8281 21.4047 17.794 21.3342 17.761C21.081 17.6437 20.8379 17.5057 20.6075 17.3484C20.571 17.3249 20.5407 17.2998 20.5073 17.2763C20.4343 17.2236 20.3659 17.1698 20.3063 17.1176C20.2714 17.0874 20.2395 17.0593 20.2174 17.0316C19.8196 16.6309 19.7415 16.1795 19.7415 15.3494V9.10292L10.4085 23.989L14.5279 22.1824H14.5299C15.4438 21.7811 15.7213 21.4454 15.8436 20.4801C15.8457 20.4673 15.8493 20.4341 15.8524 20.4218C16.0878 18.8787 17.2483 17.6407 18.7727 17.2077L18.9783 17.1488C19.0039 17.2277 19.038 17.3035 19.08 17.3751C19.1263 17.4518 19.181 17.5232 19.2429 17.588L19.0512 17.6304C17.6805 17.9631 16.6202 19.0338 16.3694 20.3875ZM9.63653 24.2874L19.7754 8.11618C19.7983 8.08032 19.83 8.05084 19.8675 8.03052C19.905 8.0102 19.947 7.9997 19.9897 8.00001C20.0324 7.9997 20.0745 8.0102 20.112 8.03052C20.1495 8.05084 20.1811 8.08032 20.2041 8.11618L30.365 24.2224C30.3817 24.2496 30.3928 24.2799 30.3974 24.3115C30.4021 24.3431 30.4004 24.3753 30.3924 24.4062C30.3843 24.437 30.3701 24.466 30.3506 24.4913C30.331 24.5166 30.3066 24.5378 30.2787 24.5535L20.1177 30.3665C20.0789 30.3884 20.0349 30.4 19.9902 30.4C19.9456 30.4 19.9016 30.3884 19.8628 30.3665L9.72339 24.619C9.69525 24.6031 9.67054 24.5818 9.65069 24.5563C9.63085 24.5308 9.61625 24.5017 9.60775 24.4706C9.59953 24.4397 9.59785 24.4075 9.6028 24.376C9.60776 24.3444 9.61924 24.3142 9.63653 24.2874Z" fill="white" stroke="white"/>
</svg>
