<svg xmlns="http://www.w3.org/2000/svg" xmlns:xlink="http://www.w3.org/1999/xlink" width="40" height="40" viewBox="0 0 40 40">
  <defs>
    <clipPath id="clip-path">
      <rect width="40" height="40" fill="none"/>
    </clipPath>
  </defs>
  <g id="ic_unsafe" clip-path="url(#clip-path)">
    <g id="Path_547" data-name="Path 547" fill="#de4a4a">
      <path d="M 20.00015640258789 39.00031661987305 C 17.43470573425293 39.00031661987305 14.94653606414795 38.49809646606445 12.60474681854248 37.50759506225586 C 10.34233665466309 36.55068588256836 8.310276031494141 35.18056488037109 6.565016269683838 33.43529510498047 C 4.819746494293213 31.69003677368164 3.449626445770264 29.6579761505127 2.492716312408447 27.39556694030762 C 1.502216458320618 25.05377578735352 0.9999964237213135 22.56560707092285 0.9999964237213135 20.00015640258789 C 0.9999964237213135 17.43470573425293 1.502216458320618 14.94653606414795 2.492716312408447 12.60474681854248 C 3.449626445770264 10.34233665466309 4.819746494293213 8.310276031494141 6.565016269683838 6.565016269683838 C 8.310276031494141 4.819746494293213 10.34233665466309 3.449626445770264 12.60474681854248 2.492716312408447 C 14.94653606414795 1.502216458320618 17.43470573425293 0.9999964237213135 20.00015640258789 0.9999964237213135 C 22.56560707092285 0.9999964237213135 25.05377578735352 1.502216458320618 27.39556694030762 2.492716312408447 C 29.6579761505127 3.449626445770264 31.69003677368164 4.819746494293213 33.43529510498047 6.565016269683838 C 35.18056488037109 8.310276031494141 36.55068588256836 10.34233665466309 37.50759506225586 12.60474681854248 C 38.49809646606445 14.94653606414795 39.00031661987305 17.43470573425293 39.00031661987305 20.00015640258789 C 39.00031661987305 22.56560707092285 38.49809646606445 25.05377578735352 37.50759506225586 27.39556694030762 C 36.55068588256836 29.6579761505127 35.18056488037109 31.69003677368164 33.43529510498047 33.43529510498047 C 31.69003677368164 35.18056488037109 29.6579761505127 36.55068588256836 27.39556694030762 37.50759506225586 C 25.05377578735352 38.49809646606445 22.56560707092285 39.00031661987305 20.00015640258789 39.00031661987305 Z" stroke="none"/>
      <path d="M 20.00015640258789 1.999996185302734 C 15.19213676452637 1.999996185302734 10.67190551757813 3.872337341308594 7.272125244140625 7.272125244140625 C 3.872337341308594 10.67190551757813 1.999996185302734 15.19213676452637 1.999996185302734 20.00015640258789 C 1.999996185302734 24.80817604064941 3.872337341308594 29.32840728759766 7.272125244140625 32.72818756103516 C 10.67190551757813 36.12797546386719 15.19213676452637 38.00031661987305 20.00015640258789 38.00031661987305 C 24.80817604064941 38.00031661987305 29.32840728759766 36.12797546386719 32.72818756103516 32.72818756103516 C 36.12797546386719 29.32840728759766 38.00031661987305 24.80817604064941 38.00031661987305 20.00015640258789 C 38.00031661987305 15.19213676452637 36.12797546386719 10.67190551757813 32.72818756103516 7.272125244140625 C 29.32840728759766 3.872337341308594 24.80817604064941 1.999996185302734 20.00015640258789 1.999996185302734 M 20.00015640258789 -3.814697265625e-06 C 31.04593658447266 -3.814697265625e-06 40.00031661987305 8.954376220703125 40.00031661987305 20.00015640258789 C 40.00031661987305 31.04593658447266 31.04593658447266 40.00031661987305 20.00015640258789 40.00031661987305 C 8.954376220703125 40.00031661987305 -3.814697265625e-06 31.04593658447266 -3.814697265625e-06 20.00015640258789 C -3.814697265625e-06 8.954376220703125 8.954376220703125 -3.814697265625e-06 20.00015640258789 -3.814697265625e-06 Z" stroke="none" fill="#de4a4a"/>
    </g>
    <path id="Path_653" data-name="Path 653" d="M0,0H2V8H0Z" transform="translate(19 14)" fill="#fff"/>
    <rect id="Rectangle_533" data-name="Rectangle 533" width="2" height="2" transform="translate(19 24)" fill="#fff"/>
  </g>
</svg>
