<svg xmlns="http://www.w3.org/2000/svg" width="128" height="128" viewBox="0 0 128 128">
    <defs>
        <style>
            .cls-1{opacity:.2}.cls-2{fill:#4ecea3}
        </style>
    </defs>
    <g id="img_dots_pattern_green" class="cls-1" transform="translate(-832 -368)">
        <circle id="Ellipse_112" cx="3" cy="3" r="3" class="cls-2" data-name="Ellipse 112" transform="rotate(180 465.5 241.5)"/>
        <circle id="Ellipse_145" cx="3" cy="3" r="3" class="cls-2" data-name="Ellipse 145" transform="rotate(180 465.5 193.5)"/>
        <circle id="Ellipse_147" cx="3" cy="3" r="3" class="cls-2" data-name="Ellipse 147" transform="rotate(180 457.5 193.5)"/>
        <circle id="Ellipse_157" cx="3" cy="3" r="3" class="cls-2" data-name="Ellipse 157" transform="rotate(180 449.5 193.5)"/>
        <circle id="Ellipse_113" cx="3" cy="3" r="3" class="cls-2" data-name="Ellipse 113" transform="rotate(180 457.5 241.5)"/>
        <circle id="Ellipse_114" cx="3" cy="3" r="3" class="cls-2" data-name="Ellipse 114" transform="rotate(180 449.5 241.5)"/>
        <circle id="Ellipse_112-2" cx="2" cy="2" r="2" class="cls-2" data-name="Ellipse 112" transform="rotate(180 465 248)"/>
        <circle id="Ellipse_113-2" cx="2" cy="2" r="2" class="cls-2" data-name="Ellipse 113" transform="rotate(180 457 248)"/>
        <circle id="Ellipse_114-2" cx="2" cy="2" r="2" class="cls-2" data-name="Ellipse 114" transform="rotate(180 449 248)"/>
        <circle id="Ellipse_112-3" cx="4" cy="4" r="4" class="cls-2" data-name="Ellipse 112" transform="rotate(180 466 234)"/>
        <circle id="Ellipse_113-3" cx="4" cy="4" r="4" class="cls-2" data-name="Ellipse 113" transform="rotate(180 458 234)"/>
        <circle id="Ellipse_114-3" cx="4" cy="4" r="4" class="cls-2" data-name="Ellipse 114" transform="rotate(180 450 234)"/>
        <circle id="Ellipse_112-4" cx="3" cy="3" r="3" class="cls-2" data-name="Ellipse 112" transform="rotate(90 275 672)"/>
        <circle id="Ellipse_146" cx="3" cy="3" r="3" class="cls-2" data-name="Ellipse 146" transform="rotate(90 283 664)"/>
        <circle id="Ellipse_113-4" cx="3" cy="3" r="3" class="cls-2" data-name="Ellipse 113" transform="rotate(90 267 680)"/>
        <circle id="Ellipse_114-4" cx="3" cy="3" r="3" class="cls-2" data-name="Ellipse 114" transform="rotate(90 259 688)"/>
        <circle id="Ellipse_115" cx="3" cy="3" r="3" class="cls-2" data-name="Ellipse 115" transform="rotate(90 251 696)"/>
        <circle id="Ellipse_116" cx="3" cy="3" r="3" class="cls-2" data-name="Ellipse 116" transform="rotate(90 243 704)"/>
        <circle id="Ellipse_136" cx="3" cy="3" r="3" class="cls-2" data-name="Ellipse 136" transform="rotate(90 235 712)"/>
        <circle id="Ellipse_112-5" cx="2" cy="2" r="2" class="cls-2" data-name="Ellipse 112" transform="rotate(90 281 679)"/>
        <circle id="Ellipse_144" cx="2" cy="2" r="2" class="cls-2" data-name="Ellipse 144" transform="rotate(90 281 649)"/>
        <circle id="Ellipse_148" cx="2" cy="2" r="2" class="cls-2" data-name="Ellipse 148" transform="rotate(90 273 641)"/>
        <circle id="Ellipse_158" cx="2" cy="2" r="2" class="cls-2" data-name="Ellipse 158" transform="rotate(90 265 633)"/>
        <circle id="Ellipse_113-5" cx="2" cy="2" r="2" class="cls-2" data-name="Ellipse 113" transform="rotate(90 273 687)"/>
        <circle id="Ellipse_114-5" cx="2" cy="2" r="2" class="cls-2" data-name="Ellipse 114" transform="rotate(90 265 695)"/>
        <circle id="Ellipse_115-2" cx="2" cy="2" r="2" class="cls-2" data-name="Ellipse 115" transform="rotate(90 257 703)"/>
        <circle id="Ellipse_116-2" cx="2" cy="2" r="2" class="cls-2" data-name="Ellipse 116" transform="rotate(90 249 711)"/>
        <circle id="Ellipse_112-6" cx="4" cy="4" r="4" class="cls-2" data-name="Ellipse 112" transform="rotate(90 268 664)"/>
        <circle id="Ellipse_113-6" cx="4" cy="4" r="4" class="cls-2" data-name="Ellipse 113" transform="rotate(90 260 672)"/>
        <circle id="Ellipse_114-6" cx="4" cy="4" r="4" class="cls-2" data-name="Ellipse 114" transform="rotate(90 252 680)"/>
        <circle id="Ellipse_115-3" cx="4" cy="4" r="4" class="cls-2" data-name="Ellipse 115" transform="rotate(90 244 688)"/>
        <circle id="Ellipse_137" cx="5" cy="5" r="5" class="cls-2" data-name="Ellipse 137" transform="rotate(90 237 680)"/>
        <circle id="Ellipse_138" cx="5" cy="5" r="5" class="cls-2" data-name="Ellipse 138" transform="rotate(90 245 672)"/>
        <circle id="Ellipse_140" cx="5" cy="5" r="5" class="cls-2" data-name="Ellipse 140" transform="rotate(90 253 664)"/>
        <circle id="Ellipse_155" cx="5" cy="5" r="5" class="cls-2" data-name="Ellipse 155" transform="rotate(90 245 656)"/>
        <circle id="Ellipse_141" cx="5" cy="5" r="5" class="cls-2" data-name="Ellipse 141" transform="rotate(90 261 656)"/>
        <circle id="Ellipse_156" cx="5" cy="5" r="5" class="cls-2" data-name="Ellipse 156" transform="rotate(90 253 648)"/>
        <circle id="Ellipse_139" cx="5" cy="5" r="5" class="cls-2" data-name="Ellipse 139" transform="rotate(90 229 672)"/>
        <circle id="Ellipse_142" cx="5" cy="5" r="5" class="cls-2" data-name="Ellipse 142" transform="rotate(90 237 664)"/>
        <circle id="Ellipse_116-3" cx="4" cy="4" r="4" class="cls-2" data-name="Ellipse 116" transform="rotate(90 236 696)"/>
        <circle id="Ellipse_112-7" cx="3" cy="3" r="3" class="cls-2" data-name="Ellipse 112" transform="translate(861 477)"/>
        <circle id="Ellipse_145-2" cx="3" cy="3" r="3" class="cls-2" data-name="Ellipse 145" transform="translate(861 381)"/>
        <circle id="Ellipse_147-2" cx="3" cy="3" r="3" class="cls-2" data-name="Ellipse 147" transform="translate(877 381)"/>
        <circle id="Ellipse_113-7" cx="3" cy="3" r="3" class="cls-2" data-name="Ellipse 113" transform="translate(877 477)"/>
        <circle id="Ellipse_112-8" cx="2" cy="2" r="2" class="cls-2" data-name="Ellipse 112" transform="translate(862 492)"/>
        <circle id="Ellipse_113-8" cx="2" cy="2" r="2" class="cls-2" data-name="Ellipse 113" transform="translate(878 492)"/>
        <circle id="Ellipse_112-9" cx="4" cy="4" r="4" class="cls-2" data-name="Ellipse 112" transform="translate(860 460)"/>
        <circle id="Ellipse_113-9" cx="4" cy="4" r="4" class="cls-2" data-name="Ellipse 113" transform="translate(876 460)"/>
        <circle id="Ellipse_112-10" cx="3" cy="3" r="3" class="cls-2" data-name="Ellipse 112" transform="rotate(90 227 624)"/>
        <circle id="Ellipse_146-2" cx="3" cy="3" r="3" class="cls-2" data-name="Ellipse 146" transform="rotate(90 235 616)"/>
        <circle id="Ellipse_113-10" cx="3" cy="3" r="3" class="cls-2" data-name="Ellipse 113" transform="rotate(90 219 632)"/>
        <circle id="Ellipse_114-7" cx="3" cy="3" r="3" class="cls-2" data-name="Ellipse 114" transform="rotate(90 211 640)"/>
        <circle id="Ellipse_115-4" cx="3" cy="3" r="3" class="cls-2" data-name="Ellipse 115" transform="rotate(90 203 648)"/>
        <circle id="Ellipse_116-4" cx="3" cy="3" r="3" class="cls-2" data-name="Ellipse 116" transform="rotate(90 195 656)"/>
        <circle id="Ellipse_136-2" cx="3" cy="3" r="3" class="cls-2" data-name="Ellipse 136" transform="rotate(90 187 664)"/>
        <circle id="Ellipse_112-11" cx="2" cy="2" r="2" class="cls-2" data-name="Ellipse 112" transform="rotate(90 219 617)"/>
        <circle id="Ellipse_144-2" cx="2" cy="2" r="2" class="cls-2" data-name="Ellipse 144" transform="rotate(90 249 617)"/>
        <circle id="Ellipse_148-2" cx="2" cy="2" r="2" class="cls-2" data-name="Ellipse 148" transform="rotate(90 257 625)"/>
        <circle id="Ellipse_113-11" cx="2" cy="2" r="2" class="cls-2" data-name="Ellipse 113" transform="rotate(90 211 625)"/>
        <circle id="Ellipse_114-8" cx="2" cy="2" r="2" class="cls-2" data-name="Ellipse 114" transform="rotate(90 203 633)"/>
        <circle id="Ellipse_115-5" cx="2" cy="2" r="2" class="cls-2" data-name="Ellipse 115" transform="rotate(90 195 641)"/>
        <circle id="Ellipse_116-5" cx="2" cy="2" r="2" class="cls-2" data-name="Ellipse 116" transform="rotate(90 187 649)"/>
        <circle id="Ellipse_112-12" cx="4" cy="4" r="4" class="cls-2" data-name="Ellipse 112" transform="rotate(90 236 632)"/>
        <circle id="Ellipse_113-12" cx="4" cy="4" r="4" class="cls-2" data-name="Ellipse 113" transform="rotate(90 228 640)"/>
        <circle id="Ellipse_114-9" cx="4" cy="4" r="4" class="cls-2" data-name="Ellipse 114" transform="rotate(90 220 648)"/>
        <circle id="Ellipse_115-6" cx="4" cy="4" r="4" class="cls-2" data-name="Ellipse 115" transform="rotate(90 212 656)"/>
        <circle id="Ellipse_137-2" cx="5" cy="5" r="5" class="cls-2" data-name="Ellipse 137" transform="rotate(90 221 664)"/>
        <circle id="Ellipse_138-2" cx="5" cy="5" r="5" class="cls-2" data-name="Ellipse 138" transform="rotate(90 229 656)"/>
        <circle id="Ellipse_140-2" cx="5" cy="5" r="5" class="cls-2" data-name="Ellipse 140" transform="rotate(90 237 648)"/>
        <circle id="Ellipse_141-2" cx="5" cy="5" r="5" class="cls-2" data-name="Ellipse 141" transform="rotate(90 245 640)"/>
        <circle id="Ellipse_116-6" cx="4" cy="4" r="4" class="cls-2" data-name="Ellipse 116" transform="rotate(90 204 664)"/>
    </g>
</svg>
