<svg width="25" height="25" viewBox="0 0 25 25" fill="none" xmlns="http://www.w3.org/2000/svg">
<path d="M23.6524 12.357V2.8755C23.6522 2.67607 23.6128 2.47863 23.5365 2.29446C23.4603 2.11029 23.3486 1.94299 23.2079 1.80212C23.0671 1.66125 22.9001 1.54957 22.7164 1.47345C22.5326 1.39732 22.3357 1.35825 22.1369 1.35847H12.6532C12.5581 1.35814 12.4669 1.32061 12.399 1.25385L11.2583 0.109533C11.2241 0.0746068 11.1833 0.0469184 11.1382 0.0281056C11.0931 0.00929284 11.0448 -0.000262301 10.996 5.47623e-06H1.51708C1.31828 -0.000424339 1.12135 0.0384317 0.937517 0.114355C0.753688 0.190278 0.586565 0.301782 0.445692 0.4425C0.304818 0.583218 0.192952 0.750394 0.11648 0.934483C0.0400082 1.11857 0.000428657 1.31597 1.13567e-06 1.5154V10.9969C-0.00011836 11.0441 0.00919324 11.0908 0.0273856 11.1343C0.045578 11.1778 0.072282 11.2173 0.10592 11.2502L1.24658 12.3946C1.28022 12.4276 1.30692 12.467 1.32511 12.5105C1.34331 12.554 1.35262 12.6008 1.3525 12.6479V22.1294C1.35271 22.3288 1.39208 22.5263 1.46835 22.7104C1.54463 22.8946 1.65631 23.0619 1.79704 23.2028C1.93776 23.3437 2.10476 23.4553 2.28851 23.5315C2.47225 23.6076 2.66915 23.6467 2.86795 23.6464H12.3517C12.4468 23.6468 12.538 23.6843 12.6059 23.7511L13.7466 24.8954C13.8145 24.9621 13.9057 24.9997 14.0008 25H23.4829C23.6817 25.0004 23.8787 24.9616 24.0625 24.8856C24.2463 24.8097 24.4134 24.6982 24.5543 24.5575C24.6952 24.4168 24.807 24.2496 24.8835 24.0655C24.96 23.8814 24.9996 23.684 25 23.4846V14.0031C25.0001 13.9559 24.9908 13.9092 24.9726 13.8657C24.9544 13.8222 24.9277 13.7827 24.8941 13.7498L23.7534 12.6054C23.6886 12.5391 23.6523 12.4499 23.6524 12.357ZM18.3891 18.6589H6.62397C6.5525 18.6576 6.48436 18.6283 6.43412 18.5773C6.38388 18.5263 6.35552 18.4576 6.3551 18.3859V6.62558C6.35553 6.55331 6.38434 6.48412 6.43528 6.43302C6.48622 6.38191 6.55519 6.35301 6.62723 6.35258H18.3891C18.4611 6.35301 18.5301 6.38191 18.581 6.43302C18.632 6.48412 18.6608 6.55331 18.6612 6.62558V18.3859C18.6608 18.4581 18.632 18.5273 18.581 18.5784C18.5301 18.6295 18.4611 18.6584 18.3891 18.6589Z" fill="white"/>
</svg>
