<?xml version="1.0" standalone="no"?>
<!DOCTYPE svg PUBLIC "-//W3C//DTD SVG 20010904//EN"
 "http://www.w3.org/TR/2001/REC-SVG-20010904/DTD/svg10.dtd">
<svg version="1.0" xmlns="http://www.w3.org/2000/svg"
 width="295.000000pt" height="72.000000pt" viewBox="0 0 295.000000 72.000000"
 preserveAspectRatio="xMidYMid meet">

<g transform="translate(0.000000,72.000000) scale(0.100000,-0.100000)"
fill="#000000" stroke="none">
<path d="M175 600 c-19 -7 -20 -18 -25 -231 -3 -123 -3 -232 -1 -241 3 -15 35
-26 43 -15 1 1 4 99 8 218 l5 216 130 -86 130 -87 5 -129 c5 -122 6 -130 25
-130 19 0 20 8 23 129 2 105 0 133 -13 153 -9 14 -74 62 -143 107 -156 102
-162 105 -187 96z"/>
<path d="M869 582 c-103 -62 -259 -173 -269 -192 -6 -12 -9 -71 -8 -147 3
-120 4 -128 23 -128 19 0 20 8 23 128 l3 127 134 90 135 90 0 -204 c0 -112 3
-211 6 -220 8 -22 41 -20 45 2 2 9 2 118 -1 241 -5 216 -6 224 -26 231 -15 6
-34 0 -65 -18z"/>
<path d="M1316 483 c-3 -4 -6 -73 -6 -155 0 -124 2 -148 15 -148 19 0 24 26
27 128 l3 83 48 -81 c26 -44 53 -80 60 -80 7 0 35 39 62 86 l50 85 3 -110 c2
-90 5 -111 17 -111 13 0 15 25 15 150 0 113 -3 150 -12 150 -7 0 -41 -45 -75
-101 l-61 -101 -59 100 c-55 96 -74 118 -87 105z"/>
<path d="M1764 348 c-32 -79 -59 -147 -59 -152 0 -5 6 -11 13 -14 7 -2 19 12
27 32 l15 36 73 0 73 0 13 -35 c12 -33 41 -49 41 -22 0 22 -115 290 -126 294
-6 2 -37 -60 -70 -139z m100 3 c14 -36 26 -66 26 -68 0 -2 -27 -3 -59 -3 l-60
0 15 35 c7 19 21 51 29 72 8 20 17 34 19 32 2 -2 16 -33 30 -68z"/>
<path d="M2046 475 c-9 -25 -7 -268 3 -284 16 -24 31 -1 31 48 0 80 15 80 92
4 51 -51 71 -64 79 -56 9 9 -3 27 -50 76 -33 35 -61 68 -61 73 0 5 25 34 55
64 49 49 70 90 46 90 -5 0 -43 -37 -85 -81 l-75 -81 -3 78 c-3 74 -17 106 -32
69z"/>
<path d="M2345 477 c-3 -7 -4 -76 -3 -152 l3 -140 98 -3 c82 -2 97 0 97 13 0
12 -15 15 -80 15 l-80 0 0 55 0 55 60 0 c47 0 60 3 60 15 0 12 -13 15 -60 15
l-60 0 0 50 0 49 78 3 c60 2 77 6 77 18 0 21 -183 28 -190 7z"/>
<path d="M2635 478 c-3 -8 -4 -77 -3 -153 3 -117 6 -140 18 -140 12 0 16 15
18 68 3 67 3 67 32 67 27 0 33 -6 61 -70 18 -38 38 -70 45 -70 21 0 17 25 -11
81 l-26 50 31 25 c40 34 42 89 5 124 -21 20 -39 25 -95 28 -54 3 -71 1 -75
-10z m153 -40 c17 -17 15 -48 -5 -70 -11 -13 -30 -18 -65 -18 l-48 0 0 50 0
50 53 0 c29 0 58 -5 65 -12z"/>
</g>
</svg>
