<svg width="118" height="21" viewBox="0 0 118 21" fill="none" 
    xmlns="http://www.w3.org/2000/svg">
    <path d="M3.78651 0.839989C2.18274 -0.185816 0 0.882406 0 2.69309V19.5782C0 20.1428 0.491904 20.6004 1.0987 20.6004C1.70549 20.6004 2.19739 20.1428 2.19739 19.5782V2.69309C2.19739 2.52848 2.39582 2.43137 2.54162 2.52463L14.0633 9.89414V19.5782C14.0633 20.1428 14.5552 20.6004 15.162 20.6004C15.7688 20.6004 16.2607 20.1428 16.2607 19.5782V9.35644C16.2607 9.01984 16.0826 8.70482 15.7845 8.51412L3.78651 0.839989Z" fill="black"/>
    <path d="M32.2507 0.839989C33.8545 -0.185816 36.0372 0.882406 36.0372 2.69309V19.5782C36.0372 20.1428 35.5453 20.6004 34.9385 20.6004C34.3318 20.6004 33.8399 20.1428 33.8399 19.5782V2.69309C33.8399 2.52848 33.6414 2.43137 33.4956 2.52463L21.9739 9.89414V19.5782C21.9739 20.1428 21.482 20.6004 20.8752 20.6004C20.2684 20.6004 19.7765 20.1428 19.7765 19.5782V9.35644C19.7765 9.01984 19.9547 8.70482 20.2528 8.51412L32.2507 0.839989Z" fill="black"/>
    <path d="M83.9965 4.85896C83.8807 4.85896 83.7925 4.88861 83.7146 4.9266C83.6814 4.94278 83.6487 4.96121 83.6196 4.97761L83.6121 4.9818C83.5797 5.00004 83.5486 5.01738 83.5136 5.03447L83.4159 5.08219V5.18729C83.4159 5.23484 83.4047 5.26998 83.3846 5.3285L83.3831 5.33275C83.363 5.39105 83.3352 5.47167 83.3352 5.57735V17.0677C83.3352 17.1791 83.3652 17.264 83.4039 17.3394C83.4203 17.3712 83.439 17.4027 83.4556 17.4307L83.4603 17.4386C83.4789 17.47 83.4966 17.5003 83.5139 17.5342L83.5268 17.5593L83.5473 17.5792C83.6587 17.6875 83.864 17.787 84.0763 17.787C84.1607 17.787 84.2526 17.7515 84.3183 17.7194C84.3672 17.6956 84.4191 17.6651 84.4654 17.6302H84.4791L84.5324 17.5733C84.6619 17.435 84.7351 17.2566 84.7386 17.0708L84.7386 17.0677V13.7739L86.1669 12.3157L91.4194 17.6548L91.4223 17.6576C91.5338 17.7659 91.739 17.8654 91.9513 17.8654C92.0671 17.8654 92.1553 17.8358 92.2332 17.7978C92.2664 17.7816 92.2991 17.7632 92.3282 17.7468L92.3357 17.7426C92.3681 17.7244 92.3992 17.707 92.4342 17.6899L92.4639 17.6754L92.4861 17.6517C92.6156 17.5134 92.6888 17.335 92.6924 17.1492L92.6924 17.1461C92.6924 17.0347 92.6624 16.9498 92.6236 16.8744C92.6072 16.8425 92.5886 16.8111 92.5719 16.783L92.5673 16.7751C92.5487 16.7437 92.531 16.7134 92.5136 16.6795L92.502 16.6568L87.216 11.2075L92.3219 6.08698L92.3256 6.08298C92.4551 5.94468 92.5283 5.76629 92.5319 5.58047L92.5319 5.57735C92.5319 5.46587 92.5018 5.38114 92.463 5.3059C92.4468 5.27446 92.4283 5.24341 92.4118 5.2157L92.4067 5.20705C92.3881 5.17579 92.3705 5.14563 92.3531 5.11175L92.3386 5.08345L92.3146 5.06193C92.1729 4.93504 91.9873 4.86274 91.7934 4.85896H91.7898C91.674 4.85896 91.5857 4.88861 91.5078 4.9266C91.4747 4.94276 91.442 4.96115 91.4129 4.97754L91.4054 4.9818C91.373 5.00004 91.3418 5.01738 91.3068 5.03447L91.2787 5.04823L84.7376 11.7853V5.57735C84.7376 5.46587 84.7076 5.38114 84.6687 5.3059C84.6527 5.2749 84.6346 5.2443 84.6183 5.21689L84.618 5.21647L84.6178 5.2161L84.6176 5.2157L84.6124 5.20705C84.5938 5.17579 84.5762 5.14563 84.5589 5.11175L84.5443 5.0834L84.5203 5.06186C84.3789 4.93541 84.1939 4.86317 84.0006 4.85896H83.9965Z" fill="black"/>
    <path d="M97.1737 4.85994C97.0579 4.85994 96.9697 4.88959 96.8918 4.92758C96.8585 4.94378 96.8258 4.96222 96.7967 4.97864L96.7893 4.98278C96.7569 5.00102 96.7257 5.01836 96.6908 5.03545L96.6611 5.04994L96.6389 5.07369C96.5097 5.21165 96.4364 5.38954 96.4326 5.57493V17.1471C96.4326 17.2581 96.4622 17.3428 96.5009 17.4185C96.5176 17.4513 96.5367 17.4834 96.5538 17.5122L96.5574 17.5182C96.5761 17.5498 96.594 17.5802 96.6118 17.6144L96.6243 17.6385L96.6439 17.6578C96.7551 17.7672 96.962 17.8664 97.1737 17.8664H104.583V17.8383C104.62 17.8269 104.654 17.8126 104.686 17.7968C104.719 17.7806 104.752 17.7622 104.781 17.7459L104.788 17.7415C104.821 17.7233 104.852 17.706 104.887 17.689L104.916 17.6746L104.938 17.651C105.068 17.5133 105.142 17.3353 105.146 17.1498V17.1461C105.146 17.0346 105.116 16.9497 105.077 16.8741C105.06 16.8419 105.041 16.8102 105.024 16.7819L105.02 16.7746C105.001 16.7431 104.983 16.7128 104.966 16.6787L104.951 16.6508L104.927 16.6296C104.786 16.5031 104.601 16.4309 104.408 16.4267H97.9148V12.0801H102.717C102.833 12.0801 102.921 12.0505 102.999 12.0125C103.032 11.9963 103.065 11.9778 103.094 11.9614L103.101 11.9573C103.134 11.939 103.165 11.9217 103.2 11.9046L103.23 11.8901L103.252 11.8664C103.381 11.7284 103.454 11.5505 103.458 11.3651V11.3617C103.458 11.2507 103.429 11.1659 103.39 11.0903C103.373 11.0575 103.354 11.0254 103.337 10.9967L103.333 10.9906C103.315 10.959 103.297 10.9286 103.279 10.8943L103.265 10.8665L103.241 10.8452C103.099 10.7188 102.914 10.6465 102.721 10.6423H97.9148V6.2977H104.404C104.52 6.2977 104.608 6.26812 104.686 6.23C104.719 6.21386 104.752 6.19549 104.781 6.17915L104.788 6.17477C104.821 6.15655 104.852 6.13925 104.887 6.1222L104.916 6.10781L104.938 6.08427C105.068 5.94616 105.142 5.76776 105.146 5.58177V5.57833C105.146 5.46682 105.116 5.38202 105.077 5.30661C105.06 5.27473 105.041 5.24334 105.025 5.21531L105.02 5.20754C105.001 5.17618 104.983 5.14595 104.966 5.11195L104.951 5.08407L104.927 5.06284C104.786 4.93639 104.601 4.86415 104.408 4.85994H97.1737Z" fill="black"/>
    <path d="M52.1935 4.94735C52.3452 5.00097 52.4745 5.10551 52.5725 5.24923L52.5767 5.25536L57.8076 13.6871L63.1198 5.3273C63.3156 5.04154 63.6272 4.92572 63.9419 5.0166C64.1142 5.02599 64.2526 5.11407 64.3445 5.22884C64.4404 5.34846 64.4919 5.50288 64.4919 5.65576V17.2279C64.4881 17.4133 64.4149 17.5912 64.2857 17.7291L64.2634 17.7529L64.2338 17.7674C64.1988 17.7844 64.1676 17.8018 64.1352 17.82L64.1278 17.8242C64.0987 17.8406 64.066 17.859 64.0328 17.8752C63.9549 17.9132 63.8666 17.9429 63.7508 17.9429C63.5393 17.9429 63.3339 17.8448 63.2218 17.736L63.2012 17.716L63.1883 17.6907C63.171 17.6566 63.1533 17.6263 63.1348 17.5949L63.1294 17.5859C63.113 17.5582 63.0947 17.5272 63.0786 17.4959C63.0398 17.4207 63.0097 17.336 63.0097 17.2245V8.14989L58.4671 15.3962V15.5985H57.1444V15.3962L52.6825 8.2796V17.1498C52.6783 17.3353 52.6046 17.5132 52.4749 17.651L52.4527 17.6746L52.4233 17.689C52.3884 17.706 52.3573 17.7233 52.325 17.7415L52.3173 17.7459L52.3169 17.7462C52.288 17.7624 52.2557 17.7807 52.2228 17.7968C52.1448 17.8349 52.0565 17.8645 51.9403 17.8645C51.8328 17.8645 51.7315 17.8385 51.6596 17.8184L51.6199 17.8072C51.6 17.8015 51.5836 17.7968 51.567 17.7926C51.5496 17.7881 51.5409 17.7867 51.5381 17.7863L51.5371 17.7861L51.4271 17.7861L51.378 17.6901C51.3607 17.6562 51.343 17.626 51.3245 17.5948L51.3194 17.5863C51.303 17.5586 51.2844 17.5274 51.2682 17.4959C51.2293 17.4207 51.1993 17.336 51.1993 17.2245V5.65576C51.1993 5.47037 51.2474 5.31397 51.3465 5.18979C51.4445 5.06683 51.5795 4.99193 51.7224 4.94547C51.8782 4.89549 52.0415 4.89359 52.1935 4.94735Z" fill="black"/>
    <path fill-rule="evenodd" clip-rule="evenodd" d="M73.8747 4.93639L73.8673 4.93637C73.8335 4.93622 73.7654 4.93593 73.7059 4.95527C73.6749 4.96532 73.6375 4.98307 73.6048 5.01479H73.4546V5.17161H73.4329L69.6921 13.8759L68.4085 16.8401C68.3653 16.9247 68.3321 17.0104 68.3321 17.1069C68.3321 17.2052 68.3669 17.2929 68.4113 17.3792C68.4568 17.467 68.507 17.5425 68.5747 17.6085C68.6366 17.6687 68.7068 17.7148 68.788 17.7559C68.844 17.8038 68.9014 17.8306 68.9549 17.8456V17.8654H69.1337C69.2725 17.8654 69.4111 17.8432 69.5312 17.7701C69.6529 17.6958 69.734 17.5825 69.7841 17.4397L70.8611 14.8949H77.2083L78.2853 17.44C78.3359 17.5824 78.4169 17.6958 78.5385 17.77C78.6584 17.8432 78.7968 17.8654 78.9356 17.8654L78.9408 17.8654C79.0206 17.8655 79.1528 17.8656 79.279 17.7589C79.449 17.6776 79.584 17.5415 79.6602 17.374C79.7036 17.2895 79.7373 17.2036 79.7373 17.1069C79.7373 17.0106 79.704 16.925 79.6608 16.8409L78.3782 13.8755L74.6912 5.29912C74.6878 5.28102 74.6812 5.2558 74.6675 5.22875C74.6565 5.20726 74.6401 5.18272 74.6158 5.16023V5.01479H74.4218C74.3801 4.9857 74.3392 4.96705 74.3033 4.95534C74.2768 4.94671 74.2536 4.94199 74.2353 4.93942L74.2273 4.9384C74.224 4.93801 74.2208 4.93769 74.2178 4.93743L74.2114 4.93694L74.2025 4.9365L74.1988 4.93641L74.1972 4.9364L74.1957 4.93639H73.8747ZM71.4097 13.5355L74.0352 7.43349L76.6607 13.5355H71.4097Z" fill="black"/>
    <path fill-rule="evenodd" clip-rule="evenodd" d="M109.585 5.005C109.663 4.96702 109.752 4.93737 109.867 4.93737H114.045C115.141 4.93737 116.066 5.34864 116.817 5.99788L116.824 6.00458C117.573 6.73217 118 7.55574 118 8.54794C118 9.44229 117.748 10.1909 117.068 10.8528C116.525 11.4553 115.774 11.8454 114.949 12.0313L117.438 16.9508V16.9902C117.438 17.0275 117.443 17.0484 117.45 17.0802C117.454 17.0996 117.46 17.1231 117.466 17.1569C117.479 17.2334 117.48 17.3187 117.436 17.4199C117.43 17.5136 117.4 17.5981 117.339 17.6719C117.28 17.743 117.202 17.7931 117.123 17.8338C116.997 17.9431 116.862 17.9429 116.782 17.9429L116.776 17.9429C116.444 17.9429 116.233 17.7254 116.134 17.5354L116.133 17.5336L113.371 12.0801H110.608V17.1461L110.608 17.1492C110.605 17.335 110.532 17.5134 110.402 17.6517L110.38 17.6754L110.35 17.6899C110.315 17.707 110.284 17.7244 110.252 17.7426L110.244 17.7468L110.244 17.747C110.215 17.7634 110.182 17.7817 110.149 17.7978C110.071 17.8358 109.983 17.8654 109.867 17.8654C109.655 17.8654 109.45 17.7659 109.338 17.6576L109.318 17.6377L109.305 17.6127C109.288 17.5787 109.27 17.5484 109.251 17.517L109.247 17.5091C109.23 17.4811 109.211 17.4496 109.195 17.4178C109.156 17.3424 109.126 17.2575 109.126 17.1461V5.65235C109.13 5.46697 109.203 5.28908 109.333 5.15111L109.355 5.12736L109.384 5.11288C109.419 5.09579 109.451 5.07845 109.483 5.06021L109.49 5.05606C109.519 5.03964 109.552 5.0212 109.585 5.005ZM115.766 9.99064C116.229 9.54132 116.518 9.0343 116.518 8.46953C116.518 7.89437 116.299 7.39448 115.776 6.95726C115.245 6.5151 114.643 6.29672 113.965 6.29672H110.608V10.6433H114.045C114.727 10.6433 115.321 10.4236 115.766 9.99064Z" fill="black"/>
</svg>
