<svg width="44" height="44" viewBox="0 0 44 44" fill="none" 
    xmlns="http://www.w3.org/2000/svg">
    <path d="M0 8.8C0 3.93989 3.93368 0 8.78613 0H35.1445C39.9969 0 43.9306 3.93989 43.9306 8.8V35.2C43.9306 40.0601 39.9969 44 35.1445 44H8.78612C3.93368 44 0 40.0601 0 35.2V8.8Z" fill="url(#torque-logo-mobile)"/>
    <path d="M34.2097 16.014C32.643 12.7069 29.7917 10.1485 26.3137 8.93176C21.9583 7.40298 17.133 8.12057 13.4044 10.8037L23.713 30.8026C18.825 31.957 13.937 28.9618 12.7777 24.0947C12.3704 22.4099 12.4644 20.6316 13.0597 19.0092L8.48504 17.3868C6.32304 23.4707 8.67304 30.241 14.1564 33.7354C17.697 35.9817 22.0523 36.5121 26.0003 35.2017L30.575 44H31.985L28.037 34.3282C34.7423 30.8962 37.4683 22.7843 34.2097 16.014ZM30.199 25.0307C29.5097 27.0275 28.0997 28.7122 26.2823 29.8042L19.7337 13.1749C21.363 12.8629 23.0863 12.9565 24.653 13.5181C29.3843 15.1717 31.8597 20.3196 30.199 25.0307Z" fill="white"/>
    <defs>
        <linearGradient id="torque-logo-mobile" x1="41.0751" y1="41.14" x2="5.87519" y2="5.99553" gradientUnits="userSpaceOnUse">
            <stop offset="0.159375" stop-color="#003CDA"/>
            <stop offset="1" stop-color="#33DFCC"/>
        </linearGradient>
    </defs>
</svg>
