<svg width="559" height="130" viewBox="0 0 559 130" fill="none" 
    xmlns="http://www.w3.org/2000/svg">
    <path d="M0 25.8206C0 11.5603 11.5603 0 25.8206 0H103.282C117.543 0 129.103 11.5603 129.103 25.8206V103.282C129.103 117.543 117.543 129.103 103.282 129.103H25.8206C11.5603 129.103 0 117.543 0 103.282V25.8206Z" fill="url(#torque-logo)"/>
    <path d="M100.534 46.9877C95.9303 37.284 87.5508 29.7774 77.3297 26.2071C64.5303 21.7215 50.3497 23.827 39.392 31.6998L69.6869 90.3796C55.3222 93.7668 40.9574 84.9785 37.5504 70.6976C36.3533 65.7542 36.6295 60.5362 38.3791 55.7759L24.9351 51.0156C18.5815 68.8667 25.4876 88.7318 41.602 98.9848C52.0072 105.576 64.8066 107.132 76.4089 103.287L89.8529 129.103H93.9966L82.3942 100.724C102.1 90.6543 110.111 66.8528 100.534 46.9877ZM88.7479 73.444C86.7221 79.3028 82.5784 84.2462 77.2376 87.4502L57.9925 38.6571C62.7808 37.7417 67.8453 38.0163 72.4494 39.6641C86.3538 44.516 93.6282 59.6208 88.7479 73.444Z" fill="white"/>
    <path d="M219.41 85.2449C220.248 85.2449 220.877 85.4543 221.401 85.9776C221.925 86.501 222.239 87.2337 222.03 88.1758V95.5028C222.03 96.3402 221.82 96.9682 221.296 97.4915C220.877 98.0149 220.143 98.3289 219.305 98.3289H209.767C202.745 98.3289 197.399 96.4448 193.836 92.7813C190.272 89.1178 188.49 83.6749 188.49 76.5572V20.5578C188.49 20.4531 188.49 20.3484 188.595 20.3484L199.705 15.7429C201.592 14.9055 203.688 16.2662 203.688 18.3597V37.4099C203.688 37.5146 203.793 37.6193 203.898 37.6193H220.248C221.087 37.6193 221.715 37.9333 222.239 38.4566C222.764 38.98 223.078 39.7127 223.078 40.4454V47.3537C223.078 48.0864 222.868 48.7145 222.344 49.2378C221.82 49.8659 220.982 50.1799 220.143 50.1799H204.002C203.898 50.1799 203.793 50.2846 203.793 50.3892V75.1965C203.793 78.546 204.422 81.0581 205.574 82.7328C206.727 84.4076 208.614 85.2449 211.234 85.2449H219.41Z" fill="#283049"/>
    <path fill-rule="evenodd" clip-rule="evenodd" d="M260.6 100.528C242.678 100.528 228.004 85.9784 228.004 67.9749C228.004 49.9713 242.573 35.4219 260.6 35.4219C278.628 35.4219 293.197 49.9713 293.197 67.9749C293.197 85.9784 278.628 100.528 260.6 100.528ZM260.6 49.2386C250.224 49.2386 241.839 57.6123 241.839 67.9749C241.839 78.3374 250.224 86.7111 260.6 86.7111C270.977 86.7111 279.362 78.3374 279.362 67.9749C279.362 57.6123 270.977 49.2386 260.6 49.2386Z" fill="#283049"/>
    <path fill-rule="evenodd" clip-rule="evenodd" d="M413.311 112.774L421.905 104.191V104.086H432.806C434.902 104.086 435.95 106.598 434.483 108.064L414.778 127.742C413.94 128.58 412.787 129.103 411.529 129.103H400C398.742 129.103 397.694 128.056 397.694 126.8V91.107C393.606 96.6546 387.632 99.3761 379.771 99.3761C372.015 99.3761 365.936 96.864 361.744 91.8397C357.551 86.8155 355.245 80.3258 354.931 72.1614L354.826 67.9745L354.931 63.7876C355.245 55.5186 357.446 48.9242 361.639 44.0047C365.831 39.0851 371.805 36.573 379.666 36.573C387.842 36.573 394.026 39.3991 398.323 45.1561V40.5505C398.323 39.7131 398.637 39.0851 399.161 38.5617C399.685 38.0384 400.419 37.829 401.153 37.829H410.586C411.424 37.829 412.053 38.0384 412.577 38.5617C413.101 38.9804 413.311 39.7131 413.311 40.5505V112.774ZM394.026 82.6286C396.331 79.9071 397.589 76.6623 397.694 72.7894C397.799 71.8474 397.799 70.2773 397.694 68.2885C397.694 66.2998 397.694 64.8344 397.589 63.8923C397.38 59.7054 396.227 56.1466 394.026 53.3205C391.929 50.4943 388.575 49.0289 384.173 49.0289C375.998 49.0289 371.596 54.1578 371.072 64.4157C370.967 65.1484 370.967 66.2998 370.967 67.8699C370.967 69.4399 370.967 70.5913 371.072 71.324C371.596 81.5819 375.998 86.7108 384.173 86.7108C388.471 86.7108 391.72 85.35 394.026 82.6286Z" fill="#283049"/>
    <path fill-rule="evenodd" clip-rule="evenodd" d="M500.724 70.8007C501.038 79.9071 503.658 87.0248 508.794 91.9444C513.825 96.8639 520.743 99.3761 529.442 99.5854C534.892 99.5854 539.713 98.6434 543.801 96.7593C547.993 94.8752 551.138 92.6771 553.339 90.1649C555.54 87.6528 556.693 85.4547 556.693 83.5706C556.693 82.8379 556.483 82.3146 555.959 81.8959C555.435 81.4772 554.911 81.2678 554.177 81.2678H543.906C542.963 81.2678 542.334 81.3725 541.914 81.5819C541.495 81.7912 540.971 82.3146 540.237 83.1519C537.512 86.7108 533.844 88.4902 529.442 88.4902C525.564 88.4902 522.524 87.0248 520.323 84.1987C518.122 81.3725 516.865 77.709 516.76 73.4174V72.4754H555.435C556.274 72.4754 557.007 72.1614 557.531 71.638C558.055 71.1147 558.37 70.382 558.37 69.6493V67.2418C558.37 57.926 555.854 50.4943 550.823 44.9467C545.793 39.3991 538.665 36.573 529.442 36.573C520.428 36.573 513.301 39.3991 508.27 44.9467C503.134 50.599 500.619 58.1354 500.619 67.8698L500.724 70.8007ZM542.124 62.4269V62.6363H516.655V62.4269C516.655 57.8213 517.808 54.1578 520.009 51.4364C522.315 48.7149 525.354 47.3542 529.337 47.3542C533.215 47.3542 536.359 48.7149 538.665 51.4364C540.971 54.1578 542.124 57.8213 542.124 62.4269Z" fill="#283049"/>
    <path d="M479.866 40.9689L476.617 42.3296L473.892 43.481L471.691 44.4231V72.5798C471.691 76.976 470.538 80.5349 468.127 83.047C465.717 85.5591 462.572 86.9199 458.485 86.9199C450.205 86.9199 446.012 82.105 446.012 72.5798V40.4455C446.012 39.0848 444.65 38.2474 443.392 38.7708L429.871 44.3184V73.3125C429.871 81.4769 431.967 87.8619 436.055 92.4675C440.143 97.073 445.802 99.4805 452.93 99.4805C461.524 99.4805 468.022 96.5497 472.215 90.7927V96.5497C472.215 97.9104 473.577 98.7478 474.835 98.2244L487.517 92.9908V40.5502C487.517 39.1895 486.155 38.3521 484.897 38.8755L479.866 40.9689Z" fill="#283049"/>
    <path d="M343.087 37.4101C343.926 37.4101 344.554 37.6195 345.079 38.1428C345.603 38.6662 345.812 39.2942 345.812 40.1316V48.61C345.812 49.4474 345.603 50.0754 345.079 50.5988C344.659 51.1221 343.926 51.4361 343.087 51.4361H333.864C330.195 51.4361 327.365 52.4829 325.269 54.5763C323.173 56.6697 322.125 59.4959 322.125 63.1594V92.3628L309.338 97.5964C307.87 98.2245 306.193 97.1777 306.193 95.503V43.0624L318.247 38.1428C319.714 37.5148 321.391 38.5615 321.391 40.2363V45.0512C325.269 39.9222 330.824 37.4101 338.161 37.4101H343.087Z" fill="#283049"/>
    <defs>
        <linearGradient id="torque-logo" x1="120.711" y1="120.711" x2="17.4289" y2="17.4289" gradientUnits="userSpaceOnUse">
            <stop offset="0.159375" stop-color="#003CDA"/>
            <stop offset="1" stop-color="#33DFCC"/>
        </linearGradient>
    </defs>
</svg>
