<svg width="164" height="38" viewBox="0 0 173 40" fill="none" xmlns="http://www.w3.org/2000/svg">
<path d="M0 8C0 3.58172 3.58172 0 8 0H32C36.4183 0 40 3.58172 40 8V32C40 36.4183 36.4183 40 32 40H8C3.58172 40 0 36.4183 0 32V8Z" fill="url(#paint0_linear)"/>
<path d="M31.1487 14.5581C29.7222 11.5516 27.126 9.22583 23.9592 8.11967C19.9935 6.72987 15.6 7.38223 12.2049 9.82146L21.5912 28.0023C17.1406 29.0517 12.6899 26.3288 11.6343 21.9042C11.2634 20.3726 11.349 18.7559 11.8911 17.281L7.72574 15.8061C5.75718 21.3369 7.89691 27.4917 12.8896 30.6684C16.1135 32.7106 20.0791 33.1927 23.6739 32.0015L27.8392 39.9999H29.1231L25.5283 31.2073C31.6337 28.0874 34.1158 20.7129 31.1487 14.5581ZM27.4969 22.7551C26.8692 24.5703 25.5854 26.1019 23.9306 27.0946L17.9679 11.9771C19.4515 11.6934 21.0206 11.7785 22.4471 12.2891C26.7551 13.7923 29.0089 18.4722 27.4969 22.7551Z" fill="white"/>
<path d="M67.9798 26.4115C68.2396 26.4115 68.4344 26.4764 68.5968 26.6385C68.7591 26.8007 68.8566 27.0277 68.7916 27.3196V29.5897C68.7916 29.8492 68.7267 30.0437 68.5643 30.2059C68.4344 30.368 68.2071 30.4653 67.9473 30.4653H64.9922C62.8165 30.4653 61.1603 29.8816 60.0562 28.7465C58.9521 27.6114 58.4 25.9251 58.4 23.7198V6.36946C58.4 6.33703 58.4 6.3046 58.4325 6.3046L61.8747 4.87766C62.4592 4.61821 63.1087 5.03981 63.1087 5.68842V11.5908C63.1087 11.6232 63.1412 11.6556 63.1737 11.6556H68.2396C68.4994 11.6556 68.6942 11.7529 68.8566 11.9151C69.0189 12.0772 69.1164 12.3042 69.1164 12.5313V14.6717C69.1164 14.8987 69.0514 15.0933 68.889 15.2554C68.7267 15.45 68.4669 15.5473 68.2071 15.5473H63.2061C63.1737 15.5473 63.1412 15.5797 63.1412 15.6122V23.2982C63.1412 24.336 63.336 25.1143 63.6932 25.6332C64.0505 26.1521 64.635 26.4115 65.4468 26.4115H67.9798Z" fill="#283049"/>
<path fill-rule="evenodd" clip-rule="evenodd" d="M80.742 31.1466C75.1889 31.1466 70.6426 26.6388 70.6426 21.0607C70.6426 15.4827 75.1565 10.9748 80.742 10.9748C86.3275 10.9748 90.8413 15.4827 90.8413 21.0607C90.8413 26.6388 86.3275 31.1466 80.742 31.1466ZM80.742 15.2557C77.5271 15.2557 74.9292 17.8501 74.9292 21.0607C74.9292 24.2713 77.5271 26.8658 80.742 26.8658C83.9569 26.8658 86.5548 24.2713 86.5548 21.0607C86.5548 17.8501 83.9569 15.2557 80.742 15.2557Z" fill="#283049"/>
<path fill-rule="evenodd" clip-rule="evenodd" d="M128.056 34.9409L130.719 32.2816V32.2491H134.096C134.746 32.2491 135.071 33.0275 134.616 33.4815L128.511 39.5784C128.251 39.8379 127.894 40 127.504 40H123.932C123.542 40 123.218 39.6757 123.218 39.2866V28.2278C121.951 29.9466 120.1 30.7898 117.665 30.7898C115.262 30.7898 113.378 30.0114 112.079 28.4548C110.78 26.8981 110.066 24.8874 109.968 22.3578L109.936 21.0606L109.968 19.7634C110.066 17.2014 110.748 15.1583 112.047 13.634C113.346 12.1098 115.197 11.3315 117.632 11.3315C120.165 11.3315 122.081 12.2071 123.413 13.9908V12.5638C123.413 12.3044 123.51 12.1098 123.672 11.9476C123.835 11.7855 124.062 11.7206 124.289 11.7206H127.212C127.472 11.7206 127.667 11.7855 127.829 11.9476C127.991 12.0774 128.056 12.3044 128.056 12.5638V34.9409ZM122.081 25.6009C122.796 24.7577 123.185 23.7523 123.218 22.5524C123.25 22.2605 123.25 21.7741 123.218 21.1579C123.218 20.5417 123.218 20.0877 123.185 19.7958C123.12 18.4986 122.763 17.396 122.081 16.5203C121.432 15.6447 120.392 15.1907 119.029 15.1907C116.496 15.1907 115.132 16.7798 114.969 19.958C114.937 20.185 114.937 20.5417 114.937 21.0282C114.937 21.5146 114.937 21.8714 114.969 22.0984C115.132 25.2766 116.496 26.8657 119.029 26.8657C120.36 26.8657 121.367 26.4441 122.081 25.6009Z" fill="#283049"/>
<path fill-rule="evenodd" clip-rule="evenodd" d="M155.139 21.9362C155.237 24.7577 156.049 26.963 157.64 28.4872C159.199 30.0114 161.342 30.7898 164.037 30.8546C165.726 30.8546 167.22 30.5628 168.486 29.979C169.785 29.3953 170.759 28.7142 171.441 27.9359C172.123 27.1576 172.48 26.4765 172.48 25.8928C172.48 25.6658 172.415 25.5036 172.253 25.3739C172.091 25.2442 171.928 25.1793 171.701 25.1793H168.519C168.226 25.1793 168.031 25.2117 167.902 25.2766C167.772 25.3414 167.609 25.5036 167.382 25.763C166.538 26.8657 165.401 27.417 164.037 27.417C162.836 27.417 161.894 26.963 161.212 26.0873C160.53 25.2117 160.14 24.0767 160.108 22.747V22.4551H172.091C172.351 22.4551 172.578 22.3578 172.74 22.1957C172.903 22.0335 173 21.8065 173 21.5795V20.8336C173 17.9473 172.221 15.6447 170.662 13.9259C169.103 12.2071 166.895 11.3315 164.037 11.3315C161.244 11.3315 159.036 12.2071 157.478 13.9259C155.886 15.6771 155.107 18.0121 155.107 21.0282L155.139 21.9362ZM167.967 19.3418V19.4067H160.075V19.3418C160.075 17.9149 160.433 16.7798 161.115 15.9366C161.829 15.0934 162.771 14.6718 164.005 14.6718C165.206 14.6718 166.18 15.0934 166.895 15.9366C167.609 16.7798 167.967 17.9149 167.967 19.3418Z" fill="#283049"/>
<path d="M148.677 12.6935L147.67 13.1151L146.826 13.4718L146.144 13.7637V22.4875C146.144 23.8496 145.787 24.9522 145.04 25.7305C144.293 26.5089 143.319 26.9305 142.053 26.9305C139.487 26.9305 138.188 25.4387 138.188 22.4875V12.5313C138.188 12.1097 137.766 11.8503 137.376 12.0124L133.187 13.7312V22.7145C133.187 25.2441 133.837 27.2223 135.103 28.6493C136.37 30.0762 138.123 30.8221 140.331 30.8221C142.994 30.8221 145.008 29.9141 146.307 28.1304V29.9141C146.307 30.3357 146.729 30.5951 147.118 30.433L151.048 28.8114V12.5637C151.048 12.1421 150.626 11.8827 150.236 12.0448L148.677 12.6935Z" fill="#283049"/>
<path d="M106.299 11.5908C106.559 11.5908 106.753 11.6557 106.916 11.8178C107.078 11.98 107.143 12.1746 107.143 12.434V15.0609C107.143 15.3203 107.078 15.5149 106.916 15.6771C106.786 15.8392 106.559 15.9365 106.299 15.9365H103.441C102.305 15.9365 101.428 16.2608 100.778 16.9094C100.129 17.558 99.8041 18.4337 99.8041 19.5687V28.6169L95.8423 30.2384C95.3877 30.433 94.8681 30.1087 94.8681 29.5898V13.3421L98.6026 11.8178C99.0572 11.6233 99.5768 11.9476 99.5768 12.4665V13.9583C100.778 12.3692 102.499 11.5908 104.773 11.5908H106.299Z" fill="#283049"/>
<defs>
<linearGradient id="paint0_linear" x1="37.4" y1="37.4" x2="5.4" y2="5.4" gradientUnits="userSpaceOnUse">
<stop offset="0.159375" stop-color="#003CDA"/>
<stop offset="1" stop-color="#33DFCC"/>
</linearGradient>
</defs>
</svg>
