<?xml version="1.0" standalone="no"?>
<!DOCTYPE svg PUBLIC "-//W3C//DTD SVG 20010904//EN"
 "http://www.w3.org/TR/2001/REC-SVG-20010904/DTD/svg10.dtd">
<svg version="1.0" xmlns="http://www.w3.org/2000/svg"
 width="225.000000pt" height="225.000000pt" viewBox="0 0 225.000000 225.000000"
 preserveAspectRatio="xMidYMid meet">
<metadata>
Created by potrace 1.15, written by Peter Selinger 2001-2017
</metadata>
<g transform="translate(0.000000,225.000000) scale(0.100000,-0.100000)"
fill="#000000" stroke="none">
<path d="M1000 2169 c-92 -11 -228 -49 -314 -88 -232 -105 -447 -331 -536
-564 -66 -169 -89 -340 -70 -502 53 -441 354 -791 780 -907 75 -20 107 -23
270 -22 172 0 191 2 275 27 365 111 622 368 732 732 26 85 27 101 27 280 0
178 -2 196 -27 280 -57 188 -141 331 -271 461 -173 172 -389 276 -636 304 -96
11 -124 11 -230 -1z m329 -462 c298 -106 469 -426 391 -731 -29 -115 -73 -189
-165 -282 -91 -92 -184 -144 -302 -169 -326 -69 -652 135 -728 457 -19 81 -19
218 0 293 55 215 229 391 445 450 89 24 267 15 359 -18z"/>
<path d="M937 1313 c-13 -12 -8 -358 5 -371 17 -17 349 -17 366 0 17 17 17
349 0 366 -13 13 -359 18 -371 5z"/>
</g>
</svg>
