<svg width="44" height="44" viewBox="0 0 44 44" fill="none"
    xmlns="http://www.w3.org/2000/svg">
    <path d="M20.6434 20.4128C19.7828 20.724 19.1988 21.5954 19.2603 22.529C19.2603 22.7158 19.3218 22.9336 19.3832 23.1204L19.7521 24.1162C20.1516 25.2055 21.3196 25.7968 22.3953 25.3922L23.8399 24.8631L27.4975 23.556C28.5732 23.1515 29.1572 21.9689 28.7576 20.8796L28.3888 19.8837C27.9893 18.7945 26.8213 18.2032 25.7455 18.6078L21.6577 20.0705L20.7663 20.3817L20.6434 20.4128Z" fill="white"/>
    <path d="M24.6228 31.5377C24.375 31.6315 24.1273 31.7566 23.8795 31.8192C21.5258 32.6323 19.2959 32.5072 17.0351 31.4126C16.4777 31.1312 15.9202 30.8184 15.4247 30.4432C14.9911 30.0992 14.5575 29.7552 14.1859 29.3174C13.8143 28.9108 13.4736 28.4417 13.1639 27.9726C12.8542 27.441 12.5754 26.8468 12.3587 26.2526C11.7083 24.4388 11.6463 22.6875 12.1419 20.9363C12.2967 20.3733 12.5135 19.8417 12.7613 19.3101C13.4426 17.8715 14.3717 16.7457 15.5486 15.8701C16.2609 15.3697 17.0351 14.9632 17.8404 14.6504C18.0881 14.5566 18.3668 14.4628 18.6146 14.4002L19.265 14.2126L17.4997 9.24023L16.9113 9.42787C16.6325 9.52169 16.3848 9.58423 16.106 9.67805C14.2169 10.3661 12.6064 11.3042 11.2437 12.5551C11.1508 12.649 11.0579 12.7428 10.934 12.8366C9.72621 14.025 8.73517 15.4322 7.99189 16.9959C6.38145 20.4359 6.13369 23.9697 7.24861 27.5348C7.31055 27.6912 7.34152 27.8475 7.40346 28.0039C8.14674 30.1617 9.29263 31.9755 10.8102 33.4766C11.956 34.6024 13.2878 35.5094 14.7124 36.1974C15.1769 36.4163 15.6415 36.6039 16.106 36.7915C16.4157 36.9166 16.6945 37.0105 17.0042 37.1043C19.203 37.7297 21.5568 37.7923 23.7866 37.2606C24.375 37.1355 24.9635 36.9479 25.5519 36.729C25.8306 36.6352 26.1093 36.5101 26.3571 36.4163L26.9146 36.1661L25.5519 32.257L25.1802 31.225L24.6228 31.5377Z" fill="white"/>
    <path d="M27.0785 5.55076L25.8476 5.98966L23.509 6.83611L21.4781 7.55716L19.6934 8.18416L21.4473 13.2002L21.5396 13.1688L22.6166 12.7926L29.571 10.2846L31.9096 9.43816L33.202 8.96791L34.7098 8.43496L39.787 6.58531L43.3257 5.29996C42.9872 3.45031 41.9718 1.82011 40.5255 0.660156L38.0331 1.60066L27.0785 5.55076Z" fill="white"/>
</svg>