<svg width="400" height="260" viewBox="0 0 400 260" fill="none" xmlns="http://www.w3.org/2000/svg">
<path fill-rule="evenodd" clip-rule="evenodd" d="M261.496 22.1539C261.286 21.9738 261.262 21.6581 261.446 21.4522C261.454 21.4442 261.461 21.4361 261.468 21.4281C261.475 21.4201 261.483 21.412 261.49 21.404C261.674 21.1985 261.991 21.1869 262.194 21.3745C262.396 21.562 262.408 21.8778 262.224 22.0834C262.221 22.0869 262.217 22.0903 262.214 22.0938C262.211 22.0973 262.208 22.1007 262.205 22.1042C262.021 22.31 261.705 22.3339 261.496 22.1539ZM257.499 28.2323C257.25 28.1125 257.145 27.8137 257.27 27.5674C257.279 27.549 257.288 27.5307 257.298 27.5123C257.423 27.2662 257.726 27.1734 257.97 27.3025C258.215 27.4316 258.307 27.7336 258.182 27.9798C258.179 27.9869 258.175 27.9941 258.172 28.0012C258.047 28.2475 257.748 28.3521 257.499 28.2323ZM266.926 17.3028C266.771 17.075 266.829 16.7638 267.06 16.6123C267.077 16.601 267.095 16.5897 267.112 16.5785C267.343 16.4275 267.653 16.4982 267.8 16.7317C267.947 16.9652 267.876 17.2732 267.645 17.4243C267.638 17.4287 267.631 17.4331 267.625 17.4375C267.393 17.5889 267.082 17.5307 266.926 17.3028ZM273.431 14.0289C273.34 13.7684 273.477 13.4831 273.74 13.3969C273.759 13.3905 273.779 13.3842 273.798 13.3779C274.061 13.2922 274.341 13.4407 274.422 13.7044C274.503 13.9681 274.355 14.2472 274.092 14.333C274.084 14.3354 274.077 14.3379 274.069 14.3404C273.807 14.4264 273.522 14.2894 273.431 14.0289ZM255.225 35.1385C254.953 35.0875 254.774 34.8263 254.83 34.5561C254.834 34.5362 254.838 34.5162 254.842 34.4963C254.899 34.2262 255.168 34.0578 255.437 34.1189C255.707 34.18 255.875 34.4475 255.819 34.7176C255.817 34.7254 255.815 34.7331 255.814 34.7408C255.758 35.011 255.496 35.1895 255.225 35.1385ZM280.563 12.55C280.543 12.2749 280.749 12.0348 281.025 12.0191C281.046 12.0179 281.066 12.0168 281.086 12.0157C281.362 12.0005 281.595 12.2161 281.605 12.4918C281.615 12.7675 281.4 12.9989 281.124 13.0142C281.116 13.0146 281.108 13.015 281.1 13.0155C280.824 13.031 280.584 12.8251 280.563 12.55ZM254.82 42.3978C254.544 42.4184 254.304 42.2121 254.288 41.9367C254.287 41.9164 254.285 41.8961 254.284 41.8757C254.269 41.6003 254.485 41.3684 254.761 41.358C255.038 41.3476 255.269 41.5627 255.285 41.8381C255.285 41.8461 255.286 41.8541 255.286 41.862C255.302 42.1375 255.095 42.3772 254.82 42.3978ZM287.836 12.9549C287.888 12.6838 288.149 12.505 288.42 12.5609C288.44 12.565 288.46 12.5691 288.48 12.5733C288.751 12.6297 288.919 12.8978 288.858 13.1669C288.796 13.4359 288.528 13.6039 288.258 13.5476C288.25 13.546 288.242 13.5444 288.234 13.5428C287.964 13.4867 287.785 13.226 287.836 12.9549ZM256.302 49.5156C256.041 49.6066 255.755 49.4693 255.669 49.2072C255.663 49.1879 255.656 49.1685 255.65 49.1492C255.564 48.8869 255.713 48.6073 255.977 48.5262C256.241 48.4451 256.521 48.5932 256.607 48.8554C256.609 48.8629 256.612 48.8704 256.614 48.8779C256.701 49.14 256.563 49.4247 256.302 49.5156ZM259.583 56.0056C259.354 56.1612 259.043 56.1029 258.891 55.8724C258.879 55.8552 258.868 55.838 258.857 55.8208C258.706 55.5899 258.776 55.2813 259.01 55.1344C259.244 54.9875 259.553 55.058 259.704 55.2887C259.709 55.2955 259.713 55.3022 259.718 55.3089C259.869 55.5395 259.811 55.85 259.583 56.0056ZM294.755 15.2251C294.875 14.9766 295.175 14.8719 295.421 14.9961C295.44 15.0053 295.458 15.0146 295.476 15.0239C295.723 15.1487 295.816 15.4514 295.686 15.6952C295.557 15.939 295.254 16.0315 295.008 15.9069C295.001 15.9033 294.993 15.8997 294.986 15.8961C294.74 15.7717 294.635 15.4736 294.755 15.2251ZM263.715 61.4522C263.707 61.445 263.699 61.4378 263.691 61.4306C263.485 61.2465 263.474 60.9301 263.662 60.7279C263.85 60.5256 264.166 60.514 264.372 60.6979C264.375 60.701 264.379 60.7042 264.382 60.7073C264.386 60.7104 264.389 60.7135 264.393 60.7166C264.599 60.9003 264.623 61.2153 264.442 61.4244C264.262 61.6334 263.946 61.6573 263.739 61.4737C263.731 61.4665 263.723 61.4593 263.715 61.4522ZM300.844 19.2131C301.024 19.004 301.341 18.9802 301.547 19.1638C301.555 19.1709 301.563 19.1781 301.571 19.1853C301.579 19.1925 301.587 19.1997 301.595 19.2069C301.801 19.3909 301.813 19.7073 301.625 19.9096C301.437 20.1119 301.12 20.1235 300.915 19.9395C300.911 19.9364 300.908 19.9333 300.904 19.9302C300.901 19.9271 300.897 19.924 300.894 19.9209C300.687 19.7372 300.664 19.4221 300.844 19.2131ZM270.531 65.4124C270.411 65.6609 270.112 65.7656 269.865 65.6414C269.847 65.6321 269.828 65.6228 269.81 65.6135C269.563 65.4888 269.471 65.1861 269.6 64.9423C269.729 64.6985 270.032 64.6059 270.279 64.7305C270.286 64.7341 270.293 64.7378 270.3 64.7414C270.547 64.8658 270.652 65.1639 270.531 65.4124ZM305.704 24.6318C305.932 24.4763 306.244 24.5346 306.396 24.7651C306.407 24.7823 306.418 24.7995 306.43 24.8167C306.581 25.0476 306.51 25.3562 306.276 25.5031C306.042 25.65 305.733 25.5795 305.582 25.3487C305.578 25.342 305.573 25.3353 305.569 25.3286C305.417 25.098 305.475 24.7874 305.704 24.6318ZM308.984 31.1218C309.245 31.0309 309.531 31.1682 309.617 31.4302C309.624 31.4496 309.63 31.469 309.636 31.4883C309.722 31.7505 309.574 32.0302 309.309 32.1113C309.045 32.1924 308.766 32.0442 308.679 31.7821C308.677 31.7746 308.675 31.767 308.672 31.7595C308.586 31.4974 308.723 31.2127 308.984 31.1218ZM277.45 67.6825C277.399 67.9536 277.137 68.1325 276.866 68.0766C276.846 68.0725 276.826 68.0683 276.806 68.0642C276.536 68.0077 276.367 67.7396 276.429 67.4706C276.49 67.2016 276.758 67.0336 277.029 67.0899C277.036 67.0915 277.044 67.0931 277.052 67.0947C277.323 67.1507 277.501 67.4114 277.45 67.6825ZM284.723 68.0874C284.744 68.3626 284.537 68.6027 284.261 68.6184C284.241 68.6196 284.22 68.6207 284.2 68.6218C283.924 68.6369 283.692 68.4213 283.681 68.1457C283.671 67.87 283.887 67.6386 284.163 67.6233C284.171 67.6229 284.179 67.6224 284.187 67.622C284.463 67.6064 284.703 67.8123 284.723 68.0874ZM310.467 38.2397C310.742 38.219 310.983 38.4253 310.999 38.7007C311 38.7211 311.001 38.7414 311.002 38.7617C311.017 39.0372 310.801 39.2691 310.525 39.2795C310.249 39.2899 310.017 39.0748 310.002 38.7993C310.001 38.7914 310.001 38.7834 310 38.7754C309.985 38.5 310.191 38.2603 310.467 38.2397ZM291.856 66.6086C291.947 66.8691 291.809 67.1543 291.546 67.2406C291.527 67.2469 291.508 67.2533 291.488 67.2596C291.226 67.3453 290.945 67.1967 290.864 66.933C290.783 66.6693 290.932 66.3903 291.194 66.3045C291.202 66.302 291.21 66.2996 291.217 66.2971C291.48 66.211 291.765 66.3481 291.856 66.6086ZM310.062 45.4989C310.333 45.5499 310.512 45.8112 310.456 46.0814C310.452 46.1013 310.448 46.1213 310.444 46.1412C310.387 46.4113 310.119 46.5797 309.849 46.5186C309.58 46.4575 309.411 46.19 309.468 45.9199C309.469 45.9121 309.471 45.9044 309.473 45.8966C309.529 45.6265 309.79 45.4479 310.062 45.4989ZM298.36 63.3346C298.516 63.5625 298.457 63.8737 298.226 64.0252C298.209 64.0365 298.192 64.0477 298.174 64.059C297.943 64.21 297.634 64.1393 297.487 63.9058C297.34 63.6722 297.41 63.3643 297.642 63.2131C297.648 63.2087 297.655 63.2043 297.662 63.1999C297.893 63.0486 298.204 63.1068 298.36 63.3346ZM307.787 52.4052C308.036 52.525 308.141 52.8237 308.017 53.0701C308.007 53.0885 307.998 53.1068 307.989 53.1252C307.864 53.3712 307.56 53.4641 307.316 53.335C307.072 53.2059 306.979 52.9038 307.104 52.6577C307.108 52.6505 307.111 52.6434 307.115 52.6362C307.239 52.39 307.538 52.2854 307.787 52.4052ZM303.818 59.2094C303.811 59.2174 303.804 59.2255 303.797 59.2335C303.612 59.439 303.295 59.4506 303.093 59.263C302.89 59.0754 302.878 58.7597 303.063 58.5541C303.066 58.5506 303.069 58.5471 303.072 58.5437C303.075 58.5402 303.078 58.5367 303.081 58.5332C303.266 58.3275 303.581 58.3036 303.791 58.4836C304 58.6636 304.024 58.9793 303.84 59.1852C303.833 59.1933 303.826 59.2013 303.818 59.2094Z" fill="#33DFCC"/>
<path fill-rule="evenodd" clip-rule="evenodd" d="M385.761 108.314C386.289 108.424 386.629 108.941 386.511 109.467C386.394 109.994 385.867 110.318 385.342 110.194L385.269 110.177C384.759 110.057 384.445 109.546 384.559 109.034C384.673 108.523 385.175 108.193 385.688 108.299L385.761 108.314ZM387.206 94.9898C387.743 94.9944 388.175 95.4322 388.162 95.9688C388.15 96.5054 387.698 96.9253 387.161 96.9056L387.077 96.9025C386.556 96.8834 386.15 96.4447 386.162 95.9237C386.175 95.4026 386.6 94.9847 387.122 94.9891L387.206 94.9898ZM381.766 121.12C382.261 121.329 382.492 121.901 382.275 122.392C382.059 122.884 381.482 123.097 380.993 122.875L380.917 122.84C380.443 122.623 380.235 122.064 380.445 121.587C380.655 121.11 381.209 120.885 381.689 121.088L381.766 121.12ZM386.001 81.6418C386.529 81.5405 387.039 81.8852 387.133 82.4139C387.226 82.9426 386.865 83.4429 386.335 83.5292L386.253 83.5426C385.738 83.6265 385.254 83.2766 385.163 82.7633C385.072 82.25 385.407 81.7559 385.919 81.6575L386.001 81.6418ZM375.339 132.887C375.782 133.19 375.897 133.795 375.587 134.235C375.278 134.674 374.67 134.77 374.235 134.456L374.168 134.407C373.745 134.101 373.651 133.512 373.952 133.085C374.252 132.658 374.839 132.546 375.27 132.84L375.339 132.887ZM382.197 68.792C382.695 68.5894 383.263 68.8279 383.458 69.328C383.653 69.8282 383.397 70.3892 382.894 70.5778L382.817 70.6069C382.328 70.79 381.784 70.5421 381.594 70.0563C381.405 69.5706 381.637 69.0199 382.12 68.8232L382.197 68.792ZM366.723 143.163C367.099 143.547 367.092 144.163 366.703 144.533C366.314 144.904 365.698 144.88 365.333 144.486L365.277 144.425C364.923 144.042 364.946 143.445 365.324 143.086C365.702 142.726 366.3 142.731 366.665 143.104L366.723 143.163ZM375.959 56.9316C376.408 56.6362 377.012 56.7601 377.301 57.2127C377.59 57.6654 377.448 58.2651 376.991 58.5479L376.92 58.5913C376.477 58.866 375.895 58.7287 375.614 58.289C375.334 57.8493 375.454 57.2639 375.89 56.977L375.959 56.9316ZM356.268 151.563C356.562 152.012 356.436 152.615 355.982 152.903C355.528 153.191 354.929 153.048 354.648 152.591L354.604 152.52C354.331 152.076 354.47 151.495 354.911 151.215C355.352 150.936 355.937 151.057 356.223 151.494L356.268 151.563ZM367.537 46.5084C367.921 46.1316 368.537 46.1361 368.908 46.524C369.28 46.9119 369.256 47.5275 368.863 47.8934L368.802 47.9498C368.42 48.3053 367.823 48.2836 367.462 47.9069C367.102 47.5301 367.106 46.9324 367.478 46.5665L367.537 46.5084ZM344.382 157.776C344.583 158.274 344.343 158.841 343.842 159.036C343.341 159.23 342.781 158.973 342.594 158.47L342.565 158.392C342.383 157.903 342.633 157.36 343.119 157.171C343.606 156.983 344.156 157.216 344.351 157.699L344.382 157.776ZM357.246 37.9257C357.548 37.4816 358.153 37.3657 358.593 37.6736C359.033 37.9814 359.13 38.5892 358.816 39.0247L358.767 39.0925C358.462 39.5154 357.872 39.6108 357.445 39.3119C357.018 39.013 356.905 38.4262 357.199 37.9949L357.246 37.9257ZM331.516 161.56C331.616 162.087 331.27 162.597 330.741 162.69C330.212 162.783 329.712 162.421 329.627 161.891L329.614 161.809C329.532 161.294 329.883 160.81 330.397 160.72C330.91 160.63 331.404 160.966 331.501 161.478L331.516 161.56ZM345.47 31.5259C345.679 31.0315 346.251 30.7994 346.743 31.015C347.234 31.2305 347.448 31.807 347.225 32.2954L347.19 32.3721C346.974 32.8464 346.415 33.0556 345.938 32.8463C345.461 32.637 345.235 32.0837 345.438 31.6035L345.47 31.5259ZM318.161 162.753C318.155 163.29 317.716 163.722 317.18 163.709C316.643 163.696 316.224 163.244 316.244 162.708L316.247 162.624C316.267 162.103 316.707 161.698 317.228 161.71C317.749 161.722 318.167 162.148 318.161 162.669L318.161 162.753ZM333.815 26.7972C334.341 26.9141 334.666 27.4407 334.541 27.9654L334.524 28.038C334.403 28.5479 333.892 28.8629 333.38 28.7494C332.868 28.6358 332.539 28.1342 332.646 27.6212L332.661 27.5482C332.771 27.0202 333.288 26.6804 333.815 26.7972ZM304.833 161.311C304.723 161.839 304.206 162.179 303.679 162.062C303.153 161.945 302.828 161.419 302.953 160.894L302.97 160.821C303.091 160.311 303.602 159.996 304.114 160.11C304.626 160.223 304.955 160.725 304.848 161.238L304.833 161.311ZM319.333 26.1058C319.339 25.5692 319.778 25.1376 320.314 25.1502C320.851 25.1629 321.27 25.6148 321.25 26.1511L321.246 26.2352C321.226 26.756 320.787 27.1616 320.266 27.1493C319.744 27.137 319.327 26.7112 319.332 26.1901L319.333 26.1058ZM292.023 157.333C291.814 157.828 291.243 158.06 290.751 157.844C290.26 157.629 290.046 157.052 290.269 156.564L290.304 156.487C290.52 156.013 291.079 155.804 291.556 156.013C292.033 156.222 292.259 156.776 292.056 157.256L292.023 157.333ZM280.248 150.934C279.946 151.378 279.34 151.494 278.901 151.186C278.461 150.878 278.364 150.27 278.678 149.835L278.727 149.767C279.032 149.344 279.622 149.248 280.049 149.547C280.476 149.846 280.588 150.433 280.295 150.864L280.248 150.934ZM269.956 142.351C269.573 142.728 268.957 142.723 268.585 142.335C268.214 141.947 268.237 141.332 268.631 140.966L268.692 140.909C269.074 140.554 269.671 140.576 270.031 140.952C270.392 141.329 270.388 141.927 270.015 142.293L269.956 142.351ZM261.534 131.928C261.085 132.223 260.482 132.099 260.193 131.647C259.904 131.194 260.046 130.594 260.503 130.311L260.573 130.268C261.017 129.993 261.599 130.131 261.88 130.57C262.16 131.01 262.04 131.595 261.603 131.882L261.534 131.928ZM255.297 120.067C254.799 120.27 254.231 120.031 254.036 119.531C253.841 119.031 254.096 118.47 254.6 118.281L254.677 118.252C255.166 118.069 255.71 118.317 255.899 118.803C256.089 119.289 255.857 119.839 255.374 120.036L255.297 120.067ZM251.492 107.217C250.965 107.319 250.455 106.974 250.361 106.445C250.268 105.917 250.629 105.416 251.159 105.33L251.241 105.317C251.756 105.233 252.24 105.583 252.331 106.096C252.422 106.609 252.087 107.103 251.574 107.202L251.492 107.217ZM255.728 67.7389C255.233 67.5298 255.002 66.9583 255.219 66.4669C255.435 65.9756 256.012 65.7617 256.5 65.9847L256.577 66.0197C257.051 66.2361 257.259 66.7948 257.049 67.2718C256.839 67.7489 256.285 67.9747 255.805 67.7716L255.728 67.7389ZM250.288 93.8694C249.751 93.8649 249.319 93.4271 249.332 92.8905C249.344 92.3539 249.796 91.934 250.333 91.9537L250.417 91.9568C250.938 91.9759 251.344 92.4146 251.331 92.9356C251.319 93.4566 250.894 93.8745 250.372 93.8701L250.288 93.8694ZM250.983 79.3919C251.1 78.8655 251.627 78.5408 252.152 78.6649L252.224 78.6821C252.734 78.8027 253.049 79.3137 252.935 79.8252C252.821 80.3367 252.319 80.6665 251.806 80.56L251.733 80.5449C251.205 80.4353 250.865 79.9183 250.983 79.3919Z" fill="#5B88FF"/>
<path d="M289.975 177.951C312.57 176.98 330.098 157.913 329.126 135.363C328.154 112.813 309.049 95.3193 286.454 96.2898C263.86 97.2602 246.331 116.327 247.304 138.877C248.276 161.427 267.381 178.921 289.975 177.951Z" fill="url(#paint0_radial)"/>
<path d="M282.857 57.7771C292.829 57.3488 300.565 48.9335 300.136 38.9809C299.707 29.0284 291.275 21.3074 281.303 21.7357C271.331 22.164 263.594 30.5794 264.024 40.5319C264.453 50.4845 272.885 58.2054 282.857 57.7771Z" fill="url(#paint1_radial)"/>
<path d="M209.893 241.853C251.414 240.07 283.626 205.031 281.839 163.591C280.052 122.152 244.943 90.0038 203.422 91.7871C161.9 93.5704 129.689 128.61 131.476 170.049C133.262 211.489 168.371 243.637 209.893 241.853Z" stroke="url(#paint2_linear)" stroke-width="2"/>
<g filter="url(#filter0_f)">
<path d="M251.646 120.78C268.501 131.252 279.624 147.54 280.431 166.243C280.583 169.776 280.361 173.254 279.794 176.653" stroke="url(#paint3_linear)" stroke-width="2"/>
</g>
<path fill-rule="evenodd" clip-rule="evenodd" d="M153.098 114.072C152.897 113.883 152.887 113.567 153.083 113.371C153.086 113.368 153.089 113.365 153.093 113.361C153.096 113.358 153.1 113.354 153.103 113.351C153.299 113.156 153.616 113.166 153.805 113.367L153.816 113.378C154 113.572 153.99 113.878 153.801 114.068C153.611 114.257 153.304 114.266 153.109 114.083L153.098 114.072ZM156.997 110.998C156.858 110.759 156.939 110.453 157.182 110.321C157.19 110.317 157.198 110.312 157.205 110.308C157.448 110.177 157.75 110.275 157.875 110.521L157.882 110.534C158.004 110.772 157.907 111.065 157.671 111.193C157.435 111.321 157.139 111.242 157.004 111.01L156.997 110.998ZM150.247 118.134C150.001 118.009 149.902 117.708 150.034 117.466C150.038 117.458 150.042 117.45 150.046 117.442C150.179 117.2 150.486 117.119 150.725 117.257L150.737 117.264C150.969 117.399 151.048 117.695 150.92 117.93C150.792 118.166 150.499 118.262 150.26 118.141L150.247 118.134ZM161.587 109.085C161.512 108.82 161.667 108.544 161.934 108.474C161.939 108.473 161.943 108.472 161.948 108.471C162.215 108.402 162.485 108.569 162.548 108.837L162.552 108.851C162.613 109.112 162.45 109.373 162.19 109.44C161.93 109.507 161.664 109.357 161.591 109.1L161.587 109.085ZM148.56 122.798C148.291 122.735 148.124 122.466 148.193 122.199C148.194 122.194 148.195 122.19 148.196 122.185C148.266 121.918 148.543 121.764 148.809 121.839L148.823 121.842C149.081 121.915 149.231 122.181 149.164 122.44C149.097 122.7 148.835 122.863 148.574 122.802L148.56 122.798ZM166.485 108.232C166.463 107.957 166.667 107.712 166.943 107.694C166.95 107.693 166.956 107.693 166.963 107.693C167.239 107.675 167.474 107.891 167.487 108.166C167.501 108.438 167.288 108.672 167.016 108.69C166.744 108.708 166.507 108.503 166.485 108.232ZM147.888 127.727C147.612 127.714 147.395 127.479 147.413 127.204C147.413 127.197 147.414 127.191 147.414 127.184C147.432 126.909 147.678 126.705 147.953 126.727C148.225 126.749 148.43 126.985 148.413 127.257C148.395 127.529 148.16 127.741 147.888 127.727ZM148.003 132.691C147.728 132.715 147.479 132.509 147.458 132.234C147.437 131.958 147.652 131.72 147.927 131.703C148.198 131.685 148.436 131.888 148.456 132.157C148.477 132.427 148.273 132.667 148.003 132.691ZM171.47 108.206C171.488 107.931 171.727 107.717 172.002 107.738C172.278 107.759 172.485 108.007 172.461 108.282C172.437 108.551 172.196 108.754 171.926 108.734C171.656 108.713 171.453 108.476 171.47 108.206ZM148.71 137.613C148.439 137.666 148.176 137.489 148.126 137.218C148.075 136.948 148.256 136.691 148.528 136.643L148.54 136.641C148.806 136.594 149.06 136.769 149.109 137.035C149.159 137.3 148.987 137.559 148.722 137.611L148.71 137.613ZM176.421 108.805C176.469 108.534 176.726 108.353 176.997 108.404C177.268 108.454 177.446 108.717 177.393 108.987L177.39 108.999C177.338 109.264 177.079 109.435 176.813 109.386C176.547 109.336 176.371 109.083 176.419 108.817L176.421 108.805ZM149.892 142.447C149.627 142.523 149.345 142.37 149.271 142.104C149.197 141.839 149.359 141.565 149.626 141.493C149.888 141.423 150.162 141.575 150.235 141.836C150.308 142.097 150.153 142.372 149.892 142.447ZM181.28 109.901C181.352 109.635 181.627 109.473 181.893 109.547C182.158 109.621 182.312 109.902 182.236 110.167C182.161 110.427 181.886 110.582 181.624 110.509C181.362 110.436 181.21 110.163 181.28 109.901ZM151.438 147.182C151.178 147.276 150.887 147.139 150.794 146.879C150.702 146.619 150.84 146.331 151.101 146.24C151.36 146.15 151.645 146.284 151.737 146.543C151.83 146.801 151.696 147.088 151.438 147.182ZM186.037 111.373C186.128 111.113 186.416 110.975 186.677 111.067C186.937 111.16 187.075 111.45 186.98 111.709C186.886 111.967 186.599 112.1 186.34 112.008C186.081 111.916 185.946 111.632 186.037 111.373ZM153.286 151.799C153.032 151.909 152.735 151.79 152.626 151.536C152.517 151.282 152.638 150.987 152.893 150.88C153.146 150.774 153.439 150.891 153.547 151.144C153.655 151.396 153.538 151.69 153.286 151.799ZM190.686 113.161C190.793 112.907 191.089 112.787 191.343 112.895C191.597 113.004 191.717 113.301 191.607 113.554C191.498 113.806 191.203 113.922 190.95 113.814C190.697 113.706 190.58 113.414 190.686 113.161ZM155.39 156.306C155.143 156.428 154.839 156.329 154.718 156.082C154.597 155.836 154.705 155.537 154.952 155.417C155.198 155.299 155.496 155.398 155.617 155.642C155.737 155.886 155.634 156.185 155.39 156.306ZM195.232 115.217C195.352 114.97 195.651 114.862 195.899 114.983C196.146 115.104 196.245 115.407 196.122 115.653C196.001 115.897 195.702 116 195.457 115.88C195.213 115.76 195.113 115.462 195.232 115.217ZM157.716 160.716C157.475 160.85 157.167 160.76 157.034 160.518C156.9 160.277 156.989 159.97 157.232 159.838C157.474 159.707 157.777 159.795 157.91 160.036C158.044 160.277 157.957 160.582 157.716 160.716ZM199.662 117.492C199.794 117.25 200.101 117.161 200.343 117.294C200.585 117.427 200.676 117.734 200.541 117.975C200.407 118.216 200.102 118.302 199.86 118.169C199.618 118.036 199.53 117.734 199.662 117.492ZM160.231 165.003C159.996 165.147 159.685 165.074 159.542 164.839C159.399 164.604 159.478 164.296 159.714 164.154C159.949 164.013 160.255 164.087 160.397 164.32C160.54 164.553 160.464 164.86 160.231 165.003ZM203.986 119.97C204.129 119.734 204.436 119.655 204.672 119.798C204.908 119.941 204.981 120.251 204.836 120.486C204.693 120.718 204.386 120.793 204.152 120.651C203.918 120.51 203.845 120.204 203.986 119.97ZM162.925 169.199C162.695 169.352 162.382 169.288 162.229 169.058C162.076 168.828 162.139 168.516 162.37 168.364C162.601 168.213 162.911 168.276 163.063 168.506C163.216 168.735 163.154 169.046 162.925 169.199ZM208.205 122.62C208.357 122.39 208.669 122.327 208.9 122.479C209.13 122.632 209.195 122.945 209.041 123.174C208.888 123.403 208.576 123.464 208.346 123.312C208.116 123.16 208.053 122.851 208.205 122.62ZM165.77 173.276C165.547 173.437 165.232 173.389 165.071 173.165C164.91 172.942 164.966 172.63 165.19 172.47C165.413 172.312 165.725 172.361 165.884 172.583C166.044 172.805 165.991 173.116 165.77 173.276ZM212.319 125.435C212.479 125.211 212.792 125.155 213.015 125.316C213.239 125.476 213.287 125.791 213.126 126.013C212.966 126.234 212.654 126.286 212.432 126.127C212.209 125.968 212.16 125.657 212.319 125.435ZM216.325 128.391C216.493 128.172 216.809 128.13 217.028 128.298C217.246 128.467 217.287 128.783 217.117 129.001C216.948 129.218 216.634 129.257 216.416 129.089C216.198 128.921 216.158 128.609 216.325 128.391ZM168.763 177.259C168.545 177.428 168.229 177.388 168.06 177.17C167.891 176.952 167.933 176.637 168.152 176.469C168.37 176.302 168.684 176.342 168.852 176.559C169.02 176.777 168.981 177.09 168.763 177.259ZM220.233 131.488C220.408 131.276 220.724 131.242 220.937 131.417C221.149 131.593 221.176 131.909 221 132.121C220.825 132.331 220.51 132.361 220.299 132.187C220.088 132.013 220.06 131.699 220.233 131.488ZM171.89 181.134C171.678 181.31 171.36 181.283 171.185 181.071C171.009 180.859 171.043 180.544 171.256 180.369C171.467 180.196 171.782 180.224 171.956 180.435C172.131 180.645 172.1 180.96 171.89 181.134ZM224.031 134.706C224.213 134.5 224.53 134.477 224.737 134.659C224.944 134.841 224.961 135.158 224.778 135.364C224.596 135.569 224.28 135.589 224.074 135.408C223.869 135.227 223.85 134.912 224.031 134.706ZM175.139 184.905C174.933 185.087 174.615 185.07 174.432 184.864C174.25 184.658 174.273 184.341 174.48 184.16C174.686 183.979 175.001 183.998 175.183 184.203C175.364 184.408 175.344 184.723 175.139 184.905ZM227.726 138.045C227.915 137.843 228.233 137.832 228.434 138.021C228.636 138.21 228.645 138.528 228.455 138.729C228.265 138.928 227.949 138.937 227.749 138.749C227.548 138.561 227.538 138.246 227.726 138.045ZM178.51 188.574C178.31 188.764 177.991 188.755 177.802 188.554C177.612 188.353 177.624 188.036 177.825 187.847C178.027 187.66 178.342 187.67 178.531 187.87C178.719 188.07 178.71 188.386 178.51 188.574ZM231.319 141.5C231.513 141.304 231.832 141.304 232.028 141.499C232.223 141.694 232.223 142.013 232.027 142.207C231.832 142.401 231.515 142.401 231.32 142.206C231.125 142.011 231.124 141.695 231.319 141.5ZM181.287 192.14C181.091 191.945 181.091 191.627 181.287 191.433C181.483 191.239 181.799 191.239 181.994 191.434C182.19 191.629 182.19 191.945 181.996 192.14C181.801 192.336 181.482 192.336 181.287 192.14ZM234.804 145.066C235.005 144.876 235.323 144.885 235.513 145.086C235.702 145.287 235.691 145.604 235.489 145.792C235.288 145.98 234.972 145.97 234.784 145.77C234.595 145.57 234.604 145.254 234.804 145.066ZM185.588 195.595C185.399 195.796 185.082 195.808 184.88 195.619C184.679 195.43 184.67 195.112 184.86 194.911C185.049 194.712 185.365 194.703 185.566 194.891C185.766 195.079 185.776 195.394 185.588 195.595ZM189.283 198.933C189.101 199.14 188.784 199.163 188.578 198.981C188.371 198.799 188.354 198.482 188.537 198.276C188.719 198.071 189.035 198.051 189.24 198.232C189.446 198.413 189.464 198.728 189.283 198.933ZM238.175 148.735C238.381 148.552 238.699 148.57 238.882 148.776C239.065 148.982 239.042 149.299 238.834 149.48C238.628 149.661 238.313 149.642 238.132 149.437C237.95 149.232 237.97 148.917 238.175 148.735ZM193.081 202.152C192.906 202.364 192.59 202.398 192.378 202.222C192.165 202.047 192.138 201.73 192.314 201.519C192.49 201.309 192.805 201.279 193.016 201.453C193.227 201.627 193.255 201.941 193.081 202.152ZM241.425 152.506C241.637 152.33 241.954 152.357 242.13 152.568C242.305 152.78 242.272 153.096 242.059 153.27C241.847 153.444 241.533 153.416 241.358 153.205C241.184 152.995 241.215 152.68 241.425 152.506ZM196.989 205.249C196.821 205.468 196.506 205.51 196.287 205.341C196.068 205.173 196.028 204.857 196.197 204.639C196.366 204.422 196.681 204.383 196.899 204.551C197.117 204.719 197.157 205.031 196.989 205.249ZM244.551 156.381C244.769 156.211 245.086 156.252 245.255 156.47C245.424 156.688 245.382 157.003 245.163 157.171C244.944 157.338 244.631 157.298 244.463 157.081C244.294 156.863 244.334 156.549 244.551 156.381ZM200.996 208.205C200.836 208.429 200.523 208.484 200.299 208.324C200.075 208.164 200.027 207.849 200.189 207.627C200.349 207.406 200.661 207.353 200.883 207.513C201.105 207.672 201.154 207.983 200.996 208.205ZM247.545 160.364C247.768 160.203 248.083 160.251 248.243 160.474C248.404 160.698 248.348 161.01 248.124 161.17C247.901 161.328 247.59 161.279 247.43 161.057C247.271 160.835 247.323 160.524 247.545 160.364ZM205.11 211.019C204.958 211.25 204.645 211.313 204.415 211.16C204.184 211.008 204.12 210.695 204.273 210.466C204.427 210.237 204.738 210.176 204.968 210.328C205.198 210.48 205.261 210.789 205.11 211.019ZM250.389 164.441C250.619 164.287 250.933 164.352 251.085 164.582C251.238 164.812 251.175 165.124 250.944 165.275C250.713 165.427 250.404 165.364 250.251 165.134C250.099 164.905 250.16 164.594 250.389 164.441ZM209.328 213.67C209.186 213.906 208.878 213.985 208.642 213.842C208.407 213.699 208.334 213.389 208.478 213.154C208.621 212.922 208.928 212.847 209.162 212.988C209.396 213.13 209.469 213.436 209.328 213.67ZM253.083 168.637C253.318 168.493 253.629 168.566 253.772 168.801C253.916 169.036 253.836 169.344 253.6 169.486C253.366 169.627 253.059 169.553 252.917 169.32C252.775 169.087 252.85 168.78 253.083 168.637ZM213.652 216.148C213.52 216.39 213.214 216.479 212.971 216.346C212.729 216.212 212.639 215.906 212.773 215.665C212.907 215.424 213.213 215.338 213.454 215.47C213.696 215.603 213.785 215.906 213.652 216.148ZM255.598 172.924C255.84 172.79 256.147 172.88 256.281 173.122C256.414 173.363 256.325 173.669 256.083 173.801C255.84 173.933 255.537 173.845 255.404 173.604C255.271 173.362 255.357 173.058 255.598 172.924ZM218.082 218.423C217.962 218.67 217.663 218.778 217.416 218.657C217.169 218.536 217.069 218.232 217.192 217.986C217.313 217.743 217.612 217.64 217.857 217.76C218.102 217.88 218.201 218.178 218.082 218.423ZM257.925 177.334C258.171 177.212 258.475 177.311 258.596 177.557C258.718 177.804 258.61 178.103 258.362 178.223C258.117 178.341 257.818 178.242 257.698 177.998C257.578 177.753 257.681 177.455 257.925 177.334ZM222.628 220.478C222.521 220.733 222.226 220.853 221.971 220.745C221.717 220.636 221.597 220.339 221.707 220.086C221.817 219.834 222.112 219.718 222.364 219.826C222.617 219.934 222.735 220.225 222.628 220.478ZM260.029 181.84C260.282 181.731 260.58 181.85 260.688 182.104C260.797 182.358 260.677 182.653 260.422 182.759C260.168 182.866 259.876 182.748 259.768 182.496C259.66 182.244 259.776 181.95 260.029 181.84ZM227.278 222.267C227.186 222.527 226.898 222.665 226.638 222.572C226.378 222.48 226.24 222.19 226.334 221.931C226.428 221.673 226.716 221.539 226.974 221.632C227.233 221.724 227.368 222.008 227.278 222.267ZM261.877 186.458C262.136 186.364 262.427 186.501 262.52 186.761C262.613 187.021 262.475 187.309 262.214 187.4C261.954 187.49 261.67 187.355 261.577 187.097C261.485 186.839 261.619 186.552 261.877 186.458ZM232.034 223.739C231.962 224.005 231.688 224.167 231.422 224.093C231.156 224.019 231.002 223.738 231.079 223.473C231.153 223.212 231.429 223.058 231.69 223.131C231.952 223.203 232.105 223.477 232.034 223.739ZM263.422 191.193C263.688 191.117 263.97 191.27 264.044 191.536C264.118 191.801 263.955 192.075 263.688 192.147C263.426 192.217 263.152 192.065 263.079 191.804C263.006 191.542 263.161 191.268 263.422 191.193ZM236.894 224.835C236.846 225.105 236.588 225.287 236.317 225.236C236.046 225.185 235.868 224.923 235.922 224.653L235.924 224.641C235.976 224.376 236.236 224.205 236.501 224.254C236.767 224.304 236.943 224.557 236.896 224.823L236.894 224.835ZM264.605 196.027C264.875 195.974 265.138 196.151 265.189 196.421C265.24 196.692 265.058 196.949 264.787 196.997L264.775 196.999C264.508 197.046 264.255 196.87 264.205 196.605C264.155 196.34 264.327 196.081 264.593 196.029L264.605 196.027ZM241.844 225.434C241.826 225.709 241.588 225.923 241.312 225.902C241.036 225.881 240.829 225.633 240.854 225.358C240.877 225.089 241.118 224.886 241.388 224.906C241.658 224.927 241.861 225.164 241.844 225.434ZM265.311 200.949C265.587 200.924 265.835 201.131 265.856 201.406C265.877 201.681 265.663 201.92 265.387 201.937C265.117 201.955 264.879 201.752 264.858 201.482C264.838 201.213 265.041 200.973 265.311 200.949ZM246.829 225.408C246.852 225.683 246.647 225.928 246.371 225.946C246.365 225.946 246.358 225.947 246.352 225.947C246.076 225.965 245.841 225.749 245.827 225.473C245.814 225.202 246.026 224.967 246.298 224.95C246.571 224.932 246.807 225.137 246.829 225.408ZM251.728 224.554C251.803 224.82 251.648 225.096 251.38 225.165C251.376 225.167 251.371 225.168 251.367 225.169C251.099 225.238 250.829 225.071 250.766 224.803L250.763 224.788C250.701 224.528 250.865 224.267 251.125 224.2C251.384 224.133 251.651 224.283 251.724 224.54L251.728 224.554Z" fill="#33DFCC"/>
<path d="M263.246 228.55C270.316 228.55 276.046 222.831 276.046 215.775C276.046 208.72 270.316 203 263.246 203C256.177 203 250.446 208.72 250.446 215.775C250.446 222.831 256.177 228.55 263.246 228.55Z" fill="url(#paint4_radial)"/>
<path d="M129.657 179.734C167.368 191.707 207.624 171.028 219.571 133.546C231.519 96.0643 210.634 55.9729 172.923 43.9997C135.213 32.0265 94.9566 52.7055 83.0089 90.1875C71.0612 127.67 91.9462 167.761 129.657 179.734Z" fill="url(#paint5_radial)"/>
<g style="mix-blend-mode:multiply" opacity="0.6" filter="url(#filter1_f)">
<path d="M111.947 142.581C119.348 153.764 120.972 165.367 115.601 168.536C110.23 171.704 99.886 165.219 92.4845 154.035C85.083 142.852 83.4589 131.249 88.8301 128.08C94.2014 124.912 104.545 131.397 111.947 142.581Z" fill="url(#paint6_radial)" style="mix-blend-mode:multiply"/>
</g>
<g filter="url(#filter2_f)">
<path fill-rule="evenodd" clip-rule="evenodd" d="M265.934 50.7776C265.851 50.6681 265.772 50.5549 265.697 50.4379C265.623 50.3209 265.554 50.2014 265.49 50.0793L266.199 49.7099C266.252 49.812 266.31 49.912 266.373 50.0098C266.435 50.1077 266.501 50.2024 266.571 50.294L265.934 50.7776ZM270.898 53.1351C270.63 53.1097 270.369 53.0756 270.115 53.0328L270.248 52.2455C270.483 52.285 270.725 52.3166 270.973 52.3403L270.898 53.1351ZM276.313 52.6733C276.059 52.7323 275.806 52.7864 275.555 52.8354L275.401 52.0519C275.643 52.0047 275.886 51.9526 276.133 51.8956L276.313 52.6733ZM281.421 50.9286C281.185 51.0343 280.949 51.1364 280.713 51.2348L280.404 50.4985C280.633 50.4025 280.863 50.3031 281.094 50.2L281.421 50.9286ZM285.824 48.5567C285.715 48.6258 285.606 48.6941 285.497 48.7617L285.075 48.0832C285.182 48.0171 285.289 47.9503 285.395 47.8827C285.502 47.8152 285.608 47.7473 285.713 47.6789L286.149 48.3483C286.041 48.4182 285.933 48.4876 285.824 48.5567ZM290.425 45.0784C290.236 45.2491 290.043 45.4188 289.847 45.5874L289.325 44.9822C289.517 44.8178 289.704 44.6523 289.889 44.486L290.425 45.0784ZM294.069 41.0991C293.919 41.3045 293.762 41.5098 293.6 41.7149L292.972 41.2209C293.128 41.0229 293.279 40.8248 293.424 40.627L294.069 41.0991ZM296.561 36.2684C296.492 36.5164 296.412 36.7666 296.321 37.0187L295.568 36.7493C295.652 36.5144 295.727 36.2825 295.79 36.0539L296.561 36.2684ZM296.086 31.1744C296.16 31.2913 296.229 31.4109 296.293 31.5329L295.584 31.9023C295.53 31.8003 295.473 31.7003 295.41 31.6024C295.348 31.5046 295.282 31.4099 295.212 31.3183L295.848 30.8346C295.932 30.9441 296.011 31.0574 296.086 31.1744Z" fill="url(#paint7_linear)"/>
</g>
<ellipse cx="255.234" cy="224.132" rx="1.24252" ry="3.23639" transform="rotate(-46.3683 255.234 224.132)" fill="#2BFBE4"/>
<path d="M74.02 163.422C85.0846 166.386 96.4575 159.82 99.4222 148.756C102.387 137.691 95.8208 126.318 84.7563 123.353C73.6917 120.389 62.3188 126.955 59.354 138.019C56.3893 149.084 62.9555 160.457 74.02 163.422Z" fill="url(#paint8_radial)"/>
<defs>
<filter id="filter0_f" x="245.119" y="113.931" width="42.3587" height="68.8867" filterUnits="userSpaceOnUse" color-interpolation-filters="sRGB">
<feFlood flood-opacity="0" result="BackgroundImageFix"/>
<feBlend mode="normal" in="SourceGraphic" in2="BackgroundImageFix" result="shape"/>
<feGaussianBlur stdDeviation="3" result="effect1_foregroundBlur"/>
</filter>
<filter id="filter1_f" x="79.6646" y="121.277" width="45.1024" height="54.0619" filterUnits="userSpaceOnUse" color-interpolation-filters="sRGB">
<feFlood flood-opacity="0" result="BackgroundImageFix"/>
<feBlend mode="normal" in="SourceGraphic" in2="BackgroundImageFix" result="shape"/>
<feGaussianBlur stdDeviation="3" result="effect1_foregroundBlur"/>
</filter>
<filter id="filter2_f" x="263.49" y="28.8345" width="35.0712" height="26.3004" filterUnits="userSpaceOnUse" color-interpolation-filters="sRGB">
<feFlood flood-opacity="0" result="BackgroundImageFix"/>
<feBlend mode="normal" in="SourceGraphic" in2="BackgroundImageFix" result="shape"/>
<feGaussianBlur stdDeviation="1" result="effect1_foregroundBlur"/>
</filter>
<radialGradient id="paint0_radial" cx="0" cy="0" r="1" gradientUnits="userSpaceOnUse" gradientTransform="translate(297.474 117.633) rotate(-2.45932) scale(71.7196 71.5785)">
<stop stop-color="#33DFCC"/>
<stop offset="1" stop-color="#003CDA"/>
</radialGradient>
<radialGradient id="paint1_radial" cx="0" cy="0" r="1" gradientUnits="userSpaceOnUse" gradientTransform="translate(286.167 31.1556) rotate(-2.45932) scale(31.6537 31.5915)">
<stop stop-color="#FFEDED"/>
<stop offset="0.270833" stop-color="#FF9D9D"/>
<stop offset="0.973958" stop-color="#003CDA"/>
</radialGradient>
<linearGradient id="paint2_linear" x1="232.047" y1="134.337" x2="177.263" y2="118.711" gradientUnits="userSpaceOnUse">
<stop stop-color="#2BFBE4"/>
<stop offset="1" stop-color="#00796C"/>
</linearGradient>
<linearGradient id="paint3_linear" x1="264.047" y1="174.258" x2="272.813" y2="122.355" gradientUnits="userSpaceOnUse">
<stop stop-color="#0A1A3E"/>
<stop offset="1" stop-color="#1E3D7E" stop-opacity="0.3"/>
</linearGradient>
<radialGradient id="paint4_radial" cx="0" cy="0" r="1" gradientUnits="userSpaceOnUse" gradientTransform="translate(266.4 209.814) scale(22.4184 22.3742)">
<stop offset="0.130208" stop-color="white"/>
<stop offset="1" stop-color="#04BDA9"/>
</radialGradient>
<radialGradient id="paint5_radial" cx="0" cy="0" r="1" gradientUnits="userSpaceOnUse" gradientTransform="translate(178.211 85.5374) rotate(17.6147) scale(125.473 124.758)">
<stop stop-color="#33DFCC"/>
<stop offset="1" stop-color="#003CDA"/>
</radialGradient>
<radialGradient id="paint6_radial" cx="0" cy="0" r="1" gradientUnits="userSpaceOnUse" gradientTransform="translate(92.812 153.212) rotate(-7.91349) scale(23.1598 23.9773)">
<stop offset="0.000888724" stop-color="#001271" stop-opacity="0.8"/>
<stop offset="0.9982" stop-color="#001689" stop-opacity="0"/>
</radialGradient>
<linearGradient id="paint7_linear" x1="272.405" y1="58.2615" x2="298.395" y2="34.824" gradientUnits="userSpaceOnUse">
<stop stop-color="#6B1515"/>
<stop offset="1" stop-color="#DD4444" stop-opacity="0.2"/>
</linearGradient>
<radialGradient id="paint8_radial" cx="0" cy="0" r="1" gradientUnits="userSpaceOnUse" gradientTransform="translate(86.8298 135.361) rotate(15) scale(36.3263)">
<stop offset="0.130208" stop-color="white"/>
<stop offset="1" stop-color="#04BDA9"/>
</radialGradient>
</defs>
</svg>
