<svg width="18" height="18" viewBox="0 0 18 18" fill="none" xmlns="http://www.w3.org/2000/svg">
<path fill-rule="evenodd" clip-rule="evenodd" d="M9 7H4C3.44772 7 3 7.44772 3 8V15C3 15.5523 3.44772 16 4 16H9C9.55229 16 10 15.5523 10 15V8C10 7.44772 9.55228 7 9 7ZM4 5C2.34315 5 1 6.34315 1 8V15C1 16.6569 2.34315 18 4 18H9C10.6569 18 12 16.6569 12 15V8C12 6.34315 10.6569 5 9 5H4Z" fill="#276BFB"/>
<path d="M9 2H14C14.5523 2 15 2.44772 15 3V10C15 10.5523 14.5523 11 14 11H13V13H14C15.6569 13 17 11.6569 17 10V3C17 1.34315 15.6569 0 14 0H9C7.34315 0 6 1.34315 6 3V4H8V3C8 2.44772 8.44772 2 9 2Z" fill="#276BFB"/>
</svg>
