<svg width="185" height="31" viewBox="0 0 185 31" fill="none"
    xmlns="http://www.w3.org/2000/svg">
    <path d="M37.4081 24.0201C37.2742 23.8848 37.2207 23.7496 37.2207 23.5603C37.2207 23.3709 37.2742 23.2086 37.4081 23.0464L42.4398 16.2576L37.7828 9.87445C37.6757 9.71217 37.5954 9.54988 37.5954 9.36055C37.5954 9.17122 37.6489 9.03599 37.7828 8.90076C37.9166 8.76552 38.0504 8.71143 38.2378 8.71143H40.8339C41.0481 8.71143 41.2087 8.76552 41.3157 8.84666C41.4228 8.9278 41.5298 9.06304 41.6637 9.22532L44.9557 13.661L48.221 9.22532C48.2478 9.19827 48.3013 9.11713 48.4351 8.95485C48.569 8.79257 48.7563 8.71143 49.0507 8.71143H51.5666C51.754 8.71143 51.8878 8.76552 52.0216 8.90076C52.1287 9.03599 52.209 9.17123 52.209 9.33351C52.209 9.52284 52.1554 9.71217 52.0216 9.87445L47.311 16.2846L52.3696 23.0464C52.4766 23.2086 52.5569 23.3709 52.5569 23.5603C52.5569 23.7496 52.5034 23.8848 52.3696 24.0201C52.2357 24.1553 52.1019 24.2094 51.9146 24.2094H49.2113C48.8901 24.2094 48.6225 24.0471 48.4084 23.7225L44.8754 19.0163L41.3157 23.7225C41.1016 24.0471 40.8339 24.2094 40.5128 24.2094H37.8898C37.6757 24.2094 37.5151 24.1553 37.4081 24.0201Z" fill="#283049"/>
    <path d="M15.9323 15.3918C15.8782 13.2603 15.2289 11.5854 14.1467 10.2737C13.0646 8.96201 11.5226 8.30616 9.52059 8.30616C7.59979 8.30616 6.08479 8.96201 4.9756 10.301V3.60587C4.9756 3.16864 4.54274 2.89536 4.164 3.05933L0.97168 4.39836V23.5548C0.97168 23.746 1.05284 23.9373 1.18811 24.074C1.32338 24.2106 1.4857 24.2926 1.70213 24.2926H4.08283C4.29926 24.2926 4.48864 24.2106 4.6239 24.074C4.75917 23.9373 4.84033 23.7734 4.84033 23.5548V22.4343C5.92247 23.8554 7.51863 24.5659 9.5747 24.5659C11.5767 24.5659 13.1187 23.91 14.2009 22.6256C15.283 21.3413 15.8511 19.5923 15.9323 17.4335C15.9997 16.7529 15.9323 16.0663 15.9323 15.3918ZM11.766 17.3241C11.6308 19.9749 10.4945 21.2866 8.38435 21.2866C7.2481 21.2866 6.40944 20.904 5.84131 20.1662C5.27319 19.4283 4.9756 18.5265 4.94855 17.4608C4.9215 17.2148 4.92149 16.8323 4.92149 16.313C4.92149 15.7665 4.9215 15.3839 4.94855 15.138C4.9756 14.1269 5.30024 13.2797 5.86837 12.5692C6.43649 11.8587 7.27515 11.5034 8.35729 11.5034C10.4945 11.5034 11.6037 12.8152 11.739 15.4659C11.766 15.6572 11.766 15.9578 11.766 16.3677C11.7931 16.8323 11.7931 17.1329 11.766 17.3241Z" fill="#283049"/>
    <path d="M34.4199 20.76H23.8279L26.6877 16.8594C27.0585 16.3684 26.7142 15.6592 26.1052 15.6592H22.3979L18.8496 20.3782C18.7437 20.5418 18.6377 20.7055 18.5318 20.8691C18.4524 21.0328 18.3994 21.251 18.3994 21.4965V23.6242C18.3994 23.8424 18.4524 24.0333 18.5848 24.1697C18.7172 24.3061 18.8761 24.3879 19.0879 24.3879H32.6723C33.043 24.3879 33.3872 24.197 33.5991 23.8969L34.976 21.9875C35.3468 21.442 35.0025 20.76 34.4199 20.76Z" fill="#283049"/>
    <path d="M18.5932 6.56507H29.2957L26.406 10.3861C26.0314 10.8671 26.3793 11.5618 26.9946 11.5618H30.7405L34.3258 6.93916C34.4328 6.77884 34.5399 6.61851 34.6469 6.45819C34.7271 6.29787 34.7807 6.0841 34.7807 5.84362V3.75941C34.7807 3.54564 34.7271 3.3586 34.5934 3.225C34.4596 3.09139 34.299 3.01123 34.085 3.01123H20.3591C19.9846 3.01123 19.6367 3.19828 19.4227 3.4922L18.0314 5.36265C17.6568 5.87034 18.0046 6.56507 18.5932 6.56507Z" fill="#283049"/>
    <path d="M54.9338 27.0802C55.0504 27.2024 55.1865 27.2636 55.342 27.2636H57.2376C57.4904 27.2636 57.6848 27.1922 57.8209 27.0496C57.9764 26.9273 58.0833 26.7846 58.1417 26.6216L68.1153 1.64479C68.1542 1.54288 68.1737 1.43079 68.1737 1.3085C68.1737 1.12507 68.1153 0.972217 67.9987 0.849931C67.882 0.727646 67.7362 0.666504 67.5612 0.666504H65.6657C65.4324 0.666504 65.2379 0.737837 65.0824 0.880502C64.9269 1.00279 64.8102 1.14545 64.7325 1.3085L54.8171 26.2853C54.7782 26.3872 54.7588 26.4993 54.7588 26.6216C54.7588 26.805 54.8171 26.9579 54.9338 27.0802Z" fill="#283049"/>
    <path fill-rule="evenodd" clip-rule="evenodd" d="M70.6249 23.0447C71.9081 24.3491 73.6384 25.0013 75.8159 25.0013C77.1768 25.0013 78.3725 24.7567 79.4029 24.2676C80.4333 23.7784 81.2207 23.2078 81.7651 22.5556C82.3289 21.883 82.6108 21.3022 82.6108 20.813C82.6108 20.6296 82.5428 20.4869 82.4067 20.385C82.29 20.2831 82.1442 20.2322 81.9692 20.2322H79.4029C79.1696 20.2322 79.0044 20.2627 78.9072 20.3239C78.8099 20.3646 78.6738 20.4971 78.4989 20.7213C77.799 21.6588 76.8949 22.1276 75.7867 22.1276C74.8146 22.1276 74.0467 21.7607 73.4829 21.027C72.9385 20.2729 72.6469 19.3252 72.608 18.1839V17.9393H82.29C82.5039 17.9393 82.6789 17.868 82.815 17.7253C82.9511 17.5826 83.0191 17.4094 83.0191 17.2056V16.5636C83.0191 14.1179 82.3872 12.1613 81.1235 10.6939C79.8792 9.22648 78.1003 8.49277 75.7867 8.49277C73.5315 8.49277 71.7623 9.22648 70.4791 10.6939C69.2154 12.1613 68.5835 14.1689 68.5835 16.7165L68.6127 17.4807C68.6905 19.8857 69.3612 21.7404 70.6249 23.0447ZM78.9946 15.2796V15.3408H72.608V15.2796C72.608 14.0771 72.8899 13.1192 73.4537 12.4059C74.0175 11.6722 74.7952 11.3053 75.7867 11.3053C76.7783 11.3053 77.5559 11.6722 78.1198 12.4059C78.703 13.1192 78.9946 14.0771 78.9946 15.2796Z" fill="#283049"/>
    <path d="M85.0737 24.6956C84.8987 24.6956 84.7432 24.6344 84.6071 24.5122C84.4905 24.3695 84.4321 24.2064 84.4321 24.023C84.4321 23.8396 84.4905 23.6663 84.6071 23.5033L89.5939 16.533L84.9862 9.99076C84.8696 9.82772 84.8112 9.65448 84.8112 9.47105C84.8112 9.28762 84.8696 9.13477 84.9862 9.01248C85.1223 8.86982 85.2779 8.79848 85.4528 8.79848H88.0192C88.233 8.79848 88.3885 8.84943 88.4858 8.95134C88.6024 9.03286 88.7191 9.15515 88.8357 9.31819L92.1019 13.8733L95.339 9.31819C95.3584 9.29781 95.4265 9.2061 95.5431 9.04305C95.6792 8.88001 95.8834 8.79848 96.1556 8.79848H98.6344C98.8094 8.79848 98.9552 8.86982 99.0718 9.01248C99.1885 9.13477 99.2468 9.27743 99.2468 9.44048C99.2468 9.64429 99.1885 9.82772 99.0718 9.99076L94.4058 16.5636L99.4218 23.5033C99.5384 23.6663 99.5968 23.8396 99.5968 24.023C99.5968 24.2064 99.5287 24.3695 99.3926 24.5122C99.276 24.6344 99.1302 24.6956 98.9552 24.6956H96.2722C95.9611 24.6956 95.6987 24.5325 95.4848 24.2064L91.9853 19.3762L88.4566 24.2064C88.2427 24.5325 87.9803 24.6956 87.6692 24.6956H85.0737Z" fill="#283049"/>
    <path fill-rule="evenodd" clip-rule="evenodd" d="M129.294 23.167C130.538 24.3899 132.307 25.0013 134.601 25.0013C136.876 25.0013 138.635 24.3899 139.88 23.167C141.124 21.9442 141.795 20.2525 141.892 18.0922C141.911 17.8476 141.921 17.3992 141.921 16.747C141.921 16.0948 141.911 15.6465 141.892 15.4019C141.795 13.2619 141.114 11.5805 139.85 10.3576C138.587 9.11439 136.837 8.49277 134.601 8.49277C132.346 8.49277 130.586 9.11439 129.323 10.3576C128.059 11.5805 127.379 13.2619 127.281 15.4019L127.252 16.747L127.281 18.0922C127.379 20.2525 128.049 21.9442 129.294 23.167ZM136.963 20.9047C136.419 21.5773 135.632 21.9136 134.601 21.9136C133.571 21.9136 132.774 21.5773 132.21 20.9047C131.646 20.2322 131.345 19.2437 131.306 17.9393L131.277 16.747L131.306 15.5547C131.345 14.2504 131.646 13.2619 132.21 12.5893C132.774 11.8964 133.571 11.5499 134.601 11.5499C135.612 11.5499 136.4 11.8964 136.963 12.5893C137.527 13.2619 137.829 14.2504 137.867 15.5547C137.887 15.7586 137.897 16.156 137.897 16.747C137.897 17.3381 137.887 17.7355 137.867 17.9393C137.829 19.2437 137.527 20.2322 136.963 20.9047Z" fill="#283049"/>
    <path fill-rule="evenodd" clip-rule="evenodd" d="M163.731 25.0013C161.554 25.0013 159.824 24.3491 158.54 23.0447C157.277 21.7404 156.606 19.8857 156.528 17.4807L156.499 16.7165C156.499 14.1689 157.131 12.1613 158.395 10.6939C159.678 9.22648 161.447 8.49277 163.702 8.49277C166.016 8.49277 167.795 9.22648 169.039 10.6939C170.303 12.1613 170.935 14.1179 170.935 16.5636V17.2056C170.935 17.4094 170.867 17.5826 170.73 17.7253C170.594 17.868 170.419 17.9393 170.206 17.9393H160.523V18.1839C160.562 19.3252 160.854 20.2729 161.398 21.027C161.962 21.7607 162.73 22.1276 163.702 22.1276C164.81 22.1276 165.714 21.6588 166.414 20.7213C166.589 20.4971 166.725 20.3646 166.823 20.3239C166.92 20.2627 167.085 20.2322 167.318 20.2322H169.885C170.06 20.2322 170.206 20.2831 170.322 20.385C170.458 20.4869 170.526 20.6296 170.526 20.813C170.526 21.3022 170.244 21.883 169.681 22.5556C169.136 23.2078 168.349 23.7784 167.318 24.2676C166.288 24.7567 165.092 25.0013 163.731 25.0013ZM166.91 15.3408V15.2796C166.91 14.0771 166.619 13.1192 166.035 12.4059C165.471 11.6722 164.694 11.3053 163.702 11.3053C162.711 11.3053 161.933 11.6722 161.369 12.4059C160.805 13.1192 160.523 14.0771 160.523 15.2796V15.3408H166.91Z" fill="#283049"/>
    <path d="M120.147 4.19035V23.9619C120.147 24.1657 120.215 24.3389 120.352 24.4816C120.488 24.6242 120.653 24.6956 120.847 24.6956H123.297C123.511 24.6956 123.676 24.6242 123.793 24.4816C123.929 24.3389 123.997 24.1657 123.997 23.9619V3.65594C123.997 3.12521 123.483 2.76439 123.015 2.96646L120.179 4.19035H120.147Z" fill="#283049"/>
    <path fill-rule="evenodd" clip-rule="evenodd" d="M103.216 30.6096C102.748 30.8117 102.234 30.4508 102.234 29.9201V9.53217C102.234 9.30798 102.302 9.13475 102.438 9.01246C102.574 8.86979 102.739 8.79846 102.934 8.79846H105.267C105.481 8.79846 105.656 8.86979 105.792 9.01246C105.928 9.15513 105.996 9.32837 105.996 9.53217V10.755C107.026 9.24684 108.572 8.49275 110.633 8.49275C112.596 8.49275 114.103 9.14494 115.153 10.4493C116.203 11.7333 116.767 13.4657 116.845 15.6464C116.864 15.891 116.874 16.2579 116.874 16.747C116.874 17.2362 116.864 17.603 116.845 17.8476C116.786 19.9876 116.222 21.72 115.153 23.0447C114.103 24.3491 112.596 25.0013 110.633 25.0013C108.689 25.0013 107.201 24.2778 106.171 22.8307V28.3354C106.171 28.9397 105.823 29.4843 105.29 29.7144L103.216 30.6096ZM109.525 21.6996C111.605 21.6996 112.713 20.3544 112.849 17.6642C112.869 17.4603 112.878 17.1546 112.878 16.747C112.878 16.3394 112.869 16.0337 112.849 15.8299C112.713 13.1396 111.605 11.7945 109.525 11.7945C108.416 11.7945 107.59 12.1715 107.046 12.9256C106.501 13.6797 106.21 14.5968 106.171 15.677C106.152 15.9216 106.142 16.3088 106.142 16.8387C106.142 17.3686 106.152 17.7661 106.171 18.031C106.21 19.0501 106.511 19.9162 107.075 20.6296C107.639 21.3429 108.455 21.6996 109.525 21.6996Z" fill="#283049"/>
    <path d="M149.147 22.3451C149.147 22.9494 148.799 23.4939 148.266 23.724L146.134 24.6444C145.665 24.8465 145.152 24.4857 145.152 23.955V9.56277C145.152 9.33858 145.22 9.15515 145.356 9.01249C145.492 8.86982 145.657 8.79849 145.851 8.79849H148.243C148.457 8.79849 148.632 8.86982 148.768 9.01249C148.904 9.15515 148.972 9.33858 148.972 9.56277V10.8162C149.944 9.47106 151.344 8.79849 153.171 8.79849H154.396C154.61 8.79849 154.775 8.86982 154.892 9.01249C155.028 9.13477 155.096 9.30801 155.096 9.5322V11.7639C155.096 11.9677 155.028 12.141 154.892 12.2836C154.775 12.4263 154.61 12.4976 154.396 12.4976H152.092C151.179 12.4976 150.459 12.7728 149.934 13.323C149.409 13.8733 149.147 14.6274 149.147 15.5853V22.3451Z" fill="#283049"/>
    <path d="M177.352 23.724C177.885 23.4939 178.233 22.9494 178.233 22.3451V15.5853C178.233 14.6274 178.495 13.8733 179.02 13.323C179.545 12.7728 180.264 12.4976 181.178 12.4976H183.482C183.696 12.4976 183.861 12.4263 183.978 12.2836C184.114 12.141 184.182 11.9677 184.182 11.7639V9.5322C184.182 9.30801 184.114 9.13477 183.978 9.01249C183.861 8.86982 183.696 8.79849 183.482 8.79849H182.257C180.43 8.79849 179.03 9.47106 178.058 10.8162V9.56277C178.058 9.33858 177.99 9.15515 177.853 9.01249C177.717 8.86982 177.542 8.79849 177.329 8.79849H174.937C174.743 8.79849 174.578 8.86982 174.441 9.01249C174.305 9.15515 174.237 9.33858 174.237 9.56277V23.955C174.237 24.4857 174.751 24.8465 175.219 24.6444L177.352 23.724Z" fill="#283049"/>
</svg>