<svg width="35" height="35" viewBox="0 0 35 35" fill="none"
  xmlns="http://www.w3.org/2000/svg">
  <path d="M14.5121 5H26.0477C28.2224 5 30 6.8472 29.9937 9.01483V20.431H14.5121V5Z" fill="black"/>
  <path d="M9.03429 5H10.9695V10.95H5V9.02111C5 6.76552 6.85956 5 9.03429 5Z" fill="black"/>
  <path d="M10.9695 14.5627H5V20.5127H10.9695V14.5627Z" fill="black"/>
  <path d="M25.9657 29.9937H24.0305V24.05H30V25.9726C30 28.2282 28.1404 29.9937 25.9657 29.9937Z" fill="black"/>
  <path d="M20.4816 24.05H14.5121V30H20.4816V24.05Z" fill="black"/>
  <path d="M5 25.9789V24.05H10.9695V30H9.03429C6.77131 30 5 28.1465 5 25.9789Z" fill="black"/>
</svg>