<svg width="219" height="36" viewBox="0 0 219 36" fill="none" 
    xmlns="http://www.w3.org/2000/svg">
    <path d="M0 7.19872C0 3.22298 3.22129 0 7.19496 0H28.7798C32.7535 0 35.9748 3.22298 35.9748 7.19872V28.7949C35.9748 32.7706 32.7535 35.9936 28.7798 35.9936H7.19496C3.22129 35.9936 0 32.7706 0 28.7949V7.19872Z" fill="url(#paint0_linear)"/>
    <path d="M84.047 27.0185C83.924 26.8968 83.8748 26.7751 83.8748 26.6047C83.8748 26.4343 83.924 26.2882 84.047 26.1422L88.6736 20.0322L84.3916 14.2874C84.2931 14.1414 84.2193 13.9953 84.2193 13.8249C84.2193 13.6545 84.2685 13.5328 84.3916 13.4111C84.5146 13.2894 84.6376 13.2407 84.8099 13.2407H87.197C87.3939 13.2407 87.5415 13.2894 87.64 13.3624C87.7384 13.4355 87.8369 13.5572 87.9599 13.7032L90.9869 17.6954L93.9892 13.7032C94.0138 13.6789 94.063 13.6058 94.1861 13.4598C94.3091 13.3137 94.4814 13.2407 94.7521 13.2407H97.0654C97.2376 13.2407 97.3607 13.2894 97.4837 13.4111C97.5821 13.5328 97.656 13.6545 97.656 13.8006C97.656 13.971 97.6068 14.1414 97.4837 14.2874L93.1525 20.0566L97.8036 26.1422C97.9021 26.2882 97.9759 26.4343 97.9759 26.6047C97.9759 26.7751 97.9267 26.8968 97.8036 27.0185C97.6806 27.1402 97.5575 27.1889 97.3853 27.1889H94.8997C94.6044 27.1889 94.3583 27.0428 94.1615 26.7507L90.913 22.5151L87.64 26.7507C87.4431 27.0428 87.197 27.1889 86.9017 27.1889H84.49C84.2931 27.1889 84.1455 27.1402 84.047 27.0185Z" fill="#283049"/>
    <path d="M64.3007 19.2529C64.2509 17.3345 63.6539 15.8271 62.6589 14.6466C61.664 13.4661 60.2461 12.8758 58.4054 12.8758C56.6392 12.8758 55.2463 13.4661 54.2264 14.6712V8.64553C54.2264 8.25202 53.8284 8.00607 53.4801 8.15364L50.5449 9.35877V26.5995C50.5449 26.7717 50.6195 26.9438 50.7439 27.0668C50.8683 27.1898 51.0175 27.2636 51.2165 27.2636H53.4055C53.6045 27.2636 53.7786 27.1898 53.903 27.0668C54.0274 26.9438 54.102 26.7963 54.102 26.5995V25.5912C55.097 26.8701 56.5646 27.5095 58.4551 27.5095C60.2958 27.5095 61.7137 26.9193 62.7087 25.7633C63.7037 24.6074 64.2261 23.0333 64.3007 21.0904C64.3626 20.4778 64.3007 19.8599 64.3007 19.2529ZM60.47 20.992C60.3456 23.3776 59.3008 24.5582 57.3606 24.5582C56.3159 24.5582 55.5448 24.2139 55.0224 23.5498C54.5 22.8858 54.2264 22.0741 54.2015 21.1149C54.1766 20.8936 54.1766 20.5493 54.1766 20.082C54.1766 19.5901 54.1766 19.2458 54.2015 19.0244C54.2264 18.1144 54.5249 17.352 55.0473 16.7125C55.5696 16.0731 56.3407 15.7533 57.3357 15.7533C59.3008 15.7533 60.3207 16.9339 60.4451 19.3195C60.47 19.4917 60.47 19.7622 60.47 20.1312C60.4948 20.5493 60.4948 20.8198 60.47 20.992Z" fill="#283049"/>
    <path d="M81.2992 24.0841H71.5602L74.1897 20.5735C74.5306 20.1316 74.2141 19.4933 73.6541 19.4933H70.2454L66.9828 23.7404C66.8854 23.8877 66.788 24.035 66.6906 24.1823C66.6176 24.3296 66.5689 24.526 66.5689 24.7469V26.6618C66.5689 26.8582 66.6176 27.03 66.7393 27.1528C66.8611 27.2755 67.0071 27.3492 67.2019 27.3492H79.6923C80.0331 27.3492 80.3497 27.1773 80.5444 26.9073L81.8105 25.1888C82.1514 24.6978 81.8349 24.0841 81.2992 24.0841Z" fill="#283049"/>
    <path d="M66.7476 11.3088H76.5881L73.9312 14.7478C73.5868 15.1806 73.9066 15.8059 74.4724 15.8059H77.9166L81.2131 11.6455C81.3116 11.5012 81.41 11.3569 81.5084 11.2126C81.5822 11.0683 81.6314 10.8759 81.6314 10.6595V8.78371C81.6314 8.59132 81.5822 8.42298 81.4592 8.30274C81.3362 8.1825 81.1885 8.11035 80.9917 8.11035H68.3713C68.0269 8.11035 67.7071 8.27869 67.5102 8.54323L66.231 10.2266C65.8866 10.6835 66.2064 11.3088 66.7476 11.3088Z" fill="#283049"/>
    <path d="M100.161 29.7723C100.268 29.8823 100.393 29.9374 100.536 29.9374H102.279C102.512 29.9374 102.69 29.8732 102.815 29.7448C102.958 29.6347 103.057 29.5063 103.11 29.3596L112.281 6.88045C112.317 6.78874 112.335 6.68785 112.335 6.5778C112.335 6.41271 112.281 6.27514 112.174 6.16508C112.066 6.05503 111.932 6 111.771 6H110.028C109.814 6 109.635 6.0642 109.492 6.1926C109.349 6.30266 109.242 6.43106 109.17 6.5778L100.054 29.0569C100.018 29.1486 100 29.2495 100 29.3596C100 29.5246 100.054 29.6622 100.161 29.7723Z" fill="#283049"/>
    <path fill-rule="evenodd" clip-rule="evenodd" d="M114.588 26.1404C115.768 27.3143 117.359 27.9013 119.361 27.9013C120.613 27.9013 121.712 27.6812 122.659 27.241C123.607 26.8007 124.331 26.2871 124.831 25.7002C125.35 25.0949 125.609 24.5721 125.609 24.1319C125.609 23.9668 125.546 23.8384 125.421 23.7467C125.314 23.655 125.18 23.6091 125.019 23.6091H122.659C122.445 23.6091 122.293 23.6366 122.204 23.6916C122.114 23.7283 121.989 23.8476 121.828 24.0493C121.185 24.8931 120.353 25.315 119.334 25.315C118.441 25.315 117.735 24.9848 117.216 24.3245C116.716 23.6458 116.447 22.7928 116.412 21.7656V21.5455H125.314C125.511 21.5455 125.672 21.4813 125.797 21.3529C125.922 21.2245 125.984 21.0686 125.984 20.8852V20.3074C125.984 18.1063 125.403 16.3453 124.241 15.0247C123.097 13.704 121.462 13.0436 119.334 13.0436C117.261 13.0436 115.634 13.704 114.454 15.0247C113.292 16.3453 112.711 18.1521 112.711 20.445L112.738 21.1328C112.81 23.2973 113.426 24.9665 114.588 26.1404ZM122.284 19.1518V19.2068H116.412V19.1518C116.412 18.0696 116.671 17.2075 117.189 16.5655C117.708 15.9051 118.423 15.5749 119.334 15.5749C120.246 15.5749 120.961 15.9051 121.48 16.5655C122.016 17.2075 122.284 18.0696 122.284 19.1518Z" fill="#283049"/>
    <path d="M127.874 27.6262C127.713 27.6262 127.57 27.5711 127.444 27.4611C127.337 27.3327 127.284 27.1859 127.284 27.0209C127.284 26.8558 127.337 26.6999 127.444 26.5531L132.03 20.2799L127.793 14.3918C127.686 14.2451 127.632 14.0892 127.632 13.9241C127.632 13.759 127.686 13.6214 127.793 13.5114C127.918 13.383 128.061 13.3188 128.222 13.3188H130.582C130.778 13.3188 130.921 13.3646 131.011 13.4564C131.118 13.5297 131.225 13.6398 131.333 13.7865L134.336 17.8861L137.312 13.7865C137.33 13.7682 137.393 13.6856 137.5 13.5389C137.625 13.3922 137.813 13.3188 138.063 13.3188H140.342C140.503 13.3188 140.637 13.383 140.744 13.5114C140.852 13.6214 140.905 13.7498 140.905 13.8966C140.905 14.08 140.852 14.2451 140.744 14.3918L136.454 20.3074L141.066 26.5531C141.173 26.6999 141.227 26.8558 141.227 27.0209C141.227 27.1859 141.164 27.3327 141.039 27.4611C140.932 27.5711 140.798 27.6262 140.637 27.6262H138.17C137.884 27.6262 137.643 27.4794 137.446 27.1859L134.228 22.8387L130.984 27.1859C130.787 27.4794 130.546 27.6262 130.26 27.6262H127.874Z" fill="#283049"/>
    <path fill-rule="evenodd" clip-rule="evenodd" d="M168.532 26.2505C169.676 27.351 171.303 27.9013 173.412 27.9013C175.504 27.9013 177.122 27.351 178.266 26.2505C179.41 25.1499 180.027 23.6274 180.116 21.6831C180.134 21.463 180.143 21.0594 180.143 20.4725C180.143 19.8855 180.134 19.482 180.116 19.2619C180.027 17.3359 179.401 15.8226 178.239 14.722C177.077 13.6031 175.468 13.0436 173.412 13.0436C171.339 13.0436 169.721 13.6031 168.559 14.722C167.397 15.8226 166.771 17.3359 166.682 19.2619L166.655 20.4725L166.682 21.6831C166.771 23.6274 167.388 25.1499 168.532 26.2505ZM175.584 24.2144C175.084 24.8197 174.36 25.1224 173.412 25.1224C172.465 25.1224 171.732 24.8197 171.214 24.2144C170.695 23.6091 170.418 22.7195 170.382 21.5455L170.356 20.4725L170.382 19.3994C170.418 18.2255 170.695 17.3359 171.214 16.7305C171.732 16.1069 172.465 15.7951 173.412 15.7951C174.342 15.7951 175.066 16.1069 175.584 16.7305C176.103 17.3359 176.38 18.2255 176.416 19.3994C176.433 19.5828 176.442 19.9405 176.442 20.4725C176.442 21.0044 176.433 21.3621 176.416 21.5455C176.38 22.7195 176.103 23.6091 175.584 24.2144Z" fill="#283049"/>
    <path fill-rule="evenodd" clip-rule="evenodd" d="M200.197 27.9013C198.194 27.9013 196.603 27.3143 195.424 26.1404C194.262 24.9665 193.645 23.2973 193.573 21.1328L193.547 20.445C193.547 18.1521 194.128 16.3453 195.29 15.0247C196.469 13.704 198.096 13.0436 200.17 13.0436C202.297 13.0436 203.933 13.704 205.077 15.0247C206.239 16.3453 206.82 18.1063 206.82 20.3074V20.8852C206.82 21.0686 206.757 21.2245 206.632 21.3529C206.507 21.4813 206.346 21.5455 206.149 21.5455H197.247V21.7656C197.283 22.7928 197.551 23.6458 198.051 24.3245C198.57 24.9848 199.276 25.315 200.17 25.315C201.189 25.315 202.02 24.8931 202.663 24.0493C202.824 23.8476 202.949 23.7283 203.039 23.6916C203.128 23.6366 203.28 23.6091 203.495 23.6091H205.854C206.015 23.6091 206.149 23.655 206.257 23.7467C206.382 23.8384 206.444 23.9668 206.444 24.1319C206.444 24.5721 206.185 25.0949 205.667 25.7002C205.166 26.2871 204.442 26.8007 203.495 27.241C202.547 27.6812 201.448 27.9013 200.197 27.9013ZM203.119 19.2068V19.1518C203.119 18.0696 202.851 17.2075 202.315 16.5655C201.796 15.9051 201.081 15.5749 200.17 15.5749C199.258 15.5749 198.543 15.9051 198.025 16.5655C197.506 17.2075 197.247 18.0696 197.247 19.1518V19.2068H203.119Z" fill="#283049"/>
    <path d="M160.123 9.17146V26.9658C160.123 27.1492 160.185 27.3052 160.31 27.4336C160.435 27.562 160.587 27.6262 160.766 27.6262H163.019C163.215 27.6262 163.367 27.562 163.474 27.4336C163.6 27.3052 163.662 27.1492 163.662 26.9658V8.6905C163.662 8.21283 163.19 7.88809 162.759 8.06996L160.152 9.17146H160.123Z" fill="#283049"/>
    <path fill-rule="evenodd" clip-rule="evenodd" d="M144.555 32.9488C144.124 33.1306 143.652 32.8059 143.652 32.3282V13.9791C143.652 13.7773 143.714 13.6214 143.84 13.5114C143.965 13.383 144.117 13.3188 144.295 13.3188H146.44C146.637 13.3188 146.798 13.383 146.923 13.5114C147.048 13.6398 147.111 13.7957 147.111 13.9791V15.0797C148.058 13.7223 149.479 13.0436 151.374 13.0436C153.18 13.0436 154.565 13.6306 155.53 14.8045C156.496 15.9601 157.014 17.5193 157.086 19.4819C157.104 19.7021 157.113 20.0322 157.113 20.4725C157.113 20.9127 157.104 21.2429 157.086 21.463C157.032 23.389 156.514 24.9481 155.53 26.1404C154.565 27.3143 153.18 27.9013 151.374 27.9013C149.587 27.9013 148.219 27.2501 147.272 25.9478V30.902C147.272 31.4459 146.952 31.936 146.462 32.1431L144.555 32.9488ZM150.355 24.9298C152.268 24.9298 153.287 23.7191 153.412 21.2979C153.43 21.1145 153.439 20.8393 153.439 20.4725C153.439 20.1056 153.43 19.8305 153.412 19.647C153.287 17.2258 152.268 16.0152 150.355 16.0152C149.336 16.0152 148.577 16.3545 148.076 17.0332C147.576 17.7119 147.307 18.5373 147.272 19.5095C147.254 19.7296 147.245 20.0781 147.245 20.555C147.245 21.0319 147.254 21.3896 147.272 21.6281C147.307 22.5452 147.585 23.3248 148.103 23.9668C148.621 24.6088 149.372 24.9298 150.355 24.9298Z" fill="#283049"/>
    <path d="M186.787 25.5107C186.787 26.0546 186.467 26.5447 185.977 26.7518L184.016 27.5801C183.586 27.762 183.113 27.4373 183.113 26.9596V14.0066C183.113 13.8049 183.176 13.6398 183.301 13.5114C183.426 13.383 183.578 13.3188 183.757 13.3188H185.955C186.152 13.3188 186.313 13.383 186.438 13.5114C186.563 13.6398 186.626 13.8049 186.626 14.0066V15.1347C187.519 13.9241 188.807 13.3188 190.487 13.3188H191.613C191.81 13.3188 191.962 13.383 192.069 13.5114C192.194 13.6214 192.257 13.7774 192.257 13.9791V15.9877C192.257 16.1711 192.194 16.327 192.069 16.4554C191.962 16.5838 191.81 16.648 191.613 16.648H189.495C188.655 16.648 187.993 16.8956 187.511 17.3909C187.028 17.8861 186.787 18.5648 186.787 19.4269V25.5107Z" fill="#283049"/>
    <path d="M212.72 26.7518C213.21 26.5447 213.53 26.0546 213.53 25.5107V19.4269C213.53 18.5648 213.771 17.8861 214.254 17.3909C214.737 16.8956 215.398 16.648 216.238 16.648H218.356C218.553 16.648 218.705 16.5838 218.812 16.4554C218.937 16.327 219 16.1711 219 15.9877V13.9791C219 13.7774 218.937 13.6214 218.812 13.5114C218.705 13.383 218.553 13.3188 218.356 13.3188H217.23C215.55 13.3188 214.263 13.9241 213.369 15.1347V14.0066C213.369 13.8049 213.306 13.6398 213.181 13.5114C213.056 13.383 212.895 13.3188 212.699 13.3188H210.5C210.321 13.3188 210.169 13.383 210.044 13.5114C209.919 13.6398 209.856 13.8049 209.856 14.0066V26.9596C209.856 27.4373 210.329 27.762 210.759 27.5801L212.72 26.7518Z" fill="#283049"/>
    <path d="M24 22L28 8.00001L14 12L24 22Z" fill="white"/>
    <path d="M14 18L6.99999 29L18 22L14 18Z" fill="white"/>
    <defs>
        <linearGradient id="paint0_linear" x1="33.6364" y1="33.654" x2="4.84156" y2="4.87419" gradientUnits="userSpaceOnUse">
            <stop offset="0.159375" stop-color="#003CDA"/>
            <stop offset="1" stop-color="#33DFCC"/>
        </linearGradient>
    </defs>
</svg>
