<svg width="35" height="35" viewBox="0 0 35 35" fill="none" xmlns="http://www.w3.org/2000/svg">
<path d="M27.8348 10.5608C22.127 4.99991 12.8729 4.99991 7.16519 10.5608L6.47825 11.2301C6.19287 11.5081 6.19287 11.9589 6.47825 12.237L8.82813 14.5264C8.97082 14.6654 9.20217 14.6654 9.34487 14.5264L10.2902 13.6054C14.272 9.72597 20.7279 9.72597 24.7098 13.6054L25.7221 14.5917C25.8648 14.7307 26.0962 14.7307 26.2389 14.5917L28.5887 12.3023C28.8741 12.0242 28.8741 11.5734 28.5887 11.2954L27.8348 10.5608ZM2.30543 15.2956L0.214039 17.3332C-0.0713463 17.6112 -0.0713501 18.062 0.214035 18.34L9.64426 27.5278C9.92965 27.8058 10.3924 27.8059 10.6777 27.5278C10.6777 27.5278 10.6777 27.5278 10.6777 27.5278L17.3708 21.007C17.4421 20.9375 17.5578 20.9375 17.6291 21.007C17.6291 21.007 17.6291 21.007 17.6291 21.007L24.322 27.5278C24.6074 27.8058 25.0701 27.8059 25.3555 27.5278C25.3555 27.5278 25.3555 27.5278 25.3555 27.5278L34.786 18.3399C35.0713 18.0619 35.0713 17.6111 34.786 17.333L32.6946 15.2955C32.4092 15.0174 31.9465 15.0174 31.6611 15.2955L24.968 21.8164C24.8966 21.8859 24.781 21.8859 24.7096 21.8164C24.7096 21.8164 24.7096 21.8164 24.7096 21.8164L18.0168 15.2955C17.7315 15.0174 17.2688 15.0174 16.9834 15.2954C16.9834 15.2954 16.9834 15.2954 16.9834 15.2954L10.2903 21.8164C10.2189 21.8859 10.1032 21.8859 10.0319 21.8164L3.33891 15.2956C3.05352 15.0175 2.59082 15.0175 2.30543 15.2956Z" fill="#3B99FC"/>
</svg>
