<svg width="35" height="35" viewBox="0 0 35 35" fill="none"
  xmlns="http://www.w3.org/2000/svg">
  <path fill-rule="evenodd" clip-rule="evenodd" d="M3.62309 10.1791C3 11.821 3 13.8807 3 18C3 22.1194 3 24.179 3.62309 25.8208C4.59515 28.3823 6.61766 30.4049 9.17911 31.3769C10.821 32 12.8807 32 17 32C21.1194 32 23.179 32 24.8208 31.3769C27.3823 30.4049 29.4049 28.3823 30.3769 25.8208C31 24.179 31 22.1194 31 18C31 13.8807 31 11.821 30.3769 10.1791C29.4049 7.61766 27.3823 5.59515 24.8208 4.62309C23.179 4 21.1194 4 17 4C12.8807 4 10.821 4 9.17911 4.62309C6.61766 5.59515 4.59515 7.61766 3.62309 10.1791ZM16.3924 26.8002C16.5949 26.9001 16.7975 27 17 27C17.2025 27 17.4051 27 17.5064 26.9001C18.4177 26.3009 19.1265 25.9015 19.8354 25.502C23.6835 23.4049 24.7974 22.3065 25 12.0208C25 11.7212 24.8987 11.5214 24.6962 11.3217C24.4937 11.122 24.2911 11.0221 23.9873 11.0221H23.7848C22.7721 11.0221 20.038 11.0221 17.6076 9.22464C17.3037 8.92505 16.7975 8.92505 16.3924 9.22464C13.962 11.0221 11.2278 11.0221 10.2152 11.0221H10.0127C9.81013 11.0221 9.50633 11.122 9.3038 11.2219C9.10127 11.4216 9 11.6213 9 11.9209C9.10127 22.2066 10.2152 23.3051 14.0633 25.4022C14.2171 25.4889 14.3757 25.5756 14.538 25.6643C15.1238 25.9844 15.758 26.3311 16.3924 26.8002ZM15.0475 23.7879C12.1333 22.1035 11.2272 21.5796 11.0253 13.0194C12.443 12.9195 14.9747 12.6199 17 11.2219C19.2279 12.7198 21.3544 12.9195 22.7721 13.0194C22.5696 21.6074 21.7594 22.1067 18.7216 23.8044C18.5331 23.916 18.3304 24.0413 18.114 24.1753C17.7487 24.4014 17.3437 24.6521 16.8988 24.9029C16.4345 24.5977 15.9112 24.2925 15.4644 24.0319C15.3263 23.9513 15.1955 23.8751 15.076 23.8044L15.0475 23.7879Z" fill="#3378B9"/>
</svg>