<svg width="76" height="32" viewBox="0 0 76 32" fill="none"
    xmlns="http://www.w3.org/2000/svg">
    <path d="M53.7638 30.9676C53.5673 30.7724 53.4888 30.5771 53.4888 30.3038C53.4888 30.0304 53.5673 29.7961 53.7638 29.5618L61.1496 19.7601L54.3138 10.5441C54.1566 10.3098 54.0388 10.0755 54.0388 9.80214C54.0388 9.52879 54.1174 9.33354 54.3138 9.13828C54.5102 8.94303 54.7066 8.86493 54.9816 8.86493H58.7924C59.1067 8.86493 59.3424 8.94303 59.4996 9.06018C59.6567 9.17733 59.8139 9.37259 60.0103 9.60689L64.8425 16.0112L69.6354 9.60689C69.6747 9.56784 69.7533 9.45069 69.9497 9.21638C70.1462 8.98208 70.4212 8.86493 70.8533 8.86493H74.5462C74.8212 8.86493 75.0177 8.94303 75.2141 9.13828C75.3712 9.33354 75.4891 9.52879 75.4891 9.76309C75.4891 10.0364 75.4105 10.3098 75.2141 10.5441L68.2997 19.7991L75.7248 29.5618C75.882 29.7961 75.9998 30.0304 75.9998 30.3038C75.9998 30.5771 75.9212 30.7724 75.7248 30.9676C75.5284 31.1629 75.3319 31.241 75.0569 31.241H71.089C70.6176 31.241 70.2247 31.0067 69.9104 30.5381L64.7247 23.7432L59.4996 30.5381C59.1853 31.0067 58.7924 31.241 58.321 31.241H54.4709C54.1566 31.241 53.9209 31.1629 53.7638 30.9676Z" fill="#283049"/>
    <path d="M22.2407 18.5098C22.1613 15.4323 21.2083 13.0141 19.6199 11.1203C18.0314 9.22642 15.768 8.27949 12.8294 8.27949C10.01 8.27949 7.78622 9.22641 6.15811 11.1597V1.49319C6.15811 0.861906 5.52275 0.467353 4.9668 0.704085L0.281006 2.63739V30.2955C0.281006 30.5717 0.400137 30.8479 0.598688 31.0452C0.797239 31.2424 1.0355 31.3608 1.35318 31.3608H4.84767C5.16535 31.3608 5.44332 31.2424 5.64187 31.0452C5.84043 30.8479 5.95956 30.6112 5.95956 30.2955V28.6778C7.54796 30.7295 9.89086 31.7554 12.9088 31.7554C15.8474 31.7554 18.1109 30.8084 19.6993 28.954C21.2877 27.0996 22.1216 24.5745 22.2407 21.4575C22.3396 20.4749 22.2407 19.4836 22.2407 18.5098ZM16.1254 21.2997C15.9268 25.1269 14.259 27.0207 11.1616 27.0207C9.49376 27.0207 8.26274 26.4684 7.42883 25.4031C6.59492 24.3378 6.15811 23.0357 6.1184 21.497C6.07869 21.1419 6.07869 20.5895 6.07869 19.8399C6.07869 19.0508 6.07869 18.4984 6.1184 18.1433C6.15811 16.6835 6.63463 15.4603 7.46854 14.4345C8.30246 13.4087 9.53347 12.8958 11.1219 12.8958C14.259 12.8958 15.8871 14.7896 16.0856 18.6168C16.1254 18.8929 16.1254 19.327 16.1254 19.9188C16.1651 20.5895 16.1651 21.0235 16.1254 21.2997Z" fill="#283049"/>
    <path d="M49.3773 26.2602H33.8299L38.0277 20.6284C38.5719 19.9195 38.0666 18.8956 37.1726 18.8956H31.731L26.5226 25.7089C26.3671 25.9452 26.2116 26.1814 26.0562 26.4177C25.9396 26.654 25.8618 26.9691 25.8618 27.3236V30.3954C25.8618 30.7105 25.9396 30.9862 26.1339 31.1831C26.3282 31.38 26.5615 31.4982 26.8724 31.4982H46.812C47.3562 31.4982 47.8615 31.2225 48.1724 30.7893L50.1936 28.0325C50.7377 27.2448 50.2324 26.2602 49.3773 26.2602Z" fill="#283049"/>
    <path d="M26.1471 5.7657H41.8565L37.6149 11.2826C37.0651 11.977 37.5757 12.9801 38.4789 12.9801H43.9772L49.2399 6.30581C49.397 6.07434 49.5541 5.84286 49.7112 5.61139C49.829 5.37991 49.9075 5.07127 49.9075 4.72406V1.71487C49.9075 1.40623 49.829 1.13618 49.6326 0.943279C49.4363 0.750382 49.2006 0.634644 48.8864 0.634644H28.7391C28.1893 0.634644 27.6787 0.9047 27.3646 1.32907L25.3223 4.02963C24.7725 4.76264 25.2831 5.7657 26.1471 5.7657Z" fill="#283049"/>
</svg>