<svg width="239" height="40" viewBox="0 0 239 40" fill="none" 
    xmlns="http://www.w3.org/2000/svg">
    <path d="M0 7.99858C0 3.58109 3.50344 0 7.82516 0H31.3006C35.6223 0 39.1258 3.58109 39.1258 7.99858V31.9943C39.1258 36.4118 35.6223 39.9929 31.3006 39.9929H7.82515C3.50344 39.9929 0 36.4118 0 31.9943V7.99858Z" fill="url(#logo-explorer)"/>
    <path d="M16.3137 0H11.9634V8.88889H16.3137V0Z" fill="white"/>
    <path d="M21.9406 27.7777H16.8296C13.9288 27.7777 11.5805 25.4375 11.5805 22.5467V18.8298H15.4482V22.5191C15.4482 23.29 16.056 23.8957 16.8296 23.8957H21.9406C22.7141 23.8957 23.3219 23.29 23.3219 22.5191V17.4532C23.3219 16.6823 22.7141 16.0766 21.9406 16.0766H0V12.2222H21.9406C24.8414 12.2222 27.1897 14.5624 27.1897 17.4532V22.5467C27.1897 25.4375 24.8414 27.7777 21.9406 27.7777Z" fill="white"/>
    <path d="M91.4081 30.0201C91.2742 29.8848 91.2207 29.7496 91.2207 29.5603C91.2207 29.3709 91.2742 29.2086 91.4081 29.0464L96.4398 22.2576L91.7828 15.8744C91.6757 15.7122 91.5954 15.5499 91.5954 15.3606C91.5954 15.1712 91.6489 15.036 91.7828 14.9008C91.9166 14.7655 92.0504 14.7114 92.2378 14.7114H94.8339C95.0481 14.7114 95.2087 14.7655 95.3157 14.8467C95.4228 14.9278 95.5298 15.063 95.6637 15.2253L98.9557 19.661L102.221 15.2253C102.248 15.1983 102.301 15.1171 102.435 14.9548C102.569 14.7926 102.756 14.7114 103.051 14.7114H105.567C105.754 14.7114 105.888 14.7655 106.022 14.9008C106.129 15.036 106.209 15.1712 106.209 15.3335C106.209 15.5228 106.155 15.7122 106.022 15.8744L101.311 22.2846L106.37 29.0464C106.477 29.2086 106.557 29.3709 106.557 29.5603C106.557 29.7496 106.503 29.8848 106.37 30.0201C106.236 30.1553 106.102 30.2094 105.915 30.2094H103.211C102.89 30.2094 102.622 30.0471 102.408 29.7225L98.8754 25.0163L95.3157 29.7225C95.1016 30.0471 94.8339 30.2094 94.5128 30.2094H91.8898C91.6757 30.2094 91.5151 30.1553 91.4081 30.0201Z" fill="#283049"/>
    <path d="M69.9323 21.3918C69.8782 19.2603 69.2289 17.5854 68.1467 16.2737C67.0646 14.962 65.5226 14.3062 63.5206 14.3062C61.5998 14.3062 60.0848 14.962 58.9756 16.301V9.60587C58.9756 9.16864 58.5427 8.89536 58.164 9.05933L54.9717 10.3984V29.5548C54.9717 29.746 55.0528 29.9373 55.1881 30.074C55.3234 30.2106 55.4857 30.2926 55.7021 30.2926H58.0828C58.2993 30.2926 58.4886 30.2106 58.6239 30.074C58.7592 29.9373 58.8403 29.7734 58.8403 29.5548V28.4343C59.9225 29.8554 61.5186 30.5659 63.5747 30.5659C65.5767 30.5659 67.1187 29.91 68.2009 28.6256C69.283 27.3413 69.8511 25.5923 69.9323 23.4335C69.9997 22.7529 69.9323 22.0663 69.9323 21.3918ZM65.766 23.3241C65.6308 25.9749 64.4945 27.2866 62.3843 27.2866C61.2481 27.2866 60.4094 26.904 59.8413 26.1662C59.2732 25.4283 58.9756 24.5265 58.9485 23.4608C58.9215 23.2148 58.9215 22.8323 58.9215 22.313C58.9215 21.7665 58.9215 21.3839 58.9485 21.138C58.9756 20.1269 59.3002 19.2797 59.8684 18.5692C60.4365 17.8587 61.2751 17.5034 62.3573 17.5034C64.4945 17.5034 65.6037 18.8152 65.739 21.4659C65.766 21.6572 65.766 21.9578 65.766 22.3677C65.7931 22.8323 65.7931 23.1329 65.766 23.3241Z" fill="#283049"/>
    <path d="M88.4195 26.76H77.8274L80.6872 22.8594C81.058 22.3684 80.7137 21.6592 80.1047 21.6592H76.3974L72.8491 26.3782C72.7432 26.5418 72.6372 26.7055 72.5313 26.8691C72.4519 27.0328 72.3989 27.251 72.3989 27.4965V29.6242C72.3989 29.8424 72.4519 30.0333 72.5843 30.1697C72.7167 30.3061 72.8756 30.3879 73.0874 30.3879H86.6718C87.0425 30.3879 87.3867 30.197 87.5986 29.8969L88.9755 27.9875C89.3463 27.442 89.002 26.76 88.4195 26.76Z" fill="#283049"/>
    <path d="M72.5937 12.5651H83.2962L80.4065 16.3861C80.0319 16.8671 80.3797 17.5618 80.9951 17.5618H84.741L88.3263 12.9392C88.4333 12.7788 88.5403 12.6185 88.6474 12.4582C88.7276 12.2979 88.7811 12.0841 88.7811 11.8436V9.75941C88.7811 9.54564 88.7276 9.3586 88.5939 9.225C88.4601 9.09139 88.2995 9.01123 88.0855 9.01123H74.3596C73.985 9.01123 73.6372 9.19828 73.4232 9.4922L72.0319 11.3626C71.6573 11.8703 72.0051 12.5651 72.5937 12.5651Z" fill="#283049"/>
    <path d="M108.934 33.0802C109.05 33.2024 109.187 33.2636 109.342 33.2636H111.238C111.49 33.2636 111.685 33.1922 111.821 33.0496C111.976 32.9273 112.083 32.7846 112.142 32.6216L122.115 7.64479C122.154 7.54288 122.174 7.43079 122.174 7.3085C122.174 7.12507 122.115 6.97222 121.999 6.84993C121.882 6.72765 121.736 6.6665 121.561 6.6665H119.666C119.432 6.6665 119.238 6.73784 119.082 6.8805C118.927 7.00279 118.81 7.14545 118.732 7.3085L108.817 32.2853C108.778 32.3872 108.759 32.4993 108.759 32.6216C108.759 32.805 108.817 32.9579 108.934 33.0802Z" fill="#283049"/>
    <path fill-rule="evenodd" clip-rule="evenodd" d="M124.625 29.0447C125.908 30.3491 127.638 31.0013 129.816 31.0013C131.177 31.0013 132.373 30.7567 133.403 30.2676C134.433 29.7784 135.221 29.2078 135.765 28.5556C136.329 27.883 136.611 27.3022 136.611 26.813C136.611 26.6296 136.543 26.4869 136.407 26.385C136.29 26.2831 136.144 26.2322 135.969 26.2322H133.403C133.17 26.2322 133.004 26.2627 132.907 26.3239C132.81 26.3646 132.674 26.4971 132.499 26.7213C131.799 27.6588 130.895 28.1276 129.787 28.1276C128.815 28.1276 128.047 27.7607 127.483 27.027C126.939 26.2729 126.647 25.3252 126.608 24.1839V23.9393H136.29C136.504 23.9393 136.679 23.868 136.815 23.7253C136.951 23.5826 137.019 23.4094 137.019 23.2056V22.5636C137.019 20.1179 136.387 18.1613 135.124 16.6939C133.879 15.2265 132.1 14.4928 129.787 14.4928C127.531 14.4928 125.762 15.2265 124.479 16.6939C123.215 18.1613 122.584 20.1688 122.584 22.7165L122.613 23.4807C122.69 25.8857 123.361 27.7404 124.625 29.0447ZM132.995 21.2796V21.3408H126.608V21.2796C126.608 20.0771 126.89 19.1192 127.454 18.4059C128.018 17.6722 128.795 17.3053 129.787 17.3053C130.778 17.3053 131.556 17.6722 132.12 18.4059C132.703 19.1192 132.995 20.0771 132.995 21.2796Z" fill="#283049"/>
    <path d="M139.074 30.6956C138.899 30.6956 138.743 30.6344 138.607 30.5122C138.49 30.3695 138.432 30.2064 138.432 30.023C138.432 29.8396 138.49 29.6663 138.607 29.5033L143.594 22.533L138.986 15.9908C138.87 15.8277 138.811 15.6545 138.811 15.4711C138.811 15.2876 138.87 15.1348 138.986 15.0125C139.122 14.8698 139.278 14.7985 139.453 14.7985H142.019C142.233 14.7985 142.389 14.8494 142.486 14.9513C142.602 15.0329 142.719 15.1551 142.836 15.3182L146.102 19.8733L149.339 15.3182C149.358 15.2978 149.426 15.2061 149.543 15.0431C149.679 14.88 149.883 14.7985 150.156 14.7985H152.634C152.809 14.7985 152.955 14.8698 153.072 15.0125C153.188 15.1348 153.247 15.2774 153.247 15.4405C153.247 15.6443 153.188 15.8277 153.072 15.9908L148.406 22.5636L153.422 29.5033C153.538 29.6663 153.597 29.8396 153.597 30.023C153.597 30.2064 153.529 30.3695 153.393 30.5122C153.276 30.6344 153.13 30.6956 152.955 30.6956H150.272C149.961 30.6956 149.699 30.5325 149.485 30.2064L145.985 25.3762L142.457 30.2064C142.243 30.5325 141.98 30.6956 141.669 30.6956H139.074Z" fill="#283049"/>
    <path fill-rule="evenodd" clip-rule="evenodd" d="M183.294 29.167C184.538 30.3899 186.307 31.0013 188.601 31.0013C190.876 31.0013 192.635 30.3899 193.88 29.167C195.124 27.9442 195.795 26.2525 195.892 24.0922C195.911 23.8476 195.921 23.3992 195.921 22.747C195.921 22.0948 195.911 21.6465 195.892 21.4019C195.795 19.2619 195.114 17.5805 193.85 16.3576C192.587 15.1144 190.837 14.4928 188.601 14.4928C186.346 14.4928 184.586 15.1144 183.323 16.3576C182.059 17.5805 181.379 19.2619 181.281 21.4019L181.252 22.747L181.281 24.0922C181.379 26.2525 182.049 27.9442 183.294 29.167ZM190.963 26.9047C190.419 27.5773 189.632 27.9136 188.601 27.9136C187.571 27.9136 186.774 27.5773 186.21 26.9047C185.646 26.2322 185.345 25.2437 185.306 23.9393L185.277 22.747L185.306 21.5547C185.345 20.2504 185.646 19.2619 186.21 18.5893C186.774 17.8964 187.571 17.5499 188.601 17.5499C189.612 17.5499 190.4 17.8964 190.963 18.5893C191.527 19.2619 191.829 20.2504 191.867 21.5547C191.887 21.7586 191.897 22.156 191.897 22.747C191.897 23.3381 191.887 23.7355 191.867 23.9393C191.829 25.2437 191.527 26.2322 190.963 26.9047Z" fill="#283049"/>
    <path fill-rule="evenodd" clip-rule="evenodd" d="M217.731 31.0013C215.554 31.0013 213.824 30.3491 212.54 29.0447C211.277 27.7404 210.606 25.8857 210.528 23.4807L210.499 22.7165C210.499 20.1688 211.131 18.1613 212.395 16.6939C213.678 15.2265 215.447 14.4928 217.702 14.4928C220.016 14.4928 221.795 15.2265 223.039 16.6939C224.303 18.1613 224.935 20.1179 224.935 22.5636V23.2056C224.935 23.4094 224.867 23.5826 224.73 23.7253C224.594 23.868 224.419 23.9393 224.206 23.9393H214.523V24.1839C214.562 25.3252 214.854 26.2729 215.398 27.027C215.962 27.7607 216.73 28.1276 217.702 28.1276C218.81 28.1276 219.714 27.6588 220.414 26.7213C220.589 26.4971 220.725 26.3646 220.823 26.3239C220.92 26.2627 221.085 26.2322 221.318 26.2322H223.885C224.06 26.2322 224.206 26.2831 224.322 26.385C224.458 26.4869 224.526 26.6296 224.526 26.813C224.526 27.3022 224.244 27.883 223.681 28.5556C223.136 29.2078 222.349 29.7784 221.318 30.2676C220.288 30.7567 219.092 31.0013 217.731 31.0013ZM220.91 21.3408V21.2796C220.91 20.0771 220.619 19.1192 220.035 18.4059C219.471 17.6722 218.694 17.3053 217.702 17.3053C216.711 17.3053 215.933 17.6722 215.369 18.4059C214.805 19.1192 214.523 20.0771 214.523 21.2796V21.3408H220.91Z" fill="#283049"/>
    <path d="M174.147 10.1903V29.9619C174.147 30.1657 174.215 30.3389 174.352 30.4816C174.488 30.6242 174.653 30.6956 174.847 30.6956H177.297C177.511 30.6956 177.676 30.6242 177.793 30.4816C177.929 30.3389 177.997 30.1657 177.997 29.9619V9.65594C177.997 9.12521 177.483 8.76439 177.015 8.96646L174.179 10.1903H174.147Z" fill="#283049"/>
    <path fill-rule="evenodd" clip-rule="evenodd" d="M157.216 36.6096C156.748 36.8117 156.234 36.4508 156.234 35.9201V15.5322C156.234 15.308 156.302 15.1347 156.438 15.0125C156.574 14.8698 156.739 14.7985 156.934 14.7985H159.267C159.481 14.7985 159.656 14.8698 159.792 15.0125C159.928 15.1551 159.996 15.3284 159.996 15.5322V16.755C161.026 15.2468 162.572 14.4927 164.633 14.4927C166.596 14.4927 168.103 15.1449 169.153 16.4493C170.203 17.7333 170.767 19.4657 170.845 21.6464C170.864 21.891 170.874 22.2579 170.874 22.747C170.874 23.2362 170.864 23.603 170.845 23.8476C170.786 25.9876 170.222 27.72 169.153 29.0447C168.103 30.3491 166.596 31.0013 164.633 31.0013C162.689 31.0013 161.201 30.2778 160.171 28.8307V34.3354C160.171 34.9397 159.823 35.4843 159.29 35.7144L157.216 36.6096ZM163.525 27.6996C165.605 27.6996 166.713 26.3544 166.849 23.6642C166.869 23.4603 166.878 23.1546 166.878 22.747C166.878 22.3394 166.869 22.0337 166.849 21.8299C166.713 19.1396 165.605 17.7945 163.525 17.7945C162.416 17.7945 161.59 18.1715 161.046 18.9256C160.501 19.6797 160.21 20.5968 160.171 21.677C160.152 21.9216 160.142 22.3088 160.142 22.8387C160.142 23.3686 160.152 23.7661 160.171 24.031C160.21 25.0501 160.511 25.9162 161.075 26.6296C161.639 27.3429 162.455 27.6996 163.525 27.6996Z" fill="#283049"/>
    <path d="M203.147 28.3451C203.147 28.9494 202.799 29.4939 202.266 29.724L200.134 30.6444C199.665 30.8465 199.152 30.4857 199.152 29.955V15.5628C199.152 15.3386 199.22 15.1552 199.356 15.0125C199.492 14.8698 199.657 14.7985 199.851 14.7985H202.243C202.457 14.7985 202.632 14.8698 202.768 15.0125C202.904 15.1552 202.972 15.3386 202.972 15.5628V16.8162C203.944 15.4711 205.344 14.7985 207.171 14.7985H208.396C208.61 14.7985 208.775 14.8698 208.892 15.0125C209.028 15.1348 209.096 15.308 209.096 15.5322V17.7639C209.096 17.9677 209.028 18.141 208.892 18.2836C208.775 18.4263 208.61 18.4976 208.396 18.4976H206.092C205.179 18.4976 204.459 18.7728 203.934 19.323C203.409 19.8733 203.147 20.6274 203.147 21.5853V28.3451Z" fill="#283049"/>
    <path d="M231.352 29.724C231.885 29.4939 232.233 28.9494 232.233 28.3451V21.5853C232.233 20.6274 232.495 19.8733 233.02 19.323C233.545 18.7728 234.264 18.4976 235.178 18.4976H237.482C237.696 18.4976 237.861 18.4263 237.978 18.2836C238.114 18.141 238.182 17.9677 238.182 17.7639V15.5322C238.182 15.308 238.114 15.1348 237.978 15.0125C237.861 14.8698 237.696 14.7985 237.482 14.7985H236.257C234.43 14.7985 233.03 15.4711 232.058 16.8162V15.5628C232.058 15.3386 231.99 15.1552 231.853 15.0125C231.717 14.8698 231.542 14.7985 231.329 14.7985H228.937C228.743 14.7985 228.578 14.8698 228.441 15.0125C228.305 15.1552 228.237 15.3386 228.237 15.5628V29.955C228.237 30.4857 228.751 30.8465 229.219 30.6444L231.352 29.724Z" fill="#283049"/>
    <defs>
        <linearGradient id="logo-explorer" x1="36.5826" y1="37.3934" x2="4.59596" y2="6.10027" gradientUnits="userSpaceOnUse">
            <stop offset="0.159375" stop-color="#003CDA"/>
            <stop offset="1" stop-color="#33DFCC"/>
        </linearGradient>
    </defs>
</svg>
