<svg width="40" height="40" viewBox="0 0 40 40" fill="none" 
    xmlns="http://www.w3.org/2000/svg">
    <path d="M39.9684 20.0381C39.9858 9.01366 31.0598 0.0593538 20.0316 0.0381293C9.00335 0.0169048 0.0490447 8.9368 0.0315951 19.9613C0.0141456 30.9858 8.94016 39.9401 19.9684 39.9613C30.9966 39.9825 39.9509 31.0626 39.9684 20.0381Z" fill="#3574B9"/>
    <path d="M16.7654 32.4681C16.7654 32.9186 16.472 33.0763 16.0318 33.0763C13.366 32.1938 11.0392 30.4472 9.38938 28.0902C7.73956 25.7332 6.85264 22.8885 6.85744 19.9694C6.86226 17.0504 7.75855 14.2089 9.41613 11.8579C11.0737 9.50679 13.4063 7.76855 16.0749 6.89565C16.5065 6.747 16.8086 7.0488 16.8043 7.50827V8.59387C16.8075 8.75015 16.7688 8.90427 16.6926 9.0388C16.6163 9.17333 16.5055 9.28291 16.3727 9.35515C14.2736 10.1438 12.4581 11.5882 11.1733 13.492C9.88853 15.3957 9.19671 17.6663 9.19199 19.9949C9.18727 22.3236 9.86988 24.5972 11.147 26.5066C12.4241 28.416 14.2336 29.8684 16.3295 30.6663C16.4627 30.7381 16.5737 30.8476 16.6501 30.9822C16.7264 31.1169 16.7649 31.2712 16.7611 31.4276L16.7654 32.4681Z" fill="white"/>
    <path d="M21.1501 28.6843C21.1451 28.8461 21.0827 29.0002 20.9751 29.1167C20.8674 29.2332 20.7222 29.3038 20.5674 29.3149H19.3979C19.246 29.3042 19.1031 29.2361 18.9958 29.1234C18.8886 29.0106 18.8244 28.8609 18.8153 28.7023V26.9005C16.4762 26.5897 15.311 25.2203 14.8751 23.2382C14.8751 22.9364 15.0262 22.6301 15.3067 22.6301H16.623C16.9121 22.6301 17.0545 22.7833 17.2056 23.0806C17.4947 24.1482 18.0687 25.0626 19.9762 25.0671C21.4349 25.0671 22.4577 24.3103 22.462 23.0941C22.4663 21.8779 21.8794 21.4184 19.8381 21.1076C16.7697 20.6571 15.311 19.7292 15.3153 17.1436C15.3153 15.166 16.7826 13.6435 18.8283 13.3462V11.4813C18.8375 11.3232 18.9018 11.174 19.0091 11.062C19.1165 10.9499 19.2594 10.8828 19.4109 10.8732H20.5804C20.7319 10.8828 20.8748 10.9499 20.9821 11.062C21.0895 11.174 21.1538 11.3232 21.163 11.4813V13.3102C22.9151 13.6165 24.0804 14.6841 24.3695 16.3598C24.3695 16.6616 24.2228 16.9679 23.9379 16.9679H22.777C22.4836 16.9679 22.3455 16.8147 22.1944 16.5174C21.9053 15.4498 21.1759 14.9904 19.8597 14.9904C18.401 14.9904 17.6673 15.7471 17.6673 16.7922C17.6673 17.8373 18.0989 18.4679 20.2912 18.7787C23.3553 19.2292 24.814 20.1571 24.8097 22.7427C24.8097 24.7203 23.3467 26.3915 21.1544 26.8464L21.1501 28.6843Z" fill="white"/>
    <path d="M23.187 32.4951C23.187 32.9501 23.4848 33.2564 23.9163 33.1033C26.5847 32.2291 28.9172 30.491 30.5761 28.1408C32.2349 25.7905 33.134 22.9502 33.1431 20.031C33.1517 13.9453 29.2202 8.76054 23.9681 6.92267C23.5279 6.92267 23.2345 7.08033 23.2345 7.53079V8.59837C23.2312 8.75465 23.2699 8.90877 23.3461 9.0433C23.4224 9.17783 23.5332 9.28741 23.666 9.35964C25.7618 10.158 27.571 11.6108 28.8477 13.5205C30.1244 15.4302 30.8066 17.7039 30.8014 20.0326C30.7962 22.3612 30.1039 24.6317 28.8187 26.5351C27.5336 28.4386 25.7178 29.8826 23.6185 30.6708C23.4857 30.7419 23.3748 30.8506 23.2985 30.9844C23.2222 31.1182 23.1835 31.2718 23.187 31.4276V32.4951Z" fill="white"/>
</svg>
