<svg width="40" height="40" viewBox="0 0 40 40" fill="none" 
    xmlns="http://www.w3.org/2000/svg">
    <path d="M34.0797 34.2512C32.2166 36.115 29.9981 37.5838 27.5566 38.5709C25.115 39.5578 22.5002 40.0425 19.8678 39.9962C17.2518 40.0478 14.6528 39.5644 12.2296 38.5759C9.80644 37.5872 7.60988 36.1141 5.77416 34.2466C3.89525 32.4137 2.41331 30.2132 1.4207 27.7816C0.4281 25.3501 -0.0538903 22.7398 0.00477978 20.1135C0.00477978 14.3669 1.93119 9.57872 5.784 5.74878C7.62088 3.88162 9.81847 2.40919 12.2425 1.42144C14.6665 0.433684 17.2662 -0.0486591 19.8826 0.00387302C22.5145 -0.0407878 25.1285 0.445222 27.5691 1.433C30.0097 2.42077 32.2272 3.89012 34.0894 5.75372C38.0275 9.58694 39.9966 14.3768 39.9966 20.1233C40.0462 22.7611 39.5459 25.3803 38.5269 27.8131C37.5081 30.2459 35.9931 32.4387 34.0797 34.2512Z" fill="#49BC98"/>
    <path d="M26.3844 12.7071L20.7991 8.4375L20.5172 8.46028C20.383 8.63403 20.2746 8.82753 20.1957 9.03441C19.7019 11.2383 19.2189 13.4479 18.7362 15.6564L18.7359 15.6578L18.7348 15.6628C18.6022 16.2695 18.4696 16.8761 18.3368 17.4824C18.2922 17.6917 18.2503 17.9038 18.2028 18.1444L18.1606 18.3573C18.225 18.3231 18.2801 18.2952 18.3293 18.2703C18.3979 18.2357 18.4547 18.2069 18.5086 18.175L24.5124 14.7484C25.1775 14.3748 25.8382 14.0012 26.4989 13.6184C26.5653 13.583 26.6219 13.5307 26.6634 13.4664C26.7049 13.4022 26.7299 13.328 26.736 13.251C26.7422 13.174 26.7293 13.0967 26.6986 13.0262C26.668 12.9558 26.6205 12.8946 26.5606 12.8483L26.3844 12.7071Z" fill="white"/>
    <path d="M12.6855 13.1901C12.3301 13.4397 12.0529 13.7913 11.8882 14.2017L11.875 25.9988C12.0321 26.2972 12.2245 26.5742 12.4476 26.8236C13.7063 27.8957 14.9796 28.9553 16.2513 30.0135L16.2521 30.0142C16.6934 30.3814 17.1346 30.7485 17.5748 31.1159C17.7422 31.2572 17.9228 31.3619 18.1342 31.2253C18.2234 31.1622 18.2896 31.07 18.3223 30.9635C18.355 30.857 18.3524 30.7422 18.3148 30.6375C17.6482 27.2625 16.989 23.8845 16.3371 20.5035C16.2864 20.2434 16.2864 19.9754 16.3371 19.7152C16.9978 16.3463 17.6658 12.9805 18.3413 9.61771C18.3897 9.37165 18.3853 9.14381 18.1563 9.00712C17.9272 8.8704 17.7466 9.00256 17.5748 9.14837C17.1163 9.52784 16.6581 9.90765 16.2 10.2874C15.0298 11.2575 13.8599 12.2273 12.6855 13.1901Z" fill="white"/>
    <path d="M20.4775 31.5625C20.3468 31.3972 20.2399 31.2129 20.1604 31.0157C19.6456 28.6677 19.1417 26.3141 18.638 23.9615C18.4995 23.3145 18.361 22.6676 18.2223 22.0209C18.2223 21.9543 18.2087 21.8877 18.1918 21.8052C18.1833 21.7634 18.1739 21.7175 18.165 21.6655C18.2066 21.6863 18.244 21.7046 18.2784 21.7213C18.357 21.7596 18.4196 21.7901 18.4778 21.825L26.38 26.3497C26.8689 26.6322 26.8865 26.9376 26.424 27.2611L20.7991 31.4988L20.7595 31.5397L20.4775 31.5625Z" fill="white"/>
    <path d="M19.5481 19.2003L18.4072 19.8702L18.7024 20.057L23.9177 23.0963L26.7676 24.7913C27.0407 24.9508 27.2917 24.9235 27.4107 24.7093C27.4761 24.5673 27.5064 24.4108 27.4988 24.2537V15.596C27.4988 14.9672 27.208 14.7941 26.6794 15.0994L19.5481 19.2003Z" fill="white"/>
</svg>
