<svg width="40" height="40" viewBox="0 0 40 40" fill="none" 
    xmlns="http://www.w3.org/2000/svg">
    <path d="M34.076 34.2713C32.2091 36.1327 29.9871 37.5988 27.5423 38.5824C25.0975 39.566 22.48 40.0469 19.8456 39.9964C17.2279 40.0439 14.628 39.5564 12.2049 38.5635C9.78178 37.5706 7.58649 36.0933 5.75324 34.222C1.90792 30.3855 -0.00981362 25.673 3.77608e-05 20.0843C3.77608e-05 14.3411 1.93419 9.55622 5.8025 5.72962C7.64314 3.86459 9.84438 2.39497 12.2717 1.4106C14.6989 0.426225 17.3013 -0.0522188 19.9195 0.00451511C22.5533 -0.0367174 25.1684 0.4533 27.609 1.44536C30.0496 2.43743 32.2657 3.91123 34.1252 5.77893C38.0658 9.61539 40.0229 14.4069 39.9966 20.1533C40.0463 22.7896 39.5453 25.4072 38.5257 27.8383C37.5061 30.2695 35.9905 32.4606 34.076 34.2713V34.2713Z" fill="#5F2652"/>
    <path fill-rule="evenodd" clip-rule="evenodd" d="M16.2101 20.4457L16.1725 20.6782L16.1602 20.7702C16.0024 22.0497 15.527 22.4236 14.3466 22.9687C14.3439 22.9698 14.3413 22.9693 14.3391 22.9704L10.059 24.9432L19.7229 30.7004V27.4049C19.7229 26.1962 19.6531 25.979 18.6251 25.3861C18.4233 25.2699 18.2189 25.1486 17.9952 25.0156L17.8557 24.9325C17.2156 24.5754 16.694 24.0483 16.3093 23.4223C16.2954 23.3999 16.1924 23.2376 16.1789 23.2146C16.259 23.1689 16.3331 23.1127 16.3995 23.0473C16.4696 22.982 16.5294 22.9054 16.5765 22.8205C16.9129 23.5043 17.4243 24.0825 18.0789 24.4592L18.2377 24.5536C18.4582 24.6844 18.683 24.8129 18.8848 24.9286C20.1457 25.6556 20.246 26.1019 20.246 27.4055V30.7043L29.9994 24.8421L25.8256 22.9373L25.5541 22.8154C25.4479 22.7615 25.1141 22.6189 24.8566 22.6111C24.5937 22.5942 24.1945 22.6116 23.9793 22.8974C23.7805 23.1604 23.5816 23.4233 23.3827 23.6862C22.9223 24.3093 22.3203 24.8185 21.6013 25.1239C21.5993 25.1254 21.5971 25.1267 21.5949 25.1279C21.4055 25.2087 21.2016 25.2553 20.9993 25.3047C20.9575 25.2211 20.892 25.1239 20.8319 25.0453C20.7885 24.9886 20.7235 24.9185 20.6629 24.8528C20.9687 24.7905 21.3202 24.6889 21.5938 24.5519L21.5949 24.5513C22.1411 24.2801 22.6133 23.9001 22.976 23.4117C22.9938 23.3906 23.0099 23.3681 23.0243 23.3443C23.0613 23.2938 23.0983 23.2444 23.1321 23.191C23.2287 23.0552 23.3757 22.8525 23.5812 22.5819C23.7191 22.3989 23.9123 22.2782 24.1178 22.2001L24.1172 22.2013C24.3388 22.1182 24.5948 22.0811 24.8743 22.0834C25.2982 22.098 25.7682 22.3337 25.7778 22.3382L25.9243 22.4045L25.9356 22.409L26.3155 22.5802C26.3182 22.5808 26.3182 22.5836 26.3203 22.5847L29.9678 24.2498L20.2546 8.07007V14.9192C20.2546 16.1027 20.3378 16.3615 21.3749 16.9594C21.4571 17.0057 21.5407 17.0494 21.6255 17.0902L21.7596 17.1593C21.7934 17.175 21.8256 17.1935 21.8583 17.2103L21.86 17.2109H21.8605C23.2212 17.893 24.1714 19.2763 24.254 20.8904C24.165 20.9156 24.0298 20.9555 23.9541 20.9796C23.8988 20.9965 23.8151 21.0403 23.7449 21.0796C23.7314 19.5879 22.8687 18.3012 21.6223 17.6802L21.6217 17.6797C21.618 17.678 21.6153 17.6786 21.6121 17.6769C21.5397 17.6382 21.4667 17.6008 21.3932 17.5646C21.1287 17.436 20.875 17.2846 20.6345 17.1121C20.5964 17.0863 20.5647 17.0588 20.5298 17.0329C20.4537 16.9751 20.3823 16.9162 20.32 16.8589C20.2836 16.8258 20.2503 16.7949 20.2272 16.7646C19.8119 16.325 19.7304 15.8298 19.7304 14.9192V8.06726L9.98715 24.3964L14.2876 22.4146H14.2898C15.2437 21.9744 15.5335 21.6062 15.6612 20.5473C15.6633 20.5333 15.6671 20.4968 15.6703 20.4833C15.916 18.7907 17.1276 17.4327 18.719 16.9577L18.9336 16.8931C18.9604 16.9796 18.996 17.0628 19.0398 17.1413C19.0882 17.2254 19.1452 17.3037 19.2099 17.3748L19.0098 17.4214C17.5788 17.7863 16.4719 18.9608 16.2101 20.4457ZM9.18125 24.7237L19.7658 6.98487C19.7897 6.94553 19.8228 6.91319 19.8619 6.8909C19.9011 6.86861 19.945 6.85709 19.9895 6.85743C20.0341 6.85709 20.078 6.86861 20.1171 6.8909C20.1563 6.91319 20.1894 6.94553 20.2133 6.98487L30.8209 24.6524C30.8383 24.6822 30.8498 24.7155 30.8547 24.7501C30.8596 24.7848 30.8578 24.8201 30.8494 24.854C30.841 24.8879 30.8262 24.9196 30.8058 24.9474C30.7854 24.9752 30.7599 24.9984 30.7307 25.0156L20.1231 31.3921C20.0826 31.4162 20.0367 31.4288 19.9901 31.4288C19.9434 31.4288 19.8976 31.4162 19.857 31.3921L9.27192 25.0874C9.24254 25.07 9.21675 25.0466 9.19603 25.0187C9.17531 24.9907 9.16008 24.9588 9.1512 24.9246C9.14262 24.8908 9.14086 24.8554 9.14604 24.8208C9.15121 24.7862 9.1632 24.7532 9.18125 24.7237Z" fill="white" stroke="white"/>
</svg>
