<svg width="40" height="40" viewBox="0 0 40 40" fill="none" 
    xmlns="http://www.w3.org/2000/svg">
    <path d="M40 20C40 8.9543 31.0457 0 20 0C8.9543 0 0 8.9543 0 20C0 31.0457 8.9543 40 20 40C31.0457 40 40 31.0457 40 20Z" fill="#1BBC9A"/>
    <path d="M9.72675 12.8256C9.80748 12.7852 9.89788 12.7679 9.98783 12.7759C10.0778 12.7838 10.1638 12.8166 10.2361 12.8706L18.7393 19.2575C18.7996 19.303 18.8486 19.3616 18.8826 19.429C18.9166 19.4964 18.9347 19.5708 18.9355 19.6463V26.95C18.9352 27.079 18.8838 27.2027 18.7926 27.2939C18.7013 27.3852 18.5777 27.4366 18.4486 27.4369C18.3196 27.4366 18.196 27.3852 18.1047 27.2939C18.0135 27.2027 17.9621 27.079 17.9618 26.95V19.8919L10.4318 14.2331V26.9506C10.4314 27.0797 10.38 27.2033 10.2888 27.2945C10.1976 27.3858 10.0739 27.4372 9.9449 27.4375C9.88111 27.4381 9.81785 27.426 9.75876 27.402C9.69967 27.378 9.64594 27.3425 9.60066 27.2975C9.55538 27.2526 9.51946 27.1991 9.49497 27.1402C9.47049 27.0813 9.45792 27.0182 9.45801 26.9544V13.2594C9.45793 13.1692 9.48306 13.0808 9.53054 13.0042C9.57803 12.9275 9.64599 12.8657 9.72675 12.8256V12.8256Z" fill="white"/>
    <path d="M30.4404 12.8257C30.5209 12.866 30.5886 12.9279 30.6359 13.0045C30.6833 13.0811 30.7084 13.1694 30.7085 13.2594V26.9538C30.704 27.0798 30.6507 27.1992 30.56 27.2867C30.4692 27.3743 30.348 27.4232 30.2219 27.4232C30.0958 27.4232 29.9746 27.3743 29.8839 27.2867C29.7931 27.1992 29.7399 27.0798 29.7354 26.9538V14.2325L22.2085 19.8919V26.9544C22.204 27.0804 22.1507 27.1998 22.06 27.2873C21.9692 27.3749 21.848 27.4238 21.7219 27.4238C21.5958 27.4238 21.4746 27.3749 21.3839 27.2873C21.2931 27.1998 21.2399 27.0804 21.2354 26.9544V19.65C21.2349 19.5743 21.2525 19.4996 21.2866 19.432C21.3207 19.3644 21.3704 19.3059 21.4316 19.2613L29.9272 12.8707C30.0003 12.8167 30.0869 12.7839 30.1775 12.7759C30.268 12.768 30.359 12.7852 30.4404 12.8257V12.8257Z" fill="white"/>
</svg>
