<svg width="40" height="40" viewBox="0 0 40 40" fill="none" 
    xmlns="http://www.w3.org/2000/svg">
    <path d="M39.405 24.8464C38.4459 28.6855 36.3697 32.1538 33.4391 34.8125C30.5082 37.4716 26.8546 39.2009 22.9405 39.7828C19.0264 40.3644 15.0277 39.7719 11.4503 38.0803C7.87306 36.3888 4.87797 33.6741 2.84407 30.2797C0.810178 26.8853 -0.171089 22.9639 0.0244369 19.0118C0.219963 15.0596 1.58349 11.2542 3.9425 8.07722C6.30147 4.90019 9.54991 2.49433 13.2767 1.16405C17.0035 -0.166219 21.0412 -0.361112 24.8788 0.604038C30.0168 1.89759 34.4319 5.17653 37.1553 9.72138C39.8784 14.2663 40.6875 19.7058 39.405 24.8464Z" fill="#884294"/>
    <path fill-rule="evenodd" clip-rule="evenodd" d="M23.7498 19.3498C24.6309 18.8729 25.1822 18.033 25.0534 16.6339C24.88 14.7218 23.326 14.0806 21.3644 13.898L21.364 11.2458H19.8441L19.8437 13.8283C19.4438 13.8283 19.0361 13.8366 18.6303 13.8453L18.63 11.2461L17.1115 11.246L17.1112 13.8975C16.7821 13.9047 16.4589 13.9115 16.1433 13.9115V13.9036L14.0469 13.9027L14.0472 15.6267C14.0472 15.6267 15.1696 15.6043 15.1511 15.626C15.7665 15.6265 15.9675 16.0062 16.0253 16.3339L16.0257 23.5995C15.9986 23.8051 15.8846 24.1338 15.4543 24.1343C15.4739 24.1527 14.3487 24.1342 14.3487 24.1342L14.0472 26.0619H16.0248C16.2662 26.0622 16.5048 26.0649 16.7405 26.0676C16.8644 26.069 16.9883 26.0704 17.1105 26.0715L17.1119 28.7537L18.63 28.7542L18.6296 26.1001C19.0472 26.1091 19.4504 26.113 19.8442 26.1125L19.8438 28.7542H21.3636L21.3645 26.0764C23.9193 25.9205 25.7078 25.2368 25.9302 22.6878C26.1094 20.6356 25.2003 19.7196 23.7498 19.3498ZM18.6666 15.7431C18.7534 15.7431 18.859 15.7401 18.9786 15.7367C20.0419 15.7068 22.2198 15.6455 22.2201 17.3555C22.2198 19.0274 19.955 18.9877 18.9167 18.9694C18.8224 18.9678 18.7381 18.9663 18.6666 18.9663V15.7431ZM18.666 24.1474L18.6666 20.5935C18.7697 20.5935 18.8948 20.5903 19.0365 20.5867C20.3107 20.5544 22.9269 20.4879 22.9273 22.3697C22.9277 24.2097 20.2072 24.1691 18.9626 24.1505C18.8508 24.1489 18.7509 24.1474 18.666 24.1474Z" fill="white"/>
    <path d="M19.9998 8.88886C16.8539 8.88886 14.0133 10.1963 11.9918 12.2974L11.0762 11.4175C13.3287 9.07602 16.4941 7.61902 19.9998 7.61902C23.5074 7.61902 26.6743 9.07764 28.9271 11.4215L28.0159 12.3059C25.9939 10.1998 23.1499 8.88886 19.9998 8.88886Z" fill="white"/>
    <path d="M10.2429 12.3776L11.1639 13.2627C9.73667 15.1316 8.88898 17.4668 8.88898 20C8.88898 23.0192 10.0932 25.7572 12.0476 27.7598L11.1349 28.6427C8.95945 26.4116 7.61914 23.3623 7.61914 20C7.61914 17.1251 8.59898 14.4791 10.2429 12.3776Z" fill="white"/>
    <path d="M12.9868 28.6183L12.0684 29.5068C14.2167 31.3013 16.9824 32.381 20.0004 32.381C23.0274 32.381 25.8007 31.2947 27.9517 29.4906L27.0334 28.6024C25.1178 30.1703 22.669 31.1111 20.0004 31.1111C17.3408 31.1111 14.8995 30.1767 12.9868 28.6183Z" fill="white"/>
    <path d="M28.8824 28.6248L27.9697 27.7419C29.9138 25.7409 31.1109 23.0102 31.1109 20C31.1109 17.4712 30.2661 15.1397 28.8433 13.2724L29.7605 12.3822C31.4023 14.4829 32.3807 17.1272 32.3807 20C32.3807 23.3533 31.0475 26.3953 28.8824 28.6248Z" fill="white"/>
    <path fill-rule="evenodd" clip-rule="evenodd" d="M35.7573 20C35.7573 28.7027 28.7025 35.7575 19.9998 35.7575C11.2971 35.7575 4.24219 28.7027 4.24219 20C4.24219 11.2973 11.2971 4.24243 19.9998 4.24243C28.7025 4.24243 35.7573 11.2973 35.7573 20ZM19.9998 34.6319C28.0809 34.6319 34.6317 28.0811 34.6317 20C34.6317 11.919 28.0809 5.36796 19.9998 5.36796C11.9188 5.36796 5.36772 11.919 5.36772 20C5.36772 28.0811 11.9188 34.6319 19.9998 34.6319Z" fill="white"/>
</svg>
