<svg width="40" height="40" viewBox="0 0 40 40" fill="none" 
    xmlns="http://www.w3.org/2000/svg">
    <circle cx="20" cy="20" r="20" fill="#26A17B"/>
    <path d="M22.2086 21.6909V21.6877C22.0686 21.6973 21.3457 21.739 19.7371 21.739C18.4509 21.739 17.5489 21.7037 17.2298 21.6877V21.6909C12.2836 21.4761 8.59432 20.6295 8.59432 19.6131C8.59432 18.5998 12.2869 17.75 17.2298 17.5352V20.8476C17.5522 20.87 18.4802 20.9245 19.7599 20.9245C21.2968 20.9245 22.0653 20.8604 22.2086 20.8476V17.5384C27.145 17.7565 30.8245 18.603 30.8245 19.6163C30.8245 20.6295 27.1417 21.4761 22.2086 21.6941V21.6909ZM22.2086 17.1953V14.2324H29.0955V9.71436H10.3462V14.2324H17.2331V17.1953C11.6356 17.4486 7.42859 18.5389 7.42859 19.8471C7.42859 21.1554 11.6389 22.2457 17.2331 22.5022V32.0001H22.2118V22.5022C27.7995 22.2489 32 21.1586 32 19.8503C32 18.5453 27.7995 17.4518 22.2118 17.1985" fill="white"/>
</svg>
