<svg width="40" height="40" viewBox="0 0 40 40" fill="none" 
    xmlns="http://www.w3.org/2000/svg">
    <path d="M40 20C40 8.9543 31.0457 0 20 0C8.9543 0 0 8.9543 0 20C0 31.0457 8.9543 40 20 40C31.0457 40 40 31.0457 40 20Z" fill="#7668D5"/>
    <path d="M19.6156 8.75H20.29C20.7131 8.7775 21.1362 8.80313 21.5569 8.8625C23.0005 9.06265 24.3906 9.54539 25.6475 10.2831C25.36 10.5119 25.0513 10.7131 24.7563 10.9319C22.7613 12.3594 20.7719 13.795 18.7744 15.2188C18.6125 15.0844 18.4725 14.9275 18.3188 14.7812C17.8631 14.3437 17.42 13.8956 16.96 13.4644C16.7954 13.5318 16.6361 13.6112 16.4831 13.7019C15.438 14.2906 14.5529 15.1262 13.905 16.1356C13.0671 15.0697 12.2519 13.9861 11.46 12.8856C11.435 12.8494 11.4125 12.8112 11.39 12.7731C11.6908 12.4137 12.0143 12.0741 12.3588 11.7562C14.0995 10.1418 16.3061 9.11907 18.6631 8.83438C18.9794 8.79188 19.2988 8.78375 19.6156 8.75ZM25.0812 12.9569C25.7869 12.4244 26.4938 11.8944 27.2169 11.3844C28.8996 12.7881 30.1345 14.6539 30.7692 16.7514C31.4038 18.8489 31.4104 21.0863 30.7881 23.1875C30.5461 24.0056 30.2105 24.7931 29.7881 25.5344C29.7265 25.4743 29.6716 25.4076 29.6244 25.3356L25.5369 19.9375C25.2725 19.5837 25 19.2363 24.74 18.88C25.3362 18.2394 25.9581 17.6212 26.5562 16.9825C26.1393 16.0822 25.5422 15.2768 24.8019 14.6162C24.5063 14.3567 24.1931 14.118 23.8644 13.9019C24.2594 13.575 24.6725 13.27 25.0794 12.9575L25.0812 12.9569ZM9.53938 15.875C9.7369 15.3718 9.97454 14.8852 10.25 14.42C10.6463 14.92 11.025 15.4331 11.4144 15.9387L15.1144 20.7875C15.1989 20.891 15.278 20.9989 15.3513 21.1106C14.7263 21.7606 14.09 22.395 13.47 23.0481C13.6265 23.398 13.8148 23.7327 14.0325 24.0481C14.3534 24.5199 14.7287 24.9522 15.1506 25.3363C15.4597 25.6137 15.7885 25.8683 16.1344 26.0981C15.8375 26.3481 15.5237 26.5775 15.2175 26.815C14.6717 27.2317 14.1212 27.6435 13.5662 28.0506C13.3037 28.2381 13.0519 28.4381 12.7812 28.6131C11.0243 27.1391 9.75769 25.1652 9.15 22.9537C8.91536 22.081 8.78116 21.1844 8.75 20.2813L8.75 19.7187C8.76312 19.5237 8.775 19.3288 8.78875 19.1338C8.87428 18.0171 9.1271 16.9196 9.53875 15.8781L9.53938 15.875ZM25.3569 24.835C25.6297 24.5291 25.8803 24.2041 26.1069 23.8625C26.3569 24.1713 26.5975 24.4875 26.8412 24.8056C27.4467 25.597 28.0395 26.3979 28.6194 27.2081C28.4462 27.432 28.2582 27.6442 28.0569 27.8431C26.4254 29.5181 24.3136 30.6447 22.0138 31.0669C21.4718 31.1618 20.9245 31.223 20.375 31.25H19.5625C19.3206 31.2194 19.0769 31.2144 18.8356 31.1875C17.2568 31.0246 15.7314 30.5246 14.3625 29.7213C14.8287 29.3663 15.3 29.02 15.7694 28.6669L21.1287 24.6669C21.4319 24.9462 21.7181 25.2438 22.0162 25.5288C22.365 25.8625 22.7 26.2119 23.0562 26.5387C23.9307 26.1328 24.7142 25.5546 25.36 24.8388" fill="white"/>
</svg>
