<svg width="40" height="40" viewBox="0 0 40 40" fill="none" 
    xmlns="http://www.w3.org/2000/svg">
    <path d="M34.0885 34.2464C32.226 36.11 30.0083 37.5794 27.5673 38.5671C25.1264 39.5549 22.5121 40.0409 19.8798 39.9963C17.2628 40.0479 14.6627 39.5646 12.2384 38.576C9.81404 37.5874 7.61633 36.1142 5.77947 34.2464C3.90076 32.4143 2.41855 30.2145 1.42503 27.7839C0.431518 25.3534 -0.0520421 22.7441 0.00443394 20.1183C0.00443394 14.3751 1.92945 9.58682 5.77947 5.75359C7.61633 3.88577 9.81404 2.41258 12.2384 1.42398C14.6627 0.435387 17.2628 -0.0478649 19.8798 0.0037372C22.5121 -0.0409238 25.1264 0.445087 27.5673 1.43287C30.0083 2.42064 32.226 3.89001 34.0885 5.75359C38.0271 9.58682 39.9964 14.3751 39.9964 20.1183C40.0475 22.7554 39.5484 25.3741 38.531 27.8069C37.5137 30.2397 36.0006 32.4329 34.0885 34.2464Z" fill="#8778B7"/>
    <path d="M19.8592 8.125L31.7215 19.8319L19.9985 31.6835L8.13086 19.9766L19.8592 8.125Z" fill="#FFCE45"/>
    <path d="M19.9498 23.7485L8.125 19.9712L19.8587 8.125L31.7317 19.8319L19.9498 23.7485Z" fill="#FDBC43"/>
    <path d="M12.2246 19.1784L17.6146 19.1462L19.9078 16.5691L22.4903 19.1194L27.8803 19.0873L19.8703 10.5469L12.2246 19.1784Z" fill="white"/>
    <path d="M31.7151 19.8369L19.9492 23.7481L19.9974 31.6831L31.7151 19.8369Z" fill="#EDBB46"/>
    <path d="M19.8594 8.125L19.8701 10.5468L27.8801 19.0872L22.4901 19.1193L19.9076 16.569L19.9505 23.7485L31.7163 19.8373L31.7217 19.8319L19.8594 8.125Z" fill="#ECB343"/>
    <path d="M19.8691 10.5469L19.9066 16.5691L22.4891 19.1194L27.8791 19.0873L19.8691 10.5469Z" fill="#EFD8B1"/>
</svg>
