<svg viewBox="0 0 50 50" fill="none" 
    xmlns="http://www.w3.org/2000/svg">
    <path d="M42.5995 42.8142C40.2706 45.1436 37.4976 46.9798 34.4457 48.2135C31.3938 49.4472 28.1253 50.0532 24.8347 49.9953C21.5648 50.0597 18.3161 49.4556 15.287 48.2198C12.258 46.9841 9.51233 45.1426 7.2177 42.8081C4.86907 40.5173 3.01664 37.7665 1.77588 34.727C0.535124 31.6876 -0.0673629 28.4248 0.00597474 25.1419C0.00597474 17.9587 2.41398 11.9734 7.23001 7.18597C9.52609 4.85202 12.2731 3.01149 15.3031 1.7768C18.3332 0.542105 21.5827 -0.0608238 24.8532 0.00484128C28.1431 -0.0509848 31.4106 0.556527 34.4614 1.79125C37.5121 3.02597 40.2839 4.86267 42.6118 7.19213C47.5344 11.9837 49.9958 17.971 49.9958 25.1542C50.058 28.4514 49.4322 31.7253 48.1586 34.7663C46.885 37.8074 44.9915 40.5485 42.5995 42.8142Z" class="path-gray"  fill="#C43C86"/>
    <path d="M18.646 29.9718L31.3348 29.9945L25.0109 19.0345L18.646 29.9718Z" class="path-gray" fill="white"/>
    <path d="M25.0293 11C24.9224 11.0005 24.8175 11.0289 24.7249 11.0823C24.6324 11.1358 24.5554 11.2125 24.5015 11.3048L11.8673 33.02C11.8138 33.1127 11.7856 33.2178 11.7856 33.3248C11.7856 33.4319 11.8138 33.537 11.8673 33.6297L19.5652 29.1802L25.002 19.8217L25.0293 11Z" class="path-white" fill="#EF4B2D"/>
    <path d="M38.1094 33.0655L25.5525 11.3048C25.4994 11.2128 25.4232 11.1363 25.3314 11.0829C25.2396 11.0294 25.1355 11.0008 25.0293 11V19.8262L30.4206 29.2029L38.1048 33.6752C38.1604 33.5834 38.1901 33.4783 38.1909 33.371C38.1917 33.2637 38.1636 33.1581 38.1094 33.0655Z" class="path-white" fill="#9D2063"/>
    <path d="M38.1047 33.6661L30.4204 29.1938H19.5651L11.8672 33.6206C11.9196 33.7132 11.9956 33.7902 12.0876 33.8438C12.1795 33.8973 12.284 33.9255 12.3904 33.9254L37.5769 33.9709C37.6838 33.9704 37.7887 33.942 37.8813 33.8886C37.9738 33.8351 38.0509 33.7584 38.1047 33.6661Z" class="path-white" fill="#662F8E"/>
</svg>
