<svg viewBox="0 0 140 46" fill="none" 
    xmlns="http://www.w3.org/2000/svg">
    <path d="M0 9.2C0 4.11898 4.09674 0 9.15033 0H36.6013C41.6549 0 45.7516 4.11898 45.7516 9.2V36.8C45.7516 41.881 41.6549 46 36.6013 46H9.15033C4.09674 46 0 41.881 0 36.8V9.2Z" fill="url(#logo)" />
    <path d="M18.3237 0H13.736V10.607H18.3237V0Z" fill="#ffffff"/>
    <path d="M26.0245 32.5956H19.9622C16.5214 32.5956 13.736 29.7893 13.736 26.3226V21.8655H18.3237V26.2896C18.3237 27.214 19.0446 27.9404 19.9622 27.9404H26.0245C26.942 27.9404 27.663 27.214 27.663 26.2896V20.2147C27.663 19.2902 26.942 18.5639 26.0245 18.5639H0V13.9417H26.0245C29.4653 13.9417 32.2507 16.748 32.2507 20.2147V26.3226C32.2507 29.7893 29.4653 32.5956 26.0245 32.5956Z" fill="#ffffff"/>
    <path d="M117.764 36.9674C117.568 36.7722 117.489 36.5769 117.489 36.3036C117.489 36.0302 117.568 35.7959 117.764 35.5616L125.15 25.7599L118.314 16.5439C118.157 16.3096 118.039 16.0753 118.039 15.802C118.039 15.5286 118.118 15.3334 118.314 15.1381C118.51 14.9428 118.707 14.8647 118.982 14.8647H122.793C123.107 14.8647 123.343 14.9428 123.5 15.06C123.657 15.1772 123.814 15.3724 124.01 15.6067L128.843 22.011L133.636 15.6067C133.675 15.5677 133.753 15.4505 133.95 15.2162C134.146 14.9819 134.421 14.8647 134.853 14.8647H138.546C138.821 14.8647 139.018 14.9428 139.214 15.1381C139.371 15.3334 139.489 15.5286 139.489 15.7629C139.489 16.0363 139.411 16.3096 139.214 16.5439L132.3 25.7989L139.725 35.5616C139.882 35.7959 140 36.0302 140 36.3036C140 36.5769 139.921 36.7722 139.725 36.9674C139.529 37.1627 139.332 37.2408 139.057 37.2408H135.089C134.618 37.2408 134.225 37.0065 133.911 36.5379L128.725 29.7431L123.5 36.5379C123.185 37.0065 122.793 37.2408 122.321 37.2408H118.471C118.157 37.2408 117.921 37.1627 117.764 36.9674Z" class="svg-primary" />
    <path d="M86.2408 24.5096C86.1614 21.4321 85.2083 19.014 83.6199 17.1201C82.0315 15.2263 79.768 14.2794 76.8295 14.2794C74.0101 14.2794 71.7863 15.2263 70.1582 17.1596V7.49307C70.1582 6.86178 69.5228 6.46723 68.9669 6.70396L64.2811 8.63727V36.2954C64.2811 36.5716 64.4002 36.8478 64.5987 37.045C64.7973 37.2423 65.0356 37.3607 65.3532 37.3607H68.8477C69.1654 37.3607 69.4434 37.2423 69.6419 37.045C69.8405 36.8478 69.9596 36.611 69.9596 36.2954V34.6777C71.548 36.7294 73.8909 37.7552 76.9089 37.7552C79.8474 37.7552 82.1109 36.8083 83.6993 34.9539C85.2877 33.0995 86.1217 30.5744 86.2408 27.4574C86.3397 26.4748 86.2408 25.4835 86.2408 24.5096ZM80.1254 27.2996C79.9269 31.1268 78.259 33.0206 75.1616 33.0206C73.4938 33.0206 72.2628 32.4682 71.4289 31.4029C70.595 30.3376 70.1582 29.0356 70.1185 27.4969C70.0788 27.1418 70.0788 26.5894 70.0788 25.8398C70.0788 25.0506 70.0788 24.4983 70.1185 24.1432C70.1582 22.6833 70.6347 21.4602 71.4686 20.4344C72.3025 19.4085 73.5335 18.8956 75.1219 18.8956C78.259 18.8956 79.8872 20.7895 80.0857 24.6166C80.1254 24.8928 80.1254 25.3268 80.1254 25.9187C80.1651 26.5894 80.1651 27.0234 80.1254 27.2996Z" class="svg-primary" />
    <path d="M113.377 32.2602H97.8299L102.028 26.6284C102.572 25.9195 102.067 24.8955 101.173 24.8955H95.731L90.5226 31.7088C90.3671 31.9451 90.2116 32.1814 90.0562 32.4177C89.9396 32.654 89.8618 32.9691 89.8618 33.3235V36.3954C89.8618 36.7104 89.9396 36.9861 90.1339 37.183C90.3282 37.38 90.5615 37.4981 90.8724 37.4981H110.812C111.356 37.4981 111.861 37.2224 112.172 36.7892L114.194 34.0324C114.738 33.2447 114.232 32.2602 113.377 32.2602Z" class="svg-primary" />
    <path d="M90.1472 11.7656H105.857L101.615 17.2824C101.065 17.9769 101.576 18.9799 102.479 18.9799H107.977L113.24 12.3057C113.397 12.0742 113.554 11.8427 113.711 11.6113C113.829 11.3798 113.908 11.0712 113.908 10.7239V7.71474C113.908 7.40611 113.829 7.13605 113.633 6.94316C113.436 6.75026 113.201 6.63452 112.887 6.63452H92.7392C92.1894 6.63452 91.6789 6.90458 91.3647 7.32895L89.3224 10.0295C88.7726 10.7625 89.2832 11.7656 90.1472 11.7656Z" class="svg-primary" />
    <defs>
        <linearGradient id="logo" x1="42.7778" y1="43.01" x2="5.97832" y2="6.40923" gradientUnits="userSpaceOnUse">
            <stop offset="0.159375" stop-color="#003CDA"/>
            <stop offset="1" stop-color="#33DFCC"/>
        </linearGradient>
    </defs>
</svg>
