<svg viewBox="0 0 56 56" fill="none" 
    xmlns="http://www.w3.org/2000/svg">
    <ellipse cx="27.5" cy="28" rx="27.5" ry="28" fill="#276BFB"/>
    <path fill-rule="evenodd" clip-rule="evenodd" d="M33.4897 37.944C34.3373 39.0586 35.3545 40.3199 35.3545 40.3199C41.5985 40.1146 44 35.8613 44 35.8613C44 26.4161 39.9315 18.7601 39.9315 18.7601C35.863 15.5922 31.9923 15.6802 31.9923 15.6802L31.5967 16.1495C36.3998 17.6748 38.6318 19.8748 38.6318 19.8748C35.6935 18.2028 32.8116 17.3815 30.1276 17.0588C28.0933 16.8242 26.1438 16.8828 24.4204 17.1175C24.2724 17.1175 24.1459 17.1398 24.0034 17.165C23.9827 17.1687 23.9616 17.1724 23.9401 17.1762C22.9512 17.2642 20.5497 17.6455 17.5265 19.0241C16.4812 19.5228 15.8596 19.8748 15.8596 19.8748C15.8596 19.8748 18.2046 17.5575 23.2902 16.0322L23.0077 15.6802C23.0077 15.6802 19.137 15.5922 15.0685 18.7601C15.0685 18.7601 11 26.4161 11 35.8613C11 35.8613 13.3733 40.1146 19.6173 40.3199C19.6173 40.3199 20.6627 38.9999 21.5103 37.8853C17.9221 36.7706 16.5659 34.424 16.5659 34.424C16.822 34.6029 17.086 34.7693 17.357 34.9226C17.3892 34.9589 17.4275 34.9887 17.47 35.0107C17.5124 35.04 17.5548 35.062 17.5972 35.084C17.6396 35.106 17.6819 35.128 17.7243 35.1573C18.389 35.5385 19.0781 35.8717 19.7868 36.1546C21.1313 36.7056 22.5215 37.1278 23.9401 37.416C26.0591 37.8266 28.5454 37.9733 31.2577 37.4453C32.5856 37.2106 33.9418 36.8 35.3545 36.184C36.497 35.7363 37.587 35.1557 38.6036 34.4533C38.6036 34.4533 37.1909 36.8586 33.4897 37.944ZM19.8 28.5599C19.8 26.4057 21.1049 24.6399 22.7578 24.6399C24.4107 24.6399 25.7446 26.4057 25.7156 28.5599C25.7156 30.7142 24.4107 32.4799 22.7578 32.4799C21.1339 32.4799 19.8 30.7142 19.8 28.5599ZM30.3844 28.5599C30.3844 26.4057 31.6893 24.6399 33.3422 24.6399C34.9951 24.6399 36.3 26.4057 36.3 28.5599C36.3 30.7142 34.9951 32.4799 33.3422 32.4799C31.7183 32.4799 30.3844 30.7142 30.3844 28.5599Z" fill="white"/>
</svg>
