<svg width="486" height="357" viewBox="0 0 486 357" fill="none" 
    xmlns="http://www.w3.org/2000/svg">
    <g opacity="0.4" filter="url(#filter0)">
        <rect x="43" y="51" width="417" height="280" fill="#404B57"/>
    </g>
    <path d="M31 29H472V312H31V29Z" fill="#444E5A"/>
    <rect x="304" y="244" width="133" height="33" rx="16.5" fill="#276BFB"/>
    <path d="M325.509 264.112H328.414V265H324.397V258.602H325.509V264.112ZM333.726 262.144H331.098V264.112H334.17V265H329.986V258.602H334.139V259.498H331.098V261.265H333.726V262.144ZM338.05 263.607L339.676 258.602H340.897L338.595 265H337.518L335.224 258.602H336.441L338.05 263.607ZM346.082 262.144H343.454V264.112H346.526V265H342.342V258.602H346.495V259.498H343.454V261.265H346.082V262.144ZM350.502 262.535H349.263V265H348.151V258.602H350.401C351.14 258.602 351.709 258.767 352.111 259.098C352.512 259.429 352.713 259.908 352.713 260.535C352.713 260.963 352.609 261.322 352.401 261.612C352.196 261.899 351.909 262.12 351.539 262.275L352.976 264.943V265H351.786L350.502 262.535ZM349.263 261.643H350.406C350.781 261.643 351.074 261.549 351.285 261.361C351.495 261.171 351.601 260.912 351.601 260.583C351.601 260.241 351.503 259.976 351.307 259.788C351.113 259.601 350.823 259.504 350.436 259.498H349.263V261.643ZM358.069 263.51H355.59L355.072 265H353.916L356.333 258.602H357.331L359.752 265H358.592L358.069 263.51ZM355.902 262.614H357.757L356.83 259.959L355.902 262.614ZM366.009 264.169C365.778 264.471 365.457 264.7 365.047 264.855C364.637 265.01 364.171 265.088 363.649 265.088C363.113 265.088 362.639 264.966 362.226 264.723C361.812 264.48 361.493 264.133 361.268 263.682C361.045 263.228 360.929 262.699 360.92 262.095V261.594C360.92 260.627 361.152 259.873 361.615 259.331C362.078 258.786 362.724 258.514 363.553 258.514C364.265 258.514 364.83 258.689 365.249 259.041C365.668 259.393 365.92 259.899 366.005 260.562H364.915C364.792 259.791 364.345 259.406 363.575 259.406C363.077 259.406 362.697 259.586 362.436 259.946C362.179 260.304 362.045 260.83 362.037 261.524V262.016C362.037 262.708 362.182 263.245 362.472 263.629C362.765 264.01 363.17 264.2 363.689 264.2C364.257 264.2 364.662 264.071 364.902 263.813V262.561H363.583V261.717H366.009V264.169ZM371.691 262.144H369.063V264.112H372.134V265H367.951V258.602H372.104V259.498H369.063V261.265H371.691V262.144ZM380.852 265H376.55V264.266L378.681 261.941C378.989 261.599 379.207 261.313 379.336 261.084C379.468 260.853 379.533 260.622 379.533 260.39C379.533 260.085 379.447 259.839 379.274 259.652C379.104 259.464 378.874 259.371 378.584 259.371C378.239 259.371 377.97 259.476 377.78 259.687C377.59 259.898 377.494 260.187 377.494 260.553H376.427C376.427 260.163 376.514 259.813 376.69 259.502C376.869 259.189 377.122 258.946 377.45 258.773C377.782 258.6 378.162 258.514 378.593 258.514C379.214 258.514 379.703 258.67 380.061 258.984C380.421 259.294 380.601 259.725 380.601 260.276C380.601 260.595 380.511 260.931 380.329 261.282C380.15 261.631 379.856 262.028 379.446 262.473L377.881 264.147H380.852V265ZM383.119 263.875C383.318 263.875 383.472 263.932 383.58 264.046C383.689 264.158 383.743 264.298 383.743 264.468C383.743 264.635 383.689 264.774 383.58 264.886C383.472 264.994 383.318 265.048 383.119 265.048C382.928 265.048 382.777 264.994 382.666 264.886C382.555 264.777 382.499 264.638 382.499 264.468C382.499 264.298 382.553 264.158 382.662 264.046C382.77 263.932 382.922 263.875 383.119 263.875ZM389.789 262.306C389.789 263.226 389.616 263.92 389.27 264.389C388.928 264.855 388.405 265.088 387.702 265.088C387.01 265.088 386.489 264.861 386.137 264.407C385.788 263.95 385.61 263.274 385.601 262.381V261.273C385.601 260.354 385.772 259.664 386.115 259.204C386.461 258.744 386.987 258.514 387.693 258.514C388.393 258.514 388.914 258.738 389.257 259.186C389.603 259.634 389.78 260.305 389.789 261.199V262.306ZM388.721 261.111C388.721 260.51 388.639 260.071 388.475 259.792C388.311 259.511 388.05 259.371 387.693 259.371C387.344 259.371 387.088 259.504 386.924 259.771C386.76 260.034 386.673 260.447 386.664 261.01V262.46C386.664 263.058 386.748 263.503 386.915 263.796C387.082 264.089 387.344 264.235 387.702 264.235C388.044 264.235 388.298 264.101 388.462 263.831C388.626 263.559 388.712 263.134 388.721 262.557V261.111ZM395.624 262.306C395.624 263.226 395.451 263.92 395.106 264.389C394.763 264.855 394.24 265.088 393.537 265.088C392.845 265.088 392.324 264.861 391.972 264.407C391.624 263.95 391.445 263.274 391.436 262.381V261.273C391.436 260.354 391.608 259.664 391.95 259.204C392.296 258.744 392.822 258.514 393.528 258.514C394.228 258.514 394.75 258.738 395.092 259.186C395.438 259.634 395.615 260.305 395.624 261.199V262.306ZM394.556 261.111C394.556 260.51 394.474 260.071 394.31 259.792C394.146 259.511 393.885 259.371 393.528 259.371C393.179 259.371 392.923 259.504 392.759 259.771C392.595 260.034 392.508 260.447 392.5 261.01V262.46C392.5 263.058 392.583 263.503 392.75 263.796C392.917 264.089 393.179 264.235 393.537 264.235C393.88 264.235 394.133 264.101 394.297 263.831C394.461 263.559 394.547 263.134 394.556 262.557V261.111ZM404.161 262.144H401.533V264.112H404.605V265H400.422V258.602H404.574V259.498H401.533V261.265H404.161V262.144ZM410.941 259.498H408.946V265H407.843V259.498H405.866V258.602H410.941V259.498ZM417.585 265H416.478V262.157H413.617V265H412.505V258.602H413.617V261.265H416.478V258.602H417.585V265Z" fill="white"/>
    <path d="M261.466 263.232C261.409 263.839 261.185 264.313 260.794 264.654C260.404 264.993 259.884 265.162 259.236 265.162C258.783 265.162 258.383 265.055 258.037 264.842C257.693 264.626 257.427 264.32 257.24 263.924C257.052 263.528 256.955 263.068 256.947 262.545V262.014C256.947 261.477 257.042 261.005 257.232 260.596C257.422 260.187 257.694 259.872 258.048 259.65C258.405 259.429 258.817 259.318 259.283 259.318C259.91 259.318 260.416 259.489 260.798 259.83C261.181 260.171 261.404 260.653 261.466 261.275H260.482C260.435 260.867 260.315 260.572 260.123 260.393C259.933 260.21 259.653 260.119 259.283 260.119C258.853 260.119 258.522 260.277 258.291 260.592C258.061 260.904 257.944 261.364 257.939 261.971V262.475C257.939 263.089 258.048 263.558 258.267 263.881C258.488 264.204 258.811 264.365 259.236 264.365C259.624 264.365 259.916 264.278 260.111 264.104C260.306 263.929 260.43 263.639 260.482 263.232H261.466ZM264.787 265.084C264.745 265.003 264.709 264.872 264.677 264.689C264.375 265.005 264.005 265.162 263.568 265.162C263.143 265.162 262.797 265.041 262.529 264.799C262.261 264.557 262.127 264.257 262.127 263.9C262.127 263.45 262.293 263.105 262.627 262.865C262.962 262.623 263.442 262.502 264.064 262.502H264.646V262.225C264.646 262.006 264.585 261.831 264.462 261.701C264.34 261.568 264.154 261.502 263.904 261.502C263.688 261.502 263.511 261.557 263.373 261.666C263.235 261.773 263.166 261.91 263.166 262.076H262.216C262.216 261.844 262.293 261.628 262.447 261.428C262.6 261.225 262.809 261.066 263.072 260.951C263.337 260.837 263.633 260.779 263.959 260.779C264.453 260.779 264.848 260.904 265.142 261.154C265.436 261.402 265.587 261.751 265.595 262.201V264.107C265.595 264.488 265.649 264.791 265.755 265.018V265.084H264.787ZM263.744 264.4C263.931 264.4 264.107 264.355 264.271 264.264C264.438 264.173 264.563 264.05 264.646 263.896V263.1H264.134C263.783 263.1 263.518 263.161 263.341 263.283C263.164 263.406 263.076 263.579 263.076 263.803C263.076 263.985 263.136 264.131 263.255 264.24C263.378 264.347 263.541 264.4 263.744 264.4ZM267.47 260.857L267.498 261.346C267.81 260.968 268.22 260.779 268.728 260.779C269.608 260.779 270.056 261.283 270.072 262.291V265.084H269.123V262.346C269.123 262.077 269.064 261.88 268.947 261.752C268.832 261.622 268.643 261.557 268.38 261.557C267.998 261.557 267.712 261.73 267.525 262.076V265.084H266.576V260.857H267.47ZM272.779 264.404C273.016 264.404 273.212 264.335 273.369 264.197C273.525 264.059 273.608 263.889 273.619 263.686H274.513C274.503 263.949 274.421 264.195 274.267 264.424C274.113 264.65 273.905 264.83 273.642 264.963C273.379 265.096 273.095 265.162 272.791 265.162C272.199 265.162 271.731 264.971 271.384 264.588C271.038 264.205 270.865 263.676 270.865 263.002V262.904C270.865 262.261 271.037 261.747 271.38 261.361C271.724 260.973 272.193 260.779 272.787 260.779C273.289 260.779 273.698 260.926 274.013 261.221C274.331 261.512 274.498 261.896 274.513 262.373H273.619C273.608 262.131 273.525 261.932 273.369 261.775C273.215 261.619 273.018 261.541 272.779 261.541C272.472 261.541 272.235 261.653 272.068 261.877C271.901 262.098 271.817 262.436 271.814 262.889V263.041C271.814 263.499 271.896 263.842 272.06 264.068C272.227 264.292 272.466 264.404 272.779 264.404ZM277.091 265.162C276.49 265.162 276.002 264.973 275.627 264.596C275.254 264.215 275.068 263.71 275.068 263.08V262.963C275.068 262.541 275.149 262.165 275.31 261.834C275.474 261.501 275.703 261.242 275.998 261.057C276.292 260.872 276.62 260.779 276.982 260.779C277.558 260.779 278.002 260.963 278.314 261.33C278.629 261.697 278.787 262.217 278.787 262.889V263.271H276.025C276.054 263.62 276.169 263.896 276.373 264.1C276.578 264.303 276.836 264.404 277.146 264.404C277.581 264.404 277.935 264.229 278.209 263.877L278.72 264.365C278.551 264.618 278.324 264.814 278.041 264.955C277.759 265.093 277.443 265.162 277.091 265.162ZM276.978 261.541C276.718 261.541 276.507 261.632 276.345 261.814C276.186 261.997 276.085 262.251 276.041 262.576H277.849V262.506C277.828 262.188 277.744 261.949 277.595 261.787C277.447 261.623 277.241 261.541 276.978 261.541ZM280.537 265.084H279.587V259.084H280.537V265.084Z" fill="#A2ABB8"/>
    <path d="M258.231 268.847H255.879V270.023H258.231V268.847Z" fill="#A2ABB8"/>
    <path d="M262.936 268.847H260.584V270.023H262.936V268.847Z" fill="#A2ABB8"/>
    <path d="M265.289 268.847H267.642V270.023H265.289V268.847Z" fill="#A2ABB8"/>
    <path d="M272.347 268.847H269.994V270.023H272.347V268.847Z" fill="#A2ABB8"/>
    <path d="M274.699 268.847H277.052V270.023H274.699V268.847Z" fill="#A2ABB8"/>
    <path d="M281.757 268.847H279.405V270.023H281.757V268.847Z" fill="#A2ABB8"/>
    <path d="M225.628 116.148C224.904 115.94 224.377 115.685 224.046 115.383C223.718 115.079 223.554 114.704 223.554 114.258C223.554 113.754 223.754 113.338 224.156 113.01C224.56 112.679 225.084 112.514 225.729 112.514C226.168 112.514 226.56 112.599 226.902 112.769C227.248 112.938 227.515 113.173 227.702 113.472C227.893 113.771 227.988 114.097 227.988 114.452H227.14C227.14 114.065 227.017 113.762 226.771 113.542C226.524 113.319 226.177 113.208 225.729 113.208C225.313 113.208 224.988 113.3 224.753 113.485C224.522 113.667 224.406 113.92 224.406 114.245C224.406 114.506 224.516 114.727 224.736 114.909C224.958 115.087 225.335 115.251 225.865 115.401C226.398 115.55 226.814 115.716 227.113 115.897C227.415 116.076 227.638 116.286 227.781 116.526C227.928 116.766 228.001 117.049 228.001 117.374C228.001 117.893 227.799 118.309 227.395 118.622C226.99 118.933 226.45 119.088 225.773 119.088C225.333 119.088 224.923 119.004 224.542 118.837C224.162 118.667 223.867 118.436 223.659 118.143C223.454 117.85 223.352 117.518 223.352 117.146H224.2C224.2 117.532 224.342 117.838 224.626 118.064C224.913 118.287 225.295 118.398 225.773 118.398C226.218 118.398 226.56 118.307 226.797 118.125C227.034 117.944 227.153 117.696 227.153 117.383C227.153 117.069 227.043 116.828 226.823 116.658C226.604 116.485 226.205 116.315 225.628 116.148ZM229.842 119H229.029V112.25H229.842V119ZM232.031 119H231.218V114.245H232.031V119ZM231.152 112.984C231.152 112.852 231.191 112.741 231.271 112.65C231.353 112.559 231.473 112.514 231.631 112.514C231.789 112.514 231.909 112.559 231.991 112.65C232.073 112.741 232.114 112.852 232.114 112.984C232.114 113.116 232.073 113.226 231.991 113.313C231.909 113.401 231.789 113.445 231.631 113.445C231.473 113.445 231.353 113.401 231.271 113.313C231.191 113.226 231.152 113.116 231.152 112.984ZM237.353 116.675C237.353 117.399 237.187 117.982 236.856 118.424C236.525 118.867 236.077 119.088 235.511 119.088C234.934 119.088 234.48 118.905 234.149 118.539V120.828H233.336V114.245H234.079L234.118 114.772C234.449 114.362 234.909 114.157 235.498 114.157C236.069 114.157 236.521 114.373 236.852 114.803C237.186 115.234 237.353 115.833 237.353 116.601V116.675ZM236.54 116.583C236.54 116.047 236.425 115.624 236.197 115.313C235.968 115.002 235.655 114.847 235.256 114.847C234.764 114.847 234.395 115.065 234.149 115.502V117.774C234.392 118.208 234.764 118.424 235.265 118.424C235.655 118.424 235.964 118.271 236.192 117.963C236.424 117.652 236.54 117.192 236.54 116.583ZM242.406 116.675C242.406 117.399 242.241 117.982 241.91 118.424C241.579 118.867 241.13 119.088 240.565 119.088C239.988 119.088 239.534 118.905 239.203 118.539V120.828H238.39V114.245H239.132L239.172 114.772C239.503 114.362 239.963 114.157 240.552 114.157C241.123 114.157 241.574 114.373 241.905 114.803C242.239 115.234 242.406 115.833 242.406 116.601V116.675ZM241.593 116.583C241.593 116.047 241.479 115.624 241.25 115.313C241.022 115.002 240.708 114.847 240.31 114.847C239.818 114.847 239.449 115.065 239.203 115.502V117.774C239.446 118.208 239.818 118.424 240.319 118.424C240.708 118.424 241.018 118.271 241.246 117.963C241.478 117.652 241.593 117.192 241.593 116.583ZM246.379 119C246.332 118.906 246.294 118.739 246.265 118.499C245.887 118.892 245.436 119.088 244.911 119.088C244.442 119.088 244.057 118.956 243.755 118.692C243.457 118.426 243.307 118.089 243.307 117.682C243.307 117.187 243.495 116.803 243.87 116.53C244.248 116.255 244.778 116.117 245.46 116.117H246.251V115.744C246.251 115.459 246.167 115.234 245.997 115.067C245.827 114.897 245.576 114.812 245.245 114.812C244.955 114.812 244.712 114.885 244.516 115.032C244.319 115.178 244.221 115.355 244.221 115.563H243.404C243.404 115.326 243.487 115.098 243.654 114.878C243.824 114.655 244.053 114.479 244.34 114.351C244.63 114.222 244.948 114.157 245.293 114.157C245.841 114.157 246.271 114.295 246.581 114.57C246.892 114.843 247.053 115.219 247.064 115.7V117.888C247.064 118.325 247.12 118.672 247.231 118.93V119H246.379ZM245.03 118.38C245.285 118.38 245.526 118.314 245.755 118.183C245.983 118.051 246.149 117.879 246.251 117.668V116.693H245.614C244.618 116.693 244.12 116.984 244.12 117.567C244.12 117.822 244.205 118.021 244.375 118.165C244.545 118.309 244.763 118.38 245.03 118.38ZM248.146 116.583C248.146 115.842 248.317 115.253 248.66 114.816C249.002 114.377 249.457 114.157 250.022 114.157C250.602 114.157 251.055 114.362 251.38 114.772L251.419 114.245H252.162V118.886C252.162 119.501 251.979 119.986 251.613 120.34C251.25 120.695 250.76 120.872 250.145 120.872C249.802 120.872 249.467 120.799 249.139 120.652C248.811 120.506 248.56 120.305 248.387 120.05L248.809 119.562C249.158 119.993 249.584 120.208 250.088 120.208C250.483 120.208 250.791 120.097 251.011 119.875C251.233 119.652 251.345 119.338 251.345 118.934V118.525C251.02 118.9 250.576 119.088 250.013 119.088C249.457 119.088 249.005 118.864 248.66 118.416C248.317 117.967 248.146 117.356 248.146 116.583ZM248.963 116.675C248.963 117.211 249.073 117.633 249.292 117.941C249.512 118.246 249.82 118.398 250.215 118.398C250.728 118.398 251.104 118.165 251.345 117.699V115.528C251.096 115.074 250.722 114.847 250.224 114.847C249.829 114.847 249.52 115.001 249.297 115.309C249.074 115.616 248.963 116.072 248.963 116.675ZM255.366 119.088C254.721 119.088 254.197 118.877 253.792 118.455C253.388 118.03 253.186 117.463 253.186 116.754V116.605C253.186 116.133 253.275 115.713 253.454 115.344C253.636 114.972 253.888 114.682 254.21 114.474C254.535 114.263 254.887 114.157 255.265 114.157C255.883 114.157 256.363 114.361 256.706 114.768C257.049 115.175 257.22 115.758 257.22 116.517V116.855H253.999C254.011 117.324 254.147 117.704 254.408 117.994C254.671 118.281 255.005 118.424 255.41 118.424C255.697 118.424 255.94 118.366 256.139 118.249C256.338 118.131 256.513 117.976 256.662 117.783L257.159 118.169C256.76 118.782 256.163 119.088 255.366 119.088ZM255.265 114.825C254.937 114.825 254.661 114.945 254.438 115.186C254.216 115.423 254.078 115.757 254.025 116.188H256.407V116.126C256.384 115.713 256.272 115.394 256.073 115.168C255.874 114.939 255.604 114.825 255.265 114.825ZM258.139 118.574C258.139 118.433 258.18 118.316 258.262 118.222C258.347 118.128 258.473 118.082 258.64 118.082C258.807 118.082 258.933 118.128 259.018 118.222C259.105 118.316 259.149 118.433 259.149 118.574C259.149 118.708 259.105 118.821 259.018 118.912C258.933 119.003 258.807 119.048 258.64 119.048C258.473 119.048 258.347 119.003 258.262 118.912C258.18 118.821 258.139 118.708 258.139 118.574ZM258.143 114.693C258.143 114.553 258.184 114.436 258.266 114.342C258.351 114.248 258.477 114.201 258.644 114.201C258.811 114.201 258.937 114.248 259.022 114.342C259.11 114.436 259.154 114.553 259.154 114.693C259.154 114.828 259.11 114.941 259.022 115.032C258.937 115.123 258.811 115.168 258.644 115.168C258.477 115.168 258.351 115.123 258.266 115.032C258.184 114.941 258.143 114.828 258.143 114.693Z" fill="#A2ABB8"/>
    <path d="M263.149 164.7H260.993V166.463H263.498V167H260.336V162.023H263.464V162.563H260.993V164.163H263.149V164.7ZM264.814 163.302L264.834 163.767C265.117 163.411 265.486 163.233 265.942 163.233C266.723 163.233 267.118 163.674 267.125 164.556V167H266.492V164.553C266.49 164.286 266.428 164.089 266.308 163.961C266.189 163.834 266.003 163.77 265.75 163.77C265.545 163.77 265.365 163.825 265.21 163.934C265.056 164.043 264.935 164.187 264.848 164.365V167H264.216V163.302H264.814ZM268.936 162.406V163.302H269.626V163.791H268.936V166.084C268.936 166.232 268.967 166.344 269.028 166.419C269.09 166.492 269.195 166.528 269.343 166.528C269.416 166.528 269.516 166.515 269.644 166.487V167C269.477 167.046 269.315 167.068 269.158 167.068C268.876 167.068 268.663 166.983 268.519 166.812C268.375 166.641 268.304 166.398 268.304 166.084V163.791H267.63V163.302H268.304V162.406H268.936ZM272.156 163.869C272.06 163.853 271.956 163.845 271.845 163.845C271.43 163.845 271.149 164.022 271 164.375V167H270.368V163.302H270.983L270.994 163.729C271.201 163.399 271.495 163.233 271.875 163.233C271.999 163.233 272.092 163.249 272.156 163.281V163.869ZM274.012 166.074L274.873 163.302H275.55L274.063 167.571C273.833 168.186 273.467 168.494 272.966 168.494L272.846 168.483L272.61 168.439V167.926L272.781 167.94C272.995 167.94 273.162 167.897 273.28 167.81C273.401 167.723 273.5 167.565 273.578 167.335L273.718 166.959L272.398 163.302H273.089L274.012 166.074ZM278.609 165.052V167H277.953V162.023H279.788C280.333 162.023 280.759 162.162 281.066 162.44C281.376 162.718 281.531 163.086 281.531 163.544C281.531 164.028 281.38 164.4 281.077 164.662C280.776 164.922 280.344 165.052 279.781 165.052H278.609ZM278.609 164.515H279.788C280.139 164.515 280.408 164.433 280.595 164.269C280.782 164.103 280.875 163.863 280.875 163.551C280.875 163.255 280.782 163.018 280.595 162.84C280.408 162.663 280.152 162.57 279.826 162.563H278.609V164.515ZM284.057 163.869C283.961 163.853 283.858 163.845 283.746 163.845C283.331 163.845 283.05 164.022 282.902 164.375V167H282.27V163.302H282.885L282.895 163.729C283.102 163.399 283.396 163.233 283.777 163.233C283.9 163.233 283.993 163.249 284.057 163.281V163.869ZM285.329 167H284.696V163.302H285.329V167ZM284.645 162.321C284.645 162.218 284.676 162.132 284.737 162.061C284.801 161.99 284.895 161.955 285.018 161.955C285.141 161.955 285.234 161.99 285.298 162.061C285.362 162.132 285.394 162.218 285.394 162.321C285.394 162.423 285.362 162.509 285.298 162.577C285.234 162.646 285.141 162.68 285.018 162.68C284.895 162.68 284.801 162.646 284.737 162.577C284.676 162.509 284.645 162.423 284.645 162.321ZM287.827 166.552C288.053 166.552 288.25 166.484 288.418 166.347C288.587 166.21 288.681 166.04 288.699 165.834H289.297C289.285 166.046 289.213 166.248 289.078 166.439C288.944 166.631 288.764 166.784 288.538 166.897C288.315 167.011 288.078 167.068 287.827 167.068C287.324 167.068 286.923 166.901 286.624 166.566C286.328 166.229 286.18 165.768 286.18 165.185V165.079C286.18 164.719 286.246 164.399 286.378 164.119C286.51 163.838 286.699 163.621 286.945 163.466C287.194 163.311 287.486 163.233 287.824 163.233C288.238 163.233 288.583 163.358 288.856 163.606C289.132 163.854 289.279 164.177 289.297 164.573H288.699C288.681 164.334 288.589 164.138 288.425 163.985C288.264 163.83 288.063 163.753 287.824 163.753C287.502 163.753 287.253 163.869 287.075 164.102C286.9 164.332 286.812 164.666 286.812 165.103V165.223C286.812 165.649 286.9 165.977 287.075 166.207C287.251 166.437 287.501 166.552 287.827 166.552ZM291.542 167.068C291.041 167.068 290.633 166.904 290.319 166.576C290.004 166.246 289.847 165.805 289.847 165.253V165.137C289.847 164.77 289.917 164.443 290.056 164.156C290.197 163.867 290.393 163.641 290.644 163.479C290.896 163.315 291.17 163.233 291.464 163.233C291.945 163.233 292.318 163.392 292.585 163.708C292.852 164.025 292.985 164.479 292.985 165.069V165.332H290.479C290.489 165.697 290.595 165.992 290.797 166.217C291.002 166.441 291.262 166.552 291.577 166.552C291.8 166.552 291.989 166.507 292.144 166.416C292.299 166.324 292.435 166.204 292.551 166.053L292.937 166.354C292.627 166.83 292.162 167.068 291.542 167.068ZM291.464 163.753C291.209 163.753 290.994 163.846 290.821 164.033C290.648 164.218 290.541 164.478 290.5 164.812H292.353V164.765C292.334 164.443 292.248 164.195 292.093 164.02C291.938 163.842 291.728 163.753 291.464 163.753Z" fill="#A2ABB8"/>
    <path d="M244.223 191.038H242.569V183.046L240.128 183.88V182.479L244.011 181.05H244.223V191.038ZM254.306 182.007L250.328 191.038H248.584L252.556 182.417H247.409V181.084H254.306V182.007ZM256.083 186.102L256.623 181.084H261.969V182.52H258.004L257.731 184.899C258.191 184.635 258.711 184.502 259.289 184.502C260.237 184.502 260.973 184.806 261.497 185.412C262.026 186.018 262.29 186.833 262.29 187.859C262.29 188.871 261.999 189.677 261.415 190.279C260.832 190.876 260.032 191.174 259.016 191.174C258.105 191.174 257.348 190.917 256.746 190.402C256.149 189.882 255.826 189.199 255.776 188.351H257.382C257.446 188.834 257.619 189.206 257.902 189.465C258.184 189.721 258.553 189.848 259.009 189.848C259.52 189.848 259.916 189.666 260.199 189.301C260.486 188.937 260.629 188.44 260.629 187.811C260.629 187.205 260.472 186.726 260.158 186.375C259.843 186.02 259.41 185.842 258.859 185.842C258.558 185.842 258.303 185.883 258.093 185.965C257.884 186.043 257.656 186.198 257.41 186.43L256.083 186.102ZM264.738 189.288C265.048 189.288 265.287 189.376 265.455 189.554C265.624 189.727 265.708 189.946 265.708 190.21C265.708 190.47 265.624 190.687 265.455 190.86C265.287 191.028 265.048 191.113 264.738 191.113C264.441 191.113 264.207 191.028 264.034 190.86C263.86 190.691 263.774 190.475 263.774 190.21C263.774 189.946 263.858 189.727 264.027 189.554C264.195 189.376 264.432 189.288 264.738 189.288ZM274.13 182.007L270.152 191.038H268.409L272.38 182.417H267.233V181.084H274.13V182.007ZM281.082 187.49H282.32V188.823H281.082V191.038H279.421V188.823H275.121L275.074 187.811L279.367 181.084H281.082V187.49ZM276.817 187.49H279.421V183.333L279.298 183.552L276.817 187.49ZM294.454 181.084V187.736C294.454 188.793 294.114 189.632 293.435 190.251C292.76 190.867 291.86 191.174 290.735 191.174C289.595 191.174 288.691 190.871 288.021 190.265C287.351 189.654 287.016 188.809 287.016 187.729V181.084H288.739V187.743C288.739 188.408 288.907 188.916 289.245 189.267C289.582 189.618 290.079 189.793 290.735 189.793C292.066 189.793 292.731 189.092 292.731 187.688V181.084H294.454ZM301.508 188.474C301.508 188.037 301.353 187.699 301.043 187.462C300.738 187.225 300.184 186.986 299.382 186.745C298.58 186.503 297.942 186.234 297.468 185.938C296.561 185.368 296.108 184.625 296.108 183.709C296.108 182.907 296.434 182.247 297.085 181.727C297.742 181.208 298.592 180.948 299.635 180.948C300.328 180.948 300.945 181.075 301.488 181.331C302.03 181.586 302.456 181.95 302.766 182.424C303.076 182.894 303.231 183.416 303.231 183.99H301.508C301.508 183.47 301.344 183.065 301.016 182.773C300.692 182.477 300.228 182.329 299.621 182.329C299.056 182.329 298.617 182.449 298.302 182.691C297.992 182.932 297.837 183.27 297.837 183.703C297.837 184.067 298.006 184.373 298.343 184.619C298.68 184.86 299.236 185.097 300.011 185.33C300.786 185.557 301.408 185.819 301.877 186.116C302.347 186.407 302.691 186.745 302.91 187.127C303.128 187.506 303.238 187.95 303.238 188.46C303.238 189.29 302.919 189.951 302.281 190.443C301.647 190.931 300.786 191.174 299.697 191.174C298.977 191.174 298.314 191.042 297.707 190.778C297.106 190.509 296.636 190.14 296.299 189.67C295.967 189.201 295.8 188.654 295.8 188.03H297.53C297.53 188.595 297.717 189.032 298.09 189.342C298.464 189.652 298.999 189.807 299.697 189.807C300.298 189.807 300.749 189.686 301.05 189.445C301.356 189.199 301.508 188.875 301.508 188.474ZM304.755 191.038V181.084H307.695C308.574 181.084 309.354 181.28 310.033 181.672C310.716 182.064 311.245 182.62 311.619 183.34C311.992 184.06 312.179 184.885 312.179 185.815V186.314C312.179 187.257 311.99 188.087 311.612 188.802C311.238 189.518 310.703 190.069 310.005 190.457C309.313 190.844 308.517 191.038 307.62 191.038H304.755ZM306.485 182.479V189.657H307.613C308.52 189.657 309.215 189.374 309.698 188.809C310.185 188.239 310.434 187.424 310.443 186.362V185.808C310.443 184.728 310.208 183.903 309.739 183.333C309.269 182.764 308.588 182.479 307.695 182.479H306.485Z" fill="#1CD8C4"/>
    <path d="M354.413 186.875C353.857 187.462 353.208 187.756 352.465 187.756C351.59 187.756 350.893 187.451 350.373 186.84C349.854 186.225 349.594 185.418 349.594 184.42C349.594 183.764 349.726 183.169 349.991 182.636C350.255 182.103 350.631 181.688 351.119 181.392C351.606 181.096 352.171 180.948 352.814 180.948C353.816 180.948 354.612 181.321 355.2 182.069C355.788 182.816 356.081 183.817 356.081 185.07V185.535C356.081 187.33 355.676 188.7 354.865 189.643C354.053 190.586 352.843 191.065 351.235 191.079H351.037V189.705H351.276C352.256 189.691 353.008 189.456 353.532 189C354.056 188.54 354.35 187.832 354.413 186.875ZM352.814 186.458C353.147 186.458 353.459 186.362 353.75 186.17C354.042 185.979 354.268 185.715 354.427 185.377V184.728C354.427 183.994 354.277 183.404 353.976 182.958C353.675 182.511 353.286 182.288 352.807 182.288C352.329 182.288 351.946 182.486 351.659 182.882C351.376 183.274 351.235 183.771 351.235 184.373C351.235 184.997 351.378 185.5 351.665 185.883C351.953 186.266 352.335 186.458 352.814 186.458ZM364.285 182.007L360.306 191.038H358.563L362.535 182.417H357.387V181.084H364.285V182.007ZM366.759 189.288C367.069 189.288 367.308 189.376 367.477 189.554C367.646 189.727 367.73 189.946 367.73 190.21C367.73 190.47 367.646 190.687 367.477 190.86C367.308 191.028 367.069 191.113 366.759 191.113C366.463 191.113 366.228 191.028 366.055 190.86C365.882 190.691 365.795 190.475 365.795 190.21C365.795 189.946 365.88 189.727 366.048 189.554C366.217 189.376 366.454 189.288 366.759 189.288ZM375.796 183.709C375.796 184.197 375.671 184.632 375.42 185.015C375.17 185.393 374.828 185.692 374.395 185.911C374.914 186.152 375.313 186.483 375.591 186.902C375.874 187.321 376.015 187.795 376.015 188.324C376.015 189.199 375.719 189.894 375.126 190.409C374.534 190.919 373.746 191.174 372.761 191.174C371.772 191.174 370.979 190.917 370.382 190.402C369.79 189.887 369.494 189.194 369.494 188.324C369.494 187.791 369.635 187.312 369.917 186.888C370.2 186.464 370.596 186.139 371.107 185.911C370.678 185.692 370.339 185.393 370.088 185.015C369.842 184.632 369.719 184.197 369.719 183.709C369.719 182.862 369.993 182.19 370.539 181.693C371.086 181.196 371.825 180.948 372.754 180.948C373.689 180.948 374.429 181.196 374.976 181.693C375.523 182.19 375.796 182.862 375.796 183.709ZM374.354 188.242C374.354 187.75 374.206 187.353 373.91 187.052C373.618 186.747 373.231 186.594 372.747 186.594C372.264 186.594 371.877 186.745 371.585 187.045C371.298 187.346 371.155 187.745 371.155 188.242C371.155 188.729 371.296 189.119 371.579 189.411C371.866 189.702 372.26 189.848 372.761 189.848C373.262 189.848 373.652 189.707 373.93 189.424C374.213 189.142 374.354 188.748 374.354 188.242ZM374.142 183.771C374.142 183.338 374.017 182.983 373.766 182.705C373.515 182.422 373.178 182.281 372.754 182.281C372.33 182.281 371.996 182.415 371.749 182.684C371.503 182.948 371.38 183.311 371.38 183.771C371.38 184.227 371.503 184.589 371.749 184.858C372 185.127 372.337 185.261 372.761 185.261C373.185 185.261 373.52 185.127 373.766 184.858C374.017 184.589 374.142 184.227 374.142 183.771ZM379.406 185.302H380.417C380.928 185.298 381.331 185.166 381.627 184.906C381.928 184.646 382.079 184.27 382.079 183.778C382.079 183.304 381.953 182.937 381.703 182.677C381.456 182.413 381.078 182.281 380.568 182.281C380.121 182.281 379.754 182.411 379.467 182.67C379.18 182.926 379.037 183.261 379.037 183.675H377.375C377.375 183.165 377.51 182.7 377.779 182.281C378.052 181.861 378.43 181.536 378.913 181.303C379.401 181.066 379.946 180.948 380.547 180.948C381.541 180.948 382.32 181.198 382.885 181.7C383.455 182.196 383.74 182.889 383.74 183.778C383.74 184.224 383.596 184.646 383.309 185.042C383.026 185.434 382.66 185.731 382.208 185.931C382.755 186.118 383.17 186.412 383.453 186.813C383.74 187.214 383.883 187.693 383.883 188.249C383.883 189.142 383.576 189.853 382.96 190.381C382.35 190.91 381.545 191.174 380.547 191.174C379.59 191.174 378.806 190.919 378.196 190.409C377.585 189.898 377.28 189.219 377.28 188.372H378.941C378.941 188.809 379.087 189.165 379.378 189.438C379.675 189.711 380.071 189.848 380.568 189.848C381.083 189.848 381.488 189.711 381.785 189.438C382.081 189.165 382.229 188.768 382.229 188.249C382.229 187.724 382.074 187.321 381.764 187.039C381.454 186.756 380.994 186.615 380.383 186.615H379.406V185.302ZM396.475 181.084V187.736C396.475 188.793 396.135 189.632 395.456 190.251C394.782 190.867 393.882 191.174 392.756 191.174C391.617 191.174 390.712 190.871 390.042 190.265C389.372 189.654 389.038 188.809 389.038 187.729V181.084H390.76V187.743C390.76 188.408 390.929 188.916 391.266 189.267C391.603 189.618 392.1 189.793 392.756 189.793C394.087 189.793 394.752 189.092 394.752 187.688V181.084H396.475ZM403.53 188.474C403.53 188.037 403.375 187.699 403.065 187.462C402.76 187.225 402.206 186.986 401.404 186.745C400.602 186.503 399.964 186.234 399.49 185.938C398.583 185.368 398.129 184.625 398.129 183.709C398.129 182.907 398.455 182.247 399.107 181.727C399.763 181.208 400.613 180.948 401.657 180.948C402.349 180.948 402.967 181.075 403.509 181.331C404.052 181.586 404.478 181.95 404.788 182.424C405.097 182.894 405.252 183.416 405.252 183.99H403.53C403.53 183.47 403.366 183.065 403.038 182.773C402.714 182.477 402.249 182.329 401.643 182.329C401.078 182.329 400.638 182.449 400.324 182.691C400.014 182.932 399.859 183.27 399.859 183.703C399.859 184.067 400.027 184.373 400.365 184.619C400.702 184.86 401.258 185.097 402.033 185.33C402.807 185.557 403.429 185.819 403.899 186.116C404.368 186.407 404.712 186.745 404.931 187.127C405.15 187.506 405.259 187.95 405.259 188.46C405.259 189.29 404.94 189.951 404.302 190.443C403.669 190.931 402.807 191.174 401.718 191.174C400.998 191.174 400.335 191.042 399.729 190.778C399.127 190.509 398.658 190.14 398.321 189.67C397.988 189.201 397.822 188.654 397.822 188.03H399.551C399.551 188.595 399.738 189.032 400.112 189.342C400.485 189.652 401.021 189.807 401.718 189.807C402.32 189.807 402.771 189.686 403.072 189.445C403.377 189.199 403.53 188.875 403.53 188.474ZM406.777 191.038V181.084H409.716C410.596 181.084 411.375 181.28 412.054 181.672C412.738 182.064 413.266 182.62 413.64 183.34C414.014 184.06 414.201 184.885 414.201 185.815V186.314C414.201 187.257 414.011 188.087 413.633 188.802C413.26 189.518 412.724 190.069 412.027 190.457C411.334 190.844 410.539 191.038 409.641 191.038H406.777ZM408.506 182.479V189.657H409.634C410.541 189.657 411.236 189.374 411.719 188.809C412.207 188.239 412.455 187.424 412.464 186.362V185.808C412.464 184.728 412.23 183.903 411.76 183.333C411.291 182.764 410.609 182.479 409.716 182.479H408.506Z" fill="#1CD8C4"/>
    <path d="M330 154.864V198.387" stroke="#576371"/>
    <path d="M358.627 166.463H360.986V167H357.968V162.023H358.627V166.463ZM362.322 167H361.69V163.302H362.322V167ZM361.639 162.321C361.639 162.218 361.669 162.132 361.731 162.061C361.795 161.99 361.888 161.955 362.011 161.955C362.134 161.955 362.228 161.99 362.292 162.061C362.355 162.132 362.387 162.218 362.387 162.321C362.387 162.423 362.355 162.509 362.292 162.577C362.228 162.646 362.134 162.68 362.011 162.68C361.888 162.68 361.795 162.646 361.731 162.577C361.669 162.509 361.639 162.423 361.639 162.321ZM363.184 165.12C363.184 164.539 363.317 164.08 363.583 163.743C363.85 163.403 364.208 163.233 364.657 163.233C365.094 163.233 365.439 163.38 365.692 163.674L365.72 163.302H366.301V168.422H365.668V166.658C365.413 166.932 365.074 167.068 364.65 167.068C364.203 167.068 363.847 166.895 363.58 166.549C363.316 166.2 363.184 165.739 363.184 165.165V165.12ZM363.816 165.192C363.816 165.616 363.905 165.948 364.083 166.19C364.263 166.431 364.504 166.552 364.807 166.552C365.183 166.552 365.47 166.386 365.668 166.053V164.242C365.468 163.916 365.183 163.753 364.814 163.753C364.509 163.753 364.266 163.875 364.086 164.119C363.906 164.36 363.816 164.718 363.816 165.192ZM369.599 166.634C369.353 166.924 368.992 167.068 368.516 167.068C368.121 167.068 367.821 166.954 367.613 166.727C367.408 166.496 367.305 166.157 367.302 165.708V163.302H367.935V165.691C367.935 166.251 368.162 166.532 368.618 166.532C369.101 166.532 369.423 166.352 369.582 165.992V163.302H370.214V167H369.613L369.599 166.634ZM371.865 167H371.233V163.302H371.865V167ZM371.182 162.321C371.182 162.218 371.212 162.132 371.274 162.061C371.338 161.99 371.431 161.955 371.554 161.955C371.677 161.955 371.771 161.99 371.834 162.061C371.898 162.132 371.93 162.218 371.93 162.321C371.93 162.423 371.898 162.509 371.834 162.577C371.771 162.646 371.677 162.68 371.554 162.68C371.431 162.68 371.338 162.646 371.274 162.577C371.212 162.509 371.182 162.423 371.182 162.321ZM372.727 165.12C372.727 164.553 372.861 164.097 373.13 163.753C373.399 163.407 373.751 163.233 374.186 163.233C374.619 163.233 374.962 163.382 375.215 163.678V161.75H375.847V167H375.266L375.235 166.604C374.982 166.913 374.63 167.068 374.179 167.068C373.751 167.068 373.401 166.893 373.13 166.542C372.861 166.191 372.727 165.733 372.727 165.168V165.12ZM373.359 165.192C373.359 165.611 373.445 165.939 373.619 166.176C373.792 166.413 374.031 166.532 374.336 166.532C374.737 166.532 375.03 166.352 375.215 165.992V164.293C375.026 163.944 374.735 163.77 374.343 163.77C374.033 163.77 373.792 163.89 373.619 164.129C373.445 164.368 373.359 164.722 373.359 165.192ZM379.115 167C379.078 166.927 379.049 166.797 379.026 166.61C378.732 166.916 378.381 167.068 377.973 167.068C377.609 167.068 377.309 166.966 377.074 166.761C376.842 166.553 376.726 166.291 376.726 165.975C376.726 165.59 376.871 165.291 377.163 165.079C377.457 164.865 377.869 164.758 378.4 164.758H379.016V164.467C379.016 164.246 378.95 164.071 378.817 163.941C378.685 163.809 378.49 163.743 378.233 163.743C378.007 163.743 377.818 163.8 377.666 163.914C377.513 164.028 377.437 164.165 377.437 164.327H376.801C376.801 164.143 376.866 163.965 376.996 163.794C377.128 163.621 377.306 163.484 377.529 163.384C377.754 163.284 378.002 163.233 378.271 163.233C378.697 163.233 379.03 163.34 379.272 163.555C379.514 163.767 379.639 164.059 379.648 164.433V166.135C379.648 166.475 379.691 166.745 379.778 166.945V167H379.115ZM378.065 166.518C378.264 166.518 378.452 166.467 378.629 166.364C378.807 166.262 378.936 166.128 379.016 165.964V165.206H378.52C377.745 165.206 377.358 165.432 377.358 165.886C377.358 166.084 377.424 166.239 377.556 166.351C377.688 166.462 377.858 166.518 378.065 166.518ZM381.497 162.406V163.302H382.188V163.791H381.497V166.084C381.497 166.232 381.528 166.344 381.589 166.419C381.651 166.492 381.756 166.528 381.904 166.528C381.977 166.528 382.077 166.515 382.205 166.487V167C382.038 167.046 381.876 167.068 381.719 167.068C381.437 167.068 381.224 166.983 381.08 166.812C380.937 166.641 380.865 166.398 380.865 166.084V163.791H380.191V163.302H380.865V162.406H381.497ZM383.616 167H382.984V163.302H383.616V167ZM382.933 162.321C382.933 162.218 382.963 162.132 383.025 162.061C383.089 161.99 383.182 161.955 383.305 161.955C383.428 161.955 383.522 161.99 383.585 162.061C383.649 162.132 383.681 162.218 383.681 162.321C383.681 162.423 383.649 162.509 383.585 162.577C383.522 162.646 383.428 162.68 383.305 162.68C383.182 162.68 383.089 162.646 383.025 162.577C382.963 162.509 382.933 162.423 382.933 162.321ZM384.464 165.117C384.464 164.754 384.535 164.429 384.676 164.139C384.819 163.85 385.018 163.626 385.271 163.469C385.526 163.312 385.816 163.233 386.142 163.233C386.646 163.233 387.052 163.408 387.362 163.756C387.674 164.105 387.831 164.569 387.831 165.147V165.192C387.831 165.552 387.761 165.875 387.622 166.163C387.485 166.447 387.288 166.67 387.031 166.829C386.776 166.989 386.482 167.068 386.149 167.068C385.648 167.068 385.241 166.894 384.929 166.545C384.619 166.197 384.464 165.735 384.464 165.161V165.117ZM385.1 165.192C385.1 165.602 385.194 165.931 385.383 166.18C385.575 166.428 385.83 166.552 386.149 166.552C386.47 166.552 386.725 166.427 386.915 166.176C387.104 165.923 387.198 165.57 387.198 165.117C387.198 164.711 387.101 164.383 386.908 164.132C386.716 163.879 386.461 163.753 386.142 163.753C385.83 163.753 385.578 163.877 385.387 164.125C385.195 164.374 385.1 164.729 385.1 165.192ZM389.222 163.302L389.242 163.767C389.525 163.411 389.894 163.233 390.35 163.233C391.131 163.233 391.525 163.674 391.532 164.556V167H390.9V164.553C390.898 164.286 390.836 164.089 390.715 163.961C390.597 163.834 390.411 163.77 390.158 163.77C389.953 163.77 389.773 163.825 389.618 163.934C389.463 164.043 389.342 164.187 389.256 164.365V167H388.624V163.302H389.222ZM394.978 165.052V167H394.321V162.023H396.157C396.701 162.023 397.127 162.162 397.435 162.44C397.745 162.718 397.9 163.086 397.9 163.544C397.9 164.028 397.748 164.4 397.445 164.662C397.145 164.922 396.713 165.052 396.15 165.052H394.978ZM394.978 164.515H396.157C396.508 164.515 396.777 164.433 396.963 164.269C397.15 164.103 397.244 163.863 397.244 163.551C397.244 163.255 397.15 163.018 396.963 162.84C396.777 162.663 396.52 162.57 396.194 162.563H394.978V164.515ZM400.426 163.869C400.33 163.853 400.226 163.845 400.115 163.845C399.7 163.845 399.419 164.022 399.271 164.375V167H398.638V163.302H399.253L399.264 163.729C399.471 163.399 399.765 163.233 400.146 163.233C400.269 163.233 400.362 163.249 400.426 163.281V163.869ZM401.697 167H401.065V163.302H401.697V167ZM401.014 162.321C401.014 162.218 401.044 162.132 401.106 162.061C401.17 161.99 401.263 161.955 401.386 161.955C401.509 161.955 401.603 161.99 401.667 162.061C401.73 162.132 401.762 162.218 401.762 162.321C401.762 162.423 401.73 162.509 401.667 162.577C401.603 162.646 401.509 162.68 401.386 162.68C401.263 162.68 401.17 162.646 401.106 162.577C401.044 162.509 401.014 162.423 401.014 162.321ZM404.196 166.552C404.421 166.552 404.618 166.484 404.787 166.347C404.956 166.21 405.049 166.04 405.067 165.834H405.666C405.654 166.046 405.581 166.248 405.447 166.439C405.312 166.631 405.132 166.784 404.907 166.897C404.683 167.011 404.446 167.068 404.196 167.068C403.692 167.068 403.291 166.901 402.993 166.566C402.696 166.229 402.548 165.768 402.548 165.185V165.079C402.548 164.719 402.614 164.399 402.747 164.119C402.879 163.838 403.068 163.621 403.314 163.466C403.562 163.311 403.855 163.233 404.192 163.233C404.607 163.233 404.951 163.358 405.225 163.606C405.5 163.854 405.647 164.177 405.666 164.573H405.067C405.049 164.334 404.958 164.138 404.794 163.985C404.632 163.83 404.432 163.753 404.192 163.753C403.871 163.753 403.622 163.869 403.444 164.102C403.268 164.332 403.181 164.666 403.181 165.103V165.223C403.181 165.649 403.268 165.977 403.444 166.207C403.619 166.437 403.87 166.552 404.196 166.552ZM407.911 167.068C407.41 167.068 407.002 166.904 406.688 166.576C406.373 166.246 406.216 165.805 406.216 165.253V165.137C406.216 164.77 406.285 164.443 406.424 164.156C406.566 163.867 406.762 163.641 407.012 163.479C407.265 163.315 407.539 163.233 407.833 163.233C408.313 163.233 408.687 163.392 408.954 163.708C409.22 164.025 409.354 164.479 409.354 165.069V165.332H406.848C406.857 165.697 406.963 165.992 407.166 166.217C407.371 166.441 407.631 166.552 407.945 166.552C408.169 166.552 408.358 166.507 408.513 166.416C408.668 166.324 408.803 166.204 408.919 166.053L409.306 166.354C408.996 166.83 408.531 167.068 407.911 167.068ZM407.833 163.753C407.577 163.753 407.363 163.846 407.19 164.033C407.017 164.218 406.91 164.478 406.869 164.812H408.721V164.765C408.703 164.443 408.616 164.195 408.461 164.02C408.306 163.842 408.097 163.753 407.833 163.753Z" fill="#A2ABB8"/>
    <path d="M272.544 116.271C272.544 117.223 272.381 117.931 272.056 118.394C271.731 118.856 271.223 119.088 270.531 119.088C269.849 119.088 269.343 118.862 269.015 118.411C268.687 117.957 268.517 117.28 268.505 116.381V115.295C268.505 114.355 268.668 113.656 268.993 113.199C269.318 112.742 269.828 112.514 270.522 112.514C271.211 112.514 271.718 112.735 272.043 113.177C272.368 113.617 272.535 114.296 272.544 115.216V116.271ZM271.731 115.159C271.731 114.471 271.634 113.97 271.441 113.656C271.248 113.34 270.941 113.182 270.522 113.182C270.106 113.182 269.803 113.338 269.613 113.652C269.422 113.965 269.324 114.447 269.318 115.098V116.398C269.318 117.09 269.418 117.601 269.617 117.932C269.819 118.26 270.124 118.424 270.531 118.424C270.933 118.424 271.23 118.269 271.423 117.958C271.62 117.648 271.722 117.159 271.731 116.491V115.159ZM273.687 118.574C273.687 118.433 273.728 118.316 273.81 118.222C273.895 118.128 274.021 118.082 274.188 118.082C274.354 118.082 274.48 118.128 274.565 118.222C274.653 118.316 274.697 118.433 274.697 118.574C274.697 118.708 274.653 118.821 274.565 118.912C274.48 119.003 274.354 119.048 274.188 119.048C274.021 119.048 273.895 119.003 273.81 118.912C273.728 118.821 273.687 118.708 273.687 118.574ZM280.151 119H275.958V118.416L278.173 115.955C278.501 115.583 278.727 115.281 278.85 115.049C278.976 114.815 279.039 114.573 279.039 114.324C279.039 113.99 278.938 113.716 278.736 113.502C278.534 113.289 278.264 113.182 277.927 113.182C277.523 113.182 277.208 113.297 276.982 113.529C276.76 113.757 276.648 114.077 276.648 114.487H275.835C275.835 113.898 276.024 113.422 276.402 113.059C276.783 112.695 277.292 112.514 277.927 112.514C278.522 112.514 278.992 112.67 279.338 112.984C279.684 113.294 279.856 113.709 279.856 114.228C279.856 114.857 279.455 115.607 278.652 116.478L276.938 118.336H280.151V119ZM285.024 116.271C285.024 117.223 284.862 117.931 284.537 118.394C284.211 118.856 283.703 119.088 283.012 119.088C282.329 119.088 281.824 118.862 281.496 118.411C281.167 117.957 280.998 117.28 280.986 116.381V115.295C280.986 114.355 281.148 113.656 281.474 113.199C281.799 112.742 282.309 112.514 283.003 112.514C283.691 112.514 284.198 112.735 284.523 113.177C284.849 113.617 285.016 114.296 285.024 115.216V116.271ZM284.211 115.159C284.211 114.471 284.115 113.97 283.921 113.656C283.728 113.34 283.422 113.182 283.003 113.182C282.587 113.182 282.284 113.338 282.093 113.652C281.903 113.965 281.805 114.447 281.799 115.098V116.398C281.799 117.09 281.898 117.601 282.098 117.932C282.3 118.26 282.604 118.424 283.012 118.424C283.413 118.424 283.71 118.269 283.904 117.958C284.1 117.648 284.203 117.159 284.211 116.491V115.159ZM285.996 113.832C285.996 113.448 286.117 113.132 286.36 112.883C286.606 112.634 286.921 112.509 287.305 112.509C287.695 112.509 288.01 112.635 288.25 112.887C288.493 113.136 288.615 113.46 288.615 113.858V114.17C288.615 114.557 288.492 114.874 288.246 115.12C288.002 115.363 287.692 115.484 287.314 115.484C286.933 115.484 286.618 115.363 286.369 115.12C286.12 114.874 285.996 114.547 285.996 114.14V113.832ZM286.602 114.17C286.602 114.399 286.667 114.588 286.795 114.737C286.924 114.884 287.097 114.957 287.314 114.957C287.522 114.957 287.689 114.885 287.815 114.742C287.944 114.598 288.008 114.402 288.008 114.153V113.832C288.008 113.604 287.945 113.415 287.819 113.265C287.693 113.116 287.522 113.041 287.305 113.041C287.088 113.041 286.917 113.116 286.791 113.265C286.665 113.415 286.602 113.609 286.602 113.85V114.17ZM289.111 117.431C289.111 117.047 289.233 116.732 289.476 116.486C289.722 116.237 290.037 116.113 290.421 116.113C290.805 116.113 291.12 116.236 291.366 116.482C291.612 116.728 291.735 117.055 291.735 117.462V117.774C291.735 118.158 291.612 118.474 291.366 118.723C291.123 118.969 290.811 119.092 290.43 119.092C290.049 119.092 289.734 118.971 289.485 118.728C289.236 118.481 289.111 118.155 289.111 117.748V117.431ZM289.718 117.774C289.718 118.005 289.782 118.196 289.911 118.345C290.04 118.492 290.213 118.565 290.43 118.565C290.641 118.565 290.809 118.493 290.935 118.35C291.061 118.203 291.124 118.005 291.124 117.756V117.431C291.124 117.2 291.06 117.011 290.931 116.864C290.805 116.718 290.635 116.645 290.421 116.645C290.213 116.645 290.043 116.718 289.911 116.864C289.782 117.008 289.718 117.203 289.718 117.449V117.774ZM287.499 118.517L287.037 118.227L290.162 113.226L290.623 113.516L287.499 118.517Z" fill="#FF4F4F"/>
    <path d="M73.6071 29H198.442L143.193 311.312H73.6071C71.979 311.312 70.4175 310.666 69.2663 309.515C68.115 308.364 67.4683 306.803 67.4683 305.175V35.1372C67.4683 33.5095 68.115 31.9485 69.2663 30.7976C70.4175 29.6466 71.979 29 73.6071 29Z" fill="#6E747C"/>
    <path d="M97.1454 312H217L161.691 29H97.1454C95.5156 29 93.9525 29.6482 92.8 30.8019C91.6475 31.9557 91 33.5205 91 35.1522V305.848C91 307.479 91.6475 309.044 92.8 310.198C93.9525 311.352 95.5156 312 97.1454 312Z" fill="#979CA0"/>
    <path d="M31 312V29H161.587L180 123.334L143.174 312H31Z" fill="white"/>
    <path d="M96.6051 121.727L76.0005 155.857L96.6051 146.503V121.727Z" fill="#8B8B8B"/>
    <path d="M96.6046 146.503L76 155.856L96.6046 168.007V146.503Z" fill="#393939"/>
    <path d="M96.6047 121.726V146.503L117.19 155.856L96.6047 121.726Z" fill="#343434"/>
    <path d="M96.6047 146.503V168.007L117.19 155.856L96.6047 146.503Z" fill="#161616"/>
    <path d="M76 159.751L96.6046 188.74V171.913L76 159.751Z" fill="#8B8B8B"/>
    <path d="M117.209 159.751L96.6047 171.913V188.74L117.209 159.751Z" fill="#343434"/>
    <circle cx="121.711" cy="156" r="12.5" fill="#34D6A3" stroke="white" stroke-width="3"/>
    <path d="M86.5056 218.287H81.2497V222.225H87.3933V224H79.0261V211.203H87.3317V212.996H81.2497V216.529H86.5056V218.287ZM98.6257 212.996H94.6355V224H92.4294V212.996H88.4743V211.203H98.6257V212.996ZM110.473 224H108.259V218.313H102.537V224H100.313V211.203H102.537V216.529H108.259V211.203H110.473V224Z" fill="black"/>
    <path d="M121.711 161.882V156" stroke="white" stroke-width="2"/>
    <path d="M126.711 156H116.711L121.711 149L126.711 156Z" fill="white"/>
    <rect x="223.5" y="137.5" width="213" height="76" rx="1.5" stroke="#576371"/>
    <rect x="223" y="64" width="176" height="40" fill="#394049"/>
    <rect x="401" y="64" width="36" height="40" fill="#394049"/>
    <path d="M243.598 91H241.353V80.1548L238.041 81.2866V79.3848L243.31 77.4458H243.598V91Z" fill="white"/>
    <path d="M411.99 90.1953L413.679 94.6823L415.364 90.1953H416.678V96.0492H415.665V94.1194L415.766 91.5382L414.037 96.0492H413.309L411.584 91.5422L411.685 94.1194V96.0492H410.672V90.1953H411.99Z" fill="white"/>
    <path d="M421.234 94.6863H418.966L418.492 96.0492H417.434L419.645 90.1953H420.558L422.773 96.0492H421.712L421.234 94.6863ZM419.251 93.8661H420.948L420.1 91.4377L419.251 93.8661Z" fill="white"/>
    <path d="M425.455 92.3101L426.685 90.1953H427.859L426.09 93.0982L427.9 96.0492H426.714L425.455 93.9023L424.193 96.0492H423.011L424.824 93.0982L423.051 90.1953H424.225L425.455 92.3101Z" fill="white"/>
    <path d="M351.514 83.9321H348.423V86.2479H352.036V87.2921H347.115V79.7656H352V80.8202H348.423V82.8982H351.514V83.9321Z" fill="white"/>
    <path d="M358.642 80.8202H356.295V87.2921H354.998V80.8202H352.672V79.7656H358.642V80.8202Z" fill="white"/>
    <path d="M365.61 87.2921H364.308V83.9476H360.943V87.2921H359.635V79.7656H360.943V82.8982H364.308V79.7656H365.61V87.2921Z" fill="white"/>
    <path d="M419 82.5289V79" stroke="white" stroke-width="2"/>
    <path d="M423 79H415L419 72L423 79Z" fill="white"/>
    <rect x="324.5" y="72.5" width="66" height="23" rx="11.5" stroke="white"/>
    <path d="M381.639 82.5869H374.581L378.11 86.1158L381.639 82.5869Z" fill="white"/>
    <path d="M332.234 83.8727L335.851 77.8818V86.0056L332.234 83.8727Z" fill="white"/>
    <path d="M335.851 77.8818V86.0056L339.464 83.8727L335.851 77.8818Z" fill="white"/>
    <path d="M332.234 84.5565L335.851 89.6449V86.6912L332.234 84.5565Z" fill="white"/>
    <path d="M335.851 86.6912L339.468 84.5565L335.851 89.6449V86.6912Z" fill="white"/>
    <rect x="4" y="4" width="54" height="54" rx="27" fill="#276BFB" stroke="#E9F4FF" stroke-width="8"/>
    <path d="M35.4767 35.11V37H26.8727V35.29L31.2287 30.592C31.7447 30.028 32.1227 29.512 32.3627 29.044C32.6027 28.576 32.7227 28.114 32.7227 27.658C32.7227 27.07 32.5487 26.626 32.2007 26.326C31.8647 26.026 31.3787 25.876 30.7427 25.876C29.6147 25.876 28.4567 26.32 27.2687 27.208L26.4947 25.516C26.9987 25.06 27.6467 24.7 28.4387 24.436C29.2307 24.16 30.0287 24.022 30.8327 24.022C32.1167 24.022 33.1307 24.34 33.8747 24.976C34.6307 25.6 35.0087 26.446 35.0087 27.514C35.0087 28.246 34.8467 28.936 34.5227 29.584C34.2107 30.232 33.6827 30.958 32.9387 31.762L29.7887 35.11H35.4767Z" fill="white"/>
    <defs>
        <filter id="filter0" x="17" y="25" width="469" height="332" filterUnits="userSpaceOnUse" color-interpolation-filters="sRGB">
            <feFlood flood-opacity="0" result="BackgroundImageFix"/>
            <feBlend mode="normal" in="SourceGraphic" in2="BackgroundImageFix" result="shape"/>
            <feGaussianBlur stdDeviation="13" result="effect1_foregroundBlur"/>
        </filter>
    </defs>
</svg>
