<svg width="440" height="282" viewBox="0 0 440 282" fill="none" xmlns="http://www.w3.org/2000/svg">
<path d="M0 0H440V282H0V0Z" fill="#444E5A"/>
<rect x="272.381" y="214.24" width="132.698" height="32.8834" rx="16.4417" fill="#276BFB"/>
<path d="M293.738 234.31H296.643V235.197H292.626V228.799H293.738V234.31ZM301.955 232.341H299.327V234.31H302.399V235.197H298.215V228.799H302.368V229.695H299.327V231.462H301.955V232.341ZM306.279 233.804L307.905 228.799H309.126L306.824 235.197H305.747L303.453 228.799H304.67L306.279 233.804ZM314.311 232.341H311.683V234.31H314.755V235.197H310.571V228.799H314.724V229.695H311.683V231.462H314.311V232.341ZM318.731 232.732H317.492V235.197H316.38V228.799H318.63C319.369 228.799 319.938 228.964 320.34 229.295C320.741 229.626 320.942 230.105 320.942 230.732C320.942 231.16 320.838 231.519 320.63 231.809C320.425 232.096 320.138 232.317 319.768 232.473L321.205 235.14V235.197H320.015L318.731 232.732ZM317.492 231.84H318.635C319.01 231.84 319.303 231.746 319.514 231.559C319.724 231.368 319.83 231.109 319.83 230.781C319.83 230.438 319.732 230.173 319.536 229.985C319.342 229.798 319.052 229.701 318.665 229.695H317.492V231.84ZM326.298 233.708H323.819L323.301 235.197H322.145L324.562 228.799H325.56L327.981 235.197H326.821L326.298 233.708ZM324.131 232.811H325.986L325.059 230.157L324.131 232.811ZM334.238 234.367C334.007 234.668 333.686 234.897 333.276 235.052C332.866 235.208 332.4 235.285 331.878 235.285C331.342 235.285 330.868 235.164 330.455 234.92C330.041 234.677 329.722 234.33 329.497 233.879C329.274 233.425 329.158 232.896 329.149 232.292V231.792C329.149 230.825 329.381 230.07 329.844 229.528C330.307 228.983 330.953 228.711 331.782 228.711C332.494 228.711 333.059 228.887 333.478 229.238C333.897 229.59 334.149 230.097 334.234 230.759H333.144C333.021 229.988 332.574 229.603 331.804 229.603C331.306 229.603 330.926 229.783 330.665 230.144C330.408 230.501 330.274 231.027 330.266 231.721V232.213C330.266 232.905 330.411 233.442 330.701 233.826C330.994 234.207 331.399 234.397 331.918 234.397C332.486 234.397 332.891 234.269 333.131 234.011V232.758H331.812V231.915H334.238V234.367ZM339.92 232.341H337.292V234.31H340.363V235.197H336.18V228.799H340.333V229.695H337.292V231.462H339.92V232.341ZM349.081 235.197H344.779V234.463L346.91 232.139C347.218 231.796 347.436 231.51 347.565 231.282C347.697 231.05 347.762 230.819 347.762 230.587C347.762 230.283 347.676 230.037 347.503 229.849C347.333 229.662 347.103 229.568 346.813 229.568C346.468 229.568 346.199 229.673 346.009 229.884C345.819 230.095 345.723 230.384 345.723 230.75H344.656C344.656 230.36 344.743 230.01 344.919 229.7C345.098 229.386 345.351 229.143 345.679 228.97C346.011 228.797 346.391 228.711 346.822 228.711C347.443 228.711 347.932 228.868 348.29 229.181C348.65 229.492 348.83 229.922 348.83 230.473C348.83 230.792 348.74 231.128 348.558 231.479C348.379 231.828 348.085 232.225 347.675 232.67L346.11 234.345H349.081V235.197ZM351.348 234.072C351.547 234.072 351.701 234.129 351.809 234.244C351.918 234.355 351.972 234.496 351.972 234.666C351.972 234.833 351.918 234.972 351.809 235.083C351.701 235.191 351.547 235.246 351.348 235.246C351.157 235.246 351.006 235.191 350.895 235.083C350.784 234.975 350.728 234.835 350.728 234.666C350.728 234.496 350.782 234.355 350.891 234.244C350.999 234.129 351.151 234.072 351.348 234.072ZM358.018 232.503C358.018 233.423 357.845 234.118 357.499 234.586C357.157 235.052 356.634 235.285 355.93 235.285C355.239 235.285 354.718 235.058 354.366 234.604C354.017 234.147 353.839 233.472 353.83 232.578V231.471C353.83 230.551 354.001 229.861 354.344 229.401C354.69 228.941 355.216 228.711 355.922 228.711C356.622 228.711 357.143 228.935 357.486 229.383C357.832 229.832 358.009 230.502 358.018 231.396V232.503ZM356.95 231.308C356.95 230.708 356.868 230.268 356.704 229.99C356.54 229.708 356.279 229.568 355.922 229.568C355.573 229.568 355.317 229.701 355.153 229.968C354.989 230.231 354.902 230.645 354.893 231.207V232.657C354.893 233.255 354.977 233.7 355.144 233.993C355.311 234.286 355.573 234.433 355.93 234.433C356.273 234.433 356.527 234.298 356.691 234.028C356.855 233.756 356.941 233.331 356.95 232.754V231.308ZM363.853 232.503C363.853 233.423 363.68 234.118 363.335 234.586C362.992 235.052 362.469 235.285 361.766 235.285C361.074 235.285 360.553 235.058 360.201 234.604C359.853 234.147 359.674 233.472 359.665 232.578V231.471C359.665 230.551 359.837 229.861 360.179 229.401C360.525 228.941 361.051 228.711 361.757 228.711C362.457 228.711 362.979 228.935 363.321 229.383C363.667 229.832 363.844 230.502 363.853 231.396V232.503ZM362.785 231.308C362.785 230.708 362.703 230.268 362.539 229.99C362.375 229.708 362.114 229.568 361.757 229.568C361.408 229.568 361.152 229.701 360.988 229.968C360.824 230.231 360.737 230.645 360.729 231.207V232.657C360.729 233.255 360.812 233.7 360.979 233.993C361.146 234.286 361.408 234.433 361.766 234.433C362.109 234.433 362.362 234.298 362.526 234.028C362.69 233.756 362.776 233.331 362.785 232.754V231.308ZM372.39 232.341H369.762V234.31H372.834V235.197H368.651V228.799H372.803V229.695H369.762V231.462H372.39V232.341ZM379.17 229.695H377.175V235.197H376.072V229.695H374.095V228.799H379.17V229.695ZM385.814 235.197H384.707V232.354H381.846V235.197H380.734V228.799H381.846V231.462H384.707V228.799H385.814V235.197Z" fill="white"/>
<path d="M229.927 233.426C229.87 234.033 229.646 234.507 229.255 234.848C228.865 235.187 228.345 235.356 227.697 235.356C227.243 235.356 226.844 235.249 226.497 235.036C226.154 234.819 225.888 234.514 225.701 234.118C225.513 233.722 225.415 233.262 225.408 232.739V232.208C225.408 231.671 225.503 231.198 225.693 230.79C225.883 230.381 226.155 230.066 226.509 229.844C226.866 229.623 227.277 229.512 227.743 229.512C228.371 229.512 228.876 229.683 229.259 230.024C229.642 230.365 229.865 230.847 229.927 231.469H228.943C228.896 231.06 228.776 230.766 228.583 230.586C228.393 230.404 228.113 230.313 227.743 230.313C227.314 230.313 226.983 230.471 226.751 230.786C226.522 231.098 226.405 231.558 226.4 232.165V232.668C226.4 233.283 226.509 233.752 226.728 234.075C226.949 234.398 227.272 234.559 227.697 234.559C228.085 234.559 228.376 234.472 228.572 234.297C228.767 234.123 228.891 233.833 228.943 233.426H229.927ZM233.247 235.278C233.206 235.197 233.169 235.066 233.138 234.883C232.836 235.198 232.466 235.356 232.029 235.356C231.604 235.356 231.258 235.235 230.99 234.993C230.721 234.75 230.587 234.451 230.587 234.094C230.587 233.644 230.754 233.299 231.087 233.059C231.423 232.817 231.902 232.696 232.525 232.696H233.107V232.418C233.107 232.2 233.046 232.025 232.923 231.895C232.801 231.762 232.615 231.696 232.365 231.696C232.148 231.696 231.971 231.75 231.833 231.86C231.695 231.967 231.626 232.103 231.626 232.27H230.677C230.677 232.038 230.754 231.822 230.908 231.622C231.061 231.418 231.27 231.26 231.533 231.145C231.798 231.03 232.094 230.973 232.419 230.973C232.914 230.973 233.309 231.098 233.603 231.348C233.897 231.596 234.048 231.944 234.056 232.395V234.301C234.056 234.681 234.109 234.985 234.216 235.211V235.278H233.247ZM232.204 234.594C232.392 234.594 232.568 234.549 232.732 234.458C232.898 234.366 233.023 234.244 233.107 234.09V233.293H232.595C232.243 233.293 231.979 233.355 231.802 233.477C231.625 233.599 231.536 233.773 231.536 233.997C231.536 234.179 231.596 234.325 231.716 234.434C231.839 234.541 232.001 234.594 232.204 234.594ZM235.931 231.051L235.958 231.54C236.271 231.162 236.681 230.973 237.189 230.973C238.069 230.973 238.517 231.477 238.533 232.485V235.278H237.583V232.54C237.583 232.271 237.525 232.073 237.408 231.946C237.293 231.816 237.104 231.75 236.841 231.75C236.458 231.75 236.173 231.924 235.986 232.27V235.278H235.036V231.051H235.931ZM241.24 234.598C241.477 234.598 241.673 234.529 241.829 234.391C241.986 234.253 242.069 234.083 242.079 233.879H242.974C242.964 234.142 242.882 234.389 242.728 234.618C242.574 234.844 242.366 235.024 242.103 235.157C241.84 235.29 241.556 235.356 241.251 235.356C240.66 235.356 240.191 235.165 239.845 234.782C239.499 234.399 239.326 233.87 239.326 233.196V233.098C239.326 232.455 239.497 231.941 239.841 231.555C240.185 231.167 240.654 230.973 241.247 230.973C241.75 230.973 242.159 231.12 242.474 231.415C242.792 231.706 242.958 232.09 242.974 232.567H242.079C242.069 232.325 241.986 232.125 241.829 231.969C241.676 231.813 241.479 231.735 241.24 231.735C240.932 231.735 240.695 231.847 240.529 232.071C240.362 232.292 240.277 232.629 240.275 233.083V233.235C240.275 233.693 240.357 234.036 240.521 234.262C240.688 234.486 240.927 234.598 241.24 234.598ZM245.552 235.356C244.951 235.356 244.462 235.167 244.087 234.79C243.715 234.409 243.529 233.904 243.529 233.274V233.157C243.529 232.735 243.609 232.359 243.771 232.028C243.935 231.694 244.164 231.435 244.458 231.25C244.753 231.066 245.081 230.973 245.443 230.973C246.018 230.973 246.462 231.157 246.775 231.524C247.09 231.891 247.247 232.411 247.247 233.083V233.465H244.486C244.514 233.814 244.63 234.09 244.833 234.293C245.039 234.497 245.297 234.598 245.607 234.598C246.042 234.598 246.396 234.422 246.669 234.071L247.181 234.559C247.012 234.812 246.785 235.008 246.501 235.149C246.22 235.287 245.904 235.356 245.552 235.356ZM245.439 231.735C245.178 231.735 244.967 231.826 244.806 232.008C244.647 232.191 244.546 232.444 244.501 232.77H246.31V232.7C246.289 232.382 246.204 232.142 246.056 231.981C245.908 231.817 245.702 231.735 245.439 231.735ZM248.997 235.278H248.048V229.278H248.997V235.278Z" fill="#A2ABB8"/>
<path d="M226.716 238.999H224.369V240.171H226.716V238.999Z" fill="#A2ABB8"/>
<path d="M231.411 238.999H229.063V240.171H231.411V238.999Z" fill="#A2ABB8"/>
<path d="M233.758 238.999H236.105V240.171H233.758V238.999Z" fill="#A2ABB8"/>
<path d="M240.8 238.999H238.452V240.171H240.8V238.999Z" fill="#A2ABB8"/>
<path d="M243.147 238.999H245.494V240.171H243.147V238.999Z" fill="#A2ABB8"/>
<path d="M250.189 238.999H247.841V240.171H250.189V238.999Z" fill="#A2ABB8"/>
<path d="M194.193 86.8584C193.469 86.6504 192.942 86.3955 192.611 86.0938C192.282 85.7891 192.118 85.4141 192.118 84.9688C192.118 84.4648 192.319 84.0488 192.72 83.7207C193.125 83.3896 193.649 83.2241 194.294 83.2241C194.733 83.2241 195.124 83.3091 195.467 83.479C195.813 83.6489 196.079 83.8833 196.267 84.1821C196.457 84.481 196.552 84.8076 196.552 85.1621H195.704C195.704 84.7754 195.581 84.4722 195.335 84.2524C195.089 84.0298 194.742 83.9185 194.294 83.9185C193.878 83.9185 193.552 84.0107 193.318 84.1953C193.087 84.377 192.971 84.6304 192.971 84.9556C192.971 85.2163 193.081 85.4375 193.3 85.6191C193.523 85.7979 193.9 85.9619 194.43 86.1113C194.963 86.2607 195.379 86.4263 195.678 86.6079C195.98 86.7866 196.202 86.9961 196.346 87.2363C196.492 87.4766 196.566 87.7593 196.566 88.0845C196.566 88.603 196.363 89.019 195.959 89.3325C195.555 89.6431 195.014 89.7983 194.338 89.7983C193.898 89.7983 193.488 89.7148 193.107 89.5479C192.726 89.3779 192.432 89.1465 192.224 88.8535C192.019 88.5605 191.916 88.228 191.916 87.856H192.764C192.764 88.2427 192.906 88.5488 193.191 88.7744C193.478 88.9971 193.86 89.1084 194.338 89.1084C194.783 89.1084 195.124 89.0176 195.361 88.8359C195.599 88.6543 195.717 88.4067 195.717 88.0933C195.717 87.7798 195.608 87.5381 195.388 87.3682C195.168 87.1953 194.77 87.0254 194.193 86.8584ZM198.407 89.7104H197.594V82.9604H198.407V89.7104ZM200.595 89.7104H199.782V84.9556H200.595V89.7104ZM199.716 83.6943C199.716 83.5625 199.756 83.4512 199.835 83.3604C199.917 83.2695 200.037 83.2241 200.195 83.2241C200.354 83.2241 200.474 83.2695 200.556 83.3604C200.638 83.4512 200.679 83.5625 200.679 83.6943C200.679 83.8262 200.638 83.936 200.556 84.0239C200.474 84.1118 200.354 84.1558 200.195 84.1558C200.037 84.1558 199.917 84.1118 199.835 84.0239C199.756 83.936 199.716 83.8262 199.716 83.6943ZM205.917 87.3857C205.917 88.1094 205.752 88.6924 205.421 89.1348C205.09 89.5771 204.641 89.7983 204.076 89.7983C203.499 89.7983 203.045 89.6152 202.714 89.249V91.5386H201.901V84.9556H202.643L202.683 85.4829C203.014 85.0728 203.474 84.8677 204.063 84.8677C204.634 84.8677 205.085 85.083 205.416 85.5137C205.75 85.9443 205.917 86.5435 205.917 87.311V87.3857ZM205.104 87.2935C205.104 86.7573 204.99 86.334 204.761 86.0234C204.533 85.7129 204.219 85.5576 203.821 85.5576C203.329 85.5576 202.96 85.7759 202.714 86.2124V88.4844C202.957 88.918 203.329 89.1348 203.83 89.1348C204.219 89.1348 204.528 88.981 204.757 88.6733C204.988 88.3628 205.104 87.9028 205.104 87.2935ZM210.971 87.3857C210.971 88.1094 210.805 88.6924 210.474 89.1348C210.143 89.5771 209.695 89.7983 209.13 89.7983C208.552 89.7983 208.098 89.6152 207.767 89.249V91.5386H206.954V84.9556H207.697L207.736 85.4829C208.068 85.0728 208.528 84.8677 209.116 84.8677C209.688 84.8677 210.139 85.083 210.47 85.5137C210.804 85.9443 210.971 86.5435 210.971 87.311V87.3857ZM210.158 87.2935C210.158 86.7573 210.044 86.334 209.815 86.0234C209.587 85.7129 209.273 85.5576 208.875 85.5576C208.382 85.5576 208.013 85.7759 207.767 86.2124V88.4844C208.01 88.918 208.382 89.1348 208.883 89.1348C209.273 89.1348 209.582 88.981 209.811 88.6733C210.042 88.3628 210.158 87.9028 210.158 87.2935ZM214.944 89.7104C214.897 89.6167 214.859 89.4497 214.829 89.2095C214.451 89.6021 214 89.7983 213.476 89.7983C213.007 89.7983 212.622 89.6665 212.32 89.4028C212.021 89.1362 211.872 88.7993 211.872 88.3921C211.872 87.897 212.059 87.5132 212.434 87.2407C212.812 86.9653 213.342 86.8276 214.025 86.8276H214.816V86.4541C214.816 86.1699 214.731 85.9443 214.561 85.7773C214.391 85.6074 214.141 85.5225 213.81 85.5225C213.52 85.5225 213.277 85.5957 213.08 85.7422C212.884 85.8887 212.786 86.0659 212.786 86.2739H211.968C211.968 86.0366 212.052 85.8081 212.219 85.5884C212.389 85.3657 212.617 85.1899 212.904 85.061C213.195 84.9321 213.512 84.8677 213.858 84.8677C214.406 84.8677 214.835 85.0054 215.146 85.2808C215.456 85.5532 215.617 85.9297 215.629 86.4102V88.5986C215.629 89.0352 215.685 89.3823 215.796 89.6401V89.7104H214.944ZM213.594 89.0908C213.849 89.0908 214.091 89.0249 214.32 88.8931C214.548 88.7612 214.714 88.5898 214.816 88.3789V87.4033H214.179C213.183 87.4033 212.685 87.6948 212.685 88.2778C212.685 88.5327 212.77 88.7319 212.94 88.8755C213.11 89.019 213.328 89.0908 213.594 89.0908ZM216.71 87.2935C216.71 86.5522 216.882 85.9634 217.224 85.5269C217.567 85.0874 218.021 84.8677 218.587 84.8677C219.167 84.8677 219.619 85.0728 219.945 85.4829L219.984 84.9556H220.727V89.5962C220.727 90.2114 220.544 90.6963 220.177 91.0508C219.814 91.4053 219.325 91.5825 218.71 91.5825C218.367 91.5825 218.031 91.5093 217.703 91.3628C217.375 91.2163 217.125 91.0156 216.952 90.7607L217.374 90.2729C217.722 90.7036 218.149 90.9189 218.653 90.9189C219.048 90.9189 219.356 90.8076 219.575 90.585C219.798 90.3623 219.909 90.0488 219.909 89.6445V89.2358C219.584 89.6108 219.14 89.7983 218.578 89.7983C218.021 89.7983 217.57 89.5742 217.224 89.126C216.882 88.6777 216.71 88.0669 216.71 87.2935ZM217.528 87.3857C217.528 87.9219 217.637 88.3438 217.857 88.6514C218.077 88.9561 218.384 89.1084 218.78 89.1084C219.293 89.1084 219.669 88.8755 219.909 88.4097V86.2388C219.66 85.7847 219.287 85.5576 218.789 85.5576C218.393 85.5576 218.084 85.7114 217.861 86.019C217.639 86.3267 217.528 86.7822 217.528 87.3857ZM223.93 89.7983C223.286 89.7983 222.761 89.5874 222.357 89.1655C221.953 88.7407 221.751 88.1738 221.751 87.4648V87.3154C221.751 86.8438 221.84 86.4233 222.019 86.0542C222.2 85.6821 222.452 85.3921 222.775 85.1841C223.1 84.9731 223.451 84.8677 223.829 84.8677C224.447 84.8677 224.928 85.0713 225.271 85.4785C225.613 85.8857 225.785 86.4688 225.785 87.2275V87.5659H222.564C222.575 88.0347 222.712 88.4141 222.972 88.7041C223.236 88.9912 223.57 89.1348 223.974 89.1348C224.261 89.1348 224.505 89.0762 224.704 88.959C224.903 88.8418 225.077 88.6865 225.227 88.4932L225.723 88.8799C225.325 89.4922 224.727 89.7983 223.93 89.7983ZM223.829 85.5356C223.501 85.5356 223.226 85.6558 223.003 85.896C222.78 86.1333 222.643 86.4673 222.59 86.8979H224.972V86.8364C224.948 86.4233 224.837 86.104 224.638 85.8784C224.439 85.6499 224.169 85.5356 223.829 85.5356ZM226.703 89.2842C226.703 89.1436 226.744 89.0264 226.826 88.9326C226.911 88.8389 227.037 88.792 227.204 88.792C227.371 88.792 227.497 88.8389 227.582 88.9326C227.67 89.0264 227.714 89.1436 227.714 89.2842C227.714 89.4189 227.67 89.5317 227.582 89.6226C227.497 89.7134 227.371 89.7588 227.204 89.7588C227.037 89.7588 226.911 89.7134 226.826 89.6226C226.744 89.5317 226.703 89.4189 226.703 89.2842ZM226.708 85.4038C226.708 85.2632 226.749 85.146 226.831 85.0522C226.916 84.9585 227.042 84.9116 227.209 84.9116C227.376 84.9116 227.502 84.9585 227.587 85.0522C227.674 85.146 227.718 85.2632 227.718 85.4038C227.718 85.5386 227.674 85.6514 227.587 85.7422C227.502 85.833 227.376 85.8784 227.209 85.8784C227.042 85.8784 226.916 85.833 226.831 85.7422C226.749 85.6514 226.708 85.5386 226.708 85.4038Z" fill="#A2ABB8"/>
<path d="M231.593 135.237H229.436V137H231.941V137.537H228.78V132.561H231.907V133.101H229.436V134.7H231.593V135.237ZM233.257 133.839L233.278 134.304C233.56 133.948 233.929 133.771 234.385 133.771C235.167 133.771 235.561 134.211 235.568 135.093V137.537H234.935V135.09C234.933 134.823 234.872 134.626 234.751 134.499C234.632 134.371 234.447 134.307 234.194 134.307C233.989 134.307 233.809 134.362 233.654 134.471C233.499 134.581 233.378 134.724 233.291 134.902V137.537H232.659V133.839H233.257ZM237.379 132.943V133.839H238.07V134.328H237.379V136.621C237.379 136.769 237.41 136.881 237.472 136.956C237.533 137.029 237.638 137.065 237.786 137.065C237.859 137.065 237.959 137.052 238.087 137.024V137.537C237.921 137.583 237.759 137.605 237.602 137.605C237.319 137.605 237.106 137.52 236.962 137.349C236.819 137.178 236.747 136.936 236.747 136.621V134.328H236.074V133.839H236.747V132.943H237.379ZM240.599 134.406C240.503 134.39 240.4 134.382 240.288 134.382C239.873 134.382 239.592 134.559 239.444 134.912V137.537H238.811V133.839H239.427L239.437 134.266C239.644 133.936 239.938 133.771 240.319 133.771C240.442 133.771 240.535 133.786 240.599 133.818V134.406ZM242.455 136.611L243.316 133.839H243.993L242.506 138.108C242.276 138.723 241.91 139.031 241.409 139.031L241.289 139.021L241.054 138.976V138.463L241.225 138.477C241.439 138.477 241.605 138.434 241.724 138.347C241.844 138.261 241.943 138.102 242.021 137.872L242.161 137.496L240.842 133.839H241.532L242.455 136.611ZM247.052 135.589V137.537H246.396V132.561H248.231C248.776 132.561 249.202 132.7 249.51 132.978C249.82 133.256 249.975 133.624 249.975 134.082C249.975 134.565 249.823 134.937 249.52 135.199C249.219 135.459 248.787 135.589 248.225 135.589H247.052ZM247.052 135.052H248.231C248.582 135.052 248.851 134.97 249.038 134.806C249.225 134.64 249.318 134.401 249.318 134.088C249.318 133.792 249.225 133.555 249.038 133.377C248.851 133.2 248.595 133.107 248.269 133.101H247.052V135.052ZM252.5 134.406C252.405 134.39 252.301 134.382 252.189 134.382C251.775 134.382 251.493 134.559 251.345 134.912V137.537H250.713V133.839H251.328L251.338 134.266C251.546 133.936 251.84 133.771 252.22 133.771C252.343 133.771 252.437 133.786 252.5 133.818V134.406ZM253.772 137.537H253.14V133.839H253.772V137.537ZM253.088 132.858C253.088 132.755 253.119 132.669 253.181 132.598C253.244 132.528 253.338 132.492 253.461 132.492C253.584 132.492 253.677 132.528 253.741 132.598C253.805 132.669 253.837 132.755 253.837 132.858C253.837 132.96 253.805 133.046 253.741 133.114C253.677 133.183 253.584 133.217 253.461 133.217C253.338 133.217 253.244 133.183 253.181 133.114C253.119 133.046 253.088 132.96 253.088 132.858ZM256.27 137.089C256.496 137.089 256.693 137.021 256.862 136.884C257.03 136.748 257.124 136.577 257.142 136.372H257.74C257.729 136.583 257.656 136.785 257.521 136.977C257.387 137.168 257.207 137.321 256.981 137.435C256.758 137.549 256.521 137.605 256.27 137.605C255.767 137.605 255.366 137.438 255.067 137.103C254.771 136.766 254.623 136.306 254.623 135.722V135.616C254.623 135.256 254.689 134.936 254.821 134.656C254.953 134.375 255.143 134.158 255.389 134.003C255.637 133.848 255.93 133.771 256.267 133.771C256.682 133.771 257.026 133.895 257.299 134.143C257.575 134.391 257.722 134.714 257.74 135.11H257.142C257.124 134.871 257.033 134.675 256.869 134.522C256.707 134.368 256.506 134.29 256.267 134.29C255.946 134.29 255.696 134.406 255.519 134.639C255.343 134.869 255.255 135.203 255.255 135.64V135.76C255.255 136.186 255.343 136.514 255.519 136.744C255.694 136.974 255.945 137.089 256.27 137.089ZM259.986 137.605C259.484 137.605 259.077 137.441 258.762 137.113C258.448 136.783 258.29 136.342 258.29 135.791V135.674C258.29 135.307 258.36 134.98 258.499 134.693C258.64 134.404 258.836 134.178 259.087 134.017C259.34 133.853 259.613 133.771 259.907 133.771C260.388 133.771 260.762 133.929 261.028 134.246C261.295 134.562 261.428 135.016 261.428 135.606V135.869H258.923C258.932 136.234 259.038 136.529 259.241 136.754C259.446 136.978 259.706 137.089 260.02 137.089C260.243 137.089 260.432 137.044 260.587 136.953C260.742 136.861 260.878 136.741 260.994 136.59L261.38 136.891C261.07 137.367 260.606 137.605 259.986 137.605ZM259.907 134.29C259.652 134.29 259.438 134.383 259.265 134.57C259.091 134.755 258.984 135.015 258.943 135.35H260.796V135.302C260.778 134.98 260.691 134.732 260.536 134.557C260.381 134.379 260.171 134.29 259.907 134.29Z" fill="#A2ABB8"/>
<path d="M212.668 161.508H211.013V153.517L208.573 154.351V152.949L212.456 151.521H212.668V161.508ZM222.751 152.478L218.772 161.508H217.029L221.001 152.888H215.853V151.555H222.751V152.478ZM224.528 156.572L225.068 151.555H230.414V152.99H226.449L226.175 155.369C226.636 155.105 227.155 154.973 227.734 154.973C228.682 154.973 229.418 155.276 229.942 155.882C230.471 156.488 230.735 157.304 230.735 158.329C230.735 159.341 230.443 160.147 229.86 160.749C229.277 161.346 228.477 161.645 227.461 161.645C226.549 161.645 225.793 161.387 225.191 160.872C224.594 160.353 224.271 159.669 224.22 158.821H225.827C225.891 159.304 226.064 159.676 226.346 159.936C226.629 160.191 226.998 160.318 227.454 160.318C227.964 160.318 228.361 160.136 228.643 159.771C228.93 159.407 229.074 158.91 229.074 158.281C229.074 157.675 228.917 157.197 228.602 156.846C228.288 156.49 227.855 156.312 227.303 156.312C227.003 156.312 226.747 156.354 226.538 156.436C226.328 156.513 226.1 156.668 225.854 156.9L224.528 156.572ZM233.182 159.758C233.492 159.758 233.731 159.847 233.9 160.024C234.069 160.198 234.153 160.416 234.153 160.681C234.153 160.94 234.069 161.157 233.9 161.33C233.731 161.499 233.492 161.583 233.182 161.583C232.886 161.583 232.651 161.499 232.478 161.33C232.305 161.161 232.218 160.945 232.218 160.681C232.218 160.416 232.303 160.198 232.471 160.024C232.64 159.847 232.877 159.758 233.182 159.758ZM242.575 152.478L238.596 161.508H236.853L240.825 152.888H235.677V151.555H242.575V152.478ZM249.527 157.96H250.764V159.293H249.527V161.508H247.866V159.293H243.566L243.518 158.281L247.811 151.555H249.527V157.96ZM245.261 157.96H247.866V153.804L247.743 154.022L245.261 157.96ZM262.898 151.555V158.206C262.898 159.263 262.559 160.102 261.88 160.722C261.205 161.337 260.305 161.645 259.179 161.645C258.04 161.645 257.135 161.341 256.466 160.735C255.796 160.125 255.461 159.279 255.461 158.199V151.555H257.183V158.213C257.183 158.878 257.352 159.386 257.689 159.737C258.026 160.088 258.523 160.264 259.179 160.264C260.51 160.264 261.175 159.562 261.175 158.158V151.555H262.898ZM269.953 158.944C269.953 158.507 269.798 158.17 269.488 157.933C269.183 157.696 268.629 157.456 267.827 157.215C267.025 156.973 266.387 156.704 265.913 156.408C265.006 155.839 264.552 155.096 264.552 154.18C264.552 153.378 264.878 152.717 265.53 152.197C266.186 151.678 267.036 151.418 268.08 151.418C268.772 151.418 269.39 151.546 269.932 151.801C270.475 152.056 270.901 152.421 271.211 152.895C271.521 153.364 271.675 153.886 271.675 154.46H269.953C269.953 153.94 269.789 153.535 269.461 153.243C269.137 152.947 268.672 152.799 268.066 152.799C267.501 152.799 267.061 152.92 266.747 153.161C266.437 153.403 266.282 153.74 266.282 154.173C266.282 154.537 266.451 154.843 266.788 155.089C267.125 155.33 267.681 155.567 268.456 155.8C269.23 156.028 269.853 156.29 270.322 156.586C270.791 156.878 271.135 157.215 271.354 157.598C271.573 157.976 271.682 158.42 271.682 158.931C271.682 159.76 271.363 160.421 270.725 160.913C270.092 161.401 269.23 161.645 268.141 161.645C267.421 161.645 266.758 161.512 266.152 161.248C265.55 160.979 265.081 160.61 264.744 160.141C264.411 159.671 264.245 159.124 264.245 158.5H265.974C265.974 159.065 266.161 159.503 266.535 159.812C266.909 160.122 267.444 160.277 268.141 160.277C268.743 160.277 269.194 160.157 269.495 159.915C269.8 159.669 269.953 159.345 269.953 158.944ZM273.2 161.508V151.555H276.139C277.019 151.555 277.798 151.751 278.477 152.143C279.161 152.535 279.689 153.09 280.063 153.811C280.437 154.531 280.624 155.355 280.624 156.285V156.784C280.624 157.728 280.435 158.557 280.056 159.272C279.683 159.988 279.147 160.539 278.45 160.927C277.757 161.314 276.962 161.508 276.064 161.508H273.2ZM274.929 152.949V160.127H276.057C276.964 160.127 277.659 159.844 278.142 159.279C278.63 158.71 278.878 157.894 278.887 156.832V156.278C278.887 155.198 278.653 154.373 278.183 153.804C277.714 153.234 277.033 152.949 276.139 152.949H274.929Z" fill="#1CD8C4"/>
<path d="M322.618 157.345C322.062 157.933 321.412 158.227 320.669 158.227C319.794 158.227 319.097 157.921 318.578 157.311C318.058 156.695 317.798 155.889 317.798 154.891C317.798 154.234 317.931 153.64 318.195 153.106C318.459 152.573 318.835 152.159 319.323 151.862C319.81 151.566 320.376 151.418 321.018 151.418C322.021 151.418 322.816 151.792 323.404 152.539C323.992 153.286 324.286 154.287 324.286 155.54V156.005C324.286 157.8 323.88 159.17 323.069 160.113C322.258 161.057 321.048 161.535 319.439 161.549H319.241V160.175H319.48C320.46 160.161 321.212 159.926 321.736 159.471C322.26 159.01 322.554 158.302 322.618 157.345ZM321.018 156.928C321.351 156.928 321.663 156.832 321.955 156.641C322.246 156.449 322.472 156.185 322.631 155.848V155.198C322.631 154.465 322.481 153.874 322.18 153.428C321.879 152.981 321.49 152.758 321.011 152.758C320.533 152.758 320.15 152.956 319.863 153.353C319.58 153.744 319.439 154.241 319.439 154.843C319.439 155.467 319.583 155.971 319.87 156.354C320.157 156.736 320.54 156.928 321.018 156.928ZM332.489 152.478L328.51 161.508H326.767L330.739 152.888H325.591V151.555H332.489V152.478ZM334.963 159.758C335.273 159.758 335.513 159.847 335.681 160.024C335.85 160.198 335.934 160.416 335.934 160.681C335.934 160.94 335.85 161.157 335.681 161.33C335.513 161.499 335.273 161.583 334.963 161.583C334.667 161.583 334.432 161.499 334.259 161.33C334.086 161.161 334 160.945 334 160.681C334 160.416 334.084 160.198 334.252 160.024C334.421 159.847 334.658 159.758 334.963 159.758ZM344.001 154.18C344.001 154.667 343.875 155.103 343.625 155.485C343.374 155.864 343.032 156.162 342.599 156.381C343.119 156.622 343.517 156.953 343.795 157.372C344.078 157.791 344.219 158.265 344.219 158.794C344.219 159.669 343.923 160.364 343.331 160.879C342.738 161.389 341.95 161.645 340.965 161.645C339.976 161.645 339.183 161.387 338.586 160.872C337.994 160.357 337.698 159.664 337.698 158.794C337.698 158.261 337.839 157.782 338.122 157.358C338.404 156.935 338.801 156.609 339.311 156.381C338.883 156.162 338.543 155.864 338.293 155.485C338.046 155.103 337.923 154.667 337.923 154.18C337.923 153.332 338.197 152.66 338.744 152.163C339.291 151.666 340.029 151.418 340.959 151.418C341.893 151.418 342.633 151.666 343.18 152.163C343.727 152.66 344.001 153.332 344.001 154.18ZM342.558 158.712C342.558 158.22 342.41 157.823 342.114 157.522C341.822 157.217 341.435 157.064 340.952 157.064C340.469 157.064 340.081 157.215 339.79 157.516C339.502 157.816 339.359 158.215 339.359 158.712C339.359 159.2 339.5 159.589 339.783 159.881C340.07 160.173 340.464 160.318 340.965 160.318C341.467 160.318 341.856 160.177 342.134 159.895C342.417 159.612 342.558 159.218 342.558 158.712ZM342.346 154.241C342.346 153.808 342.221 153.453 341.97 153.175C341.72 152.892 341.382 152.751 340.959 152.751C340.535 152.751 340.2 152.885 339.954 153.154C339.708 153.419 339.584 153.781 339.584 154.241C339.584 154.697 339.708 155.059 339.954 155.328C340.204 155.597 340.542 155.731 340.965 155.731C341.389 155.731 341.724 155.597 341.97 155.328C342.221 155.059 342.346 154.697 342.346 154.241ZM347.61 155.772H348.622C349.132 155.768 349.535 155.636 349.832 155.376C350.132 155.116 350.283 154.74 350.283 154.248C350.283 153.774 350.157 153.407 349.907 153.147C349.661 152.883 349.282 152.751 348.772 152.751C348.325 152.751 347.959 152.881 347.671 153.141C347.384 153.396 347.241 153.731 347.241 154.146H345.58C345.58 153.635 345.714 153.17 345.983 152.751C346.256 152.332 346.635 152.006 347.118 151.773C347.605 151.536 348.15 151.418 348.751 151.418C349.745 151.418 350.524 151.669 351.089 152.17C351.659 152.667 351.944 153.359 351.944 154.248C351.944 154.695 351.8 155.116 351.513 155.513C351.231 155.905 350.864 156.201 350.413 156.401C350.959 156.588 351.374 156.882 351.657 157.283C351.944 157.684 352.087 158.163 352.087 158.719C352.087 159.612 351.78 160.323 351.165 160.852C350.554 161.38 349.75 161.645 348.751 161.645C347.794 161.645 347.011 161.389 346.4 160.879C345.789 160.368 345.484 159.689 345.484 158.842H347.145C347.145 159.279 347.291 159.635 347.583 159.908C347.879 160.182 348.275 160.318 348.772 160.318C349.287 160.318 349.693 160.182 349.989 159.908C350.285 159.635 350.433 159.238 350.433 158.719C350.433 158.195 350.278 157.791 349.968 157.509C349.658 157.226 349.198 157.085 348.587 157.085H347.61V155.772ZM364.679 151.555V158.206C364.679 159.263 364.34 160.102 363.661 160.722C362.986 161.337 362.086 161.645 360.96 161.645C359.821 161.645 358.917 161.341 358.247 160.735C357.577 160.125 357.242 159.279 357.242 158.199V151.555H358.964V158.213C358.964 158.878 359.133 159.386 359.47 159.737C359.807 160.088 360.304 160.264 360.96 160.264C362.291 160.264 362.957 159.562 362.957 158.158V151.555H364.679ZM371.734 158.944C371.734 158.507 371.579 158.17 371.269 157.933C370.964 157.696 370.41 157.456 369.608 157.215C368.806 156.973 368.168 156.704 367.694 156.408C366.787 155.839 366.334 155.096 366.334 154.18C366.334 153.378 366.659 152.717 367.311 152.197C367.967 151.678 368.817 151.418 369.861 151.418C370.554 151.418 371.171 151.546 371.713 151.801C372.256 152.056 372.682 152.421 372.992 152.895C373.302 153.364 373.457 153.886 373.457 154.46H371.734C371.734 153.94 371.57 153.535 371.242 153.243C370.918 152.947 370.453 152.799 369.847 152.799C369.282 152.799 368.842 152.92 368.528 153.161C368.218 153.403 368.063 153.74 368.063 154.173C368.063 154.537 368.232 154.843 368.569 155.089C368.906 155.33 369.462 155.567 370.237 155.8C371.012 156.028 371.634 156.29 372.103 156.586C372.572 156.878 372.917 157.215 373.135 157.598C373.354 157.976 373.463 158.42 373.463 158.931C373.463 159.76 373.144 160.421 372.506 160.913C371.873 161.401 371.012 161.645 369.922 161.645C369.202 161.645 368.539 161.512 367.933 161.248C367.332 160.979 366.862 160.61 366.525 160.141C366.192 159.671 366.026 159.124 366.026 158.5H367.755C367.755 159.065 367.942 159.503 368.316 159.812C368.69 160.122 369.225 160.277 369.922 160.277C370.524 160.277 370.975 160.157 371.276 159.915C371.581 159.669 371.734 159.345 371.734 158.944ZM374.981 161.508V151.555H377.92C378.8 151.555 379.579 151.751 380.258 152.143C380.942 152.535 381.471 153.09 381.844 153.811C382.218 154.531 382.405 155.355 382.405 156.285V156.784C382.405 157.728 382.216 158.557 381.837 159.272C381.464 159.988 380.928 160.539 380.231 160.927C379.538 161.314 378.743 161.508 377.845 161.508H374.981ZM376.71 152.949V160.127H377.838C378.745 160.127 379.44 159.844 379.923 159.279C380.411 158.71 380.659 157.894 380.668 156.832V156.278C380.668 155.198 380.434 154.373 379.964 153.804C379.495 153.234 378.814 152.949 377.92 152.949H376.71Z" fill="#1CD8C4"/>
<path d="M298.322 125.419V168.789" stroke="#576371"/>
<path d="M326.828 137H329.187V137.537H326.168V132.561H326.828V137ZM330.523 137.537H329.891V133.839H330.523V137.537ZM329.839 132.858C329.839 132.755 329.87 132.669 329.932 132.598C329.995 132.528 330.089 132.492 330.212 132.492C330.335 132.492 330.428 132.528 330.492 132.598C330.556 132.669 330.588 132.755 330.588 132.858C330.588 132.96 330.556 133.046 330.492 133.114C330.428 133.183 330.335 133.217 330.212 133.217C330.089 133.217 329.995 133.183 329.932 133.114C329.87 133.046 329.839 132.96 329.839 132.858ZM331.384 135.657C331.384 135.076 331.518 134.617 331.784 134.28C332.051 133.94 332.409 133.771 332.857 133.771C333.295 133.771 333.64 133.917 333.893 134.211L333.92 133.839H334.501V138.959H333.869V137.195C333.614 137.469 333.274 137.605 332.851 137.605C332.404 137.605 332.047 137.432 331.781 137.086C331.516 136.737 331.384 136.276 331.384 135.702V135.657ZM332.017 135.729C332.017 136.153 332.105 136.486 332.283 136.727C332.463 136.969 332.705 137.089 333.008 137.089C333.384 137.089 333.671 136.923 333.869 136.59V134.779C333.669 134.453 333.384 134.29 333.015 134.29C332.709 134.29 332.467 134.412 332.287 134.656C332.107 134.897 332.017 135.255 332.017 135.729ZM337.8 137.171C337.554 137.461 337.193 137.605 336.716 137.605C336.322 137.605 336.021 137.492 335.814 137.264C335.609 137.034 335.505 136.694 335.503 136.245V133.839H336.135V136.228C336.135 136.789 336.363 137.069 336.819 137.069C337.302 137.069 337.623 136.889 337.783 136.529V133.839H338.415V137.537H337.813L337.8 137.171ZM340.066 137.537H339.434V133.839H340.066V137.537ZM339.382 132.858C339.382 132.755 339.413 132.669 339.475 132.598C339.538 132.528 339.632 132.492 339.755 132.492C339.878 132.492 339.971 132.528 340.035 132.598C340.099 132.669 340.131 132.755 340.131 132.858C340.131 132.96 340.099 133.046 340.035 133.114C339.971 133.183 339.878 133.217 339.755 133.217C339.632 133.217 339.538 133.183 339.475 133.114C339.413 133.046 339.382 132.96 339.382 132.858ZM340.927 135.657C340.927 135.09 341.062 134.634 341.331 134.29C341.599 133.944 341.951 133.771 342.387 133.771C342.82 133.771 343.163 133.919 343.416 134.215V132.287H344.048V137.537H343.467L343.436 137.141C343.183 137.451 342.831 137.605 342.38 137.605C341.951 137.605 341.602 137.43 341.331 137.079C341.062 136.728 340.927 136.27 340.927 135.705V135.657ZM341.56 135.729C341.56 136.148 341.646 136.476 341.819 136.713C341.993 136.95 342.232 137.069 342.537 137.069C342.938 137.069 343.231 136.889 343.416 136.529V134.83C343.226 134.481 342.936 134.307 342.544 134.307C342.234 134.307 341.993 134.427 341.819 134.666C341.646 134.905 341.56 135.26 341.56 135.729ZM347.315 137.537C347.279 137.464 347.249 137.334 347.227 137.147C346.933 137.453 346.582 137.605 346.174 137.605C345.809 137.605 345.51 137.503 345.275 137.298C345.042 137.09 344.926 136.828 344.926 136.512C344.926 136.127 345.072 135.828 345.364 135.616C345.658 135.402 346.07 135.295 346.601 135.295H347.216V135.004C347.216 134.783 347.15 134.608 347.018 134.478C346.886 134.346 346.691 134.28 346.434 134.28C346.208 134.28 346.019 134.337 345.866 134.451C345.714 134.565 345.637 134.702 345.637 134.864H345.001C345.001 134.68 345.066 134.502 345.196 134.331C345.328 134.158 345.506 134.021 345.729 133.921C345.955 133.821 346.202 133.771 346.471 133.771C346.897 133.771 347.231 133.878 347.473 134.092C347.714 134.304 347.84 134.597 347.849 134.97V136.672C347.849 137.012 347.892 137.282 347.979 137.482V137.537H347.315ZM346.266 137.055C346.464 137.055 346.652 137.004 346.83 136.901C347.008 136.799 347.137 136.666 347.216 136.501V135.743H346.721C345.946 135.743 345.559 135.969 345.559 136.423C345.559 136.621 345.625 136.776 345.757 136.888C345.889 136.999 346.059 137.055 346.266 137.055ZM349.698 132.943V133.839H350.388V134.328H349.698V136.621C349.698 136.769 349.729 136.881 349.79 136.956C349.852 137.029 349.956 137.065 350.104 137.065C350.177 137.065 350.278 137.052 350.405 137.024V137.537C350.239 137.583 350.077 137.605 349.92 137.605C349.637 137.605 349.424 137.52 349.281 137.349C349.137 137.178 349.065 136.936 349.065 136.621V134.328H348.392V133.839H349.065V132.943H349.698ZM351.817 137.537H351.185V133.839H351.817V137.537ZM351.133 132.858C351.133 132.755 351.164 132.669 351.226 132.598C351.289 132.528 351.383 132.492 351.506 132.492C351.629 132.492 351.722 132.528 351.786 132.598C351.85 132.669 351.882 132.755 351.882 132.858C351.882 132.96 351.85 133.046 351.786 133.114C351.722 133.183 351.629 133.217 351.506 133.217C351.383 133.217 351.289 133.183 351.226 133.114C351.164 133.046 351.133 132.96 351.133 132.858ZM352.665 135.654C352.665 135.292 352.735 134.966 352.876 134.676C353.02 134.387 353.218 134.164 353.471 134.006C353.726 133.849 354.017 133.771 354.343 133.771C354.846 133.771 355.253 133.945 355.563 134.293C355.875 134.642 356.031 135.106 356.031 135.685V135.729C356.031 136.089 355.962 136.413 355.823 136.7C355.686 136.985 355.489 137.207 355.231 137.366C354.976 137.526 354.682 137.605 354.35 137.605C353.848 137.605 353.442 137.431 353.129 137.083C352.819 136.734 352.665 136.272 352.665 135.698V135.654ZM353.3 135.729C353.3 136.139 353.395 136.468 353.584 136.717C353.775 136.965 354.031 137.089 354.35 137.089C354.671 137.089 354.926 136.964 355.115 136.713C355.304 136.46 355.399 136.107 355.399 135.654C355.399 135.248 355.302 134.92 355.108 134.669C354.917 134.417 354.662 134.29 354.343 134.29C354.031 134.29 353.779 134.414 353.587 134.663C353.396 134.911 353.3 135.266 353.3 135.729ZM357.422 133.839L357.443 134.304C357.725 133.948 358.095 133.771 358.55 133.771C359.332 133.771 359.726 134.211 359.733 135.093V137.537H359.101V135.09C359.098 134.823 359.037 134.626 358.916 134.499C358.798 134.371 358.612 134.307 358.359 134.307C358.154 134.307 357.974 134.362 357.819 134.471C357.664 134.581 357.543 134.724 357.457 134.902V137.537H356.824V133.839H357.422ZM363.178 135.589V137.537H362.522V132.561H364.357C364.902 132.561 365.328 132.7 365.636 132.978C365.946 133.256 366.101 133.624 366.101 134.082C366.101 134.565 365.949 134.937 365.646 135.199C365.345 135.459 364.913 135.589 364.351 135.589H363.178ZM363.178 135.052H364.357C364.708 135.052 364.977 134.97 365.164 134.806C365.351 134.64 365.444 134.401 365.444 134.088C365.444 133.792 365.351 133.555 365.164 133.377C364.977 133.2 364.721 133.107 364.395 133.101H363.178V135.052ZM368.626 134.406C368.531 134.39 368.427 134.382 368.315 134.382C367.901 134.382 367.619 134.559 367.471 134.912V137.537H366.839V133.839H367.454L367.464 134.266C367.672 133.936 367.966 133.771 368.346 133.771C368.469 133.771 368.563 133.786 368.626 133.818V134.406ZM369.898 137.537H369.266V133.839H369.898V137.537ZM369.214 132.858C369.214 132.755 369.245 132.669 369.307 132.598C369.37 132.528 369.464 132.492 369.587 132.492C369.71 132.492 369.803 132.528 369.867 132.598C369.931 132.669 369.963 132.755 369.963 132.858C369.963 132.96 369.931 133.046 369.867 133.114C369.803 133.183 369.71 133.217 369.587 133.217C369.464 133.217 369.37 133.183 369.307 133.114C369.245 133.046 369.214 132.96 369.214 132.858ZM372.396 137.089C372.622 137.089 372.819 137.021 372.988 136.884C373.156 136.748 373.25 136.577 373.268 136.372H373.866C373.855 136.583 373.782 136.785 373.647 136.977C373.513 137.168 373.333 137.321 373.107 137.435C372.884 137.549 372.647 137.605 372.396 137.605C371.893 137.605 371.492 137.438 371.193 137.103C370.897 136.766 370.749 136.306 370.749 135.722V135.616C370.749 135.256 370.815 134.936 370.947 134.656C371.079 134.375 371.269 134.158 371.515 134.003C371.763 133.848 372.056 133.771 372.393 133.771C372.808 133.771 373.152 133.895 373.425 134.143C373.701 134.391 373.848 134.714 373.866 135.11H373.268C373.25 134.871 373.159 134.675 372.995 134.522C372.833 134.368 372.632 134.29 372.393 134.29C372.072 134.29 371.822 134.406 371.645 134.639C371.469 134.869 371.381 135.203 371.381 135.64V135.76C371.381 136.186 371.469 136.514 371.645 136.744C371.82 136.974 372.071 137.089 372.396 137.089ZM376.112 137.605C375.611 137.605 375.203 137.441 374.888 137.113C374.574 136.783 374.416 136.342 374.416 135.791V135.674C374.416 135.307 374.486 134.98 374.625 134.693C374.766 134.404 374.962 134.178 375.213 134.017C375.466 133.853 375.739 133.771 376.033 133.771C376.514 133.771 376.888 133.929 377.154 134.246C377.421 134.562 377.554 135.016 377.554 135.606V135.869H375.049C375.058 136.234 375.164 136.529 375.367 136.754C375.572 136.978 375.832 137.089 376.146 137.089C376.369 137.089 376.558 137.044 376.713 136.953C376.868 136.861 377.004 136.741 377.12 136.59L377.506 136.891C377.196 137.367 376.732 137.605 376.112 137.605ZM376.033 134.29C375.778 134.29 375.564 134.383 375.391 134.57C375.217 134.755 375.11 135.015 375.069 135.35H376.922V135.302C376.904 134.98 376.817 134.732 376.662 134.557C376.507 134.379 376.298 134.29 376.033 134.29Z" fill="#A2ABB8"/>
<path d="M241.007 86.9814C241.007 87.9336 240.844 88.6411 240.519 89.104C240.194 89.5669 239.685 89.7983 238.994 89.7983C238.311 89.7983 237.806 89.5728 237.478 89.1216C237.15 88.6675 236.98 87.9907 236.968 87.0913V86.0059C236.968 85.0654 237.131 84.3667 237.456 83.9097C237.781 83.4526 238.291 83.2241 238.985 83.2241C239.674 83.2241 240.18 83.4453 240.506 83.8877C240.831 84.3271 240.998 85.0068 241.007 85.9268V86.9814ZM240.194 85.8696C240.194 85.1812 240.097 84.6802 239.904 84.3667C239.71 84.0503 239.404 83.8921 238.985 83.8921C238.569 83.8921 238.266 84.0488 238.075 84.3623C237.885 84.6758 237.787 85.1577 237.781 85.8081V87.1089C237.781 87.8003 237.881 88.3115 238.08 88.6426C238.282 88.9707 238.587 89.1348 238.994 89.1348C239.395 89.1348 239.693 88.9795 239.886 88.6689C240.082 88.3584 240.185 87.8691 240.194 87.2012V85.8696ZM242.149 89.2842C242.149 89.1436 242.19 89.0264 242.272 88.9326C242.357 88.8389 242.483 88.792 242.65 88.792C242.817 88.792 242.943 88.8389 243.028 88.9326C243.116 89.0264 243.16 89.1436 243.16 89.2842C243.16 89.4189 243.116 89.5317 243.028 89.6226C242.943 89.7134 242.817 89.7588 242.65 89.7588C242.483 89.7588 242.357 89.7134 242.272 89.6226C242.19 89.5317 242.149 89.4189 242.149 89.2842ZM248.613 89.7104H244.421V89.126L246.636 86.665C246.964 86.293 247.19 85.9912 247.313 85.7598C247.439 85.5254 247.502 85.2837 247.502 85.0347C247.502 84.7007 247.401 84.4268 247.198 84.2129C246.996 83.999 246.727 83.8921 246.39 83.8921C245.986 83.8921 245.671 84.0078 245.445 84.2393C245.222 84.4678 245.111 84.7871 245.111 85.1973H244.298C244.298 84.6084 244.487 84.1323 244.865 83.769C245.246 83.4058 245.754 83.2241 246.39 83.2241C246.985 83.2241 247.455 83.3809 247.8 83.6943C248.146 84.0049 248.319 84.4194 248.319 84.938C248.319 85.5679 247.918 86.3179 247.115 87.188L245.401 89.0469H248.613V89.7104ZM253.487 86.9814C253.487 87.9336 253.324 88.6411 252.999 89.104C252.674 89.5669 252.166 89.7983 251.474 89.7983C250.792 89.7983 250.286 89.5728 249.958 89.1216C249.63 88.6675 249.46 87.9907 249.448 87.0913V86.0059C249.448 85.0654 249.611 84.3667 249.936 83.9097C250.261 83.4526 250.771 83.2241 251.466 83.2241C252.154 83.2241 252.661 83.4453 252.986 83.8877C253.311 84.3271 253.478 85.0068 253.487 85.9268V86.9814ZM252.674 85.8696C252.674 85.1812 252.577 84.6802 252.384 84.3667C252.191 84.0503 251.884 83.8921 251.466 83.8921C251.049 83.8921 250.746 84.0488 250.556 84.3623C250.365 84.6758 250.267 85.1577 250.261 85.8081V87.1089C250.261 87.8003 250.361 88.3115 250.56 88.6426C250.762 88.9707 251.067 89.1348 251.474 89.1348C251.876 89.1348 252.173 88.9795 252.366 88.6689C252.563 88.3584 252.665 87.8691 252.674 87.2012V85.8696ZM254.458 84.5425C254.458 84.1587 254.58 83.8423 254.823 83.5933C255.069 83.3442 255.384 83.2197 255.768 83.2197C256.157 83.2197 256.472 83.3457 256.713 83.5977C256.956 83.8467 257.077 84.1704 257.077 84.5688V84.8809C257.077 85.2676 256.954 85.584 256.708 85.8301C256.465 86.0732 256.154 86.1948 255.777 86.1948C255.396 86.1948 255.081 86.0732 254.832 85.8301C254.583 85.584 254.458 85.2573 254.458 84.8501V84.5425ZM255.065 84.8809C255.065 85.1094 255.129 85.2983 255.258 85.4478C255.387 85.5942 255.56 85.6675 255.777 85.6675C255.985 85.6675 256.152 85.5957 256.278 85.4521C256.406 85.3086 256.471 85.1123 256.471 84.8633V84.5425C256.471 84.314 256.408 84.125 256.282 83.9756C256.156 83.8262 255.985 83.7515 255.768 83.7515C255.551 83.7515 255.38 83.8262 255.254 83.9756C255.128 84.125 255.065 84.3198 255.065 84.5601V84.8809ZM257.574 88.1416C257.574 87.7578 257.695 87.4429 257.939 87.1968C258.185 86.9478 258.5 86.8232 258.883 86.8232C259.267 86.8232 259.582 86.9463 259.828 87.1924C260.074 87.4385 260.197 87.7651 260.197 88.1724V88.4844C260.197 88.8682 260.074 89.1846 259.828 89.4336C259.585 89.6797 259.273 89.8027 258.892 89.8027C258.511 89.8027 258.196 89.6812 257.947 89.438C257.698 89.1919 257.574 88.8652 257.574 88.458V88.1416ZM258.18 88.4844C258.18 88.7158 258.245 88.9062 258.374 89.0557C258.503 89.2021 258.675 89.2754 258.892 89.2754C259.103 89.2754 259.272 89.2036 259.398 89.0601C259.524 88.9136 259.587 88.7158 259.587 88.4668V88.1416C259.587 87.9102 259.522 87.7212 259.393 87.5747C259.267 87.4282 259.097 87.355 258.883 87.355C258.675 87.355 258.506 87.4282 258.374 87.5747C258.245 87.7183 258.18 87.9131 258.18 88.1592V88.4844ZM255.961 89.2271L255.5 88.937L258.624 83.936L259.086 84.2261L255.961 89.2271Z" fill="#FF4F4F"/>
<path d="M42.5105 0H167.062L111.938 281.315H42.5105C40.886 281.315 39.3282 280.67 38.1795 279.523C37.0309 278.377 36.3856 276.821 36.3856 275.199V6.11554C36.3856 4.49359 37.0309 2.93808 38.1795 1.7912C39.3282 0.644314 40.886 0 42.5105 0Z" fill="#6E747C"/>
<path d="M65.9955 282H185.578L130.395 0H65.9955C64.3693 0 62.8097 0.645883 61.6598 1.79556C60.5099 2.94524 59.8639 4.50454 59.8639 6.13043V275.87C59.8639 277.495 60.5099 279.055 61.6598 280.204C62.8097 281.354 64.3693 282 65.9955 282Z" fill="#979CA0"/>
<path d="M0 282V0H130.291L148.662 94.0002L111.92 282H0Z" fill="white"/>
<path d="M65.4566 92.3984L44.8987 126.408L65.4566 117.088V92.3984Z" fill="#8B8B8B"/>
<path d="M65.4558 117.087L44.8979 126.407L65.4558 138.516V117.087Z" fill="#393939"/>
<path d="M65.456 92.3979V117.087L85.9941 126.407L65.456 92.3979Z" fill="#343434"/>
<path d="M65.456 117.087V138.516L85.9941 126.407L65.456 117.087Z" fill="#161616"/>
<path d="M44.8979 130.289L65.4558 159.175V142.407L44.8979 130.289Z" fill="#8B8B8B"/>
<path d="M86.0139 130.289L65.456 142.407V159.175L86.0139 130.289Z" fill="#343434"/>
<path d="M90.5052 139.012C97.3932 139.012 102.98 133.435 102.98 126.551C102.98 119.667 97.3932 114.09 90.5052 114.09C83.6173 114.09 78.0302 119.667 78.0302 126.551C78.0302 133.435 83.6173 139.012 90.5052 139.012Z" fill="#34D6A3" stroke="white" stroke-width="3"/>
<path d="M61.7594 188.658H56.5036V192.595H62.6471V194.371H54.2799V181.574H62.5856V183.367H56.5036V186.9H61.7594V188.658ZM73.8795 183.367H69.8893V194.371H67.6832V183.367H63.7282V181.574H73.8795V183.367ZM68.6852 215.371H66.4704V209.684H60.7487V215.371H58.525V202.574H60.7487V207.9H66.4704V202.574H68.6852V215.371Z" fill="black"/>
<path d="M90.5052 132.412V126.551" stroke="white" stroke-width="2"/>
<path d="M95.4939 126.551H85.5166L90.5052 119.576L95.4939 126.551Z" fill="white"/>
<rect x="192.065" y="108.118" width="212.515" height="75.7279" rx="1.5" stroke="#576371"/>
<rect x="191.565" y="34.876" width="175.601" height="39.8587" fill="#394049"/>
<rect x="369.161" y="34.876" width="35.9184" height="39.8587" fill="#394049"/>
<path d="M212.12 61.8408H209.874V50.9956L206.562 52.1274V50.2256L211.832 48.2866H212.12V61.8408Z" fill="white"/>
<path d="M380.126 60.9785L381.811 65.4496L383.492 60.9785H384.804V66.8118H383.793V64.8887L383.893 62.3166L382.168 66.8118H381.442L379.721 62.3206L379.821 64.8887V66.8118H378.811V60.9785H380.126Z" fill="white"/>
<path d="M389.349 65.4536H387.086L386.613 66.8118H385.558L387.764 60.9785H388.675L390.885 66.8118H389.826L389.349 65.4536ZM387.371 64.6363H389.064L388.217 62.2165L387.371 64.6363Z" fill="white"/>
<path d="M393.561 63.0859L394.788 60.9785H395.96L394.194 63.8711L396 66.8118H394.816L393.561 64.6724L392.301 66.8118H391.122L392.931 63.8711L391.162 60.9785H392.333L393.561 63.0859Z" fill="white"/>
<path d="M319.787 54.7382H316.703V57.0458H320.308V58.0863H315.398V50.5864H320.272V51.6372H316.703V53.7079H319.787V54.7382Z" fill="white"/>
<path d="M326.899 51.6372H324.558V58.0863H323.263V51.6372H320.942V50.5864H326.899V51.6372Z" fill="white"/>
<path d="M333.852 58.0863H332.552V54.7536H329.194V58.0863H327.89V50.5864H329.194V53.7079H332.552V50.5864H333.852V58.0863Z" fill="white"/>
<path d="M387.12 53.3392V49.8228" stroke="white" stroke-width="2"/>
<path d="M391.111 49.8234H383.129L387.12 42.8481L391.111 49.8234Z" fill="white"/>
<rect x="292.836" y="43.3481" width="65.8481" height="22.9152" rx="11.4576" stroke="white"/>
<path d="M349.844 53.3975H342.802L346.323 56.9139L349.844 53.3975Z" fill="white"/>
<path d="M300.551 54.6787L304.16 48.709V56.804L300.551 54.6787Z" fill="white"/>
<path d="M304.16 48.709V56.804L307.765 54.6787L304.16 48.709Z" fill="white"/>
<path d="M300.551 55.3601L304.16 60.4305V57.4872L300.551 55.3601Z" fill="white"/>
<path d="M304.16 57.4872L307.768 55.3601L304.16 60.4305V57.4872Z" fill="white"/>
</svg>
