<svg width="440" height="283" viewBox="0 0 440 283" fill="none" 
    xmlns="http://www.w3.org/2000/svg">
    <path d="M0 0H441V283H0V0Z" fill="#444E5A"/>
    <rect x="273" y="215" width="133" height="33" rx="16.5" fill="#276BFB"/>
    <path d="M294.509 235.112H297.414V236H293.397V229.602H294.509V235.112ZM302.726 233.144H300.098V235.112H303.17V236H298.986V229.602H303.139V230.498H300.098V232.265H302.726V233.144ZM307.05 234.607L308.676 229.602H309.897L307.595 236H306.518L304.224 229.602H305.441L307.05 234.607ZM315.082 233.144H312.454V235.112H315.526V236H311.342V229.602H315.495V230.498H312.454V232.265H315.082V233.144ZM319.502 233.535H318.263V236H317.151V229.602H319.401C320.14 229.602 320.709 229.767 321.111 230.098C321.512 230.429 321.713 230.908 321.713 231.535C321.713 231.963 321.609 232.322 321.401 232.612C321.196 232.899 320.909 233.12 320.539 233.275L321.976 235.943V236H320.786L319.502 233.535ZM318.263 232.643H319.406C319.781 232.643 320.074 232.549 320.285 232.361C320.495 232.171 320.601 231.912 320.601 231.583C320.601 231.241 320.503 230.976 320.307 230.788C320.113 230.601 319.823 230.504 319.436 230.498H318.263V232.643ZM327.069 234.51H324.59L324.072 236H322.916L325.333 229.602H326.331L328.752 236H327.592L327.069 234.51ZM324.902 233.614H326.757L325.83 230.959L324.902 233.614ZM335.009 235.169C334.778 235.471 334.457 235.7 334.047 235.855C333.637 236.01 333.171 236.088 332.649 236.088C332.113 236.088 331.639 235.966 331.226 235.723C330.812 235.48 330.493 235.133 330.268 234.682C330.045 234.228 329.929 233.699 329.92 233.095V232.594C329.92 231.627 330.152 230.873 330.615 230.331C331.078 229.786 331.724 229.514 332.553 229.514C333.265 229.514 333.83 229.689 334.249 230.041C334.668 230.393 334.92 230.899 335.005 231.562H333.915C333.792 230.791 333.345 230.406 332.575 230.406C332.077 230.406 331.697 230.586 331.436 230.946C331.179 231.304 331.045 231.83 331.037 232.524V233.016C331.037 233.708 331.182 234.245 331.472 234.629C331.765 235.01 332.17 235.2 332.689 235.2C333.257 235.2 333.662 235.071 333.902 234.813V233.561H332.583V232.717H335.009V235.169ZM340.691 233.144H338.063V235.112H341.134V236H336.951V229.602H341.104V230.498H338.063V232.265H340.691V233.144ZM349.852 236H345.55V235.266L347.681 232.941C347.989 232.599 348.207 232.313 348.336 232.084C348.468 231.853 348.533 231.622 348.533 231.39C348.533 231.085 348.447 230.839 348.274 230.652C348.104 230.464 347.874 230.371 347.584 230.371C347.239 230.371 346.97 230.476 346.78 230.687C346.59 230.898 346.494 231.187 346.494 231.553H345.427C345.427 231.163 345.514 230.813 345.69 230.502C345.869 230.189 346.122 229.946 346.45 229.773C346.782 229.6 347.162 229.514 347.593 229.514C348.214 229.514 348.703 229.67 349.061 229.984C349.421 230.294 349.601 230.725 349.601 231.276C349.601 231.595 349.511 231.931 349.329 232.282C349.15 232.631 348.856 233.028 348.446 233.473L346.881 235.147H349.852V236ZM352.119 234.875C352.318 234.875 352.472 234.932 352.58 235.046C352.689 235.158 352.743 235.298 352.743 235.468C352.743 235.635 352.689 235.774 352.58 235.886C352.472 235.994 352.318 236.048 352.119 236.048C351.928 236.048 351.777 235.994 351.666 235.886C351.555 235.777 351.499 235.638 351.499 235.468C351.499 235.298 351.553 235.158 351.662 235.046C351.77 234.932 351.922 234.875 352.119 234.875ZM358.789 233.306C358.789 234.226 358.616 234.92 358.27 235.389C357.928 235.855 357.405 236.088 356.702 236.088C356.01 236.088 355.489 235.861 355.137 235.407C354.788 234.95 354.61 234.274 354.601 233.381V232.273C354.601 231.354 354.772 230.664 355.115 230.204C355.461 229.744 355.987 229.514 356.693 229.514C357.393 229.514 357.914 229.738 358.257 230.186C358.603 230.634 358.78 231.305 358.789 232.199V233.306ZM357.721 232.111C357.721 231.51 357.639 231.071 357.475 230.792C357.311 230.511 357.05 230.371 356.693 230.371C356.344 230.371 356.088 230.504 355.924 230.771C355.76 231.034 355.673 231.447 355.664 232.01V233.46C355.664 234.058 355.748 234.503 355.915 234.796C356.082 235.089 356.344 235.235 356.702 235.235C357.044 235.235 357.298 235.101 357.462 234.831C357.626 234.559 357.712 234.134 357.721 233.557V232.111ZM364.624 233.306C364.624 234.226 364.451 234.92 364.106 235.389C363.763 235.855 363.24 236.088 362.537 236.088C361.845 236.088 361.324 235.861 360.972 235.407C360.624 234.95 360.445 234.274 360.436 233.381V232.273C360.436 231.354 360.608 230.664 360.95 230.204C361.296 229.744 361.822 229.514 362.528 229.514C363.228 229.514 363.75 229.738 364.092 230.186C364.438 230.634 364.615 231.305 364.624 232.199V233.306ZM363.556 232.111C363.556 231.51 363.474 231.071 363.31 230.792C363.146 230.511 362.885 230.371 362.528 230.371C362.179 230.371 361.923 230.504 361.759 230.771C361.595 231.034 361.508 231.447 361.5 232.01V233.46C361.5 234.058 361.583 234.503 361.75 234.796C361.917 235.089 362.179 235.235 362.537 235.235C362.88 235.235 363.133 235.101 363.297 234.831C363.461 234.559 363.547 234.134 363.556 233.557V232.111ZM373.161 233.144H370.533V235.112H373.605V236H369.422V229.602H373.574V230.498H370.533V232.265H373.161V233.144ZM379.941 230.498H377.946V236H376.843V230.498H374.866V229.602H379.941V230.498ZM386.585 236H385.478V233.157H382.617V236H381.505V229.602H382.617V232.265H385.478V229.602H386.585V236Z" fill="white"/>
    <path d="M230.466 234.232C230.409 234.839 230.185 235.313 229.794 235.654C229.404 235.993 228.884 236.162 228.236 236.162C227.783 236.162 227.383 236.055 227.037 235.842C226.693 235.626 226.427 235.32 226.24 234.924C226.052 234.528 225.955 234.068 225.947 233.545V233.014C225.947 232.477 226.042 232.005 226.232 231.596C226.422 231.187 226.694 230.872 227.048 230.65C227.405 230.429 227.817 230.318 228.283 230.318C228.91 230.318 229.416 230.489 229.798 230.83C230.181 231.171 230.404 231.653 230.466 232.275H229.482C229.435 231.867 229.315 231.572 229.123 231.393C228.933 231.21 228.653 231.119 228.283 231.119C227.853 231.119 227.522 231.277 227.291 231.592C227.061 231.904 226.944 232.364 226.939 232.971V233.475C226.939 234.089 227.048 234.558 227.267 234.881C227.488 235.204 227.811 235.365 228.236 235.365C228.624 235.365 228.916 235.278 229.111 235.104C229.306 234.929 229.43 234.639 229.482 234.232H230.466ZM233.787 236.084C233.745 236.003 233.709 235.872 233.677 235.689C233.375 236.005 233.005 236.162 232.568 236.162C232.143 236.162 231.797 236.041 231.529 235.799C231.261 235.557 231.127 235.257 231.127 234.9C231.127 234.45 231.293 234.105 231.627 233.865C231.962 233.623 232.442 233.502 233.064 233.502H233.646V233.225C233.646 233.006 233.585 232.831 233.462 232.701C233.34 232.568 233.154 232.502 232.904 232.502C232.688 232.502 232.511 232.557 232.373 232.666C232.235 232.773 232.166 232.91 232.166 233.076H231.216C231.216 232.844 231.293 232.628 231.447 232.428C231.6 232.225 231.809 232.066 232.072 231.951C232.337 231.837 232.633 231.779 232.959 231.779C233.453 231.779 233.848 231.904 234.142 232.154C234.436 232.402 234.587 232.751 234.595 233.201V235.107C234.595 235.488 234.649 235.791 234.755 236.018V236.084H233.787ZM232.744 235.4C232.931 235.4 233.107 235.355 233.271 235.264C233.438 235.173 233.563 235.05 233.646 234.896V234.1H233.134C232.783 234.1 232.518 234.161 232.341 234.283C232.164 234.406 232.076 234.579 232.076 234.803C232.076 234.985 232.136 235.131 232.255 235.24C232.378 235.347 232.541 235.4 232.744 235.4ZM236.47 231.857L236.498 232.346C236.81 231.968 237.22 231.779 237.728 231.779C238.608 231.779 239.056 232.283 239.072 233.291V236.084H238.123V233.346C238.123 233.077 238.064 232.88 237.947 232.752C237.832 232.622 237.643 232.557 237.38 232.557C236.998 232.557 236.712 232.73 236.525 233.076V236.084H235.576V231.857H236.47ZM241.779 235.404C242.016 235.404 242.212 235.335 242.369 235.197C242.525 235.059 242.608 234.889 242.619 234.686H243.513C243.503 234.949 243.421 235.195 243.267 235.424C243.113 235.65 242.905 235.83 242.642 235.963C242.379 236.096 242.095 236.162 241.791 236.162C241.199 236.162 240.731 235.971 240.384 235.588C240.038 235.205 239.865 234.676 239.865 234.002V233.904C239.865 233.261 240.037 232.747 240.38 232.361C240.724 231.973 241.193 231.779 241.787 231.779C242.289 231.779 242.698 231.926 243.013 232.221C243.331 232.512 243.498 232.896 243.513 233.373H242.619C242.608 233.131 242.525 232.932 242.369 232.775C242.215 232.619 242.018 232.541 241.779 232.541C241.472 232.541 241.235 232.653 241.068 232.877C240.901 233.098 240.817 233.436 240.814 233.889V234.041C240.814 234.499 240.896 234.842 241.06 235.068C241.227 235.292 241.466 235.404 241.779 235.404ZM246.091 236.162C245.49 236.162 245.002 235.973 244.627 235.596C244.254 235.215 244.068 234.71 244.068 234.08V233.963C244.068 233.541 244.149 233.165 244.31 232.834C244.474 232.501 244.703 232.242 244.998 232.057C245.292 231.872 245.62 231.779 245.982 231.779C246.558 231.779 247.002 231.963 247.314 232.33C247.629 232.697 247.787 233.217 247.787 233.889V234.271H245.025C245.054 234.62 245.169 234.896 245.373 235.1C245.578 235.303 245.836 235.404 246.146 235.404C246.581 235.404 246.935 235.229 247.209 234.877L247.72 235.365C247.551 235.618 247.324 235.814 247.041 235.955C246.759 236.093 246.443 236.162 246.091 236.162ZM245.978 232.541C245.718 232.541 245.507 232.632 245.345 232.814C245.186 232.997 245.085 233.251 245.041 233.576H246.849V233.506C246.828 233.188 246.744 232.949 246.595 232.787C246.447 232.623 246.241 232.541 245.978 232.541ZM249.537 236.084H248.587V230.084H249.537V236.084Z" fill="#A2ABB8"/>
    <path d="M227.232 239.847H224.879V241.023H227.232V239.847Z" fill="#A2ABB8"/>
    <path d="M231.937 239.847H229.584V241.023H231.937V239.847Z" fill="#A2ABB8"/>
    <path d="M234.289 239.847H236.642V241.023H234.289V239.847Z" fill="#A2ABB8"/>
    <path d="M241.347 239.847H238.995V241.023H241.347V239.847Z" fill="#A2ABB8"/>
    <path d="M243.7 239.847H246.052V241.023H243.7V239.847Z" fill="#A2ABB8"/>
    <path d="M250.758 239.847H248.405V241.023H250.758V239.847Z" fill="#A2ABB8"/>
    <path d="M194.628 87.1479C193.904 86.9399 193.377 86.6851 193.046 86.3833C192.718 86.0786 192.554 85.7036 192.554 85.2583C192.554 84.7544 192.754 84.3384 193.156 84.0103C193.56 83.6792 194.084 83.5137 194.729 83.5137C195.168 83.5137 195.56 83.5986 195.902 83.7686C196.248 83.9385 196.515 84.1729 196.702 84.4717C196.893 84.7705 196.988 85.0972 196.988 85.4517H196.14C196.14 85.0649 196.017 84.7617 195.771 84.542C195.524 84.3193 195.177 84.208 194.729 84.208C194.313 84.208 193.988 84.3003 193.753 84.4849C193.522 84.6665 193.406 84.9199 193.406 85.2451C193.406 85.5059 193.516 85.7271 193.736 85.9087C193.958 86.0874 194.335 86.2515 194.865 86.4009C195.398 86.5503 195.814 86.7158 196.113 86.8975C196.415 87.0762 196.638 87.2856 196.781 87.5259C196.928 87.7661 197.001 88.0488 197.001 88.374C197.001 88.8926 196.799 89.3086 196.395 89.6221C195.99 89.9326 195.45 90.0879 194.773 90.0879C194.333 90.0879 193.923 90.0044 193.542 89.8374C193.162 89.6675 192.867 89.436 192.659 89.1431C192.454 88.8501 192.352 88.5176 192.352 88.1455H193.2C193.2 88.5322 193.342 88.8384 193.626 89.064C193.913 89.2866 194.295 89.3979 194.773 89.3979C195.218 89.3979 195.56 89.3071 195.797 89.1255C196.034 88.9438 196.153 88.6963 196.153 88.3828C196.153 88.0693 196.043 87.8276 195.823 87.6577C195.604 87.4849 195.205 87.3149 194.628 87.1479ZM198.842 90H198.029V83.25H198.842V90ZM201.031 90H200.218V85.2451H201.031V90ZM200.152 83.9839C200.152 83.8521 200.191 83.7407 200.271 83.6499C200.353 83.5591 200.473 83.5137 200.631 83.5137C200.789 83.5137 200.909 83.5591 200.991 83.6499C201.073 83.7407 201.114 83.8521 201.114 83.9839C201.114 84.1157 201.073 84.2256 200.991 84.3135C200.909 84.4014 200.789 84.4453 200.631 84.4453C200.473 84.4453 200.353 84.4014 200.271 84.3135C200.191 84.2256 200.152 84.1157 200.152 83.9839ZM206.353 87.6753C206.353 88.3989 206.187 88.9819 205.856 89.4243C205.525 89.8667 205.077 90.0879 204.511 90.0879C203.934 90.0879 203.48 89.9048 203.149 89.5386V91.8281H202.336V85.2451H203.079L203.118 85.7725C203.449 85.3623 203.909 85.1572 204.498 85.1572C205.069 85.1572 205.521 85.3726 205.852 85.8032C206.186 86.2339 206.353 86.833 206.353 87.6006V87.6753ZM205.54 87.583C205.54 87.0469 205.425 86.6235 205.197 86.313C204.968 86.0024 204.655 85.8472 204.256 85.8472C203.764 85.8472 203.395 86.0654 203.149 86.502V88.7739C203.392 89.2075 203.764 89.4243 204.265 89.4243C204.655 89.4243 204.964 89.2705 205.192 88.9629C205.424 88.6523 205.54 88.1924 205.54 87.583ZM211.406 87.6753C211.406 88.3989 211.241 88.9819 210.91 89.4243C210.579 89.8667 210.13 90.0879 209.565 90.0879C208.988 90.0879 208.534 89.9048 208.203 89.5386V91.8281H207.39V85.2451H208.132L208.172 85.7725C208.503 85.3623 208.963 85.1572 209.552 85.1572C210.123 85.1572 210.574 85.3726 210.905 85.8032C211.239 86.2339 211.406 86.833 211.406 87.6006V87.6753ZM210.593 87.583C210.593 87.0469 210.479 86.6235 210.25 86.313C210.022 86.0024 209.708 85.8472 209.31 85.8472C208.818 85.8472 208.449 86.0654 208.203 86.502V88.7739C208.446 89.2075 208.818 89.4243 209.319 89.4243C209.708 89.4243 210.018 89.2705 210.246 88.9629C210.478 88.6523 210.593 88.1924 210.593 87.583ZM215.379 90C215.332 89.9062 215.294 89.7393 215.265 89.499C214.887 89.8916 214.436 90.0879 213.911 90.0879C213.442 90.0879 213.057 89.9561 212.755 89.6924C212.457 89.4258 212.307 89.0889 212.307 88.6816C212.307 88.1865 212.495 87.8027 212.87 87.5303C213.248 87.2549 213.778 87.1172 214.46 87.1172H215.251V86.7437C215.251 86.4595 215.167 86.2339 214.997 86.0669C214.827 85.897 214.576 85.812 214.245 85.812C213.955 85.812 213.712 85.8853 213.516 86.0317C213.319 86.1782 213.221 86.3555 213.221 86.5635H212.404C212.404 86.3262 212.487 86.0977 212.654 85.8779C212.824 85.6553 213.053 85.4795 213.34 85.3506C213.63 85.2217 213.948 85.1572 214.293 85.1572C214.841 85.1572 215.271 85.2949 215.581 85.5703C215.892 85.8428 216.053 86.2192 216.064 86.6997V88.8882C216.064 89.3247 216.12 89.6719 216.231 89.9297V90H215.379ZM214.03 89.3804C214.285 89.3804 214.526 89.3145 214.755 89.1826C214.983 89.0508 215.149 88.8794 215.251 88.6685V87.6929H214.614C213.618 87.6929 213.12 87.9844 213.12 88.5674C213.12 88.8223 213.205 89.0215 213.375 89.165C213.545 89.3086 213.763 89.3804 214.03 89.3804ZM217.146 87.583C217.146 86.8418 217.317 86.2529 217.66 85.8164C218.002 85.377 218.457 85.1572 219.022 85.1572C219.602 85.1572 220.055 85.3623 220.38 85.7725L220.419 85.2451H221.162V89.8857C221.162 90.501 220.979 90.9858 220.613 91.3403C220.25 91.6948 219.76 91.8721 219.145 91.8721C218.802 91.8721 218.467 91.7988 218.139 91.6523C217.811 91.5059 217.56 91.3052 217.387 91.0503L217.809 90.5625C218.158 90.9932 218.584 91.2085 219.088 91.2085C219.483 91.2085 219.791 91.0972 220.011 90.8745C220.233 90.6519 220.345 90.3384 220.345 89.9341V89.5254C220.02 89.9004 219.576 90.0879 219.013 90.0879C218.457 90.0879 218.005 89.8638 217.66 89.4155C217.317 88.9673 217.146 88.3564 217.146 87.583ZM217.963 87.6753C217.963 88.2114 218.073 88.6333 218.292 88.9409C218.512 89.2456 218.82 89.3979 219.215 89.3979C219.728 89.3979 220.104 89.165 220.345 88.6992V86.5283C220.096 86.0742 219.722 85.8472 219.224 85.8472C218.829 85.8472 218.52 86.001 218.297 86.3086C218.074 86.6162 217.963 87.0718 217.963 87.6753ZM224.366 90.0879C223.721 90.0879 223.197 89.877 222.792 89.4551C222.388 89.0303 222.186 88.4634 222.186 87.7544V87.605C222.186 87.1333 222.275 86.7129 222.454 86.3438C222.636 85.9717 222.888 85.6816 223.21 85.4736C223.535 85.2627 223.887 85.1572 224.265 85.1572C224.883 85.1572 225.363 85.3608 225.706 85.7681C226.049 86.1753 226.22 86.7583 226.22 87.5171V87.8555H222.999C223.011 88.3242 223.147 88.7036 223.408 88.9937C223.671 89.2808 224.005 89.4243 224.41 89.4243C224.697 89.4243 224.94 89.3657 225.139 89.2485C225.338 89.1313 225.513 88.9761 225.662 88.7827L226.159 89.1694C225.76 89.7817 225.163 90.0879 224.366 90.0879ZM224.265 85.8252C223.937 85.8252 223.661 85.9453 223.438 86.1855C223.216 86.4229 223.078 86.7568 223.025 87.1875H225.407V87.126C225.384 86.7129 225.272 86.3936 225.073 86.168C224.874 85.9395 224.604 85.8252 224.265 85.8252ZM227.139 89.5737C227.139 89.4331 227.18 89.3159 227.262 89.2222C227.347 89.1284 227.473 89.0815 227.64 89.0815C227.807 89.0815 227.933 89.1284 228.018 89.2222C228.105 89.3159 228.149 89.4331 228.149 89.5737C228.149 89.7085 228.105 89.8213 228.018 89.9121C227.933 90.0029 227.807 90.0483 227.64 90.0483C227.473 90.0483 227.347 90.0029 227.262 89.9121C227.18 89.8213 227.139 89.7085 227.139 89.5737ZM227.143 85.6934C227.143 85.5527 227.184 85.4355 227.266 85.3418C227.351 85.248 227.477 85.2012 227.644 85.2012C227.811 85.2012 227.937 85.248 228.022 85.3418C228.11 85.4355 228.154 85.5527 228.154 85.6934C228.154 85.8281 228.11 85.9409 228.022 86.0317C227.937 86.1226 227.811 86.168 227.644 86.168C227.477 86.168 227.351 86.1226 227.266 86.0317C227.184 85.9409 227.143 85.8281 227.143 85.6934Z" fill="#A2ABB8"/>
    <path d="M232.149 135.7H229.993V137.463H232.498V138H229.336V133.023H232.464V133.563H229.993V135.163H232.149V135.7ZM233.814 134.302L233.834 134.767C234.117 134.411 234.486 134.233 234.942 134.233C235.723 134.233 236.118 134.674 236.125 135.556V138H235.492V135.553C235.49 135.286 235.428 135.089 235.308 134.961C235.189 134.834 235.003 134.77 234.75 134.77C234.545 134.77 234.365 134.825 234.21 134.934C234.056 135.043 233.935 135.187 233.848 135.365V138H233.216V134.302H233.814ZM237.936 133.406V134.302H238.626V134.791H237.936V137.084C237.936 137.232 237.967 137.344 238.028 137.419C238.09 137.492 238.195 137.528 238.343 137.528C238.416 137.528 238.516 137.515 238.644 137.487V138C238.477 138.046 238.315 138.068 238.158 138.068C237.876 138.068 237.663 137.983 237.519 137.812C237.375 137.641 237.304 137.398 237.304 137.084V134.791H236.63V134.302H237.304V133.406H237.936ZM241.156 134.869C241.06 134.853 240.956 134.845 240.845 134.845C240.43 134.845 240.149 135.022 240 135.375V138H239.368V134.302H239.983L239.994 134.729C240.201 134.399 240.495 134.233 240.875 134.233C240.999 134.233 241.092 134.249 241.156 134.281V134.869ZM243.012 137.074L243.873 134.302H244.55L243.063 138.571C242.833 139.186 242.467 139.494 241.966 139.494L241.846 139.483L241.61 139.439V138.926L241.781 138.94C241.995 138.94 242.162 138.897 242.28 138.81C242.401 138.723 242.5 138.565 242.578 138.335L242.718 137.959L241.398 134.302H242.089L243.012 137.074ZM247.609 136.052V138H246.953V133.023H248.788C249.333 133.023 249.759 133.162 250.066 133.44C250.376 133.718 250.531 134.086 250.531 134.544C250.531 135.028 250.38 135.4 250.077 135.662C249.776 135.922 249.344 136.052 248.781 136.052H247.609ZM247.609 135.515H248.788C249.139 135.515 249.408 135.433 249.595 135.269C249.782 135.103 249.875 134.863 249.875 134.551C249.875 134.255 249.782 134.018 249.595 133.84C249.408 133.663 249.152 133.57 248.826 133.563H247.609V135.515ZM253.057 134.869C252.961 134.853 252.858 134.845 252.746 134.845C252.331 134.845 252.05 135.022 251.902 135.375V138H251.27V134.302H251.885L251.895 134.729C252.102 134.399 252.396 134.233 252.777 134.233C252.9 134.233 252.993 134.249 253.057 134.281V134.869ZM254.329 138H253.696V134.302H254.329V138ZM253.645 133.321C253.645 133.218 253.676 133.132 253.737 133.061C253.801 132.99 253.895 132.955 254.018 132.955C254.141 132.955 254.234 132.99 254.298 133.061C254.362 133.132 254.394 133.218 254.394 133.321C254.394 133.423 254.362 133.509 254.298 133.577C254.234 133.646 254.141 133.68 254.018 133.68C253.895 133.68 253.801 133.646 253.737 133.577C253.676 133.509 253.645 133.423 253.645 133.321ZM256.827 137.552C257.053 137.552 257.25 137.484 257.418 137.347C257.587 137.21 257.681 137.04 257.699 136.834H258.297C258.285 137.046 258.213 137.248 258.078 137.439C257.944 137.631 257.764 137.784 257.538 137.897C257.315 138.011 257.078 138.068 256.827 138.068C256.324 138.068 255.923 137.901 255.624 137.566C255.328 137.229 255.18 136.768 255.18 136.185V136.079C255.18 135.719 255.246 135.399 255.378 135.119C255.51 134.838 255.699 134.621 255.945 134.466C256.194 134.311 256.486 134.233 256.824 134.233C257.238 134.233 257.583 134.358 257.856 134.606C258.132 134.854 258.279 135.177 258.297 135.573H257.699C257.681 135.334 257.589 135.138 257.425 134.985C257.264 134.83 257.063 134.753 256.824 134.753C256.502 134.753 256.253 134.869 256.075 135.102C255.9 135.332 255.812 135.666 255.812 136.103V136.223C255.812 136.649 255.9 136.977 256.075 137.207C256.251 137.437 256.501 137.552 256.827 137.552ZM260.542 138.068C260.041 138.068 259.633 137.904 259.319 137.576C259.004 137.246 258.847 136.805 258.847 136.253V136.137C258.847 135.77 258.917 135.443 259.056 135.156C259.197 134.867 259.393 134.641 259.644 134.479C259.896 134.315 260.17 134.233 260.464 134.233C260.945 134.233 261.318 134.392 261.585 134.708C261.852 135.025 261.985 135.479 261.985 136.069V136.332H259.479C259.489 136.697 259.595 136.992 259.797 137.217C260.002 137.441 260.262 137.552 260.577 137.552C260.8 137.552 260.989 137.507 261.144 137.416C261.299 137.324 261.435 137.204 261.551 137.053L261.937 137.354C261.627 137.83 261.162 138.068 260.542 138.068ZM260.464 134.753C260.209 134.753 259.994 134.846 259.821 135.033C259.648 135.218 259.541 135.478 259.5 135.812H261.353V135.765C261.334 135.443 261.248 135.195 261.093 135.02C260.938 134.842 260.728 134.753 260.464 134.753Z" fill="#A2ABB8"/>
    <path d="M213.223 162.038H211.569V154.046L209.128 154.88V153.479L213.011 152.05H213.223V162.038ZM223.306 153.007L219.328 162.038H217.584L221.556 153.417H216.409V152.084H223.306V153.007ZM225.083 157.102L225.623 152.084H230.969V153.52H227.004L226.731 155.899C227.191 155.635 227.711 155.502 228.289 155.502C229.237 155.502 229.973 155.806 230.497 156.412C231.026 157.018 231.29 157.833 231.29 158.859C231.29 159.871 230.999 160.677 230.415 161.279C229.832 161.876 229.032 162.174 228.016 162.174C227.105 162.174 226.348 161.917 225.746 161.402C225.149 160.882 224.826 160.199 224.776 159.351H226.382C226.446 159.834 226.619 160.206 226.902 160.465C227.184 160.721 227.553 160.848 228.009 160.848C228.52 160.848 228.916 160.666 229.199 160.301C229.486 159.937 229.629 159.44 229.629 158.811C229.629 158.205 229.472 157.726 229.158 157.375C228.843 157.02 228.41 156.842 227.859 156.842C227.558 156.842 227.303 156.883 227.093 156.965C226.884 157.043 226.656 157.198 226.41 157.43L225.083 157.102ZM233.738 160.288C234.048 160.288 234.287 160.376 234.455 160.554C234.624 160.727 234.708 160.946 234.708 161.21C234.708 161.47 234.624 161.687 234.455 161.86C234.287 162.028 234.048 162.113 233.738 162.113C233.441 162.113 233.207 162.028 233.034 161.86C232.86 161.691 232.774 161.475 232.774 161.21C232.774 160.946 232.858 160.727 233.027 160.554C233.195 160.376 233.432 160.288 233.738 160.288ZM243.13 153.007L239.152 162.038H237.409L241.38 153.417H236.233V152.084H243.13V153.007ZM250.082 158.49H251.32V159.823H250.082V162.038H248.421V159.823H244.121L244.074 158.811L248.367 152.084H250.082V158.49ZM245.817 158.49H248.421V154.333L248.298 154.552L245.817 158.49ZM263.454 152.084V158.736C263.454 159.793 263.114 160.632 262.435 161.251C261.76 161.867 260.86 162.174 259.735 162.174C258.595 162.174 257.691 161.871 257.021 161.265C256.351 160.654 256.016 159.809 256.016 158.729V152.084H257.739V158.743C257.739 159.408 257.907 159.916 258.245 160.267C258.582 160.618 259.079 160.793 259.735 160.793C261.066 160.793 261.731 160.092 261.731 158.688V152.084H263.454ZM270.508 159.474C270.508 159.037 270.353 158.699 270.043 158.462C269.738 158.225 269.184 157.986 268.382 157.745C267.58 157.503 266.942 157.234 266.468 156.938C265.561 156.368 265.108 155.625 265.108 154.709C265.108 153.907 265.434 153.247 266.085 152.727C266.742 152.208 267.592 151.948 268.635 151.948C269.328 151.948 269.945 152.075 270.488 152.331C271.03 152.586 271.456 152.95 271.766 153.424C272.076 153.894 272.231 154.416 272.231 154.99H270.508C270.508 154.47 270.344 154.065 270.016 153.773C269.692 153.477 269.228 153.329 268.621 153.329C268.056 153.329 267.617 153.449 267.302 153.691C266.992 153.932 266.837 154.27 266.837 154.703C266.837 155.067 267.006 155.373 267.343 155.619C267.68 155.86 268.236 156.097 269.011 156.33C269.786 156.557 270.408 156.819 270.877 157.116C271.347 157.407 271.691 157.745 271.91 158.127C272.128 158.506 272.238 158.95 272.238 159.46C272.238 160.29 271.919 160.951 271.281 161.443C270.647 161.931 269.786 162.174 268.697 162.174C267.977 162.174 267.314 162.042 266.707 161.778C266.106 161.509 265.636 161.14 265.299 160.67C264.967 160.201 264.8 159.654 264.8 159.03H266.53C266.53 159.595 266.717 160.032 267.09 160.342C267.464 160.652 267.999 160.807 268.697 160.807C269.298 160.807 269.749 160.686 270.05 160.445C270.356 160.199 270.508 159.875 270.508 159.474ZM273.755 162.038V152.084H276.695C277.574 152.084 278.354 152.28 279.033 152.672C279.716 153.064 280.245 153.62 280.619 154.34C280.992 155.06 281.179 155.885 281.179 156.815V157.314C281.179 158.257 280.99 159.087 280.612 159.802C280.238 160.518 279.703 161.069 279.005 161.457C278.313 161.844 277.517 162.038 276.62 162.038H273.755ZM275.485 153.479V160.657H276.613C277.52 160.657 278.215 160.374 278.698 159.809C279.185 159.239 279.434 158.424 279.443 157.362V156.808C279.443 155.728 279.208 154.903 278.739 154.333C278.269 153.764 277.588 153.479 276.695 153.479H275.485Z" fill="#1CD8C4"/>
    <path d="M323.413 157.875C322.857 158.462 322.208 158.756 321.465 158.756C320.59 158.756 319.893 158.451 319.373 157.84C318.854 157.225 318.594 156.418 318.594 155.42C318.594 154.764 318.726 154.169 318.991 153.636C319.255 153.103 319.631 152.688 320.119 152.392C320.606 152.096 321.171 151.948 321.814 151.948C322.816 151.948 323.612 152.321 324.2 153.069C324.788 153.816 325.081 154.817 325.081 156.07V156.535C325.081 158.33 324.676 159.7 323.865 160.643C323.053 161.586 321.843 162.065 320.235 162.079H320.037V160.705H320.276C321.256 160.691 322.008 160.456 322.532 160C323.056 159.54 323.35 158.832 323.413 157.875ZM321.814 157.458C322.147 157.458 322.459 157.362 322.75 157.17C323.042 156.979 323.268 156.715 323.427 156.377V155.728C323.427 154.994 323.277 154.404 322.976 153.958C322.675 153.511 322.286 153.288 321.807 153.288C321.329 153.288 320.946 153.486 320.659 153.882C320.376 154.274 320.235 154.771 320.235 155.373C320.235 155.997 320.378 156.5 320.665 156.883C320.953 157.266 321.335 157.458 321.814 157.458ZM333.285 153.007L329.306 162.038H327.563L331.535 153.417H326.387V152.084H333.285V153.007ZM335.759 160.288C336.069 160.288 336.308 160.376 336.477 160.554C336.646 160.727 336.73 160.946 336.73 161.21C336.73 161.47 336.646 161.687 336.477 161.86C336.308 162.028 336.069 162.113 335.759 162.113C335.463 162.113 335.228 162.028 335.055 161.86C334.882 161.691 334.795 161.475 334.795 161.21C334.795 160.946 334.88 160.727 335.048 160.554C335.217 160.376 335.454 160.288 335.759 160.288ZM344.796 154.709C344.796 155.197 344.671 155.632 344.42 156.015C344.17 156.393 343.828 156.692 343.395 156.911C343.914 157.152 344.313 157.483 344.591 157.902C344.874 158.321 345.015 158.795 345.015 159.324C345.015 160.199 344.719 160.894 344.126 161.409C343.534 161.919 342.746 162.174 341.761 162.174C340.772 162.174 339.979 161.917 339.382 161.402C338.79 160.887 338.494 160.194 338.494 159.324C338.494 158.791 338.635 158.312 338.917 157.888C339.2 157.464 339.596 157.139 340.107 156.911C339.678 156.692 339.339 156.393 339.088 156.015C338.842 155.632 338.719 155.197 338.719 154.709C338.719 153.862 338.993 153.19 339.539 152.693C340.086 152.196 340.825 151.948 341.754 151.948C342.689 151.948 343.429 152.196 343.976 152.693C344.523 153.19 344.796 153.862 344.796 154.709ZM343.354 159.242C343.354 158.75 343.206 158.353 342.91 158.052C342.618 157.747 342.231 157.594 341.747 157.594C341.264 157.594 340.877 157.745 340.585 158.045C340.298 158.346 340.155 158.745 340.155 159.242C340.155 159.729 340.296 160.119 340.579 160.411C340.866 160.702 341.26 160.848 341.761 160.848C342.262 160.848 342.652 160.707 342.93 160.424C343.213 160.142 343.354 159.748 343.354 159.242ZM343.142 154.771C343.142 154.338 343.017 153.983 342.766 153.705C342.515 153.422 342.178 153.281 341.754 153.281C341.33 153.281 340.996 153.415 340.749 153.684C340.503 153.948 340.38 154.311 340.38 154.771C340.38 155.227 340.503 155.589 340.749 155.858C341 156.127 341.337 156.261 341.761 156.261C342.185 156.261 342.52 156.127 342.766 155.858C343.017 155.589 343.142 155.227 343.142 154.771ZM348.406 156.302H349.417C349.928 156.298 350.331 156.166 350.627 155.906C350.928 155.646 351.079 155.27 351.079 154.778C351.079 154.304 350.953 153.937 350.703 153.677C350.456 153.413 350.078 153.281 349.568 153.281C349.121 153.281 348.754 153.411 348.467 153.67C348.18 153.926 348.037 154.261 348.037 154.675H346.375C346.375 154.165 346.51 153.7 346.779 153.281C347.052 152.861 347.43 152.536 347.913 152.303C348.401 152.066 348.946 151.948 349.547 151.948C350.541 151.948 351.32 152.198 351.885 152.7C352.455 153.196 352.74 153.889 352.74 154.778C352.74 155.224 352.596 155.646 352.309 156.042C352.026 156.434 351.66 156.731 351.208 156.931C351.755 157.118 352.17 157.412 352.453 157.813C352.74 158.214 352.883 158.693 352.883 159.249C352.883 160.142 352.576 160.853 351.96 161.381C351.35 161.91 350.545 162.174 349.547 162.174C348.59 162.174 347.806 161.919 347.196 161.409C346.585 160.898 346.28 160.219 346.28 159.372H347.941C347.941 159.809 348.087 160.165 348.378 160.438C348.675 160.711 349.071 160.848 349.568 160.848C350.083 160.848 350.488 160.711 350.785 160.438C351.081 160.165 351.229 159.768 351.229 159.249C351.229 158.724 351.074 158.321 350.764 158.039C350.454 157.756 349.994 157.615 349.383 157.615H348.406V156.302ZM365.475 152.084V158.736C365.475 159.793 365.135 160.632 364.456 161.251C363.782 161.867 362.882 162.174 361.756 162.174C360.617 162.174 359.712 161.871 359.042 161.265C358.372 160.654 358.038 159.809 358.038 158.729V152.084H359.76V158.743C359.76 159.408 359.929 159.916 360.266 160.267C360.603 160.618 361.1 160.793 361.756 160.793C363.087 160.793 363.752 160.092 363.752 158.688V152.084H365.475ZM372.53 159.474C372.53 159.037 372.375 158.699 372.065 158.462C371.76 158.225 371.206 157.986 370.404 157.745C369.602 157.503 368.964 157.234 368.49 156.938C367.583 156.368 367.129 155.625 367.129 154.709C367.129 153.907 367.455 153.247 368.107 152.727C368.763 152.208 369.613 151.948 370.657 151.948C371.349 151.948 371.967 152.075 372.509 152.331C373.052 152.586 373.478 152.95 373.788 153.424C374.097 153.894 374.252 154.416 374.252 154.99H372.53C372.53 154.47 372.366 154.065 372.038 153.773C371.714 153.477 371.249 153.329 370.643 153.329C370.078 153.329 369.638 153.449 369.324 153.691C369.014 153.932 368.859 154.27 368.859 154.703C368.859 155.067 369.027 155.373 369.365 155.619C369.702 155.86 370.258 156.097 371.033 156.33C371.807 156.557 372.429 156.819 372.899 157.116C373.368 157.407 373.712 157.745 373.931 158.127C374.15 158.506 374.259 158.95 374.259 159.46C374.259 160.29 373.94 160.951 373.302 161.443C372.669 161.931 371.807 162.174 370.718 162.174C369.998 162.174 369.335 162.042 368.729 161.778C368.127 161.509 367.658 161.14 367.321 160.67C366.988 160.201 366.822 159.654 366.822 159.03H368.551C368.551 159.595 368.738 160.032 369.112 160.342C369.485 160.652 370.021 160.807 370.718 160.807C371.32 160.807 371.771 160.686 372.072 160.445C372.377 160.199 372.53 159.875 372.53 159.474ZM375.777 162.038V152.084H378.716C379.596 152.084 380.375 152.28 381.054 152.672C381.738 153.064 382.266 153.62 382.64 154.34C383.014 155.06 383.201 155.885 383.201 156.815V157.314C383.201 158.257 383.011 159.087 382.633 159.802C382.26 160.518 381.724 161.069 381.027 161.457C380.334 161.844 379.539 162.038 378.641 162.038H375.777ZM377.506 153.479V160.657H378.634C379.541 160.657 380.236 160.374 380.719 159.809C381.207 159.239 381.455 158.424 381.464 157.362V156.808C381.464 155.728 381.23 154.903 380.76 154.333C380.291 153.764 379.609 153.479 378.716 153.479H377.506Z" fill="#1CD8C4"/>
    <path d="M299 125.864V169.387" stroke="#576371"/>
    <path d="M327.627 137.463H329.986V138H326.968V133.023H327.627V137.463ZM331.322 138H330.69V134.302H331.322V138ZM330.639 133.321C330.639 133.218 330.669 133.132 330.731 133.061C330.795 132.99 330.888 132.955 331.011 132.955C331.134 132.955 331.228 132.99 331.292 133.061C331.355 133.132 331.387 133.218 331.387 133.321C331.387 133.423 331.355 133.509 331.292 133.577C331.228 133.646 331.134 133.68 331.011 133.68C330.888 133.68 330.795 133.646 330.731 133.577C330.669 133.509 330.639 133.423 330.639 133.321ZM332.184 136.12C332.184 135.539 332.317 135.08 332.583 134.743C332.85 134.403 333.208 134.233 333.657 134.233C334.094 134.233 334.439 134.38 334.692 134.674L334.72 134.302H335.301V139.422H334.668V137.658C334.413 137.932 334.074 138.068 333.65 138.068C333.203 138.068 332.847 137.895 332.58 137.549C332.316 137.2 332.184 136.739 332.184 136.165V136.12ZM332.816 136.192C332.816 136.616 332.905 136.948 333.083 137.19C333.263 137.431 333.504 137.552 333.807 137.552C334.183 137.552 334.47 137.386 334.668 137.053V135.242C334.468 134.916 334.183 134.753 333.814 134.753C333.509 134.753 333.266 134.875 333.086 135.119C332.906 135.36 332.816 135.718 332.816 136.192ZM338.599 137.634C338.353 137.924 337.992 138.068 337.516 138.068C337.121 138.068 336.821 137.954 336.613 137.727C336.408 137.496 336.305 137.157 336.302 136.708V134.302H336.935V136.691C336.935 137.251 337.162 137.532 337.618 137.532C338.101 137.532 338.423 137.352 338.582 136.992V134.302H339.214V138H338.613L338.599 137.634ZM340.865 138H340.233V134.302H340.865V138ZM340.182 133.321C340.182 133.218 340.212 133.132 340.274 133.061C340.338 132.99 340.431 132.955 340.554 132.955C340.677 132.955 340.771 132.99 340.834 133.061C340.898 133.132 340.93 133.218 340.93 133.321C340.93 133.423 340.898 133.509 340.834 133.577C340.771 133.646 340.677 133.68 340.554 133.68C340.431 133.68 340.338 133.646 340.274 133.577C340.212 133.509 340.182 133.423 340.182 133.321ZM341.727 136.12C341.727 135.553 341.861 135.097 342.13 134.753C342.399 134.407 342.751 134.233 343.186 134.233C343.619 134.233 343.962 134.382 344.215 134.678V132.75H344.847V138H344.266L344.235 137.604C343.982 137.913 343.63 138.068 343.179 138.068C342.751 138.068 342.401 137.893 342.13 137.542C341.861 137.191 341.727 136.733 341.727 136.168V136.12ZM342.359 136.192C342.359 136.611 342.445 136.939 342.619 137.176C342.792 137.413 343.031 137.532 343.336 137.532C343.737 137.532 344.03 137.352 344.215 136.992V135.293C344.026 134.944 343.735 134.77 343.343 134.77C343.033 134.77 342.792 134.89 342.619 135.129C342.445 135.368 342.359 135.722 342.359 136.192ZM348.115 138C348.078 137.927 348.049 137.797 348.026 137.61C347.732 137.916 347.381 138.068 346.973 138.068C346.609 138.068 346.309 137.966 346.074 137.761C345.842 137.553 345.726 137.291 345.726 136.975C345.726 136.59 345.871 136.291 346.163 136.079C346.457 135.865 346.869 135.758 347.4 135.758H348.016V135.467C348.016 135.246 347.95 135.071 347.817 134.941C347.685 134.809 347.49 134.743 347.233 134.743C347.007 134.743 346.818 134.8 346.666 134.914C346.513 135.028 346.437 135.165 346.437 135.327H345.801C345.801 135.143 345.866 134.965 345.996 134.794C346.128 134.621 346.306 134.484 346.529 134.384C346.754 134.284 347.002 134.233 347.271 134.233C347.697 134.233 348.03 134.34 348.272 134.555C348.514 134.767 348.639 135.059 348.648 135.433V137.135C348.648 137.475 348.691 137.745 348.778 137.945V138H348.115ZM347.065 137.518C347.264 137.518 347.452 137.467 347.629 137.364C347.807 137.262 347.936 137.128 348.016 136.964V136.206H347.52C346.745 136.206 346.358 136.432 346.358 136.886C346.358 137.084 346.424 137.239 346.556 137.351C346.688 137.462 346.858 137.518 347.065 137.518ZM350.497 133.406V134.302H351.188V134.791H350.497V137.084C350.497 137.232 350.528 137.344 350.589 137.419C350.651 137.492 350.756 137.528 350.904 137.528C350.977 137.528 351.077 137.515 351.205 137.487V138C351.038 138.046 350.876 138.068 350.719 138.068C350.437 138.068 350.224 137.983 350.08 137.812C349.937 137.641 349.865 137.398 349.865 137.084V134.791H349.191V134.302H349.865V133.406H350.497ZM352.616 138H351.984V134.302H352.616V138ZM351.933 133.321C351.933 133.218 351.963 133.132 352.025 133.061C352.089 132.99 352.182 132.955 352.305 132.955C352.428 132.955 352.522 132.99 352.585 133.061C352.649 133.132 352.681 133.218 352.681 133.321C352.681 133.423 352.649 133.509 352.585 133.577C352.522 133.646 352.428 133.68 352.305 133.68C352.182 133.68 352.089 133.646 352.025 133.577C351.963 133.509 351.933 133.423 351.933 133.321ZM353.464 136.117C353.464 135.754 353.535 135.429 353.676 135.139C353.819 134.85 354.018 134.626 354.271 134.469C354.526 134.312 354.816 134.233 355.142 134.233C355.646 134.233 356.052 134.408 356.362 134.756C356.674 135.105 356.831 135.569 356.831 136.147V136.192C356.831 136.552 356.761 136.875 356.622 137.163C356.485 137.447 356.288 137.67 356.031 137.829C355.776 137.989 355.482 138.068 355.149 138.068C354.648 138.068 354.241 137.894 353.929 137.545C353.619 137.197 353.464 136.735 353.464 136.161V136.117ZM354.1 136.192C354.1 136.602 354.194 136.931 354.383 137.18C354.575 137.428 354.83 137.552 355.149 137.552C355.47 137.552 355.725 137.427 355.915 137.176C356.104 136.923 356.198 136.57 356.198 136.117C356.198 135.711 356.101 135.383 355.908 135.132C355.716 134.879 355.461 134.753 355.142 134.753C354.83 134.753 354.578 134.877 354.387 135.125C354.195 135.374 354.1 135.729 354.1 136.192ZM358.222 134.302L358.242 134.767C358.525 134.411 358.894 134.233 359.35 134.233C360.131 134.233 360.525 134.674 360.532 135.556V138H359.9V135.553C359.898 135.286 359.836 135.089 359.715 134.961C359.597 134.834 359.411 134.77 359.158 134.77C358.953 134.77 358.773 134.825 358.618 134.934C358.463 135.043 358.342 135.187 358.256 135.365V138H357.624V134.302H358.222ZM363.978 136.052V138H363.321V133.023H365.157C365.701 133.023 366.127 133.162 366.435 133.44C366.745 133.718 366.9 134.086 366.9 134.544C366.9 135.028 366.748 135.4 366.445 135.662C366.145 135.922 365.713 136.052 365.15 136.052H363.978ZM363.978 135.515H365.157C365.508 135.515 365.777 135.433 365.963 135.269C366.15 135.103 366.244 134.863 366.244 134.551C366.244 134.255 366.15 134.018 365.963 133.84C365.777 133.663 365.52 133.57 365.194 133.563H363.978V135.515ZM369.426 134.869C369.33 134.853 369.226 134.845 369.115 134.845C368.7 134.845 368.419 135.022 368.271 135.375V138H367.638V134.302H368.253L368.264 134.729C368.471 134.399 368.765 134.233 369.146 134.233C369.269 134.233 369.362 134.249 369.426 134.281V134.869ZM370.697 138H370.065V134.302H370.697V138ZM370.014 133.321C370.014 133.218 370.044 133.132 370.106 133.061C370.17 132.99 370.263 132.955 370.386 132.955C370.509 132.955 370.603 132.99 370.667 133.061C370.73 133.132 370.762 133.218 370.762 133.321C370.762 133.423 370.73 133.509 370.667 133.577C370.603 133.646 370.509 133.68 370.386 133.68C370.263 133.68 370.17 133.646 370.106 133.577C370.044 133.509 370.014 133.423 370.014 133.321ZM373.196 137.552C373.421 137.552 373.618 137.484 373.787 137.347C373.956 137.21 374.049 137.04 374.067 136.834H374.666C374.654 137.046 374.581 137.248 374.447 137.439C374.312 137.631 374.132 137.784 373.907 137.897C373.683 138.011 373.446 138.068 373.196 138.068C372.692 138.068 372.291 137.901 371.993 137.566C371.696 137.229 371.548 136.768 371.548 136.185V136.079C371.548 135.719 371.614 135.399 371.747 135.119C371.879 134.838 372.068 134.621 372.314 134.466C372.562 134.311 372.855 134.233 373.192 134.233C373.607 134.233 373.951 134.358 374.225 134.606C374.5 134.854 374.647 135.177 374.666 135.573H374.067C374.049 135.334 373.958 135.138 373.794 134.985C373.632 134.83 373.432 134.753 373.192 134.753C372.871 134.753 372.622 134.869 372.444 135.102C372.268 135.332 372.181 135.666 372.181 136.103V136.223C372.181 136.649 372.268 136.977 372.444 137.207C372.619 137.437 372.87 137.552 373.196 137.552ZM376.911 138.068C376.41 138.068 376.002 137.904 375.688 137.576C375.373 137.246 375.216 136.805 375.216 136.253V136.137C375.216 135.77 375.285 135.443 375.424 135.156C375.566 134.867 375.762 134.641 376.012 134.479C376.265 134.315 376.539 134.233 376.833 134.233C377.313 134.233 377.687 134.392 377.954 134.708C378.22 135.025 378.354 135.479 378.354 136.069V136.332H375.848C375.857 136.697 375.963 136.992 376.166 137.217C376.371 137.441 376.631 137.552 376.945 137.552C377.169 137.552 377.358 137.507 377.513 137.416C377.668 137.324 377.803 137.204 377.919 137.053L378.306 137.354C377.996 137.83 377.531 138.068 376.911 138.068ZM376.833 134.753C376.577 134.753 376.363 134.846 376.19 135.033C376.017 135.218 375.91 135.478 375.869 135.812H377.721V135.765C377.703 135.443 377.616 135.195 377.461 135.02C377.306 134.842 377.097 134.753 376.833 134.753Z" fill="#A2ABB8"/>
    <path d="M241.544 87.271C241.544 88.2231 241.381 88.9307 241.056 89.3936C240.731 89.8564 240.223 90.0879 239.531 90.0879C238.849 90.0879 238.343 89.8623 238.015 89.4111C237.687 88.957 237.517 88.2803 237.505 87.3809V86.2954C237.505 85.355 237.668 84.6562 237.993 84.1992C238.318 83.7422 238.828 83.5137 239.522 83.5137C240.211 83.5137 240.718 83.7349 241.043 84.1772C241.368 84.6167 241.535 85.2964 241.544 86.2163V87.271ZM240.731 86.1592C240.731 85.4707 240.634 84.9697 240.441 84.6562C240.248 84.3398 239.941 84.1816 239.522 84.1816C239.106 84.1816 238.803 84.3384 238.613 84.6519C238.422 84.9653 238.324 85.4473 238.318 86.0977V87.3984C238.318 88.0898 238.418 88.6011 238.617 88.9321C238.819 89.2603 239.124 89.4243 239.531 89.4243C239.933 89.4243 240.23 89.269 240.423 88.9585C240.62 88.6479 240.722 88.1587 240.731 87.4907V86.1592ZM242.687 89.5737C242.687 89.4331 242.728 89.3159 242.81 89.2222C242.895 89.1284 243.021 89.0815 243.188 89.0815C243.354 89.0815 243.48 89.1284 243.565 89.2222C243.653 89.3159 243.697 89.4331 243.697 89.5737C243.697 89.7085 243.653 89.8213 243.565 89.9121C243.48 90.0029 243.354 90.0483 243.188 90.0483C243.021 90.0483 242.895 90.0029 242.81 89.9121C242.728 89.8213 242.687 89.7085 242.687 89.5737ZM249.151 90H244.958V89.4155L247.173 86.9546C247.501 86.5825 247.727 86.2808 247.85 86.0493C247.976 85.8149 248.039 85.5732 248.039 85.3242C248.039 84.9902 247.938 84.7163 247.736 84.5024C247.534 84.2886 247.264 84.1816 246.927 84.1816C246.523 84.1816 246.208 84.2974 245.982 84.5288C245.76 84.7573 245.648 85.0767 245.648 85.4868H244.835C244.835 84.8979 245.024 84.4219 245.402 84.0586C245.783 83.6953 246.292 83.5137 246.927 83.5137C247.522 83.5137 247.992 83.6704 248.338 83.9839C248.684 84.2944 248.856 84.709 248.856 85.2275C248.856 85.8574 248.455 86.6074 247.652 87.4775L245.938 89.3364H249.151V90ZM254.024 87.271C254.024 88.2231 253.862 88.9307 253.537 89.3936C253.211 89.8564 252.703 90.0879 252.012 90.0879C251.329 90.0879 250.824 89.8623 250.496 89.4111C250.167 88.957 249.998 88.2803 249.986 87.3809V86.2954C249.986 85.355 250.148 84.6562 250.474 84.1992C250.799 83.7422 251.309 83.5137 252.003 83.5137C252.691 83.5137 253.198 83.7349 253.523 84.1772C253.849 84.6167 254.016 85.2964 254.024 86.2163V87.271ZM253.211 86.1592C253.211 85.4707 253.115 84.9697 252.921 84.6562C252.728 84.3398 252.422 84.1816 252.003 84.1816C251.587 84.1816 251.284 84.3384 251.093 84.6519C250.903 84.9653 250.805 85.4473 250.799 86.0977V87.3984C250.799 88.0898 250.898 88.6011 251.098 88.9321C251.3 89.2603 251.604 89.4243 252.012 89.4243C252.413 89.4243 252.71 89.269 252.904 88.9585C253.1 88.6479 253.203 88.1587 253.211 87.4907V86.1592ZM254.996 84.832C254.996 84.4482 255.117 84.1318 255.36 83.8828C255.606 83.6338 255.921 83.5093 256.305 83.5093C256.695 83.5093 257.01 83.6353 257.25 83.8872C257.493 84.1362 257.615 84.46 257.615 84.8584V85.1704C257.615 85.5571 257.492 85.8735 257.246 86.1196C257.002 86.3628 256.692 86.4844 256.314 86.4844C255.933 86.4844 255.618 86.3628 255.369 86.1196C255.12 85.8735 254.996 85.5469 254.996 85.1396V84.832ZM255.602 85.1704C255.602 85.3989 255.667 85.5879 255.795 85.7373C255.924 85.8838 256.097 85.957 256.314 85.957C256.522 85.957 256.689 85.8853 256.815 85.7417C256.944 85.5981 257.008 85.4019 257.008 85.1528V84.832C257.008 84.6035 256.945 84.4146 256.819 84.2651C256.693 84.1157 256.522 84.041 256.305 84.041C256.088 84.041 255.917 84.1157 255.791 84.2651C255.665 84.4146 255.602 84.6094 255.602 84.8496V85.1704ZM258.111 88.4312C258.111 88.0474 258.233 87.7324 258.476 87.4863C258.722 87.2373 259.037 87.1128 259.421 87.1128C259.805 87.1128 260.12 87.2358 260.366 87.4819C260.612 87.728 260.735 88.0547 260.735 88.4619V88.7739C260.735 89.1577 260.612 89.4741 260.366 89.7231C260.123 89.9692 259.811 90.0923 259.43 90.0923C259.049 90.0923 258.734 89.9707 258.485 89.7275C258.236 89.4814 258.111 89.1548 258.111 88.7476V88.4312ZM258.718 88.7739C258.718 89.0054 258.782 89.1958 258.911 89.3452C259.04 89.4917 259.213 89.5649 259.43 89.5649C259.641 89.5649 259.809 89.4932 259.935 89.3496C260.061 89.2031 260.124 89.0054 260.124 88.7563V88.4312C260.124 88.1997 260.06 88.0107 259.931 87.8643C259.805 87.7178 259.635 87.6445 259.421 87.6445C259.213 87.6445 259.043 87.7178 258.911 87.8643C258.782 88.0078 258.718 88.2026 258.718 88.4487V88.7739ZM256.499 89.5166L256.037 89.2266L259.162 84.2256L259.623 84.5156L256.499 89.5166Z" fill="#FF4F4F"/>
    <path d="M42.6071 0H167.442L112.193 282.312H42.6071C40.979 282.312 39.4175 281.666 38.2663 280.515C37.115 279.364 36.4683 277.803 36.4683 276.175V6.13722C36.4683 4.50953 37.115 2.9485 38.2663 1.79755C39.4175 0.646598 40.979 0 42.6071 0Z" fill="#6E747C"/>
    <path d="M66.1454 283H186L130.691 0H66.1454C64.5156 0 62.9525 0.648174 61.8 1.80193C60.6475 2.95569 60 4.52052 60 6.15217V276.848C60 278.479 60.6475 280.044 61.8 281.198C62.9525 282.352 64.5156 283 66.1454 283Z" fill="#979CA0"/>
    <path d="M0 283V0H130.587L149 94.3336L112.174 283H0Z" fill="white"/>
    <path d="M65.6051 92.7266L45.0005 126.857L65.6051 117.503V92.7266Z" fill="#8B8B8B"/>
    <path d="M65.6046 117.503L45 126.856L65.6046 139.007V117.503Z" fill="#393939"/>
    <path d="M65.605 92.7256V117.503L86.1898 126.856L65.605 92.7256Z" fill="#343434"/>
    <path d="M65.605 117.503V139.007L86.1898 126.856L65.605 117.503Z" fill="#161616"/>
    <path d="M45 130.751L65.6046 159.74V142.913L45 130.751Z" fill="#8B8B8B"/>
    <path d="M86.2096 130.751L65.605 142.913V159.74L86.2096 130.751Z" fill="#343434"/>
    <circle cx="90.7109" cy="127" r="12.5" fill="#34D6A3" stroke="white" stroke-width="3"/>
    <path d="M55.5056 189.287H50.2497V193.225H56.3933V195H48.0261V182.203H56.3317V183.996H50.2497V187.529H55.5056V189.287ZM67.6257 183.996H63.6355V195H61.4294V183.996H57.4743V182.203H67.6257V183.996ZM79.4734 195H77.2585V189.313H71.5368V195H69.3132V182.203H71.5368V187.529H77.2585V182.203H79.4734V195Z" fill="black"/>
    <path d="M90.7109 132.882V127" stroke="white" stroke-width="2"/>
    <path d="M95.7109 127H85.7109L90.7109 120L95.7109 127Z" fill="white"/>
    <rect x="192.5" y="108.5" width="213" height="76" rx="1.5" stroke="#576371"/>
    <rect x="192" y="35" width="176" height="40" fill="#394049"/>
    <rect x="370" y="35" width="36" height="40" fill="#394049"/>
    <path d="M212.598 62H210.353V51.1548L207.041 52.2866V50.3848L212.31 48.4458H212.598V62Z" fill="white"/>
    <path d="M380.99 61.1953L382.679 65.6823L384.363 61.1953H385.678V67.0492H384.665V65.1194L384.765 62.5382L383.037 67.0492H382.309L380.584 62.5422L380.685 65.1194V67.0492H379.671V61.1953H380.99Z" fill="white"/>
    <path d="M390.233 65.6863H387.966L387.491 67.0492H386.434L388.645 61.1953H389.558L391.773 67.0492H390.712L390.233 65.6863ZM388.251 64.8661H389.948L389.1 62.4377L388.251 64.8661Z" fill="white"/>
    <path d="M394.455 63.3101L395.685 61.1953H396.859L395.09 64.0982L396.899 67.0492H395.713L394.455 64.9023L393.193 67.0492H392.01L393.824 64.0982L392.051 61.1953H393.225L394.455 63.3101Z" fill="white"/>
    <path d="M320.514 54.9321H317.423V57.2479H321.036V58.2921H316.115V50.7656H321V51.8202H317.423V53.8982H320.514V54.9321Z" fill="white"/>
    <path d="M327.642 51.8202H325.295V58.2921H323.998V51.8202H321.672V50.7656H327.642V51.8202Z" fill="white"/>
    <path d="M334.61 58.2921H333.308V54.9476H329.943V58.2921H328.635V50.7656H329.943V53.8982H333.308V50.7656H334.61V58.2921Z" fill="white"/>
    <path d="M388 53.5291V50.0002" stroke="white" stroke-width="2"/>
    <path d="M392 50.0002H384L388 43.0002L392 50.0002Z" fill="white"/>
    <rect x="293.5" y="43.5" width="66" height="23" rx="11.5" stroke="white"/>
    <path d="M350.639 53.5869H343.581L347.11 57.1158L350.639 53.5869Z" fill="white"/>
    <path d="M301.234 54.8727L304.851 48.8818V57.0056L301.234 54.8727Z" fill="white"/>
    <path d="M304.851 48.8818V57.0056L308.464 54.8727L304.851 48.8818Z" fill="white"/>
    <path d="M301.234 55.5565L304.851 60.6449V57.6912L301.234 55.5565Z" fill="white"/>
    <path d="M304.851 57.6912L308.468 55.5565L304.851 60.6449V57.6912Z" fill="white"/>
</svg>
