<svg viewBox="0 0 50 50" fill="none" 
    xmlns="http://www.w3.org/2000/svg">
    <path d="M42.6106 42.7976C40.2837 45.129 37.5121 46.9678 34.4608 48.2043C31.4095 49.4409 28.141 50.0501 24.8498 49.9955C21.5775 50.0588 18.3268 49.4531 15.2963 48.2155C12.2658 46.9779 9.51915 45.1344 7.22434 42.7976C4.87595 40.508 3.02319 37.759 1.78129 34.7215C0.539398 31.6841 -0.0650527 28.4233 0.00554242 25.1419C0.00554242 17.9564 2.41181 11.9705 7.22434 7.18422C9.52072 4.85084 12.268 3.01076 15.2985 1.77637C18.3289 0.541973 21.5789 -0.060809 24.8498 0.0048401C28.1397 -0.0521299 31.4075 0.554103 34.4586 1.78747C37.5098 3.02084 40.2821 4.85615 42.6106 7.18422C47.5339 11.9705 49.9956 17.9564 49.9956 25.1419C50.0594 28.4374 49.4355 31.71 48.1638 34.7502C46.8922 37.7904 45.0008 40.5314 42.6106 42.7976Z"  class="path-gray" fill="#C8C8C8"/>
    <path d="M25.0156 8.53638L15 25.1265L25.0156 20.5801V8.53638Z" class="path-white" fill="#8B8B8B"/>
    <path d="M25.0156 20.5802L15 25.1266L25.0156 31.0332V20.5802Z" class="path-white" fill="#393939"/>
    <path d="M25.0156 8.53638V20.5801L35.0216 25.1265L25.0156 8.53638Z" class="path-white" fill="#343434"/>
    <path d="M25.0156 20.5802V31.0332L35.0216 25.1266L25.0156 20.5802Z" class="path-white" fill="#161616"/>
    <path d="M15 27.0201L25.0156 41.1112V32.9315L15 27.0201Z" class="path-white" fill="#8B8B8B"/>
    <path d="M35.0312 27.0201L25.0156 32.9315V41.1112L35.0312 27.0201Z" class="path-white" fill="#343434"/>
</svg>
