<svg width="30" height="30" viewBox="0 0 30 30" fill="none" xmlns="http://www.w3.org/2000/svg">
<path d="M0 6C0 2.68629 2.68629 0 6 0H24C27.3137 0 30 2.68629 30 6V24C30 27.3137 27.3137 30 24 30H6C2.68629 30 0 27.3137 0 24V6Z" fill="url(#paint0_linear)"/>
<path d="M14.1511 13.9179C13.5612 14.1301 13.1609 14.7243 13.203 15.3608C13.203 15.4881 13.2451 15.6367 13.2873 15.764L13.5401 16.443C13.814 17.1856 14.6146 17.5888 15.3521 17.313L16.3423 16.9522L18.8496 16.061C19.587 15.7852 19.9873 14.9789 19.7134 14.2362L19.4606 13.5572C19.1867 12.8145 18.3861 12.4114 17.6486 12.6872L14.8464 13.6845L14.2354 13.8967L14.1511 13.9179Z" fill="white"/>
<path d="M16.879 21.5026C16.7091 21.5666 16.5393 21.6519 16.3695 21.6945C14.756 22.2489 13.2274 22.1636 11.6776 21.4173C11.2955 21.2254 10.9134 21.0122 10.5737 20.7563C10.2765 20.5218 9.97925 20.2873 9.72449 19.9887C9.46974 19.7116 9.23621 19.3917 9.02391 19.0719C8.81161 18.7094 8.62054 18.3043 8.47193 17.8992C8.0261 16.6625 7.98364 15.4684 8.32332 14.2744C8.42947 13.8906 8.57808 13.5281 8.74792 13.1656C9.21498 12.1848 9.85187 11.4172 10.6586 10.8201C11.1469 10.479 11.6776 10.2018 12.2296 9.98857C12.3995 9.9246 12.5905 9.86063 12.7604 9.81799L13.2062 9.69006L11.9961 6.2998L11.5927 6.42774C11.4017 6.49171 11.2318 6.53435 11.0408 6.59832C9.74572 7.06741 8.64177 7.70708 7.70765 8.55997C7.64396 8.62394 7.58027 8.68791 7.49535 8.75187C6.66738 9.56212 5.98803 10.5216 5.47851 11.5877C4.37455 13.9332 4.20471 16.3426 4.96899 18.7734C5.01145 18.88 5.03268 18.9866 5.07514 19.0932C5.58466 20.5644 6.37016 21.8011 7.41043 22.8246C8.19594 23.5922 9.10883 24.2106 10.0854 24.6797C10.4039 24.8289 10.7223 24.9568 11.0408 25.0848C11.253 25.1701 11.4441 25.234 11.6564 25.298C13.1637 25.7245 14.7772 25.7671 16.3058 25.4046C16.7091 25.3193 17.1125 25.1914 17.5159 25.0421C17.707 24.9782 17.898 24.8929 18.0679 24.8289L18.45 24.6583L17.5159 21.993L17.2611 21.2894L16.879 21.5026Z" fill="white"/>
<path d="M18.5625 3.7847L17.7188 4.08395L16.1156 4.66107L14.7234 5.1527L13.5 5.58019L14.7023 9.0002L14.7656 8.97882L15.5039 8.72232L20.2711 7.01232L21.8742 6.43519L22.7602 6.11457L23.7937 5.7512L27.2742 4.49007L29.7 3.6137C29.468 2.35257 28.7719 1.24107 27.7805 0.450195L26.0719 1.09145L18.5625 3.7847Z" fill="white"/>
<defs>
<linearGradient id="paint0_linear" x1="28.05" y1="28.05" x2="4.05" y2="4.05" gradientUnits="userSpaceOnUse">
<stop offset="0.159375" stop-color="#003CDA"/>
<stop offset="1" stop-color="#33DFCC"/>
</linearGradient>
</defs>
</svg>
