<svg viewBox="0 0 56 56" fill="none" 
    xmlns="http://www.w3.org/2000/svg">
    <circle cx="28" cy="28" r="28" fill="#276BFB"/>
    <path d="M28 11.2C31.2514 11.2 34.2498 11.9695 36.9951 13.5092C39.7405 15.0489 41.9145 17.1386 43.5166 19.7768C45.1186 22.415 45.92 25.2966 45.92 28.4209C45.92 32.173 44.7803 35.5478 42.5016 38.5445C40.2222 41.5418 37.279 43.616 33.6706 44.7664C33.2499 44.8415 32.9395 44.7896 32.7366 44.61C32.639 44.5264 32.5612 44.4228 32.5088 44.3066C32.4564 44.1903 32.4307 44.0643 32.4334 43.9373L32.4449 42.2222C32.4528 41.123 32.4564 40.1178 32.4564 39.2059C32.4564 37.756 32.0521 36.6947 31.2435 36.022C32.1302 35.9322 32.9273 35.7975 33.6348 35.6186C34.343 35.4391 35.0741 35.1473 35.8282 34.7439C36.583 34.3406 37.213 33.8432 37.7184 33.2526C38.2237 32.6627 38.6359 31.8777 38.9549 30.8985C39.2738 29.9192 39.4337 28.7941 39.4337 27.5244C39.4337 25.7448 38.8187 24.2051 37.5901 22.9046C38.1657 21.5438 38.1033 20.0195 37.4037 18.331C36.9679 18.1957 36.3378 18.2784 35.5135 18.5766C34.6892 18.8761 33.9731 19.2051 33.3667 19.5635L32.48 20.1015C31.0202 19.7114 29.5133 19.5156 28 19.5193C26.4867 19.5156 24.9798 19.7114 23.52 20.1015C23.1954 19.8907 22.8649 19.6888 22.5287 19.4962C22.1158 19.2577 21.4664 18.9701 20.5797 18.6334C19.693 18.2967 19.0321 18.1957 18.597 18.3303C17.8967 20.0195 17.8344 21.5445 18.4107 22.9046C17.1814 24.2051 16.5663 25.7455 16.5663 27.5237C16.5663 28.7941 16.7262 29.9157 17.0452 30.8873C17.3641 31.8588 17.772 32.6437 18.2702 33.2414C18.7676 33.8397 19.3941 34.3406 20.1482 34.7439C20.903 35.1473 21.6341 35.4391 22.3416 35.6186C23.0498 35.7975 23.8469 35.9322 24.7336 36.022C24.1264 36.56 23.7458 37.3302 23.5903 38.3319C23.255 38.484 22.9025 38.5968 22.5401 38.6679C22.1667 38.743 21.723 38.7801 21.2098 38.7801C20.6965 38.7801 20.1869 38.6188 19.6816 38.2982C19.1762 37.9763 18.7447 37.5091 18.387 36.8967C18.1029 36.4304 17.716 36.0321 17.2545 35.7309C16.7957 35.4314 16.4108 35.2525 16.1004 35.1922L15.6331 35.1248C15.3069 35.1248 15.0811 35.1585 14.9564 35.2258C14.8324 35.2932 14.7937 35.3794 14.8403 35.484C14.8869 35.5892 14.9564 35.693 15.0503 35.7975C15.1435 35.9027 15.2438 35.9918 15.3535 36.0669L15.5169 36.1791C15.8589 36.3285 16.1979 36.6126 16.5319 37.0314C16.866 37.4495 17.1111 37.8311 17.2667 38.1748L17.5003 38.6904C17.7025 39.2585 18.0451 39.718 18.5268 40.0694C19.0092 40.4202 19.5303 40.6446 20.0894 40.7421C20.6499 40.8389 21.1904 40.8916 21.7115 40.8993C22.2326 40.9063 22.6649 40.8803 23.0068 40.8207L23.5437 40.7309C23.5437 41.2991 23.5473 41.9606 23.5551 42.7154L23.5666 43.9373C23.5666 44.2067 23.4655 44.4304 23.2634 44.61C23.0613 44.7896 22.7502 44.8415 22.3301 44.7671C18.721 43.616 15.7771 41.5418 13.4984 38.5452C11.219 35.5464 10.08 32.1723 10.08 28.4209C10.08 25.2966 10.8814 22.415 12.4834 19.7768C14.0855 17.1386 16.2595 15.0489 19.0049 13.5092C21.7502 11.9695 24.7486 11.2 28 11.2ZM16.8703 35.9322C16.9169 35.8277 16.8624 35.7379 16.7068 35.6635C16.5513 35.6186 16.4502 35.6334 16.4036 35.7084C16.357 35.8129 16.4108 35.9027 16.5663 35.9771C16.7068 36.0669 16.8079 36.0521 16.8703 35.9322ZM17.5935 36.6947C17.7025 36.6203 17.6867 36.5004 17.5469 36.3362C17.3914 36.2016 17.2667 36.1791 17.1735 36.2689C17.0645 36.3433 17.0803 36.4632 17.2201 36.6273C17.3756 36.7768 17.5003 36.7992 17.5935 36.6947ZM18.2931 37.7041C18.4336 37.5989 18.4336 37.4572 18.2931 37.2776C18.1691 37.0833 18.0365 37.0391 17.8967 37.1429C17.7569 37.218 17.7569 37.3527 17.8967 37.547C18.0365 37.7413 18.1691 37.7932 18.2931 37.7041ZM19.2737 38.6455C19.3977 38.5262 19.3669 38.3838 19.1805 38.2197C18.9934 38.0401 18.8379 38.0177 18.7132 38.1523C18.5734 38.2716 18.6042 38.414 18.8063 38.5781C18.9927 38.7577 19.149 38.7801 19.2737 38.6455ZM20.6034 39.2066C20.6499 39.0418 20.5489 38.9218 20.3002 38.8475C20.0665 38.7879 19.9188 38.8405 19.8565 39.0046C19.7948 39.1688 19.8959 39.281 20.1604 39.3406C20.3933 39.4304 20.541 39.3862 20.6034 39.2066ZM22.0728 39.3189C22.0728 39.1239 21.9409 39.0418 21.6764 39.0713C21.4277 39.0713 21.3037 39.154 21.3037 39.3182C21.3037 39.5125 21.4356 39.5945 21.7001 39.5651C21.9488 39.5651 22.0728 39.483 22.0728 39.3189ZM23.4268 39.0944C23.3953 38.9296 23.2555 38.8629 23.0068 38.8924C22.7581 38.9373 22.6484 39.0488 22.6799 39.2291C22.7115 39.408 22.8512 39.4676 23.1 39.408C23.3487 39.3483 23.4584 39.2445 23.4268 39.0944Z" fill="white"/>
</svg>
