<svg viewBox="0 0 120 120" fill="none" 
    xmlns="http://www.w3.org/2000/svg">
    <rect x="25" y="21" width="70" height="89" class="icon-safe-switch" />
    <path d="M5 21H115V87C115 89.2091 113.209 91 111 91H9C6.79086 91 5 89.2091 5 87V21Z" fill="#56A9FF"/>
    <path d="M115 21L5 21L5 14C5 11.7909 6.79086 10 9 10L111 9.99999C113.209 9.99999 115 11.7909 115 14L115 21Z" fill="#33DFCC"/>
    <rect x="25" y="21" width="70" height="70" fill="#276BFB"/>
    <circle cx="60" cy="56" r="23" fill="white"/>
    <path d="M50.572 69.2546C52.2662 69.8022 54.4032 69.0538 55 68.3603L54 76C53 74.5 53.1602 72.8169 51 72.5C47.7656 72.0255 46.8521 70.1613 46.1248 68.8348C44.6036 66.0605 42.762 66.037 43.0253 65.4583C43.4489 64.5276 45.9323 65.075 47.3184 66.5534C48.4218 67.7302 48.8778 68.7071 50.572 69.2546Z" fill="#276BFB"/>
    <path d="M53.8454 45.3773C54.666 44.977 57.0458 44.1765 60 44.1765C62.9542 44.1765 65.334 44.977 66.1546 45.3773C67.3855 44.1765 69.8474 42 72.3092 42C73.2939 44.882 73.5401 47.1785 72.3092 48.9797C74.1556 51.3814 76.6174 56.1846 73.5401 60.9879C71.5759 64.0538 68.4505 65.0429 66.1979 65.0429C65.5488 65.0429 64.5947 65.2575 65.5059 66.8014C66.506 68.496 67.3603 71.03 66.7701 74.1968C66.4517 75.905 66.1462 77.2408 65.8785 78.2733C64.0002 78.7476 62.0303 79 60 79C57.9697 79 55.9998 78.7476 54.1215 78.2732C53.8538 77.2408 53.5483 75.905 53.2299 74.1968C52.6397 71.03 53.494 68.496 54.4941 66.8014C55.4053 65.2575 54.4512 65.0429 53.8021 65.0429C51.5495 65.0429 48.4241 64.0538 46.4599 60.9879C43.3826 56.1846 45.8444 51.3814 47.6908 48.9797C46.4599 47.1785 46.7061 44.882 47.6908 42C50.1526 42 52.6145 44.1765 53.8454 45.3773Z" fill="#276BFB"/>
</svg>
