<svg viewBox="0 0 50 50" fill="none" 
    xmlns="http://www.w3.org/2000/svg">
    <path d="M42.5995 42.8142C40.2706 45.1436 37.4976 46.9798 34.4457 48.2135C31.3938 49.4472 28.1253 50.0532 24.8347 49.9953C21.5648 50.0597 18.3161 49.4556 15.287 48.2198C12.258 46.9841 9.51233 45.1426 7.2177 42.8081C4.86906 40.5173 3.01664 37.7665 1.77588 34.7271C0.535124 31.6876 -0.0673629 28.4248 0.00597474 25.1419C0.00597474 17.9587 2.41399 11.9734 7.23001 7.18597C9.52609 4.85202 12.2731 3.01149 15.3031 1.7768C18.3332 0.542105 21.5827 -0.0608238 24.8532 0.00484128C28.1431 -0.0509848 31.4106 0.556527 34.4614 1.79125C37.5121 3.02597 40.2839 4.86267 42.6118 7.19213C47.5344 11.9837 49.9958 17.971 49.9958 25.1542C50.058 28.4514 49.4323 31.7253 48.1586 34.7663C46.885 37.8074 44.9915 40.5485 42.5995 42.8142Z"  class="path-gray" fill="#49BC98"/>
    <path d="M33.5721 16.1696L26.4229 11L26.062 11.0276C25.8902 11.238 25.7515 11.4723 25.6505 11.7228C25.0184 14.3913 24.4002 17.0666 23.7823 19.7407L23.782 19.7424L23.7806 19.7485C23.6108 20.483 23.4411 21.2175 23.2712 21.9517C23.2141 22.2051 23.1605 22.4619 23.0996 22.7532L23.0456 23.011C23.128 22.9695 23.1986 22.9358 23.2615 22.9057C23.3493 22.8637 23.4221 22.8289 23.491 22.7903L31.1758 18.6414C32.0272 18.1889 32.8729 17.7365 33.7187 17.2731C33.8036 17.2302 33.8761 17.1669 33.9291 17.0891C33.9822 17.0113 34.0142 16.9215 34.0221 16.8283C34.03 16.735 34.0135 16.6414 33.9743 16.5561C33.935 16.4708 33.8742 16.3967 33.7976 16.3407L33.5721 16.1696Z" fill="white"/>
    <path d="M16.0374 16.7545C15.5825 17.0566 15.2277 17.4824 15.0169 17.9793L15 32.2634C15.2011 32.6247 15.4473 32.9601 15.733 33.262C17.3441 34.5602 18.9739 35.8431 20.6016 37.1244L20.6027 37.1253C21.1676 37.5699 21.7323 38.0144 22.2958 38.4592C22.51 38.6303 22.7412 38.7572 23.0118 38.5917C23.1259 38.5152 23.2106 38.4037 23.2525 38.2747C23.2944 38.1458 23.291 38.0068 23.243 37.8799C22.3897 33.7935 21.5459 29.7034 20.7114 25.6096C20.6466 25.2946 20.6466 24.9701 20.7114 24.6551C21.5572 20.5761 22.4123 16.5007 23.2768 12.429C23.3388 12.131 23.3332 11.8552 23.04 11.6897C22.7468 11.5241 22.5157 11.6841 22.2958 11.8607C21.7089 12.3201 21.1224 12.78 20.536 13.2399C19.0381 14.4145 17.5407 15.5888 16.0374 16.7545Z" fill="white"/>
    <path d="M26.0113 39C25.8439 38.7997 25.7072 38.5767 25.6054 38.3379C24.9465 35.4949 24.3014 32.6451 23.6567 29.7965C23.4794 29.0132 23.3021 28.2299 23.1246 27.4469C23.1246 27.3663 23.1071 27.2857 23.0855 27.1857C23.0746 27.1351 23.0626 27.0796 23.0513 27.0166C23.1044 27.0418 23.1524 27.0639 23.1964 27.0842C23.297 27.1305 23.3771 27.1675 23.4516 27.2097L33.5664 32.6883C34.1923 33.0304 34.2148 33.4 33.6228 33.7917L26.4229 38.9228L26.3721 38.9724L26.0113 39Z" fill="white"/>
    <path d="M24.8217 24.0318L23.3614 24.8428L23.7391 25.069L30.4147 28.749L34.0626 30.8014C34.4122 30.9945 34.7335 30.9614 34.8858 30.7021C34.9695 30.5302 35.0083 30.3406 34.9985 30.1504V19.6676C34.9985 18.9063 34.6264 18.6966 33.9498 19.0663L24.8217 24.0318Z" fill="white"/>
</svg>
