<svg width="440" height="283" viewBox="0 0 440 283" fill="none" 
    xmlns="http://www.w3.org/2000/svg">
    <rect width="441" height="283" fill="#444E5A"/>
    <rect x="326" y="210" width="83" height="34" rx="17" fill="#6CBE85"/>
    <rect x="214" y="108" width="195" height="63" fill="#394049"/>
    <path d="M351.75 229.169C351.75 228.856 351.639 228.616 351.418 228.446C351.2 228.277 350.804 228.106 350.231 227.934C349.659 227.761 349.203 227.569 348.864 227.357C348.216 226.951 347.893 226.42 347.893 225.766C347.893 225.193 348.125 224.721 348.591 224.35C349.06 223.979 349.667 223.793 350.412 223.793C350.907 223.793 351.348 223.884 351.735 224.066C352.123 224.249 352.427 224.509 352.648 224.848C352.87 225.183 352.98 225.556 352.98 225.966H351.75C351.75 225.595 351.633 225.305 351.398 225.097C351.167 224.885 350.835 224.779 350.402 224.779C349.999 224.779 349.685 224.866 349.46 225.038C349.239 225.211 349.128 225.451 349.128 225.761C349.128 226.021 349.248 226.239 349.489 226.415C349.73 226.588 350.127 226.757 350.681 226.923C351.234 227.086 351.678 227.273 352.014 227.484C352.349 227.693 352.595 227.934 352.751 228.207C352.907 228.477 352.985 228.795 352.985 229.159C352.985 229.752 352.757 230.224 352.302 230.575C351.849 230.924 351.234 231.098 350.456 231.098C349.942 231.098 349.468 231.003 349.035 230.814C348.605 230.622 348.27 230.359 348.029 230.023C347.792 229.688 347.673 229.298 347.673 228.852H348.908C348.908 229.255 349.042 229.568 349.309 229.789C349.576 230.01 349.958 230.121 350.456 230.121C350.886 230.121 351.208 230.035 351.423 229.862C351.641 229.687 351.75 229.455 351.75 229.169ZM360.07 223.891V228.642C360.07 229.397 359.827 229.996 359.342 230.438C358.86 230.878 358.217 231.098 357.413 231.098C356.599 231.098 355.953 230.881 355.475 230.448C354.996 230.012 354.757 229.408 354.757 228.637V223.891H355.987V228.646C355.987 229.122 356.108 229.485 356.349 229.735C356.59 229.986 356.945 230.111 357.413 230.111C358.364 230.111 358.839 229.61 358.839 228.607V223.891H360.07ZM362.193 231V223.891H364.629C365.433 223.891 366.045 224.052 366.465 224.374C366.885 224.696 367.095 225.176 367.095 225.814C367.095 226.14 367.007 226.433 366.831 226.693C366.656 226.954 366.399 227.156 366.06 227.299C366.444 227.403 366.74 227.6 366.949 227.89C367.16 228.176 367.266 228.521 367.266 228.925C367.266 229.592 367.051 230.105 366.621 230.463C366.195 230.821 365.583 231 364.786 231H362.193ZM363.428 227.792V230.014H364.8C365.188 230.014 365.49 229.918 365.708 229.726C365.926 229.534 366.036 229.267 366.036 228.925C366.036 228.186 365.658 227.808 364.903 227.792H363.428ZM363.428 226.884H364.639C365.023 226.884 365.323 226.798 365.537 226.625C365.756 226.449 365.865 226.202 365.865 225.883C365.865 225.531 365.764 225.277 365.562 225.121C365.363 224.965 365.052 224.887 364.629 224.887H363.428V226.884ZM370.903 223.891L372.954 229.34L375 223.891H376.596V231H375.366V228.656L375.488 225.521L373.388 231H372.504L370.41 225.526L370.532 228.656V231H369.301V223.891H370.903ZM380.165 231H378.934V223.891H380.165V231ZM387.474 224.887H385.257V231H384.031V224.887H381.834V223.891H387.474V224.887Z" fill="white"/>
    <path d="M270.811 228.686C270.739 229.444 270.459 230.036 269.971 230.463C269.482 230.886 268.833 231.098 268.022 231.098C267.456 231.098 266.956 230.964 266.523 230.697C266.094 230.427 265.762 230.045 265.527 229.55C265.293 229.055 265.171 228.48 265.161 227.826V227.162C265.161 226.492 265.28 225.901 265.518 225.39C265.755 224.879 266.095 224.485 266.538 224.208C266.984 223.931 267.498 223.793 268.081 223.793C268.866 223.793 269.497 224.006 269.976 224.433C270.454 224.859 270.732 225.461 270.811 226.239H269.58C269.521 225.728 269.372 225.36 269.131 225.136C268.893 224.908 268.543 224.794 268.081 224.794C267.544 224.794 267.131 224.991 266.841 225.385C266.554 225.775 266.408 226.35 266.401 227.108V227.738C266.401 228.507 266.538 229.092 266.812 229.496C267.088 229.9 267.492 230.102 268.022 230.102C268.507 230.102 268.872 229.993 269.116 229.774C269.36 229.556 269.515 229.193 269.58 228.686H270.811ZM274.961 231C274.909 230.899 274.863 230.735 274.824 230.507C274.447 230.901 273.984 231.098 273.438 231.098C272.907 231.098 272.474 230.946 272.139 230.644C271.803 230.341 271.636 229.966 271.636 229.521C271.636 228.957 271.844 228.526 272.261 228.227C272.681 227.924 273.28 227.772 274.058 227.772H274.785V227.426C274.785 227.152 274.709 226.934 274.556 226.771C274.403 226.605 274.17 226.522 273.857 226.522C273.587 226.522 273.366 226.591 273.193 226.728C273.021 226.861 272.935 227.032 272.935 227.24H271.748C271.748 226.951 271.844 226.68 272.036 226.43C272.228 226.176 272.489 225.977 272.817 225.834C273.149 225.691 273.519 225.619 273.926 225.619C274.544 225.619 275.037 225.775 275.405 226.088C275.773 226.397 275.962 226.833 275.972 227.396V229.779C275.972 230.255 276.038 230.634 276.172 230.917V231H274.961ZM273.657 230.146C273.892 230.146 274.111 230.089 274.316 229.975C274.525 229.861 274.681 229.708 274.785 229.516V228.52H274.146C273.706 228.52 273.376 228.596 273.154 228.749C272.933 228.902 272.822 229.118 272.822 229.398C272.822 229.626 272.897 229.809 273.047 229.945C273.2 230.079 273.403 230.146 273.657 230.146ZM278.315 225.717L278.35 226.327C278.74 225.855 279.253 225.619 279.888 225.619C280.988 225.619 281.548 226.249 281.567 227.509V231H280.381V227.577C280.381 227.242 280.308 226.994 280.161 226.835C280.018 226.672 279.782 226.591 279.453 226.591C278.975 226.591 278.618 226.807 278.384 227.24V231H277.197V225.717H278.315ZM284.951 230.15C285.247 230.15 285.493 230.064 285.688 229.892C285.884 229.719 285.988 229.506 286.001 229.252H287.119C287.106 229.581 287.004 229.888 286.812 230.175C286.619 230.458 286.359 230.683 286.03 230.849C285.701 231.015 285.347 231.098 284.966 231.098C284.227 231.098 283.641 230.858 283.208 230.38C282.775 229.901 282.559 229.241 282.559 228.397V228.275C282.559 227.471 282.773 226.828 283.203 226.347C283.633 225.862 284.219 225.619 284.961 225.619C285.589 225.619 286.1 225.803 286.494 226.171C286.891 226.535 287.1 227.016 287.119 227.611H286.001C285.988 227.309 285.884 227.06 285.688 226.864C285.496 226.669 285.251 226.571 284.951 226.571C284.567 226.571 284.271 226.711 284.062 226.991C283.854 227.268 283.748 227.689 283.745 228.256V228.446C283.745 229.019 283.848 229.447 284.053 229.73C284.261 230.01 284.561 230.15 284.951 230.15ZM290.342 231.098C289.59 231.098 288.979 230.862 288.511 230.39C288.045 229.914 287.812 229.283 287.812 228.495V228.349C287.812 227.821 287.913 227.351 288.115 226.938C288.32 226.521 288.607 226.197 288.975 225.966C289.342 225.735 289.753 225.619 290.205 225.619C290.924 225.619 291.479 225.849 291.87 226.308C292.264 226.767 292.461 227.416 292.461 228.256V228.734H289.009C289.045 229.171 289.189 229.516 289.443 229.77C289.701 230.023 290.023 230.15 290.41 230.15C290.954 230.15 291.396 229.931 291.738 229.491L292.378 230.102C292.166 230.417 291.883 230.663 291.528 230.839C291.177 231.011 290.781 231.098 290.342 231.098ZM290.2 226.571C289.875 226.571 289.611 226.685 289.409 226.913C289.211 227.141 289.084 227.458 289.028 227.865H291.289V227.777C291.263 227.38 291.157 227.081 290.972 226.879C290.786 226.674 290.529 226.571 290.2 226.571ZM294.648 231H293.462V223.5H294.648V231Z" fill="#A2ABB8"/>
    <path d="M215.026 189H213.796V181.891H215.026V189ZM217.531 183.717L217.565 184.327C217.956 183.855 218.469 183.619 219.104 183.619C220.204 183.619 220.764 184.249 220.783 185.509V189H219.597V185.577C219.597 185.242 219.523 184.994 219.377 184.835C219.234 184.672 218.998 184.591 218.669 184.591C218.19 184.591 217.834 184.807 217.6 185.24V189H216.413V183.717H217.531ZM224.958 187.564C224.958 187.353 224.87 187.192 224.694 187.081C224.522 186.97 224.234 186.873 223.83 186.788C223.426 186.703 223.09 186.596 222.819 186.466C222.227 186.179 221.931 185.764 221.931 185.221C221.931 184.765 222.123 184.384 222.507 184.078C222.891 183.772 223.379 183.619 223.972 183.619C224.603 183.619 225.113 183.775 225.5 184.088C225.891 184.4 226.086 184.806 226.086 185.304H224.899C224.899 185.076 224.815 184.887 224.646 184.737C224.476 184.584 224.252 184.508 223.972 184.508C223.711 184.508 223.498 184.568 223.332 184.688C223.169 184.809 223.088 184.97 223.088 185.172C223.088 185.354 223.164 185.496 223.317 185.597C223.47 185.698 223.78 185.8 224.245 185.904C224.711 186.005 225.075 186.127 225.339 186.271C225.606 186.41 225.803 186.58 225.93 186.778C226.06 186.977 226.125 187.218 226.125 187.501C226.125 187.976 225.928 188.362 225.534 188.658C225.14 188.951 224.624 189.098 223.986 189.098C223.553 189.098 223.168 189.02 222.829 188.863C222.491 188.707 222.227 188.492 222.038 188.219C221.849 187.945 221.755 187.651 221.755 187.335H222.907C222.924 187.615 223.029 187.831 223.225 187.984C223.42 188.134 223.679 188.209 224.001 188.209C224.313 188.209 224.551 188.15 224.714 188.033C224.877 187.913 224.958 187.757 224.958 187.564ZM229.489 189.098C228.737 189.098 228.127 188.862 227.658 188.39C227.193 187.914 226.96 187.283 226.96 186.495V186.349C226.96 185.821 227.061 185.351 227.263 184.938C227.468 184.521 227.754 184.197 228.122 183.966C228.49 183.735 228.9 183.619 229.353 183.619C230.072 183.619 230.627 183.849 231.018 184.308C231.411 184.767 231.608 185.416 231.608 186.256V186.734H228.156C228.192 187.171 228.337 187.516 228.591 187.77C228.848 188.023 229.17 188.15 229.558 188.15C230.101 188.15 230.544 187.931 230.886 187.491L231.525 188.102C231.314 188.417 231.031 188.663 230.676 188.839C230.324 189.011 229.929 189.098 229.489 189.098ZM229.348 184.571C229.022 184.571 228.758 184.685 228.557 184.913C228.358 185.141 228.231 185.458 228.176 185.865H230.437V185.777C230.41 185.38 230.305 185.081 230.119 184.879C229.934 184.674 229.676 184.571 229.348 184.571ZM235.3 184.801C235.144 184.775 234.982 184.762 234.816 184.762C234.273 184.762 233.907 184.97 233.718 185.387V189H232.531V183.717H233.664L233.693 184.308C233.98 183.849 234.377 183.619 234.885 183.619C235.054 183.619 235.194 183.642 235.305 183.688L235.3 184.801ZM237.78 182.433V183.717H238.713V184.596H237.78V187.545C237.78 187.747 237.819 187.893 237.897 187.984C237.979 188.072 238.122 188.116 238.327 188.116C238.464 188.116 238.602 188.1 238.742 188.067V188.985C238.472 189.06 238.212 189.098 237.961 189.098C237.049 189.098 236.594 188.595 236.594 187.589V184.596H235.725V183.717H236.594V182.433H237.78ZM243.229 183.717L243.264 184.269C243.635 183.836 244.143 183.619 244.787 183.619C245.493 183.619 245.977 183.889 246.237 184.43C246.621 183.889 247.162 183.619 247.858 183.619C248.441 183.619 248.874 183.78 249.157 184.103C249.444 184.425 249.59 184.9 249.597 185.528V189H248.41V185.562C248.41 185.227 248.337 184.981 248.19 184.825C248.044 184.669 247.801 184.591 247.463 184.591C247.193 184.591 246.971 184.664 246.799 184.811C246.63 184.954 246.511 185.143 246.442 185.377L246.447 189H245.261V185.523C245.244 184.902 244.927 184.591 244.309 184.591C243.833 184.591 243.496 184.785 243.298 185.172V189H242.111V183.717H243.229ZM253.972 189C253.92 188.899 253.874 188.735 253.835 188.507C253.457 188.901 252.995 189.098 252.448 189.098C251.918 189.098 251.485 188.946 251.149 188.644C250.814 188.341 250.646 187.966 250.646 187.521C250.646 186.957 250.855 186.526 251.271 186.227C251.691 185.924 252.29 185.772 253.068 185.772H253.796V185.426C253.796 185.152 253.719 184.934 253.566 184.771C253.413 184.605 253.181 184.522 252.868 184.522C252.598 184.522 252.377 184.591 252.204 184.728C252.032 184.861 251.945 185.032 251.945 185.24H250.759C250.759 184.951 250.855 184.68 251.047 184.43C251.239 184.176 251.499 183.977 251.828 183.834C252.16 183.691 252.53 183.619 252.937 183.619C253.555 183.619 254.048 183.775 254.416 184.088C254.784 184.397 254.973 184.833 254.982 185.396V187.779C254.982 188.255 255.049 188.634 255.183 188.917V189H253.972ZM252.668 188.146C252.902 188.146 253.122 188.089 253.327 187.975C253.535 187.861 253.692 187.708 253.796 187.516V186.52H253.156C252.717 186.52 252.386 186.596 252.165 186.749C251.944 186.902 251.833 187.118 251.833 187.398C251.833 187.626 251.908 187.809 252.058 187.945C252.211 188.079 252.414 188.146 252.668 188.146ZM258.122 185.455L259.128 183.717H260.446L258.83 186.319L260.5 189H259.191L258.137 187.193L257.087 189H255.769L257.438 186.319L255.827 183.717H257.136L258.122 185.455ZM265.607 187.496L266.726 183.717H267.951L266.12 189H265.09L263.244 183.717H264.475L265.607 187.496ZM271.774 189C271.722 188.899 271.677 188.735 271.638 188.507C271.26 188.901 270.798 189.098 270.251 189.098C269.72 189.098 269.287 188.946 268.952 188.644C268.617 188.341 268.449 187.966 268.449 187.521C268.449 186.957 268.658 186.526 269.074 186.227C269.494 185.924 270.093 185.772 270.871 185.772H271.599V185.426C271.599 185.152 271.522 184.934 271.369 184.771C271.216 184.605 270.983 184.522 270.671 184.522C270.401 184.522 270.179 184.591 270.007 184.728C269.834 184.861 269.748 185.032 269.748 185.24H268.562C268.562 184.951 268.658 184.68 268.85 184.43C269.042 184.176 269.302 183.977 269.631 183.834C269.963 183.691 270.332 183.619 270.739 183.619C271.358 183.619 271.851 183.775 272.219 184.088C272.587 184.397 272.775 184.833 272.785 185.396V187.779C272.785 188.255 272.852 188.634 272.985 188.917V189H271.774ZM270.471 188.146C270.705 188.146 270.925 188.089 271.13 187.975C271.338 187.861 271.494 187.708 271.599 187.516V186.52H270.959C270.52 186.52 270.189 186.596 269.968 186.749C269.746 186.902 269.636 187.118 269.636 187.398C269.636 187.626 269.711 187.809 269.86 187.945C270.013 188.079 270.217 188.146 270.471 188.146ZM275.29 189H274.104V181.5H275.29V189ZM279.787 188.482C279.439 188.893 278.944 189.098 278.303 189.098C277.73 189.098 277.295 188.93 276.999 188.595C276.706 188.259 276.56 187.774 276.56 187.14V183.717H277.746V187.125C277.746 187.796 278.024 188.131 278.581 188.131C279.157 188.131 279.546 187.924 279.748 187.511V183.717H280.935V189H279.816L279.787 188.482ZM284.47 189.098C283.718 189.098 283.107 188.862 282.639 188.39C282.173 187.914 281.94 187.283 281.94 186.495V186.349C281.94 185.821 282.041 185.351 282.243 184.938C282.448 184.521 282.735 184.197 283.103 183.966C283.47 183.735 283.881 183.619 284.333 183.619C285.052 183.619 285.607 183.849 285.998 184.308C286.392 184.767 286.589 185.416 286.589 186.256V186.734H283.137C283.173 187.171 283.317 187.516 283.571 187.77C283.828 188.023 284.151 188.15 284.538 188.15C285.082 188.15 285.524 187.931 285.866 187.491L286.506 188.102C286.294 188.417 286.011 188.663 285.656 188.839C285.305 189.011 284.909 189.098 284.47 189.098ZM284.328 184.571C284.003 184.571 283.739 184.685 283.537 184.913C283.339 185.141 283.212 185.458 283.156 185.865H285.417V185.777C285.391 185.38 285.285 185.081 285.1 184.879C284.914 184.674 284.657 184.571 284.328 184.571Z" fill="#A2ABB8"/>
    <path d="M218.751 40.1445H215.772L215.104 42H214.137L216.852 34.8906H217.672L220.392 42H219.43L218.751 40.1445ZM216.056 39.373H218.473L217.262 36.0479L216.056 39.373ZM224.283 40.5986C224.283 40.3545 224.19 40.1657 224.005 40.0322C223.823 39.8955 223.502 39.7783 223.043 39.6807C222.587 39.583 222.224 39.4658 221.954 39.3291C221.687 39.1924 221.489 39.0296 221.358 38.8408C221.231 38.652 221.168 38.4274 221.168 38.167C221.168 37.734 221.35 37.3678 221.715 37.0684C222.083 36.7689 222.551 36.6191 223.121 36.6191C223.72 36.6191 224.205 36.7738 224.576 37.083C224.951 37.3923 225.138 37.7878 225.138 38.2695H224.229C224.229 38.0221 224.124 37.8089 223.912 37.6299C223.704 37.4508 223.44 37.3613 223.121 37.3613C222.792 37.3613 222.535 37.4329 222.35 37.5762C222.164 37.7194 222.071 37.9066 222.071 38.1377C222.071 38.3558 222.158 38.5202 222.33 38.6309C222.503 38.7415 222.813 38.8473 223.263 38.9482C223.715 39.0492 224.081 39.1696 224.361 39.3096C224.641 39.4495 224.848 39.6188 224.981 39.8174C225.118 40.0127 225.187 40.252 225.187 40.5352C225.187 41.0072 224.998 41.3864 224.62 41.6729C224.243 41.9561 223.753 42.0977 223.15 42.0977C222.727 42.0977 222.353 42.0228 222.027 41.873C221.702 41.7233 221.446 41.515 221.261 41.248C221.078 40.9779 220.987 40.6865 220.987 40.374H221.891C221.907 40.6768 222.027 40.9176 222.252 41.0967C222.48 41.2725 222.779 41.3604 223.15 41.3604C223.492 41.3604 223.766 41.292 223.971 41.1553C224.179 41.0153 224.283 40.8298 224.283 40.5986ZM229.439 40.5986C229.439 40.3545 229.347 40.1657 229.161 40.0322C228.979 39.8955 228.658 39.7783 228.199 39.6807C227.743 39.583 227.381 39.4658 227.11 39.3291C226.843 39.1924 226.645 39.0296 226.515 38.8408C226.388 38.652 226.324 38.4274 226.324 38.167C226.324 37.734 226.507 37.3678 226.871 37.0684C227.239 36.7689 227.708 36.6191 228.277 36.6191C228.876 36.6191 229.361 36.7738 229.732 37.083C230.107 37.3923 230.294 37.7878 230.294 38.2695H229.386C229.386 38.0221 229.28 37.8089 229.068 37.6299C228.86 37.4508 228.596 37.3613 228.277 37.3613C227.949 37.3613 227.691 37.4329 227.506 37.5762C227.32 37.7194 227.228 37.9066 227.228 38.1377C227.228 38.3558 227.314 38.5202 227.486 38.6309C227.659 38.7415 227.97 38.8473 228.419 38.9482C228.871 39.0492 229.238 39.1696 229.518 39.3096C229.798 39.4495 230.004 39.6188 230.138 39.8174C230.274 40.0127 230.343 40.252 230.343 40.5352C230.343 41.0072 230.154 41.3864 229.776 41.6729C229.399 41.9561 228.909 42.0977 228.307 42.0977C227.883 42.0977 227.509 42.0228 227.184 41.873C226.858 41.7233 226.603 41.515 226.417 41.248C226.235 40.9779 226.144 40.6865 226.144 40.374H227.047C227.063 40.6768 227.184 40.9176 227.408 41.0967C227.636 41.2725 227.936 41.3604 228.307 41.3604C228.648 41.3604 228.922 41.292 229.127 41.1553C229.335 41.0153 229.439 40.8298 229.439 40.5986ZM233.712 42.0977C232.996 42.0977 232.413 41.8633 231.964 41.3945C231.515 40.9225 231.29 40.2926 231.29 39.5049V39.3389C231.29 38.8148 231.389 38.3477 231.588 37.9375C231.79 37.5241 232.07 37.2018 232.428 36.9707C232.789 36.7363 233.18 36.6191 233.6 36.6191C234.286 36.6191 234.82 36.8454 235.201 37.2979C235.582 37.7503 235.772 38.3981 235.772 39.2412V39.6172H232.193C232.206 40.138 232.358 40.5596 232.647 40.8818C232.94 41.2008 233.312 41.3604 233.761 41.3604C234.08 41.3604 234.35 41.2952 234.571 41.165C234.793 41.0348 234.986 40.8623 235.152 40.6475L235.704 41.0771C235.261 41.7575 234.597 42.0977 233.712 42.0977ZM233.6 37.3613C233.235 37.3613 232.929 37.4948 232.682 37.7617C232.434 38.0254 232.281 38.3965 232.223 38.875H234.869V38.8066C234.843 38.3477 234.719 37.9928 234.498 37.7422C234.277 37.4883 233.977 37.3613 233.6 37.3613ZM238.048 35.4375V36.7168H239.034V37.415H238.048V40.6914C238.048 40.903 238.092 41.0625 238.18 41.1699C238.268 41.2741 238.417 41.3262 238.629 41.3262C238.733 41.3262 238.876 41.3066 239.059 41.2676V42C238.821 42.0651 238.59 42.0977 238.365 42.0977C237.962 42.0977 237.657 41.9756 237.452 41.7314C237.247 41.4873 237.145 41.1406 237.145 40.6914V37.415H236.183V36.7168H237.145V35.4375H238.048Z" fill="#A2ABB8"/>
    <path d="M394.122 42V34.8906H396.129C396.747 34.8906 397.294 35.0273 397.77 35.3008C398.245 35.5742 398.611 35.9632 398.868 36.4678C399.129 36.9723 399.26 37.5518 399.264 38.2061V38.6602C399.264 39.3307 399.133 39.9183 398.873 40.4229C398.616 40.9274 398.246 41.3148 397.765 41.585C397.286 41.8551 396.728 41.9935 396.09 42H394.122ZM395.06 35.6621V41.2334H396.046C396.769 41.2334 397.33 41.0088 397.73 40.5596C398.134 40.1104 398.336 39.4707 398.336 38.6406V38.2256C398.336 37.4183 398.146 36.7917 397.765 36.3457C397.387 35.8965 396.85 35.6686 396.153 35.6621H395.06ZM404.503 40.1445H401.524L400.855 42H399.889L402.604 34.8906H403.424L406.144 42H405.182L404.503 40.1445ZM401.808 39.373H404.225L403.014 36.0479L401.808 39.373ZM408.106 42H407.169V34.8906H408.106V42Z" fill="#FFE352"/>
    <path d="M218.751 62.1445H215.772L215.104 64H214.137L216.852 56.8906H217.672L220.392 64H219.43L218.751 62.1445ZM216.056 61.373H218.473L217.262 58.0479L216.056 61.373ZM222.286 61.2168V64H221.349V56.8906H223.971C224.749 56.8906 225.357 57.0892 225.797 57.4863C226.24 57.8835 226.461 58.4092 226.461 59.0635C226.461 59.7536 226.244 60.2858 225.812 60.6602C225.382 61.0312 224.765 61.2168 223.961 61.2168H222.286ZM222.286 60.4502H223.971C224.472 60.4502 224.856 60.333 225.123 60.0986C225.39 59.861 225.523 59.5192 225.523 59.0732C225.523 58.6501 225.39 58.3115 225.123 58.0576C224.856 57.8037 224.49 57.6719 224.024 57.6621H222.286V60.4502ZM230.265 61.124H228.595V64H227.652V56.8906H230.006C230.807 56.8906 231.422 57.0729 231.852 57.4375C232.285 57.8021 232.501 58.3327 232.501 59.0293C232.501 59.472 232.381 59.8577 232.14 60.1865C231.902 60.5153 231.57 60.7611 231.144 60.9238L232.813 63.9414V64H231.808L230.265 61.124ZM228.595 60.3574H230.035C230.501 60.3574 230.87 60.237 231.144 59.9961C231.42 59.7552 231.559 59.4329 231.559 59.0293C231.559 58.5898 231.427 58.2529 231.163 58.0186C230.903 57.7842 230.525 57.6654 230.03 57.6621H228.595V60.3574Z" fill="#A2ABB8"/>
    <path d="M386.598 61.6123H387.584V62.3496H386.598V64H385.689V62.3496H382.452V61.8174L385.636 56.8906H386.598V61.6123ZM383.478 61.6123H385.689V58.126L385.582 58.3213L383.478 61.6123ZM388.512 63.5264C388.512 63.3701 388.557 63.2399 388.648 63.1357C388.743 63.0316 388.883 62.9795 389.068 62.9795C389.254 62.9795 389.394 63.0316 389.488 63.1357C389.586 63.2399 389.635 63.3701 389.635 63.5264C389.635 63.6761 389.586 63.8014 389.488 63.9023C389.394 64.0033 389.254 64.0537 389.068 64.0537C388.883 64.0537 388.743 64.0033 388.648 63.9023C388.557 63.8014 388.512 63.6761 388.512 63.5264ZM394.85 61.6123H395.836V62.3496H394.85V64H393.941V62.3496H390.704V61.8174L393.888 56.8906H394.85V61.6123ZM391.729 61.6123H393.941V58.126L393.834 58.3213L391.729 61.6123ZM397.066 60.4355L397.428 56.8906H401.07V57.7256H398.194L397.979 59.6641C398.328 59.459 398.723 59.3564 399.166 59.3564C399.814 59.3564 400.328 59.5713 400.709 60.001C401.09 60.4274 401.28 61.0052 401.28 61.7344C401.28 62.4668 401.082 63.0446 400.685 63.4678C400.291 63.8877 399.739 64.0977 399.029 64.0977C398.401 64.0977 397.888 63.9235 397.491 63.5752C397.094 63.2269 396.868 62.7451 396.812 62.1299H397.667C397.722 62.5368 397.867 62.8444 398.102 63.0527C398.336 63.2578 398.645 63.3604 399.029 63.3604C399.449 63.3604 399.778 63.2171 400.016 62.9307C400.257 62.6442 400.377 62.2487 400.377 61.7441C400.377 61.2689 400.247 60.888 399.986 60.6016C399.729 60.3118 399.386 60.167 398.956 60.167C398.562 60.167 398.253 60.2533 398.028 60.4258L397.789 60.6211L397.066 60.4355ZM402.188 58.2578C402.188 57.8314 402.324 57.4798 402.594 57.2031C402.867 56.9264 403.217 56.7881 403.644 56.7881C404.076 56.7881 404.426 56.9281 404.693 57.208C404.964 57.4847 405.099 57.8444 405.099 58.2871V58.6338C405.099 59.0635 404.962 59.415 404.688 59.6885C404.418 59.9587 404.073 60.0938 403.653 60.0938C403.23 60.0938 402.88 59.9587 402.604 59.6885C402.327 59.415 402.188 59.0521 402.188 58.5996V58.2578ZM402.862 58.6338C402.862 58.8877 402.934 59.0977 403.077 59.2637C403.22 59.4264 403.412 59.5078 403.653 59.5078C403.884 59.5078 404.07 59.4281 404.21 59.2686C404.353 59.109 404.425 58.891 404.425 58.6143V58.2578C404.425 58.0039 404.355 57.7939 404.215 57.6279C404.075 57.4619 403.884 57.3789 403.644 57.3789C403.403 57.3789 403.212 57.4619 403.072 57.6279C402.932 57.7939 402.862 58.0104 402.862 58.2773V58.6338ZM405.65 62.2568C405.65 61.8304 405.785 61.4805 406.056 61.207C406.329 60.9303 406.679 60.792 407.105 60.792C407.532 60.792 407.882 60.9287 408.155 61.2021C408.429 61.4756 408.565 61.8385 408.565 62.291V62.6377C408.565 63.0641 408.429 63.4157 408.155 63.6924C407.885 63.9658 407.538 64.1025 407.115 64.1025C406.692 64.1025 406.342 63.9674 406.065 63.6973C405.789 63.4238 405.65 63.0609 405.65 62.6084V62.2568ZM406.324 62.6377C406.324 62.8949 406.396 63.1064 406.539 63.2725C406.682 63.4352 406.874 63.5166 407.115 63.5166C407.35 63.5166 407.537 63.4368 407.677 63.2773C407.817 63.1146 407.887 62.8949 407.887 62.6182V62.2568C407.887 61.9997 407.815 61.7897 407.672 61.627C407.532 61.4642 407.343 61.3828 407.105 61.3828C406.874 61.3828 406.686 61.4642 406.539 61.627C406.396 61.7865 406.324 62.0029 406.324 62.2764V62.6377ZM403.858 63.4629L403.346 63.1406L406.817 57.584L407.33 57.9062L403.858 63.4629Z" fill="#FFE352"/>
    <path d="M218.751 84.1445H215.772L215.104 86H214.137L216.852 78.8906H217.672L220.392 86H219.43L218.751 84.1445ZM216.056 83.373H218.473L217.262 80.0479L216.056 83.373ZM222.057 80.7168L222.081 81.3027C222.468 80.847 222.991 80.6191 223.648 80.6191C224.387 80.6191 224.89 80.9023 225.157 81.4688C225.333 81.2148 225.561 81.0098 225.841 80.8535C226.124 80.6973 226.458 80.6191 226.842 80.6191C228.001 80.6191 228.59 81.2327 228.609 82.46V86H227.706V82.5137C227.706 82.1361 227.62 81.8545 227.447 81.6689C227.275 81.4801 226.985 81.3857 226.578 81.3857C226.243 81.3857 225.965 81.4867 225.743 81.6885C225.522 81.887 225.393 82.1556 225.357 82.4941V86H224.449V82.5381C224.449 81.7699 224.073 81.3857 223.321 81.3857C222.729 81.3857 222.324 81.638 222.105 82.1426V86H221.202V80.7168H222.057ZM229.737 83.3096C229.737 82.792 229.838 82.3265 230.04 81.9131C230.245 81.4997 230.528 81.1807 230.89 80.9561C231.254 80.7314 231.669 80.6191 232.135 80.6191C232.854 80.6191 233.435 80.8682 233.878 81.3662C234.324 81.8643 234.547 82.5267 234.547 83.3535V83.417C234.547 83.9313 234.448 84.3936 234.249 84.8037C234.054 85.2106 233.772 85.528 233.404 85.7559C233.04 85.9837 232.62 86.0977 232.145 86.0977C231.428 86.0977 230.847 85.8486 230.401 85.3506C229.959 84.8525 229.737 84.1934 229.737 83.373V83.3096ZM230.646 83.417C230.646 84.0029 230.781 84.4733 231.051 84.8281C231.324 85.1829 231.689 85.3604 232.145 85.3604C232.604 85.3604 232.968 85.1813 233.238 84.8232C233.508 84.4619 233.644 83.9574 233.644 83.3096C233.644 82.7301 233.505 82.2614 233.229 81.9033C232.955 81.542 232.59 81.3613 232.135 81.3613C231.689 81.3613 231.329 81.5387 231.056 81.8936C230.782 82.2484 230.646 82.7562 230.646 83.417ZM238.941 85.4775C238.59 85.891 238.074 86.0977 237.394 86.0977C236.83 86.0977 236.401 85.9349 236.104 85.6094C235.812 85.2806 235.663 84.7956 235.66 84.1543V80.7168H236.563V84.1299C236.563 84.9307 236.889 85.3311 237.54 85.3311C238.23 85.3311 238.689 85.0739 238.917 84.5596V80.7168H239.82V86H238.961L238.941 85.4775ZM242.052 80.7168L242.081 81.3809C242.485 80.873 243.012 80.6191 243.663 80.6191C244.78 80.6191 245.343 81.249 245.353 82.5088V86H244.449V82.5039C244.446 82.123 244.358 81.8415 244.186 81.6592C244.016 81.4769 243.751 81.3857 243.39 81.3857C243.097 81.3857 242.84 81.4639 242.618 81.6201C242.397 81.7764 242.224 81.9814 242.101 82.2354V86H241.197V80.7168H242.052ZM247.94 79.4375V80.7168H248.927V81.415H247.94V84.6914C247.94 84.903 247.984 85.0625 248.072 85.1699C248.16 85.2741 248.31 85.3262 248.521 85.3262C248.626 85.3262 248.769 85.3066 248.951 85.2676V86C248.714 86.0651 248.482 86.0977 248.258 86.0977C247.854 86.0977 247.55 85.9756 247.345 85.7314C247.14 85.4873 247.037 85.1406 247.037 84.6914V81.415H246.075V80.7168H247.037V79.4375H247.94Z" fill="#A2ABB8"/>
    <path d="M394.122 86V78.8906H396.129C396.747 78.8906 397.294 79.0273 397.77 79.3008C398.245 79.5742 398.611 79.9632 398.868 80.4678C399.129 80.9723 399.26 81.5518 399.264 82.2061V82.6602C399.264 83.3307 399.133 83.9183 398.873 84.4229C398.616 84.9274 398.246 85.3148 397.765 85.585C397.286 85.8551 396.728 85.9935 396.09 86H394.122ZM395.06 79.6621V85.2334H396.046C396.769 85.2334 397.33 85.0088 397.73 84.5596C398.134 84.1104 398.336 83.4707 398.336 82.6406V82.2256C398.336 81.4183 398.146 80.7917 397.765 80.3457C397.387 79.8965 396.85 79.6686 396.153 79.6621H395.06ZM404.503 84.1445H401.524L400.855 86H399.889L402.604 78.8906H403.424L406.144 86H405.182L404.503 84.1445ZM401.808 83.373H404.225L403.014 80.0479L401.808 83.373ZM408.106 86H407.169V78.8906H408.106V86Z" fill="#FFE352"/>
    <path d="M376.305 189H371.524V188.185L373.893 185.602C374.234 185.221 374.477 184.903 374.62 184.649C374.767 184.392 374.84 184.135 374.84 183.878C374.84 183.539 374.744 183.266 374.552 183.058C374.363 182.849 374.107 182.745 373.785 182.745C373.401 182.745 373.103 182.862 372.892 183.097C372.68 183.331 372.574 183.652 372.574 184.059H371.388C371.388 183.626 371.485 183.237 371.681 182.892C371.879 182.543 372.161 182.273 372.525 182.081C372.893 181.889 373.316 181.793 373.795 181.793C374.485 181.793 375.029 181.967 375.426 182.315C375.826 182.66 376.026 183.139 376.026 183.751C376.026 184.106 375.925 184.479 375.724 184.869C375.525 185.257 375.198 185.698 374.742 186.192L373.004 188.053H376.305V189ZM381.222 186.466H382.105V187.418H381.222V189H380.035V187.418H376.964L376.93 186.695L379.996 181.891H381.222V186.466ZM378.175 186.466H380.035V183.497L379.947 183.653L378.175 186.466ZM386.905 186.466H387.789V187.418H386.905V189H385.719V187.418H382.647L382.613 186.695L385.68 181.891H386.905V186.466ZM383.858 186.466H385.719V183.497L385.631 183.653L383.858 186.466ZM392.403 189H391.217V183.717H392.403V189ZM391.144 182.345C391.144 182.162 391.201 182.011 391.314 181.891C391.432 181.77 391.598 181.71 391.812 181.71C392.027 181.71 392.193 181.77 392.311 181.891C392.428 182.011 392.486 182.162 392.486 182.345C392.486 182.524 392.428 182.674 392.311 182.794C392.193 182.911 392.027 182.97 391.812 182.97C391.598 182.97 391.432 182.911 391.314 182.794C391.201 182.674 391.144 182.524 391.144 182.345ZM393.814 189V181.891H395.914C396.542 181.891 397.099 182.031 397.584 182.311C398.072 182.59 398.45 182.988 398.717 183.502C398.984 184.016 399.117 184.605 399.117 185.27V185.626C399.117 186.3 398.982 186.892 398.712 187.403C398.445 187.914 398.062 188.308 397.564 188.585C397.07 188.862 396.502 189 395.86 189H393.814ZM395.05 182.887V188.014H395.855C396.503 188.014 397 187.812 397.345 187.408C397.693 187.001 397.87 186.419 397.877 185.66V185.265C397.877 184.493 397.709 183.904 397.374 183.497C397.039 183.09 396.552 182.887 395.914 182.887H395.05ZM404.22 187.345H401.466L400.89 189H399.605L402.291 181.891H403.399L406.09 189H404.801L404.22 187.345ZM401.812 186.349H403.873L402.843 183.399L401.812 186.349ZM408.204 189H406.974V181.891H408.204V189Z" fill="#A2ABB8"/>
    <path d="M237.984 151H234.203V132.734L228.625 134.641V131.438L237.5 128.172H237.984V151ZM246.906 139.719L248.141 128.25H260.359V131.531H251.297L250.672 136.969C251.724 136.365 252.911 136.062 254.234 136.062C256.401 136.062 258.083 136.755 259.281 138.141C260.49 139.526 261.094 141.391 261.094 143.734C261.094 146.047 260.427 147.891 259.094 149.266C257.76 150.63 255.932 151.312 253.609 151.312C251.526 151.312 249.797 150.724 248.422 149.547C247.057 148.359 246.318 146.797 246.203 144.859H249.875C250.021 145.964 250.417 146.812 251.062 147.406C251.708 147.99 252.552 148.281 253.594 148.281C254.76 148.281 255.667 147.865 256.312 147.031C256.969 146.198 257.297 145.062 257.297 143.625C257.297 142.24 256.938 141.146 256.219 140.344C255.5 139.531 254.51 139.125 253.25 139.125C252.562 139.125 251.979 139.219 251.5 139.406C251.021 139.583 250.5 139.938 249.938 140.469L246.906 139.719ZM276.922 142.891H279.75V145.938H276.922V151H273.125V145.938H263.297L263.188 143.625L273 128.25H276.922V142.891ZM267.172 142.891H273.125V133.391L272.844 133.891L267.172 142.891ZM284.875 147C285.583 147 286.13 147.203 286.516 147.609C286.901 148.005 287.094 148.505 287.094 149.109C287.094 149.703 286.901 150.198 286.516 150.594C286.13 150.979 285.583 151.172 284.875 151.172C284.198 151.172 283.661 150.979 283.266 150.594C282.87 150.208 282.672 149.714 282.672 149.109C282.672 148.505 282.865 148.005 283.25 147.609C283.635 147.203 284.177 147 284.875 147ZM295.594 137.891H297.906C299.073 137.88 299.995 137.578 300.672 136.984C301.359 136.391 301.703 135.531 301.703 134.406C301.703 133.323 301.417 132.484 300.844 131.891C300.281 131.286 299.417 130.984 298.25 130.984C297.229 130.984 296.391 131.281 295.734 131.875C295.078 132.458 294.75 133.224 294.75 134.172H290.953C290.953 133.005 291.26 131.943 291.875 130.984C292.5 130.026 293.365 129.281 294.469 128.75C295.583 128.208 296.828 127.938 298.203 127.938C300.474 127.938 302.255 128.51 303.547 129.656C304.849 130.792 305.5 132.375 305.5 134.406C305.5 135.427 305.172 136.391 304.516 137.297C303.87 138.193 303.031 138.87 302 139.328C303.25 139.755 304.198 140.427 304.844 141.344C305.5 142.26 305.828 143.354 305.828 144.625C305.828 146.667 305.125 148.292 303.719 149.5C302.323 150.708 300.484 151.312 298.203 151.312C296.016 151.312 294.224 150.729 292.828 149.562C291.432 148.396 290.734 146.844 290.734 144.906H294.531C294.531 145.906 294.865 146.719 295.531 147.344C296.208 147.969 297.115 148.281 298.25 148.281C299.427 148.281 300.354 147.969 301.031 147.344C301.708 146.719 302.047 145.812 302.047 144.625C302.047 143.427 301.693 142.505 300.984 141.859C300.276 141.214 299.224 140.891 297.828 140.891H295.594V137.891ZM322.234 142.891H325.062V145.938H322.234V151H318.438V145.938H308.609L308.5 143.625L318.312 128.25H322.234V142.891ZM312.484 142.891H318.438V133.391L318.156 133.891L312.484 142.891ZM328.594 139.719L329.828 128.25H342.047V131.531H332.984L332.359 136.969C333.411 136.365 334.599 136.062 335.922 136.062C338.089 136.062 339.771 136.755 340.969 138.141C342.177 139.526 342.781 141.391 342.781 143.734C342.781 146.047 342.115 147.891 340.781 149.266C339.448 150.63 337.62 151.312 335.297 151.312C333.214 151.312 331.484 150.724 330.109 149.547C328.745 148.359 328.005 146.797 327.891 144.859H331.562C331.708 145.964 332.104 146.812 332.75 147.406C333.396 147.99 334.24 148.281 335.281 148.281C336.448 148.281 337.354 147.865 338 147.031C338.656 146.198 338.984 145.062 338.984 143.625C338.984 142.24 338.625 141.146 337.906 140.344C337.188 139.531 336.198 139.125 334.938 139.125C334.25 139.125 333.667 139.219 333.188 139.406C332.708 139.583 332.188 139.938 331.625 140.469L328.594 139.719Z" fill="white"/>
    <path d="M5.89655 0H171L117.931 283H5.89655C4.33269 283 2.83288 282.352 1.72706 281.198C0.621243 280.044 0 278.479 0 276.848V6.15217C0 4.52052 0.621243 2.95569 1.72706 1.80193C2.83288 0.648174 4.33269 0 5.89655 0Z" fill="#475E71"/>
    <path d="M5.90625 283H189L135.844 0H5.90625C4.33982 0 2.83754 0.648174 1.7299 1.80193C0.622265 2.95569 0 4.52052 0 6.15217V276.848C0 278.479 0.622265 280.044 1.7299 281.198C2.83754 282.352 4.33982 283 5.90625 283Z" fill="#496D89"/>
    <path d="M0 283V0H136.231L154 94.3336L118.462 283H0Z" fill="#359BE1"/>
    <circle cx="76.5" cy="141.5" r="27.5" fill="#F8A608"/>
    <path fill-rule="evenodd" clip-rule="evenodd" d="M65.594 128.455H76.7468C83.9526 128.455 89.794 134.297 89.794 141.502C89.794 148.708 83.9526 154.55 76.7468 154.55H65.594V128.455ZM68.4662 131.327V151.677H76.7468C82.3663 151.677 86.9218 147.122 86.9218 141.502C86.9218 135.883 82.3663 131.327 76.7468 131.327H68.4662Z" fill="white"/>
    <path d="M61.9273 139.906H92.3301V137.034H61.9273V139.906Z" fill="white"/>
    <path d="M61.9273 146.018H92.3301V143.145H61.9273V146.018Z" fill="white"/>
    <path d="M267 234H265V235H267V234Z" fill="#A2ABB8"/>
    <path d="M271 234H269V235H271V234Z" fill="#A2ABB8"/>
    <path d="M273 234H275V235H273V234Z" fill="#A2ABB8"/>
    <path d="M279 234H277V235H279V234Z" fill="#A2ABB8"/>
    <path d="M281 234H283V235H281V234Z" fill="#A2ABB8"/>
    <path d="M287 234H285V235H287V234Z" fill="#A2ABB8"/>
    <path d="M289 234H291V235H289V234Z" fill="#A2ABB8"/>
    <path d="M295 234H293V235H295V234Z" fill="#A2ABB8"/>
    <path d="M216 193H214V194H216V193Z" fill="#A2ABB8"/>
    <path d="M220 193H218V194H220V193Z" fill="#A2ABB8"/>
    <path d="M224 193H222V194H224V193Z" fill="#A2ABB8"/>
    <path d="M228 193H226V194H228V193Z" fill="#A2ABB8"/>
    <path d="M232 193H230V194H232V193Z" fill="#A2ABB8"/>
    <path d="M236 193H234V194H236V193Z" fill="#A2ABB8"/>
    <path d="M240 193H238V194H240V193Z" fill="#A2ABB8"/>
    <path d="M244 193H242V194H244V193Z" fill="#A2ABB8"/>
    <path d="M248 193H246V194H248V193Z" fill="#A2ABB8"/>
    <path d="M252 193H250V194H252V193Z" fill="#A2ABB8"/>
    <path d="M256 193H254V194H256V193Z" fill="#A2ABB8"/>
    <path d="M258 193H260V194H258V193Z" fill="#A2ABB8"/>
    <path d="M262 193H264V194H262V193Z" fill="#A2ABB8"/>
    <path d="M266 193H268V194H266V193Z" fill="#A2ABB8"/>
    <path d="M270 193H272V194H270V193Z" fill="#A2ABB8"/>
    <path d="M274 193H276V194H274V193Z" fill="#A2ABB8"/>
    <path d="M278 193H280V194H278V193Z" fill="#A2ABB8"/>
    <path d="M282 193H284V194H282V193Z" fill="#A2ABB8"/>
    <path d="M286 193H288V194H286V193Z" fill="#A2ABB8"/>
</svg>
