<svg width="440" height="283" viewBox="0 0 440 283" fill="none" 
    xmlns="http://www.w3.org/2000/svg">
    <rect width="440" height="283" fill="#444E5A"/>
    <rect x="325.261" y="210" width="82.8118" height="34" rx="17" fill="#6CBE85"/>
    <rect x="213.515" y="108" width="194.558" height="63" fill="#394049"/>
    <path d="M350.917 229.169C350.917 228.856 350.806 228.616 350.585 228.446C350.367 228.277 349.971 228.106 349.398 227.934C348.825 227.761 348.369 227.569 348.031 227.357C347.383 226.951 347.059 226.42 347.059 225.766C347.059 225.193 347.292 224.721 347.757 224.35C348.226 223.979 348.833 223.793 349.579 223.793C350.074 223.793 350.515 223.884 350.902 224.066C351.289 224.249 351.594 224.509 351.815 224.848C352.036 225.183 352.147 225.556 352.147 225.966H350.917C350.917 225.595 350.799 225.305 350.565 225.097C350.334 224.885 350.002 224.779 349.569 224.779C349.165 224.779 348.851 224.866 348.627 225.038C348.405 225.211 348.295 225.451 348.295 225.761C348.295 226.021 348.415 226.239 348.656 226.415C348.897 226.588 349.294 226.757 349.847 226.923C350.401 227.086 350.845 227.273 351.18 227.484C351.516 227.693 351.761 227.934 351.918 228.207C352.074 228.477 352.152 228.795 352.152 229.159C352.152 229.752 351.924 230.224 351.468 230.575C351.016 230.924 350.401 231.098 349.623 231.098C349.108 231.098 348.635 231.003 348.202 230.814C347.772 230.622 347.437 230.359 347.196 230.023C346.958 229.688 346.839 229.298 346.839 228.852H348.075C348.075 229.255 348.208 229.568 348.475 229.789C348.742 230.01 349.125 230.121 349.623 230.121C350.052 230.121 350.375 230.035 350.589 229.862C350.808 229.687 350.917 229.455 350.917 229.169ZM359.236 223.891V228.642C359.236 229.397 358.994 229.996 358.509 230.438C358.027 230.878 357.384 231.098 356.58 231.098C355.766 231.098 355.12 230.881 354.641 230.448C354.163 230.012 353.924 229.408 353.924 228.637V223.891H355.154V228.646C355.154 229.122 355.275 229.485 355.515 229.735C355.756 229.986 356.111 230.111 356.58 230.111C357.53 230.111 358.006 229.61 358.006 228.607V223.891H359.236ZM361.359 231V223.891H363.796C364.6 223.891 365.212 224.052 365.632 224.374C366.052 224.696 366.262 225.176 366.262 225.814C366.262 226.14 366.174 226.433 365.998 226.693C365.822 226.954 365.565 227.156 365.227 227.299C365.611 227.403 365.907 227.6 366.115 227.89C366.327 228.176 366.433 228.521 366.433 228.925C366.433 229.592 366.218 230.105 365.788 230.463C365.362 230.821 364.75 231 363.952 231H361.359ZM362.595 227.792V230.014H363.967C364.354 230.014 364.657 229.918 364.875 229.726C365.093 229.534 365.202 229.267 365.202 228.925C365.202 228.186 364.825 227.808 364.069 227.792H362.595ZM362.595 226.884H363.806C364.19 226.884 364.489 226.798 364.704 226.625C364.922 226.449 365.031 226.202 365.031 225.883C365.031 225.531 364.93 225.277 364.729 225.121C364.53 224.965 364.219 224.887 363.796 224.887H362.595V226.884ZM370.07 223.891L372.12 229.34L374.166 223.891H375.763V231H374.532V228.656L374.655 225.521L372.555 231H371.671L369.576 225.526L369.698 228.656V231H368.468V223.891H370.07ZM379.331 231H378.101V223.891H379.331V231ZM386.64 224.887H384.423V231H383.198V224.887H381.001V223.891H386.64V224.887Z" fill="white"/>
    <path d="M270.176 228.686C270.104 229.444 269.824 230.036 269.336 230.463C268.848 230.886 268.198 231.098 267.388 231.098C266.821 231.098 266.321 230.964 265.889 230.697C265.459 230.427 265.127 230.045 264.892 229.55C264.658 229.055 264.536 228.48 264.526 227.826V227.162C264.526 226.492 264.645 225.901 264.883 225.39C265.12 224.879 265.46 224.485 265.903 224.208C266.349 223.931 266.863 223.793 267.446 223.793C268.231 223.793 268.862 224.006 269.341 224.433C269.819 224.859 270.098 225.461 270.176 226.239H268.945C268.887 225.728 268.737 225.36 268.496 225.136C268.258 224.908 267.908 224.794 267.446 224.794C266.909 224.794 266.496 224.991 266.206 225.385C265.919 225.775 265.773 226.35 265.766 227.108V227.738C265.766 228.507 265.903 229.092 266.177 229.496C266.453 229.9 266.857 230.102 267.388 230.102C267.873 230.102 268.237 229.993 268.481 229.774C268.725 229.556 268.88 229.193 268.945 228.686H270.176ZM274.326 231C274.274 230.899 274.228 230.735 274.189 230.507C273.812 230.901 273.349 231.098 272.803 231.098C272.272 231.098 271.839 230.946 271.504 230.644C271.168 230.341 271.001 229.966 271.001 229.521C271.001 228.957 271.209 228.526 271.626 228.227C272.046 227.924 272.645 227.772 273.423 227.772H274.15V227.426C274.15 227.152 274.074 226.934 273.921 226.771C273.768 226.605 273.535 226.522 273.223 226.522C272.952 226.522 272.731 226.591 272.558 226.728C272.386 226.861 272.3 227.032 272.3 227.24H271.113C271.113 226.951 271.209 226.68 271.401 226.43C271.593 226.176 271.854 225.977 272.182 225.834C272.515 225.691 272.884 225.619 273.291 225.619C273.909 225.619 274.403 225.775 274.77 226.088C275.138 226.397 275.327 226.833 275.337 227.396V229.779C275.337 230.255 275.404 230.634 275.537 230.917V231H274.326ZM273.022 230.146C273.257 230.146 273.476 230.089 273.682 229.975C273.89 229.861 274.046 229.708 274.15 229.516V228.52H273.511C273.071 228.52 272.741 228.596 272.519 228.749C272.298 228.902 272.187 229.118 272.187 229.398C272.187 229.626 272.262 229.809 272.412 229.945C272.565 230.079 272.768 230.146 273.022 230.146ZM277.681 225.717L277.715 226.327C278.105 225.855 278.618 225.619 279.253 225.619C280.353 225.619 280.913 226.249 280.932 227.509V231H279.746V227.577C279.746 227.242 279.673 226.994 279.526 226.835C279.383 226.672 279.147 226.591 278.818 226.591C278.34 226.591 277.983 226.807 277.749 227.24V231H276.562V225.717H277.681ZM284.316 230.15C284.613 230.15 284.858 230.064 285.054 229.892C285.249 229.719 285.353 229.506 285.366 229.252H286.484C286.471 229.581 286.369 229.888 286.177 230.175C285.985 230.458 285.724 230.683 285.395 230.849C285.067 231.015 284.712 231.098 284.331 231.098C283.592 231.098 283.006 230.858 282.573 230.38C282.14 229.901 281.924 229.241 281.924 228.397V228.275C281.924 227.471 282.139 226.828 282.568 226.347C282.998 225.862 283.584 225.619 284.326 225.619C284.954 225.619 285.465 225.803 285.859 226.171C286.256 226.535 286.465 227.016 286.484 227.611H285.366C285.353 227.309 285.249 227.06 285.054 226.864C284.862 226.669 284.616 226.571 284.316 226.571C283.932 226.571 283.636 226.711 283.428 226.991C283.219 227.268 283.113 227.689 283.11 228.256V228.446C283.11 229.019 283.213 229.447 283.418 229.73C283.626 230.01 283.926 230.15 284.316 230.15ZM289.707 231.098C288.955 231.098 288.345 230.862 287.876 230.39C287.41 229.914 287.178 229.283 287.178 228.495V228.349C287.178 227.821 287.279 227.351 287.48 226.938C287.685 226.521 287.972 226.197 288.34 225.966C288.708 225.735 289.118 225.619 289.57 225.619C290.29 225.619 290.845 225.849 291.235 226.308C291.629 226.767 291.826 227.416 291.826 228.256V228.734H288.374C288.41 229.171 288.555 229.516 288.808 229.77C289.066 230.023 289.388 230.15 289.775 230.15C290.319 230.15 290.762 229.931 291.103 229.491L291.743 230.102C291.531 230.417 291.248 230.663 290.893 230.839C290.542 231.011 290.146 231.098 289.707 231.098ZM289.565 226.571C289.24 226.571 288.976 226.685 288.774 226.913C288.576 227.141 288.449 227.458 288.393 227.865H290.654V227.777C290.628 227.38 290.522 227.081 290.337 226.879C290.151 226.674 289.894 226.571 289.565 226.571ZM294.014 231H292.827V223.5H294.014V231Z" fill="#A2ABB8"/>
    <path d="M214.543 189H213.313V181.891H214.543V189ZM217.048 183.717L217.083 184.327C217.473 183.855 217.986 183.619 218.621 183.619C219.721 183.619 220.281 184.249 220.3 185.509V189H219.114V185.577C219.114 185.242 219.041 184.994 218.894 184.835C218.751 184.672 218.515 184.591 218.186 184.591C217.708 184.591 217.351 184.807 217.117 185.24V189H215.93V183.717H217.048ZM224.475 187.564C224.475 187.353 224.387 187.192 224.211 187.081C224.039 186.97 223.751 186.873 223.347 186.788C222.944 186.703 222.607 186.596 222.336 186.466C221.744 186.179 221.448 185.764 221.448 185.221C221.448 184.765 221.64 184.384 222.024 184.078C222.408 183.772 222.896 183.619 223.489 183.619C224.12 183.619 224.63 183.775 225.017 184.088C225.408 184.4 225.603 184.806 225.603 185.304H224.417C224.417 185.076 224.332 184.887 224.163 184.737C223.993 184.584 223.769 184.508 223.489 184.508C223.228 184.508 223.015 184.568 222.849 184.688C222.686 184.809 222.605 184.97 222.605 185.172C222.605 185.354 222.681 185.496 222.834 185.597C222.987 185.698 223.297 185.8 223.762 185.904C224.228 186.005 224.592 186.127 224.856 186.271C225.123 186.41 225.32 186.58 225.447 186.778C225.577 186.977 225.642 187.218 225.642 187.501C225.642 187.976 225.445 188.362 225.051 188.658C224.657 188.951 224.141 189.098 223.503 189.098C223.07 189.098 222.685 189.02 222.346 188.863C222.008 188.707 221.744 188.492 221.555 188.219C221.366 187.945 221.272 187.651 221.272 187.335H222.424C222.441 187.615 222.546 187.831 222.742 187.984C222.937 188.134 223.196 188.209 223.518 188.209C223.831 188.209 224.068 188.15 224.231 188.033C224.394 187.913 224.475 187.757 224.475 187.564ZM229.006 189.098C228.254 189.098 227.644 188.862 227.175 188.39C226.71 187.914 226.477 187.283 226.477 186.495V186.349C226.477 185.821 226.578 185.351 226.78 184.938C226.985 184.521 227.271 184.197 227.639 183.966C228.007 183.735 228.417 183.619 228.87 183.619C229.589 183.619 230.144 183.849 230.535 184.308C230.929 184.767 231.125 185.416 231.125 186.256V186.734H227.673C227.709 187.171 227.854 187.516 228.108 187.77C228.365 188.023 228.687 188.15 229.075 188.15C229.618 188.15 230.061 187.931 230.403 187.491L231.042 188.102C230.831 188.417 230.548 188.663 230.193 188.839C229.841 189.011 229.446 189.098 229.006 189.098ZM228.865 184.571C228.539 184.571 228.276 184.685 228.074 184.913C227.875 185.141 227.748 185.458 227.693 185.865H229.954V185.777C229.928 185.38 229.822 185.081 229.636 184.879C229.451 184.674 229.194 184.571 228.865 184.571ZM234.817 184.801C234.661 184.775 234.5 184.762 234.333 184.762C233.79 184.762 233.424 184.97 233.235 185.387V189H232.048V183.717H233.181L233.21 184.308C233.497 183.849 233.894 183.619 234.402 183.619C234.571 183.619 234.711 183.642 234.822 183.688L234.817 184.801ZM237.297 182.433V183.717H238.23V184.596H237.297V187.545C237.297 187.747 237.336 187.893 237.415 187.984C237.496 188.072 237.639 188.116 237.844 188.116C237.981 188.116 238.119 188.1 238.259 188.067V188.985C237.989 189.06 237.729 189.098 237.478 189.098C236.567 189.098 236.111 188.595 236.111 187.589V184.596H235.242V183.717H236.111V182.433H237.297ZM242.747 183.717L242.781 184.269C243.152 183.836 243.66 183.619 244.304 183.619C245.011 183.619 245.494 183.889 245.754 184.43C246.139 183.889 246.679 183.619 247.375 183.619C247.958 183.619 248.391 183.78 248.674 184.103C248.961 184.425 249.107 184.9 249.114 185.528V189H247.927V185.562C247.927 185.227 247.854 184.981 247.708 184.825C247.561 184.669 247.319 184.591 246.98 184.591C246.71 184.591 246.488 184.664 246.316 184.811C246.147 184.954 246.028 185.143 245.959 185.377L245.964 189H244.778V185.523C244.762 184.902 244.444 184.591 243.826 184.591C243.35 184.591 243.014 184.785 242.815 185.172V189H241.628V183.717H242.747ZM253.489 189C253.437 188.899 253.391 188.735 253.352 188.507C252.974 188.901 252.512 189.098 251.965 189.098C251.435 189.098 251.002 188.946 250.667 188.644C250.331 188.341 250.164 187.966 250.164 187.521C250.164 186.957 250.372 186.526 250.789 186.227C251.208 185.924 251.807 185.772 252.585 185.772H253.313V185.426C253.313 185.152 253.236 184.934 253.083 184.771C252.931 184.605 252.698 184.522 252.385 184.522C252.115 184.522 251.894 184.591 251.721 184.728C251.549 184.861 251.462 185.032 251.462 185.24H250.276C250.276 184.951 250.372 184.68 250.564 184.43C250.756 184.176 251.016 183.977 251.345 183.834C251.677 183.691 252.047 183.619 252.454 183.619C253.072 183.619 253.565 183.775 253.933 184.088C254.301 184.397 254.49 184.833 254.5 185.396V187.779C254.5 188.255 254.566 188.634 254.7 188.917V189H253.489ZM252.185 188.146C252.419 188.146 252.639 188.089 252.844 187.975C253.053 187.861 253.209 187.708 253.313 187.516V186.52H252.673C252.234 186.52 251.903 186.596 251.682 186.749C251.461 186.902 251.35 187.118 251.35 187.398C251.35 187.626 251.425 187.809 251.575 187.945C251.728 188.079 251.931 188.146 252.185 188.146ZM257.639 185.455L258.645 183.717H259.963L258.347 186.319L260.017 189H258.708L257.654 187.193L256.604 189H255.286L256.956 186.319L255.344 183.717H256.653L257.639 185.455ZM265.125 187.496L266.243 183.717H267.468L265.637 189H264.607L262.761 183.717H263.992L265.125 187.496ZM271.292 189C271.239 188.899 271.194 188.735 271.155 188.507C270.777 188.901 270.315 189.098 269.768 189.098C269.237 189.098 268.805 188.946 268.469 188.644C268.134 188.341 267.966 187.966 267.966 187.521C267.966 186.957 268.175 186.526 268.591 186.227C269.011 185.924 269.61 185.772 270.388 185.772H271.116V185.426C271.116 185.152 271.039 184.934 270.886 184.771C270.733 184.605 270.5 184.522 270.188 184.522C269.918 184.522 269.696 184.591 269.524 184.728C269.351 184.861 269.265 185.032 269.265 185.24H268.079C268.079 184.951 268.175 184.68 268.367 184.43C268.559 184.176 268.819 183.977 269.148 183.834C269.48 183.691 269.849 183.619 270.256 183.619C270.875 183.619 271.368 183.775 271.736 184.088C272.104 184.397 272.292 184.833 272.302 185.396V187.779C272.302 188.255 272.369 188.634 272.502 188.917V189H271.292ZM269.988 188.146C270.222 188.146 270.442 188.089 270.647 187.975C270.855 187.861 271.012 187.708 271.116 187.516V186.52H270.476C270.037 186.52 269.706 186.596 269.485 186.749C269.264 186.902 269.153 187.118 269.153 187.398C269.153 187.626 269.228 187.809 269.377 187.945C269.53 188.079 269.734 188.146 269.988 188.146ZM274.807 189H273.621V181.5H274.807V189ZM279.304 188.482C278.956 188.893 278.461 189.098 277.82 189.098C277.247 189.098 276.812 188.93 276.516 188.595C276.223 188.259 276.077 187.774 276.077 187.14V183.717H277.263V187.125C277.263 187.796 277.542 188.131 278.098 188.131C278.674 188.131 279.063 187.924 279.265 187.511V183.717H280.452V189H279.333L279.304 188.482ZM283.987 189.098C283.235 189.098 282.625 188.862 282.156 188.39C281.69 187.914 281.458 187.283 281.458 186.495V186.349C281.458 185.821 281.558 185.351 281.76 184.938C281.965 184.521 282.252 184.197 282.62 183.966C282.987 183.735 283.398 183.619 283.85 183.619C284.569 183.619 285.125 183.849 285.515 184.308C285.909 184.767 286.106 185.416 286.106 186.256V186.734H282.654C282.69 187.171 282.834 187.516 283.088 187.77C283.346 188.023 283.668 188.15 284.055 188.15C284.599 188.15 285.042 187.931 285.383 187.491L286.023 188.102C285.811 188.417 285.528 188.663 285.173 188.839C284.822 189.011 284.426 189.098 283.987 189.098ZM283.845 184.571C283.52 184.571 283.256 184.685 283.054 184.913C282.856 185.141 282.729 185.458 282.673 185.865H284.934V185.777C284.908 185.38 284.802 185.081 284.617 184.879C284.431 184.674 284.174 184.571 283.845 184.571Z" fill="#A2ABB8"/>
    <path d="M219.252 35.6621H216.967V42H216.034V35.6621H213.754V34.8906H219.252V35.6621ZM219.438 39.3096C219.438 38.792 219.538 38.3265 219.74 37.9131C219.945 37.4997 220.229 37.1807 220.59 36.9561C220.954 36.7314 221.369 36.6191 221.835 36.6191C222.554 36.6191 223.135 36.8682 223.578 37.3662C224.024 37.8643 224.247 38.5267 224.247 39.3535V39.417C224.247 39.9313 224.148 40.3936 223.949 40.8037C223.754 41.2106 223.472 41.528 223.104 41.7559C222.74 41.9837 222.32 42.0977 221.845 42.0977C221.129 42.0977 220.548 41.8486 220.102 41.3506C219.659 40.8525 219.438 40.1934 219.438 39.373V39.3096ZM220.346 39.417C220.346 40.0029 220.481 40.4733 220.751 40.8281C221.024 41.1829 221.389 41.3604 221.845 41.3604C222.304 41.3604 222.668 41.1813 222.938 40.8232C223.209 40.4619 223.344 39.9574 223.344 39.3096C223.344 38.7301 223.205 38.2614 222.929 37.9033C222.655 37.542 222.291 37.3613 221.835 37.3613C221.389 37.3613 221.029 37.5387 220.756 37.8936C220.482 38.2484 220.346 38.7562 220.346 39.417ZM226.854 39.5537L226.288 40.1445V42H225.385V34.5H226.288V39.0361L226.771 38.4551L228.417 36.7168H229.516L227.46 38.9238L229.755 42H228.695L226.854 39.5537ZM232.543 42.0977C231.827 42.0977 231.244 41.8633 230.795 41.3945C230.346 40.9225 230.121 40.2926 230.121 39.5049V39.3389C230.121 38.8148 230.22 38.3477 230.419 37.9375C230.621 37.5241 230.901 37.2018 231.259 36.9707C231.62 36.7363 232.011 36.6191 232.431 36.6191C233.118 36.6191 233.651 36.8454 234.032 37.2979C234.413 37.7503 234.604 38.3981 234.604 39.2412V39.6172H231.024C231.037 40.138 231.189 40.5596 231.479 40.8818C231.771 41.2008 232.143 41.3604 232.592 41.3604C232.911 41.3604 233.181 41.2952 233.402 41.165C233.624 41.0348 233.817 40.8623 233.983 40.6475L234.535 41.0771C234.092 41.7575 233.428 42.0977 232.543 42.0977ZM232.431 37.3613C232.066 37.3613 231.76 37.4948 231.513 37.7617C231.265 38.0254 231.112 38.3965 231.054 38.875H233.7V38.8066C233.674 38.3477 233.55 37.9928 233.329 37.7422C233.108 37.4883 232.808 37.3613 232.431 37.3613ZM236.508 36.7168L236.537 37.3809C236.941 36.873 237.468 36.6191 238.119 36.6191C239.236 36.6191 239.799 37.249 239.809 38.5088V42H238.905V38.5039C238.902 38.123 238.814 37.8415 238.642 37.6592C238.472 37.4769 238.207 37.3857 237.846 37.3857C237.553 37.3857 237.296 37.4639 237.074 37.6201C236.853 37.7764 236.68 37.9814 236.557 38.2354V42H235.653V36.7168H236.508Z" fill="#A2ABB8"/>
    <path d="M393.195 42V34.8906H395.201C395.82 34.8906 396.367 35.0273 396.842 35.3008C397.317 35.5742 397.684 35.9632 397.941 36.4678C398.201 36.9723 398.333 37.5518 398.336 38.2061V38.6602C398.336 39.3307 398.206 39.9183 397.946 40.4229C397.688 40.9274 397.319 41.3148 396.837 41.585C396.359 41.8551 395.8 41.9935 395.162 42H393.195ZM394.132 35.6621V41.2334H395.118C395.841 41.2334 396.403 41.0088 396.803 40.5596C397.207 40.1104 397.408 39.4707 397.408 38.6406V38.2256C397.408 37.4183 397.218 36.7917 396.837 36.3457C396.46 35.8965 395.922 35.6686 395.226 35.6621H394.132ZM403.575 40.1445H400.597L399.928 42H398.961L401.676 34.8906H402.496L405.216 42H404.254L403.575 40.1445ZM400.88 39.373H403.297L402.086 36.0479L400.88 39.373ZM407.179 42H406.241V34.8906H407.179V42Z" fill="#FFE352"/>
    <path d="M219.252 57.6621H216.967V64H216.034V57.6621H213.754V56.8906H219.252V57.6621ZM219.438 61.3096C219.438 60.792 219.538 60.3265 219.74 59.9131C219.945 59.4997 220.229 59.1807 220.59 58.9561C220.954 58.7314 221.369 58.6191 221.835 58.6191C222.554 58.6191 223.135 58.8682 223.578 59.3662C224.024 59.8643 224.247 60.5267 224.247 61.3535V61.417C224.247 61.9313 224.148 62.3936 223.949 62.8037C223.754 63.2106 223.472 63.528 223.104 63.7559C222.74 63.9837 222.32 64.0977 221.845 64.0977C221.129 64.0977 220.548 63.8486 220.102 63.3506C219.659 62.8525 219.438 62.1934 219.438 61.373V61.3096ZM220.346 61.417C220.346 62.0029 220.481 62.4733 220.751 62.8281C221.024 63.1829 221.389 63.3604 221.845 63.3604C222.304 63.3604 222.668 63.1813 222.938 62.8232C223.209 62.4619 223.344 61.9574 223.344 61.3096C223.344 60.7301 223.205 60.2614 222.929 59.9033C222.655 59.542 222.291 59.3613 221.835 59.3613C221.389 59.3613 221.029 59.5387 220.756 59.8936C220.482 60.2484 220.346 60.7562 220.346 61.417ZM226.854 61.5537L226.288 62.1445V64H225.385V56.5H226.288V61.0361L226.771 60.4551L228.417 58.7168H229.516L227.46 60.9238L229.755 64H228.695L226.854 61.5537ZM232.543 64.0977C231.827 64.0977 231.244 63.8633 230.795 63.3945C230.346 62.9225 230.121 62.2926 230.121 61.5049V61.3389C230.121 60.8148 230.22 60.3477 230.419 59.9375C230.621 59.5241 230.901 59.2018 231.259 58.9707C231.62 58.7363 232.011 58.6191 232.431 58.6191C233.118 58.6191 233.651 58.8454 234.032 59.2979C234.413 59.7503 234.604 60.3981 234.604 61.2412V61.6172H231.024C231.037 62.138 231.189 62.5596 231.479 62.8818C231.771 63.2008 232.143 63.3604 232.592 63.3604C232.911 63.3604 233.181 63.2952 233.402 63.165C233.624 63.0348 233.817 62.8623 233.983 62.6475L234.535 63.0771C234.092 63.7575 233.428 64.0977 232.543 64.0977ZM232.431 59.3613C232.066 59.3613 231.76 59.4948 231.513 59.7617C231.265 60.0254 231.112 60.3965 231.054 60.875H233.7V60.8066C233.674 60.3477 233.55 59.9928 233.329 59.7422C233.108 59.4883 232.808 59.3613 232.431 59.3613ZM236.508 58.7168L236.537 59.3809C236.941 58.873 237.468 58.6191 238.119 58.6191C239.236 58.6191 239.799 59.249 239.809 60.5088V64H238.905V60.5039C238.902 60.123 238.814 59.8415 238.642 59.6592C238.472 59.4769 238.207 59.3857 237.846 59.3857C237.553 59.3857 237.296 59.4639 237.074 59.6201C236.853 59.7764 236.68 59.9814 236.557 60.2354V64H235.653V58.7168H236.508Z" fill="#A2ABB8"/>
    <path d="M388.785 60.0059H389.464C389.891 59.9993 390.226 59.887 390.47 59.6689C390.714 59.4508 390.836 59.1562 390.836 58.7852C390.836 57.9518 390.421 57.5352 389.591 57.5352C389.2 57.5352 388.888 57.6475 388.654 57.8721C388.422 58.0934 388.307 58.388 388.307 58.7559H387.404C387.404 58.1927 387.609 57.7256 388.019 57.3545C388.432 56.9801 388.956 56.793 389.591 56.793C390.262 56.793 390.787 56.9704 391.168 57.3252C391.549 57.68 391.739 58.1732 391.739 58.8047C391.739 59.1139 391.639 59.4134 391.437 59.7031C391.238 59.9928 390.966 60.2093 390.621 60.3525C391.012 60.4762 391.313 60.6813 391.525 60.9678C391.739 61.2542 391.847 61.6042 391.847 62.0176C391.847 62.6556 391.639 63.1618 391.222 63.5361C390.805 63.9105 390.263 64.0977 389.596 64.0977C388.929 64.0977 388.385 63.917 387.965 63.5557C387.548 63.1943 387.34 62.7174 387.34 62.125H388.248C388.248 62.4993 388.37 62.7988 388.614 63.0234C388.859 63.248 389.186 63.3604 389.596 63.3604C390.032 63.3604 390.366 63.2464 390.597 63.0186C390.828 62.7907 390.944 62.4635 390.944 62.0371C390.944 61.6237 390.817 61.3063 390.563 61.085C390.309 60.8636 389.943 60.7497 389.464 60.7432H388.785V60.0059ZM393.199 63.5264C393.199 63.3701 393.245 63.2399 393.336 63.1357C393.431 63.0316 393.571 62.9795 393.756 62.9795C393.942 62.9795 394.082 63.0316 394.176 63.1357C394.274 63.2399 394.323 63.3701 394.323 63.5264C394.323 63.6761 394.274 63.8014 394.176 63.9023C394.082 64.0033 393.942 64.0537 393.756 64.0537C393.571 64.0537 393.431 64.0033 393.336 63.9023C393.245 63.8014 393.199 63.6761 393.199 63.5264ZM399.537 61.6123H400.524V62.3496H399.537V64H398.629V62.3496H395.392V61.8174L398.575 56.8906H399.537V61.6123ZM396.417 61.6123H398.629V58.126L398.522 58.3213L396.417 61.6123ZM401.261 58.2578C401.261 57.8314 401.396 57.4798 401.666 57.2031C401.94 56.9264 402.29 56.7881 402.716 56.7881C403.149 56.7881 403.499 56.9281 403.766 57.208C404.036 57.4847 404.171 57.8444 404.171 58.2871V58.6338C404.171 59.0635 404.034 59.415 403.761 59.6885C403.491 59.9587 403.146 60.0938 402.726 60.0938C402.303 60.0938 401.953 59.9587 401.676 59.6885C401.399 59.415 401.261 59.0521 401.261 58.5996V58.2578ZM401.935 58.6338C401.935 58.8877 402.006 59.0977 402.15 59.2637C402.293 59.4264 402.485 59.5078 402.726 59.5078C402.957 59.5078 403.142 59.4281 403.282 59.2686C403.426 59.109 403.497 58.891 403.497 58.6143V58.2578C403.497 58.0039 403.427 57.7939 403.287 57.6279C403.147 57.4619 402.957 57.3789 402.716 57.3789C402.475 57.3789 402.285 57.4619 402.145 57.6279C402.005 57.7939 401.935 58.0104 401.935 58.2773V58.6338ZM404.723 62.2568C404.723 61.8304 404.858 61.4805 405.128 61.207C405.402 60.9303 405.752 60.792 406.178 60.792C406.604 60.792 406.954 60.9287 407.228 61.2021C407.501 61.4756 407.638 61.8385 407.638 62.291V62.6377C407.638 63.0641 407.501 63.4157 407.228 63.6924C406.958 63.9658 406.611 64.1025 406.188 64.1025C405.765 64.1025 405.415 63.9674 405.138 63.6973C404.861 63.4238 404.723 63.0609 404.723 62.6084V62.2568ZM405.397 62.6377C405.397 62.8949 405.468 63.1064 405.612 63.2725C405.755 63.4352 405.947 63.5166 406.188 63.5166C406.422 63.5166 406.609 63.4368 406.749 63.2773C406.889 63.1146 406.959 62.8949 406.959 62.6182V62.2568C406.959 61.9997 406.888 61.7897 406.744 61.627C406.604 61.4642 406.416 61.3828 406.178 61.3828C405.947 61.3828 405.758 61.4642 405.612 61.627C405.468 61.7865 405.397 62.0029 405.397 62.2764V62.6377ZM402.931 63.4629L402.418 63.1406L405.89 57.584L406.403 57.9062L402.931 63.4629Z" fill="#FFE352"/>
    <path d="M218.266 84.1445H215.287L214.618 86H213.651L216.366 78.8906H217.187L219.906 86H218.944L218.266 84.1445ZM215.57 83.373H217.987L216.776 80.0479L215.57 83.373ZM221.571 80.7168L221.596 81.3027C221.983 80.847 222.506 80.6191 223.163 80.6191C223.902 80.6191 224.405 80.9023 224.672 81.4688C224.848 81.2148 225.076 81.0098 225.355 80.8535C225.639 80.6973 225.972 80.6191 226.356 80.6191C227.515 80.6191 228.104 81.2327 228.124 82.46V86H227.221V82.5137C227.221 82.1361 227.134 81.8545 226.962 81.6689C226.789 81.4801 226.5 81.3857 226.093 81.3857C225.757 81.3857 225.479 81.4867 225.258 81.6885C225.036 81.887 224.908 82.1556 224.872 82.4941V86H223.964V82.5381C223.964 81.7699 223.588 81.3857 222.836 81.3857C222.243 81.3857 221.838 81.638 221.62 82.1426V86H220.717V80.7168H221.571ZM229.252 83.3096C229.252 82.792 229.353 82.3265 229.555 81.9131C229.76 81.4997 230.043 81.1807 230.404 80.9561C230.769 80.7314 231.184 80.6191 231.649 80.6191C232.369 80.6191 232.95 80.8682 233.393 81.3662C233.839 81.8643 234.062 82.5267 234.062 83.3535V83.417C234.062 83.9313 233.962 84.3936 233.764 84.8037C233.568 85.2106 233.287 85.528 232.919 85.7559C232.554 85.9837 232.134 86.0977 231.659 86.0977C230.943 86.0977 230.362 85.8486 229.916 85.3506C229.473 84.8525 229.252 84.1934 229.252 83.373V83.3096ZM230.16 83.417C230.16 84.0029 230.295 84.4733 230.565 84.8281C230.839 85.1829 231.203 85.3604 231.659 85.3604C232.118 85.3604 232.483 85.1813 232.753 84.8232C233.023 84.4619 233.158 83.9574 233.158 83.3096C233.158 82.7301 233.02 82.2614 232.743 81.9033C232.47 81.542 232.105 81.3613 231.649 81.3613C231.203 81.3613 230.844 81.5387 230.57 81.8936C230.297 82.2484 230.16 82.7562 230.16 83.417ZM238.456 85.4775C238.104 85.891 237.589 86.0977 236.908 86.0977C236.345 86.0977 235.915 85.9349 235.619 85.6094C235.326 85.2806 235.178 84.7956 235.175 84.1543V80.7168H236.078V84.1299C236.078 84.9307 236.404 85.3311 237.055 85.3311C237.745 85.3311 238.204 85.0739 238.432 84.5596V80.7168H239.335V86H238.476L238.456 85.4775ZM241.566 80.7168L241.596 81.3809C241.999 80.873 242.527 80.6191 243.178 80.6191C244.294 80.6191 244.857 81.249 244.867 82.5088V86H243.964V82.5039C243.961 82.123 243.873 81.8415 243.7 81.6592C243.531 81.4769 243.266 81.3857 242.904 81.3857C242.611 81.3857 242.354 81.4639 242.133 81.6201C241.911 81.7764 241.739 81.9814 241.615 82.2354V86H240.712V80.7168H241.566ZM247.455 79.4375V80.7168H248.441V81.415H247.455V84.6914C247.455 84.903 247.499 85.0625 247.587 85.1699C247.675 85.2741 247.825 85.3262 248.036 85.3262C248.14 85.3262 248.284 85.3066 248.466 85.2676V86C248.228 86.0651 247.997 86.0977 247.772 86.0977C247.369 86.0977 247.064 85.9756 246.859 85.7314C246.654 85.4873 246.552 85.1406 246.552 84.6914V81.415H245.59V80.7168H246.552V79.4375H247.455Z" fill="#A2ABB8"/>
    <path d="M393.195 86V78.8906H395.201C395.82 78.8906 396.367 79.0273 396.842 79.3008C397.317 79.5742 397.684 79.9632 397.941 80.4678C398.201 80.9723 398.333 81.5518 398.336 82.2061V82.6602C398.336 83.3307 398.206 83.9183 397.946 84.4229C397.688 84.9274 397.319 85.3148 396.837 85.585C396.359 85.8551 395.8 85.9935 395.162 86H393.195ZM394.132 79.6621V85.2334H395.118C395.841 85.2334 396.403 85.0088 396.803 84.5596C397.207 84.1104 397.408 83.4707 397.408 82.6406V82.2256C397.408 81.4183 397.218 80.7917 396.837 80.3457C396.46 79.8965 395.922 79.6686 395.226 79.6621H394.132ZM403.575 84.1445H400.597L399.928 86H398.961L401.676 78.8906H402.496L405.216 86H404.254L403.575 84.1445ZM400.88 83.373H403.297L402.086 80.0479L400.88 83.373ZM407.179 86H406.241V78.8906H407.179V86Z" fill="#FFE352"/>
    <path d="M365.211 189H360.431V188.185L362.799 185.602C363.141 185.221 363.383 184.903 363.527 184.649C363.673 184.392 363.746 184.135 363.746 183.878C363.746 183.539 363.65 183.266 363.458 183.058C363.269 182.849 363.014 182.745 362.692 182.745C362.308 182.745 362.01 182.862 361.798 183.097C361.586 183.331 361.481 183.652 361.481 184.059H360.294C360.294 183.626 360.392 183.237 360.587 182.892C360.786 182.543 361.067 182.273 361.432 182.081C361.8 181.889 362.223 181.793 362.701 181.793C363.391 181.793 363.935 181.967 364.332 182.315C364.733 182.66 364.933 183.139 364.933 183.751C364.933 184.106 364.832 184.479 364.63 184.869C364.432 185.257 364.104 185.698 363.649 186.192L361.91 188.053H365.211V189ZM370.128 186.466H371.012V187.418H370.128V189H368.942V187.418H365.87L365.836 186.695L368.903 181.891H370.128V186.466ZM367.081 186.466H368.942V183.497L368.854 183.653L367.081 186.466ZM375.812 186.466H376.696V187.418H375.812V189H374.625V187.418H371.554L371.52 186.695L374.586 181.891H375.812V186.466ZM372.765 186.466H374.625V183.497L374.537 183.653L372.765 186.466ZM381.31 189H380.123V183.717H381.31V189ZM380.05 182.345C380.05 182.162 380.107 182.011 380.221 181.891C380.338 181.77 380.504 181.71 380.719 181.71C380.934 181.71 381.1 181.77 381.217 181.891C381.334 182.011 381.393 182.162 381.393 182.345C381.393 182.524 381.334 182.674 381.217 182.794C381.1 182.911 380.934 182.97 380.719 182.97C380.504 182.97 380.338 182.911 380.221 182.794C380.107 182.674 380.05 182.524 380.05 182.345ZM387.247 187.364L388.087 183.717H389.244L387.804 189H386.827L385.695 185.372L384.581 189H383.605L382.159 183.717H383.317L384.171 187.325L385.255 183.717H386.149L387.247 187.364ZM390.153 189V181.891H392.589C393.393 181.891 394.005 182.052 394.425 182.374C394.845 182.696 395.055 183.176 395.055 183.814C395.055 184.14 394.967 184.433 394.791 184.693C394.615 184.954 394.358 185.156 394.02 185.299C394.404 185.403 394.7 185.6 394.908 185.89C395.12 186.176 395.226 186.521 395.226 186.925C395.226 187.592 395.011 188.105 394.581 188.463C394.155 188.821 393.543 189 392.745 189H390.153ZM391.388 185.792V188.014H392.76C393.147 188.014 393.45 187.918 393.668 187.726C393.886 187.534 393.995 187.267 393.995 186.925C393.995 186.186 393.618 185.808 392.863 185.792H391.388ZM391.388 184.884H392.599C392.983 184.884 393.282 184.798 393.497 184.625C393.715 184.449 393.824 184.202 393.824 183.883C393.824 183.531 393.724 183.277 393.522 183.121C393.323 182.965 393.012 182.887 392.589 182.887H391.388V184.884ZM401.461 182.887H399.244V189H398.019V182.887H395.822V181.891H401.461V182.887ZM407.687 186.686C407.615 187.444 407.335 188.036 406.847 188.463C406.359 188.886 405.709 189.098 404.899 189.098C404.332 189.098 403.833 188.964 403.4 188.697C402.97 188.427 402.638 188.045 402.404 187.55C402.169 187.055 402.047 186.48 402.037 185.826V185.162C402.037 184.492 402.156 183.901 402.394 183.39C402.631 182.879 402.972 182.485 403.414 182.208C403.86 181.931 404.375 181.793 404.957 181.793C405.742 181.793 406.373 182.006 406.852 182.433C407.33 182.859 407.609 183.461 407.687 184.239H406.456C406.398 183.728 406.248 183.36 406.007 183.136C405.769 182.908 405.419 182.794 404.957 182.794C404.42 182.794 404.007 182.991 403.717 183.385C403.431 183.775 403.284 184.35 403.278 185.108V185.738C403.278 186.507 403.414 187.092 403.688 187.496C403.964 187.9 404.368 188.102 404.899 188.102C405.384 188.102 405.748 187.993 405.992 187.774C406.237 187.556 406.391 187.193 406.456 186.686H407.687Z" fill="#A2ABB8"/>
    <path d="M237.472 151H233.691V132.734L228.113 134.641V131.438L236.988 128.172H237.472V151ZM246.394 139.719L247.628 128.25H259.847V131.531H250.784L250.159 136.969C251.212 136.365 252.399 136.062 253.722 136.062C255.889 136.062 257.571 136.755 258.769 138.141C259.977 139.526 260.581 141.391 260.581 143.734C260.581 146.047 259.915 147.891 258.581 149.266C257.248 150.63 255.42 151.312 253.097 151.312C251.014 151.312 249.284 150.724 247.909 149.547C246.545 148.359 245.805 146.797 245.691 144.859H249.363C249.508 145.964 249.904 146.812 250.55 147.406C251.196 147.99 252.04 148.281 253.081 148.281C254.248 148.281 255.154 147.865 255.8 147.031C256.456 146.198 256.784 145.062 256.784 143.625C256.784 142.24 256.425 141.146 255.706 140.344C254.988 139.531 253.998 139.125 252.738 139.125C252.05 139.125 251.467 139.219 250.988 139.406C250.508 139.583 249.988 139.938 249.425 140.469L246.394 139.719ZM276.409 142.891H279.238V145.938H276.409V151H272.613V145.938H262.784L262.675 143.625L272.488 128.25H276.409V142.891ZM266.659 142.891H272.613V133.391L272.331 133.891L266.659 142.891ZM284.363 147C285.071 147 285.618 147.203 286.003 147.609C286.389 148.005 286.581 148.505 286.581 149.109C286.581 149.703 286.389 150.198 286.003 150.594C285.618 150.979 285.071 151.172 284.363 151.172C283.685 151.172 283.149 150.979 282.753 150.594C282.357 150.208 282.159 149.714 282.159 149.109C282.159 148.505 282.352 148.005 282.738 147.609C283.123 147.203 283.665 147 284.363 147ZM295.081 137.891H297.394C298.56 137.88 299.482 137.578 300.159 136.984C300.847 136.391 301.191 135.531 301.191 134.406C301.191 133.323 300.904 132.484 300.331 131.891C299.769 131.286 298.904 130.984 297.738 130.984C296.717 130.984 295.878 131.281 295.222 131.875C294.566 132.458 294.238 133.224 294.238 134.172H290.441C290.441 133.005 290.748 131.943 291.363 130.984C291.988 130.026 292.852 129.281 293.956 128.75C295.071 128.208 296.316 127.938 297.691 127.938C299.962 127.938 301.743 128.51 303.034 129.656C304.337 130.792 304.988 132.375 304.988 134.406C304.988 135.427 304.659 136.391 304.003 137.297C303.357 138.193 302.519 138.87 301.488 139.328C302.738 139.755 303.685 140.427 304.331 141.344C304.988 142.26 305.316 143.354 305.316 144.625C305.316 146.667 304.613 148.292 303.206 149.5C301.81 150.708 299.972 151.312 297.691 151.312C295.503 151.312 293.712 150.729 292.316 149.562C290.92 148.396 290.222 146.844 290.222 144.906H294.019C294.019 145.906 294.352 146.719 295.019 147.344C295.696 147.969 296.602 148.281 297.738 148.281C298.915 148.281 299.842 147.969 300.519 147.344C301.196 146.719 301.534 145.812 301.534 144.625C301.534 143.427 301.18 142.505 300.472 141.859C299.764 141.214 298.712 140.891 297.316 140.891H295.081V137.891ZM321.722 142.891H324.55V145.938H321.722V151H317.925V145.938H308.097L307.988 143.625L317.8 128.25H321.722V142.891ZM311.972 142.891H317.925V133.391L317.644 133.891L311.972 142.891ZM328.081 139.719L329.316 128.25H341.534V131.531H332.472L331.847 136.969C332.899 136.365 334.087 136.062 335.409 136.062C337.576 136.062 339.258 136.755 340.456 138.141C341.665 139.526 342.269 141.391 342.269 143.734C342.269 146.047 341.602 147.891 340.269 149.266C338.935 150.63 337.107 151.312 334.784 151.312C332.701 151.312 330.972 150.724 329.597 149.547C328.232 148.359 327.493 146.797 327.378 144.859H331.05C331.196 145.964 331.592 146.812 332.238 147.406C332.883 147.99 333.727 148.281 334.769 148.281C335.935 148.281 336.842 147.865 337.488 147.031C338.144 146.198 338.472 145.062 338.472 143.625C338.472 142.24 338.113 141.146 337.394 140.344C336.675 139.531 335.685 139.125 334.425 139.125C333.738 139.125 333.154 139.219 332.675 139.406C332.196 139.583 331.675 139.938 331.113 140.469L328.081 139.719Z" fill="white"/>
    <path d="M5.88318 0H170.612L117.664 283H5.88318C4.32286 283 2.82646 282.352 1.72314 281.198C0.619835 280.044 0 278.479 0 276.848V6.15217C0 4.52052 0.619835 2.95569 1.72314 1.80193C2.82646 0.648174 4.32286 0 5.88318 0Z" fill="#475E71"/>
    <path d="M5.89286 283H188.571L135.536 0H5.89286C4.32997 0 2.8311 0.648174 1.72598 1.80193C0.620854 2.95569 0 4.52052 0 6.15217V276.848C0 278.479 0.620854 280.044 1.72598 281.198C2.8311 282.352 4.32997 283 5.89286 283Z" fill="#496D89"/>
    <path d="M0 283V0H135.922L153.651 94.3336L118.193 283H0Z" fill="#359BE1"/>
    <g>
        <ellipse cx="76.3266" cy="141.5" rx="27.4376" ry="27.5" fill="#F8A608"/>
        <path fill-rule="evenodd" clip-rule="evenodd" d="M65.4453 128.455H76.5728C83.7622 128.455 89.5904 134.297 89.5904 141.502C89.5904 148.708 83.7622 154.55 76.5728 154.55H65.4453V128.455ZM68.311 131.327V151.677H76.5728C82.1796 151.677 86.7247 147.122 86.7247 141.502C86.7247 135.883 82.1796 131.327 76.5728 131.327H68.311Z" fill="white"/>
        <path d="M61.7869 139.906H92.1207V137.034H61.7869V139.906Z" fill="white"/>
        <path d="M61.7869 146.018H92.1207V143.145H61.7869V146.018Z" fill="white"/>
    </g>
    <path d="M266.395 234H264.399V235H266.395V234Z" fill="#A2ABB8"/>
    <path d="M270.386 234H268.39V235H270.386V234Z" fill="#A2ABB8"/>
    <path d="M272.381 234H274.376V235H272.381V234Z" fill="#A2ABB8"/>
    <path d="M278.367 234H276.372V235H278.367V234Z" fill="#A2ABB8"/>
    <path d="M280.363 234H282.358V235H280.363V234Z" fill="#A2ABB8"/>
    <path d="M286.349 234H284.354V235H286.349V234Z" fill="#A2ABB8"/>
    <path d="M288.345 234H290.34V235H288.345V234Z" fill="#A2ABB8"/>
    <path d="M294.331 234H292.336V235H294.331V234Z" fill="#A2ABB8"/>
    <path d="M215.51 193H213.515V194H215.51V193Z" fill="#A2ABB8"/>
    <path d="M219.501 193H217.506V194H219.501V193Z" fill="#A2ABB8"/>
    <path d="M223.492 193H221.497V194H223.492V193Z" fill="#A2ABB8"/>
    <path d="M227.483 193H225.487V194H227.483V193Z" fill="#A2ABB8"/>
    <path d="M231.474 193H229.478V194H231.474V193Z" fill="#A2ABB8"/>
    <path d="M235.465 193H233.469V194H235.465V193Z" fill="#A2ABB8"/>
    <path d="M239.456 193H237.46V194H239.456V193Z" fill="#A2ABB8"/>
    <path d="M243.447 193H241.451V194H243.447V193Z" fill="#A2ABB8"/>
    <path d="M247.438 193H245.442V194H247.438V193Z" fill="#A2ABB8"/>
    <path d="M251.428 193H249.433V194H251.428V193Z" fill="#A2ABB8"/>
    <path d="M255.419 193H253.424V194H255.419V193Z" fill="#A2ABB8"/>
    <path d="M257.415 193H259.41V194H257.415V193Z" fill="#A2ABB8"/>
    <path d="M261.406 193H263.401V194H261.406V193Z" fill="#A2ABB8"/>
    <path d="M265.397 193H267.392V194H265.397V193Z" fill="#A2ABB8"/>
    <path d="M269.388 193H271.383V194H269.388V193Z" fill="#A2ABB8"/>
    <path d="M273.379 193H275.374V194H273.379V193Z" fill="#A2ABB8"/>
    <path d="M277.37 193H279.365V194H277.37V193Z" fill="#A2ABB8"/>
    <path d="M281.36 193H283.356V194H281.36V193Z" fill="#A2ABB8"/>
    <path d="M285.351 193H287.347V194H285.351V193Z" fill="#A2ABB8"/>
</svg>
