<svg width="440" height="283" viewBox="0 0 440 283" fill="none" 
    xmlns="http://www.w3.org/2000/svg">
    <g clip-path="url(#clip0)">
        <path d="M0 0H440V283H0V0Z" fill="#444E5A"/>
        <rect x="329" y="215" width="74" height="35" rx="17.5" fill="#00C0AB"/>
        <path d="M352 236V228H353.151V235.034H357.02V236H352Z" fill="white"/>
        <path d="M358.168 236V228H363.333V228.944H359.309V231.461H363.11V232.404H359.309V235.056H363.333V236H358.168Z" fill="white"/>
        <path d="M370.218 228H371.302V236H370.419L365.858 229.955V236H364.773V228H365.645L370.218 234.056V228Z" fill="white"/>
        <path d="M373.158 228H375.942C377.231 228 378.23 228.348 378.938 229.045C379.646 229.742 380 230.723 380 231.989C380 233.262 379.646 234.251 378.938 234.955C378.23 235.652 377.231 236 375.942 236H373.158V228ZM375.875 235.034C377.835 235.034 378.815 234.019 378.815 231.989C378.815 229.974 377.835 228.966 375.875 228.966H374.31V235.034H375.875Z" fill="white"/>
        <rect width="130" height="283" fill="white"/>
        <path d="M129.087 129L141.33 141.239L135.209 147.358L129.087 153.478V129Z" fill="white"/>
        <rect x="153" y="98" width="250" height="50" fill="#394049"/>
        <path d="M403 176.698L343 176.698L343 150L403 150L403 176.698Z" fill="#586473"/>
        <path d="M365.498 166.474V167.275H361.698V166.474H363.123V161.725L361.798 162.573V161.678L363.525 160.566H364.073V166.474H365.498Z" fill="white"/>
        <path d="M368.81 167.351C368.055 167.351 367.48 167.059 367.084 166.474C366.688 165.89 366.49 165.039 366.49 163.921C366.49 162.803 366.688 161.951 367.084 161.367C367.48 160.783 368.055 160.491 368.81 160.491C369.565 160.491 370.141 160.783 370.537 161.367C370.933 161.945 371.131 162.793 371.131 163.911C371.131 165.036 370.933 165.89 370.537 166.474C370.141 167.059 369.565 167.351 368.81 167.351ZM368.81 166.569C369.279 166.569 369.623 166.355 369.843 165.928C370.068 165.494 370.181 164.822 370.181 163.911C370.181 163.001 370.071 162.335 369.852 161.914C369.632 161.493 369.285 161.282 368.81 161.282C368.341 161.282 367.994 161.496 367.769 161.923C367.55 162.344 367.44 163.007 367.44 163.911C367.44 164.822 367.55 165.494 367.769 165.928C367.994 166.355 368.341 166.569 368.81 166.569Z" fill="white"/>
        <path d="M374.288 167.351C373.532 167.351 372.957 167.059 372.561 166.474C372.165 165.89 371.967 165.039 371.967 163.921C371.967 162.803 372.165 161.951 372.561 161.367C372.957 160.783 373.532 160.491 374.288 160.491C375.043 160.491 375.618 160.783 376.014 161.367C376.41 161.945 376.608 162.793 376.608 163.911C376.608 165.036 376.41 165.89 376.014 166.474C375.618 167.059 375.043 167.351 374.288 167.351ZM374.288 166.569C374.756 166.569 375.101 166.355 375.32 165.928C375.545 165.494 375.658 164.822 375.658 163.911C375.658 163.001 375.548 162.335 375.329 161.914C375.11 161.493 374.763 161.282 374.288 161.282C373.819 161.282 373.472 161.496 373.246 161.923C373.027 162.344 372.917 163.007 372.917 163.911C372.917 164.822 373.027 165.494 373.246 165.928C373.472 166.355 373.819 166.569 374.288 166.569Z" fill="white"/>
        <path d="M379.08 164.58C378.58 164.58 378.188 164.408 377.901 164.062C377.621 163.71 377.481 163.198 377.481 162.526C377.481 161.854 377.621 161.345 377.901 161C378.188 160.654 378.58 160.481 379.08 160.481C379.585 160.481 379.978 160.654 380.258 161C380.544 161.345 380.687 161.854 380.687 162.526C380.687 163.198 380.544 163.71 380.258 164.062C379.978 164.408 379.585 164.58 379.08 164.58ZM379.034 167.275L382.797 160.566H383.656L379.893 167.275H379.034ZM379.08 163.94C379.354 163.94 379.555 163.83 379.683 163.61C379.81 163.384 379.874 163.023 379.874 162.526C379.874 162.043 379.81 161.691 379.683 161.471C379.555 161.245 379.354 161.132 379.08 161.132C378.812 161.132 378.614 161.245 378.486 161.471C378.358 161.691 378.294 162.043 378.294 162.526C378.294 163.023 378.358 163.384 378.486 163.61C378.614 163.83 378.812 163.94 379.08 163.94ZM383.61 167.341C383.105 167.341 382.709 167.169 382.423 166.823C382.143 166.471 382.003 165.959 382.003 165.287C382.003 164.615 382.143 164.106 382.423 163.761C382.709 163.415 383.105 163.242 383.61 163.242C384.116 163.242 384.509 163.415 384.789 163.761C385.069 164.106 385.209 164.615 385.209 165.287C385.209 165.959 385.069 166.471 384.789 166.823C384.509 167.169 384.116 167.341 383.61 167.341ZM383.61 166.691C383.884 166.691 384.085 166.581 384.213 166.361C384.341 166.135 384.405 165.777 384.405 165.287C384.405 164.803 384.338 164.452 384.204 164.232C384.076 164.006 383.878 163.893 383.61 163.893C383.336 163.893 383.135 164.006 383.008 164.232C382.88 164.452 382.816 164.803 382.816 165.287C382.816 165.777 382.88 166.135 383.008 166.361C383.135 166.581 383.336 166.691 383.61 166.691Z" fill="white"/>
        <path d="M341 176.698L280 176.698L280 150L341 150L341 176.698Z" fill="#586473"/>
        <path d="M305.562 160.566V161.292L302.506 167.275H301.475L304.522 161.367H301.085V160.566H305.562Z" fill="white"/>
        <path d="M309.208 163.026C309.623 163.026 309.985 163.117 310.294 163.299C310.61 163.475 310.852 163.726 311.019 164.053C311.192 164.373 311.279 164.744 311.279 165.165C311.279 165.598 311.183 165.978 310.991 166.305C310.805 166.632 310.536 166.886 310.183 167.068C309.83 167.25 309.418 167.341 308.948 167.341C308.539 167.341 308.137 167.269 307.741 167.125C307.344 166.98 307.016 166.782 306.756 166.531L307.09 165.815C307.703 166.305 308.326 166.55 308.957 166.55C309.397 166.55 309.737 166.431 309.979 166.192C310.226 165.947 310.35 165.611 310.35 165.184C310.35 164.775 310.226 164.445 309.979 164.194C309.737 163.943 309.412 163.817 309.004 163.817C308.409 163.817 307.932 164.046 307.573 164.505H306.951V160.566H311V161.348H307.898V163.478C308.251 163.176 308.688 163.026 309.208 163.026Z" fill="white"/>
        <path d="M313.764 164.58C313.256 164.58 312.857 164.408 312.566 164.062C312.281 163.71 312.139 163.198 312.139 162.526C312.139 161.854 312.281 161.345 312.566 161C312.857 160.654 313.256 160.481 313.764 160.481C314.278 160.481 314.677 160.654 314.962 161C315.253 161.345 315.399 161.854 315.399 162.526C315.399 163.198 315.253 163.71 314.962 164.062C314.677 164.408 314.278 164.58 313.764 164.58ZM313.718 167.275L317.544 160.566H318.417L314.591 167.275H313.718ZM313.764 163.94C314.043 163.94 314.247 163.83 314.377 163.61C314.507 163.384 314.572 163.023 314.572 162.526C314.572 162.043 314.507 161.691 314.377 161.471C314.247 161.245 314.043 161.132 313.764 161.132C313.492 161.132 313.29 161.245 313.16 161.471C313.03 161.691 312.965 162.043 312.965 162.526C312.965 163.023 313.03 163.384 313.16 163.61C313.29 163.83 313.492 163.94 313.764 163.94ZM318.37 167.341C317.856 167.341 317.454 167.169 317.163 166.823C316.878 166.471 316.736 165.959 316.736 165.287C316.736 164.615 316.878 164.106 317.163 163.761C317.454 163.415 317.856 163.242 318.37 163.242C318.884 163.242 319.284 163.415 319.568 163.761C319.853 164.106 319.996 164.615 319.996 165.287C319.996 165.959 319.853 166.471 319.568 166.823C319.284 167.169 318.884 167.341 318.37 167.341ZM318.37 166.691C318.649 166.691 318.853 166.581 318.983 166.361C319.113 166.135 319.178 165.777 319.178 165.287C319.178 164.803 319.11 164.452 318.974 164.232C318.844 164.006 318.643 163.893 318.37 163.893C318.092 163.893 317.887 164.006 317.757 164.232C317.627 164.452 317.562 164.803 317.562 165.287C317.562 165.777 317.627 166.135 317.757 166.361C317.887 166.581 318.092 166.691 318.37 166.691Z" fill="white"/>
        <path d="M278 176.698L216 176.698L216 150L278 150L278 176.698Z" fill="#586473"/>
        <path d="M240.12 163.026C240.536 163.026 240.899 163.117 241.21 163.299C241.526 163.475 241.768 163.726 241.936 164.053C242.11 164.373 242.197 164.744 242.197 165.165C242.197 165.598 242.101 165.978 241.908 166.305C241.722 166.632 241.452 166.886 241.098 167.068C240.744 167.25 240.331 167.341 239.859 167.341C239.449 167.341 239.046 167.269 238.648 167.125C238.251 166.98 237.922 166.782 237.661 166.531L237.997 165.815C238.611 166.305 239.235 166.55 239.868 166.55C240.309 166.55 240.651 166.431 240.893 166.192C241.141 165.947 241.265 165.611 241.265 165.184C241.265 164.775 241.141 164.445 240.893 164.194C240.651 163.943 240.325 163.817 239.915 163.817C239.319 163.817 238.841 164.046 238.481 164.505H237.857V160.566H241.917V161.348H238.807V163.478C239.161 163.176 239.598 163.026 240.12 163.026Z" fill="white"/>
        <path d="M245.388 167.351C244.618 167.351 244.031 167.059 243.627 166.474C243.224 165.89 243.022 165.039 243.022 163.921C243.022 162.803 243.224 161.951 243.627 161.367C244.031 160.783 244.618 160.491 245.388 160.491C246.158 160.491 246.744 160.783 247.148 161.367C247.551 161.945 247.753 162.793 247.753 163.911C247.753 165.036 247.551 165.89 247.148 166.474C246.744 167.059 246.158 167.351 245.388 167.351ZM245.388 166.569C245.866 166.569 246.217 166.355 246.44 165.928C246.67 165.494 246.785 164.822 246.785 163.911C246.785 163.001 246.673 162.335 246.449 161.914C246.226 161.493 245.872 161.282 245.388 161.282C244.91 161.282 244.556 161.496 244.326 161.923C244.102 162.344 243.991 163.007 243.991 163.911C243.991 164.822 244.102 165.494 244.326 165.928C244.556 166.355 244.91 166.569 245.388 166.569Z" fill="white"/>
        <path d="M250.273 164.58C249.764 164.58 249.364 164.408 249.072 164.062C248.786 163.71 248.644 163.198 248.644 162.526C248.644 161.854 248.786 161.345 249.072 161C249.364 160.654 249.764 160.481 250.273 160.481C250.789 160.481 251.189 160.654 251.475 161C251.767 161.345 251.913 161.854 251.913 162.526C251.913 163.198 251.767 163.71 251.475 164.062C251.189 164.408 250.789 164.58 250.273 164.58ZM250.227 167.275L254.064 160.566H254.939L251.102 167.275H250.227ZM250.273 163.94C250.553 163.94 250.758 163.83 250.888 163.61C251.019 163.384 251.084 163.023 251.084 162.526C251.084 162.043 251.019 161.691 250.888 161.471C250.758 161.245 250.553 161.132 250.273 161.132C250 161.132 249.799 161.245 249.668 161.471C249.538 161.691 249.473 162.043 249.473 162.526C249.473 163.023 249.538 163.384 249.668 163.61C249.799 163.83 250 163.94 250.273 163.94ZM254.893 167.341C254.378 167.341 253.974 167.169 253.682 166.823C253.397 166.471 253.254 165.959 253.254 165.287C253.254 164.615 253.397 164.106 253.682 163.761C253.974 163.415 254.378 163.242 254.893 163.242C255.408 163.242 255.809 163.415 256.094 163.761C256.38 164.106 256.523 164.615 256.523 165.287C256.523 165.959 256.38 166.471 256.094 166.823C255.809 167.169 255.408 167.341 254.893 167.341ZM254.893 166.691C255.172 166.691 255.377 166.581 255.508 166.361C255.638 166.135 255.703 165.777 255.703 165.287C255.703 164.803 255.635 164.452 255.498 164.232C255.368 164.006 255.166 163.893 254.893 163.893C254.613 163.893 254.409 164.006 254.278 164.232C254.148 164.452 254.083 164.803 254.083 165.287C254.083 165.777 254.148 166.135 254.278 166.361C254.409 166.581 254.613 166.691 254.893 166.691Z" fill="white"/>
        <path d="M214 176.698L153.044 176.698L153.044 150L214 150L214 176.698Z" fill="#586473"/>
        <path d="M178.689 166.474V167.275H174.413V166.55L176.657 164.015C176.943 163.688 177.151 163.393 177.279 163.129C177.413 162.859 177.481 162.592 177.481 162.328C177.481 161.989 177.386 161.732 177.197 161.556C177.008 161.373 176.733 161.282 176.373 161.282C175.768 161.282 175.164 161.527 174.56 162.017L174.221 161.301C174.477 161.056 174.804 160.862 175.201 160.717C175.597 160.566 175.997 160.491 176.4 160.491C177.023 160.491 177.514 160.651 177.874 160.971C178.241 161.292 178.424 161.725 178.424 162.272C178.424 162.661 178.341 163.032 178.177 163.384C178.012 163.729 177.737 164.116 177.352 164.543L175.613 166.474H178.689Z" fill="white"/>
        <path d="M182.248 163.026C182.657 163.026 183.014 163.117 183.319 163.299C183.63 163.475 183.868 163.726 184.033 164.053C184.204 164.373 184.29 164.744 184.29 165.165C184.29 165.598 184.195 165.978 184.006 166.305C183.823 166.632 183.557 166.886 183.209 167.068C182.861 167.25 182.455 167.341 181.991 167.341C181.588 167.341 181.192 167.269 180.801 167.125C180.41 166.98 180.087 166.782 179.83 166.531L180.16 165.815C180.764 166.305 181.378 166.55 182 166.55C182.434 166.55 182.77 166.431 183.008 166.192C183.252 165.947 183.374 165.611 183.374 165.184C183.374 164.775 183.252 164.445 183.008 164.194C182.77 163.943 182.449 163.817 182.046 163.817C181.46 163.817 180.99 164.046 180.636 164.505H180.023V160.566H184.015V161.348H180.957V163.478C181.304 163.176 181.735 163.026 182.248 163.026Z" fill="white"/>
        <path d="M186.74 164.58C186.239 164.58 185.846 164.408 185.559 164.062C185.278 163.71 185.137 163.198 185.137 162.526C185.137 161.854 185.278 161.345 185.559 161C185.846 160.654 186.239 160.481 186.74 160.481C187.247 160.481 187.64 160.654 187.921 161C188.208 161.345 188.351 161.854 188.351 162.526C188.351 163.198 188.208 163.71 187.921 164.062C187.64 164.408 187.247 164.58 186.74 164.58ZM186.694 167.275L190.467 160.566H191.327L187.555 167.275H186.694ZM186.74 163.94C187.015 163.94 187.216 163.83 187.344 163.61C187.472 163.384 187.537 163.023 187.537 162.526C187.537 162.043 187.472 161.691 187.344 161.471C187.216 161.245 187.015 161.132 186.74 161.132C186.471 161.132 186.273 161.245 186.145 161.471C186.017 161.691 185.952 162.043 185.952 162.526C185.952 163.023 186.017 163.384 186.145 163.61C186.273 163.83 186.471 163.94 186.74 163.94ZM191.282 167.341C190.775 167.341 190.378 167.169 190.091 166.823C189.81 166.471 189.67 165.959 189.67 165.287C189.67 164.615 189.81 164.106 190.091 163.761C190.378 163.415 190.775 163.242 191.282 163.242C191.788 163.242 192.182 163.415 192.463 163.761C192.744 164.106 192.884 164.615 192.884 165.287C192.884 165.959 192.744 166.471 192.463 166.823C192.182 167.169 191.788 167.341 191.282 167.341ZM191.282 166.691C191.556 166.691 191.758 166.581 191.886 166.361C192.014 166.135 192.078 165.777 192.078 165.287C192.078 164.803 192.011 164.452 191.877 164.232C191.749 164.006 191.55 163.893 191.282 163.893C191.007 163.893 190.805 164.006 190.677 164.232C190.549 164.452 190.485 164.803 190.485 165.287C190.485 165.777 190.549 166.135 190.677 166.361C190.805 166.581 191.007 166.691 191.282 166.691Z" fill="white"/>
        <rect x="312" y="111" width="79.0264" height="25" rx="12.5" fill="#495460"/>
        <path d="M340.33 126.909V120.437H344.712V121.364H341.49V123.155H344.519V124.082H341.49V125.982H344.712V126.909H340.33Z" fill="white"/>
        <path d="M347.812 126.909V121.4H345.676V120.437H351.154V121.4H349.009V126.909H347.812Z" fill="white"/>
        <path d="M356.965 120.437H358.144V126.909H356.965V124.1H353.605V126.909H352.435V120.437H353.605V123.146H356.965V120.437Z" fill="white"/>
        <path d="M380.285 122.364H374.147L377.216 125.394L380.285 122.364Z" fill="white"/>
        <path d="M331.192 130.263C330.308 131.149 329.255 131.848 328.095 132.318C326.936 132.788 325.694 133.019 324.443 132.998C323.199 133.022 321.964 132.792 320.813 132.322C319.661 131.852 318.617 131.151 317.745 130.263C316.853 129.393 316.149 128.348 315.677 127.194C315.205 126.04 314.975 124.801 315.002 123.554C315.002 120.823 315.916 118.549 317.745 116.73C318.618 115.843 319.662 115.144 320.813 114.675C321.965 114.206 323.2 113.977 324.443 114.002C325.693 113.98 326.935 114.211 328.094 114.679C329.254 115.148 330.307 115.845 331.192 116.73C333.063 118.549 333.998 120.823 333.998 123.554C334.023 124.806 333.785 126.05 333.302 127.205C332.819 128.36 332.1 129.402 331.192 130.263Z" fill="#C8C8C8"/>
        <path d="M324.5 116.986L320.7 123.461L324.5 121.687V116.986Z" fill="#8B8B8B"/>
        <path d="M324.5 121.687L320.7 123.462L324.5 125.767V121.687Z" fill="#393939"/>
        <path d="M324.5 116.986V121.687L328.296 123.461L324.5 116.986Z" fill="#343434"/>
        <path d="M324.5 121.687V125.767L328.296 123.462L324.5 121.687Z" fill="#161616"/>
        <path d="M320.7 124.201L324.5 129.701V126.508L320.7 124.201Z" fill="#8B8B8B"/>
        <path d="M328.3 124.201L324.5 126.508V129.701L328.3 124.201Z" fill="#343434"/>
        <path d="M175.4 129.273H179.171V132.333H167.809V129.273H171.58V119.164L168.054 121.244V117.891L173.172 114.904H175.4V129.273Z" fill="white"/>
        <path d="M187.316 132.553C185.21 132.553 183.594 131.786 182.467 130.252C181.357 128.718 180.802 126.499 180.802 123.594C180.802 120.722 181.357 118.527 182.467 117.009C183.594 115.492 185.21 114.733 187.316 114.733C189.422 114.733 191.03 115.492 192.14 117.009C193.266 118.527 193.829 120.722 193.829 123.594C193.829 126.499 193.266 128.718 192.14 130.252C191.03 131.786 189.422 132.553 187.316 132.553ZM187.316 129.615C188.279 129.615 188.981 129.142 189.422 128.196C189.862 127.249 190.083 125.715 190.083 123.594C190.083 121.522 189.862 120.02 189.422 119.09C188.981 118.144 188.279 117.67 187.316 117.67C186.353 117.67 185.651 118.144 185.21 119.09C184.769 120.02 184.549 121.522 184.549 123.594C184.549 125.715 184.769 127.249 185.21 128.196C185.651 129.142 186.353 129.615 187.316 129.615Z" fill="white"/>
        <path d="M201.998 132.553C199.893 132.553 198.276 131.786 197.15 130.252C196.04 128.718 195.485 126.499 195.485 123.594C195.485 120.722 196.04 118.527 197.15 117.009C198.276 115.492 199.893 114.733 201.998 114.733C204.104 114.733 205.712 115.492 206.822 117.009C207.949 118.527 208.512 120.722 208.512 123.594C208.512 126.499 207.949 128.718 206.822 130.252C205.712 131.786 204.104 132.553 201.998 132.553ZM201.998 129.615C202.962 129.615 203.663 129.142 204.104 128.196C204.545 127.249 204.765 125.715 204.765 123.594C204.765 121.522 204.545 120.02 204.104 119.09C203.663 118.144 202.962 117.67 201.998 117.67C201.035 117.67 200.333 118.144 199.893 119.09C199.452 120.02 199.231 121.522 199.231 123.594C199.231 125.715 199.452 127.249 199.893 128.196C200.333 129.142 201.035 129.615 201.998 129.615Z" fill="white"/>
        <path d="M210.535 128.392H214.526V132.333H210.535V128.392Z" fill="white"/>
        <path d="M224.143 121.048C225.22 121.048 226.175 121.285 227.008 121.758C227.856 122.215 228.509 122.868 228.967 123.716C229.44 124.565 229.677 125.544 229.677 126.654C229.677 127.829 229.399 128.865 228.844 129.762C228.305 130.644 227.522 131.329 226.493 131.818C225.481 132.292 224.298 132.528 222.943 132.528C221.833 132.528 220.731 132.349 219.637 131.99C218.56 131.631 217.686 131.158 217.017 130.57L218.241 127.829C219.792 128.955 221.376 129.518 222.992 129.518C225.032 129.518 226.053 128.612 226.053 126.801C226.053 125.936 225.783 125.258 225.245 124.769C224.722 124.263 224.004 124.01 223.09 124.01C222.518 124.01 221.939 124.116 221.351 124.328C220.78 124.54 220.266 124.834 219.808 125.209H217.629V114.904H228.82V117.842H221.351V121.734C222.118 121.277 223.049 121.048 224.143 121.048Z" fill="white"/>
        <path d="M239.046 120.999C240.058 120.999 240.964 121.244 241.764 121.734C242.58 122.207 243.208 122.876 243.649 123.741C244.106 124.589 244.335 125.56 244.335 126.654C244.335 127.78 244.074 128.791 243.551 129.689C243.045 130.586 242.335 131.288 241.421 131.794C240.523 132.3 239.503 132.553 238.36 132.553C236.091 132.553 234.344 131.802 233.12 130.301C231.895 128.8 231.283 126.662 231.283 123.888C231.283 121.978 231.577 120.338 232.165 118.968C232.752 117.581 233.593 116.52 234.687 115.786C235.781 115.051 237.087 114.684 238.605 114.684C239.682 114.684 240.727 114.855 241.739 115.198C242.751 115.541 243.617 116.022 244.335 116.642L243.086 119.384C241.617 118.258 240.18 117.695 238.776 117.695C237.634 117.695 236.744 118.16 236.107 119.09C235.471 120.004 235.12 121.35 235.054 123.129C235.43 122.476 235.968 121.962 236.67 121.587C237.389 121.195 238.18 120.999 239.046 120.999ZM238.14 129.567C238.923 129.567 239.544 129.314 240.001 128.808C240.474 128.302 240.711 127.633 240.711 126.801C240.711 125.936 240.482 125.258 240.025 124.769C239.568 124.263 238.939 124.01 238.14 124.01C237.356 124.01 236.719 124.271 236.23 124.793C235.756 125.299 235.519 125.968 235.519 126.801C235.519 127.616 235.764 128.286 236.254 128.808C236.744 129.314 237.372 129.567 238.14 129.567Z" fill="white"/>
        <path d="M253.508 121.048C254.585 121.048 255.54 121.285 256.373 121.758C257.222 122.215 257.875 122.868 258.332 123.716C258.805 124.565 259.042 125.544 259.042 126.654C259.042 127.829 258.764 128.865 258.209 129.762C257.671 130.644 256.887 131.329 255.859 131.818C254.846 132.292 253.663 132.528 252.308 132.528C251.198 132.528 250.096 132.349 249.002 131.99C247.925 131.631 247.051 131.158 246.382 130.57L247.606 127.829C249.157 128.955 250.741 129.518 252.357 129.518C254.398 129.518 255.418 128.612 255.418 126.801C255.418 125.936 255.148 125.258 254.61 124.769C254.087 124.263 253.369 124.01 252.455 124.01C251.884 124.01 251.304 124.116 250.716 124.328C250.145 124.54 249.631 124.834 249.174 125.209H246.994V114.904H258.185V117.842H250.716V121.734C251.484 121.277 252.414 121.048 253.508 121.048Z" fill="white"/>
        <path d="M385.71 53.5448V47.0093H390.081V47.9455H386.867V49.7538H389.888V50.6901H386.867V52.6086H390.081V53.5448H385.71Z" fill="#FFE352"/>
        <path d="M392.714 53.5448V47.9823H390.583V47.0093H396.047V47.9823H393.907V53.5448H392.714Z" fill="#FFE352"/>
        <path d="M401.383 47.0093H402.559V53.5448H401.383V50.7085H398.032V53.5448H396.865V47.0093H398.032V49.7447H401.383V47.0093Z" fill="#FFE352"/>
        <path d="M158.801 53.5448L158.103 51.9293H154.797L154.099 53.5448H153.135L156.046 47.0093H156.845L159.765 53.5448H158.801ZM155.119 51.1766H157.782L156.45 48.0649L155.119 51.1766Z" fill="#A2ABB8"/>
        <path d="M162.083 53.6091C161.275 53.6091 160.638 53.4133 160.173 53.0216L160.448 52.3515C160.932 52.7187 161.486 52.9023 162.11 52.9023C162.428 52.9023 162.67 52.8503 162.836 52.7462C163.001 52.6361 163.083 52.4831 163.083 52.2873C163.083 52.1221 163.025 51.9935 162.909 51.9018C162.799 51.8038 162.609 51.7212 162.34 51.6539L161.568 51.4703C161.164 51.3847 160.855 51.2347 160.641 51.0206C160.433 50.8003 160.329 50.5279 160.329 50.2036C160.329 49.7875 160.494 49.4509 160.825 49.1939C161.161 48.9369 161.605 48.8084 162.156 48.8084C162.487 48.8084 162.799 48.8604 163.093 48.9644C163.393 49.0685 163.647 49.2153 163.855 49.405L163.57 50.0568C163.123 49.7018 162.652 49.5244 162.156 49.5244C161.856 49.5244 161.623 49.5825 161.458 49.6988C161.293 49.8089 161.21 49.965 161.21 50.1669C161.21 50.326 161.262 50.4545 161.366 50.5524C161.47 50.6503 161.636 50.7268 161.862 50.7819L162.652 50.9747C163.093 51.0726 163.417 51.2286 163.625 51.4428C163.84 51.6509 163.947 51.9232 163.947 52.2597C163.947 52.6759 163.778 53.0063 163.442 53.2511C163.111 53.4897 162.658 53.6091 162.083 53.6091Z" fill="#A2ABB8"/>
        <path d="M166.656 53.6091C165.848 53.6091 165.211 53.4133 164.746 53.0216L165.021 52.3515C165.505 52.7187 166.059 52.9023 166.683 52.9023C167.002 52.9023 167.244 52.8503 167.409 52.7462C167.574 52.6361 167.657 52.4831 167.657 52.2873C167.657 52.1221 167.599 51.9935 167.482 51.9018C167.372 51.8038 167.182 51.7212 166.913 51.6539L166.142 51.4703C165.738 51.3847 165.429 51.2347 165.214 51.0206C165.006 50.8003 164.902 50.5279 164.902 50.2036C164.902 49.7875 165.067 49.4509 165.398 49.1939C165.735 48.9369 166.178 48.8084 166.729 48.8084C167.06 48.8084 167.372 48.8604 167.666 48.9644C167.966 49.0685 168.22 49.2153 168.428 49.405L168.144 50.0568C167.697 49.7018 167.225 49.5244 166.729 49.5244C166.429 49.5244 166.197 49.5825 166.032 49.6988C165.866 49.8089 165.784 49.965 165.784 50.1669C165.784 50.326 165.836 50.4545 165.94 50.5524C166.044 50.6503 166.209 50.7268 166.436 50.7819L167.225 50.9747C167.666 51.0726 167.99 51.2286 168.199 51.4428C168.413 51.6509 168.52 51.9232 168.52 52.2597C168.52 52.6759 168.352 53.0063 168.015 53.2511C167.684 53.4897 167.231 53.6091 166.656 53.6091Z" fill="#A2ABB8"/>
        <path d="M173.562 51.25H170.256C170.287 52.3332 170.779 52.8747 171.734 52.8747C172.267 52.8747 172.754 52.7003 173.194 52.3515L173.479 53.0124C173.271 53.196 173.005 53.3429 172.68 53.453C172.362 53.5571 172.04 53.6091 171.716 53.6091C170.975 53.6091 170.394 53.398 169.971 52.9757C169.549 52.5474 169.338 51.963 169.338 51.2225C169.338 50.7513 169.43 50.3321 169.613 49.965C169.803 49.5978 170.066 49.3132 170.403 49.1113C170.74 48.9094 171.122 48.8084 171.551 48.8084C172.175 48.8084 172.665 49.0103 173.02 49.4142C173.381 49.8181 173.562 50.378 173.562 51.094V51.25ZM171.569 49.4968C171.22 49.4968 170.935 49.6009 170.715 49.8089C170.495 50.017 170.354 50.3138 170.293 50.6993H172.744C172.708 50.3076 172.588 50.0109 172.386 49.8089C172.184 49.6009 171.912 49.4968 171.569 49.4968Z" fill="#A2ABB8"/>
        <path d="M175.784 49.6345V51.9568C175.784 52.275 175.851 52.5015 175.986 52.6361C176.127 52.7646 176.32 52.8289 176.565 52.8289C176.724 52.8289 176.886 52.8044 177.051 52.7554V53.5081C176.849 53.5754 176.62 53.6091 176.363 53.6091C175.885 53.6091 175.515 53.4745 175.251 53.2052C174.988 52.9359 174.857 52.5443 174.857 52.0303V49.6345H173.957V48.9185H174.857V47.762L175.784 47.4407V48.9185H177.06V49.6345H175.784Z" fill="#A2ABB8"/>
        <path fill-rule="evenodd" clip-rule="evenodd" d="M180.592 55.0745H180.209V54.3096H180.592V55.0745ZM183.659 55.0745H182.892V54.3096H183.659V55.0745ZM186.725 55.0745H185.959V54.3096H186.725V55.0745ZM189.792 55.0745H189.025V54.3096H189.792V55.0745ZM192.859 55.0745H192.092V54.3096H192.859V55.0745ZM195.925 55.0745H195.159V54.3096H195.925V55.0745ZM198.992 55.0745H198.225V54.3096H198.992V55.0745ZM202.059 55.0745H201.292V54.3096H202.059V55.0745ZM205.125 55.0745H204.359V54.3096H205.125V55.0745ZM208.192 55.0745H207.425V54.3096H208.192V55.0745ZM211.259 55.0745H210.492V54.3096H211.259V55.0745ZM214.325 55.0745H213.559V54.3096H214.325V55.0745ZM217.392 55.0745H216.625V54.3096H217.392V55.0745ZM220.459 55.0745H219.692V54.3096H220.459V55.0745ZM223.525 55.0745H222.759V54.3096H223.525V55.0745ZM226.592 55.0745H225.825V54.3096H226.592V55.0745ZM229.659 55.0745H228.892V54.3096H229.659V55.0745ZM232.725 55.0745H231.959V54.3096H232.725V55.0745ZM235.792 55.0745H235.025V54.3096H235.792V55.0745ZM238.859 55.0745H238.092V54.3096H238.859V55.0745ZM241.925 55.0745H241.159V54.3096H241.925V55.0745ZM244.992 55.0745H244.225V54.3096H244.992V55.0745ZM248.059 55.0745H247.292V54.3096H248.059V55.0745ZM251.125 55.0745H250.359V54.3096H251.125V55.0745ZM254.192 55.0745H253.425V54.3096H254.192V55.0745ZM257.259 55.0745H256.492V54.3096H257.259V55.0745ZM260.325 55.0745H259.559V54.3096H260.325V55.0745ZM263.392 55.0745H262.625V54.3096H263.392V55.0745ZM266.459 55.0745H265.692V54.3096H266.459V55.0745ZM269.525 55.0745H268.759V54.3096H269.525V55.0745ZM272.592 55.0745H271.825V54.3096H272.592V55.0745ZM275.659 55.0745H274.892V54.3096H275.659V55.0745ZM278.725 55.0745H277.959V54.3096H278.725V55.0745ZM281.792 55.0745H281.025V54.3096H281.792V55.0745ZM284.859 55.0745H284.092V54.3096H284.859V55.0745ZM287.925 55.0745H287.159V54.3096H287.925V55.0745ZM290.992 55.0745H290.225V54.3096H290.992V55.0745ZM294.059 55.0745H293.292V54.3096H294.059V55.0745ZM297.125 55.0745H296.359V54.3096H297.125V55.0745ZM300.192 55.0745H299.425V54.3096H300.192V55.0745ZM303.259 55.0745H302.492V54.3096H303.259V55.0745ZM306.325 55.0745H305.559V54.3096H306.325V55.0745ZM309.392 55.0745H308.625V54.3096H309.392V55.0745ZM312.459 55.0745H311.692V54.3096H312.459V55.0745ZM315.525 55.0745H314.759V54.3096H315.525V55.0745ZM318.592 55.0745H317.825V54.3096H318.592V55.0745ZM321.659 55.0745H320.892V54.3096H321.659V55.0745ZM324.725 55.0745H323.959V54.3096H324.725V55.0745ZM327.792 55.0745H327.025V54.3096H327.792V55.0745ZM330.859 55.0745H330.092V54.3096H330.859V55.0745ZM333.925 55.0745H333.159V54.3096H333.925V55.0745ZM336.992 55.0745H336.225V54.3096H336.992V55.0745ZM340.059 55.0745H339.292V54.3096H340.059V55.0745ZM343.125 55.0745H342.359V54.3096H343.125V55.0745ZM346.192 55.0745H345.425V54.3096H346.192V55.0745ZM349.259 55.0745H348.492V54.3096H349.259V55.0745ZM352.325 55.0745H351.559V54.3096H352.325V55.0745ZM355.392 55.0745H354.625V54.3096H355.392V55.0745ZM358.459 55.0745H357.692V54.3096H358.459V55.0745ZM361.525 55.0745H360.759V54.3096H361.525V55.0745ZM364.592 55.0745H363.825V54.3096H364.592V55.0745ZM367.659 55.0745H366.892V54.3096H367.659V55.0745ZM370.725 55.0745H369.959V54.3096H370.725V55.0745ZM373.792 55.0745H373.025V54.3096H373.792V55.0745ZM376.859 55.0745H376.092V54.3096H376.859V55.0745ZM379.925 55.0745H379.159V54.3096H379.925V55.0745ZM382.609 55.0745H382.225V54.3096H382.609V55.0745Z" fill="#A2ABB8" fill-opacity="0.5"/>
        <path d="M367.42 78.1055C366.642 78.1055 366.048 77.8209 365.638 77.2518C365.234 76.6766 365.032 75.8413 365.032 74.7459C365.032 73.6689 365.234 72.8458 365.638 72.2767C366.048 71.7076 366.642 71.423 367.42 71.423C368.197 71.423 368.788 71.7076 369.192 72.2767C369.602 72.8397 369.807 73.6628 369.807 74.7459C369.807 75.8352 369.602 76.6674 369.192 77.2426C368.788 77.8179 368.197 78.1055 367.42 78.1055ZM367.42 77.1784C367.842 77.1784 368.148 76.9856 368.338 76.6001C368.534 76.2084 368.632 75.5904 368.632 74.7459C368.632 73.9137 368.534 73.3078 368.338 72.9284C368.148 72.5429 367.842 72.3501 367.42 72.3501C366.997 72.3501 366.688 72.5429 366.492 72.9284C366.303 73.3078 366.208 73.9137 366.208 74.7459C366.208 75.5904 366.303 76.2084 366.492 76.6001C366.688 76.9856 366.997 77.1784 367.42 77.1784Z" fill="#FFE352"/>
        <path d="M370.676 76.7378H371.962V78.0229H370.676V76.7378Z" fill="#FFE352"/>
        <path d="M376.112 77.0591H377.535V78.0229H373.504V77.0591H374.936V72.8458L373.605 73.6444V72.5888L375.423 71.4873H376.112V77.0591Z" fill="#FFE352"/>
        <path d="M380.736 78.1055C379.959 78.1055 379.365 77.8209 378.955 77.2518C378.551 76.6766 378.349 75.8413 378.349 74.7459C378.349 73.6689 378.551 72.8458 378.955 72.2767C379.365 71.7076 379.959 71.423 380.736 71.423C381.514 71.423 382.105 71.7076 382.509 72.2767C382.919 72.8397 383.124 73.6628 383.124 74.7459C383.124 75.8352 382.919 76.6674 382.509 77.2426C382.105 77.8179 381.514 78.1055 380.736 78.1055ZM380.736 77.1784C381.159 77.1784 381.465 76.9856 381.655 76.6001C381.85 76.2084 381.948 75.5904 381.948 74.7459C381.948 73.9137 381.85 73.3078 381.655 72.9284C381.465 72.5429 381.159 72.3501 380.736 72.3501C380.314 72.3501 380.005 72.5429 379.809 72.9284C379.619 73.3078 379.524 73.9137 379.524 74.7459C379.524 75.5904 379.619 76.2084 379.809 76.6001C380.005 76.9856 380.314 77.1784 380.736 77.1784Z" fill="#FFE352"/>
        <path d="M386.591 73.8463C387.001 73.8463 387.363 73.9351 387.675 74.1125C387.987 74.2839 388.229 74.5287 388.4 74.8469C388.572 75.159 388.657 75.52 388.657 75.93C388.657 76.3584 388.559 76.7378 388.363 77.0682C388.168 77.3926 387.886 77.6465 387.519 77.8301C387.151 78.0076 386.726 78.0963 386.242 78.0963C385.832 78.0963 385.428 78.029 385.03 77.8944C384.632 77.7536 384.305 77.567 384.048 77.3344L384.443 76.4716C385.036 76.9244 385.642 77.1508 386.261 77.1508C386.671 77.1508 386.983 77.0499 387.197 76.8479C387.418 76.6399 387.528 76.3461 387.528 75.9667C387.528 75.6057 387.415 75.3181 387.188 75.1039C386.968 74.8836 386.671 74.7734 386.297 74.7734C386.04 74.7734 385.798 74.8224 385.572 74.9203C385.345 75.0121 385.147 75.1498 384.975 75.3334H384.259V71.4873H388.354V72.4052H385.416V74.186C385.746 73.9596 386.138 73.8463 386.591 73.8463Z" fill="#FFE352"/>
        <path d="M391.748 78.1055C390.971 78.1055 390.377 77.8209 389.967 77.2518C389.563 76.6766 389.361 75.8413 389.361 74.7459C389.361 73.6689 389.563 72.8458 389.967 72.2767C390.377 71.7076 390.971 71.423 391.748 71.423C392.526 71.423 393.116 71.7076 393.521 72.2767C393.931 72.8397 394.136 73.6628 394.136 74.7459C394.136 75.8352 393.931 76.6674 393.521 77.2426C393.116 77.8179 392.526 78.1055 391.748 78.1055ZM391.748 77.1784C392.171 77.1784 392.477 76.9856 392.667 76.6001C392.862 76.2084 392.96 75.5904 392.96 74.7459C392.96 73.9137 392.862 73.3078 392.667 72.9284C392.477 72.5429 392.171 72.3501 391.748 72.3501C391.326 72.3501 391.017 72.5429 390.821 72.9284C390.631 73.3078 390.536 73.9137 390.536 74.7459C390.536 75.5904 390.631 76.2084 390.821 76.6001C391.017 76.9856 391.326 77.1784 391.748 77.1784Z" fill="#FFE352"/>
        <path d="M396.547 75.3884C396.033 75.3884 395.629 75.2202 395.335 74.8836C395.047 74.5409 394.904 74.0422 394.904 73.3874C394.904 72.7387 395.047 72.2461 395.335 71.9095C395.629 71.5669 396.033 71.3955 396.547 71.3955C397.068 71.3955 397.475 71.5669 397.768 71.9095C398.062 72.2461 398.209 72.7387 398.209 73.3874C398.209 74.0422 398.062 74.5409 397.768 74.8836C397.475 75.2202 397.068 75.3884 396.547 75.3884ZM397.493 78.0229H396.483L400.266 71.4873H401.285L397.493 78.0229ZM396.547 74.6449C396.786 74.6449 396.96 74.547 397.071 74.3512C397.181 74.1554 397.236 73.8341 397.236 73.3874C397.236 72.9529 397.178 72.6378 397.061 72.4419C396.951 72.24 396.78 72.139 396.547 72.139C396.321 72.139 396.152 72.24 396.042 72.4419C395.932 72.6378 395.877 72.9529 395.877 73.3874C395.877 73.828 395.932 74.1493 396.042 74.3512C396.152 74.547 396.321 74.6449 396.547 74.6449ZM401.212 78.0871C400.692 78.0871 400.285 77.9188 399.991 77.5823C399.703 77.2396 399.559 76.7378 399.559 76.0769C399.559 75.4282 399.703 74.9356 399.991 74.599C400.285 74.2625 400.692 74.0942 401.212 74.0942C401.732 74.0942 402.136 74.2625 402.424 74.599C402.718 74.9356 402.865 75.4313 402.865 76.0861C402.865 76.7408 402.718 77.2396 402.424 77.5823C402.136 77.9188 401.732 78.0871 401.212 78.0871ZM401.212 77.3436C401.445 77.3436 401.616 77.2457 401.726 77.0499C401.836 76.8479 401.891 76.5267 401.891 76.0861C401.891 75.6516 401.833 75.3364 401.717 75.1406C401.607 74.9387 401.438 74.8377 401.212 74.8377C400.979 74.8377 400.808 74.9387 400.698 75.1406C400.588 75.3364 400.532 75.6516 400.532 76.0861C400.532 76.5267 400.588 76.8479 400.698 77.0499C400.808 77.2457 400.979 77.3436 401.212 77.3436Z" fill="#FFE352"/>
        <path d="M153.806 78.0229V71.4873H154.751V78.0229H153.806Z" fill="#A2ABB8"/>
        <path d="M158.65 73.2864C159.758 73.2864 160.312 73.9045 160.312 75.1406V78.0229H159.385V75.1957C159.385 74.7918 159.305 74.4981 159.146 74.3145C158.993 74.1309 158.745 74.0391 158.402 74.0391C158.01 74.0391 157.695 74.1615 157.456 74.4063C157.224 74.651 157.107 74.9784 157.107 75.3884V78.0229H156.189V74.7C156.189 74.2166 156.165 73.7821 156.116 73.3966H156.979L157.061 74.1951C157.208 73.9014 157.419 73.6781 157.695 73.5251C157.977 73.366 158.295 73.2864 158.65 73.2864Z" fill="#A2ABB8"/>
        <path d="M162.835 74.1125V76.4349C162.835 76.7531 162.902 76.9795 163.037 77.1141C163.178 77.2426 163.371 77.3069 163.616 77.3069C163.775 77.3069 163.937 77.2824 164.102 77.2334V77.9861C163.9 78.0534 163.671 78.0871 163.414 78.0871C162.936 78.0871 162.566 77.9525 162.303 77.6832C162.039 77.414 161.908 77.0223 161.908 76.5083V74.1125H161.008V73.3966H161.908V72.24L162.835 71.9187V73.3966H164.112V74.1125H162.835Z" fill="#A2ABB8"/>
        <path d="M168.917 75.7281H165.611C165.641 76.8112 166.134 77.3528 167.089 77.3528C167.622 77.3528 168.109 77.1784 168.549 76.8296L168.834 77.4905C168.626 77.674 168.36 77.8209 168.035 77.9311C167.717 78.0351 167.395 78.0871 167.071 78.0871C166.33 78.0871 165.749 77.876 165.326 77.4537C164.904 77.0254 164.693 76.441 164.693 75.7005C164.693 75.2293 164.784 74.8102 164.968 74.443C165.158 74.0758 165.421 73.7913 165.758 73.5893C166.094 73.3874 166.477 73.2864 166.906 73.2864C167.53 73.2864 168.02 73.4884 168.375 73.8922C168.736 74.2961 168.917 74.856 168.917 75.572V75.7281ZM166.924 73.9749C166.575 73.9749 166.29 74.0789 166.07 74.2869C165.85 74.495 165.709 74.7918 165.648 75.1773H168.099C168.063 74.7857 167.943 74.4889 167.741 74.2869C167.539 74.0789 167.267 73.9749 166.924 73.9749Z" fill="#A2ABB8"/>
        <path d="M172.286 73.2864C172.426 73.2864 172.573 73.3078 172.726 73.3507L172.708 74.1951C172.543 74.134 172.362 74.1034 172.166 74.1034C171.744 74.1034 171.426 74.2319 171.211 74.4889C171.003 74.7398 170.899 75.058 170.899 75.4435V78.0229H169.981V74.7C169.981 74.2166 169.956 73.7821 169.907 73.3966H170.771L170.853 74.2319C170.976 73.9259 171.165 73.6934 171.423 73.5343C171.68 73.369 171.967 73.2864 172.286 73.2864Z" fill="#A2ABB8"/>
        <path d="M177.292 75.7281H173.986C174.017 76.8112 174.51 77.3528 175.465 77.3528C175.997 77.3528 176.484 77.1784 176.925 76.8296L177.209 77.4905C177.001 77.674 176.735 77.8209 176.411 77.9311C176.092 78.0351 175.771 78.0871 175.446 78.0871C174.706 78.0871 174.124 77.876 173.702 77.4537C173.279 77.0254 173.068 76.441 173.068 75.7005C173.068 75.2293 173.16 74.8102 173.344 74.443C173.533 74.0758 173.797 73.7913 174.133 73.5893C174.47 73.3874 174.853 73.2864 175.281 73.2864C175.906 73.2864 176.395 73.4884 176.75 73.8922C177.112 74.2961 177.292 74.856 177.292 75.572V75.7281ZM175.3 73.9749C174.951 73.9749 174.666 74.0789 174.446 74.2869C174.225 74.495 174.084 74.7918 174.023 75.1773H176.475C176.438 74.7857 176.319 74.4889 176.117 74.2869C175.915 74.0789 175.642 73.9749 175.3 73.9749Z" fill="#A2ABB8"/>
        <path d="M179.973 78.0871C179.164 78.0871 178.528 77.8913 178.063 77.4996L178.338 76.8296C178.822 77.1967 179.376 77.3803 180 77.3803C180.318 77.3803 180.56 77.3283 180.726 77.2243C180.891 77.1141 180.973 76.9611 180.973 76.7653C180.973 76.6001 180.915 76.4716 180.799 76.3798C180.689 76.2819 180.499 76.1993 180.23 76.1319L179.458 75.9484C179.054 75.8627 178.745 75.7128 178.531 75.4986C178.323 75.2783 178.219 75.006 178.219 74.6816C178.219 74.2655 178.384 73.929 178.715 73.6719C179.051 73.4149 179.495 73.2864 180.046 73.2864C180.377 73.2864 180.689 73.3384 180.983 73.4425C181.283 73.5465 181.537 73.6934 181.745 73.8831L181.46 74.5348C181.013 74.1799 180.542 74.0024 180.046 74.0024C179.746 74.0024 179.513 74.0605 179.348 74.1768C179.183 74.2869 179.1 74.443 179.1 74.6449C179.1 74.804 179.152 74.9325 179.256 75.0305C179.36 75.1284 179.526 75.2049 179.752 75.2599L180.542 75.4527C180.983 75.5506 181.307 75.7066 181.515 75.9208C181.729 76.1289 181.837 76.4012 181.837 76.7378C181.837 77.1539 181.668 77.4843 181.332 77.7291C181.001 77.9678 180.548 78.0871 179.973 78.0871Z" fill="#A2ABB8"/>
        <path d="M184.088 74.1125V76.4349C184.088 76.7531 184.155 76.9795 184.29 77.1141C184.431 77.2426 184.623 77.3069 184.868 77.3069C185.028 77.3069 185.19 77.2824 185.355 77.2334V77.9861C185.153 78.0534 184.923 78.0871 184.666 78.0871C184.189 78.0871 183.818 77.9525 183.555 77.6832C183.292 77.414 183.16 77.0223 183.16 76.5083V74.1125H182.261V73.3966H183.16V72.24L184.088 71.9187V73.3966H185.364V74.1125H184.088Z" fill="#A2ABB8"/>
        <path d="M193.747 78.0229L193.049 76.4073H189.743L189.045 78.0229H188.081L190.992 71.4873H191.791L194.711 78.0229H193.747ZM190.065 75.6546H192.728L191.396 72.5429L190.065 75.6546Z" fill="#A2ABB8"/>
        <path d="M195.558 71.4873H198.276C198.961 71.4873 199.494 71.6556 199.874 71.9922C200.259 72.3226 200.452 72.7754 200.452 73.3507C200.452 73.9259 200.256 74.3818 199.864 74.7184C199.479 75.0488 198.949 75.214 198.276 75.214H196.504V78.0229H195.558V71.4873ZM198.166 74.4613C198.619 74.4613 198.958 74.3665 199.185 74.1768C199.418 73.9871 199.534 73.7117 199.534 73.3507C199.534 72.9957 199.418 72.7234 199.185 72.5337C198.958 72.344 198.619 72.2492 198.166 72.2492H196.504V74.4613H198.166Z" fill="#A2ABB8"/>
        <path d="M206.845 78.0229H205.844L205.027 75.8474C204.941 75.6149 204.816 75.4558 204.65 75.3701C204.485 75.2783 204.259 75.2324 203.971 75.2324H202.538V78.0229H201.602V71.4873H204.292C205.009 71.4873 205.556 71.6464 205.936 71.9646C206.322 72.2828 206.515 72.7387 206.515 73.3323C206.515 73.7607 206.401 74.1248 206.175 74.4246C205.948 74.7245 205.627 74.9356 205.211 75.058C205.59 75.1253 205.866 75.3946 206.037 75.8658L206.845 78.0229ZM204.182 74.4705C204.66 74.4705 205.015 74.3787 205.247 74.1951C205.48 74.0054 205.596 73.724 205.596 73.3507C205.596 72.9774 205.48 72.702 205.247 72.5245C205.021 72.341 204.666 72.2492 204.182 72.2492H202.538V74.4705H204.182Z" fill="#A2ABB8"/>
        <path fill-rule="evenodd" clip-rule="evenodd" d="M210.436 79.5525H210.052V78.7876H210.436V79.5525ZM213.504 79.5525H212.737V78.7876H213.504V79.5525ZM216.573 79.5525H215.806V78.7876H216.573V79.5525ZM219.642 79.5525H218.875V78.7876H219.642V79.5525ZM222.71 79.5525H221.943V78.7876H222.71V79.5525ZM225.779 79.5525H225.012V78.7876H225.779V79.5525ZM228.848 79.5525H228.081V78.7876H228.848V79.5525ZM231.917 79.5525H231.149V78.7876H231.917V79.5525ZM234.985 79.5525H234.218V78.7876H234.985V79.5525ZM238.054 79.5525H237.287V78.7876H238.054V79.5525ZM241.123 79.5525H240.355V78.7876H241.123V79.5525ZM244.191 79.5525H243.424V78.7876H244.191V79.5525ZM247.26 79.5525H246.493V78.7876H247.26V79.5525ZM250.329 79.5525H249.561V78.7876H250.329V79.5525ZM253.397 79.5525H252.63V78.7876H253.397V79.5525ZM256.466 79.5525H255.699V78.7876H256.466V79.5525ZM259.535 79.5525H258.767V78.7876H259.535V79.5525ZM262.603 79.5525H261.836V78.7876H262.603V79.5525ZM265.672 79.5525H264.905V78.7876H265.672V79.5525ZM268.741 79.5525H267.973V78.7876H268.741V79.5525ZM271.809 79.5525H271.042V78.7876H271.809V79.5525ZM274.878 79.5525H274.111V78.7876H274.878V79.5525ZM277.947 79.5525H277.18V78.7876H277.947V79.5525ZM281.015 79.5525H280.248V78.7876H281.015V79.5525ZM284.084 79.5525H283.317V78.7876H284.084V79.5525ZM287.153 79.5525H286.386V78.7876H287.153V79.5525ZM290.221 79.5525H289.454V78.7876H290.221V79.5525ZM293.29 79.5525H292.523V78.7876H293.29V79.5525ZM296.359 79.5525H295.592V78.7876H296.359V79.5525ZM299.427 79.5525H298.66V78.7876H299.427V79.5525ZM302.496 79.5525H301.729V78.7876H302.496V79.5525ZM305.565 79.5525H304.798V78.7876H305.565V79.5525ZM308.633 79.5525H307.866V78.7876H308.633V79.5525ZM311.702 79.5525H310.935V78.7876H311.702V79.5525ZM314.771 79.5525H314.004V78.7876H314.771V79.5525ZM317.839 79.5525H317.072V78.7876H317.839V79.5525ZM320.908 79.5525H320.141V78.7876H320.908V79.5525ZM323.977 79.5525H323.21V78.7876H323.977V79.5525ZM327.046 79.5525H326.278V78.7876H327.046V79.5525ZM330.114 79.5525H329.347V78.7876H330.114V79.5525ZM333.183 79.5525H332.416V78.7876H333.183V79.5525ZM336.252 79.5525H335.484V78.7876H336.252V79.5525ZM339.32 79.5525H338.553V78.7876H339.32V79.5525ZM342.389 79.5525H341.622V78.7876H342.389V79.5525ZM345.458 79.5525H344.69V78.7876H345.458V79.5525ZM348.526 79.5525H347.759V78.7876H348.526V79.5525ZM351.595 79.5525H350.828V78.7876H351.595V79.5525ZM354.664 79.5525H353.896V78.7876H354.664V79.5525ZM357.732 79.5525H356.965V78.7876H357.732V79.5525ZM360.417 79.5525H360.034V78.7876H360.417V79.5525Z" fill="#A2ABB8" fill-opacity="0.5"/>
        <path d="M89.3002 165.927C86.0951 169.137 82.2775 171.669 78.0747 173.371C73.8719 175.074 69.3699 175.912 64.8366 175.837C60.3294 175.924 55.8519 175.09 51.6777 173.386C47.5035 171.682 43.7203 169.144 40.5594 165.927C37.3248 162.774 34.7728 158.989 33.0622 154.807C31.3517 150.625 30.5191 146.135 30.6163 141.617C30.6163 131.724 33.9307 123.482 40.5594 116.892C43.7225 113.679 47.5066 111.145 51.6807 109.446C55.8548 107.746 60.3312 106.916 64.8366 107.007C69.3681 106.928 73.8691 107.763 78.0717 109.461C82.2744 111.159 86.093 113.686 89.3002 116.892C96.0815 123.482 99.4721 131.724 99.4721 141.617C99.56 146.155 98.7007 150.661 96.9491 154.847C95.1976 159.033 92.5923 162.806 89.3002 165.927Z" fill="#C8C8C8"/>
        <path d="M65.0435 117.818L51.2696 141.282L65.0435 134.852V117.818Z" fill="#8B8B8B"/>
        <path d="M65.0435 134.852L51.2696 141.282L65.0435 149.635V134.852Z" fill="#393939"/>
        <path d="M65.0434 117.818V134.852L78.8042 141.282L65.0434 117.818Z" fill="#343434"/>
        <path d="M65.0434 134.852V149.635L78.8042 141.282L65.0434 134.852Z" fill="#161616"/>
        <path d="M51.2696 143.959L65.0435 163.888V152.32L51.2696 143.959Z" fill="#8B8B8B"/>
        <path d="M78.8174 143.959L65.0434 152.32V163.888L78.8174 143.959Z" fill="#343434"/>
        <path fill-rule="evenodd" clip-rule="evenodd" d="M422.188 19.0706L410.071 31.1826L409 30.1121L421.117 18L422.188 19.0706Z" fill="#939FAC"/>
        <path fill-rule="evenodd" clip-rule="evenodd" d="M410.071 18L422.188 30.1121L421.117 31.1826L409 19.0706L410.071 18Z" fill="#939FAC"/>
        <path d="M342.508 195.13C341.749 195.13 341.171 194.846 340.773 194.277C340.375 193.707 340.176 192.878 340.176 191.789C340.176 190.7 340.375 189.871 340.773 189.302C341.171 188.732 341.749 188.448 342.508 188.448C343.267 188.448 343.846 188.732 344.244 189.302C344.642 189.864 344.841 190.691 344.841 191.78C344.841 192.875 344.642 193.707 344.244 194.277C343.846 194.846 343.267 195.13 342.508 195.13ZM342.508 194.368C342.98 194.368 343.326 194.16 343.546 193.744C343.773 193.322 343.886 192.667 343.886 191.78C343.886 190.893 343.776 190.244 343.555 189.834C343.335 189.424 342.986 189.219 342.508 189.219C342.037 189.219 341.688 189.427 341.462 189.843C341.241 190.253 341.131 190.899 341.131 191.78C341.131 192.667 341.241 193.322 341.462 193.744C341.688 194.16 342.037 194.368 342.508 194.368Z" fill="#A2ABB8"/>
        <path d="M345.811 193.955H346.912V195.057H345.811V193.955Z" fill="#A2ABB8"/>
        <path d="M350.964 194.277H352.397V195.057H348.577V194.277H350.009V189.65L348.678 190.476V189.604L350.413 188.521H350.964V194.277Z" fill="#A2ABB8"/>
        <path d="M353.513 188.521H357.939V189.228L354.918 195.057H353.899L356.911 189.302H353.513V188.521Z" fill="#A2ABB8"/>
        <path d="M363.721 192.936V193.698H362.757V195.057H361.82V193.698H358.891V192.992L361.994 188.521H362.757V192.936H363.721ZM359.818 192.936H361.82V190.054L359.818 192.936Z" fill="#A2ABB8"/>
        <path d="M369.227 192.936V193.698H368.263V195.057H367.326V193.698H364.397V192.992L367.5 188.521H368.263V192.936H369.227ZM365.324 192.936H367.326V190.054L365.324 192.936Z" fill="#A2ABB8"/>
        <path d="M372.988 194.277H374.421V195.057H370.601V194.277H372.033V189.65L370.702 190.476V189.604L372.437 188.521H372.988V194.277Z" fill="#A2ABB8"/>
        <path d="M380.239 192.936V193.698H379.275V195.057H378.338V193.698H375.409V192.992L378.512 188.521H379.275V192.936H380.239ZM376.336 192.936H378.338V190.054L376.336 192.936Z" fill="#A2ABB8"/>
        <path d="M383.629 195.057V190.431H384.547V195.057H383.629ZM383.546 188.411H384.621V189.384H383.546V188.411Z" fill="#A2ABB8"/>
        <path d="M385.989 195.057V188.521H390.232V189.292H386.926V191.348H390.048V192.119H386.926V194.286H390.232V195.057H385.989Z" fill="#A2ABB8"/>
        <path d="M392.922 195.057V189.311H390.709V188.521H396.09V189.311H393.877V195.057H392.922Z" fill="#A2ABB8"/>
        <path d="M401.566 188.521H402.512V195.057H401.566V192.129H397.902V195.057H396.965V188.521H397.902V191.348H401.566V188.521Z" fill="#A2ABB8"/>
    </g>
    <defs>
        <clipPath id="clip0">
            <path d="M0 0H440V283H0V0Z" fill="white"/>
        </clipPath>
    </defs>
</svg>
