<svg viewBox="0 0 50 50" fill="none" 
    xmlns="http://www.w3.org/2000/svg">
    <path d="M42.5995 42.8142C40.2706 45.1436 37.4976 46.9798 34.4457 48.2135C31.3938 49.4472 28.1253 50.0532 24.8347 49.9953C21.5648 50.0597 18.3161 49.4556 15.287 48.2198C12.258 46.9841 9.51233 45.1426 7.2177 42.8081C4.86906 40.5173 3.01664 37.7665 1.77588 34.7271C0.535124 31.6876 -0.0673629 28.4248 0.00597474 25.1419C0.00597474 17.9587 2.41399 11.9734 7.23001 7.18597C9.52609 4.85202 12.2731 3.01149 15.3031 1.7768C18.3332 0.542105 21.5827 -0.0608238 24.8532 0.00484128C28.1431 -0.0509848 31.4106 0.556527 34.4614 1.79125C37.5121 3.02597 40.2839 4.86267 42.6118 7.19213C47.5344 11.9837 49.9958 17.971 49.9958 25.1542C50.058 28.4514 49.4323 31.7253 48.1586 34.7663C46.885 37.8074 44.9915 40.5485 42.5995 42.8142Z" fill="#4160AB"/>
    <path d="M25.0269 10L22.2688 11.5614L14.7419 15.8541L12 17.4638V32.4396L14.7473 34.0494L22.3118 38.3903L25.0645 40L27.8011 38.3903L35.2419 34.0977L38 32.4879V17.5121L35.2527 15.9023L27.7796 11.5614L25.0269 10ZM17.4731 29.2685V20.6135L25 16.3209L32.5269 20.6832V29.3382L25 33.6308L17.4731 29.2685Z" fill="white"/>
</svg>
