<svg width="120" height="120" viewBox="0 0 120 120" fill="none" 
    xmlns="http://www.w3.org/2000/svg">
    <g clip-path="url(#no-kyc)">
        <rect class="icon-step-secondary" x="60" y="120" width="60" height="120" transform="rotate(-180 60 120)" fill="#BFE9FF"/>
        <path d="M28 72.2623C35.2939 79.645 50.9483 82 59.9999 82V16C48.5757 16 38.9767 30.9282 41.5455 40.4609C42.5008 44.0061 44.6098 46.7485 46.3047 48.9525C46.4809 49.1816 46.6526 49.4049 46.8181 49.6226C36.8011 53.0294 31.5752 63.1201 28 72.2623Z" fill="#276BFB"/>
        <path d="M92 72.2623C84.7061 79.645 69.0515 82 59.9999 82V16C71.4241 16 81.0233 30.9282 78.4545 40.4609C77.4992 44.0061 75.3902 46.7485 73.6953 48.9525C73.5191 49.1816 73.3474 49.4049 73.1819 49.6226C83.1992 53.0295 88.4244 63.1201 92 72.2623Z" fill="#276BFB"/>
        <ellipse cx="60" cy="35" rx="10" ry="13" fill="white"/>
        <rect x="27" y="61" width="66" height="37" fill="#13D8C4"/>
        <path fill-rule="evenodd" clip-rule="evenodd" d="M71 73.5418L56.8707 87L48 78.5506L51.7184 75.0088L56.8707 79.9164L67.2816 70L71 73.5418Z" fill="white"/>
        <rect x="27" y="100" width="66" height="4" fill="#51AAFF"/>
        <path d="M72.4091 38L73 33.8C71.8182 33.2 67.5636 32 60 32C50.5455 32 47 33.8 47 34.4C47 34.88 47.3939 37 47.5909 38C49.1667 37.6 53.8545 36.8 60 36.8C66.1455 36.8 70.8333 37.6 72.4091 38Z" fill="#276BFB"/>
        <path fill-rule="evenodd" clip-rule="evenodd" d="M78.8999 38.7609C80.0864 29.2775 70.8635 16 60.0016 16V34.0949C70.0723 34.0949 78.3065 36.1579 78.8999 38.7609ZM60.0014 34.0949V16C49.1398 16 39.9171 29.2768 41.103 38.7602C41.6979 36.1575 49.9316 34.0949 60.0014 34.0949C60.0014 34.0949 60.0014 34.0949 60.0014 34.0949Z" fill="#51AAFF"/>
    </g>
    <defs>
        <clipPath id="no-kyc">
            <path d="M0 0H120V120H0V0Z" fill="white"/>
        </clipPath>
    </defs>
</svg>
