<svg viewBox="0 0 50 50" fill="none" 
    xmlns="http://www.w3.org/2000/svg">
    <path d="M42.595 42.8391C40.2613 45.1658 37.4838 46.9985 34.4278 48.228C31.3719 49.4575 28.1 50.0586 24.8071 49.9955C21.5349 50.0549 18.2849 49.4454 15.2561 48.2044C12.2272 46.9633 9.48311 45.1167 7.19156 42.7775C2.3849 37.9819 -0.012267 32.0912 4.7201e-05 25.1054C4.7201e-05 17.9264 2.41774 11.9453 7.25313 7.16202C9.55393 4.83074 12.3055 2.99372 15.3396 1.76325C18.3737 0.532782 21.6266 -0.0652735 24.8994 0.00564389C28.1916 -0.0458967 31.4605 0.566625 34.5112 1.8067C37.562 3.04678 40.3321 4.88903 42.6565 7.22366C47.5822 12.0192 50.0286 18.0086 49.9958 25.1917C50.0578 28.487 49.4316 31.759 48.1571 34.7979C46.8827 37.8368 44.9882 40.5758 42.595 42.8391Z" class="path-gray" fill="#5F2652"/>
    <path fill-rule="evenodd" clip-rule="evenodd" d="M20.4617 25.4844L20.4167 25.7492L20.402 25.8541C20.2131 27.3121 19.6439 27.7382 18.2305 28.3594C18.2273 28.3606 18.2241 28.36 18.2215 28.3613L13.0967 30.6093L24.6678 37.1699V33.4146C24.6678 32.0372 24.5843 31.7897 23.3534 31.1141C23.1118 30.9817 22.867 30.8435 22.5991 30.6919L22.4321 30.5972C21.6657 30.1903 21.0412 29.5896 20.5806 28.8763C20.5639 28.8507 20.4405 28.6658 20.4245 28.6396C20.5203 28.5875 20.609 28.5234 20.6885 28.4489C20.7725 28.3745 20.844 28.2873 20.9005 28.1905C21.3033 28.9697 21.9156 29.6286 22.6994 30.0579L22.8895 30.1654C23.1536 30.3144 23.4228 30.4609 23.6643 30.5927C25.1741 31.4212 25.2942 31.9298 25.2942 33.4153V37.1744L36.9727 30.4942L31.9751 28.3235L31.65 28.1847C31.5228 28.1233 31.1232 27.9608 30.8148 27.9518C30.5 27.9327 30.022 27.9525 29.7644 28.2781C29.5263 28.5778 29.2882 28.8774 29.05 29.177C28.4988 29.8871 27.7779 30.4673 26.9171 30.8153C26.9146 30.817 26.912 30.8185 26.9093 30.8198C26.6826 30.9119 26.4384 30.965 26.1962 31.0213C26.1461 30.926 26.0677 30.8153 25.9958 30.7258C25.9437 30.6612 25.866 30.5812 25.7934 30.5063C26.1596 30.4353 26.5804 30.3195 26.9081 30.1634L26.9093 30.1628C27.5634 29.8538 28.1287 29.4207 28.563 28.8641C28.5843 28.8401 28.6036 28.8144 28.6208 28.7874C28.6652 28.7298 28.7095 28.6735 28.75 28.6127C28.8656 28.4579 29.0416 28.2269 29.2877 27.9186C29.4528 27.71 29.6841 27.5725 29.9301 27.4836L29.9295 27.4848C30.1948 27.3902 30.5013 27.3479 30.836 27.3505C31.3435 27.3671 31.9063 27.6358 31.9179 27.6409L32.0933 27.7164L32.1068 27.7215L32.5616 27.9167C32.5648 27.9173 32.5648 27.9205 32.5674 27.9218L36.9348 29.8193L25.3045 11.3819V19.1867C25.3045 20.5353 25.4041 20.8302 26.6459 21.5116C26.7443 21.5644 26.8444 21.6141 26.946 21.6606L27.1066 21.7393C27.147 21.7572 27.1856 21.7783 27.2248 21.7975L27.2267 21.7982H27.2274C28.8566 22.5754 29.9944 24.1518 30.0933 25.991C29.9867 26.0198 29.8248 26.0652 29.7342 26.0928C29.668 26.1119 29.5678 26.1618 29.4836 26.2066C29.4676 24.5068 28.4345 23.0405 26.9421 22.333L26.9415 22.3323C26.937 22.3304 26.9338 22.3311 26.9299 22.3291C26.8432 22.2851 26.7558 22.2424 26.6678 22.2012C26.3512 22.0546 26.0473 21.8822 25.7594 21.6856C25.7137 21.6561 25.6758 21.6248 25.6341 21.5954C25.5429 21.5295 25.4574 21.4623 25.3829 21.397C25.3392 21.3593 25.2994 21.3241 25.2717 21.2896C24.7745 20.7886 24.6768 20.2244 24.6768 19.1867V11.3787L13.0106 29.9862L18.1598 27.7279H18.1624C19.3047 27.2264 19.6516 26.8067 19.8045 25.6002C19.8071 25.5842 19.8116 25.5426 19.8154 25.5272C20.1097 23.5984 21.5603 22.0509 23.4658 21.5096L23.7228 21.4361C23.7549 21.5346 23.7975 21.6294 23.85 21.7188C23.9079 21.8147 23.9762 21.9039 24.0537 21.985L23.814 22.0381C22.1006 22.4539 20.7752 23.7922 20.4617 25.4844ZM12.0456 30.3592L24.7192 10.1452C24.7479 10.1004 24.7875 10.0636 24.8343 10.0382C24.8812 10.0127 24.9338 9.99962 24.9871 10C25.0405 9.99962 25.0931 10.0127 25.1399 10.0382C25.1868 10.0636 25.2264 10.1004 25.255 10.1452L37.9563 30.278C37.9771 30.312 37.9909 30.3499 37.9968 30.3894C38.0026 30.4288 38.0005 30.4691 37.9904 30.5077C37.9803 30.5463 37.9626 30.5825 37.9382 30.6142C37.9138 30.6458 37.8832 30.6722 37.8483 30.6919L25.1471 37.9581C25.0985 37.9856 25.0436 38 24.9878 38C24.9319 38 24.877 37.9856 24.8284 37.9581L12.1542 30.7738C12.119 30.7538 12.0881 30.7272 12.0633 30.6954C12.0385 30.6635 12.0203 30.6271 12.0097 30.5882C11.9994 30.5497 11.9973 30.5094 12.0035 30.47C12.0097 30.4305 12.024 30.3928 12.0456 30.3592Z" fill="white" stroke="white"/>
</svg>
