<svg width="30" height="30" viewBox="0 0 30 30" fill="none" xmlns="http://www.w3.org/2000/svg">
<path fill-rule="evenodd" clip-rule="evenodd" d="M9 4.5C9 6.98528 6.98528 9 4.5 9C2.01472 9 0 6.98528 0 4.5C0 2.01472 2.01472 0 4.5 0C6.98528 0 9 2.01472 9 4.5ZM25.5 7.6C27.2121 7.6 28.6 6.21208 28.6 4.5C28.6 2.78792 27.2121 1.4 25.5 1.4C23.7879 1.4 22.4 2.78792 22.4 4.5C22.4 6.21208 23.7879 7.6 25.5 7.6ZM25.5 9C27.9853 9 30 6.98528 30 4.5C30 2.01472 27.9853 0 25.5 0C23.0147 0 21 2.01472 21 4.5C21 6.98528 23.0147 9 25.5 9ZM15 9C17.4853 9 19.5 6.98528 19.5 4.5C19.5 2.01472 17.4853 0 15 0C12.5147 0 10.5 2.01472 10.5 4.5C10.5 6.98528 12.5147 9 15 9ZM4.5 28.6C6.21208 28.6 7.6 27.2121 7.6 25.5C7.6 23.7879 6.21208 22.4 4.5 22.4C2.78792 22.4 1.4 23.7879 1.4 25.5C1.4 27.2121 2.78792 28.6 4.5 28.6ZM4.5 30C6.98528 30 9 27.9853 9 25.5C9 23.0147 6.98528 21 4.5 21C2.01472 21 0 23.0147 0 25.5C0 27.9853 2.01472 30 4.5 30ZM25.5 30C27.9853 30 30 27.9853 30 25.5C30 23.0147 27.9853 21 25.5 21C23.0147 21 21 23.0147 21 25.5C21 27.9853 23.0147 30 25.5 30ZM19.5 25.5C19.5 27.9853 17.4853 30 15 30C12.5147 30 10.5 27.9853 10.5 25.5C10.5 23.0147 12.5147 21 15 21C17.4853 21 19.5 23.0147 19.5 25.5ZM4.5 19.5C6.98528 19.5 9 17.4853 9 15C9 12.5147 6.98528 10.5 4.5 10.5C2.01472 10.5 0 12.5147 0 15C0 17.4853 2.01472 19.5 4.5 19.5ZM30 15C30 17.4853 27.9853 19.5 25.5 19.5C23.0147 19.5 21 17.4853 21 15C21 12.5147 23.0147 10.5 25.5 10.5C27.9853 10.5 30 12.5147 30 15ZM18.1 15C18.1 16.7121 16.7121 18.1 15 18.1C13.2879 18.1 11.9 16.7121 11.9 15C11.9 13.2879 13.2879 11.9 15 11.9C16.7121 11.9 18.1 13.2879 18.1 15ZM19.5 15C19.5 17.4853 17.4853 19.5 15 19.5C12.5147 19.5 10.5 17.4853 10.5 15C10.5 12.5147 12.5147 10.5 15 10.5C17.4853 10.5 19.5 12.5147 19.5 15Z" fill="#2AC5F4"/>
</svg>
