<svg width="120" height="120" viewBox="0 0 120 120" fill="none" 
    xmlns="http://www.w3.org/2000/svg">
    <g>
        <path d="M-1.04907e-06 53C-4.69686e-07 49.6863 2.68629 47 6 47L79 47L79 103L5.99999 103C2.68628 103 -9.32166e-06 100.314 -8.74227e-06 97L-1.04907e-06 53Z" class="icon-step-secondary" />
        <path fill-rule="evenodd" clip-rule="evenodd" d="M23.2009 85.4018C28.8347 85.4018 33.4018 80.8347 33.4018 75.2009C33.4018 69.5671 28.8347 65 23.2009 65C17.5671 65 13 69.5671 13 75.2009C13 80.8347 17.5671 85.4018 23.2009 85.4018ZM23.2009 89.4018C31.0438 89.4018 37.4018 83.0438 37.4018 75.2009C37.4018 67.358 31.0438 61 23.2009 61C15.358 61 9 67.358 9 75.2009C9 83.0438 15.358 89.4018 23.2009 89.4018Z" fill="white"/>
        <circle cx="23.2011" cy="75.2009" r="5.40987" fill="#1CD8C4"/>
        <rect x="59" y="8" width="61" height="57" fill="#176EFC"/>
        <rect x="59" y="47" width="20" height="18" fill="#51AAFF"/>
        <path d="M86.5631 50.284V45.838H76.1131L83.6751 37.06C85.5371 34.894 86.5631 33.488 86.5631 30.866C86.5631 26.002 83.1431 23 78.3551 23C73.7191 23 70.1091 25.964 70.1091 30.904H75.0491C75.0491 28.282 76.7211 27.446 78.3551 27.446C80.4451 27.446 81.6231 28.814 81.6231 30.828C81.6231 32.082 81.2051 32.918 80.2171 34.096L70.1091 45.838V50.284H86.5631Z" fill="white"/>
        <path d="M107.5 42.418C107.5 39.112 105.562 37.326 104.08 36.338C105.448 35.388 107.12 33.602 107.12 30.714C107.12 25.926 103.358 23 98.8359 23C94.3139 23 90.5139 25.926 90.5139 30.714C90.5139 33.602 92.1859 35.388 93.5539 36.338C92.0719 37.326 90.1719 39.112 90.1719 42.418C90.1719 47.662 94.0479 50.512 98.8359 50.512C103.624 50.512 107.5 47.662 107.5 42.418ZM102.56 42.342C102.56 44.432 100.926 46.066 98.8359 46.066C96.7459 46.066 95.1119 44.432 95.1119 42.342C95.1119 40.252 96.7459 38.58 98.8359 38.58C100.926 38.58 102.56 40.252 102.56 42.342ZM102.18 30.866C102.18 32.842 100.774 34.286 98.8359 34.286C96.8979 34.286 95.4539 32.842 95.4539 30.866C95.4539 28.928 96.8979 27.446 98.8359 27.446C100.774 27.446 102.18 28.928 102.18 30.866Z" fill="white"/>
        <rect x="46" y="63" width="7" height="4" fill="white"/>
        <rect x="46" y="73" width="22" height="4" fill="white"/>
        <rect x="46" y="83" width="15" height="4" fill="white"/>
    </g>
</svg>
