<svg width="120" height="120" viewBox="0 0 120 120" fill="none" 
    xmlns="http://www.w3.org/2000/svg">
    <rect x="100" y="120" width="80" height="120" transform="rotate(-180 100 120)" fill="#BFE9FF" class="icon-step-secondary" />
    <path d="M20 46C12.268 46 6 52.268 6 60C6 67.732 12.268 74 20 74L20 46Z" fill="#51AAFF"/>
    <path d="M20 74C27.732 74 34 67.732 34 60C34 52.268 27.732 46 20 46L20 74Z" fill="#176EFC"/>
    <path fill-rule="evenodd" clip-rule="evenodd" d="M100 40C96.0444 40 92.1776 41.173 88.8886 43.3706C85.5996 45.5682 83.0362 48.6918 81.5224 52.3463C80.0087 56.0009 79.6126 60.0222 80.3843 63.9018C81.156 67.7814 83.0608 71.3451 85.8579 74.1421C88.6549 76.9392 92.2186 78.844 96.0982 79.6157C99.9778 80.3874 103.999 79.9913 107.654 78.4776C111.308 76.9638 114.432 74.4004 116.629 71.1114C118.827 67.8224 120 63.9556 120 60C120 54.6957 117.893 49.6086 114.142 45.8579C110.391 42.1071 105.304 40 100 40ZM116 60C116 51.1634 108.837 44 100 44C91.1634 44 84 51.1634 84 60C84 68.8366 91.1634 76 100 76C108.837 76 116 68.8366 116 60Z" fill="url(#step3)"/>
    <path d="M20 52L15 60L20 68L25 60L20 52Z" fill="white"/>
    <path d="M18.0775 40C15.7374 40.2176 13.514 40.8374 11.4772 41.7897L12.9111 44.2338C14.5177 43.5128 16.255 43.0307 18.0775 42.833V40Z" fill="#13D8C4"/>
    <path d="M2.83301 61.8356C3.7692 70.4647 11.0785 77.1814 19.9565 77.1814C29.4696 77.1814 37.1814 69.4696 37.1814 59.9565C37.1814 51.0785 30.4647 43.7692 21.8356 42.833V40C32.0242 40.9473 40 49.5205 40 59.9565C40 71.0262 31.0262 80 19.9565 80C9.5205 80 0.947304 72.0242 0 61.8356H2.83301Z" fill="#13D8C4"/>
    <path d="M4.23381 52.9111C3.51276 54.5177 3.03074 56.2549 2.83301 58.0775H0C0.217573 55.7374 0.837423 53.514 1.78972 51.4772L4.23381 52.9111Z" fill="#13D8C4"/>
    <path d="M9.67124 46.1383C8.32958 47.1385 7.13853 48.3296 6.13827 49.6712L3.69425 48.2374C4.95522 46.4907 6.49068 44.9552 8.23742 43.6943L9.67124 46.1383Z" fill="#13D8C4"/>
    <path d="M100 69C104.971 69 109 64.9706 109 60C109 55.0294 104.971 51 100 51V69Z" fill="#51AAFF"/>
    <path d="M100 51C95.0294 51 91 55.0294 91 60C91 64.9706 95.0294 69 100 69L100 51Z" fill="#176EFC"/>
    <circle cx="60" cy="60" r="33" fill="#13D8C4"/>
    <circle cx="47" cy="60" r="3" fill="white"/>
    <rect x="56" y="58" width="21" height="4" fill="white"/>
    <rect x="50" y="48" width="21" height="4" fill="white"/>
    <rect x="50" y="68" width="21" height="4" fill="white"/>
    <defs>
        <linearGradient id="step3" x1="117.4" y1="77.4" x2="85.4" y2="45.4" gradientUnits="userSpaceOnUse">
            <stop offset="0.159375" stop-color="#003CDA"/>
            <stop offset="1" stop-color="#33DFCC"/>
        </linearGradient>
    </defs>
</svg>
