<svg width="56" height="56" viewBox="0 0 56 56" fill="none" 
    xmlns="http://www.w3.org/2000/svg">
    <circle cx="28" cy="28" r="28" fill="#276BFB"/>
    <path d="M11.7145 27.4477L18.4224 30.1025L21.024 38.9517C21.189 39.5176 21.8492 39.7234 22.2763 39.353L26.0137 36.122C26.402 35.7825 26.965 35.7619 27.3727 36.0809L34.1194 41.2772C34.5854 41.6373 35.2455 41.3698 35.362 40.773L40.3031 15.5733C40.4293 14.9251 39.8274 14.3797 39.245 14.6164L11.7048 25.8837C11.0253 26.1615 11.035 27.1802 11.7145 27.4477ZM20.6066 28.6928L33.7214 20.1317C33.9544 19.9774 34.1971 20.3169 33.9932 20.5124L23.1694 31.1829C22.7908 31.5534 22.5481 32.0576 22.4704 32.6029L22.1015 35.4943C22.053 35.8854 21.5385 35.9162 21.4414 35.5458L20.0241 30.2671C19.8688 29.6703 20.1018 29.0221 20.6066 28.6928Z" fill="white"/>
</svg>
