<svg width="56" height="56" viewBox="0 0 56 56" fill="none" 
    xmlns="http://www.w3.org/2000/svg">
    <circle cx="28" cy="28" r="28" fill="#276BFB"/>
    <path fill-rule="evenodd" clip-rule="evenodd" d="M43.68 19.7169C42.6086 20.2116 41.4572 20.546 40.2487 20.6964C41.482 19.9265 42.4295 18.7075 42.8755 17.2549C41.721 17.9678 40.4425 18.4854 39.0816 18.7643C37.9919 17.5554 36.4392 16.8 34.7209 16.8C31.4215 16.8 28.7465 19.5851 28.7465 23.0203C28.7465 23.5078 28.7994 23.9826 28.9012 24.438C23.9361 24.1785 19.5339 21.7021 16.5873 17.9385C16.0729 18.8573 15.7783 19.9258 15.7783 21.0659C15.7783 23.224 16.8331 25.1279 18.4362 26.2434C17.4568 26.211 16.5357 25.9312 15.7301 25.4654C15.7296 25.4913 15.7296 25.5173 15.7296 25.5436C15.7296 28.5574 17.789 31.0713 20.522 31.6431C20.0207 31.7851 19.4929 31.8612 18.948 31.8612C18.563 31.8612 18.1888 31.8222 17.8239 31.7497C18.5842 34.2208 20.7906 36.0193 23.4049 36.0693C21.3602 37.7377 18.7843 38.7323 15.985 38.7323C15.5028 38.7323 15.0274 38.7027 14.56 38.6453C17.2039 40.4102 20.3442 41.4401 23.7181 41.4401C34.707 41.4401 40.7162 31.9616 40.7162 23.7416C40.7162 23.4719 40.7104 23.2036 40.6989 22.9368C41.8662 22.0598 42.8791 20.9642 43.68 19.7169Z" fill="white"/>
</svg>
