<svg viewBox="0 0 50 50" fill="none" 
    xmlns="http://www.w3.org/2000/svg">
    <g>
        <path d="M50.1197 25.0827C50.1439 11.231 38.9345 -0.0176352 25.0828 -0.041811C11.2311 -0.0659868 -0.0174993 11.1434 -0.0416751 24.9951C-0.0658509 38.8468 11.1436 50.0954 24.9952 50.1196C38.8469 50.1438 50.0955 38.9343 50.1197 25.0827Z" fill="#3574B9"/>
        <path d="M20.8157 40.1783C20.8157 40.7266 20.4362 40.9186 19.8668 40.9186C16.4187 39.8443 13.409 37.718 11.275 34.8486C9.14102 31.9792 7.9938 28.5161 8.00003 24.9625C8.00625 21.4088 9.16559 17.9497 11.3096 15.0875C13.4537 12.2253 16.4708 10.1092 19.9226 9.04653C20.4808 8.86557 20.8716 9.23299 20.866 9.79234V11.1139C20.8702 11.3042 20.8202 11.4918 20.7215 11.6556C20.6229 11.8194 20.4796 11.9528 20.3078 12.0407C17.5926 13.0008 15.2444 14.7592 13.5825 17.0768C11.9206 19.3944 11.0258 22.1586 11.0197 24.9935C11.0136 27.8284 11.8965 30.5963 13.5484 32.9207C15.2003 35.2452 17.5409 37.0134 20.2519 37.9847C20.4242 38.0722 20.5678 38.2055 20.6666 38.3693C20.7653 38.5332 20.815 38.7211 20.8102 38.9115L20.8157 40.1783Z" fill="white"/>
        <path d="M26.4873 35.5717C26.4808 35.7687 26.4002 35.9563 26.2609 36.0981C26.1217 36.24 25.9338 36.326 25.7337 36.3395H24.2209C24.0245 36.3265 23.8396 36.2436 23.7009 36.1063C23.5621 35.969 23.4791 35.7868 23.4673 35.5937V33.4001C20.4418 33.0218 18.9346 31.3547 18.3708 28.9418C18.3708 28.5744 18.5662 28.2015 18.929 28.2015H20.6316C21.0056 28.2015 21.1898 28.3879 21.3852 28.7499C21.7592 30.0495 22.5016 31.1627 24.9689 31.1682C26.8557 31.1682 28.1787 30.2469 28.1843 28.7663C28.1898 27.2857 27.4307 26.7263 24.7903 26.3479C20.8214 25.7996 18.9346 24.6699 18.9402 21.5222C18.9402 19.1148 20.8381 17.2612 23.4841 16.8993V14.629C23.496 14.4365 23.5792 14.2549 23.718 14.1185C23.8569 13.9821 24.0417 13.9004 24.2377 13.8887H25.7504C25.9464 13.9004 26.1312 13.9821 26.2701 14.1185C26.4089 14.2549 26.4921 14.4365 26.504 14.629V16.8554C28.7704 17.2283 30.2776 18.528 30.6516 20.568C30.6516 20.9354 30.4618 21.3083 30.0934 21.3083H28.5918C28.2122 21.3083 28.0335 21.1218 27.8382 20.7599C27.4642 19.4602 26.5208 18.9009 24.8182 18.9009C22.9315 18.9009 21.9825 19.8222 21.9825 21.0944C21.9825 22.3667 22.5407 23.1344 25.3764 23.5128C29.3398 24.0612 31.2265 25.1909 31.221 28.3386C31.221 30.746 29.3286 32.7805 26.4929 33.3343L26.4873 35.5717Z" fill="white"/>
        <path d="M29.1219 40.2111C29.1219 40.765 29.5071 41.1379 30.0653 40.9515C33.5168 39.8872 36.5339 37.7713 38.6796 34.9101C40.8253 32.049 41.9882 28.5912 42 25.0374C42.0111 17.6287 36.9258 11.3168 30.1323 9.07943C29.5629 9.07943 29.1834 9.27137 29.1834 9.81975V11.1194C29.1791 11.3097 29.2292 11.4973 29.3278 11.6611C29.4265 11.8248 29.5698 11.9582 29.7416 12.0462C32.4524 13.0181 34.7926 14.7868 36.444 17.1116C38.0954 19.4364 38.9777 22.2045 38.971 25.0393C38.9643 27.8742 38.0689 30.6382 36.4065 32.9555C34.7441 35.2727 32.3955 37.0307 29.6802 37.9902C29.5084 38.0767 29.3649 38.209 29.2662 38.372C29.1675 38.5349 29.1175 38.7219 29.1219 38.9115V40.2111Z" fill="white"/>
    </g>
</svg>
