<svg viewBox="0 0 50 50" fill="none" 
    xmlns="http://www.w3.org/2000/svg">
    <g>
        <path d="M49.2562 31.0581C48.0576 35.857 45.4623 40.1925 41.7989 43.5159C38.1354 46.8394 33.5684 49.0014 28.6757 49.7285C23.783 50.4556 18.7846 49.715 14.313 47.6005C9.84134 45.486 6.09746 42.0926 3.55509 37.8496C1.01272 33.6067 -0.213862 28.705 0.0305462 23.7648C0.274955 18.8245 1.97937 14.0678 4.92812 10.0965C7.87687 6.12525 11.9374 3.11792 16.5959 1.45507C21.2544 -0.207775 26.3015 -0.451392 31.0985 0.755048C37.5211 2.37199 43.04 6.47068 46.4441 12.1518C49.8482 17.8328 50.8595 24.6323 49.2562 31.0581Z" fill="#884294"/>
        <path fill-rule="evenodd" clip-rule="evenodd" d="M29.5216 24.216C30.584 23.6409 31.2487 22.6283 31.0934 20.9412C30.8844 18.6357 29.0106 17.8626 26.6453 17.6424L26.6449 14.4444H24.8123L24.8117 17.5583C24.3296 17.5583 23.838 17.5684 23.3487 17.5788L23.3483 14.4449L21.5173 14.4447L21.517 17.6418C21.1202 17.6505 20.7305 17.6587 20.35 17.6587V17.6492L17.8222 17.6481L17.8225 19.7268C17.8225 19.7268 19.1759 19.6998 19.1536 19.726C19.8956 19.7266 20.1379 20.1844 20.2076 20.5795L20.2081 29.3401C20.1754 29.5881 20.038 29.9844 19.5191 29.9851C19.5427 30.0072 18.186 29.9849 18.186 29.9849L17.8225 32.3093H20.207C20.4981 32.3097 20.7858 32.3129 21.07 32.3162C21.2193 32.3179 21.3688 32.3196 21.5162 32.3208L21.5178 35.555L23.3483 35.5556L23.3478 32.3553C23.8514 32.3662 24.3375 32.3709 24.8124 32.3703L24.8118 35.5556H26.6444L26.6455 32.3268C29.7259 32.1388 31.8825 31.3144 32.1506 28.2408C32.3667 25.7664 31.2706 24.6619 29.5216 24.216ZM23.3925 19.8671C23.4971 19.8671 23.6244 19.8635 23.7687 19.8595C25.0507 19.8234 27.6767 19.7496 27.6772 21.8113C27.6767 23.8273 24.946 23.7794 23.694 23.7574C23.5802 23.7554 23.4787 23.7536 23.3925 23.7536V19.8671ZM23.3917 30.0009L23.3925 25.7157C23.5167 25.7156 23.6676 25.7118 23.8384 25.7075C25.3748 25.6684 28.5294 25.5883 28.5299 27.8573C28.5303 30.0759 25.2501 30.027 23.7493 30.0046C23.6145 30.0026 23.4941 30.0008 23.3917 30.0009Z" fill="white"/>
        <path d="M25 11.6026C21.2067 11.6026 17.7817 13.179 15.3442 15.7125L14.2402 14.6515C16.9563 11.8282 20.773 10.0714 25 10.0714C29.2294 10.0714 33.048 11.8302 35.7643 14.6563L34.6656 15.7227C32.2275 13.1833 28.7984 11.6026 25 11.6026Z" fill="white"/>
        <path d="M13.2352 15.8092L14.3456 16.8763C12.6247 19.1299 11.6026 21.9456 11.6026 25C11.6026 28.6405 13.0546 31.9419 15.4111 34.3566L14.3106 35.4211C11.6875 32.7309 10.0714 29.0542 10.0714 25C10.0714 21.5335 11.2529 18.343 13.2352 15.8092Z" fill="white"/>
        <path d="M16.5433 35.3917L15.4358 36.463C18.0262 38.6266 21.361 39.9286 25 39.9286C28.6499 39.9286 31.9938 38.6188 34.5874 36.4435L33.4802 35.3724C31.1705 37.2631 28.2177 38.3974 25 38.3974C21.7932 38.3974 18.8495 37.2708 16.5433 35.3917Z" fill="white"/>
        <path d="M35.7104 35.3995L34.6099 34.3349C36.954 31.9222 38.3974 28.6297 38.3974 25C38.3974 21.9509 37.3788 19.1396 35.6633 16.888L36.7692 15.8147C38.7488 18.3477 39.9286 21.5361 39.9286 25C39.9286 29.0434 38.3211 32.7113 35.7104 35.3995Z" fill="white"/>
        <path fill-rule="evenodd" clip-rule="evenodd" d="M44 25C44 35.4934 35.4934 44 25 44C14.5066 44 6 35.4934 6 25C6 14.5066 14.5066 6 25 6C35.4934 6 44 14.5066 44 25ZM25 42.6429C34.7439 42.6429 42.6429 34.7439 42.6429 25C42.6429 15.2561 34.7439 7.35714 25 7.35714C15.2561 7.35714 7.35714 15.2561 7.35714 25C7.35714 34.7439 15.2561 42.6429 25 42.6429Z" fill="white"/>
    </g>
</svg>
