<svg width="32" height="30" viewBox="0 0 32 30" fill="none" xmlns="http://www.w3.org/2000/svg">
<path d="M31.8106 29.6579L31.8091 29.5649C31.7874 29.5264 31.7438 29.4771 31.6709 29.4143C24.751 23.7479 25.621 11.8949 27.5862 0.893304C27.6651 0.450375 27.7185 0.154018 27.3675 0.11309C25.1318 -0.149196 17.6828 1.07095 15.5446 1.6568C14.9884 1.80916 14.9383 1.97073 14.9289 2.32388C14.3433 24.3467 27.8262 28.9581 31.49 29.6757C31.5732 29.692 31.756 29.7128 31.8108 29.6579H31.8106Z" fill="#5B88FF"/>
<path d="M12.3445 8.50695C9.5997 9.04374 7.05912 10.0918 4.86072 11.033C4.66744 11.0887 4.35874 11.4187 4.43874 11.829C5.30616 16.2782 9.53528 28.824 25.7021 29.8012C26.0739 29.8183 26.4494 29.7497 26.1565 29.5665C23.9762 27.884 16.2229 26.1532 13.0523 9.13888C13.0199 8.96531 13.0241 8.30317 12.3445 8.50674V8.50695Z" fill="#5B88FF"/>
<path d="M4.58727 18.9516C3.62407 19.534 1.14065 21.1699 0.249774 22.0127C0.0733476 22.1798 0.107481 22.2977 0.185134 22.5823C0.904494 25.2163 5.14833 29.8337 15.6908 29.4756C16.189 29.4585 16.1911 29.3055 15.9313 29.1122C15.7619 28.9864 12.4296 27.9122 9.38321 25.0971C7.85895 23.6888 6.30844 21.5492 5.26823 19.5154C5.01009 18.9604 4.87953 18.775 4.58727 18.9518V18.9516Z" fill="#5B88FF"/>
</svg>
