<svg width="22" height="32" viewBox="0 0 22 32" fill="none" xmlns="http://www.w3.org/2000/svg">
<path d="M0 18.5434L0.826888 18.2004L11.0041 14L22 18.5434L17.8714 26.6433L7.7622 28L0.173592 20.2142L0 18.5434Z" fill="#133444"/>
<path d="M19.5607 13.675C17.8081 11.7097 15.3241 10.4308 12.6034 10.093L12.4302 10.072C11.5814 9.97601 10.7232 9.97601 9.87434 10.072L9.69892 10.092C6.97786 10.4287 4.49349 11.7079 2.74159 13.6739L2.29997 14.3556L1.56619 15.4934L1.02944 16.3247C1.02324 16.3484 1.01332 16.3711 1 16.392V16.4058L2.18333 17.0621L9.71016 21.2025L11.163 22V12.1042L9.71016 12.7131V11.2371L11.163 10.6282L12.6148 11.2371L20 14.3651L19.5607 13.675Z" fill="#C42370"/>
<path d="M22 20.6369C21.9895 22.3509 21.5977 24.0417 20.8523 25.5888C20.107 27.136 19.0263 28.5015 17.6873 29.5884C16.6563 30.4273 15.4794 31.0736 14.2146 31.4953C13.1818 31.8308 12.1017 32.0012 11.0148 32C4.93271 32 0 26.6474 0 20.6369C0.00337701 19.7481 0.113773 18.8629 0.328845 18L10.9966 24.2481L21.6654 18C21.8896 18.8613 22.002 19.7475 22 20.6369Z" fill="#1C4D6B"/>
<path d="M10.1208 10.0612L11 10.4982L10 11V10L10.1208 10.0612Z" fill="black"/>
<path d="M10 12.6216L11 12V22L10 21.1943V12.6216Z" fill="black"/>
<path d="M11 12V22L21 16.3481L11 12Z" fill="#1D4259"/>
<path d="M11 0V11.6164L21 16L11 0Z" fill="#4B6B9A"/>
<path d="M11 11.8714V22L9.5699 21.1836L1 16.2768H1.00669C1.00669 16.2563 1.02898 16.2282 1.03567 16.2077L2.28748 14.1942L9.57092 11V12.5098L11 11.8714Z" fill="#343535"/>
<path d="M11 12V22L9.57187 21.1942L1.00111 16.3555L1 16.3428L1.01447 16.3289L9.57187 12.6173L11 12Z" fill="#3E5578"/>
<path d="M11 0V11.6164L1 16L11 0Z" fill="#6DB2D8"/>
<path d="M0.328947 18L11 24.1652C10.855 25.1013 10.598 26.0175 10.2339 26.8949C9.37571 28.9189 7.65813 31.0506 4.31511 29.4246C2.97537 28.3529 1.8941 27.0059 1.14827 25.4796C0.402428 23.9533 0.0103643 22.2853 0 20.5941C0.00619136 19.7199 0.116579 18.8494 0.328947 18Z" fill="#6DB2D8"/>
<path d="M18 29.5178L17.969 29.5412C17.9081 29.5857 17.8498 29.6314 17.7973 29.6771L17.7819 29.6912C17.7211 29.7439 17.6532 29.7896 17.5912 29.8352C17.5234 29.8892 17.4521 29.9389 17.3779 29.984C17.3038 30.0301 17.2326 30.0806 17.1646 30.1351C17.0955 30.1879 17.0336 30.2183 16.974 30.2641L16.9347 30.2864C16.8679 30.332 16.7988 30.3694 16.7369 30.4129C16.7321 30.4131 16.7274 30.4146 16.7234 30.4173C16.7194 30.42 16.7162 30.4237 16.7142 30.428C16.6451 30.4737 16.576 30.5113 16.5081 30.5569C16.4402 30.6026 16.3543 30.6401 16.2793 30.6834C16.2042 30.7268 16.1256 30.7666 16.0505 30.8006H16.041L15.8122 30.9177L15.5739 31.0349C15.3388 31.142 15.1003 31.242 14.8589 31.3348C14.7041 31.3933 14.5301 31.4519 14.3633 31.5047C14.2978 31.5288 14.2309 31.5492 14.163 31.5656L13.9426 31.6335C13.8116 31.6711 13.69 31.7015 13.5601 31.732C13.5137 31.746 13.46 31.7542 13.4136 31.7695L13.3314 31.7846L13.1252 31.8292C13.0561 31.8445 13.006 31.8527 12.9345 31.8667C12.8781 31.8806 12.8207 31.8908 12.7629 31.8972C12.701 31.9054 12.6319 31.9206 12.5723 31.9277C12.5409 31.925 12.5094 31.9302 12.4806 31.9428L12.334 31.958H12.2578C12.205 31.9673 12.1516 31.9724 12.098 31.9733C12.0317 31.9826 11.9649 31.9877 11.8979 31.9885H11.7442C11.6893 31.9885 11.6524 31.9967 11.6083 31.9967H10.7838C10.7119 32.0011 10.6399 32.0011 10.5681 31.9967H10.4083C10.3619 31.9967 10.3166 31.9885 10.2702 31.9885H10.1165C10.0508 31.9801 9.98475 31.975 9.91862 31.9733C9.86497 31.9757 9.81122 31.9706 9.75899 31.958H9.67798C9.63046 31.9488 9.58218 31.9437 9.53378 31.9428C9.50269 31.9413 9.47192 31.9361 9.44203 31.9277C9.37777 31.9217 9.31416 31.9115 9.25131 31.8972C9.1934 31.8915 9.13603 31.8813 9.07975 31.8667C9.01559 31.8576 8.95187 31.8451 8.88914 31.8292C8.82717 31.814 8.75086 31.7999 8.68298 31.7846L8.59835 31.7695C8.54514 31.7658 8.49226 31.7591 8.43992 31.7495C8.30876 31.719 8.18012 31.6816 8.05739 31.6511L7.82856 31.5832C7.75948 31.561 7.69039 31.5457 7.62843 31.5223C7.45686 31.4696 7.29953 31.4051 7.13268 31.3536C6.96594 31.302 6.80379 31.227 6.65609 31.1591C6.57978 31.1216 6.49636 31.0911 6.41775 31.0537L6.1794 30.9364L5.95069 30.8193C5.87437 30.7819 5.79938 30.7361 5.72186 30.7022C5.64446 30.6682 5.56815 30.619 5.49315 30.5756C5.41804 30.5323 5.35487 30.4925 5.28699 30.4468L5.26433 30.4316C5.1947 30.394 5.1278 30.3517 5.06408 30.3051L5.02598 30.2828C4.96522 30.2453 4.89734 30.1996 4.83537 30.154C4.7734 30.1082 4.69118 30.0579 4.62209 30.0029C4.5529 29.9478 4.4779 29.9067 4.40871 29.8541L4.21809 29.7099L4.20266 29.6959C4.14386 29.6525 4.0866 29.6072 4.03098 29.5599L4 29.5366C7.49135 31.2493 9.30255 28.9965 10.1963 26.8772C10.5778 25.9523 10.8478 24.9867 11.0005 24C11.152 24.9898 11.4211 25.9586 11.8025 26.8865C12.7046 28.9777 14.5086 31.2329 18 29.5178Z" fill="#529BBA"/>
<path d="M22 20.5871C21.9895 22.2795 21.5975 23.9489 20.8519 25.4766C20.1062 27.0042 19.0251 28.3525 17.6856 29.4257C14.3502 31.0517 12.6199 28.9119 11.7662 26.901C11.4026 26.0227 11.1455 25.106 11 24.1694L21.6722 18C21.8906 18.8457 22.0007 19.7147 22 20.5871Z" fill="#4B6B9A"/>
</svg>
