<svg width="32" height="32" viewBox="0 0 32 32" fill="none" xmlns="http://www.w3.org/2000/svg">
<path fill-rule="evenodd" clip-rule="evenodd" d="M0 0H25.0435C28.8854 0 32 3.10805 32 6.94205V25.0579C32 28.892 28.8854 32 25.0435 32H6.95652C3.11455 32 0 28.892 0 25.0579V0ZM4.51457 4.02936V25.1731C4.51457 26.7066 5.76042 27.9499 7.29725 27.9499H24.7313C26.2681 27.9499 27.5139 26.7066 27.5139 25.1731V6.80612C27.5139 5.27257 26.2681 4.02936 24.7313 4.02936H4.51457ZM9.37809 4.02936H13.863V14.2926V20.1798C13.863 21.7134 12.6172 22.9565 11.0803 22.9565H4.51457V19.0536H9.37809V4.02936ZM9.37809 4.02936H13.863H9.37809ZM4.51457 22.9565V19.0536V22.9565ZM22.6503 27.9499H18.1654V17.6867V11.7995C18.1654 10.2659 19.4113 9.02275 20.948 9.02275H27.5139V12.9256H22.6503V27.9499ZM27.5139 9.02275V12.9256V9.02275ZM22.6503 27.9499H18.1654H22.6503Z" fill="#3964DF"/>
</svg>
