<svg width="32" height="20" viewBox="0 0 32 20" fill="none" xmlns="http://www.w3.org/2000/svg">
<path d="M25.449 3.90763C20.2304 -1.30254 11.7695 -1.30254 6.55104 3.90763L5.92298 4.53472C5.66206 4.79519 5.66206 5.21756 5.92298 5.47812L8.07144 7.62313C8.2019 7.75337 8.41342 7.75337 8.54389 7.62313L9.40819 6.76022C13.0487 3.12546 18.9512 3.12546 22.5918 6.76022L23.5174 7.68432C23.6478 7.81455 23.8594 7.81455 23.9899 7.68432L26.1383 5.5393C26.3992 5.27874 26.3992 4.85637 26.1383 4.5959L25.449 3.90763ZM2.10782 8.34382L0.195695 10.2529C-0.0652292 10.5134 -0.0652327 10.9358 0.195691 11.1963L8.81762 19.8046C9.07855 20.0651 9.50163 20.0651 9.76248 19.8046L15.8819 13.695C15.9471 13.6299 16.0529 13.6299 16.118 13.695L22.2373 19.8046C22.4982 20.0651 22.9213 20.0651 23.1822 19.8046L31.8044 11.1961C32.0652 10.9357 32.0652 10.5133 31.8044 10.2528L29.8922 8.34373C29.6313 8.08317 29.2083 8.08317 28.9473 8.34373L22.8279 14.4534C22.7626 14.5185 22.6569 14.5185 22.5917 14.4534L16.4725 8.34373C16.2117 8.08317 15.7886 8.08317 15.5277 8.34363C15.5277 8.34363 15.5277 8.34364 15.5277 8.34373L9.40828 14.4534C9.343 14.5185 9.23722 14.5185 9.17203 14.4534L3.05272 8.34382C2.79179 8.08326 2.36875 8.08326 2.10782 8.34382Z" fill="#3B99FC"/>
</svg>
