<svg xmlns="http://www.w3.org/2000/svg" height="32" width="32" x="0px" y="0px" viewBox="0 0 32 32">
  <g fill="#FF4C2F">
    <path d="M8.2 1.2C6 1.8 3.9 2.5 3.4 2.6l-.9.3v6c0 3.6 0 6.3.1 6.7.3 3.1 1.7 6.1 4.1 8.6.5.6 9.1 7.7 9.3 7.8.1 0 7.6-6.1 8.8-7.2 2.1-1.9 3.8-4.8 4.4-7.5.3-1.4.3-2 .3-8.4v-6l-4.8-1.5C22 .6 19.9 0 19.9 0s.4.8.9 1.7l.9 1.7 1.3.4c.7.2 1.9.6 2.5.8l1.2.3v5.5c0 5.3 0 5.5-.2 6.2-.5 2.3-1.6 4.3-3.4 6-.3.3-2 1.7-3.7 3.1-1.7 1.4-3.2 2.6-3.3 2.7l-.1.1-3.2-2.7c-4-3.3-4.6-3.8-5.5-5.2-.7-1.1-1.3-2.2-1.6-3.4-.3-1.2-.3-1.7-.3-7.1V4.9l1-.3c.5-.2 1.6-.5 2.4-.8.8-.3 1.5-.5 1.5-.5s.4-.8.9-1.7c.5-.8.9-1.6.9-1.6S12 0 8.2 1.2z"/>
    <path d="M15.8.2c-.1.1-1.8 3.4-4 7.2l-3.8 7 .1.6c.1 1.2.6 2.4 1.3 3.5.3.5.3.6.4.5 0 0 1.4-2.6 3.1-5.6 1.7-3 3-5.5 3.1-5.5 0 0 1.4 2.5 3.1 5.5 1.7 3 3.1 5.5 3.1 5.6.1.1.1.1.2 0 .7-.9 1.3-2.4 1.5-3.8l.1-.7-4-7.2c-2.2-4-4-7.2-4-7.2 0-.1-.1 0-.2.1z"/>
    <path d="M14 17.5l-1.9 3.7 1.1.9c.6.5 1.5 1.2 2 1.6l.9.7.2-.1c.1-.1 1-.8 1.9-1.6l1.7-1.5-1.9-3.7c-1.1-2-1.9-3.7-2-3.7 0 0-.9 1.6-2 3.7z"/>
  </g>
</svg>
