<svg xmlns="http://www.w3.org/2000/svg" width="32" height="32" x="0px" y="0px" viewBox="0 0 32 32">
  <linearGradient id="a" gradientUnits="userSpaceOnUse" x1="10.5428" y1="-53.1687" x2="7.3644" y2="-57.3947" gradientTransform="matrix(1 0 0 -1 0 -30.72)">
    <stop offset="0" stop-color="#cf0bc3"/>
    <stop offset="1" stop-color="#ff3568"/>
  </linearGradient>
  <path fill="url(#a)" d="M2.4 17.4l-.5.5c-.5.5-.5 1.3 0 1.8l11.9 11.9c.5.5 1.3.5 1.8 0l.5-.5c.5-.5.5-1.3 0-1.8L4.2 17.4c-.5-.5-1.3-.5-1.8 0z"/>
  <path fill-rule="evenodd" clip-rule="evenodd" fill="#2926CF" d="M.8 8.7l5.9-5.9c3.9-3.9 8.4-3.6 11.8-.2.5.5.9 1.1 1.3 1.7.1.2.2.3.3.4.3.3.5.3 1 .2 1.4-.4 2.9-.4 4.3.1 1.4.4 2.6 1.2 3.5 2.4 3.4 3.3 3.7 7.8-.7 12.1L20 27.7c-.4.4-.8.4-1.2 0L.8 9.9c-.4-.4-.4-.8 0-1.2zm12 3l1.4-1.4c.2-.2.3-.4.4-.6.1-.2.2-.5.2-.7 0-.2-.1-.5-.2-.7-.1-.2-.3-.4-.4-.6-.2-.2-.4-.3-.6-.4-.2-.1-.5-.2-.7-.2-.2 0-.5.1-.7.2-.2.1-.4.2-.6.4l-1.4 1.4c-.4.4-.4.8 0 1.2l1.3 1.3c.5.5.9.5 1.3.1zm6.7 6.6l3.7-3.7c1.1-1.1 1.3-2.1.4-3-.9-.9-1.9-.7-3 .4l-3.7 3.7c-.4.4-.4.8 0 1.2l1.3 1.3c.5.5.9.5 1.3.1z"/>
</svg>
