<svg xmlns="http://www.w3.org/2000/svg" width="32" height="32" x="0px" y="0px" viewBox="0 0 32 32">
  <path fill-rule="evenodd" clip-rule="evenodd" fill="#3964DF" d="M0 0h25c3.8 0 7 3.1 7 6.9V25c0 3.8-3.1 6.9-7 6.9H7c-3.8 0-7-3.1-7-6.9V0zm4.5 4v21.1c0 1.5 1.2 2.8 2.8 2.8h17.4c1.5 0 2.8-1.2 2.8-2.8V6.8c0-1.5-1.2-2.8-2.8-2.8H4.5zm4.9 0h4.5V20.2c0 1.5-1.2 2.8-2.8 2.8H4.5v-3.9h4.9V4zm0 0h4.5-4.5zM4.5 23v-3.9V23zm18.2 4.9h-4.5V11.8c0-1.5 1.2-2.8 2.8-2.8h6.6v3.9h-4.9v15zM27.5 9v3.9V9zm-4.8 18.9h-4.5 4.5z"/>
</svg>
