<svg width="35" height="35" viewBox="0 0 35 35" fill="none" 
    xmlns="http://www.w3.org/2000/svg">
    <path d="M7.29297 18.7743L8.06026 18.4486L17.5039 14.4609L27.7073 18.7743L23.8763 26.4641L14.4957 27.7521L7.45405 20.3605L7.29297 18.7743Z" fill="#133444"/>
    <path d="M25.5854 14.0266C23.9009 12.0539 21.5134 10.7703 18.8985 10.4312L18.732 10.4101C17.9162 10.3138 17.0914 10.3138 16.2755 10.4101L16.1069 10.4302C13.4916 10.7682 11.1038 12.0521 9.41999 14.0255L8.99553 14.7097L8.29027 15.8517L7.77439 16.6861C7.76843 16.7099 7.75889 16.7327 7.74609 16.7537V16.7675L8.88343 17.4263L16.1177 21.5821L17.5141 22.3826V12.4499L16.1177 13.0611V11.5796L17.5141 10.9684L18.9094 11.5796L26.0076 14.7192L25.5854 14.0266Z" fill="#C42370"/>
    <path d="M28.0208 21.2421C28.0108 22.8512 27.636 24.4385 26.9231 25.8909C26.2102 27.3434 25.1766 28.6253 23.8959 29.6457C22.9097 30.4333 21.7841 31.04 20.5743 31.4359C19.5865 31.7509 18.5534 31.9108 17.5138 31.9097C11.6965 31.9097 6.97852 26.8847 6.97852 21.2421C6.98175 20.4077 7.08734 19.5767 7.29305 18.7666L17.4964 24.6323L27.7008 18.7666C27.9152 19.5752 28.0227 20.4071 28.0208 21.2421Z" fill="#1C4D6B"/>
    <path d="M16.2712 10.4198L17.4989 10.9559L16.1025 11.5714V10.3447L16.2712 10.4198Z" fill="black"/>
    <path d="M16.1074 13.0599L17.5038 12.4424V22.3771L16.1074 21.5767V13.0599Z" fill="black"/>
    <path d="M17.5039 12.4473V22.382L27.2817 16.767L17.5039 12.4473Z" fill="#1D4259"/>
    <path d="M17.5039 1V12.4469L27.2817 16.7666L17.5039 1Z" fill="#4B6B9A"/>
    <path d="M17.5029 12.4472V22.3788L16.1066 21.5783L7.73926 16.7669H7.74579C7.74579 16.7468 7.76756 16.7193 7.77409 16.6992L8.99631 14.7249L16.1076 11.5928V13.0732L17.5029 12.4472Z" fill="#343535"/>
    <path d="M17.5024 12.4473V22.382L16.106 21.5815L7.7257 16.7744L7.72461 16.7617L7.73876 16.7479L16.106 13.0606L17.5024 12.4473Z" fill="#3E5578"/>
    <path d="M17.5024 1V12.4469L7.72461 16.7666L17.5024 1Z" fill="#6DB2D8"/>
    <path d="M13.5459 31.0947C13.6939 31.1561 13.8398 31.2174 13.9812 31.2703C13.8398 31.2174 13.6983 31.1561 13.5459 31.0947Z" fill="#335F8A"/>
    <path d="M13.9854 31.2705C14.1312 31.3255 14.2857 31.3763 14.4381 31.4228C14.2841 31.3812 14.1329 31.3303 13.9854 31.2705Z" fill="#335F8A"/>
    <path d="M14.8242 31.5488C14.9418 31.5837 15.0539 31.6102 15.1714 31.6377C15.0604 31.6123 14.9439 31.5763 14.8242 31.5488Z" fill="#335F8A"/>
    <path d="M7.29305 18.7744L17.4964 24.6401C17.3578 25.5307 17.112 26.4024 16.7639 27.2372C15.9433 29.1628 14.301 31.191 11.1045 29.644C9.82348 28.6243 8.7896 27.3428 8.07646 25.8906C7.36331 24.4385 6.98843 22.8515 6.97852 21.2425C6.98444 20.4107 7.08999 19.5825 7.29305 18.7744Z" fill="#6DB2D8"/>
    <path d="M23.8897 29.6447L23.8614 29.6658C23.8058 29.706 23.7525 29.7472 23.7046 29.7885L23.6905 29.8012C23.635 29.8488 23.5729 29.89 23.5163 29.9312C23.4544 29.9799 23.3893 30.0248 23.3215 30.0655C23.2538 30.1071 23.1888 30.1527 23.1267 30.2019C23.0636 30.2495 23.007 30.277 22.9526 30.3183L22.9167 30.3384C22.8557 30.3796 22.7926 30.4134 22.736 30.4526C22.7316 30.4528 22.7273 30.4542 22.7237 30.4566C22.72 30.459 22.7171 30.4624 22.7153 30.4663C22.6522 30.5075 22.5891 30.5414 22.527 30.5826C22.465 30.6239 22.3866 30.6577 22.3181 30.6968C22.2495 30.736 22.1777 30.7719 22.1091 30.8026H22.1004L21.8914 30.9083L21.6738 31.0141C21.459 31.1107 21.2412 31.201 21.0207 31.2848C20.8793 31.3376 20.7204 31.3905 20.568 31.4381C20.5082 31.4599 20.4471 31.4783 20.3851 31.4931L20.1838 31.5544C20.0641 31.5883 19.9531 31.6158 19.8344 31.6433C19.792 31.6559 19.743 31.6633 19.7006 31.6771L19.6255 31.6908L19.4372 31.731C19.3741 31.7448 19.3283 31.7522 19.263 31.7649C19.2115 31.7774 19.1591 31.7866 19.1063 31.7924C19.0497 31.7998 18.9866 31.8135 18.9322 31.8199C18.9035 31.8175 18.8747 31.8222 18.8484 31.8336L18.7145 31.8473H18.6449C18.5967 31.8557 18.5479 31.8603 18.499 31.8611C18.4384 31.8695 18.3774 31.8741 18.3162 31.8748H18.1758C18.1257 31.8748 18.092 31.8822 18.0517 31.8822H17.2986C17.233 31.8862 17.1672 31.8862 17.1016 31.8822H16.9557C16.9133 31.8822 16.8719 31.8748 16.8295 31.8748H16.6891C16.6291 31.8672 16.5688 31.8626 16.5084 31.8611C16.4594 31.8633 16.4103 31.8587 16.3626 31.8473H16.2886C16.2452 31.839 16.2011 31.8344 16.1569 31.8336C16.1285 31.8322 16.1004 31.8275 16.0731 31.8199C16.0144 31.8145 15.9563 31.8053 15.8989 31.7924C15.846 31.7873 15.7936 31.7781 15.7422 31.7649C15.6836 31.7567 15.6254 31.7454 15.5681 31.731C15.5115 31.7173 15.4418 31.7046 15.3798 31.6908L15.3025 31.6771C15.2539 31.6738 15.2056 31.6678 15.1578 31.6591C15.038 31.6316 14.9205 31.5978 14.8084 31.5703L14.5994 31.509C14.5363 31.4889 14.4732 31.4751 14.4166 31.454C14.2599 31.4064 14.1162 31.3482 13.9638 31.3017C13.8115 31.2552 13.6634 31.1875 13.5285 31.1262C13.4588 31.0923 13.3826 31.0648 13.3108 31.031L13.0931 30.9252L12.8842 30.8195C12.8145 30.7857 12.746 30.7444 12.6752 30.7138C12.6045 30.6831 12.5348 30.6387 12.4663 30.5995C12.3977 30.5604 12.34 30.5245 12.278 30.4832L12.2573 30.4695C12.1937 30.4356 12.1326 30.3974 12.0744 30.3553L12.0396 30.3352C11.9841 30.3013 11.9221 30.2601 11.8655 30.2189C11.8089 30.1776 11.7338 30.1322 11.6707 30.0825C11.6075 30.0328 11.539 29.9957 11.4758 29.9482L11.3017 29.8181L11.2876 29.8054C11.2339 29.7663 11.1816 29.7254 11.1308 29.6827L11.1025 29.6616C14.2914 31.2076 15.9457 29.1741 16.762 27.2612C17.1105 26.4263 17.3571 25.5547 17.4966 24.6641C17.6349 25.5575 17.8807 26.432 18.2291 27.2696C19.053 29.1572 20.7008 31.1928 23.8897 29.6447Z" fill="#529BBA"/>
    <path d="M19.8281 31.6377C19.9457 31.6102 20.0654 31.5763 20.1775 31.5488C20.0654 31.5763 19.9457 31.6123 19.8281 31.6377Z" fill="#335F8A"/>
    <path d="M20.5664 31.4286C20.7231 31.3811 20.8668 31.3229 21.0213 31.2764C20.8733 31.3292 20.721 31.3821 20.5664 31.4286Z" fill="#335F8A"/>
    <path d="M28.0207 21.2419C28.0107 22.851 27.6359 24.4382 26.923 25.8907C26.2101 27.3431 25.1765 28.6251 23.8958 29.6454C20.7069 31.1914 19.0526 29.1569 18.2364 27.245C17.8888 26.41 17.643 25.5384 17.5039 24.6479L27.7073 18.7822C27.9161 19.5863 28.0214 20.4125 28.0207 21.2419Z" fill="#4B6B9A"/>
</svg>