<svg width="27" height="32" viewBox="0 0 27 32" fill="none" xmlns="http://www.w3.org/2000/svg">
<path d="M5.65612 1.18437C3.5351 1.83597 1.3999 2.48757 0.89792 2.63689L0 2.91519V8.90181C0 12.4857 0.0282764 15.1871 0.0707031 15.635C0.381792 18.771 1.79583 21.7438 4.15728 24.2145C4.69462 24.7779 13.2213 31.9116 13.4617 31.9999C13.5606 32.0338 21.0551 25.8978 22.2853 24.7711C24.4205 22.823 26.0891 19.9722 26.683 17.2438C26.9941 15.8047 27.0153 15.2685 26.9941 8.88826L26.9728 2.88804L22.1721 1.4355C19.535 0.641353 17.3644 -0.00345639 17.3503 0.00333008C17.3432 0.016903 17.7391 0.77032 18.2412 1.68664L19.1532 3.34959L20.5178 3.77041C21.2671 4.0012 22.3984 4.34736 23.0348 4.53741L24.1872 4.88357L24.1588 10.3951C24.1377 15.6893 24.1306 15.9337 23.9892 16.5513C23.4519 18.8795 22.3419 20.8547 20.6379 22.5245C20.3127 22.8434 18.6583 24.2484 16.9685 25.6399C15.2787 27.0382 13.8081 28.2532 13.7021 28.3481L13.5183 28.5111L10.273 25.8299C6.30658 22.5447 5.7127 21.9882 4.76532 20.59C4.03708 19.5107 3.49975 18.3501 3.17452 17.1487C2.85636 15.9269 2.82809 15.4722 2.82809 10.0285V4.89036L3.83912 4.58492C4.3906 4.41523 5.52186 4.06908 6.34904 3.81793C7.16923 3.56679 7.84791 3.33602 7.84791 3.31565C7.84791 3.29529 8.24382 2.54866 8.73166 1.65949C9.21951 0.763533 9.61542 0.0236897 9.61542 0.0101168C9.61542 -0.0306138 9.53062 -0.00345641 5.65612 1.18437Z" fill="#FF4C2F"/>
<path d="M13.3195 0.207447C13.2559 0.329615 11.4742 3.59443 9.36731 7.45659L5.53516 14.4817L5.59173 15.0518C5.719 16.2193 6.1715 17.4546 6.90688 18.5745C7.16841 18.9818 7.24622 19.0565 7.31691 18.9818C7.35937 18.9343 8.7592 16.3958 10.4278 13.3414C12.0893 10.2937 13.468 7.79591 13.4962 7.79591C13.5174 7.79591 14.9174 10.2666 16.6001 13.2802C18.2828 16.294 19.6898 18.8122 19.7322 18.88C19.8029 18.9954 19.817 18.9886 19.9302 18.8461C20.6583 17.9298 21.2593 16.4161 21.429 15.079L21.5139 14.4002L17.498 7.21223C15.2921 3.26184 13.475 0.0106037 13.4609 0.0038172C13.4539 -0.00975575 13.3902 0.0784803 13.3195 0.207447Z" fill="#FF4C2F"/>
<path d="M11.5243 17.4944L9.58008 21.2208L10.6759 22.1371C11.2769 22.6394 12.1607 23.3656 12.6344 23.7457L13.504 24.438L13.6949 24.2887C13.808 24.2073 14.6777 23.481 15.6321 22.6733L17.3785 21.2071L15.4413 17.4877C14.3737 15.4445 13.4969 13.7681 13.4828 13.7681C13.4757 13.7681 12.5919 15.4445 11.5243 17.4944Z" fill="#FF4C2F"/>
</svg>
