<svg xmlns="http://www.w3.org/2000/svg" width="32" height="32" x="0px" y="0px" viewBox="0 0 32 32">
  <path fill="#E2761B" d="M30.4 1l-12.5 9.4 2.5-5.6 10-3.8z"/>
  <path fill="#E4761B" d="M1.6 1L14 10.4l-2.2-5.6L1.6 1z"/>
  <path fill="#E4761B" d="M25.4 22.2l-2.8 5.4 7.1 2 1.9-7.3h-6.2v-.1z"/>
  <path fill="#E4761B" d="M.4 22.2l2 7.1 7.1-2-2.9-5.1H.4z"/>
  <path fill="#E4761B" d="M9 13.9l-2 3 7.1.3-.3-7.6L9 13.9z"/>
  <path fill="#E4761B" d="M23 13.9l-4.9-4.4-.2 7.7 7.1-.3-2-3z"/>
  <path fill="#E4761B" d="M9.1 27.9l4.5-2.3-3.6-2.9-.9 5.2z"/>
  <path fill="#E4761B" d="M18.3 25.5l4.5 2.3-.8-5.1-3.7 2.8z"/>
  <path fill="#D7C1B3" d="M22.9 27.9l-4.5-2.3.3 2.9v1.2l4.2-1.8z"/>
  <path fill="#D7C1B3" d="M9.1 27.9l4.2 1.9v-1.2l.3-2.9-4.5 2.2z"/>
  <path fill="#233447" stroke="#233447" stroke-linecap="round" stroke-linejoin="round" d="M12.9 21l-2.5-1.2 1.8-1.3.7 2.5z"/>
  <path fill="#233447" stroke="#233447" stroke-linecap="round" stroke-linejoin="round" d="M19.1 21l.7-2.5 1.8 1.3-2.5 1.2z"/>
  <path fill="#CD6116" d="M9.4 27.6l1-5.4h-5l4 5.4z"/>
  <path fill="#CD6116" d="M21.6 22.2l1 5.4 4-5.4h-5z"/>
  <path fill="#CD6116" d="M25 16.9l-7.1.3.7 3.6 1-2.2 2.5 1.1 2.9-2.8z"/>
  <path fill="#CD6116" d="M9.9 19.8l2.5-1.1 1 2.2.7-3.6-7.1-.4 2.9 2.9z"/>
  <path fill="#E4751F" stroke="#E4751F" stroke-linecap="round" stroke-linejoin="round" d="M7 16.9l3 5.8-.1-2.9L7 16.9z"/>
  <path fill="#E4751F" stroke="#E4751F" stroke-linecap="round" stroke-linejoin="round" d="M22.1 19.8l-.1 2.9 3-5.8-2.9 2.9z"/>
  <path fill="#E4751F" stroke="#E4751F" stroke-linecap="round" stroke-linejoin="round" d="M14.1 17.2l-.7 3.6.8 4.3.2-5.6-.3-2.3z"/>
  <path fill="#E4751F" stroke="#E4751F" stroke-linecap="round" stroke-linejoin="round" d="M17.9 17.2l-.3 2.3.2 5.6.8-4.3-.7-3.6z"/>
  <path fill="#F6851B" stroke="#F6851B" stroke-linecap="round" stroke-linejoin="round" d="M18.6 20.9l-.7 4.7.5.5 3.1-3.1.1-3.1-3 1z"/>
  <path fill="#F6851B" stroke="#F6851B" stroke-linecap="round" stroke-linejoin="round" d="M10.4 19.7l.1 3.1 3.1 3.1.5-.5-.7-4.7-3-1z"/>
  <path fill="#C0AD9E" d="M18.7 29.5v-1.4l-.3-.3h-4.9l-.3.3v1.4l-4.1-2.3 1.4 1.4 2.9 2.4h5l2.9-2.4 1.4-1.4-4 2.3z"/>
  <path fill="#161616" d="M18.7 25.2l-.7-.5h-4l-.7.5-.4 3.3.3-.3h5.5l.4.3-.4-3.3z"/>
  <path fill="#763D16" d="M30.9 10.9L32 5.8 30.4 1l-12.1 9 4.6 3.9 6.6 1.9 1.5-1.7-.6-.5 1-.9-.8-.6 1-.8-.7-.4z"/>
  <path fill="#763D16" d="M0 5.8l1.1 5.1-.7.5 1 .8-.8.6 1 .9-.6.4 1.4 1.7L9 13.9l4.6-3.9-12-9L0 5.8z"/>
  <path fill="#F6851B" d="M29.3 15.4l-6.7-1.9 2 3-3 5.7h9.9l-2.2-6.8z"/>
  <path fill="#F6851B" d="M9.4 13.5l-6.7 1.9-2.2 6.8h9.9l-3-5.7 2-3z"/>
  <path fill="#F6851B" d="M18 17l.4-7.1 2-5.1h-8.7l1.9 5.1.4 7.1.2 2.2v5.5h3.6v-5.5L18 17z"/>
</svg>
