<svg xmlns="http://www.w3.org/2000/svg" x="0px" y="0px" viewBox="0 0 32 32">
  <path d="M8.1 23.6c0-.1 0-.3.1-.4.1-.8.5-1.5 1-2.1 1.1-1.2 2.1-2.4 3.2-3.5.5-.6 1.2-1 2-1.1 1.2-.2 2.2.2 3 1.1.3.3.3.8 0 1.1-.3.3-.7.3-1 0-.4-.4-.7-.7-1.2-.7-.7-.1-1.3 0-1.9.6-1.1 1.2-2.2 2.4-3.3 3.7-.6.7-.7 1.5-.5 2.4.3.9.8 1.4 1.7 1.5.7.1 1.3-.1 1.8-.7.9-1 1.3-1.5 2.2-2.5.1-.1.2-.2.4-.2.3-.1.6.1.8.4.2.3.1.7-.1.9-.2.2-.4.4-.6.7-.7.8-1 1.1-1.7 1.9-.5.6-1.1.9-1.8 1.1-1.2.3-2.3-.1-3.2-1.1-.5-.6-.8-1.3-1-2.2v-.3c.1-.3.1-.5.1-.6z"/>
  <path d="M23.7 14.5c0 .1 0 .3-.1.4-.1.8-.5 1.5-1 2.1-1.1 1.2-2.1 2.4-3.2 3.5-.5.6-1.2 1-2 1.1-1.2.2-2.2-.2-3-1.1-.3-.3-.3-.8 0-1.1.3-.3.7-.3 1 0 .3.3.7.6 1.1.6.7.1 1.3 0 1.9-.6 1.1-1.2 2.2-2.4 3.3-3.7.6-.7.7-1.5.5-2.4-.3-.9-.8-1.4-1.7-1.5-.7-.1-1.3.1-1.8.7-.9 1-1.3 1.5-2.2 2.5-.1.1-.2.2-.4.2-.3.1-.6-.1-.8-.4-.2-.3-.1-.7.1-.9.2-.2.4-.4.6-.7.7-.8 1-1.1 1.7-1.9.5-.6 1.1-.9 1.8-1.1 1.2-.3 2.3.1 3.2 1.1.5.6.8 1.3 1 2.2v1z"/>
  <path fill-rule="evenodd" clip-rule="evenodd" d="M22.8.1c.7-.1 1.3-.1 2 .1.6.2 1.2.5 1.8 1 .5.5.9 1.1 1.2 1.7.2.7.4 1.4.4 2.1v2.4h-1.8V5c0-.4-.1-.9-.3-1.3-.2-.4-.4-.8-.7-1-.3-.3-.7-.5-1.1-.6-.4-.1-.8-.1-1.2 0L4 5.7c-.6.1-1.2.5-1.6 1-.4.6-.6 1.3-.6 2v4H0v-4c0-1.2.4-2.3 1-3.2.7-.9 1.6-1.5 2.6-1.7L22.8.1z"/>
  <path fill-rule="evenodd" clip-rule="evenodd" d="M4.4 8.7C3 8.7 1.8 10 1.8 11.6v15.5C1.8 28.7 3 30 4.4 30h23.2c1.4 0 2.6-1.3 2.6-2.9V11.6c0-1.6-1.2-2.9-2.6-2.9H4.4zM0 11.6c0-2.7 2-4.9 4.4-4.9h23.2c2.4 0 4.4 2.2 4.4 4.9v15.5c0 2.7-2 4.9-4.4 4.9H4.4C2 32 0 29.8 0 27.1V11.6z"/>
</svg>