<svg width="31" height="32" viewBox="0 0 31 32" fill="none" xmlns="http://www.w3.org/2000/svg">
<path d="M1.88298 17.3833L1.38324 17.883C0.878372 18.3879 0.871426 19.1994 1.36774 19.6957L13.3042 31.6323C13.8005 32.1286 14.6122 32.1217 15.1169 31.6167L15.6168 31.117C16.1216 30.6121 16.1286 29.8006 15.6322 29.3043L3.69578 17.3677C3.19947 16.8714 2.38785 16.8783 1.88298 17.3833Z" fill="url(#paint0_linear)"/>
<path fill-rule="evenodd" clip-rule="evenodd" d="M0.318166 8.7136L6.24365 2.8423C10.1657 -1.04383 14.6054 -0.781037 18.0505 2.63259C18.5347 3.15543 18.9728 3.71837 19.3606 4.31548C19.4582 4.46858 19.5676 4.6139 19.6878 4.75021C19.9061 4.96652 20.1294 5.02185 20.5974 4.8796C22.0138 4.49349 23.5055 4.51628 24.8952 4.94529C26.2848 5.3743 27.5143 6.19149 28.4378 7.29989C31.8017 10.6332 32.1214 15.139 27.782 19.4388L19.4622 27.6825C19.0169 28.1237 18.6646 28.0945 18.2268 27.6607L0.340088 9.93767C-0.0977136 9.50397 -0.121119 9.14887 0.318166 8.7136ZM12.3405 11.6946L13.7592 10.2889C13.9438 10.1283 14.0919 9.93062 14.1934 9.7094C14.2948 9.48806 14.347 9.24861 14.3467 9.0071C14.3462 8.76571 14.2931 8.52809 14.1908 8.31063C14.0887 8.09318 13.9399 7.90111 13.7546 7.74744C13.5983 7.56557 13.404 7.41967 13.1846 7.31957C12.9654 7.21947 12.7261 7.16735 12.4831 7.16698C12.2401 7.1665 11.9988 7.21776 11.7756 7.31702C11.5526 7.41639 11.3526 7.56156 11.1896 7.74294L9.77581 9.14365C9.3305 9.585 9.35993 9.93402 9.79775 10.3678L11.11 11.668C11.5477 12.1114 11.9047 12.1357 12.3502 11.6944L12.3405 11.6946ZM19.0137 18.3067L22.7464 14.6081C23.8314 13.5331 24.0625 12.5453 23.1606 11.6517C22.2849 10.7842 21.269 10.9799 20.1768 12.0621L16.449 15.7558C16.0037 16.1971 16.0331 16.5461 16.4709 16.98L17.7832 18.2801C18.2197 18.7223 18.5779 18.7479 19.0234 18.3066L19.0137 18.3067Z" fill="#2926CF"/>
<defs>
<linearGradient id="paint0_linear" x1="4.10928" y1="17.9861" x2="0.930907" y2="22.2121" gradientUnits="userSpaceOnUse">
<stop stop-color="#CF0BC3"/>
<stop offset="1" stop-color="#FF3568"/>
</linearGradient>
</defs>
</svg>
