<svg xmlns="http://www.w3.org/2000/svg" width="32" height="32" x="0px" y="0px" viewBox="0 0 32 32">
  <path fill="#3B99FC" d="M25.4 9.9c-5.2-5.2-13.7-5.2-18.9 0l-.6.6c-.3.3-.3.7 0 .9L8 13.5c.1.1.3.1.5 0l.9-.9C13 9 18.9 9 22.6 12.6l.9.9c.1.1.3.1.5 0l2.1-2.1c.3-.3.3-.7 0-.9l-.7-.6zM2.1 14.3L.2 16.2c-.3.3-.3.7 0 .9l8.6 8.6c.3.3.7.3.9 0l6.1-6.1c.1-.1.2-.1.2 0l6.1 6.1c.3.3.7.3.9 0l8.6-8.6c.3-.3.3-.7 0-.9l-1.9-1.9c-.3-.3-.7-.3-.9 0l-6.1 6.1c-.1.1-.2.1-.2 0l-6.1-6.1c-.3-.3-.7-.3-.9 0l-6.1 6.1c-.1.1-.2.1-.2 0l-6.1-6.1c-.3-.2-.7-.2-1 0z"/>
</svg>
