<svg width="32" height="32" viewBox="0 0 32 32" fill="none" xmlns="http://www.w3.org/2000/svg">
<path fill-rule="evenodd" clip-rule="evenodd" d="M0.712103 7.06183C0 8.93829 0 11.2922 0 16C0 20.7079 0 23.0617 0.712103 24.9381C1.82303 27.8655 4.13447 30.177 7.06184 31.2879C8.93829 32 11.2922 32 16 32C20.7079 32 23.0617 32 24.9381 31.2879C27.8655 30.177 30.177 27.8655 31.2879 24.9381C32 23.0617 32 20.7079 32 16C32 11.2922 32 8.93829 31.2879 7.06183C30.177 4.13447 27.8655 1.82303 24.9381 0.712103C23.0617 -2.72478e-07 20.7079 0 16 0C11.2922 0 8.93829 -2.72478e-07 7.06184 0.712103C4.13447 1.82303 1.82303 4.13447 0.712103 7.06183ZM15.3056 26.0574C15.537 26.1715 15.7686 26.2857 16 26.2857C16.2314 26.2857 16.463 26.2857 16.5787 26.1715C17.6202 25.4867 18.4303 25.0303 19.2405 24.5737C23.6383 22.177 24.9113 20.9217 25.1429 9.16663C25.1429 8.82423 25.0271 8.59589 24.7957 8.36766C24.5642 8.13943 24.3327 8.02526 23.9855 8.02526H23.7541C22.5967 8.02526 19.472 8.02526 16.6944 5.97102C16.3471 5.62863 15.7686 5.62863 15.3056 5.97102C12.528 8.02526 9.4032 8.02526 8.24594 8.02526H8.01451C7.78301 8.02526 7.43581 8.13943 7.20434 8.2536C6.97288 8.48183 6.85714 8.71006 6.85714 9.05246C6.97288 20.8075 8.24594 22.063 12.6438 24.4597C12.8195 24.5587 13.0008 24.6578 13.1863 24.7592C13.8558 25.125 14.5806 25.5213 15.3056 26.0574ZM13.7686 22.6147C10.4381 20.6897 9.40251 20.091 9.17177 10.3079C10.792 10.1937 13.6854 9.85131 16 8.2536C18.5462 9.96549 20.9765 10.1937 22.5967 10.3079C22.3653 20.1227 21.4393 20.6934 17.9675 22.6336C17.7521 22.7611 17.5205 22.9043 17.2731 23.0575C16.8557 23.3159 16.3928 23.6024 15.8843 23.889C15.3537 23.5402 14.7557 23.1914 14.245 22.8936C14.0872 22.8015 13.9377 22.7144 13.8011 22.6336L13.7686 22.6147Z" fill="#3378B9"/>
</svg>
