<svg xmlns="http://www.w3.org/2000/svg" width="32" height="32" x="0px" y="0px" viewBox="0 0 32 32">
  <path fill="#133444" d="M5.7 18.4l.8-.3 9.5-4.2 10.3 4.5-3.9 8-9.4 1.3L5.9 20z"/>
  <path fill="#C42370" d="M24.1 13.5c-1.7-2-4.1-3.4-6.7-3.7h-.2c-.8-.1-1.6-.1-2.5 0h-.2c-2.6.4-5 1.7-6.7 3.7l-.4.7-.7 1.2-.5.9v.1l1.1.6 7.3 4.3 1.4.8V11.9l-1.4.6V11l1.4-.6 1.4.6 7.2 3.3-.5-.8z"/>
  <path fill="#1C4D6B" d="M26.6 21c0 3.4-1.6 6.6-4.1 8.7-1 .8-2.1 1.4-3.3 1.9-1 .3-2 .5-3.1.5-5.8 0-10.6-5.2-10.6-11 0-.9.1-1.7.3-2.6l10.2 6 10.3-6.1c.2.8.3 1.7.3 2.6z"/>
  <path d="M14.8 9.8l1.2.5-1.4.7V9.7z"/>
  <path d="M14.6 12.5l1.4-.6v10.2l-1.4-.8z"/>
  <path fill="#1D4259" d="M16 11.9v10.2l9.8-5.8z"/>
  <path fill="#4B6B9A" d="M16 0v11.9l9.8 4.4z"/>
  <path fill="#343535" d="M16 11.9v10.3l-1.4-.8-8.4-5v-.1l1.2-2 7.2-3.2v1.5l1.4-.7z"/>
  <path fill="#3E5578" d="M16 11.9v10.2l-1.4-.8-8.4-5 8.4-3.8z"/>
  <path fill="#6DB2D8" d="M16 0v11.9l-9.8 4.4z"/>
  <path fill="#335F8A" d="M12 31.2c.1.1.3.1.4.2-.1-.1-.2-.2-.4-.2z"/>
  <path fill="#335F8A" d="M12.5 31.3c.1.1.3.1.5.2-.2 0-.4-.1-.5-.2z"/>
  <path fill="#335F8A" d="M13.3 31.6c.1 0 .2.1.4.1-.2 0-.3 0-.4-.1z"/>
  <path fill="#6DB2D8" d="M5.7 18.4L16 24.5c-.1.9-.4 1.8-.7 2.7-.8 2-2.5 4.1-5.7 2.5C7 27.6 5.4 24.4 5.4 21c0-.9.1-1.8.3-2.6z"/>
  <path fill="#529BBA" d="M22.4 29.7c-.1.1-.1.1-.2.1s-.1.1-.2.1-.1.1-.2.1-.1.1-.2.1-.1.1-.2.1-.1.1-.2.1-.1.1-.2.1-.1.1-.2.1-.1.1-.2.1-.1.1-.2.1-.1.1-.2.1-.1.1-.2.1c-.1.1-.3.1-.4.2-.1.1-.3.1-.5.2-.1 0-.1 0-.2.1-.1 0-.1 0-.2.1-.1 0-.2.1-.4.1h-1H17 16.7h-.1-.1H15.6h-.1-.1H15.1h-.2-.1H13.8h-.1c-.1 0-.2-.1-.4-.1l-.2-.1c-.1 0-.1 0-.2-.1-.2 0-.3-.1-.5-.2s-.3-.1-.4-.2c-.1 0-.1-.1-.2-.1s-.1-.1-.2-.1-.1-.1-.2-.1-.1-.1-.2-.1-.1-.1-.2-.1-.1-.1-.2-.1-.1-.1-.2-.1-.1-.1-.2-.1-.1-.1-.2-.1-.2 0-.3-.1c-.1 0-.1-.1-.2-.1s-.1-.1-.2-.1c3.2 1.6 4.9-.5 5.7-2.5.4-.9.6-1.8.7-2.7.1.9.4 1.8.7 2.7 1 1.9 2.6 4 5.8 2.5z"/>
  <path fill="#335F8A" d="M18.3 31.7c.1 0 .2-.1.4-.1-.1.1-.2.1-.4.1z"/>
  <path fill="#335F8A" d="M19.1 31.5c.2 0 .3-.1.5-.2-.2.1-.4.2-.5.2z"/>
  <path fill="#335F8A" d="M19.5 31.3c.1-.1.3-.1.4-.2-.1.1-.2.2-.4.2z"/>
  <path fill="#4B6B9A" d="M26.6 21c0 3.4-1.6 6.6-4.1 8.7-3.2 1.6-4.9-.5-5.7-2.5-.4-.9-.6-1.8-.7-2.7l10.3-6.1c.1.8.2 1.7.2 2.6z"/>
</svg>