<svg width="32" height="32" viewBox="0 0 32 32" fill="none" xmlns="http://www.w3.org/2000/svg">
<path d="M14 13C13.4477 13 13 13.4477 13 14V18C13 18.5523 13.4477 19 14 19H18C18.5523 19 19 18.5523 19 18V14C19 13.4477 18.5523 13 18 13H14Z" fill="#1A2DEB"/>
<path fill-rule="evenodd" clip-rule="evenodd" d="M16 0C7.16339 0 0 7.16339 0 16C0 24.8366 7.16339 32 16 32C24.8366 32 32 24.8366 32 16C32 7.16339 24.8366 0 16 0ZM6.4 16C6.4 10.6981 10.698 6.4 16 6.4C21.302 6.4 25.6 10.6981 25.6 16C25.6 21.3019 21.302 25.6 16 25.6C10.698 25.6 6.4 21.3019 6.4 16Z" fill="#1A2DEB"/>
</svg>
