<svg width="140" height="46" viewBox="0 0 140 46" fill="none" 
    xmlns="http://www.w3.org/2000/svg">
    <path d="M0 9.2C0 4.11898 4.09674 0 9.15033 0H36.6013C41.6549 0 45.7516 4.11898 45.7516 9.2V36.8C45.7516 41.881 41.6549 46 36.6013 46H9.15033C4.09674 46 0 41.881 0 36.8V9.2Z" fill="url(#bzx-logo)"/>
    <path d="M18.3238 0H13.7361V10.607H18.3238V0Z" fill="white"/>
    <path d="M26.0245 32.5955H19.9622C16.5214 32.5955 13.736 29.7891 13.736 26.3225V21.8653H18.3237V26.2895C18.3237 27.2139 19.0446 27.9403 19.9622 27.9403H26.0245C26.942 27.9403 27.663 27.2139 27.663 26.2895V20.2145C27.663 19.2901 26.942 18.5638 26.0245 18.5638H0V13.9415H26.0245C29.4653 13.9415 32.2507 16.7479 32.2507 20.2145V26.3225C32.2507 29.7891 29.4653 32.5955 26.0245 32.5955Z" fill="white"/>
    <path d="M117.764 36.9676C117.567 36.7723 117.489 36.577 117.489 36.3037C117.489 36.0303 117.567 35.796 117.764 35.5617L125.15 25.76L118.314 16.544C118.157 16.3097 118.039 16.0754 118.039 15.8021C118.039 15.5287 118.117 15.3335 118.314 15.1382C118.51 14.943 118.707 14.8649 118.982 14.8649H122.792C123.107 14.8649 123.342 14.943 123.5 15.0601C123.657 15.1773 123.814 15.3725 124.01 15.6068L128.843 22.0111L133.635 15.6068C133.675 15.5678 133.753 15.4506 133.95 15.2163C134.146 14.982 134.421 14.8649 134.853 14.8649H138.546C138.821 14.8649 139.018 14.943 139.214 15.1382C139.371 15.3335 139.489 15.5287 139.489 15.763C139.489 16.0364 139.411 16.3097 139.214 16.544L132.3 25.7991L139.725 35.5617C139.882 35.796 140 36.0303 140 36.3037C140 36.577 139.921 36.7723 139.725 36.9676C139.528 37.1628 139.332 37.2409 139.057 37.2409H135.089C134.618 37.2409 134.225 37.0066 133.91 36.538L128.725 29.7432L123.5 36.538C123.185 37.0066 122.792 37.2409 122.321 37.2409H118.471C118.157 37.2409 117.921 37.1628 117.764 36.9676Z" class="svg-primary" fill="#283049"/>
    <path d="M86.2407 24.5098C86.1613 21.4323 85.2083 19.0141 83.6199 17.1203C82.0314 15.2264 79.768 14.2795 76.8294 14.2795C74.01 14.2795 71.7862 15.2264 70.1581 17.1597V7.49319C70.1581 6.86191 69.5227 6.46735 68.9668 6.70408L64.281 8.63739V36.2955C64.281 36.5717 64.4001 36.8479 64.5987 37.0452C64.7972 37.2424 65.0355 37.3608 65.3532 37.3608H68.8477C69.1654 37.3608 69.4433 37.2424 69.6419 37.0452C69.8404 36.8479 69.9596 36.6112 69.9596 36.2955V34.6778C71.548 36.7295 73.8909 37.7554 76.9088 37.7554C79.8474 37.7554 82.1109 36.8084 83.6993 34.954C85.2877 33.0996 86.1216 30.5745 86.2407 27.4575C86.3396 26.4749 86.2407 25.4836 86.2407 24.5098ZM80.1254 27.2997C79.9268 31.1269 78.259 33.0207 75.1616 33.0207C73.4938 33.0207 72.2627 32.4684 71.4288 31.4031C70.5949 30.3378 70.1581 29.0357 70.1184 27.497C70.0787 27.1419 70.0787 26.5895 70.0787 25.8399C70.0787 25.0508 70.0787 24.4984 70.1184 24.1433C70.1581 22.6835 70.6346 21.4603 71.4685 20.4345C72.3025 19.4087 73.5335 18.8958 75.1219 18.8958C78.259 18.8958 79.8871 20.7896 80.0856 24.6168C80.1254 24.8929 80.1254 25.327 80.1254 25.9188C80.1651 26.5895 80.1651 27.0235 80.1254 27.2997Z" class="svg-primary" fill="#283049"/>
    <path d="M113.377 32.2602H97.8299L102.028 26.6284C102.572 25.9195 102.067 24.8955 101.173 24.8955H95.731L90.5226 31.7088C90.3671 31.9451 90.2116 32.1814 90.0562 32.4177C89.9396 32.654 89.8618 32.9691 89.8618 33.3235V36.3954C89.8618 36.7104 89.9396 36.9861 90.1339 37.183C90.3282 37.38 90.5615 37.4981 90.8724 37.4981H110.812C111.356 37.4981 111.861 37.2224 112.172 36.7892L114.194 34.0324C114.738 33.2447 114.232 32.2602 113.377 32.2602Z" class="svg-primary" fill="#283049"/>
    <path d="M90.1471 11.7657H105.856L101.615 17.2826C101.065 17.977 101.576 18.9801 102.479 18.9801H107.977L113.24 12.3058C113.397 12.0743 113.554 11.8429 113.711 11.6114C113.829 11.3799 113.908 11.0713 113.908 10.7241V7.71487C113.908 7.40623 113.829 7.13618 113.633 6.94328C113.436 6.75038 113.201 6.63464 112.886 6.63464H92.7391C92.1893 6.63464 91.6787 6.9047 91.3646 7.32907L89.3223 10.0296C88.7725 10.7626 89.2831 11.7657 90.1471 11.7657Z" class="svg-primary" fill="#283049"/>
    <defs>
        <linearGradient id="bzx-logo" x1="42.7778" y1="43.01" x2="5.97832" y2="6.40923" gradientUnits="userSpaceOnUse">
            <stop offset="0.159375" stop-color="#003CDA"/>
            <stop offset="1" stop-color="#33DFCC"/>
        </linearGradient>
    </defs>
</svg>
