<svg width="2000" height="2000" viewBox="0 0 2000 2000" fill="none" xmlns="http://www.w3.org/2000/svg">
  <path d="M1000 2000C1552.3 2000 2000 1552.3 2000 1000C2000 447.7 1552.3 0 1000 0C447.7 0 0 447.7 0 1000C0 1552.3 447.7 2000 1000 2000Z" fill="#070A0E"/>
  <path fill-rule="evenodd" clip-rule="evenodd" d="M577.7 1335.3C547.8 1317 529.5 1284.5 529.5 1249.5V1054.1C529.5 1030.9 548.4 1012.1 571.6 1012.2C579 1012.2 586.3 1014.2 592.7 1017.9L1033.6 1275C1059.4 1290 1075.3 1317.6 1075.3 1347.5V1549.9C1075.4 1577.7 1052.9 1600.3 1025.1 1600.3C1015.8 1600.3 1006.6 1597.7 998.7 1592.9L577.7 1335.3ZM1234.9 964.4C1260.7 979.4 1276.5 1007.1 1276.6 1036.9V1447.7C1276.6 1459.8 1270.1 1471 1259.5 1476.9L1163 1531.2C1161.8 1531.9 1160.5 1532.4 1159.1 1532.8V1304.7C1159.1 1275.2 1143.6 1247.8 1118.2 1232.6L731 1001V743.5C731 720.3 749.9 701.5 773.1 701.6C780.5 701.6 787.8 703.6 794.2 707.3L1234.9 964.4ZM1427.9 661C1453.8 676 1469.7 703.7 1469.7 733.6V1333.6C1469.6 1345.9 1462.8 1357.2 1452 1363.1L1360.5 1412.5V994.8C1360.5 965.3 1345 938 1319.8 922.8L924 685.4V441.2C924 433.8 926 426.5 929.6 420.1C941.3 400.1 967 393.3 987 404.9L1427.9 661Z" fill="#00D395"/>
</svg>