<svg width="32" height="20" viewBox="0 0 32 20" fill="none" 
    xmlns="http://www.w3.org/2000/svg">
    <path d="M19 5H22C22.6566 5 23.3068 5.12933 23.9134 5.3806C24.52 5.63188 25.0712 6.00017 25.5355 6.46447C25.9998 6.92876 26.3681 7.47996 26.6194 8.08658C26.8707 8.69321 27 9.34339 27 10C27 10.6566 26.8707 11.3068 26.6194 11.9134C26.3681 12.52 25.9998 13.0712 25.5355 13.5355C25.0712 13.9998 24.52 14.3681 23.9134 14.6194C23.3068 14.8707 22.6566 15 22 15H19M13 15H10C9.34339 15 8.69321 14.8707 8.08658 14.6194C7.47995 14.3681 6.92876 13.9998 6.46447 13.5355C5.52678 12.5979 5 11.3261 5 10C5 8.67392 5.52678 7.40215 6.46447 6.46447C7.40215 5.52678 8.67392 5 10 5H13" stroke="white" stroke-width="2" stroke-linecap="round" stroke-linejoin="round"/>
    <path d="M11.5557 10H20.4446" stroke="white" stroke-width="2" stroke-linecap="round" stroke-linejoin="round"/>
</svg>