<svg width="30" height="30" viewBox="0 0 30 30" fill="none" 
    xmlns="http://www.w3.org/2000/svg">
    <path d="M25.5664 25.6786C24.1702 27.0774 22.5072 28.1807 20.6765 28.9226C18.8457 29.6646 16.8846 30.03 14.9099 29.9973C12.9465 30.0353 10.9961 29.6718 9.17777 28.9293C7.35946 28.1867 5.71149 27.0806 4.3346 25.6786C2.92557 24.3048 1.81391 22.6554 1.06877 20.8329C0.323639 19.0105 -0.0390316 17.054 0.00332545 15.0851C0.00332545 10.7738 1.44708 7.18228 4.3346 4.31053C5.71243 2.91051 7.36083 1.80645 9.17909 1.06582C10.9974 0.325184 12.9473 -0.0364854 14.9099 0.00290406C16.8838 -0.0312779 18.8445 0.332462 20.6752 1.07248C22.5059 1.81251 24.1693 2.91369 25.5664 4.31053C28.5203 7.18228 29.9973 10.7738 29.9973 15.0851C30.0356 17.0625 29.6613 19.026 28.8983 20.8501C28.1353 22.6743 27.0005 24.3188 25.5664 25.6786V25.6786Z" fill="#C8C8C8"/>
    <path d="M15 4.71436L9 14.939L15 12.137V4.71436Z" fill="#8B8B8B"/>
    <path d="M15 12.1372L9 14.9392L15 18.5794V12.1372Z" fill="#393939"/>
    <path d="M15 4.71436V12.137L20.9943 14.939L15 4.71436Z" fill="#343434"/>
    <path d="M15 12.1372V18.5794L20.9943 14.9392L15 12.1372Z" fill="#161616"/>
    <path d="M9 16.106L15 24.7904V19.7491L9 16.106Z" fill="#8B8B8B"/>
    <path d="M21 16.106L15 19.7491V24.7904L21 16.106Z" fill="#343434"/>
</svg>