<svg viewBox="0 0 120 120" fill="none" 
    xmlns="http://www.w3.org/2000/svg">
    <path d="M113 78H38V110H113C114.105 110 115 109.105 115 108V102H111V98H115V90H111V86H115V80C115 78.8954 114.105 78 113 78Z" class="icon-safe-switch" />
    <path d="M60 48.5256C66.9077 48.5256 73.4425 50.4937 79.256 54C84.569 50.4987 90.5783 48.5256 96.942 48.5256C102.278 48.5256 107.364 49.9126 112 52.4246C105.98 29.1666 84.9807 12 60 12V48.5256Z" fill="#56A9FF"/>
    <path d="M60 48.5256C66.8158 48.5256 73.2638 50.4937 79 54C79 32.9684 72.813 21.4696 60 12V48.5256Z" fill="#176EFC"/>
    <path d="M60 48.5256C53.0923 48.5256 46.5575 50.4937 40.744 54C35.431 50.4987 29.4217 48.5256 23.058 48.5256C17.7224 48.5256 12.6358 49.9126 8 52.4246C14.0199 29.1666 35.0193 12 60 12V48.5256Z" fill="#56A9FF"/>
    <path d="M60 48.5256C53.1842 48.5256 46.7362 50.4937 41 54C41 32.9684 47.187 21.4696 60 12V48.5256Z" fill="#176EFC"/>
    <path d="M57 8C57 6.34315 58.3431 5 60 5C61.6569 5 63 6.34315 63 8V10H57V8Z" fill="#33DFCC"/>
    <path d="M57 55C57 53.3431 58.3431 52 60 52C61.6569 52 63 53.3431 63 55V69H57V55Z" fill="#33DFCC"/>
    <path d="M85 66H34V78H89V70C89 67.7909 87.2091 66 85 66Z" fill="#56A9FF"/>
    <path d="M89 82H34V94H89V82Z" fill="#56A9FF"/>
    <path d="M89 98H34V110H85C87.2091 110 89 108.209 89 106V98Z" fill="#56A9FF"/>
    <ellipse cx="33.5" cy="86.5" rx="23.5" ry="23.5" transform="rotate(-90 33.5 86.5)" fill="#276BFB"/>
    <path d="M25.75 95.0221C27.4003 96.7265 29.892 97.7365 32.2218 97.989V102H34.9723V97.989C38.9525 97.484 41.25 94.738 41.25 91.5186C41.25 84.4484 30.3126 85.1112 30.3126 81.3552C30.3126 79.777 31.8659 78.6723 33.8074 78.6723C35.6195 78.6723 37.5934 79.5561 38.8554 80.6292L40.6675 77.3151C39.0496 75.8947 37.0433 75.1688 34.9723 75.011V71H32.2218V75.0741C28.63 75.6422 26.1383 78.1673 26.1383 81.4183C26.1383 88.2044 37.0757 87.8257 37.0757 91.6132C37.0757 93.4439 35.4577 94.3277 33.7103 94.3277C31.6394 94.3277 29.3742 93.2545 27.9828 91.9604L25.75 95.0221Z" fill="white"/>
</svg>