<svg width="120" height="120" viewBox="0 0 120 120" fill="none" 
    xmlns="http://www.w3.org/2000/svg">
    <circle cx="60" cy="60" r="35" class="icon-step-tertiary" />
    <path d="M60 0C67.8793 9.39599e-08 75.6815 1.55195 82.961 4.56723C90.2405 7.58251 96.8549 12.0021 102.426 17.5736C107.998 23.1451 112.417 29.7595 115.433 37.039C118.448 44.3185 120 52.1207 120 60L60 60L60 0Z" fill="#56A9FF"/>
    <path d="M60 25C64.5963 25 69.1475 25.9053 73.3939 27.6642C77.6403 29.4231 81.4987 32.0012 84.7487 35.2513C87.9988 38.5013 90.5769 42.3597 92.3358 46.6061C94.0947 50.8525 95 55.4037 95 60L60 60L60 25Z" fill="#276BFB"/>
    <rect x="2" y="97" width="27" height="4" fill="#1CD8C4"/>
    <rect x="26" y="12" width="27" height="4" fill="#1CD8C4"/>
    <path d="M15 107H29V111H15V107Z" fill="#1CD8C4"/>
</svg>
