<svg width="30" height="30" viewBox="0 0 30 30" fill="none" 
    xmlns="http://www.w3.org/2000/svg">
    <path d="M25.5597 25.6885C24.1623 27.0862 22.4986 28.1879 20.6674 28.9281C18.8363 29.6683 16.8752 30.0319 14.9008 29.9972C12.9389 30.0358 10.9896 29.6734 9.17223 28.9319C7.35482 28.1904 5.7074 27.0856 4.33062 25.6848C2.92144 24.3104 1.80998 22.6599 1.06553 20.8362C0.321074 19.0126 -0.0404178 17.0549 0.00358484 15.0851C0.00358484 10.7752 1.44839 7.18403 4.338 4.31158C5.71566 2.91121 7.36384 1.80689 9.18188 1.06608C10.9999 0.325263 12.9496 -0.0364943 14.9119 0.00290477C16.8859 -0.0305909 18.8464 0.333916 20.6768 1.07475C22.5073 1.81558 24.1703 2.9176 25.5671 4.31528C28.5207 7.1902 29.9975 10.7826 29.9975 15.0925C30.0348 17.0708 29.6593 19.0352 28.8952 20.8598C28.131 22.6844 26.9949 24.3291 25.5597 25.6885V25.6885Z" fill="#2A5ADA"/>
    <path fill-rule="evenodd" clip-rule="evenodd" d="M15 5.72969L23.1429 10.4797V19.949L15 24.699L6.85715 19.949V10.4797L15 5.72969ZM10.2857 12.449V17.9797L15 20.7297L19.7143 17.9797V12.449L15 9.69896L10.2857 12.449Z" fill="white"/>
</svg>