<svg width="190" height="44" viewBox="0 0 190 44" fill="none" xmlns="http://www.w3.org/2000/svg">
<path d="M0 8.8C0 3.93989 3.93368 0 8.78613 0H35.1445C39.9969 0 43.9306 3.93989 43.9306 8.8V35.2C43.9306 40.0601 39.9969 44 35.1445 44H8.78613C3.93368 44 0 40.0601 0 35.2V8.8Z" fill="url(#paint0_linear)"/>
<path d="M34.2096 16.0141C32.643 12.7069 29.7917 10.1485 26.3137 8.93176C21.9583 7.40299 17.133 8.12058 13.4043 10.8037L23.713 30.8026C18.825 31.957 13.937 28.9618 12.7777 24.0947C12.3704 22.4099 12.4643 20.6316 13.0597 19.0092L8.48502 17.3868C6.32303 23.4707 8.67302 30.241 14.1563 33.7354C17.697 35.9817 22.0523 36.5121 26.0003 35.2017L30.575 44H31.985L28.037 34.3282C34.7423 30.8962 37.4683 22.7843 34.2096 16.0141ZM30.199 25.0307C29.5097 27.0275 28.0997 28.7122 26.2823 29.8042L19.7337 13.1749C21.363 12.8629 23.0863 12.9565 24.653 13.5181C29.3843 15.1717 31.8596 20.3196 30.199 25.0307Z" fill="white"/>
<path d="M74.6599 29.0526C74.9452 29.0526 75.1592 29.124 75.3375 29.3023C75.5158 29.4807 75.6228 29.7304 75.5515 30.0515V32.5486C75.5515 32.834 75.4802 33.0481 75.3018 33.2264C75.1592 33.4048 74.9095 33.5118 74.6242 33.5118H71.3787C68.9892 33.5118 67.1703 32.8697 65.9577 31.6211C64.7451 30.3725 64.1387 28.5175 64.1387 26.0917V7.00636C64.1387 6.97069 64.1388 6.93502 64.1744 6.93502L67.9549 5.36538C68.5968 5.07999 69.3101 5.54375 69.3101 6.25722V12.7498C69.3101 12.7855 69.3458 12.8212 69.3815 12.8212H74.9452C75.2305 12.8212 75.4445 12.9282 75.6228 13.1065C75.8011 13.2849 75.9081 13.5346 75.9081 13.7843V16.1388C75.9081 16.3885 75.8368 16.6026 75.6585 16.7809C75.4802 16.995 75.1948 17.102 74.9095 17.102H69.4171C69.3815 17.102 69.3458 17.1377 69.3458 17.1733V25.628C69.3458 26.7695 69.5598 27.6257 69.9521 28.1965C70.3444 28.7672 70.9864 29.0526 71.878 29.0526H74.6599Z" fill="#283049"/>
<path fill-rule="evenodd" clip-rule="evenodd" d="M88.6761 34.2612C82.5774 34.2612 77.5844 29.3026 77.5844 23.1667C77.5844 17.0309 82.5418 12.0723 88.6761 12.0723C94.8105 12.0723 99.7679 17.0309 99.7679 23.1667C99.7679 29.3026 94.8105 34.2612 88.6761 34.2612ZM88.6761 16.7812C85.1453 16.7812 82.2921 19.6351 82.2921 23.1667C82.2921 26.6984 85.1453 29.5523 88.6761 29.5523C92.207 29.5523 95.0602 26.6984 95.0602 23.1667C95.0602 19.6351 92.207 16.7812 88.6761 16.7812Z" fill="#283049"/>
<path fill-rule="evenodd" clip-rule="evenodd" d="M140.64 38.4349L143.564 35.5097V35.474H147.274C147.987 35.474 148.343 36.3302 147.844 36.8296L141.139 43.5362C140.854 43.8216 140.462 44 140.034 44H136.11C135.682 44 135.326 43.6433 135.326 43.2152V31.0505C133.935 32.9412 131.902 33.8687 129.227 33.8687C126.588 33.8687 124.519 33.0125 123.093 31.3002C121.666 29.5879 120.882 27.3761 120.775 24.5936L120.739 23.1666L120.775 21.7397C120.882 18.9215 121.63 16.674 123.057 14.9974C124.484 13.3207 126.517 12.4646 129.191 12.4646C131.973 12.4646 134.078 13.4277 135.54 15.3898V13.8202C135.54 13.5348 135.647 13.3207 135.825 13.1424C136.003 12.964 136.253 12.8926 136.503 12.8926H139.713C139.998 12.8926 140.212 12.964 140.39 13.1424C140.569 13.2851 140.64 13.5348 140.64 13.8202V38.4349ZM134.078 28.1609C134.862 27.2334 135.29 26.1275 135.326 24.8076C135.361 24.4866 135.361 23.9515 135.326 23.2737C135.326 22.5959 135.326 22.0964 135.29 21.7754C135.219 20.3484 134.826 19.1355 134.078 18.1723C133.364 17.2091 132.223 16.7097 130.725 16.7097C127.943 16.7097 126.445 18.4577 126.267 21.9537C126.231 22.2034 126.231 22.5959 126.231 23.131C126.231 23.6661 126.231 24.0585 126.267 24.3082C126.445 27.8042 127.943 29.5522 130.725 29.5522C132.187 29.5522 133.293 29.0884 134.078 28.1609Z" fill="#283049"/>
<path fill-rule="evenodd" clip-rule="evenodd" d="M170.384 24.1298C170.491 27.2334 171.383 29.6592 173.131 31.3359C174.842 33.0125 177.196 33.8687 180.156 33.94C182.011 33.94 183.652 33.619 185.043 32.9769C186.469 32.3347 187.539 31.5856 188.288 30.7294C189.037 29.8733 189.429 29.1241 189.429 28.482C189.429 28.2323 189.358 28.0539 189.18 27.9112C189.001 27.7685 188.823 27.6972 188.573 27.6972H185.078C184.757 27.6972 184.543 27.7328 184.401 27.8042C184.258 27.8755 184.08 28.0539 183.83 28.3393C182.903 29.5522 181.654 30.1587 180.156 30.1587C178.837 30.1587 177.803 29.6592 177.054 28.696C176.305 27.7328 175.877 26.4843 175.841 25.0217V24.7006H189.001C189.287 24.7006 189.536 24.5936 189.715 24.4152C189.893 24.2368 190 23.9871 190 23.7374V22.9169C190 19.742 189.144 17.2091 187.432 15.3184C185.72 13.4277 183.295 12.4646 180.156 12.4646C177.089 12.4646 174.664 13.4277 172.952 15.3184C171.205 17.2448 170.349 19.8133 170.349 23.131L170.384 24.1298ZM184.472 21.2759V21.3473H175.805V21.2759C175.805 19.7063 176.198 18.4577 176.947 17.5302C177.731 16.6027 178.766 16.1389 180.121 16.1389C181.44 16.1389 182.51 16.6027 183.295 17.5302C184.08 18.4577 184.472 19.7063 184.472 21.2759Z" fill="#283049"/>
<path d="M163.287 13.9628L162.181 14.4265L161.254 14.8189L160.505 15.14V24.7362C160.505 26.2345 160.113 27.4474 159.293 28.3035C158.472 29.1597 157.402 29.6235 156.011 29.6235C153.194 29.6235 151.767 27.9825 151.767 24.7362V13.7844C151.767 13.3206 151.304 13.0352 150.876 13.2136L146.275 15.1043V24.9859C146.275 27.7684 146.988 29.9445 148.379 31.5142C149.77 33.0838 151.696 33.9043 154.121 33.9043C157.046 33.9043 159.257 32.9054 160.684 30.9434V32.9054C160.684 33.3692 161.147 33.6546 161.575 33.4762L165.891 31.6925V13.8201C165.891 13.3563 165.427 13.0709 164.999 13.2493L163.287 13.9628Z" fill="#283049"/>
<path d="M116.744 12.7499C117.03 12.7499 117.244 12.8212 117.422 12.9996C117.6 13.178 117.672 13.392 117.672 13.6774V16.5669C117.672 16.8523 117.6 17.0664 117.422 17.2447C117.279 17.4231 117.03 17.5301 116.744 17.5301H113.606C112.358 17.5301 111.395 17.8869 110.681 18.6003C109.968 19.3138 109.611 20.277 109.611 21.5256V31.4785L105.26 33.2622C104.761 33.4762 104.19 33.1195 104.19 32.5487V14.6762L108.292 12.9996C108.791 12.7855 109.362 13.1423 109.362 13.7131V15.354C110.681 13.606 112.572 12.7499 115.068 12.7499H116.744Z" fill="#283049"/>
<defs>
<linearGradient id="paint0_linear" x1="41.0751" y1="41.14" x2="5.87519" y2="5.99553" gradientUnits="userSpaceOnUse">
<stop offset="0.159375" stop-color="#003CDA"/>
<stop offset="1" stop-color="#33DFCC"/>
</linearGradient>
</defs>
</svg>
