<svg viewBox="0 0 30 30" fill="none" 
    xmlns="http://www.w3.org/2000/svg">
    <path d="M25.5664 25.6848C24.1695 27.0825 22.5062 28.1845 20.6755 28.9253C18.8448 29.6662 16.8841 30.0307 14.9099 29.9972C12.9471 30.0359 10.997 29.6735 9.17878 28.932C7.36053 28.1906 5.71225 27.0857 4.3346 25.6848C2.92557 24.3107 1.81391 22.6609 1.06877 20.838C0.323639 19.0151 -0.0390316 17.0581 0.00332545 15.0888C0.00332545 10.7813 1.44708 7.19012 4.3346 4.31519C5.71225 2.91433 7.36053 1.80943 9.17878 1.06799C10.997 0.32654 12.9471 -0.0358987 14.9099 0.0028029C16.8841 -0.0306929 18.8448 0.333816 20.6755 1.07465C22.5062 1.81548 24.1695 2.91751 25.5664 4.31519C28.5203 7.19012 29.9973 10.7813 29.9973 15.0888C30.0356 17.0666 29.6613 19.0306 28.8983 20.8552C28.1353 22.6797 27.0005 24.3247 25.5664 25.6848Z" fill="#8778B7"/>
    <path d="M14.8941 6.09375L23.7908 14.8739L14.9986 23.7626L6.09787 14.9824L14.8941 6.09375Z" fill="#FFCE45"/>
    <path d="M14.9623 17.8114L6.09375 14.9784L14.894 6.09375L23.7988 14.8739L14.9623 17.8114Z" fill="#FDBC43"/>
    <path d="M9.16789 14.3836L13.2104 14.3595L14.9303 12.4267L16.8671 14.3394L20.9096 14.3153L14.9021 7.91001L9.16789 14.3836Z" fill="white"/>
    <path d="M23.7866 14.8778L14.9622 17.8112L14.9984 23.7625L23.7866 14.8778Z" fill="#EDBB46"/>
    <path d="M14.894 6.09375L14.902 7.91006L20.9095 14.3154L16.867 14.3395L14.9301 12.4267L14.9623 17.8114L23.7867 14.878L23.7907 14.8739L14.894 6.09375Z" fill="#ECB343"/>
    <path d="M14.902 7.91001L14.9301 12.4267L16.867 14.3394L20.9095 14.3153L14.902 7.91001Z" fill="#EFD8B1"/>
</svg>