<svg width="570" height="360" viewBox="0 0 570 360" fill="none" 
    xmlns="http://www.w3.org/2000/svg">
    <rect width="570" height="360" rx="8" fill="white"/>
    <rect y="188.211" width="570" height="63.1579" fill="#F5F7F9"/>
    <path d="M265.097 238.896C263.606 238.896 262.461 238.342 261.663 237.234C260.876 236.126 260.483 234.522 260.483 232.424C260.483 230.349 260.876 228.763 261.663 227.667C262.461 226.57 263.606 226.022 265.097 226.022C266.589 226.022 267.729 226.57 268.515 227.667C269.313 228.763 269.712 230.349 269.712 232.424C269.712 234.522 269.313 236.126 268.515 237.234C267.729 238.342 266.589 238.896 265.097 238.896ZM265.097 236.774C265.78 236.774 266.277 236.432 266.589 235.748C266.902 235.064 267.058 233.956 267.058 232.424C267.058 230.926 266.902 229.842 266.589 229.17C266.277 228.486 265.78 228.144 265.097 228.144C264.415 228.144 263.918 228.486 263.606 229.17C263.293 229.842 263.137 230.926 263.137 232.424C263.137 233.956 263.293 235.064 263.606 235.748C263.918 236.432 264.415 236.774 265.097 236.774Z" fill="#283049"/>
    <path d="M276.406 226.146H284.924V228.286H279.043V231.256H284.559V233.414H279.043V236.597H284.924V238.737H276.406V226.146Z" fill="#283049"/>
    <path d="M289.771 228.392H285.903V226.146H296.381V228.392H292.512V238.737H289.771V228.392Z" fill="#283049"/>
    <path d="M308.853 226.146V238.737H306.199V233.449H300.474V238.737H297.82V226.146H300.474V231.239H306.199V226.146H308.853Z" fill="#283049"/>
    <path d="M525.542 45.1038L533.339 37.1548L531.587 35.3684L523.789 43.3174L515.992 35.3686L514.239 37.155L522.037 45.1038L514.239 53.0526L515.992 54.839L523.789 46.8902L531.587 54.8392L533.339 53.0528L525.542 45.1038Z" fill="#A3B0C2"/>
    <path d="M48.6122 43.8657C49.4969 44.1234 50.178 44.5815 50.6555 45.2401C51.133 45.8843 51.3717 46.6716 51.3717 47.6022C51.3717 48.4468 51.1541 49.1841 50.7187 49.8139C50.2834 50.4438 49.6584 50.9306 48.8439 51.2742C48.0434 51.6177 47.0955 51.7895 46.0001 51.7895H38.5219V36.5003H45.8105C47.3834 36.5003 48.6332 36.8582 49.5601 37.5739C50.487 38.2897 50.9504 39.2561 50.9504 40.4729C50.9504 41.2603 50.7468 41.9546 50.3395 42.5558C49.9323 43.1571 49.3565 43.5937 48.6122 43.8657ZM42.3769 42.4914H45.1364C45.8667 42.4914 46.4003 42.3769 46.7374 42.1478C47.0744 41.9188 47.2429 41.5537 47.2429 41.0527C47.2429 40.5373 47.0674 40.1579 46.7163 39.9146C46.3793 39.6712 45.8526 39.5495 45.1364 39.5495H42.3769V42.4914ZM45.5367 48.7403C46.295 48.7403 46.8357 48.6186 47.1587 48.3752C47.4957 48.1318 47.6642 47.7238 47.6642 47.1512C47.6642 46.5643 47.5027 46.1491 47.1797 45.9057C46.8567 45.6624 46.3091 45.5407 45.5367 45.5407H42.3769V48.7403H45.5367Z" fill="#283049"/>
    <path d="M58.4949 51.9613C57.3012 51.9613 56.262 51.7323 55.3772 51.2742C54.4925 50.8161 53.8114 50.1575 53.3339 49.2986C52.8564 48.4396 52.6177 47.4304 52.6177 46.2708C52.6177 45.1112 52.8564 44.1019 53.3339 43.243C53.8114 42.3841 54.4925 41.7255 55.3772 41.2674C56.262 40.8093 57.3012 40.5803 58.4949 40.5803C59.6746 40.5803 60.6997 40.8165 61.5704 41.2889C62.4552 41.747 63.1363 42.4055 63.6137 43.2645C64.0912 44.1091 64.33 45.1112 64.33 46.2708C64.33 47.4304 64.0912 48.4396 63.6137 49.2986C63.1363 50.1432 62.4552 50.8017 61.5704 51.2742C60.6997 51.7323 59.6746 51.9613 58.4949 51.9613ZM58.4949 49.0624C59.8712 49.0624 60.5593 48.1318 60.5593 46.2708C60.5593 45.3259 60.3837 44.6316 60.0327 44.1878C59.6956 43.7297 59.183 43.5007 58.4949 43.5007C57.7927 43.5007 57.2661 43.7297 56.915 44.1878C56.5639 44.6316 56.3884 45.3259 56.3884 46.2708C56.3884 47.2299 56.5639 47.9386 56.915 48.3967C57.2661 48.8405 57.7927 49.0624 58.4949 49.0624Z" fill="#283049"/>
    <path d="M72.8859 40.6232C73.4055 40.6232 73.8057 40.7019 74.0866 40.8594V44.4026C73.4827 44.1163 72.8999 43.9731 72.3382 43.9731C70.7372 43.9731 69.9368 44.7533 69.9368 46.3137V51.7895H66.124V44.0161C66.124 42.8422 66.0678 41.7971 65.9554 40.8809H69.5365L69.7682 42.7062C70.021 42.0333 70.4283 41.5179 70.99 41.1601C71.5518 40.8022 72.1837 40.6232 72.8859 40.6232Z" fill="#283049"/>
    <path d="M81.9374 40.6232C82.457 40.6232 82.8572 40.7019 83.1381 40.8594V44.4026C82.5342 44.1163 81.9514 43.9731 81.3897 43.9731C79.7887 43.9731 78.9882 44.7533 78.9882 46.3137V51.7895H75.1754V44.0161C75.1754 42.8422 75.1192 41.7971 75.0069 40.8809H78.588L78.8197 42.7062C79.0725 42.0333 79.4797 41.5179 80.0415 41.1601C80.6032 40.8022 81.2352 40.6232 81.9374 40.6232Z" fill="#283049"/>
    <path d="M89.4139 51.9613C88.2202 51.9613 87.181 51.7323 86.2962 51.2742C85.4115 50.8161 84.7304 50.1575 84.2529 49.2986C83.7754 48.4396 83.5367 47.4304 83.5367 46.2708C83.5367 45.1112 83.7754 44.1019 84.2529 43.243C84.7304 42.3841 85.4115 41.7255 86.2962 41.2674C87.181 40.8093 88.2202 40.5803 89.4139 40.5803C90.5935 40.5803 91.6187 40.8165 92.4894 41.2889C93.3741 41.747 94.0552 42.4055 94.5327 43.2645C95.0102 44.1091 95.2489 45.1112 95.2489 46.2708C95.2489 47.4304 95.0102 48.4396 94.5327 49.2986C94.0552 50.1432 93.3741 50.8017 92.4894 51.2742C91.6187 51.7323 90.5935 51.9613 89.4139 51.9613ZM89.4139 49.0624C90.7901 49.0624 91.4783 48.1318 91.4783 46.2708C91.4783 45.3259 91.3027 44.6316 90.9516 44.1878C90.6146 43.7297 90.102 43.5007 89.4139 43.5007C88.7117 43.5007 88.1851 43.7297 87.834 44.1878C87.4829 44.6316 87.3073 45.3259 87.3073 46.2708C87.3073 47.2299 87.4829 47.9386 87.834 48.3967C88.1851 48.8405 88.7117 49.0624 89.4139 49.0624Z" fill="#283049"/>
    <path d="M114.848 40.8809L110.383 51.7895H107.244L105.095 46.3782L103.073 51.7895H99.9132L95.4474 40.8809H99.3234L101.704 47.1727L104.021 40.8809H106.465L108.845 47.3015L111.183 40.8809H114.848Z" fill="#283049"/>
    <path d="M135.923 36.5003V51.7895H132.047V45.6051H125.98V51.7895H122.104V36.5003H125.98V42.4485H132.047V36.5003H135.923Z" fill="#283049"/>
    <path d="M143.805 51.9613C142.611 51.9613 141.572 51.7323 140.687 51.2742C139.803 50.8161 139.121 50.1575 138.644 49.2986C138.166 48.4396 137.928 47.4304 137.928 46.2708C137.928 45.1112 138.166 44.1019 138.644 43.243C139.121 42.3841 139.803 41.7255 140.687 41.2674C141.572 40.8093 142.611 40.5803 143.805 40.5803C144.985 40.5803 146.01 40.8165 146.88 41.2889C147.765 41.747 148.446 42.4055 148.924 43.2645C149.401 44.1091 149.64 45.1112 149.64 46.2708C149.64 47.4304 149.401 48.4396 148.924 49.2986C148.446 50.1432 147.765 50.8017 146.88 51.2742C146.01 51.7323 144.985 51.9613 143.805 51.9613ZM143.805 49.0624C145.181 49.0624 145.869 48.1318 145.869 46.2708C145.869 45.3259 145.694 44.6316 145.343 44.1878C145.006 43.7297 144.493 43.5007 143.805 43.5007C143.103 43.5007 142.576 43.7297 142.225 44.1878C141.874 44.6316 141.698 45.3259 141.698 46.2708C141.698 47.2299 141.874 47.9386 142.225 48.3967C142.576 48.8405 143.103 49.0624 143.805 49.0624Z" fill="#283049"/>
    <path d="M169.24 40.8809L164.774 51.7895H161.635L159.486 46.3782L157.464 51.7895H154.304L149.838 40.8809H153.714L156.095 47.1727L158.412 40.8809H160.856L163.236 47.3015L165.574 40.8809H169.24Z" fill="#283049"/>
    <path d="M189.914 40.5803C191.149 40.5803 192.062 40.9668 192.652 41.7398C193.256 42.5129 193.558 43.6939 193.558 45.283V51.7895H189.745V45.3904C189.745 44.7462 189.647 44.2809 189.45 43.9946C189.268 43.7083 188.952 43.5651 188.502 43.5651C187.969 43.5651 187.554 43.7655 187.259 44.1664C186.964 44.5672 186.817 45.1327 186.817 45.8628V51.7895H183.004V45.3904C183.004 44.7462 182.906 44.2809 182.709 43.9946C182.513 43.7083 182.197 43.5651 181.761 43.5651C181.228 43.5651 180.813 43.7655 180.518 44.1664C180.238 44.5672 180.097 45.1327 180.097 45.8628V51.7895H176.284V44.0161C176.284 42.8422 176.228 41.7971 176.116 40.8809H179.697L179.887 42.4055C180.21 41.8186 180.659 41.3676 181.235 41.0527C181.825 40.7377 182.499 40.5803 183.257 40.5803C184.788 40.5803 185.827 41.2388 186.375 42.5558C186.754 41.9546 187.252 41.475 187.87 41.1171C188.502 40.7592 189.183 40.5803 189.914 40.5803Z" fill="#283049"/>
    <path d="M206.53 40.8809V51.7895H202.801V50.3293C202.113 51.4173 201.095 51.9613 199.747 51.9613C198.385 51.9613 197.367 51.5748 196.692 50.8017C196.032 50.0287 195.702 48.8476 195.702 47.2586V40.8809H199.515V47.3659C199.515 48.4396 199.972 48.9765 200.884 48.9765C201.418 48.9765 201.846 48.7832 202.169 48.3967C202.506 48.0102 202.675 47.4948 202.675 46.8506V40.8809H206.53Z" fill="#283049"/>
    <path d="M214.116 51.9613C212.305 51.9613 210.886 51.4603 209.861 50.4582C208.836 49.4561 208.323 48.0889 208.323 46.3567C208.323 45.2114 208.569 44.2022 209.061 43.3289C209.566 42.4556 210.268 41.7828 211.167 41.3104C212.066 40.8236 213.105 40.5803 214.285 40.5803C215.071 40.5803 215.844 40.7019 216.602 40.9453C217.36 41.1744 217.964 41.4893 218.414 41.8902L217.445 44.5744C217.065 44.2594 216.623 44.0089 216.118 43.8228C215.612 43.6367 215.127 43.5436 214.664 43.5436C213.878 43.5436 213.274 43.7727 212.852 44.2308C212.431 44.6889 212.22 45.3689 212.22 46.2708C212.22 47.187 212.431 47.8813 212.852 48.3537C213.274 48.8118 213.885 49.0409 214.685 49.0409C215.149 49.0409 215.626 48.9478 216.118 48.7617C216.623 48.5756 217.065 48.3251 217.445 48.0102L218.414 50.6514C217.95 51.0666 217.332 51.3887 216.56 51.6177C215.802 51.8468 214.987 51.9613 214.116 51.9613Z" fill="#283049"/>
    <path d="M226.811 40.5803C228.075 40.5803 229.016 40.9739 229.634 41.7613C230.266 42.5344 230.582 43.7083 230.582 45.283V51.7895H226.769V45.4548C226.769 44.7819 226.657 44.3024 226.432 44.0161C226.207 43.7154 225.856 43.5651 225.379 43.5651C224.803 43.5651 224.34 43.7655 223.989 44.1664C223.637 44.5529 223.462 45.0683 223.462 45.7125V51.7895H219.649V35.9849H223.462V42.2123C224.29 41.1243 225.407 40.5803 226.811 40.5803Z" fill="#283049"/>
    <path d="M239.115 36.5003H245.245C246.902 36.5003 248.327 36.8081 249.521 37.4236C250.729 38.0249 251.648 38.8982 252.28 40.0434C252.926 41.1887 253.249 42.5487 253.249 44.1234C253.249 45.7125 252.933 47.0868 252.301 48.2464C251.67 49.3916 250.75 50.2721 249.542 50.8876C248.348 51.4889 246.916 51.7895 245.245 51.7895H239.115V36.5003ZM244.971 48.5685C246.431 48.5685 247.52 48.2034 248.236 47.4733C248.966 46.7289 249.331 45.6123 249.331 44.1234C249.331 41.1887 247.878 39.7213 244.971 39.7213H243.075V48.5685H244.971Z" fill="#283049"/>
    <path d="M265.231 48.6329H258.574L257.247 51.7895H253.287L260.301 36.5003H263.419L270.455 51.7895H266.558L265.231 48.6329ZM263.946 45.6051L261.902 40.7735L259.859 45.6051H263.946Z" fill="#283049"/>
    <path d="M271.309 36.5003H275.269V51.7895H271.309V36.5003Z" fill="#283049"/>
    <path d="M278.501 37.2089C279.442 36.6076 280.551 36.307 281.829 36.307C282.784 36.307 283.634 36.4716 284.378 36.8009C285.122 37.1158 285.698 37.5596 286.105 38.1323C286.527 38.7049 286.737 39.3563 286.737 40.0864C286.737 40.8451 286.534 41.4965 286.126 42.0405C285.733 42.5845 285.172 43.1714 284.441 43.8013C283.95 44.2308 283.585 44.5815 283.346 44.8535C283.107 45.1255 282.953 45.419 282.882 45.7339L282.735 46.6144H280.502V45.283C280.502 44.6102 280.621 44.059 280.86 43.6295C281.113 43.1857 281.464 42.7062 281.913 42.1908C282.236 41.8472 282.475 41.5537 282.63 41.3104C282.784 41.067 282.861 40.7878 282.861 40.4729C282.861 39.7714 282.405 39.4207 281.492 39.4207C281.029 39.4207 280.537 39.4994 280.018 39.6569C279.498 39.8001 278.992 40.0363 278.501 40.3655V37.2089ZM279.681 47.7954H283.641V51.7895H279.681V47.7954Z" fill="#283049"/>
    <path opacity="0.2" fill-rule="evenodd" clip-rule="evenodd" d="M0 275V274H570V275H0Z" fill="#A9B5C7"/>
    <rect x="395.283" y="281.684" width="137.543" height="53.0526" rx="26.5263" fill="#276BFB"/>
    <path d="M442.185 313.135C441.375 313.135 440.595 313.03 439.845 312.82C439.105 312.6 438.49 312.295 438 311.905L438.75 310.225C439.78 310.945 440.93 311.305 442.2 311.305C442.88 311.305 443.4 311.2 443.76 310.99C444.13 310.77 444.315 310.465 444.315 310.075C444.315 309.735 444.145 309.47 443.805 309.28C443.475 309.08 442.89 308.89 442.05 308.71C441.11 308.52 440.36 308.29 439.8 308.02C439.25 307.74 438.845 307.405 438.585 307.015C438.335 306.615 438.21 306.12 438.21 305.53C438.21 304.89 438.385 304.315 438.735 303.805C439.095 303.295 439.595 302.9 440.235 302.62C440.875 302.33 441.615 302.185 442.455 302.185C443.215 302.185 443.945 302.295 444.645 302.515C445.345 302.735 445.905 303.035 446.325 303.415L445.575 305.095C444.635 304.375 443.6 304.015 442.47 304.015C441.87 304.015 441.39 304.135 441.03 304.375C440.67 304.615 440.49 304.94 440.49 305.35C440.49 305.59 440.555 305.79 440.685 305.95C440.825 306.11 441.055 306.255 441.375 306.385C441.695 306.505 442.15 306.625 442.74 306.745C444.11 307.045 445.095 307.435 445.695 307.915C446.305 308.395 446.61 309.05 446.61 309.88C446.61 310.88 446.22 311.675 445.44 312.265C444.66 312.845 443.575 313.135 442.185 313.135Z" fill="white"/>
    <path d="M455.418 305.395V313H453.213V311.89C452.973 312.29 452.658 312.595 452.268 312.805C451.878 313.015 451.438 313.12 450.948 313.12C449.998 313.12 449.288 312.855 448.818 312.325C448.348 311.795 448.113 310.995 448.113 309.925V305.395H450.378V309.97C450.378 310.89 450.773 311.35 451.563 311.35C452.033 311.35 452.413 311.19 452.703 310.87C452.993 310.55 453.138 310.13 453.138 309.61V305.395H455.418Z" fill="white"/>
    <path d="M461.905 305.2C462.565 305.2 463.15 305.365 463.66 305.695C464.17 306.015 464.565 306.475 464.845 307.075C465.125 307.665 465.265 308.35 465.265 309.13C465.265 309.91 465.12 310.605 464.83 311.215C464.55 311.815 464.155 312.285 463.645 312.625C463.135 312.955 462.555 313.12 461.905 313.12C461.375 313.12 460.895 313.01 460.465 312.79C460.045 312.56 459.725 312.25 459.505 311.86V313H457.255V301.96H459.52V306.46C459.74 306.07 460.06 305.765 460.48 305.545C460.91 305.315 461.385 305.2 461.905 305.2ZM461.26 311.395C461.82 311.395 462.25 311.2 462.55 310.81C462.85 310.42 463 309.86 463 309.13C463 308.43 462.85 307.89 462.55 307.51C462.25 307.13 461.82 306.94 461.26 306.94C460.7 306.94 460.265 307.135 459.955 307.525C459.655 307.905 459.505 308.45 459.505 309.16C459.505 309.88 459.655 310.435 459.955 310.825C460.265 311.205 460.7 311.395 461.26 311.395Z" fill="white"/>
    <path d="M476.018 305.2C476.888 305.2 477.533 305.465 477.953 305.995C478.383 306.515 478.598 307.315 478.598 308.395V313H476.333V308.47C476.333 307.94 476.248 307.56 476.078 307.33C475.908 307.09 475.628 306.97 475.238 306.97C474.778 306.97 474.423 307.13 474.173 307.45C473.923 307.77 473.798 308.22 473.798 308.8V313H471.533V308.47C471.533 307.95 471.443 307.57 471.263 307.33C471.093 307.09 470.818 306.97 470.438 306.97C469.978 306.97 469.618 307.13 469.358 307.45C469.108 307.77 468.983 308.22 468.983 308.8V313H466.718V307.57C466.718 306.76 466.678 306.035 466.598 305.395H468.728L468.863 306.535C469.093 306.105 469.413 305.775 469.823 305.545C470.243 305.315 470.723 305.2 471.263 305.2C472.393 305.2 473.143 305.67 473.513 306.61C473.763 306.18 474.108 305.84 474.548 305.59C474.998 305.33 475.488 305.2 476.018 305.2Z" fill="white"/>
    <path d="M480.385 305.395H482.65V313H480.385V305.395ZM482.725 301.825V303.955H480.31V301.825H482.725Z" fill="white"/>
    <path d="M487.351 307.09V310.045C487.351 310.465 487.461 310.775 487.681 310.975C487.901 311.165 488.186 311.26 488.536 311.26C488.756 311.26 489.006 311.225 489.286 311.155V312.91C488.926 313.05 488.491 313.12 487.981 313.12C487.041 313.12 486.321 312.855 485.821 312.325C485.331 311.795 485.086 311.05 485.086 310.09V307.09H483.646V305.395H485.086V303.61L487.351 302.875V305.395H489.286V307.09H487.351Z" fill="white"/>
    <rect x="38.1739" y="85.6316" width="493.652" height="87.6842" rx="3" fill="#F5F7F9" stroke="#E7EBF0" stroke-width="2"/>
    <path d="M120.623 109.288H145.803V116.564H129.694V123.335H144.762V130.611H129.694V137.987H145.803V145.263H120.623V109.288Z" fill="#A9B5C7"/>
    <path d="M166.893 118.888C169.867 118.888 172.081 119.815 173.535 121.667C175.022 123.486 175.765 126.248 175.765 129.954V145.263H166.794V130.358C166.794 128.775 166.53 127.646 166.001 126.973C165.472 126.265 164.646 125.912 163.523 125.912C162.168 125.912 161.078 126.383 160.252 127.326C159.425 128.236 159.012 129.448 159.012 130.964V145.263H150.041V126.973C150.041 124.211 149.909 121.752 149.645 119.596H158.071L158.517 123.385C159.475 121.937 160.665 120.825 162.085 120.051C163.506 119.276 165.109 118.888 166.893 118.888Z" fill="#A9B5C7"/>
    <path d="M195.841 138.291C196.435 138.291 197.228 138.189 198.22 137.987V144.909C196.997 145.415 195.444 145.667 193.561 145.667C190.157 145.667 187.563 144.691 185.779 142.737C184.028 140.783 183.152 138.072 183.152 134.602V126.316H178.443V119.596H183.152V113.785L192.123 110.855V119.596H198.17V126.316H192.123V134.602C192.123 135.815 192.47 136.741 193.164 137.381C193.891 137.987 194.783 138.291 195.841 138.291Z" fill="#A9B5C7"/>
    <path d="M224.837 133.339H209.026C209.191 135.326 209.753 136.758 210.711 137.634C211.669 138.509 213.074 138.947 214.924 138.947C216.18 138.947 217.435 138.745 218.691 138.341C219.947 137.903 221.087 137.314 222.111 136.573L224.391 142.636C223.135 143.579 221.615 144.32 219.831 144.859C218.047 145.398 216.262 145.667 214.478 145.667C211.603 145.667 209.108 145.128 206.994 144.051C204.879 142.973 203.26 141.44 202.136 139.453C201.013 137.432 200.451 135.057 200.451 132.328C200.451 129.735 200.98 127.427 202.037 125.406C203.127 123.352 204.614 121.752 206.498 120.606C208.414 119.461 210.595 118.888 213.04 118.888C215.42 118.888 217.501 119.427 219.286 120.505C221.07 121.583 222.441 123.133 223.4 125.154C224.358 127.141 224.837 129.465 224.837 132.126V133.339ZM213.288 125.154C211.074 125.154 209.687 126.467 209.125 129.095H217.154C216.824 126.467 215.535 125.154 213.288 125.154Z" fill="#A9B5C7"/>
    <path d="M244.898 118.989C246.12 118.989 247.062 119.175 247.723 119.545V127.882C246.302 127.208 244.931 126.872 243.609 126.872C239.842 126.872 237.959 128.707 237.959 132.379V145.263H228.987V126.973C228.987 124.211 228.855 121.752 228.591 119.596H237.017L237.562 123.891C238.157 122.307 239.115 121.095 240.437 120.253C241.759 119.411 243.246 118.989 244.898 118.989Z" fill="#A9B5C7"/>
    <path d="M291.178 119.596V145.263H282.356V141.777C281.629 142.989 280.571 143.949 279.183 144.657C277.796 145.331 276.275 145.667 274.623 145.667C272.475 145.667 270.559 145.128 268.874 144.051C267.189 142.973 265.867 141.44 264.909 139.453C263.983 137.432 263.521 135.107 263.521 132.48C263.521 129.819 264 127.461 264.958 125.406C265.916 123.352 267.238 121.752 268.923 120.606C270.609 119.461 272.509 118.888 274.623 118.888C276.275 118.888 277.779 119.259 279.134 120C280.522 120.707 281.596 121.667 282.356 122.88V119.596H291.178ZM277.399 138.846C278.985 138.846 280.208 138.291 281.067 137.179C281.926 136.067 282.356 134.467 282.356 132.379C282.356 130.257 281.926 128.64 281.067 127.528C280.208 126.383 278.985 125.811 277.399 125.811C275.846 125.811 274.623 126.4 273.731 127.579C272.839 128.724 272.393 130.358 272.393 132.48C272.393 134.535 272.822 136.118 273.682 137.229C274.541 138.307 275.78 138.846 277.399 138.846Z" fill="#A9B5C7"/>
    <path d="M328.579 118.888C331.487 118.888 333.635 119.798 335.022 121.617C336.443 123.436 337.154 126.215 337.154 129.954V145.263H328.182V130.206C328.182 128.691 327.951 127.596 327.489 126.922C327.059 126.248 326.315 125.912 325.258 125.912C324.002 125.912 323.028 126.383 322.334 127.326C321.64 128.269 321.293 129.6 321.293 131.318V145.263H312.322V130.206C312.322 128.691 312.09 127.596 311.628 126.922C311.165 126.248 310.422 125.912 309.397 125.912C308.142 125.912 307.167 126.383 306.473 127.326C305.812 128.269 305.482 129.6 305.482 131.318V145.263H296.51V126.973C296.51 124.211 296.378 121.752 296.114 119.596H304.54L304.986 123.183C305.746 121.802 306.803 120.741 308.158 120C309.546 119.259 311.132 118.888 312.916 118.888C316.518 118.888 318.963 120.438 320.252 123.537C321.144 122.122 322.317 120.994 323.771 120.152C325.258 119.309 326.861 118.888 328.579 118.888Z" fill="#A9B5C7"/>
    <path d="M355.037 145.667C352.228 145.667 349.783 145.128 347.701 144.051C345.62 142.973 344.017 141.423 342.894 139.402C341.77 137.381 341.208 135.006 341.208 132.278C341.208 129.549 341.77 127.175 342.894 125.154C344.017 123.133 345.62 121.583 347.701 120.505C349.783 119.427 352.228 118.888 355.037 118.888C357.813 118.888 360.225 119.444 362.274 120.556C364.355 121.634 365.958 123.183 367.081 125.204C368.205 127.192 368.767 129.549 368.767 132.278C368.767 135.006 368.205 137.381 367.081 139.402C365.958 141.389 364.355 142.939 362.274 144.051C360.225 145.128 357.813 145.667 355.037 145.667ZM355.037 138.846C358.275 138.846 359.894 136.657 359.894 132.278C359.894 130.055 359.481 128.421 358.655 127.377C357.862 126.299 356.656 125.76 355.037 125.76C353.385 125.76 352.146 126.299 351.32 127.377C350.494 128.421 350.081 130.055 350.081 132.278C350.081 134.535 350.494 136.202 351.32 137.28C352.146 138.324 353.385 138.846 355.037 138.846Z" fill="#A9B5C7"/>
    <path d="M398.316 119.596V145.263H389.543V141.827C387.923 144.387 385.528 145.667 382.356 145.667C379.15 145.667 376.755 144.758 375.169 142.939C373.616 141.12 372.839 138.341 372.839 134.602V119.596H381.81V134.855C381.81 137.381 382.884 138.644 385.032 138.644C386.288 138.644 387.296 138.189 388.056 137.28C388.849 136.371 389.245 135.158 389.245 133.642V119.596H398.316Z" fill="#A9B5C7"/>
    <path d="M420.528 118.888C423.502 118.888 425.716 119.815 427.17 121.667C428.657 123.486 429.4 126.248 429.4 129.954V145.263H420.429V130.358C420.429 128.775 420.164 127.646 419.636 126.973C419.107 126.265 418.281 125.912 417.157 125.912C415.803 125.912 414.712 126.383 413.886 127.326C413.06 128.236 412.647 129.448 412.647 130.964V145.263H403.676V126.973C403.676 124.211 403.543 121.752 403.279 119.596H411.705L412.151 123.385C413.11 121.937 414.299 120.825 415.72 120.051C417.141 119.276 418.744 118.888 420.528 118.888Z" fill="#A9B5C7"/>
    <path d="M449.475 138.291C450.07 138.291 450.863 138.189 451.854 137.987V144.909C450.632 145.415 449.079 145.667 447.195 145.667C443.792 145.667 441.198 144.691 439.413 142.737C437.662 140.783 436.786 138.072 436.786 134.602V126.316H432.078V119.596H436.786V113.785L445.758 110.855V119.596H451.805V126.316H445.758V134.602C445.758 135.815 446.105 136.741 446.799 137.381C447.526 137.987 448.418 138.291 449.475 138.291Z" fill="#A9B5C7"/>
    <g clip-path="url(#step-2-0)">
        <path d="M70.0476 320.395C68.2524 322.229 66.1142 323.675 63.7601 324.647C61.4061 325.62 58.8845 326.099 56.3453 326.056C53.8208 326.106 51.3129 325.629 48.9749 324.656C46.6369 323.683 44.5179 322.233 42.7474 320.395C40.9357 318.594 39.5063 316.432 38.5482 314.044C37.5901 311.655 37.1237 309.09 37.1782 306.51C37.1782 300.859 39.0346 296.151 42.7474 292.387C44.5191 290.552 46.6386 289.105 48.9766 288.134C51.3145 287.163 53.8218 286.689 56.3453 286.741C58.8835 286.696 61.4045 287.173 63.7585 288.143C66.1124 289.113 68.2512 290.556 70.0476 292.387C73.8459 296.151 75.7451 300.859 75.7451 306.51C75.7943 309.102 75.313 311.675 74.3319 314.066C73.3508 316.457 71.8916 318.613 70.0476 320.395Z" fill="#8A93B1"/>
        <path d="M56.4733 293.45L48.7463 306.498L56.4733 302.922V293.45Z" fill="white"/>
        <path d="M56.4733 303.905L48.7463 306.498L56.4733 311.143V303.905Z" fill="white"/>
        <path d="M56.4732 293.45V302.922L64.1928 306.498L56.4732 293.45Z" fill="white"/>
        <path d="M56.4732 303.905V311.143L64.1928 306.498L56.4732 303.905Z" fill="white"/>
        <path d="M48.7463 307.987L56.4733 319.069V312.636L48.7463 307.987Z" fill="white"/>
        <path d="M64.2002 307.987L56.4732 312.636V319.069L64.2002 307.987Z" fill="white"/>
    </g>
    <path d="M89.9296 301.577C89.1426 301.577 88.4637 301.404 87.8928 301.058C87.3219 300.712 86.8822 300.217 86.5736 299.572C86.265 298.927 86.1107 298.16 86.1107 297.271C86.1107 296.383 86.265 295.62 86.5736 294.983C86.8822 294.346 87.3219 293.854 87.8928 293.508C88.4637 293.162 89.1426 292.989 89.9296 292.989C90.4928 292.989 91.0135 293.08 91.4918 293.26C91.9702 293.433 92.3829 293.697 92.7301 294.051L92.3713 294.794C91.9779 294.448 91.5883 294.2 91.2025 294.051C90.8168 293.901 90.3963 293.827 89.9411 293.827C89.0385 293.827 88.3364 294.126 87.835 294.723C87.3412 295.321 87.0943 296.17 87.0943 297.271C87.0943 298.38 87.3412 299.237 87.835 299.843C88.3287 300.441 89.0308 300.74 89.9411 300.74C90.3963 300.74 90.8168 300.665 91.2025 300.515C91.5883 300.366 91.9779 300.118 92.3713 299.772L92.7301 300.515C92.3829 300.869 91.9702 301.137 91.4918 301.318C91.0135 301.491 90.4928 301.577 89.9296 301.577Z" fill="#758295"/>
    <path d="M96.5007 301.565C95.9452 301.565 95.4592 301.439 95.0426 301.188C94.6337 300.936 94.3135 300.582 94.0821 300.126C93.8583 299.662 93.7465 299.116 93.7465 298.486C93.7465 297.865 93.8583 297.322 94.0821 296.858C94.3135 296.394 94.6337 296.037 95.0426 295.785C95.4592 295.533 95.9452 295.407 96.5007 295.407C97.0562 295.407 97.5383 295.533 97.9472 295.785C98.3638 296.037 98.684 296.394 98.9077 296.858C99.1392 297.322 99.2549 297.865 99.2549 298.486C99.2549 299.116 99.1392 299.662 98.9077 300.126C98.684 300.582 98.3638 300.936 97.9472 301.188C97.5383 301.439 97.0562 301.565 96.5007 301.565ZM96.5007 300.775C97.0716 300.775 97.5113 300.582 97.8199 300.197C98.1362 299.804 98.2944 299.234 98.2944 298.486C98.2944 297.755 98.1362 297.193 97.8199 296.799C97.5036 296.406 97.0639 296.21 96.5007 296.21C95.9375 296.21 95.4939 296.406 95.1699 296.799C94.8536 297.193 94.6954 297.755 94.6954 298.486C94.6954 299.234 94.8497 299.804 95.1583 300.197C95.4746 300.582 95.9221 300.775 96.5007 300.775Z" fill="#758295"/>
    <path d="M100.716 301.483V292.8H101.653V301.483H100.716Z" fill="#758295"/>
    <path d="M103.474 301.483V292.8H104.411V301.483H103.474Z" fill="#758295"/>
    <path d="M108.465 301.565C107.948 301.565 107.492 301.443 107.099 301.2C106.713 300.948 106.412 300.594 106.196 300.138C105.988 299.674 105.884 299.131 105.884 298.51C105.884 297.889 105.992 297.346 106.208 296.882C106.424 296.418 106.725 296.056 107.111 295.797C107.504 295.537 107.955 295.407 108.465 295.407C108.997 295.407 109.448 295.541 109.818 295.809C110.189 296.076 110.44 296.457 110.571 296.953L110.432 297.047V295.549H111.358V301.483H110.432V299.949L110.571 300.02C110.44 300.515 110.189 300.897 109.818 301.164C109.448 301.432 108.997 301.565 108.465 301.565ZM108.65 300.775C109.221 300.775 109.66 300.578 109.969 300.185C110.278 299.784 110.432 299.218 110.432 298.486C110.432 297.755 110.274 297.193 109.957 296.799C109.649 296.406 109.213 296.21 108.65 296.21C108.079 296.21 107.631 296.414 107.307 296.823C106.991 297.224 106.833 297.786 106.833 298.51C106.833 299.234 106.991 299.792 107.307 300.185C107.631 300.578 108.079 300.775 108.65 300.775Z" fill="#758295"/>
    <path d="M112.348 296.304V295.549H116.086V296.304H112.348ZM116.063 300.633V301.447C115.932 301.487 115.801 301.514 115.67 301.53C115.546 301.554 115.407 301.565 115.253 301.565C114.713 301.565 114.281 301.408 113.957 301.093C113.641 300.779 113.482 300.307 113.482 299.678V294.027L114.42 293.685V299.548C114.42 299.863 114.462 300.106 114.547 300.279C114.64 300.452 114.763 300.574 114.917 300.645C115.072 300.708 115.245 300.74 115.438 300.74C115.554 300.74 115.658 300.732 115.751 300.716C115.843 300.7 115.947 300.673 116.063 300.633Z" fill="#758295"/>
    <path d="M121.984 300.775C121.729 301.019 121.401 301.211 121 301.353C120.606 301.495 120.201 301.565 119.785 301.565C119.183 301.565 118.662 301.443 118.223 301.2C117.791 300.956 117.455 300.606 117.216 300.15C116.984 299.686 116.869 299.135 116.869 298.498C116.869 297.885 116.984 297.346 117.216 296.882C117.447 296.418 117.767 296.056 118.176 295.797C118.593 295.537 119.071 295.407 119.611 295.407C120.128 295.407 120.572 295.525 120.942 295.761C121.312 295.989 121.594 296.32 121.787 296.752C121.987 297.185 122.088 297.704 122.088 298.309V298.486H117.69V297.861H121.555L121.255 298.298C121.27 297.606 121.135 297.075 120.849 296.705C120.572 296.335 120.163 296.151 119.623 296.151C119.06 296.151 118.616 296.355 118.292 296.764C117.976 297.165 117.818 297.724 117.818 298.439C117.818 299.21 117.983 299.792 118.315 300.185C118.655 300.578 119.148 300.775 119.796 300.775C120.136 300.775 120.46 300.72 120.768 300.61C121.085 300.492 121.386 300.315 121.671 300.079L121.984 300.775Z" fill="#758295"/>
    <path d="M123.511 301.483V297.212C123.511 296.937 123.503 296.662 123.487 296.387C123.48 296.103 123.457 295.824 123.418 295.549H124.309L124.436 297.012L124.309 296.976C124.417 296.457 124.648 296.068 125.003 295.809C125.366 295.541 125.771 295.407 126.218 295.407C126.319 295.407 126.411 295.415 126.496 295.431C126.589 295.439 126.674 295.455 126.751 295.478L126.728 296.351C126.55 296.288 126.346 296.257 126.114 296.257C125.713 296.257 125.389 296.347 125.142 296.528C124.903 296.709 124.726 296.941 124.61 297.224C124.502 297.499 124.448 297.79 124.448 298.097V301.483H123.511Z" fill="#758295"/>
    <path d="M129.824 301.565C129.307 301.565 128.852 301.443 128.458 301.2C128.072 300.948 127.772 300.594 127.556 300.138C127.347 299.674 127.243 299.131 127.243 298.51C127.243 297.889 127.351 297.346 127.567 296.882C127.783 296.418 128.084 296.056 128.47 295.797C128.863 295.537 129.315 295.407 129.824 295.407C130.356 295.407 130.807 295.541 131.178 295.809C131.548 296.076 131.799 296.457 131.93 296.953L131.791 297.047V295.549H132.717V301.483H131.791V299.949L131.93 300.02C131.799 300.515 131.548 300.897 131.178 301.164C130.807 301.432 130.356 301.565 129.824 301.565ZM130.009 300.775C130.58 300.775 131.02 300.578 131.328 300.185C131.637 299.784 131.791 299.218 131.791 298.486C131.791 297.755 131.633 297.193 131.317 296.799C131.008 296.406 130.572 296.21 130.009 296.21C129.438 296.21 128.99 296.414 128.666 296.823C128.35 297.224 128.192 297.786 128.192 298.51C128.192 299.234 128.35 299.792 128.666 300.185C128.99 300.578 129.438 300.775 130.009 300.775Z" fill="#758295"/>
    <path d="M134.529 301.483V292.8H135.466V301.483H134.529Z" fill="#758295"/>
    <path d="M137.125 300.268H138.317V301.483H137.125V300.268ZM137.125 295.679H138.317V296.906H137.125V295.679Z" fill="#758295"/>
    <path d="M143.098 301.483V293.083H148.306V293.886H144.035V296.811H148.074V297.625H144.035V300.681H148.306V301.483H143.098Z" fill="#758295"/>
    <path d="M151.756 301.483V293.909H148.886V293.083H155.587V293.909H152.717V301.483H151.756Z" fill="#758295"/>
    <path d="M162.617 301.483V293.083H163.566V301.483H162.617ZM156.739 301.483V293.083H157.676V301.483H156.739ZM157.178 297.625V296.811H163.15V297.625H157.178Z" fill="#758295"/>
    <path d="M89.9287 321.239C89.1417 321.239 88.4628 321.066 87.8919 320.72C87.321 320.374 86.8813 319.878 86.5727 319.233C86.2641 318.588 86.1098 317.822 86.1098 316.933C86.1098 316.044 86.2641 315.281 86.5727 314.644C86.8813 314.007 87.321 313.516 87.8919 313.17C88.4628 312.824 89.1417 312.651 89.9287 312.651C90.4918 312.651 91.0126 312.741 91.4909 312.922C91.9693 313.095 92.382 313.359 92.7292 313.712L92.3704 314.456C91.977 314.11 91.5874 313.862 91.2016 313.712C90.8159 313.563 90.3954 313.488 89.9402 313.488C89.0376 313.488 88.3355 313.787 87.8341 314.385C87.3403 314.983 87.0934 315.832 87.0934 316.933C87.0934 318.042 87.3403 318.899 87.8341 319.505C88.3278 320.102 89.0299 320.401 89.9402 320.401C90.3954 320.401 90.8159 320.326 91.2016 320.177C91.5874 320.028 91.977 319.78 92.3704 319.434L92.7292 320.177C92.382 320.531 91.9693 320.798 91.4909 320.979C91.0126 321.152 90.4918 321.239 89.9287 321.239Z" fill="#5074EB"/>
    <path d="M94.2057 321.144V312.462H95.1431V316.414L94.9927 316.532C95.1547 316.052 95.4247 315.69 95.8027 315.447C96.1807 315.195 96.6166 315.069 97.1104 315.069C98.5068 315.069 99.205 315.852 99.205 317.417V321.144H98.2676V317.464C98.2676 316.913 98.1596 316.512 97.9436 316.261C97.7276 316.001 97.3881 315.871 96.9252 315.871C96.3852 315.871 95.9532 316.04 95.6291 316.378C95.3051 316.717 95.1431 317.173 95.1431 317.747V321.144H94.2057Z" fill="#5074EB"/>
    <path d="M103.209 321.227C102.692 321.227 102.237 321.105 101.843 320.861C101.457 320.61 101.156 320.256 100.94 319.8C100.732 319.336 100.628 318.793 100.628 318.172C100.628 317.55 100.736 317.008 100.952 316.544C101.168 316.08 101.469 315.718 101.855 315.458C102.248 315.199 102.699 315.069 103.209 315.069C103.741 315.069 104.192 315.203 104.563 315.47C104.933 315.738 105.184 316.119 105.315 316.614L105.176 316.709V315.211H106.102V321.144H105.176V319.611L105.315 319.682C105.184 320.177 104.933 320.558 104.563 320.826C104.192 321.093 103.741 321.227 103.209 321.227ZM103.394 320.437C103.965 320.437 104.404 320.24 104.713 319.847C105.022 319.446 105.176 318.879 105.176 318.148C105.176 317.417 105.018 316.854 104.701 316.461C104.393 316.068 103.957 315.871 103.394 315.871C102.823 315.871 102.375 316.076 102.051 316.485C101.735 316.886 101.577 317.448 101.577 318.172C101.577 318.895 101.735 319.454 102.051 319.847C102.375 320.24 102.823 320.437 103.394 320.437Z" fill="#5074EB"/>
    <path d="M107.914 321.144V316.874C107.914 316.599 107.906 316.323 107.891 316.048C107.883 315.765 107.86 315.486 107.821 315.211H108.713L108.817 316.437L108.701 316.532C108.863 316.052 109.133 315.69 109.511 315.447C109.889 315.195 110.325 315.069 110.819 315.069C112.215 315.069 112.913 315.852 112.913 317.417V321.144H111.976V317.464C111.976 316.913 111.868 316.512 111.652 316.261C111.436 316.001 111.096 315.871 110.634 315.871C110.093 315.871 109.661 316.04 109.337 316.378C109.013 316.717 108.851 317.173 108.851 317.747V321.144H107.914Z" fill="#5074EB"/>
    <path d="M117.241 323.775C116.361 323.775 115.598 323.571 114.95 323.162L115.112 322.383C115.474 322.595 115.817 322.749 116.142 322.843C116.466 322.938 116.832 322.985 117.241 322.985C117.796 322.985 118.217 322.831 118.502 322.525C118.795 322.226 118.942 321.777 118.942 321.18V319.575L119.069 319.422C118.977 319.737 118.83 320.012 118.63 320.248C118.437 320.476 118.198 320.653 117.912 320.779C117.627 320.905 117.303 320.967 116.94 320.967C116.423 320.967 115.968 320.846 115.574 320.602C115.189 320.35 114.884 320.004 114.66 319.564C114.444 319.123 114.336 318.608 114.336 318.018C114.336 317.428 114.444 316.913 114.66 316.473C114.884 316.032 115.189 315.69 115.574 315.447C115.968 315.195 116.423 315.069 116.94 315.069C117.48 315.069 117.935 315.207 118.306 315.482C118.684 315.749 118.938 316.127 119.069 316.614L118.93 316.485V315.211H119.868V321.097C119.868 321.986 119.644 322.654 119.197 323.103C118.757 323.551 118.105 323.775 117.241 323.775ZM117.125 320.165C117.688 320.165 118.128 319.977 118.444 319.599C118.768 319.214 118.93 318.687 118.93 318.018C118.93 317.35 118.768 316.827 118.444 316.449C118.128 316.064 117.688 315.871 117.125 315.871C116.554 315.871 116.103 316.064 115.771 316.449C115.447 316.827 115.285 317.35 115.285 318.018C115.285 318.695 115.447 319.222 115.771 319.599C116.103 319.977 116.554 320.165 117.125 320.165Z" fill="#5074EB"/>
    <path d="M126.435 320.437C126.181 320.68 125.853 320.873 125.452 321.015C125.058 321.156 124.653 321.227 124.237 321.227C123.635 321.227 123.114 321.105 122.674 320.861C122.242 320.617 121.907 320.268 121.668 319.811C121.436 319.347 121.32 318.797 121.32 318.16C121.32 317.546 121.436 317.008 121.668 316.544C121.899 316.08 122.219 315.718 122.628 315.458C123.045 315.199 123.523 315.069 124.063 315.069C124.58 315.069 125.024 315.187 125.394 315.423C125.764 315.651 126.046 315.981 126.239 316.414C126.439 316.846 126.539 317.365 126.539 317.971V318.148H122.142V317.523H126.007L125.706 317.959C125.722 317.267 125.587 316.736 125.301 316.367C125.024 315.997 124.615 315.812 124.075 315.812C123.511 315.812 123.068 316.017 122.744 316.426C122.427 316.827 122.269 317.385 122.269 318.101C122.269 318.872 122.435 319.454 122.767 319.847C123.106 320.24 123.6 320.437 124.248 320.437C124.588 320.437 124.912 320.382 125.22 320.271C125.537 320.153 125.837 319.977 126.123 319.741L126.435 320.437Z" fill="#5074EB"/>
    <path fill-rule="evenodd" clip-rule="evenodd" d="M86.739 323.368H126.391V324.632H86.739V323.368Z" fill="#5074EB" fill-opacity="0.4"/>
    <path d="M174.919 216V206.269H171.232V205.208H179.841V206.269H176.154V216H174.919Z" fill="#A9B5C7"/>
    <path d="M183.118 216.106C182.405 216.106 181.78 215.944 181.245 215.621C180.719 215.298 180.308 214.843 180.011 214.257C179.723 213.661 179.579 212.958 179.579 212.15C179.579 211.352 179.723 210.654 180.011 210.058C180.308 209.462 180.719 209.002 181.245 208.679C181.78 208.355 182.405 208.194 183.118 208.194C183.832 208.194 184.452 208.355 184.977 208.679C185.512 209.002 185.924 209.462 186.211 210.058C186.509 210.654 186.657 211.352 186.657 212.15C186.657 212.958 186.509 213.661 186.211 214.257C185.924 214.843 185.512 215.298 184.977 215.621C184.452 215.944 183.832 216.106 183.118 216.106ZM183.118 215.091C183.852 215.091 184.417 214.843 184.813 214.348C185.22 213.843 185.423 213.11 185.423 212.15C185.423 211.21 185.22 210.488 184.813 209.982C184.407 209.477 183.842 209.224 183.118 209.224C182.395 209.224 181.825 209.477 181.408 209.982C181.002 210.488 180.799 211.21 180.799 212.15C180.799 213.11 180.997 213.843 181.393 214.348C181.8 214.843 182.375 215.091 183.118 215.091Z" fill="#A9B5C7"/>
    <path d="M195.505 216.106C194.791 216.106 194.166 215.944 193.631 215.621C193.106 215.298 192.694 214.843 192.397 214.257C192.11 213.661 191.966 212.958 191.966 212.15C191.966 211.352 192.11 210.654 192.397 210.058C192.694 209.462 193.106 209.002 193.631 208.679C194.166 208.355 194.791 208.194 195.505 208.194C196.218 208.194 196.838 208.355 197.363 208.679C197.899 209.002 198.31 209.462 198.598 210.058C198.895 210.654 199.044 211.352 199.044 212.15C199.044 212.958 198.895 213.661 198.598 214.257C198.31 214.843 197.899 215.298 197.363 215.621C196.838 215.944 196.218 216.106 195.505 216.106ZM195.505 215.091C196.238 215.091 196.803 214.843 197.2 214.348C197.606 213.843 197.81 213.11 197.81 212.15C197.81 211.21 197.606 210.488 197.2 209.982C196.793 209.477 196.228 209.224 195.505 209.224C194.781 209.224 194.211 209.477 193.795 209.982C193.388 210.488 193.185 211.21 193.185 212.15C193.185 213.11 193.383 213.843 193.78 214.348C194.186 214.843 194.761 215.091 195.505 215.091Z" fill="#A9B5C7"/>
    <path d="M200.921 219.274V210.513C200.921 210.159 200.911 209.805 200.891 209.452C200.882 209.088 200.852 208.729 200.802 208.376H201.947L202.081 209.952L201.962 210.179C202.131 209.543 202.453 209.053 202.929 208.709C203.404 208.365 203.979 208.194 204.653 208.194C205.308 208.194 205.883 208.36 206.378 208.694C206.884 209.027 207.275 209.492 207.553 210.088C207.841 210.685 207.984 211.382 207.984 212.18C207.984 212.979 207.841 213.676 207.553 214.272C207.275 214.858 206.889 215.313 206.393 215.636C205.898 215.949 205.318 216.106 204.653 216.106C203.979 216.106 203.404 215.934 202.929 215.591C202.453 215.247 202.131 214.757 201.962 214.12L202.126 213.969V219.274H200.921ZM204.43 215.091C205.154 215.091 205.719 214.838 206.126 214.333C206.532 213.827 206.735 213.11 206.735 212.18C206.735 211.251 206.532 210.528 206.126 210.013C205.719 209.487 205.154 209.224 204.43 209.224C203.687 209.224 203.117 209.477 202.72 209.982C202.324 210.488 202.126 211.21 202.126 212.15C202.126 213.09 202.324 213.817 202.72 214.333C203.117 214.838 203.687 215.091 204.43 215.091Z" fill="#A9B5C7"/>
    <path d="M215.963 215.091C215.636 215.404 215.215 215.651 214.699 215.833C214.194 216.015 213.673 216.106 213.138 216.106C212.365 216.106 211.696 215.949 211.131 215.636C210.576 215.323 210.144 214.873 209.837 214.287C209.54 213.691 209.391 212.984 209.391 212.165C209.391 211.377 209.54 210.685 209.837 210.088C210.135 209.492 210.546 209.027 211.071 208.694C211.607 208.36 212.221 208.194 212.915 208.194C213.579 208.194 214.149 208.345 214.625 208.648C215.101 208.941 215.463 209.366 215.711 209.922C215.968 210.477 216.097 211.144 216.097 211.923V212.15H210.447V211.347H215.413L215.027 211.907C215.046 211.018 214.873 210.336 214.506 209.861C214.149 209.386 213.624 209.149 212.93 209.149C212.206 209.149 211.636 209.411 211.22 209.937C210.814 210.452 210.61 211.17 210.61 212.089C210.61 213.08 210.823 213.827 211.25 214.333C211.686 214.838 212.32 215.091 213.153 215.091C213.589 215.091 214.006 215.02 214.402 214.878C214.809 214.727 215.195 214.499 215.562 214.196L215.963 215.091Z" fill="#A9B5C7"/>
    <path d="M217.925 216V210.513C217.925 210.159 217.915 209.805 217.896 209.452C217.886 209.088 217.856 208.729 217.806 208.376H218.951L219.085 209.952L218.937 210.073C219.145 209.457 219.492 208.992 219.977 208.679C220.463 208.355 221.023 208.194 221.658 208.194C223.452 208.194 224.349 209.199 224.349 211.21V216H223.145V211.271C223.145 210.563 223.006 210.048 222.728 209.725C222.451 209.391 222.014 209.224 221.42 209.224C220.726 209.224 220.171 209.442 219.754 209.876C219.338 210.311 219.13 210.897 219.13 211.635V216H217.925Z" fill="#A9B5C7"/>
    <path d="M229.445 209.346V208.376H234.248V209.346H229.445ZM234.218 214.909V215.955C234.049 216.005 233.881 216.04 233.712 216.061C233.554 216.091 233.375 216.106 233.177 216.106C232.483 216.106 231.928 215.904 231.512 215.5C231.105 215.096 230.902 214.489 230.902 213.681V206.42L232.107 205.981V213.514C232.107 213.918 232.161 214.232 232.27 214.454C232.389 214.676 232.548 214.833 232.746 214.924C232.944 215.005 233.167 215.045 233.415 215.045C233.564 215.045 233.698 215.035 233.817 215.015C233.935 214.995 234.069 214.959 234.218 214.909Z" fill="#A9B5C7"/>
    <path d="M235.699 216V204.844H236.904V209.922L236.71 210.073C236.918 209.457 237.265 208.992 237.751 208.679C238.237 208.355 238.797 208.194 239.431 208.194C241.226 208.194 242.123 209.199 242.123 211.21V216H240.918V211.271C240.918 210.563 240.78 210.048 240.502 209.725C240.224 209.391 239.788 209.224 239.193 209.224C238.5 209.224 237.944 209.442 237.528 209.876C237.112 210.311 236.904 210.897 236.904 211.635V216H235.699Z" fill="#A9B5C7"/>
    <path d="M250.524 215.091C250.196 215.404 249.775 215.651 249.26 215.833C248.754 216.015 248.234 216.106 247.698 216.106C246.925 216.106 246.256 215.949 245.691 215.636C245.136 215.323 244.705 214.873 244.397 214.287C244.1 213.691 243.951 212.984 243.951 212.165C243.951 211.377 244.1 210.685 244.397 210.088C244.695 209.492 245.106 209.027 245.631 208.694C246.167 208.36 246.781 208.194 247.475 208.194C248.139 208.194 248.709 208.345 249.185 208.648C249.661 208.941 250.023 209.366 250.271 209.922C250.528 210.477 250.657 211.144 250.657 211.923V212.15H245.007V211.347H249.973L249.587 211.907C249.607 211.018 249.433 210.336 249.066 209.861C248.709 209.386 248.184 209.149 247.49 209.149C246.766 209.149 246.196 209.411 245.78 209.937C245.374 210.452 245.17 211.17 245.17 212.089C245.17 213.08 245.384 213.827 245.81 214.333C246.246 214.838 246.88 215.091 247.713 215.091C248.149 215.091 248.566 215.02 248.962 214.878C249.369 214.727 249.755 214.499 250.122 214.196L250.524 215.091Z" fill="#A9B5C7"/>
    <path d="M256.363 216V204.844H257.567V216H256.363Z" fill="#A9B5C7"/>
    <path d="M262.999 216.106C262.285 216.106 261.66 215.944 261.125 215.621C260.6 215.298 260.188 214.843 259.891 214.257C259.603 213.661 259.46 212.958 259.46 212.15C259.46 211.352 259.603 210.654 259.891 210.058C260.188 209.462 260.6 209.002 261.125 208.679C261.66 208.355 262.285 208.194 262.999 208.194C263.712 208.194 264.332 208.355 264.857 208.679C265.393 209.002 265.804 209.462 266.091 210.058C266.389 210.654 266.538 211.352 266.538 212.15C266.538 212.958 266.389 213.661 266.091 214.257C265.804 214.843 265.393 215.298 264.857 215.621C264.332 215.944 263.712 216.106 262.999 216.106ZM262.999 215.091C263.732 215.091 264.297 214.843 264.694 214.348C265.1 213.843 265.303 213.11 265.303 212.15C265.303 211.21 265.1 210.488 264.694 209.982C264.287 209.477 263.722 209.224 262.999 209.224C262.275 209.224 261.705 209.477 261.289 209.982C260.882 210.488 260.679 211.21 260.679 212.15C260.679 213.11 260.877 213.843 261.274 214.348C261.68 214.843 262.255 215.091 262.999 215.091Z" fill="#A9B5C7"/>
    <path d="M271.285 216.106C270.621 216.106 270.036 215.949 269.53 215.636C269.035 215.313 268.648 214.858 268.37 214.272C268.103 213.676 267.969 212.979 267.969 212.18C267.969 211.382 268.108 210.685 268.385 210.088C268.663 209.492 269.05 209.027 269.545 208.694C270.051 208.36 270.631 208.194 271.285 208.194C271.969 208.194 272.549 208.365 273.025 208.709C273.501 209.053 273.823 209.543 273.991 210.179L273.813 210.301V208.376H275.002V216H273.813V214.029L273.991 214.12C273.823 214.757 273.501 215.247 273.025 215.591C272.549 215.934 271.969 216.106 271.285 216.106ZM271.523 215.091C272.256 215.091 272.821 214.838 273.218 214.333C273.614 213.817 273.813 213.09 273.813 212.15C273.813 211.21 273.61 210.488 273.203 209.982C272.807 209.477 272.246 209.224 271.523 209.224C270.789 209.224 270.214 209.487 269.798 210.013C269.392 210.528 269.188 211.251 269.188 212.18C269.188 213.11 269.392 213.827 269.798 214.333C270.214 214.838 270.789 215.091 271.523 215.091Z" fill="#A9B5C7"/>
    <path d="M277.331 216V210.513C277.331 210.159 277.321 209.805 277.301 209.452C277.291 209.088 277.262 208.729 277.212 208.376H278.357L278.491 209.952L278.342 210.073C278.55 209.457 278.897 208.992 279.383 208.679C279.869 208.355 280.429 208.194 281.063 208.194C282.858 208.194 283.755 209.199 283.755 211.21V216H282.55V211.271C282.55 210.563 282.411 210.048 282.134 209.725C281.856 209.391 281.42 209.224 280.825 209.224C280.131 209.224 279.576 209.442 279.16 209.876C278.744 210.311 278.535 210.897 278.535 211.635V216H277.331Z" fill="#A9B5C7"/>
    <path d="M286.446 217.743L285.88 217.304C286.148 217.011 286.327 216.743 286.416 216.5C286.505 216.258 286.55 216.01 286.55 215.757L286.906 216H285.821V214.439H287.353V215.545C287.353 215.949 287.283 216.328 287.144 216.682C287.015 217.046 286.783 217.4 286.446 217.743Z" fill="#A9B5C7"/>
    <path d="M292.991 219.441L292.738 218.486C293.194 218.375 293.576 218.243 293.883 218.092C294.2 217.95 294.463 217.763 294.671 217.531C294.889 217.299 295.078 216.99 295.236 216.606L295.712 215.485L295.98 215.106L298.716 208.376H299.92L296.426 216.697C296.158 217.314 295.856 217.804 295.519 218.168C295.182 218.541 294.8 218.824 294.374 219.016C293.957 219.208 293.496 219.35 292.991 219.441ZM295.727 216.394L292.366 208.376H293.63L296.337 215.106L295.727 216.394Z" fill="#A9B5C7"/>
    <path d="M304.253 216.106C303.539 216.106 302.915 215.944 302.379 215.621C301.854 215.298 301.443 214.843 301.145 214.257C300.858 213.661 300.714 212.958 300.714 212.15C300.714 211.352 300.858 210.654 301.145 210.058C301.443 209.462 301.854 209.002 302.379 208.679C302.915 208.355 303.539 208.194 304.253 208.194C304.967 208.194 305.586 208.355 306.112 208.679C306.647 209.002 307.058 209.462 307.346 210.058C307.643 210.654 307.792 211.352 307.792 212.15C307.792 212.958 307.643 213.661 307.346 214.257C307.058 214.843 306.647 215.298 306.112 215.621C305.586 215.944 304.967 216.106 304.253 216.106ZM304.253 215.091C304.987 215.091 305.552 214.843 305.948 214.348C306.355 213.843 306.558 213.11 306.558 212.15C306.558 211.21 306.355 210.488 305.948 209.982C305.542 209.477 304.977 209.224 304.253 209.224C303.529 209.224 302.959 209.477 302.543 209.982C302.137 210.488 301.933 211.21 301.933 212.15C301.933 213.11 302.132 213.843 302.528 214.348C302.935 214.843 303.509 215.091 304.253 215.091Z" fill="#A9B5C7"/>
    <path d="M312.316 216.106C311.424 216.106 310.75 215.853 310.294 215.348C309.848 214.843 309.625 214.095 309.625 213.105V208.376H310.829V213.075C310.829 213.762 310.968 214.267 311.246 214.59C311.523 214.914 311.944 215.075 312.51 215.075C313.174 215.075 313.709 214.858 314.115 214.424C314.522 213.989 314.725 213.408 314.725 212.68V208.376H315.93V216H314.755V214.348L314.933 214.257C314.735 214.863 314.398 215.323 313.922 215.636C313.456 215.949 312.921 216.106 312.316 216.106Z" fill="#A9B5C7"/>
    <path d="M324.136 216L321.37 208.376H322.634L324.939 215.091H324.552L326.931 208.376H327.987L330.337 215.091H329.95L332.299 208.376H333.489L330.723 216H329.563L327.095 209.133H327.749L325.296 216H324.136Z" fill="#A9B5C7"/>
    <path d="M335.052 216V208.376H336.257V216H335.052ZM334.933 205.147H336.405V206.541H334.933V205.147Z" fill="#A9B5C7"/>
    <path d="M338.595 216V204.844H339.8V216H338.595Z" fill="#A9B5C7"/>
    <path d="M342.139 216V204.844H343.343V216H342.139Z" fill="#A9B5C7"/>
    <path d="M356.146 216H354.956V213.954L355.135 214.12C354.966 214.757 354.644 215.247 354.168 215.591C353.693 215.934 353.113 216.106 352.429 216.106C351.774 216.106 351.194 215.944 350.689 215.621C350.193 215.288 349.807 214.823 349.529 214.227C349.251 213.62 349.113 212.918 349.113 212.12C349.113 211.321 349.247 210.629 349.514 210.043C349.792 209.457 350.178 209.002 350.674 208.679C351.18 208.355 351.764 208.194 352.429 208.194C353.113 208.194 353.693 208.371 354.168 208.724C354.644 209.068 354.966 209.553 355.135 210.179L354.942 210.331V204.844H356.146V216ZM352.667 215.091C353.39 215.091 353.95 214.838 354.347 214.333C354.753 213.817 354.956 213.09 354.956 212.15C354.956 211.22 354.758 210.503 354.362 209.997C353.965 209.482 353.4 209.224 352.667 209.224C351.933 209.224 351.358 209.477 350.942 209.982C350.535 210.488 350.332 211.2 350.332 212.12C350.332 213.059 350.535 213.792 350.942 214.317C351.358 214.833 351.933 215.091 352.667 215.091Z" fill="#A9B5C7"/>
    <path d="M364.601 215.091C364.274 215.404 363.853 215.651 363.337 215.833C362.832 216.015 362.311 216.106 361.776 216.106C361.003 216.106 360.333 215.949 359.768 215.636C359.213 215.323 358.782 214.873 358.475 214.287C358.177 213.691 358.029 212.984 358.029 212.165C358.029 211.377 358.177 210.685 358.475 210.088C358.772 209.492 359.184 209.027 359.709 208.694C360.244 208.36 360.859 208.194 361.553 208.194C362.217 208.194 362.787 208.345 363.263 208.648C363.739 208.941 364.1 209.366 364.348 209.922C364.606 210.477 364.735 211.144 364.735 211.923V212.15H359.084V211.347H364.051L363.664 211.907C363.684 211.018 363.511 210.336 363.144 209.861C362.787 209.386 362.262 209.149 361.568 209.149C360.844 209.149 360.274 209.411 359.858 209.937C359.451 210.452 359.248 211.17 359.248 212.089C359.248 213.08 359.461 213.827 359.887 214.333C360.324 214.838 360.958 215.091 361.791 215.091C362.227 215.091 362.643 215.02 363.04 214.878C363.446 214.727 363.833 214.499 364.2 214.196L364.601 215.091Z" fill="#A9B5C7"/>
    <path d="M366.563 219.274V210.513C366.563 210.159 366.553 209.805 366.533 209.452C366.523 209.088 366.494 208.729 366.444 208.376H367.589L367.723 209.952L367.604 210.179C367.772 209.543 368.095 209.053 368.57 208.709C369.046 208.365 369.621 208.194 370.295 208.194C370.949 208.194 371.524 208.36 372.02 208.694C372.526 209.027 372.917 209.492 373.195 210.088C373.482 210.685 373.626 211.382 373.626 212.18C373.626 212.979 373.482 213.676 373.195 214.272C372.917 214.858 372.531 215.313 372.035 215.636C371.539 215.949 370.959 216.106 370.295 216.106C369.621 216.106 369.046 215.934 368.57 215.591C368.095 215.247 367.772 214.757 367.604 214.12L367.767 213.969V219.274H366.563ZM370.072 215.091C370.796 215.091 371.361 214.838 371.767 214.333C372.174 213.827 372.377 213.11 372.377 212.18C372.377 211.251 372.174 210.528 371.767 210.013C371.361 209.487 370.796 209.224 370.072 209.224C369.329 209.224 368.759 209.477 368.362 209.982C367.966 210.488 367.767 211.21 367.767 212.15C367.767 213.09 367.966 213.817 368.362 214.333C368.759 214.838 369.329 215.091 370.072 215.091Z" fill="#A9B5C7"/>
    <path d="M378.572 216.106C377.858 216.106 377.234 215.944 376.698 215.621C376.173 215.298 375.761 214.843 375.464 214.257C375.177 213.661 375.033 212.958 375.033 212.15C375.033 211.352 375.177 210.654 375.464 210.058C375.761 209.462 376.173 209.002 376.698 208.679C377.234 208.355 377.858 208.194 378.572 208.194C379.286 208.194 379.905 208.355 380.43 208.679C380.966 209.002 381.377 209.462 381.665 210.058C381.962 210.654 382.111 211.352 382.111 212.15C382.111 212.958 381.962 213.661 381.665 214.257C381.377 214.843 380.966 215.298 380.43 215.621C379.905 215.944 379.286 216.106 378.572 216.106ZM378.572 215.091C379.305 215.091 379.87 214.843 380.267 214.348C380.673 213.843 380.877 213.11 380.877 212.15C380.877 211.21 380.673 210.488 380.267 209.982C379.86 209.477 379.295 209.224 378.572 209.224C377.848 209.224 377.278 209.477 376.862 209.982C376.455 210.488 376.252 211.21 376.252 212.15C376.252 213.11 376.45 213.843 376.847 214.348C377.253 214.843 377.828 215.091 378.572 215.091Z" fill="#A9B5C7"/>
    <path d="M386.516 216.106C385.257 216.106 384.261 215.778 383.527 215.121L383.929 214.211C384.325 214.525 384.732 214.757 385.148 214.909C385.574 215.05 386.045 215.121 386.561 215.121C387.126 215.121 387.552 215.025 387.839 214.833C388.137 214.631 388.286 214.343 388.286 213.969C388.286 213.666 388.186 213.428 387.988 213.256C387.79 213.075 387.463 212.928 387.007 212.817L385.743 212.514C385.118 212.372 384.633 212.12 384.286 211.756C383.949 211.392 383.78 210.957 383.78 210.452C383.78 210.008 383.899 209.619 384.137 209.285C384.375 208.941 384.707 208.674 385.133 208.482C385.559 208.29 386.065 208.194 386.65 208.194C387.175 208.194 387.671 208.28 388.137 208.451C388.603 208.623 388.994 208.871 389.312 209.194L388.91 210.088C388.553 209.785 388.186 209.563 387.81 209.421C387.443 209.27 387.056 209.194 386.65 209.194C386.115 209.194 385.698 209.3 385.401 209.512C385.113 209.725 384.97 210.013 384.97 210.376C384.97 210.69 385.059 210.937 385.237 211.119C385.426 211.301 385.723 211.443 386.129 211.544L387.393 211.862C388.097 212.013 388.613 212.266 388.94 212.62C389.277 212.963 389.445 213.403 389.445 213.939C389.445 214.595 389.183 215.121 388.657 215.515C388.132 215.909 387.418 216.106 386.516 216.106Z" fill="#A9B5C7"/>
    <path d="M391.365 216V208.376H392.569V216H391.365ZM391.246 205.147H392.718V206.541H391.246V205.147Z" fill="#A9B5C7"/>
    <path d="M393.852 209.346V208.376H398.655V209.346H393.852ZM398.625 214.909V215.955C398.457 216.005 398.288 216.04 398.12 216.061C397.961 216.091 397.783 216.106 397.585 216.106C396.891 216.106 396.336 215.904 395.919 215.5C395.513 215.096 395.31 214.489 395.31 213.681V206.42L396.514 205.981V213.514C396.514 213.918 396.569 214.232 396.678 214.454C396.797 214.676 396.955 214.833 397.153 214.924C397.352 215.005 397.575 215.045 397.823 215.045C397.971 215.045 398.105 215.035 398.224 215.015C398.343 214.995 398.477 214.959 398.625 214.909Z" fill="#A9B5C7"/>
    <defs>
        <clipPath id="step-2-0">
            <rect x="37.1739" y="286.737" width="38.5746" height="39.3226" fill="white"/>
        </clipPath>
    </defs>
</svg>
