<svg width="460" height="290" viewBox="0 0 460 290" fill="none"
    xmlns="http://www.w3.org/2000/svg">
    <g>
        <rect width="148" height="140" rx="8" fill="#F3F9FF"/>
        <path opacity="0.6" d="M148 66.3918L148 132C148 136.418 144.418 140 140 140H74C74 99.3473 107.131 66.3918 148 66.3918Z" fill="#C8E0FA"/>
        <path d="M35.8711 40.0805H32.9154V44.0207H28.2534V40.0805H19.1427V36.5646L29.1066 22.4405H32.9154V36.4131H35.8711V40.0805ZM28.2534 36.4131V29.6238L23.5 36.4131H28.2534Z" fill="#4ECEA3"/>
        <path d="M42.8674 39.1409V44.0207H37.9007V39.1409H42.8674Z" fill="#4ECEA3"/>
        <path d="M55.108 29.9875C56.3675 29.9875 57.4949 30.2906 58.4903 30.8968C59.5059 31.4827 60.288 32.3112 60.8365 33.3821C61.4053 34.4328 61.6897 35.6351 61.6897 36.9889C61.6897 38.3832 61.3647 39.6359 60.7146 40.7473C60.0849 41.8586 59.2012 42.7275 58.0637 43.3539C56.9464 43.9803 55.6768 44.2935 54.2548 44.2935C51.4312 44.2935 49.2577 43.364 47.7341 41.505C46.2106 39.646 45.4488 36.999 45.4488 33.564C45.4488 31.1999 45.8145 29.1691 46.5458 27.4718C47.2771 25.7543 48.3232 24.4409 49.6843 23.5316C51.0453 22.6223 52.6704 22.1677 54.5596 22.1677C55.9003 22.1677 57.2003 22.3799 58.4598 22.8042C59.7192 23.2285 60.7959 23.8246 61.6897 24.5924L60.1357 27.9871C58.3074 26.5928 56.5198 25.8957 54.7728 25.8957C53.3509 25.8957 52.2438 26.4716 51.4516 27.6234C50.6593 28.7549 50.2226 30.4219 50.1413 32.6244C50.6085 31.8161 51.2789 31.1796 52.1524 30.7149C53.0462 30.23 54.0314 29.9875 55.108 29.9875ZM53.9806 40.5957C54.9557 40.5957 55.7276 40.2825 56.2964 39.6561C56.8855 39.0298 57.18 38.2013 57.18 37.1708C57.18 36.0999 56.8956 35.2613 56.3268 34.6551C55.7581 34.0287 54.976 33.7155 53.9806 33.7155C53.0056 33.7155 52.2133 34.0388 51.6039 34.6854C51.0148 35.3118 50.7203 36.1403 50.7203 37.1708C50.7203 38.1811 51.025 39.0095 51.6344 39.6561C52.2438 40.2825 53.0259 40.5957 53.9806 40.5957Z" fill="#4ECEA3"/>
        <path d="M75.6942 32.8972C77.0959 33.2609 78.1827 33.8974 78.9546 34.8067C79.7265 35.7159 80.1125 36.8273 80.1125 38.1407C80.1125 39.3935 79.757 40.4846 79.046 41.4141C78.3553 42.3234 77.3803 43.0306 76.1208 43.5357C74.8614 44.0207 73.4191 44.2632 71.794 44.2632C70.1689 44.2632 68.7266 44.0207 67.4672 43.5357C66.2077 43.0306 65.2225 42.3234 64.5115 41.4141C63.8209 40.4846 63.4755 39.3935 63.4755 38.1407C63.4755 36.8273 63.8615 35.7159 64.6334 34.8067C65.4257 33.8772 66.5124 33.2407 67.8938 32.8972C66.6749 32.493 65.7202 31.8667 65.0295 31.018C64.3389 30.1693 63.9935 29.1691 63.9935 28.0174C63.9935 26.8454 64.3287 25.8149 64.9991 24.9258C65.6694 24.0368 66.5937 23.3599 67.7719 22.8951C68.9704 22.4102 70.3111 22.1677 71.794 22.1677C73.2769 22.1677 74.6075 22.4102 75.7856 22.8951C76.9842 23.3599 77.9186 24.0368 78.5889 24.9258C79.2593 25.8149 79.5945 26.8454 79.5945 28.0174C79.5945 29.1893 79.239 30.2097 78.528 31.0786C77.8373 31.9475 76.8927 32.5537 75.6942 32.8972ZM71.794 25.8048C70.7783 25.8048 69.9658 26.0372 69.3564 26.5019C68.7673 26.9667 68.4727 27.6436 68.4727 28.5326C68.4727 29.3813 68.7673 30.0683 69.3564 30.5937C69.9658 31.0988 70.7783 31.4524 71.794 31.6545C72.8097 31.4524 73.6121 31.0988 74.2012 30.5937C74.8106 30.0683 75.1153 29.3813 75.1153 28.5326C75.1153 27.6436 74.8106 26.9667 74.2012 26.5019C73.6121 26.0372 72.8097 25.8048 71.794 25.8048ZM71.794 40.626C72.9925 40.626 73.9371 40.3836 74.6278 39.8986C75.3387 39.4137 75.6942 38.7065 75.6942 37.777C75.6942 36.9081 75.3387 36.2009 74.6278 35.6553C73.9371 35.1097 72.9925 34.746 71.794 34.5642C70.5955 34.746 69.6407 35.1097 68.9298 35.6553C68.2391 36.2009 67.8938 36.9081 67.8938 37.777C67.8938 38.7065 68.2391 39.4137 68.9298 39.8986C69.6407 40.3836 70.5955 40.626 71.794 40.626Z" fill="#4ECEA3"/>
        <path d="M86.7127 35.5038C85.2298 35.5038 84.0516 34.9582 83.1781 33.8671C82.3249 32.7759 81.8983 31.119 81.8983 28.8963C81.8983 26.6535 82.3249 24.9966 83.1781 23.9256C84.0516 22.8547 85.2298 22.3192 86.7127 22.3192C88.1956 22.3192 89.3636 22.8547 90.2168 23.9256C91.07 24.9966 91.4966 26.6535 91.4966 28.8963C91.4966 31.119 91.07 32.7759 90.2168 33.8671C89.3636 34.9582 88.1956 35.5038 86.7127 35.5038ZM86.7127 33.7458C87.5659 33.7458 88.1956 33.3619 88.6019 32.5941C89.0285 31.8262 89.2418 30.5937 89.2418 28.8963C89.2418 27.2192 89.0285 25.9968 88.6019 25.2289C88.1956 24.4611 87.5659 24.0772 86.7127 24.0772C85.8595 24.0772 85.2196 24.4611 84.793 25.2289C84.3868 25.9968 84.1836 27.2192 84.1836 28.8963C84.1836 30.5937 84.3868 31.8262 84.793 32.5941C85.2196 33.3619 85.8595 33.7458 86.7127 33.7458ZM86.3166 44.0207L98.8705 22.4405H101.217L88.6933 44.0207H86.3166ZM100.821 44.1419C99.3377 44.1419 98.1595 43.5964 97.286 42.5052C96.4328 41.4141 96.0062 39.7572 96.0062 37.5345C96.0062 35.2916 96.4328 33.6347 97.286 32.5638C98.1595 31.4928 99.3377 30.9574 100.821 30.9574C102.303 30.9574 103.472 31.4928 104.325 32.5638C105.178 33.6347 105.604 35.2916 105.604 37.5345C105.604 39.7572 105.178 41.4141 104.325 42.5052C103.472 43.5964 102.303 44.1419 100.821 44.1419ZM100.821 42.384C101.674 42.384 102.303 42.0001 102.71 41.2322C103.136 40.4644 103.35 39.2318 103.35 37.5345C103.35 35.8574 103.136 34.6349 102.71 33.8671C102.303 33.0992 101.674 32.7153 100.821 32.7153C99.9674 32.7153 99.3275 33.0992 98.9009 33.8671C98.4946 34.6349 98.2915 35.8574 98.2915 37.5345C98.2915 39.2318 98.4946 40.4644 98.9009 41.2322C99.3275 42.0001 99.9674 42.384 100.821 42.384Z" fill="#4ECEA3"/>
        <path d="M43.4736 57.5472H48.0006V58.7011H44.926V60.249H47.812V61.4123H44.926V64.2268H43.4736V57.5472Z" fill="#A9B5C7"/>
        <path d="M48.9261 57.5472H50.3974V64.2268H48.9261V57.5472Z" fill="#A9B5C7"/>
        <path d="M57.6768 64.2268H55.9603L54.2815 61.9189L52.6027 64.2268H50.8862L53.4421 60.8401L50.9616 57.5472H52.6782L54.2815 59.7706L55.9037 57.5472H57.6202L55.1114 60.8401L57.6768 64.2268Z" fill="#A9B5C7"/>
        <path d="M58.164 57.5472H62.7949V58.6823H59.5976V60.2584H62.5968V61.403H59.5976V63.0916H62.7949V64.2268H58.164V57.5472Z" fill="#A9B5C7"/>
        <path d="M63.81 57.5472H66.4036C67.1393 57.5472 67.7712 57.6785 68.2993 57.9412C68.8275 58.2039 69.2299 58.5854 69.5065 59.0857C69.7895 59.5861 69.9309 60.1834 69.9309 60.8776C69.9309 61.5781 69.7926 62.1785 69.516 62.6788C69.2393 63.1792 68.8369 63.5638 68.3087 63.8327C67.7806 64.0954 67.1455 64.2268 66.4036 64.2268H63.81V57.5472ZM66.3093 63.0447C67.7429 63.0447 68.4596 62.3223 68.4596 60.8776C68.4596 59.4454 67.7429 58.7292 66.3093 58.7292H65.2813V63.0447H66.3093Z" fill="#A9B5C7"/>
        <path d="M24.785 62.5756H21.3897L20.6729 64.2268H19.6826L22.6723 57.5472H23.4929L26.492 64.2268H25.5017L24.785 62.5756ZM24.4549 61.8064L23.0873 58.626L21.7198 61.8064H24.4549Z" fill="#4ECEA3"/>
        <path d="M27.3617 57.5472H30.1534C30.8576 57.5472 31.4046 57.7192 31.7945 58.0632C32.1906 58.4009 32.3886 58.8637 32.3886 59.4516C32.3886 60.0395 32.1874 60.5055 31.785 60.8494C31.3889 61.1872 30.845 61.356 30.1534 61.356H28.3331V64.2268H27.3617V57.5472ZM30.0402 60.5868C30.5055 60.5868 30.8545 60.4898 31.0871 60.2959C31.326 60.1021 31.4455 59.8206 31.4455 59.4516C31.4455 59.0889 31.326 58.8105 31.0871 58.6167C30.8545 58.4228 30.5055 58.3258 30.0402 58.3258H28.3331V60.5868H30.0402Z" fill="#4ECEA3"/>
        <path d="M38.9548 64.2268H37.9268L37.0874 62.0034C36.9994 61.7657 36.8705 61.6031 36.7007 61.5155C36.5309 61.4217 36.2983 61.3748 36.0028 61.3748H34.5315V64.2268H33.5695V57.5472H36.3329C37.0685 57.5472 37.6313 57.7098 38.0211 58.035C38.4172 58.3602 38.6153 58.8262 38.6153 59.4328C38.6153 59.8706 38.4989 60.2428 38.2663 60.5492C38.0337 60.8557 37.7036 61.0715 37.276 61.1966C37.6658 61.2654 37.9488 61.5405 38.1248 62.0221L38.9548 64.2268ZM36.2197 60.5961C36.7101 60.5961 37.0748 60.5023 37.3137 60.3147C37.5527 60.1208 37.6721 59.8331 37.6721 59.4516C37.6721 59.0701 37.5527 58.7887 37.3137 58.6073C37.0811 58.4197 36.7164 58.3258 36.2197 58.3258H34.5315V60.5961H36.2197Z" fill="#4ECEA3"/>
        <path d="M24.1546 114.163C22.4946 114.163 21.2391 113.751 20.3878 112.925C19.5366 112.089 19.1109 110.866 19.1109 109.258V102.717H22.0318V109.369C22.0318 110.184 22.2127 110.808 22.5744 111.242C22.9469 111.676 23.4736 111.893 24.1546 111.893C24.8249 111.893 25.341 111.676 25.7028 111.242C26.0645 110.798 26.2454 110.173 26.2454 109.369V102.717H29.1982V109.258C29.1982 110.845 28.7619 112.062 27.8894 112.909C27.0275 113.745 25.7826 114.163 24.1546 114.163Z" fill="#283049"/>
        <path d="M35.2785 114.163C34.4272 114.163 33.5866 114.052 32.7567 113.83C31.9267 113.608 31.251 113.306 30.7296 112.925L31.6713 110.814C32.2246 111.163 32.8099 111.433 33.427 111.623C34.0548 111.803 34.6826 111.893 35.3104 111.893C35.9488 111.893 36.4383 111.808 36.7788 111.639C37.1193 111.459 37.2895 111.21 37.2895 110.893C37.2895 110.607 37.1352 110.374 36.8267 110.194C36.5181 110.004 35.9382 109.819 35.0869 109.639C34.0123 109.427 33.177 109.168 32.5811 108.861C31.9852 108.543 31.5649 108.173 31.3202 107.749C31.0861 107.326 30.9691 106.813 30.9691 106.209C30.9691 105.521 31.1659 104.902 31.5596 104.352C31.9533 103.791 32.5066 103.357 33.2195 103.05C33.9324 102.733 34.7464 102.574 35.6615 102.574C36.4809 102.574 37.2736 102.69 38.0397 102.923C38.8164 103.145 39.423 103.442 39.8592 103.812L38.9335 105.924C38.4334 105.574 37.9067 105.31 37.3534 105.13C36.8001 104.939 36.2468 104.844 35.6935 104.844C35.1508 104.844 34.7145 104.95 34.3847 105.162C34.0548 105.363 33.8899 105.638 33.8899 105.987C33.8899 106.178 33.9484 106.336 34.0655 106.463C34.1825 106.59 34.4006 106.717 34.7198 106.844C35.0391 106.961 35.5179 107.088 36.1563 107.226C37.1884 107.448 37.9971 107.718 38.5824 108.035C39.1782 108.342 39.5985 108.707 39.8433 109.131C40.088 109.543 40.2104 110.041 40.2104 110.623C40.2104 111.724 39.7794 112.592 38.9175 113.227C38.0557 113.851 36.8426 114.163 35.2785 114.163Z" fill="#283049"/>
        <path d="M41.8842 102.717H46.5288C47.7844 102.717 48.8644 102.944 49.7689 103.399C50.684 103.844 51.3809 104.489 51.8597 105.336C52.3492 106.183 52.5939 107.188 52.5939 108.353C52.5939 109.528 52.3545 110.544 51.8757 111.401C51.3969 112.248 50.6999 112.899 49.7848 113.354C48.8804 113.798 47.7951 114.021 46.5288 114.021H41.8842V102.717ZM46.3213 111.639C47.428 111.639 48.2526 111.369 48.7953 110.829C49.3486 110.279 49.6252 109.453 49.6252 108.353C49.6252 106.183 48.5239 105.098 46.3213 105.098H44.8849V111.639H46.3213Z" fill="#283049"/>
        <path d="M59.876 114.163C58.6949 114.163 57.6628 113.925 56.7796 113.449C55.9071 112.962 55.2315 112.279 54.7526 111.401C54.2844 110.522 54.0504 109.506 54.0504 108.353C54.0504 107.21 54.2844 106.204 54.7526 105.336C55.2315 104.458 55.9071 103.78 56.7796 103.304C57.6628 102.817 58.6949 102.574 59.876 102.574C60.6209 102.574 61.3391 102.685 62.0307 102.907C62.733 103.129 63.297 103.431 63.7226 103.812L62.8128 105.924C61.8871 105.257 60.9295 104.923 59.9399 104.923C59.0248 104.923 58.3225 105.215 57.8331 105.797C57.3436 106.368 57.0989 107.22 57.0989 108.353C57.0989 109.496 57.3436 110.358 57.8331 110.941C58.3225 111.523 59.0248 111.814 59.9399 111.814C60.9295 111.814 61.8871 111.48 62.8128 110.814L63.7226 112.925C63.297 113.306 62.733 113.608 62.0307 113.83C61.3391 114.052 60.6209 114.163 59.876 114.163Z" fill="#283049"/>
        <g clip-path="url(#step-1-1)">
            <path d="M129.928 108.292C129.942 100.695 123.761 94.5262 116.124 94.513C108.486 94.4998 102.284 100.648 102.271 108.245C102.257 115.842 108.438 122.011 116.075 122.024C123.713 122.037 129.915 115.889 129.928 108.292Z" fill="#3574B9"/>
            <path d="M113.771 116.572C113.771 116.873 113.562 116.978 113.248 116.978C111.347 116.389 109.687 115.223 108.511 113.649C107.334 112.075 106.702 110.176 106.705 108.227C106.709 106.278 107.348 104.381 108.53 102.811C109.712 101.241 111.376 100.081 113.279 99.4977C113.587 99.3985 113.802 99.6 113.799 99.9068V100.632C113.801 100.736 113.774 100.839 113.719 100.929C113.665 101.018 113.586 101.092 113.491 101.14C111.994 101.666 110.699 102.631 109.783 103.902C108.867 105.173 108.373 106.689 108.37 108.244C108.367 109.799 108.854 111.317 109.764 112.592C110.675 113.866 111.966 114.836 113.46 115.369C113.555 115.417 113.635 115.49 113.689 115.58C113.743 115.67 113.771 115.773 113.768 115.877L113.771 116.572Z" fill="white"/>
            <path d="M116.898 114.046C116.895 114.154 116.85 114.256 116.774 114.334C116.697 114.412 116.593 114.459 116.483 114.467H115.649C115.541 114.46 115.439 114.414 115.362 114.339C115.286 114.263 115.24 114.164 115.233 114.058V112.855C113.565 112.647 112.734 111.733 112.423 110.409C112.423 110.208 112.531 110.003 112.731 110.003H113.67C113.876 110.003 113.978 110.106 114.085 110.304C114.292 111.017 114.701 111.627 116.061 111.63C117.102 111.63 117.831 111.125 117.834 110.313C117.837 109.501 117.419 109.194 115.963 108.987C113.774 108.686 112.734 108.066 112.737 106.34C112.737 105.02 113.784 104.003 115.243 103.805V102.559C115.249 102.454 115.295 102.354 115.372 102.279C115.448 102.205 115.55 102.16 115.658 102.153H116.492C116.6 102.16 116.702 102.205 116.779 102.279C116.855 102.354 116.901 102.454 116.908 102.559V103.781C118.157 103.985 118.988 104.698 119.195 105.817C119.195 106.018 119.09 106.223 118.887 106.223H118.059C117.85 106.223 117.751 106.12 117.643 105.922C117.437 105.209 116.917 104.902 115.978 104.902C114.938 104.902 114.415 105.408 114.415 106.105C114.415 106.803 114.722 107.224 116.286 107.432C118.471 107.733 119.512 108.352 119.508 110.079C119.508 111.399 118.465 112.515 116.902 112.818L116.898 114.046Z" fill="white"/>
            <path d="M118.351 116.59C118.351 116.894 118.564 117.098 118.871 116.996C120.774 116.412 122.438 115.252 123.621 113.683C124.804 112.114 125.445 110.217 125.452 108.268C125.458 104.205 122.654 100.743 118.908 99.5158C118.594 99.5158 118.385 99.621 118.385 99.9218V100.635C118.383 100.739 118.41 100.842 118.465 100.932C118.519 101.022 118.598 101.095 118.693 101.143C120.187 101.676 121.478 102.646 122.388 103.921C123.299 105.196 123.785 106.714 123.782 108.269C123.778 109.824 123.284 111.34 122.368 112.611C121.451 113.882 120.156 114.846 118.659 115.372C118.564 115.419 118.485 115.492 118.431 115.581C118.376 115.671 118.349 115.773 118.351 115.877V116.59Z" fill="white"/>
        </g>
    </g>
    <g clip-path="url(#step-1-2)">
        <rect y="149" width="148" height="141" rx="8" fill="#F3F9FF"/>
        <path opacity="0.6" d="M148 215.866L148 282C148 286.418 144.418 290 140 290H74C74 249.057 107.131 215.866 148 215.866Z" fill="#E9CAEE"/>
        <path d="M35.0179 189.519V193.335H20.1178V189.825L27.3393 182.132C28.8425 180.504 29.5941 179.019 29.5941 177.675C29.5941 176.821 29.3402 176.18 28.8324 175.752C28.3448 175.305 27.6237 175.081 26.669 175.081C24.8204 175.081 22.9008 175.783 20.91 177.187L19.3865 173.768C20.26 173.015 21.3772 172.425 22.7383 171.998C24.0993 171.55 25.4806 171.326 26.8823 171.326C29.1371 171.326 30.9247 171.875 32.2451 172.974C33.5858 174.053 34.2561 175.508 34.2561 177.34C34.2561 178.601 33.9921 179.771 33.4639 180.85C32.9561 181.908 32.0927 183.089 30.8739 184.391L25.9681 189.519H35.0179Z" fill="#4ECEA3"/>
        <path d="M42.8972 188.42V193.335H37.9305V188.42H42.8972Z" fill="#4ECEA3"/>
        <path d="M54.8635 179.263C56.2042 179.263 57.3926 179.558 58.4286 180.148C59.4849 180.718 60.2975 181.532 60.8662 182.59C61.4553 183.648 61.7499 184.869 61.7499 186.253C61.7499 187.718 61.4046 189.011 60.7139 190.13C60.0435 191.229 59.0685 192.084 57.7887 192.694C56.5293 193.284 55.0565 193.579 53.3705 193.579C51.9891 193.579 50.618 193.355 49.2569 192.908C47.9162 192.46 46.8295 191.87 45.9966 191.137L47.5201 187.718C49.4499 189.123 51.4204 189.825 53.4314 189.825C55.9706 189.825 57.2402 188.695 57.2402 186.436C57.2402 185.358 56.9051 184.513 56.2347 183.903C55.5847 183.272 54.6909 182.956 53.5533 182.956C52.8423 182.956 52.1212 183.089 51.3899 183.353C50.6789 183.618 50.039 183.984 49.4702 184.452H46.7584V171.601H60.6834V175.264H51.3899V180.117C52.3446 179.548 53.5025 179.263 54.8635 179.263Z" fill="#4ECEA3"/>
        <path d="M71.8237 193.61C69.2033 193.61 67.1922 192.653 65.7906 190.74C64.4092 188.827 63.7186 186.06 63.7186 182.437C63.7186 178.856 64.4092 176.119 65.7906 174.226C67.1922 172.333 69.2033 171.387 71.8237 171.387C74.4442 171.387 76.4451 172.333 77.8265 174.226C79.2281 176.119 79.9289 178.856 79.9289 182.437C79.9289 186.06 79.2281 188.827 77.8265 190.74C76.4451 192.653 74.4442 193.61 71.8237 193.61ZM71.8237 189.947C73.0223 189.947 73.8957 189.357 74.4442 188.176C74.9927 186.996 75.2669 185.083 75.2669 182.437C75.2669 179.853 74.9927 177.981 74.4442 176.821C73.8957 175.64 73.0223 175.05 71.8237 175.05C70.6252 175.05 69.7517 175.64 69.2033 176.821C68.6548 177.981 68.3806 179.853 68.3806 182.437C68.3806 185.083 68.6548 186.996 69.2033 188.176C69.7517 189.357 70.6252 189.947 71.8237 189.947Z" fill="#4ECEA3"/>
        <path d="M86.7424 184.757C85.2595 184.757 84.0813 184.208 83.2078 183.109C82.3547 182.01 81.9281 180.341 81.9281 178.103C81.9281 175.844 82.3547 174.175 83.2078 173.097C84.0813 172.018 85.2595 171.479 86.7424 171.479C88.2253 171.479 89.3934 172.018 90.2466 173.097C91.0997 174.175 91.5263 175.844 91.5263 178.103C91.5263 180.341 91.0997 182.01 90.2466 183.109C89.3934 184.208 88.2253 184.757 86.7424 184.757ZM86.7424 182.987C87.5956 182.987 88.2253 182.6 88.6316 181.827C89.0582 181.054 89.2715 179.812 89.2715 178.103C89.2715 176.414 89.0582 175.182 88.6316 174.409C88.2253 173.636 87.5956 173.249 86.7424 173.249C85.8893 173.249 85.2494 173.636 84.8228 174.409C84.4165 175.182 84.2134 176.414 84.2134 178.103C84.2134 179.812 84.4165 181.054 84.8228 181.827C85.2494 182.6 85.8893 182.987 86.7424 182.987ZM86.3463 193.335L98.9002 171.601H101.246L88.723 193.335H86.3463ZM100.85 193.457C99.3674 193.457 98.1892 192.908 97.3157 191.809C96.4626 190.71 96.036 189.041 96.036 186.803C96.036 184.544 96.4626 182.875 97.3157 181.796C98.1892 180.718 99.3674 180.178 100.85 180.178C102.333 180.178 103.501 180.718 104.354 181.796C105.208 182.875 105.634 184.544 105.634 186.803C105.634 189.041 105.208 190.71 104.354 191.809C103.501 192.908 102.333 193.457 100.85 193.457ZM100.85 191.687C101.703 191.687 102.333 191.3 102.739 190.527C103.166 189.753 103.379 188.512 103.379 186.803C103.379 185.113 103.166 183.882 102.739 183.109C102.333 182.336 101.703 181.949 100.85 181.949C99.9971 181.949 99.3573 182.336 98.9307 183.109C98.5244 183.882 98.3213 185.113 98.3213 186.803C98.3213 188.512 98.5244 189.753 98.9307 190.527C99.3573 191.3 99.9971 191.687 100.85 191.687Z" fill="#4ECEA3"/>
        <path d="M43.4736 206.958H48.0006V208.12H44.926V209.679H47.812V210.851H44.926V213.686H43.4736V206.958Z" fill="#A9B5C7"/>
        <path d="M48.9261 206.958H50.3974V213.686H48.9261V206.958Z" fill="#A9B5C7"/>
        <path d="M57.6768 213.686H55.9603L54.2815 211.361L52.6027 213.686H50.8862L53.4421 210.275L50.9616 206.958H52.6782L54.2815 209.198L55.9037 206.958H57.6202L55.1114 210.275L57.6768 213.686Z" fill="#A9B5C7"/>
        <path d="M58.164 206.958H62.7949V208.102H59.5976V209.689H62.5968V210.842H59.5976V212.542H62.7949V213.686H58.164V206.958Z" fill="#A9B5C7"/>
        <path d="M63.81 206.958H66.4036C67.1393 206.958 67.7712 207.091 68.2993 207.355C68.8275 207.62 69.2299 208.004 69.5065 208.508C69.7895 209.012 69.9309 209.613 69.9309 210.312C69.9309 211.018 69.7926 211.623 69.516 212.127C69.2393 212.63 68.8369 213.018 68.3087 213.289C67.7806 213.553 67.1455 213.686 66.4036 213.686H63.81V206.958ZM66.3093 212.495C67.7429 212.495 68.4596 211.768 68.4596 210.312C68.4596 208.87 67.7429 208.149 66.3093 208.149H65.2813V212.495H66.3093Z" fill="#A9B5C7"/>
        <path d="M24.785 212.023H21.3897L20.6729 213.686H19.6826L22.6723 206.958H23.4929L26.492 213.686H25.5017L24.785 212.023ZM24.4549 211.248L23.0873 208.045L21.7198 211.248H24.4549Z" fill="#4ECEA3"/>
        <path d="M27.3617 206.958H30.1534C30.8576 206.958 31.4046 207.131 31.7945 207.478C32.1906 207.818 32.3886 208.284 32.3886 208.876C32.3886 209.468 32.1874 209.938 31.785 210.284C31.3889 210.624 30.845 210.794 30.1534 210.794H28.3331V213.686H27.3617V206.958ZM30.0402 210.02C30.5055 210.02 30.8545 209.922 31.0871 209.727C31.326 209.531 31.4455 209.248 31.4455 208.876C31.4455 208.511 31.326 208.231 31.0871 208.035C30.8545 207.84 30.5055 207.742 30.0402 207.742H28.3331V210.02H30.0402Z" fill="#4ECEA3"/>
        <path d="M38.9548 213.686H37.9268L37.0874 211.446C36.9994 211.207 36.8705 211.043 36.7007 210.955C36.5309 210.86 36.2983 210.813 36.0028 210.813H34.5315V213.686H33.5695V206.958H36.3329C37.0685 206.958 37.6313 207.122 38.0211 207.45C38.4172 207.777 38.6153 208.246 38.6153 208.857C38.6153 209.298 38.4989 209.673 38.2663 209.982C38.0337 210.29 37.7036 210.508 37.276 210.634C37.6658 210.703 37.9488 210.98 38.1248 211.465L38.9548 213.686ZM36.2197 210.029C36.7101 210.029 37.0748 209.935 37.3137 209.746C37.5527 209.55 37.6721 209.261 37.6721 208.876C37.6721 208.492 37.5527 208.209 37.3137 208.026C37.0811 207.837 36.7164 207.742 36.2197 207.742H34.5315V210.029H36.2197Z" fill="#4ECEA3"/>
        <path d="M36.0133 252.45L31.9433 263.835H29.5651L27.187 257.071L24.7609 263.835H22.3828L18.3287 252.45H21.3772L23.7075 259.63L26.2453 252.45H28.2883L30.7303 259.758L33.1723 252.45H36.0133Z" fill="#283049"/>
        <path d="M44.8689 257.935C45.5393 258.127 46.0553 258.468 46.4171 258.958C46.7789 259.438 46.9598 260.024 46.9598 260.717C46.9598 261.346 46.7948 261.895 46.465 262.364C46.1351 262.833 45.6616 263.195 45.0445 263.451C44.438 263.707 43.7197 263.835 42.8898 263.835H37.2237V252.45H42.7461C43.9379 252.45 44.8849 252.717 45.5871 253.25C46.2894 253.783 46.6405 254.502 46.6405 255.408C46.6405 255.995 46.4863 256.512 46.1777 256.959C45.8691 257.407 45.4328 257.732 44.8689 257.935ZM40.1445 256.911H42.2354C42.7887 256.911 43.193 256.826 43.4484 256.656C43.7038 256.485 43.8314 256.213 43.8314 255.84C43.8314 255.456 43.6984 255.174 43.4324 254.993C43.1771 254.811 42.778 254.721 42.2354 254.721H40.1445V256.911ZM42.5386 261.564C43.1132 261.564 43.5229 261.474 43.7676 261.293C44.023 261.111 44.1507 260.808 44.1507 260.381C44.1507 259.944 44.0283 259.635 43.7836 259.454C43.5388 259.273 43.1239 259.182 42.5386 259.182H40.1445V261.564H42.5386Z" fill="#283049"/>
        <path d="M50.8284 254.881H47.4447V252.45H57.2446V254.881H53.8609V263.835H50.8284V254.881Z" fill="#283049"/>
        <path d="M63.3517 263.979C62.1706 263.979 61.1385 263.739 60.2553 263.259C59.3828 262.769 58.7071 262.081 58.2283 261.197C57.7601 260.312 57.5261 259.289 57.5261 258.127C57.5261 256.975 57.7601 255.963 58.2283 255.089C58.7071 254.204 59.3828 253.522 60.2553 253.042C61.1385 252.552 62.1706 252.306 63.3517 252.306C64.0966 252.306 64.8148 252.418 65.5064 252.642C66.2087 252.866 66.7727 253.17 67.1983 253.554L66.2885 255.68C65.3628 255.009 64.4051 254.673 63.4156 254.673C62.5005 254.673 61.7982 254.966 61.3088 255.552C60.8193 256.128 60.5746 256.986 60.5746 258.127C60.5746 259.278 60.8193 260.147 61.3088 260.733C61.7982 261.319 62.5005 261.612 63.4156 261.612C64.4051 261.612 65.3628 261.277 66.2885 260.605L67.1983 262.732C66.7727 263.115 66.2087 263.419 65.5064 263.643C64.8148 263.867 64.0966 263.979 63.3517 263.979Z" fill="#283049"/>
        <g clip-path="url(#step-1-3)">
            <path d="M129.453 261.367C128.792 264.018 127.361 266.412 125.341 268.248C123.321 270.084 120.803 271.278 118.105 271.68C115.407 272.082 112.651 271.672 110.186 270.504C107.72 269.336 105.656 267.462 104.254 265.118C102.853 262.775 102.176 260.067 102.311 257.338C102.446 254.609 103.386 251.982 105.011 249.788C106.637 247.595 108.876 245.934 111.445 245.015C114.013 244.097 116.796 243.962 119.441 244.628C122.982 245.522 126.025 247.786 127.902 250.924C129.779 254.062 130.337 257.817 129.453 261.367Z" fill="#884294"/>
            <path fill-rule="evenodd" clip-rule="evenodd" d="M118.572 257.588C119.157 257.27 119.524 256.711 119.438 255.779C119.323 254.505 118.29 254.078 116.986 253.956L116.985 252.19H115.975L115.975 253.91C115.709 253.91 115.438 253.916 115.168 253.921L115.168 252.19L114.158 252.19L114.158 253.956C113.939 253.961 113.724 253.965 113.515 253.965V253.96L112.121 253.96L112.121 255.108C112.121 255.108 112.867 255.093 112.855 255.107C113.264 255.108 113.398 255.361 113.436 255.579L113.436 260.418C113.418 260.555 113.342 260.774 113.056 260.774C113.069 260.786 112.321 260.774 112.321 260.774L112.121 262.058H113.436C113.596 262.058 113.755 262.06 113.912 262.062C113.994 262.063 114.076 262.064 114.158 262.064L114.158 263.851L115.168 263.851L115.167 262.083C115.445 262.089 115.713 262.092 115.975 262.092L115.975 263.851H116.985L116.986 262.068C118.684 261.964 119.873 261.508 120.021 259.811C120.14 258.444 119.536 257.834 118.572 257.588ZM115.192 255.185C115.25 255.185 115.32 255.183 115.4 255.181C116.106 255.161 117.554 255.12 117.555 256.259C117.554 257.373 116.049 257.346 115.358 257.334C115.296 257.333 115.24 257.332 115.192 257.332V255.185ZM115.192 260.783L115.192 258.416C115.261 258.416 115.344 258.414 115.438 258.411C116.285 258.39 118.024 258.346 118.025 259.599C118.025 260.824 116.216 260.797 115.389 260.785C115.315 260.784 115.248 260.783 115.192 260.783Z" fill="white"/>
            <path d="M116.078 250.62C113.987 250.62 112.098 251.491 110.754 252.89L110.146 252.304C111.643 250.745 113.748 249.774 116.078 249.774C118.41 249.774 120.516 250.746 122.014 252.307L121.408 252.896C120.063 251.493 118.173 250.62 116.078 250.62Z" fill="white"/>
            <path d="M109.592 252.944L110.204 253.533C109.255 254.778 108.691 256.333 108.691 258.021C108.691 260.031 109.492 261.855 110.791 263.189L110.185 263.777C108.738 262.291 107.847 260.26 107.847 258.021C107.847 256.106 108.499 254.343 109.592 252.944Z" fill="white"/>
            <path d="M111.416 263.761L110.805 264.352C112.233 265.548 114.072 266.267 116.078 266.267C118.091 266.267 119.935 265.543 121.365 264.342L120.754 263.75C119.481 264.794 117.853 265.421 116.078 265.421C114.31 265.421 112.687 264.799 111.416 263.761Z" fill="white"/>
            <path d="M121.984 263.765L121.377 263.177C122.67 261.844 123.465 260.026 123.465 258.021C123.465 256.336 122.904 254.783 121.958 253.54L122.568 252.947C123.659 254.346 124.31 256.107 124.31 258.021C124.31 260.254 123.423 262.28 121.984 263.765Z" fill="white"/>
            <path fill-rule="evenodd" clip-rule="evenodd" d="M126.555 258.021C126.555 263.817 121.864 268.516 116.078 268.516C110.293 268.516 105.602 263.817 105.602 258.021C105.602 252.224 110.293 247.526 116.078 247.526C121.864 247.526 126.555 252.224 126.555 258.021ZM116.078 267.766C121.451 267.766 125.806 263.403 125.806 258.021C125.806 252.638 121.451 248.275 116.078 248.275C110.706 248.275 106.351 252.638 106.351 258.021C106.351 263.403 110.706 267.766 116.078 267.766Z" fill="white"/>
        </g>
    </g>
    <g clip-path="url(#step-1-4)">
        <rect x="157" y="149" width="147" height="141" rx="8" fill="#F3F9FF"/>
        <path opacity="0.6" d="M304 215.866L304 282C304 286.418 300.418 290 296 290H230.5C230.5 249.057 263.407 215.866 304 215.866Z" fill="#B9E9FF"/>
        <path d="M191.781 189.519V193.335H176.982V189.825L184.155 182.132C185.648 180.504 186.394 179.019 186.394 177.675C186.394 176.821 186.142 176.18 185.638 175.752C185.153 175.305 184.437 175.081 183.489 175.081C181.653 175.081 179.746 175.783 177.769 177.187L176.256 173.768C177.123 173.015 178.233 172.425 179.585 171.998C180.936 171.55 182.308 171.326 183.701 171.326C185.94 171.326 187.716 171.875 189.027 172.974C190.359 174.053 191.025 175.508 191.025 177.34C191.025 178.601 190.762 179.771 190.238 180.85C189.733 181.908 188.876 183.089 187.665 184.391L182.793 189.519H191.781Z" fill="#4ECEA3"/>
        <path d="M199.607 188.42V193.335H194.674V188.42H199.607Z" fill="#4ECEA3"/>
        <path d="M211.493 179.263C212.824 179.263 214.005 179.558 215.034 180.148C216.083 180.718 216.89 181.532 217.455 182.59C218.04 183.648 218.333 184.869 218.333 186.253C218.333 187.718 217.99 189.011 217.304 190.13C216.638 191.229 215.669 192.084 214.398 192.694C213.147 193.284 211.685 193.579 210.01 193.579C208.638 193.579 207.276 193.355 205.924 192.908C204.592 192.46 203.513 191.87 202.686 191.137L204.199 187.718C206.116 189.123 208.073 189.825 210.07 189.825C212.592 189.825 213.853 188.695 213.853 186.436C213.853 185.358 213.521 184.513 212.855 183.903C212.209 183.272 211.321 182.956 210.191 182.956C209.485 182.956 208.769 183.089 208.043 183.353C207.336 183.618 206.701 183.984 206.136 184.452H203.442V171.601H217.273V175.264H208.043V180.117C208.991 179.548 210.141 179.263 211.493 179.263Z" fill="#4ECEA3"/>
        <path d="M228.338 193.61C225.736 193.61 223.738 192.653 222.346 190.74C220.974 188.827 220.288 186.06 220.288 182.437C220.288 178.856 220.974 176.119 222.346 174.226C223.738 172.333 225.736 171.387 228.338 171.387C230.941 171.387 232.929 172.333 234.301 174.226C235.693 176.119 236.389 178.856 236.389 182.437C236.389 186.06 235.693 188.827 234.301 190.74C232.929 192.653 230.941 193.61 228.338 193.61ZM228.338 189.947C229.529 189.947 230.396 189.357 230.941 188.176C231.486 186.996 231.758 185.083 231.758 182.437C231.758 179.853 231.486 177.981 230.941 176.821C230.396 175.64 229.529 175.05 228.338 175.05C227.148 175.05 226.28 175.64 225.736 176.821C225.191 177.981 224.919 179.853 224.919 182.437C224.919 185.083 225.191 186.996 225.736 188.176C226.28 189.357 227.148 189.947 228.338 189.947Z" fill="#4ECEA3"/>
        <path d="M243.156 184.757C241.683 184.757 240.513 184.208 239.646 183.109C238.798 182.01 238.375 180.341 238.375 178.103C238.375 175.844 238.798 174.175 239.646 173.097C240.513 172.018 241.683 171.479 243.156 171.479C244.629 171.479 245.789 172.018 246.637 173.097C247.484 174.175 247.908 175.844 247.908 178.103C247.908 180.341 247.484 182.01 246.637 183.109C245.789 184.208 244.629 184.757 243.156 184.757ZM243.156 182.987C244.004 182.987 244.629 182.6 245.033 181.827C245.456 181.054 245.668 179.812 245.668 178.103C245.668 176.414 245.456 175.182 245.033 174.409C244.629 173.636 244.004 173.249 243.156 173.249C242.309 173.249 241.673 173.636 241.25 174.409C240.846 175.182 240.644 176.414 240.644 178.103C240.644 179.812 240.846 181.054 241.25 181.827C241.673 182.6 242.309 182.987 243.156 182.987ZM242.763 193.335L255.232 171.601H257.562L245.124 193.335H242.763ZM257.169 193.457C255.696 193.457 254.526 192.908 253.658 191.809C252.811 190.71 252.387 189.041 252.387 186.803C252.387 184.544 252.811 182.875 253.658 181.796C254.526 180.718 255.696 180.178 257.169 180.178C258.642 180.178 259.802 180.718 260.649 181.796C261.497 182.875 261.92 184.544 261.92 186.803C261.92 189.041 261.497 190.71 260.649 191.809C259.802 192.908 258.642 193.457 257.169 193.457ZM257.169 191.687C258.016 191.687 258.642 191.3 259.045 190.527C259.469 189.753 259.681 188.512 259.681 186.803C259.681 185.113 259.469 183.882 259.045 183.109C258.642 182.336 258.016 181.949 257.169 181.949C256.322 181.949 255.686 182.336 255.262 183.109C254.859 183.882 254.657 185.113 254.657 186.803C254.657 188.512 254.859 189.753 255.262 190.527C255.686 191.3 256.322 191.687 257.169 191.687Z" fill="#4ECEA3"/>
        <path d="M200.18 206.958H204.676V208.12H201.622V209.679H204.489V210.851H201.622V213.686H200.18V206.958Z" fill="#A9B5C7"/>
        <path d="M205.596 206.958H207.057V213.686H205.596V206.958Z" fill="#A9B5C7"/>
        <path d="M214.287 213.686H212.582L210.915 211.361L209.247 213.686H207.542L210.081 210.275L207.617 206.958H209.322L210.915 209.198L212.526 206.958H214.231L211.739 210.275L214.287 213.686Z" fill="#A9B5C7"/>
        <path d="M214.771 206.958H219.371V208.102H216.195V209.689H219.174V210.842H216.195V212.542H219.371V213.686H214.771V206.958Z" fill="#A9B5C7"/>
        <path d="M220.379 206.958H222.955C223.686 206.958 224.313 207.091 224.838 207.355C225.362 207.62 225.762 208.004 226.037 208.508C226.318 209.012 226.458 209.613 226.458 210.312C226.458 211.018 226.321 211.623 226.046 212.127C225.772 212.63 225.372 213.018 224.847 213.289C224.323 213.553 223.692 213.686 222.955 213.686H220.379V206.958ZM222.861 212.495C224.285 212.495 224.997 211.768 224.997 210.312C224.997 208.87 224.285 208.149 222.861 208.149H221.84V212.495H222.861Z" fill="#A9B5C7"/>
        <path d="M181.617 212.023H178.245L177.533 213.686H176.55L179.519 206.958H180.334L183.313 213.686H182.329L181.617 212.023ZM181.29 211.248L179.931 208.045L178.573 211.248H181.29Z" fill="#4ECEA3"/>
        <path d="M184.177 206.958H186.95C187.649 206.958 188.192 207.131 188.58 207.478C188.973 207.818 189.17 208.284 189.17 208.876C189.17 209.468 188.97 209.938 188.57 210.284C188.177 210.624 187.637 210.794 186.95 210.794H185.142V213.686H184.177V206.958ZM186.837 210.02C187.299 210.02 187.646 209.922 187.877 209.727C188.114 209.531 188.233 209.248 188.233 208.876C188.233 208.511 188.114 208.231 187.877 208.035C187.646 207.84 187.299 207.742 186.837 207.742H185.142V210.02H186.837Z" fill="#4ECEA3"/>
        <path d="M195.692 213.686H194.671L193.837 211.446C193.749 211.207 193.621 211.043 193.453 210.955C193.284 210.86 193.053 210.813 192.76 210.813H191.298V213.686H190.343V206.958H193.087C193.818 206.958 194.377 207.122 194.764 207.45C195.158 207.777 195.354 208.246 195.354 208.857C195.354 209.298 195.239 209.673 195.008 209.982C194.777 210.29 194.449 210.508 194.024 210.634C194.411 210.703 194.692 210.98 194.867 211.465L195.692 213.686ZM192.975 210.029C193.462 210.029 193.824 209.935 194.062 209.746C194.299 209.55 194.418 209.261 194.418 208.876C194.418 208.492 194.299 208.209 194.062 208.026C193.831 207.837 193.468 207.742 192.975 207.742H191.298V210.029H192.975Z" fill="#4ECEA3"/>
        <path d="M176.029 252.45H179.01V261.405H183.781V263.835H176.029V252.45Z" fill="#283049"/>
        <path d="M185.21 252.45H188.19V263.835H185.21V252.45Z" fill="#283049"/>
        <path d="M200.324 252.45V263.835H198.12L193 257.375V263.835H190.226V252.45H192.398L197.518 258.878V252.45H200.324Z" fill="#283049"/>
        <path d="M209.862 263.835L205.343 258.67V263.835H202.363V252.45H205.343V257.343L209.735 252.45H213.222L208.229 257.855L213.397 263.835H209.862Z" fill="#283049"/>
        <g clip-path="url(#step-1-5)">
            <path d="M281.932 267.861C280.657 269.147 279.138 270.162 277.467 270.843C275.796 271.525 274.006 271.859 272.204 271.827C270.413 271.863 268.634 271.529 266.975 270.847C265.316 270.164 263.812 269.147 262.556 267.857C261.269 266.592 260.255 265.072 259.575 263.394C258.896 261.715 258.566 259.912 258.606 258.099C258.606 254.131 259.925 250.825 262.562 248.181C263.82 246.891 265.324 245.875 266.984 245.193C268.643 244.511 270.423 244.178 272.214 244.214C274.015 244.183 275.805 244.519 277.476 245.201C279.146 245.883 280.664 246.897 281.939 248.184C284.635 250.831 285.983 254.138 285.983 258.106C286.017 259.927 285.674 261.735 284.977 263.415C284.279 265.095 283.242 266.609 281.932 267.861Z" fill="#4160AB"/>
            <path d="M272.309 249.735L270.798 250.598L266.676 252.969L265.175 253.858V262.13L266.679 263.019L270.822 265.417L272.329 266.306L273.828 265.417L277.903 263.046L279.413 262.157V253.884L277.909 252.995L273.816 250.598L272.309 249.735ZM268.172 260.378V255.598L272.294 253.226L276.416 255.636V260.417L272.294 262.788L268.172 260.378Z" fill="white"/>
        </g>
    </g>
    <g clip-path="url(#step-1-6)">
        <rect x="312" width="148" height="140" rx="8" fill="#F3F9FF"/>
        <path opacity="0.6" d="M460 66.3918L460 132C460 136.418 456.418 140 452 140H386C386 99.3473 419.131 66.3918 460 66.3918Z" fill="#FFE9BE"/>
        <path d="M347.871 40.0805H344.915V44.0207H340.253V40.0805H331.143V36.5646L341.107 22.4405H344.915V36.4131H347.871V40.0805ZM340.253 36.4131V29.6238L335.5 36.4131H340.253Z" fill="#4ECEA3"/>
        <path d="M354.867 39.1409V44.0207H349.901V39.1409H354.867Z" fill="#4ECEA3"/>
        <path d="M367.108 29.9875C368.367 29.9875 369.495 30.2906 370.49 30.8968C371.506 31.4827 372.288 32.3112 372.836 33.3821C373.405 34.4328 373.69 35.6351 373.69 36.9889C373.69 38.3832 373.365 39.6359 372.715 40.7473C372.085 41.8586 371.201 42.7275 370.064 43.3539C368.946 43.9803 367.677 44.2935 366.255 44.2935C363.431 44.2935 361.258 43.364 359.734 41.505C358.211 39.646 357.449 36.999 357.449 33.564C357.449 31.1999 357.814 29.1691 358.546 27.4718C359.277 25.7543 360.323 24.4409 361.684 23.5316C363.045 22.6223 364.67 22.1677 366.56 22.1677C367.9 22.1677 369.2 22.3799 370.46 22.8042C371.719 23.2285 372.796 23.8246 373.69 24.5924L372.136 27.9871C370.307 26.5928 368.52 25.8957 366.773 25.8957C365.351 25.8957 364.244 26.4716 363.452 27.6234C362.659 28.7549 362.223 30.4219 362.141 32.6244C362.609 31.8161 363.279 31.1796 364.152 30.7149C365.046 30.23 366.031 29.9875 367.108 29.9875ZM365.981 40.5957C366.956 40.5957 367.728 40.2825 368.296 39.6561C368.885 39.0298 369.18 38.2013 369.18 37.1708C369.18 36.0999 368.896 35.2613 368.327 34.6551C367.758 34.0287 366.976 33.7155 365.981 33.7155C365.006 33.7155 364.213 34.0388 363.604 34.6854C363.015 35.3118 362.72 36.1403 362.72 37.1708C362.72 38.1811 363.025 39.0095 363.634 39.6561C364.244 40.2825 365.026 40.5957 365.981 40.5957Z" fill="#4ECEA3"/>
        <path d="M387.694 32.8972C389.096 33.2609 390.183 33.8974 390.955 34.8067C391.727 35.7159 392.112 36.8273 392.112 38.1407C392.112 39.3935 391.757 40.4846 391.046 41.4141C390.355 42.3234 389.38 43.0306 388.121 43.5357C386.861 44.0207 385.419 44.2632 383.794 44.2632C382.169 44.2632 380.727 44.0207 379.467 43.5357C378.208 43.0306 377.223 42.3234 376.512 41.4141C375.821 40.4846 375.476 39.3935 375.476 38.1407C375.476 36.8273 375.861 35.7159 376.633 34.8067C377.426 33.8772 378.512 33.2407 379.894 32.8972C378.675 32.493 377.72 31.8667 377.03 31.018C376.339 30.1693 375.994 29.1691 375.994 28.0174C375.994 26.8454 376.329 25.8149 376.999 24.9258C377.669 24.0368 378.594 23.3599 379.772 22.8951C380.97 22.4102 382.311 22.1677 383.794 22.1677C385.277 22.1677 386.607 22.4102 387.786 22.8951C388.984 23.3599 389.919 24.0368 390.589 24.9258C391.259 25.8149 391.594 26.8454 391.594 28.0174C391.594 29.1893 391.239 30.2097 390.528 31.0786C389.837 31.9475 388.893 32.5537 387.694 32.8972ZM383.794 25.8048C382.778 25.8048 381.966 26.0372 381.356 26.5019C380.767 26.9667 380.473 27.6436 380.473 28.5326C380.473 29.3813 380.767 30.0683 381.356 30.5937C381.966 31.0988 382.778 31.4524 383.794 31.6545C384.81 31.4524 385.612 31.0988 386.201 30.5937C386.811 30.0683 387.115 29.3813 387.115 28.5326C387.115 27.6436 386.811 26.9667 386.201 26.5019C385.612 26.0372 384.81 25.8048 383.794 25.8048ZM383.794 40.626C384.993 40.626 385.937 40.3836 386.628 39.8986C387.339 39.4137 387.694 38.7065 387.694 37.777C387.694 36.9081 387.339 36.2009 386.628 35.6553C385.937 35.1097 384.993 34.746 383.794 34.5642C382.595 34.746 381.641 35.1097 380.93 35.6553C380.239 36.2009 379.894 36.9081 379.894 37.777C379.894 38.7065 380.239 39.4137 380.93 39.8986C381.641 40.3836 382.595 40.626 383.794 40.626Z" fill="#4ECEA3"/>
        <path d="M398.713 35.5038C397.23 35.5038 396.052 34.9582 395.178 33.8671C394.325 32.7759 393.898 31.119 393.898 28.8963C393.898 26.6535 394.325 24.9966 395.178 23.9256C396.052 22.8547 397.23 22.3192 398.713 22.3192C400.196 22.3192 401.364 22.8547 402.217 23.9256C403.07 24.9966 403.497 26.6535 403.497 28.8963C403.497 31.119 403.07 32.7759 402.217 33.8671C401.364 34.9582 400.196 35.5038 398.713 35.5038ZM398.713 33.7458C399.566 33.7458 400.196 33.3619 400.602 32.5941C401.028 31.8262 401.242 30.5937 401.242 28.8963C401.242 27.2192 401.028 25.9968 400.602 25.2289C400.196 24.4611 399.566 24.0772 398.713 24.0772C397.86 24.0772 397.22 24.4611 396.793 25.2289C396.387 25.9968 396.184 27.2192 396.184 28.8963C396.184 30.5937 396.387 31.8262 396.793 32.5941C397.22 33.3619 397.86 33.7458 398.713 33.7458ZM398.317 44.0207L410.87 22.4405H413.217L400.693 44.0207H398.317ZM412.821 44.1419C411.338 44.1419 410.159 43.5964 409.286 42.5052C408.433 41.4141 408.006 39.7572 408.006 37.5345C408.006 35.2916 408.433 33.6347 409.286 32.5638C410.159 31.4928 411.338 30.9574 412.821 30.9574C414.303 30.9574 415.472 31.4928 416.325 32.5638C417.178 33.6347 417.604 35.2916 417.604 37.5345C417.604 39.7572 417.178 41.4141 416.325 42.5052C415.472 43.5964 414.303 44.1419 412.821 44.1419ZM412.821 42.384C413.674 42.384 414.303 42.0001 414.71 41.2322C415.136 40.4644 415.35 39.2318 415.35 37.5345C415.35 35.8574 415.136 34.6349 414.71 33.8671C414.303 33.0992 413.674 32.7153 412.821 32.7153C411.967 32.7153 411.328 33.0992 410.901 33.8671C410.495 34.6349 410.292 35.8574 410.292 37.5345C410.292 39.2318 410.495 40.4644 410.901 41.2322C411.328 42.0001 411.967 42.384 412.821 42.384Z" fill="#4ECEA3"/>
        <path d="M355.474 57.5472H360.001V58.7011H356.926V60.249H359.812V61.4123H356.926V64.2268H355.474V57.5472Z" fill="#A9B5C7"/>
        <path d="M360.926 57.5472H362.397V64.2268H360.926V57.5472Z" fill="#A9B5C7"/>
        <path d="M369.677 64.2268H367.96L366.281 61.9189L364.603 64.2268H362.886L365.442 60.8401L362.962 57.5472H364.678L366.281 59.7706L367.904 57.5472H369.62L367.111 60.8401L369.677 64.2268Z" fill="#A9B5C7"/>
        <path d="M370.164 57.5472H374.795V58.6823H371.598V60.2584H374.597V61.403H371.598V63.0916H374.795V64.2268H370.164V57.5472Z" fill="#A9B5C7"/>
        <path d="M375.81 57.5472H378.404C379.139 57.5472 379.771 57.6785 380.299 57.9412C380.827 58.2039 381.23 58.5854 381.507 59.0857C381.789 59.5861 381.931 60.1834 381.931 60.8776C381.931 61.5781 381.793 62.1785 381.516 62.6788C381.239 63.1792 380.837 63.5638 380.309 63.8327C379.781 64.0954 379.146 64.2268 378.404 64.2268H375.81V57.5472ZM378.309 63.0447C379.743 63.0447 380.46 62.3223 380.46 60.8776C380.46 59.4454 379.743 58.7292 378.309 58.7292H377.281V63.0447H378.309Z" fill="#A9B5C7"/>
        <path d="M336.785 62.5756H333.39L332.673 64.2268H331.683L334.672 57.5472H335.493L338.492 64.2268H337.502L336.785 62.5756ZM336.455 61.8064L335.087 58.626L333.72 61.8064H336.455Z" fill="#4ECEA3"/>
        <path d="M339.362 57.5472H342.153C342.858 57.5472 343.405 57.7192 343.794 58.0632C344.191 58.4009 344.389 58.8637 344.389 59.4516C344.389 60.0395 344.187 60.5055 343.785 60.8494C343.389 61.1872 342.845 61.356 342.153 61.356H340.333V64.2268H339.362V57.5472ZM342.04 60.5868C342.506 60.5868 342.854 60.4898 343.087 60.2959C343.326 60.1021 343.446 59.8206 343.446 59.4516C343.446 59.0889 343.326 58.8105 343.087 58.6167C342.854 58.4228 342.506 58.3258 342.04 58.3258H340.333V60.5868H342.04Z" fill="#4ECEA3"/>
        <path d="M350.955 64.2268H349.927L349.087 62.0034C348.999 61.7657 348.87 61.6031 348.701 61.5155C348.531 61.4217 348.298 61.3748 348.003 61.3748H346.531V64.2268H345.569V57.5472H348.333C349.069 57.5472 349.631 57.7098 350.021 58.035C350.417 58.3602 350.615 58.8262 350.615 59.4328C350.615 59.8706 350.499 60.2428 350.266 60.5492C350.034 60.8557 349.704 61.0715 349.276 61.1966C349.666 61.2654 349.949 61.5405 350.125 62.0221L350.955 64.2268ZM348.22 60.5961C348.71 60.5961 349.075 60.5023 349.314 60.3147C349.553 60.1208 349.672 59.8331 349.672 59.4516C349.672 59.0701 349.553 58.7887 349.314 58.6073C349.081 58.4197 348.716 58.3258 348.22 58.3258H346.531V60.5961H348.22Z" fill="#4ECEA3"/>
        <path d="M331.159 102.717H335.803C337.059 102.717 338.139 102.944 339.043 103.399C339.958 103.844 340.655 104.49 341.134 105.336C341.624 106.183 341.868 107.189 341.868 108.353C341.868 109.528 341.629 110.544 341.15 111.401C340.671 112.248 339.974 112.899 339.059 113.354C338.155 113.798 337.069 114.021 335.803 114.021H331.159V102.717ZM335.596 111.639C336.702 111.639 337.527 111.369 338.07 110.829C338.623 110.279 338.9 109.454 338.9 108.353C338.9 106.183 337.798 105.098 335.596 105.098H334.159V111.639H335.596Z" fill="#283049"/>
        <path d="M350.946 111.687H345.903L344.897 114.021H341.897L347.211 102.717H349.574L354.905 114.021H351.952L350.946 111.687ZM349.973 109.448L348.425 105.876L346.876 109.448H349.973Z" fill="#283049"/>
        <path d="M355.552 102.717H358.552V114.021H355.552V102.717Z" fill="#283049"/>
        <g clip-path="url(#step-1-7)">
            <ellipse cx="428.078" cy="108.247" rx="13.7843" ry="13.7113" fill="#F8A608"/>
            <path fill-rule="evenodd" clip-rule="evenodd" d="M423.082 102.214H428.267C431.617 102.214 434.333 104.916 434.333 108.248C434.333 111.581 431.617 114.282 428.267 114.282H423.082V102.214ZM424.417 103.543V112.954H428.267C430.88 112.954 432.998 110.847 432.998 108.248C432.998 105.649 430.88 103.543 428.267 103.543H424.417Z" fill="white"/>
            <path d="M421.377 107.51H435.512V106.182H421.377V107.51Z" fill="white"/>
            <path d="M421.377 110.336H435.512V109.008H421.377V110.336Z" fill="white"/>
        </g>
    </g>
    <g clip-path="url(#step-1-8)">
        <rect x="312" y="149" width="148" height="141" rx="8" fill="#F3F9FF"/>
        <path d="M460 215.866L460 282C460 286.418 456.418 290 452 290H386C386 249.057 419.131 215.866 460 215.866Z" fill="#ECECEC"/>
        <path d="M347.018 189.519V193.335H332.118V189.825L339.339 182.132C340.843 180.504 341.594 179.019 341.594 177.675C341.594 176.821 341.34 176.18 340.832 175.752C340.345 175.305 339.624 175.081 338.669 175.081C336.82 175.081 334.901 175.783 332.91 177.187L331.386 173.768C332.26 173.015 333.377 172.425 334.738 171.998C336.099 171.55 337.481 171.326 338.882 171.326C341.137 171.326 342.925 171.875 344.245 172.974C345.586 174.053 346.256 175.508 346.256 177.34C346.256 178.601 345.992 179.771 345.464 180.85C344.956 181.908 344.093 183.089 342.874 184.391L337.968 189.519H347.018Z" fill="#4ECEA3"/>
        <path d="M354.897 188.42V193.335H349.93V188.42H354.897Z" fill="#4ECEA3"/>
        <path d="M366.864 179.263C368.204 179.263 369.393 179.558 370.429 180.148C371.485 180.718 372.297 181.532 372.866 182.59C373.455 183.648 373.75 184.869 373.75 186.253C373.75 187.718 373.405 189.011 372.714 190.13C372.044 191.229 371.068 192.084 369.789 192.694C368.529 193.284 367.057 193.579 365.37 193.579C363.989 193.579 362.618 193.355 361.257 192.908C359.916 192.46 358.829 191.87 357.997 191.137L359.52 187.718C361.45 189.123 363.42 189.825 365.431 189.825C367.971 189.825 369.24 188.695 369.24 186.436C369.24 185.358 368.905 184.513 368.235 183.903C367.585 183.272 366.691 182.956 365.553 182.956C364.842 182.956 364.121 183.089 363.39 183.353C362.679 183.618 362.039 183.984 361.47 184.452H358.758V171.601H372.683V175.264H363.39V180.117C364.345 179.548 365.503 179.263 366.864 179.263Z" fill="#4ECEA3"/>
        <path d="M383.824 193.61C381.203 193.61 379.192 192.653 377.791 190.74C376.409 188.827 375.719 186.06 375.719 182.437C375.719 178.856 376.409 176.119 377.791 174.226C379.192 172.333 381.203 171.387 383.824 171.387C386.444 171.387 388.445 172.333 389.826 174.226C391.228 176.119 391.929 178.856 391.929 182.437C391.929 186.06 391.228 188.827 389.826 190.74C388.445 192.653 386.444 193.61 383.824 193.61ZM383.824 189.947C385.022 189.947 385.896 189.357 386.444 188.176C386.993 186.996 387.267 185.083 387.267 182.437C387.267 179.853 386.993 177.981 386.444 176.821C385.896 175.64 385.022 175.05 383.824 175.05C382.625 175.05 381.752 175.64 381.203 176.821C380.655 177.981 380.381 179.853 380.381 182.437C380.381 185.083 380.655 186.996 381.203 188.176C381.752 189.357 382.625 189.947 383.824 189.947Z" fill="#4ECEA3"/>
        <path d="M398.742 184.757C397.26 184.757 396.081 184.208 395.208 183.109C394.355 182.01 393.928 180.341 393.928 178.103C393.928 175.844 394.355 174.175 395.208 173.097C396.081 172.018 397.26 171.479 398.742 171.479C400.225 171.479 401.393 172.018 402.247 173.097C403.1 174.175 403.526 175.844 403.526 178.103C403.526 180.341 403.1 182.01 402.247 183.109C401.393 184.208 400.225 184.757 398.742 184.757ZM398.742 182.987C399.596 182.987 400.225 182.6 400.632 181.827C401.058 181.054 401.271 179.812 401.271 178.103C401.271 176.414 401.058 175.182 400.632 174.409C400.225 173.636 399.596 173.249 398.742 173.249C397.889 173.249 397.249 173.636 396.823 174.409C396.417 175.182 396.213 176.414 396.213 178.103C396.213 179.812 396.417 181.054 396.823 181.827C397.249 182.6 397.889 182.987 398.742 182.987ZM398.346 193.335L410.9 171.601H413.246L400.723 193.335H398.346ZM412.85 193.457C411.367 193.457 410.189 192.908 409.316 191.809C408.463 190.71 408.036 189.041 408.036 186.803C408.036 184.544 408.463 182.875 409.316 181.796C410.189 180.718 411.367 180.178 412.85 180.178C414.333 180.178 415.501 180.718 416.354 181.796C417.208 182.875 417.634 184.544 417.634 186.803C417.634 189.041 417.208 190.71 416.354 191.809C415.501 192.908 414.333 193.457 412.85 193.457ZM412.85 191.687C413.703 191.687 414.333 191.3 414.739 190.527C415.166 189.753 415.379 188.512 415.379 186.803C415.379 185.113 415.166 183.882 414.739 183.109C414.333 182.336 413.703 181.949 412.85 181.949C411.997 181.949 411.357 182.336 410.931 183.109C410.524 183.882 410.321 185.113 410.321 186.803C410.321 188.512 410.524 189.753 410.931 190.527C411.357 191.3 411.997 191.687 412.85 191.687Z" fill="#4ECEA3"/>
        <path d="M355.474 206.958H360.001V208.12H356.926V209.679H359.812V210.851H356.926V213.686H355.474V206.958Z" fill="#A9B5C7"/>
        <path d="M360.926 206.958H362.397V213.686H360.926V206.958Z" fill="#A9B5C7"/>
        <path d="M369.677 213.686H367.96L366.281 211.361L364.603 213.686H362.886L365.442 210.275L362.962 206.958H364.678L366.281 209.198L367.904 206.958H369.62L367.111 210.275L369.677 213.686Z" fill="#A9B5C7"/>
        <path d="M370.164 206.958H374.795V208.102H371.598V209.689H374.597V210.842H371.598V212.542H374.795V213.686H370.164V206.958Z" fill="#A9B5C7"/>
        <path d="M375.81 206.958H378.404C379.139 206.958 379.771 207.091 380.299 207.355C380.827 207.62 381.23 208.004 381.507 208.508C381.789 209.012 381.931 209.613 381.931 210.312C381.931 211.018 381.793 211.623 381.516 212.127C381.239 212.63 380.837 213.018 380.309 213.289C379.781 213.553 379.146 213.686 378.404 213.686H375.81V206.958ZM378.309 212.495C379.743 212.495 380.46 211.768 380.46 210.312C380.46 208.87 379.743 208.149 378.309 208.149H377.281V212.495H378.309Z" fill="#A9B5C7"/>
        <path d="M336.785 212.023H333.39L332.673 213.686H331.683L334.672 206.958H335.493L338.492 213.686H337.502L336.785 212.023ZM336.455 211.248L335.087 208.045L333.72 211.248H336.455Z" fill="#4ECEA3"/>
        <path d="M339.362 206.958H342.153C342.858 206.958 343.405 207.131 343.794 207.478C344.191 207.818 344.389 208.284 344.389 208.876C344.389 209.468 344.187 209.938 343.785 210.284C343.389 210.624 342.845 210.794 342.153 210.794H340.333V213.686H339.362V206.958ZM342.04 210.02C342.506 210.02 342.854 209.922 343.087 209.727C343.326 209.531 343.446 209.248 343.446 208.876C343.446 208.511 343.326 208.231 343.087 208.035C342.854 207.84 342.506 207.742 342.04 207.742H340.333V210.02H342.04Z" fill="#4ECEA3"/>
        <path d="M350.955 213.686H349.927L349.087 211.446C348.999 211.207 348.87 211.043 348.701 210.955C348.531 210.86 348.298 210.813 348.003 210.813H346.531V213.686H345.569V206.958H348.333C349.069 206.958 349.631 207.122 350.021 207.45C350.417 207.777 350.615 208.246 350.615 208.857C350.615 209.298 350.499 209.673 350.266 209.982C350.034 210.29 349.704 210.508 349.276 210.634C349.666 210.703 349.949 210.98 350.125 211.465L350.955 213.686ZM348.22 210.029C348.71 210.029 349.075 209.935 349.314 209.746C349.553 209.55 349.672 209.261 349.672 208.876C349.672 208.492 349.553 208.209 349.314 208.026C349.081 207.837 348.716 207.742 348.22 207.742H346.531V210.029H348.22Z" fill="#4ECEA3"/>
        <path d="M331.159 252.45H339.267V254.753H334.08V256.896H338.932V259.198H334.08V261.533H339.267V263.835H331.159V252.45Z" fill="#283049"/>
        <path d="M343.61 254.881H340.226V252.45H350.026V254.881H346.643V263.835H343.61V254.881Z" fill="#283049"/>
        <path d="M361.705 252.45V263.835H358.768V259.23H354.171V263.835H351.234V252.45H354.171V256.88H358.768V252.45H361.705Z" fill="#283049"/>
        <g clip-path="url(#step-1-9)">
            <path d="M437.788 267.852C436.505 269.139 434.977 270.155 433.295 270.838C431.612 271.521 429.81 271.858 427.996 271.827C426.191 271.862 424.399 271.528 422.728 270.844C421.057 270.161 419.543 269.142 418.277 267.852C416.983 266.587 415.961 265.068 415.276 263.391C414.592 261.713 414.258 259.912 414.297 258.099C414.297 254.13 415.624 250.823 418.277 248.18C419.544 246.891 421.058 245.874 422.729 245.193C424.4 244.511 426.192 244.178 427.996 244.214C429.81 244.183 431.611 244.517 433.294 245.199C434.976 245.88 436.505 246.894 437.788 248.18C440.503 250.823 441.86 254.13 441.86 258.099C441.895 259.919 441.551 261.727 440.85 263.406C440.149 265.086 439.106 266.6 437.788 267.852Z" fill="#C8C8C8"/>
            <path d="M428.087 248.926L422.565 258.09L428.087 255.579V248.926Z" fill="#8B8B8B"/>
            <path d="M428.087 255.579L422.565 258.09L428.087 261.353V255.579Z" fill="#393939"/>
            <path d="M428.087 248.926V255.579L433.604 258.09L428.087 248.926Z" fill="#343434"/>
            <path d="M428.087 255.579V261.353L433.604 258.09L428.087 255.579Z" fill="#161616"/>
            <path d="M422.565 259.136L428.087 266.92V262.402L422.565 259.136Z" fill="#8B8B8B"/>
            <path d="M433.609 259.136L428.087 262.402V266.92L433.609 259.136Z" fill="#343434"/>
        </g>
    </g>
    <rect x="157.5" y="0.5" width="146" height="139" rx="7.5" fill="white" stroke="#A9B5C7"/>
    <path d="M303 50.2373L303 132C303 135.866 299.866 139 296 139H214.368C214.368 89.9778 254.05 50.2373 303 50.2373Z" fill="#D8D3FF"/>
    <path d="M185.668 29.9875C186.919 29.9875 188.039 30.2906 189.027 30.8968C190.036 31.4827 190.813 32.3112 191.358 33.3821C191.923 34.4328 192.205 35.6351 192.205 36.9889C192.205 38.3832 191.882 39.6359 191.237 40.7473C190.611 41.8586 189.733 42.7275 188.603 43.3539C187.494 43.9803 186.233 44.2935 184.82 44.2935C182.016 44.2935 179.857 43.364 178.344 41.505C176.831 39.646 176.074 36.999 176.074 33.564C176.074 31.1999 176.437 29.1691 177.163 27.4718C177.89 25.7543 178.929 24.4409 180.281 23.5316C181.633 22.6223 183.247 22.1677 185.123 22.1677C186.455 22.1677 187.746 22.3799 188.997 22.8042C190.248 23.2285 191.317 23.8246 192.205 24.5924L190.661 27.9871C188.846 26.5928 187.07 25.8957 185.335 25.8957C183.923 25.8957 182.823 26.4716 182.036 27.6234C181.249 28.7549 180.815 30.4219 180.735 32.6244C181.199 31.8161 181.865 31.1796 182.732 30.7149C183.62 30.23 184.598 29.9875 185.668 29.9875ZM184.548 40.5957C185.516 40.5957 186.283 40.2825 186.848 39.6561C187.433 39.0298 187.726 38.2013 187.726 37.1708C187.726 36.0999 187.443 35.2613 186.878 34.6551C186.313 34.0287 185.537 33.7155 184.548 33.7155C183.58 33.7155 182.793 34.0388 182.187 34.6854C181.602 35.3118 181.31 36.1403 181.31 37.1708C181.31 38.1811 181.612 39.0095 182.218 39.6561C182.823 40.2825 183.6 40.5957 184.548 40.5957Z" fill="#4ECEA3"/>
    <path d="M199.578 39.1409V44.0207H194.645V39.1409H199.578Z" fill="#4ECEA3"/>
    <path d="M210.162 44.2935C207.559 44.2935 205.562 43.3438 204.169 41.4444C202.797 39.545 202.111 36.797 202.111 33.2003C202.111 29.644 202.797 26.9262 204.169 25.0471C205.562 23.1679 207.559 22.2283 210.162 22.2283C212.765 22.2283 214.752 23.1679 216.124 25.0471C217.516 26.9262 218.212 29.644 218.212 33.2003C218.212 36.797 217.516 39.545 216.124 41.4444C214.752 43.3438 212.765 44.2935 210.162 44.2935ZM210.162 40.6564C211.352 40.6564 212.22 40.0704 212.765 38.8984C213.309 37.7265 213.582 35.8271 213.582 33.2003C213.582 30.6341 213.309 28.7751 212.765 27.6234C212.22 26.4514 211.352 25.8654 210.162 25.8654C208.971 25.8654 208.104 26.4514 207.559 27.6234C207.014 28.7751 206.742 30.6341 206.742 33.2003C206.742 35.8271 207.014 37.7265 207.559 38.8984C208.104 40.0704 208.971 40.6564 210.162 40.6564Z" fill="#4ECEA3"/>
    <path d="M228.309 44.2935C225.706 44.2935 223.709 43.3438 222.316 41.4444C220.944 39.545 220.258 36.797 220.258 33.2003C220.258 29.644 220.944 26.9262 222.316 25.0471C223.709 23.1679 225.706 22.2283 228.309 22.2283C230.912 22.2283 232.899 23.1679 234.271 25.0471C235.663 26.9262 236.359 29.644 236.359 33.2003C236.359 36.797 235.663 39.545 234.271 41.4444C232.899 43.3438 230.912 44.2935 228.309 44.2935ZM228.309 40.6564C229.499 40.6564 230.367 40.0704 230.912 38.8984C231.456 37.7265 231.729 35.8271 231.729 33.2003C231.729 30.6341 231.456 28.7751 230.912 27.6234C230.367 26.4514 229.499 25.8654 228.309 25.8654C227.118 25.8654 226.251 26.4514 225.706 27.6234C225.161 28.7751 224.889 30.6341 224.889 33.2003C224.889 35.8271 225.161 37.7265 225.706 38.8984C226.251 40.0704 227.118 40.6564 228.309 40.6564Z" fill="#4ECEA3"/>
    <path d="M243.127 35.5038C241.654 35.5038 240.484 34.9582 239.616 33.8671C238.769 32.7759 238.345 31.119 238.345 28.8963C238.345 26.6535 238.769 24.9966 239.616 23.9256C240.484 22.8547 241.654 22.3192 243.127 22.3192C244.6 22.3192 245.76 22.8547 246.607 23.9256C247.455 24.9966 247.878 26.6535 247.878 28.8963C247.878 31.119 247.455 32.7759 246.607 33.8671C245.76 34.9582 244.6 35.5038 243.127 35.5038ZM243.127 33.7458C243.974 33.7458 244.6 33.3619 245.003 32.5941C245.427 31.8262 245.639 30.5937 245.639 28.8963C245.639 27.2192 245.427 25.9968 245.003 25.2289C244.6 24.4611 243.974 24.0772 243.127 24.0772C242.279 24.0772 241.644 24.4611 241.22 25.2289C240.817 25.9968 240.615 27.2192 240.615 28.8963C240.615 30.5937 240.817 31.8262 241.22 32.5941C241.644 33.3619 242.279 33.7458 243.127 33.7458ZM242.733 44.0207L255.202 22.4405H257.533L245.094 44.0207H242.733ZM257.139 44.1419C255.666 44.1419 254.496 43.5964 253.629 42.5052C252.781 41.4141 252.357 39.7572 252.357 37.5345C252.357 35.2916 252.781 33.6347 253.629 32.5638C254.496 31.4928 255.666 30.9574 257.139 30.9574C258.612 30.9574 259.772 31.4928 260.62 32.5638C261.467 33.6347 261.891 35.2916 261.891 37.5345C261.891 39.7572 261.467 41.4141 260.62 42.5052C259.772 43.5964 258.612 44.1419 257.139 44.1419ZM257.139 42.384C257.987 42.384 258.612 42.0001 259.016 41.2322C259.439 40.4644 259.651 39.2318 259.651 37.5345C259.651 35.8574 259.439 34.6349 259.016 33.8671C258.612 33.0992 257.987 32.7153 257.139 32.7153C256.292 32.7153 255.656 33.0992 255.233 33.8671C254.829 34.6349 254.627 35.8574 254.627 37.5345C254.627 39.2318 254.829 40.4644 255.233 41.2322C255.656 42.0001 256.292 42.384 257.139 42.384Z" fill="#4ECEA3"/>
    <path d="M200.18 57.5472H204.676V58.7011H201.622V60.249H204.489V61.4123H201.622V64.2268H200.18V57.5472Z" fill="#A9B5C7"/>
    <path d="M205.596 57.5472H207.057V64.2268H205.596V57.5472Z" fill="#A9B5C7"/>
    <path d="M214.287 64.2268H212.582L210.915 61.9189L209.247 64.2268H207.542L210.081 60.8401L207.617 57.5472H209.322L210.915 59.7706L212.526 57.5472H214.231L211.739 60.8401L214.287 64.2268Z" fill="#A9B5C7"/>
    <path d="M214.771 57.5472H219.371V58.6823H216.195V60.2584H219.174V61.403H216.195V63.0916H219.371V64.2268H214.771V57.5472Z" fill="#A9B5C7"/>
    <path d="M220.379 57.5472H222.955C223.686 57.5472 224.313 57.6785 224.838 57.9412C225.362 58.2039 225.762 58.5854 226.037 59.0857C226.318 59.5861 226.458 60.1834 226.458 60.8776C226.458 61.5781 226.321 62.1785 226.046 62.6788C225.772 63.1792 225.372 63.5638 224.847 63.8327C224.323 64.0954 223.692 64.2268 222.955 64.2268H220.379V57.5472ZM222.861 63.0447C224.285 63.0447 224.997 62.3223 224.997 60.8776C224.997 59.4454 224.285 58.7292 222.861 58.7292H221.84V63.0447H222.861Z" fill="#A9B5C7"/>
    <path d="M181.617 62.5756H178.245L177.533 64.2268H176.55L179.519 57.5472H180.334L183.313 64.2268H182.329L181.617 62.5756ZM181.29 61.8064L179.931 58.626L178.573 61.8064H181.29Z" fill="#4ECEA3"/>
    <path d="M184.177 57.5472H186.95C187.649 57.5472 188.192 57.7192 188.58 58.0632C188.973 58.4009 189.17 58.8637 189.17 59.4516C189.17 60.0395 188.97 60.5055 188.57 60.8494C188.177 61.1872 187.637 61.356 186.95 61.356H185.142V64.2268H184.177V57.5472ZM186.837 60.5868C187.299 60.5868 187.646 60.4898 187.877 60.2959C188.114 60.1021 188.233 59.8206 188.233 59.4516C188.233 59.0889 188.114 58.8105 187.877 58.6167C187.646 58.4228 187.299 58.3258 186.837 58.3258H185.142V60.5868H186.837Z" fill="#4ECEA3"/>
    <path d="M195.692 64.2268H194.671L193.837 62.0034C193.749 61.7657 193.621 61.6031 193.453 61.5155C193.284 61.4217 193.053 61.3748 192.76 61.3748H191.298V64.2268H190.343V57.5472H193.087C193.818 57.5472 194.377 57.7098 194.764 58.035C195.158 58.3602 195.354 58.8262 195.354 59.4328C195.354 59.8706 195.239 60.2428 195.008 60.5492C194.777 60.8557 194.449 61.0715 194.024 61.1966C194.411 61.2654 194.692 61.5405 194.867 62.0221L195.692 64.2268ZM192.975 60.5961C193.462 60.5961 193.824 60.5023 194.062 60.3147C194.299 60.1208 194.418 59.8331 194.418 59.4516C194.418 59.0701 194.299 58.7887 194.062 58.6073C193.831 58.4197 193.468 58.3258 192.975 58.3258H191.298V60.5961H192.975Z" fill="#4ECEA3"/>
    <path d="M180.119 114.163C179.274 114.163 178.439 114.052 177.615 113.83C176.79 113.608 176.119 113.306 175.601 112.925L176.537 110.814C177.086 111.163 177.667 111.433 178.28 111.623C178.904 111.803 179.528 111.893 180.151 111.893C180.785 111.893 181.271 111.808 181.61 111.639C181.948 111.459 182.117 111.21 182.117 110.893C182.117 110.607 181.964 110.374 181.657 110.194C181.351 110.004 180.775 109.819 179.929 109.639C178.862 109.427 178.032 109.168 177.44 108.861C176.848 108.543 176.431 108.173 176.188 107.749C175.955 107.326 175.839 106.813 175.839 106.209C175.839 105.521 176.035 104.902 176.426 104.352C176.817 103.791 177.366 103.357 178.074 103.05C178.782 102.733 179.591 102.574 180.5 102.574C181.314 102.574 182.101 102.69 182.862 102.923C183.633 103.145 184.236 103.442 184.669 103.812L183.75 105.924C183.253 105.574 182.73 105.31 182.18 105.13C181.631 104.939 181.081 104.844 180.532 104.844C179.993 104.844 179.559 104.95 179.232 105.162C178.904 105.363 178.74 105.638 178.74 105.987C178.74 106.178 178.798 106.336 178.915 106.463C179.031 106.59 179.247 106.717 179.565 106.844C179.882 106.961 180.357 107.088 180.991 107.226C182.016 107.448 182.82 107.718 183.401 108.035C183.993 108.342 184.41 108.707 184.653 109.131C184.896 109.543 185.018 110.041 185.018 110.623C185.018 111.724 184.59 112.592 183.734 113.227C182.878 113.851 181.673 114.163 180.119 114.163Z" fill="#283049"/>
    <path d="M194.104 111.687H189.095L188.096 114.021H185.116L190.395 102.717H192.741L198.036 114.021H195.103L194.104 111.687ZM193.137 109.448L191.599 105.876L190.062 109.448H193.137Z" fill="#283049"/>
    <path d="M198.679 102.717H201.659V114.021H198.679V102.717Z" fill="#283049"/>
    <path d="M286.206 108.247C286.206 115.943 279.977 122.18 272.294 122.18C264.612 122.18 258.382 115.943 258.382 108.247C258.382 100.552 264.612 94.3144 272.294 94.3144C279.977 94.3144 286.206 100.552 286.206 108.247Z" fill="white" stroke="#A9B5C7"/>
    <path d="M266.529 108.247H278.059M278.059 108.247L273.735 103.918M278.059 108.247L273.735 112.577" stroke="#A9B5C7" stroke-width="2" stroke-linecap="round" stroke-linejoin="round"/>
    <g filter="url(#filter0_d)">
        <path d="M242.95 123V132.75L240.371 130.171C239.396 129.195 237.762 129.396 237.052 130.58C236.552 131.414 236.683 132.483 237.371 133.171L243.572 139.371C244.134 139.934 244.45 140.697 244.45 141.493V143.25H254.95L257.736 136.286C257.877 135.932 257.95 135.554 257.95 135.172V131.25C257.95 129.593 256.607 128.25 254.95 128.25C254.95 127.422 254.279 126.75 253.45 126.75H251.2H247.45V123C247.45 121.757 246.443 120.75 245.2 120.75C243.958 120.75 242.95 121.757 242.95 123Z" fill="white"/>
    </g>
    <path fill-rule="evenodd" clip-rule="evenodd" d="M245.2 121.5C244.372 121.5 243.7 122.172 243.7 123V133.5C243.7 133.914 243.364 134.25 242.95 134.25C242.536 134.25 242.2 133.914 242.2 133.5V133.061L239.841 130.701C239.21 130.071 238.154 130.201 237.695 130.966C237.372 131.505 237.457 132.196 237.902 132.641L244.102 138.841C244.805 139.544 245.2 140.498 245.2 141.493V142.5H254.442L257.039 136.008C257.146 135.742 257.2 135.458 257.2 135.172V131.25C257.2 130.27 256.574 129.437 255.7 129.128V129.75C255.7 130.164 255.364 130.5 254.95 130.5C254.536 130.5 254.2 130.164 254.2 129.75V128.25C254.2 127.836 253.864 127.5 253.45 127.5H251.95V129.75C251.95 130.164 251.614 130.5 251.2 130.5C250.786 130.5 250.45 130.164 250.45 129.75V127.5H248.2V129.75C248.2 130.164 247.864 130.5 247.45 130.5C247.036 130.5 246.7 130.164 246.7 129.75V123C246.7 122.172 246.029 121.5 245.2 121.5ZM248.2 126V123C248.2 121.343 246.857 120 245.2 120C243.543 120 242.2 121.343 242.2 123V130.939L240.902 129.641C239.581 128.32 237.37 128.592 236.409 130.194C235.731 131.324 235.909 132.77 236.841 133.701L243.041 139.902C243.463 140.324 243.7 140.896 243.7 141.493V144H255.458L258.432 136.565C258.609 136.122 258.7 135.649 258.7 135.172V131.25C258.7 129.397 257.357 127.858 255.591 127.554C255.298 126.652 254.45 126 253.45 126H248.2Z" fill="#283049"/>
    <path d="M247.45 132.75C247.864 132.75 248.2 133.086 248.2 133.5V138C248.2 138.414 247.864 138.75 247.45 138.75C247.036 138.75 246.7 138.414 246.7 138V133.5C246.7 133.086 247.036 132.75 247.45 132.75Z" fill="#828282"/>
    <path d="M253.45 132.75C253.864 132.75 254.2 133.086 254.2 133.5V138C254.2 138.414 253.864 138.75 253.45 138.75C253.036 138.75 252.7 138.414 252.7 138V133.5C252.7 133.086 253.036 132.75 253.45 132.75Z" fill="#828282"/>
    <path d="M251.2 133.5C251.2 133.086 250.864 132.75 250.45 132.75C250.036 132.75 249.7 133.086 249.7 133.5V138C249.7 138.414 250.036 138.75 250.45 138.75C250.864 138.75 251.2 138.414 251.2 138V133.5Z" fill="#828282"/>
    <defs>
        <filter id="filter0_d" x="233.75" y="119.75" width="31.2002" height="32.5" filterUnits="userSpaceOnUse" color-interpolation-filters="sRGB">
            <feFlood flood-opacity="0" result="BackgroundImageFix"/>
            <feColorMatrix in="SourceAlpha" type="matrix" values="0 0 0 0 0 0 0 0 0 0 0 0 0 0 0 0 0 0 127 0"/>
            <feOffset dx="2" dy="4"/>
            <feGaussianBlur stdDeviation="2.5"/>
            <feColorMatrix type="matrix" values="0 0 0 0 0 0 0 0 0 0 0 0 0 0 0 0 0 0 0.25 0"/>
            <feBlend mode="normal" in2="BackgroundImageFix" result="effect1_dropShadow"/>
            <feBlend mode="normal" in="SourceGraphic" in2="effect1_dropShadow" result="shape"/>
        </filter>
        <clipPath id="step-1-0">
            <rect width="148" height="140" fill="white"/>
        </clipPath>
        <clipPath id="step-1-1">
            <rect width="27.5686" height="27.4227" fill="white" transform="translate(102.294 94.5361)"/>
        </clipPath>
        <clipPath id="step-1-2">
            <rect width="148" height="141" fill="white" transform="translate(0 149)"/>
        </clipPath>
        <clipPath id="step-1-3">
            <rect width="27.5686" height="27.6186" fill="white" transform="translate(102.294 244.211)"/>
        </clipPath>
        <clipPath id="step-1-4">
            <rect width="147" height="141" fill="white" transform="translate(157 149)"/>
        </clipPath>
        <clipPath id="step-1-5">
            <rect width="27.3823" height="27.6186" fill="white" transform="translate(258.603 244.211)"/>
        </clipPath>
        <clipPath id="step-1-6">
            <rect width="148" height="140" fill="white" transform="translate(312)"/>
        </clipPath>
        <clipPath id="step-1-7">
            <rect width="27.5686" height="27.4227" fill="white" transform="translate(414.294 94.5361)"/>
        </clipPath>
        <clipPath id="step-1-8">
            <rect width="148" height="141" fill="white" transform="translate(312 149)"/>
        </clipPath>
        <clipPath id="step-1-9">
            <rect width="27.5686" height="27.6186" fill="white" transform="translate(414.294 244.211)"/>
        </clipPath>
    </defs>
</svg>
