<svg width="460" height="285" viewBox="0 0 460 285" fill="none" 
    xmlns="http://www.w3.org/2000/svg">
    <rect width="460" height="285" rx="8" fill="white"/>
    <rect y="149" width="460" height="50" fill="#F5F7F9"/>
    <path d="M213.938 189.126C212.734 189.126 211.81 188.687 211.166 187.81C210.532 186.933 210.214 185.663 210.214 184.002C210.214 182.359 210.532 181.104 211.166 180.236C211.81 179.368 212.734 178.934 213.938 178.934C215.142 178.934 216.062 179.368 216.696 180.236C217.34 181.104 217.662 182.359 217.662 184.002C217.662 185.663 217.34 186.933 216.696 187.81C216.062 188.687 215.142 189.126 213.938 189.126ZM213.938 187.446C214.489 187.446 214.89 187.175 215.142 186.634C215.394 186.093 215.52 185.215 215.52 184.002C215.52 182.817 215.394 181.958 215.142 181.426C214.89 180.885 214.489 180.614 213.938 180.614C213.388 180.614 212.986 180.885 212.734 181.426C212.482 181.958 212.356 182.817 212.356 184.002C212.356 185.215 212.482 186.093 212.734 186.634C212.986 187.175 213.388 187.446 213.938 187.446Z" fill="#283049"/>
    <path d="M223.064 179.032H229.938V180.726H225.192V183.078H229.644V184.786H225.192V187.306H229.938V189H223.064V179.032Z" fill="#283049"/>
    <path d="M233.851 180.81H230.729V179.032H239.185V180.81H236.063V189H233.851V180.81Z" fill="#283049"/>
    <path d="M249.25 179.032V189H247.108V184.814H242.488V189H240.346V179.032H242.488V183.064H247.108V179.032H249.25Z" fill="#283049"/>
    <path d="M424.121 35.7072L430.414 29.4142L429 28L422.707 34.293L416.414 28.0002L415 29.4144L421.293 35.7072L415 42L416.414 43.4142L422.707 37.1214L429 43.4144L430.414 42.0002L424.121 35.7072Z" fill="#A3B0C2"/>
    <path d="M39.2309 34.727C39.9449 34.931 40.4946 35.2937 40.8799 35.815C41.2652 36.325 41.4579 36.9484 41.4579 37.685C41.4579 38.3537 41.2822 38.9374 40.9309 39.436C40.5796 39.9347 40.0752 40.32 39.4179 40.592C38.7719 40.864 38.0069 41 37.1229 41H31.0879V28.896H36.9699C38.2392 28.896 39.2479 29.1794 39.9959 29.746C40.7439 30.3127 41.1179 31.0777 41.1179 32.041C41.1179 32.6644 40.9536 33.214 40.6249 33.69C40.2962 34.166 39.8316 34.5117 39.2309 34.727ZM34.1989 33.639H36.4259C37.0152 33.639 37.4459 33.5484 37.7179 33.367C37.9899 33.1857 38.1259 32.8967 38.1259 32.5C38.1259 32.092 37.9842 31.7917 37.7009 31.599C37.4289 31.4064 37.0039 31.31 36.4259 31.31H34.1989V33.639ZM36.7489 38.586C37.3609 38.586 37.7972 38.4897 38.0579 38.297C38.3299 38.1044 38.4659 37.7814 38.4659 37.328C38.4659 36.8634 38.3356 36.5347 38.0749 36.342C37.8142 36.1494 37.3722 36.053 36.7489 36.053H34.1989V38.586H36.7489Z" fill="#283049"/>
    <path d="M47.2064 41.136C46.2431 41.136 45.4044 40.9547 44.6904 40.592C43.9764 40.2294 43.4267 39.708 43.0414 39.028C42.6561 38.348 42.4634 37.549 42.4634 36.631C42.4634 35.713 42.6561 34.914 43.0414 34.234C43.4267 33.554 43.9764 33.0327 44.6904 32.67C45.4044 32.3074 46.2431 32.126 47.2064 32.126C48.1584 32.126 48.9857 32.313 49.6884 32.687C50.4024 33.0497 50.9521 33.571 51.3374 34.251C51.7227 34.9197 51.9154 35.713 51.9154 36.631C51.9154 37.549 51.7227 38.348 51.3374 39.028C50.9521 39.6967 50.4024 40.218 49.6884 40.592C48.9857 40.9547 48.1584 41.136 47.2064 41.136ZM47.2064 38.841C48.3171 38.841 48.8724 38.1044 48.8724 36.631C48.8724 35.883 48.7307 35.3334 48.4474 34.982C48.1754 34.6194 47.7617 34.438 47.2064 34.438C46.6397 34.438 46.2147 34.6194 45.9314 34.982C45.6481 35.3334 45.5064 35.883 45.5064 36.631C45.5064 37.3904 45.6481 37.9514 45.9314 38.314C46.2147 38.6654 46.6397 38.841 47.2064 38.841Z" fill="#283049"/>
    <path d="M58.8202 32.16C59.2395 32.16 59.5625 32.2224 59.7892 32.347V35.152C59.3019 34.9254 58.8315 34.812 58.3782 34.812C57.0862 34.812 56.4402 35.4297 56.4402 36.665V41H53.3632V34.846C53.3632 33.9167 53.3179 33.0894 53.2272 32.364H56.1172L56.3042 33.809C56.5082 33.2764 56.8369 32.8684 57.2902 32.585C57.7435 32.3017 58.2535 32.16 58.8202 32.16Z" fill="#283049"/>
    <path d="M66.1249 32.16C66.5442 32.16 66.8672 32.2224 67.0939 32.347V35.152C66.6066 34.9254 66.1362 34.812 65.6829 34.812C64.3909 34.812 63.7449 35.4297 63.7449 36.665V41H60.6679V34.846C60.6679 33.9167 60.6226 33.0894 60.5319 32.364H63.4219L63.6089 33.809C63.8129 33.2764 64.1416 32.8684 64.5949 32.585C65.0482 32.3017 65.5582 32.16 66.1249 32.16Z" fill="#283049"/>
    <path d="M72.1586 41.136C71.1952 41.136 70.3566 40.9547 69.6426 40.592C68.9286 40.2294 68.3789 39.708 67.9936 39.028C67.6082 38.348 67.4156 37.549 67.4156 36.631C67.4156 35.713 67.6082 34.914 67.9936 34.234C68.3789 33.554 68.9286 33.0327 69.6426 32.67C70.3566 32.3074 71.1952 32.126 72.1586 32.126C73.1106 32.126 73.9379 32.313 74.6406 32.687C75.3546 33.0497 75.9042 33.571 76.2896 34.251C76.6749 34.9197 76.8676 35.713 76.8676 36.631C76.8676 37.549 76.6749 38.348 76.2896 39.028C75.9042 39.6967 75.3546 40.218 74.6406 40.592C73.9379 40.9547 73.1106 41.136 72.1586 41.136ZM72.1586 38.841C73.2692 38.841 73.8246 38.1044 73.8246 36.631C73.8246 35.883 73.6829 35.3334 73.3996 34.982C73.1276 34.6194 72.7139 34.438 72.1586 34.438C71.5919 34.438 71.1669 34.6194 70.8836 34.982C70.6002 35.3334 70.4586 35.883 70.4586 36.631C70.4586 37.3904 70.6002 37.9514 70.8836 38.314C71.1669 38.6654 71.5919 38.841 72.1586 38.841Z" fill="#283049"/>
    <path d="M92.6847 32.364L89.0807 41H86.5477L84.8137 36.716L83.1817 41H80.6317L77.0277 32.364H80.1557L82.0767 37.345L83.9467 32.364H85.9187L87.8397 37.447L89.7267 32.364H92.6847Z" fill="#283049"/>
    <path d="M109.692 28.896V41H106.564V36.104H101.668V41H98.54V28.896H101.668V33.605H106.564V28.896H109.692Z" fill="#283049"/>
    <path d="M116.053 41.136C115.09 41.136 114.251 40.9547 113.537 40.592C112.823 40.2294 112.273 39.708 111.888 39.028C111.503 38.348 111.31 37.549 111.31 36.631C111.31 35.713 111.503 34.914 111.888 34.234C112.273 33.554 112.823 33.0327 113.537 32.67C114.251 32.3074 115.09 32.126 116.053 32.126C117.005 32.126 117.832 32.313 118.535 32.687C119.249 33.0497 119.799 33.571 120.184 34.251C120.569 34.9197 120.762 35.713 120.762 36.631C120.762 37.549 120.569 38.348 120.184 39.028C119.799 39.6967 119.249 40.218 118.535 40.592C117.832 40.9547 117.005 41.136 116.053 41.136ZM116.053 38.841C117.164 38.841 117.719 38.1044 117.719 36.631C117.719 35.883 117.577 35.3334 117.294 34.982C117.022 34.6194 116.608 34.438 116.053 34.438C115.486 34.438 115.061 34.6194 114.778 34.982C114.495 35.3334 114.353 35.883 114.353 36.631C114.353 37.3904 114.495 37.9514 114.778 38.314C115.061 38.6654 115.486 38.841 116.053 38.841Z" fill="#283049"/>
    <path d="M136.579 32.364L132.975 41H130.442L128.708 36.716L127.076 41H124.526L120.922 32.364H124.05L125.971 37.345L127.841 32.364H129.813L131.734 37.447L133.621 32.364H136.579Z" fill="#283049"/>
    <path d="M153.264 32.126C154.261 32.126 154.998 32.432 155.474 33.044C155.961 33.656 156.205 34.591 156.205 35.849V41H153.128V35.934C153.128 35.424 153.048 35.0557 152.89 34.829C152.742 34.6024 152.487 34.489 152.125 34.489C151.694 34.489 151.36 34.6477 151.122 34.965C150.884 35.2824 150.765 35.73 150.765 36.308V41H147.688V35.934C147.688 35.424 147.608 35.0557 147.45 34.829C147.291 34.6024 147.036 34.489 146.685 34.489C146.254 34.489 145.92 34.6477 145.682 34.965C145.455 35.2824 145.342 35.73 145.342 36.308V41H142.265V34.846C142.265 33.9167 142.219 33.0894 142.129 32.364H145.019L145.172 33.571C145.432 33.1064 145.795 32.7494 146.26 32.5C146.736 32.2507 147.28 32.126 147.892 32.126C149.127 32.126 149.966 32.6474 150.408 33.69C150.714 33.214 151.116 32.8344 151.615 32.551C152.125 32.2677 152.674 32.126 153.264 32.126Z" fill="#283049"/>
    <path d="M166.673 32.364V41H163.664V39.844C163.109 40.7054 162.287 41.136 161.199 41.136C160.1 41.136 159.278 40.83 158.734 40.218C158.202 39.606 157.935 38.671 157.935 37.413V32.364H161.012V37.498C161.012 38.348 161.381 38.773 162.117 38.773C162.548 38.773 162.894 38.62 163.154 38.314C163.426 38.008 163.562 37.6 163.562 37.09V32.364H166.673Z" fill="#283049"/>
    <path d="M172.796 41.136C171.334 41.136 170.189 40.7394 169.362 39.946C168.534 39.1527 168.121 38.0704 168.121 36.699C168.121 35.7924 168.319 34.9934 168.716 34.302C169.124 33.6107 169.69 33.078 170.416 32.704C171.141 32.3187 171.98 32.126 172.932 32.126C173.566 32.126 174.19 32.2224 174.802 32.415C175.414 32.5964 175.901 32.8457 176.264 33.163L175.482 35.288C175.176 35.0387 174.819 34.8404 174.411 34.693C174.003 34.5457 173.612 34.472 173.238 34.472C172.603 34.472 172.116 34.6534 171.776 35.016C171.436 35.3787 171.266 35.917 171.266 36.631C171.266 37.3564 171.436 37.906 171.776 38.28C172.116 38.6427 172.609 38.824 173.255 38.824C173.629 38.824 174.014 38.7504 174.411 38.603C174.819 38.4557 175.176 38.2574 175.482 38.008L176.264 40.099C175.89 40.4277 175.391 40.6827 174.768 40.864C174.156 41.0454 173.498 41.136 172.796 41.136Z" fill="#283049"/>
    <path d="M183.041 32.126C184.061 32.126 184.82 32.4377 185.319 33.061C185.829 33.673 186.084 34.6024 186.084 35.849V41H183.007V35.985C183.007 35.4524 182.916 35.0727 182.735 34.846C182.553 34.608 182.27 34.489 181.885 34.489C181.42 34.489 181.046 34.6477 180.763 34.965C180.479 35.271 180.338 35.679 180.338 36.189V41H177.261V28.488H180.338V33.418C181.006 32.5567 181.907 32.126 183.041 32.126Z" fill="#283049"/>
    <path d="M192.97 28.896H197.917C199.254 28.896 200.404 29.1397 201.368 29.627C202.342 30.103 203.085 30.7944 203.595 31.701C204.116 32.6077 204.377 33.6844 204.377 34.931C204.377 36.189 204.122 37.277 203.612 38.195C203.102 39.1017 202.359 39.7987 201.385 40.286C200.421 40.762 199.265 41 197.917 41H192.97V28.896ZM197.696 38.45C198.874 38.45 199.753 38.161 200.331 37.583C200.92 36.9937 201.215 36.1097 201.215 34.931C201.215 32.6077 200.042 31.446 197.696 31.446H196.166V38.45H197.696Z" fill="#283049"/>
    <path d="M214.046 38.501H208.674L207.603 41H204.407L210.068 28.896H212.584L218.262 41H215.117L214.046 38.501ZM213.009 36.104L211.36 32.279L209.711 36.104H213.009Z" fill="#283049"/>
    <path d="M218.951 28.896H222.147V41H218.951V28.896Z" fill="#283049"/>
    <path d="M224.755 29.457C225.514 28.981 226.41 28.743 227.441 28.743C228.212 28.743 228.897 28.8734 229.498 29.134C230.099 29.3834 230.563 29.7347 230.892 30.188C231.232 30.6414 231.402 31.157 231.402 31.735C231.402 32.3357 231.238 32.8514 230.909 33.282C230.592 33.7127 230.138 34.1774 229.549 34.676C229.152 35.016 228.858 35.2937 228.665 35.509C228.472 35.7244 228.348 35.9567 228.291 36.206L228.172 36.903H226.37V35.849C226.37 35.3164 226.466 34.88 226.659 34.54C226.863 34.1887 227.146 33.809 227.509 33.401C227.77 33.129 227.962 32.8967 228.087 32.704C228.212 32.5114 228.274 32.2904 228.274 32.041C228.274 31.4857 227.906 31.208 227.169 31.208C226.795 31.208 226.398 31.2704 225.979 31.395C225.56 31.5084 225.152 31.6954 224.755 31.956V29.457ZM225.707 37.838H228.903V41H225.707V37.838Z" fill="#283049"/>
    <path opacity="0.2" fill-rule="evenodd" clip-rule="evenodd" d="M0 200V199H460V200H0Z" fill="#A9B5C7"/>
    <rect x="317" y="220" width="113" height="45" rx="22.5" fill="#276BFB"/>
    <path d="M352.226 248.135C351.416 248.135 350.636 248.03 349.886 247.82C349.146 247.6 348.531 247.295 348.041 246.905L348.791 245.225C349.821 245.945 350.971 246.305 352.241 246.305C352.921 246.305 353.441 246.2 353.801 245.99C354.171 245.77 354.356 245.465 354.356 245.075C354.356 244.735 354.186 244.47 353.846 244.28C353.516 244.08 352.931 243.89 352.091 243.71C351.151 243.52 350.401 243.29 349.841 243.02C349.291 242.74 348.886 242.405 348.626 242.015C348.376 241.615 348.251 241.12 348.251 240.53C348.251 239.89 348.426 239.315 348.776 238.805C349.136 238.295 349.636 237.9 350.276 237.62C350.916 237.33 351.656 237.185 352.496 237.185C353.256 237.185 353.986 237.295 354.686 237.515C355.386 237.735 355.946 238.035 356.366 238.415L355.616 240.095C354.676 239.375 353.641 239.015 352.511 239.015C351.911 239.015 351.431 239.135 351.071 239.375C350.711 239.615 350.531 239.94 350.531 240.35C350.531 240.59 350.596 240.79 350.726 240.95C350.866 241.11 351.096 241.255 351.416 241.385C351.736 241.505 352.191 241.625 352.781 241.745C354.151 242.045 355.136 242.435 355.736 242.915C356.346 243.395 356.651 244.05 356.651 244.88C356.651 245.88 356.261 246.675 355.481 247.265C354.701 247.845 353.616 248.135 352.226 248.135ZM365.459 240.395V248H363.254V246.89C363.014 247.29 362.699 247.595 362.309 247.805C361.919 248.015 361.479 248.12 360.989 248.12C360.039 248.12 359.329 247.855 358.859 247.325C358.389 246.795 358.154 245.995 358.154 244.925V240.395H360.419V244.97C360.419 245.89 360.814 246.35 361.604 246.35C362.074 246.35 362.454 246.19 362.744 245.87C363.034 245.55 363.179 245.13 363.179 244.61V240.395H365.459ZM371.946 240.2C372.606 240.2 373.191 240.365 373.701 240.695C374.211 241.015 374.606 241.475 374.886 242.075C375.166 242.665 375.306 243.35 375.306 244.13C375.306 244.91 375.161 245.605 374.871 246.215C374.591 246.815 374.196 247.285 373.686 247.625C373.176 247.955 372.596 248.12 371.946 248.12C371.416 248.12 370.936 248.01 370.506 247.79C370.086 247.56 369.766 247.25 369.546 246.86V248H367.296V236.96H369.561V241.46C369.781 241.07 370.101 240.765 370.521 240.545C370.951 240.315 371.426 240.2 371.946 240.2ZM371.301 246.395C371.861 246.395 372.291 246.2 372.591 245.81C372.891 245.42 373.041 244.86 373.041 244.13C373.041 243.43 372.891 242.89 372.591 242.51C372.291 242.13 371.861 241.94 371.301 241.94C370.741 241.94 370.306 242.135 369.996 242.525C369.696 242.905 369.546 243.45 369.546 244.16C369.546 244.88 369.696 245.435 369.996 245.825C370.306 246.205 370.741 246.395 371.301 246.395ZM386.059 240.2C386.929 240.2 387.574 240.465 387.994 240.995C388.424 241.515 388.639 242.315 388.639 243.395V248H386.374V243.47C386.374 242.94 386.289 242.56 386.119 242.33C385.949 242.09 385.669 241.97 385.279 241.97C384.819 241.97 384.464 242.13 384.214 242.45C383.964 242.77 383.839 243.22 383.839 243.8V248H381.574V243.47C381.574 242.95 381.484 242.57 381.304 242.33C381.134 242.09 380.859 241.97 380.479 241.97C380.019 241.97 379.659 242.13 379.399 242.45C379.149 242.77 379.024 243.22 379.024 243.8V248H376.759V242.57C376.759 241.76 376.719 241.035 376.639 240.395H378.769L378.904 241.535C379.134 241.105 379.454 240.775 379.864 240.545C380.284 240.315 380.764 240.2 381.304 240.2C382.434 240.2 383.184 240.67 383.554 241.61C383.804 241.18 384.149 240.84 384.589 240.59C385.039 240.33 385.529 240.2 386.059 240.2ZM390.426 240.395H392.691V248H390.426V240.395ZM392.766 236.825V238.955H390.351V236.825H392.766ZM397.392 242.09V245.045C397.392 245.465 397.502 245.775 397.722 245.975C397.942 246.165 398.227 246.26 398.577 246.26C398.797 246.26 399.047 246.225 399.327 246.155V247.91C398.967 248.05 398.532 248.12 398.022 248.12C397.082 248.12 396.362 247.855 395.862 247.325C395.372 246.795 395.127 246.05 395.127 245.09V242.09H393.687V240.395H395.127V238.61L397.392 237.875V240.395H399.327V242.09H397.392Z" fill="white"/>
    <rect x="31" y="68" width="398" height="69" rx="3" fill="#F5F7F9" stroke="#E7EBF0" stroke-width="2"/>
    <path d="M97.3452 86.52H117.665V92.28H104.665V97.64H116.825V103.4H104.665V109.24H117.665V115H97.3452V86.52Z" fill="#A9B5C7"/>
    <path d="M134.686 94.12C137.086 94.12 138.873 94.8534 140.046 96.32C141.246 97.76 141.846 99.9467 141.846 102.88V115H134.606V103.2C134.606 101.947 134.393 101.053 133.966 100.52C133.539 99.96 132.873 99.68 131.966 99.68C130.873 99.68 129.993 100.053 129.326 100.8C128.659 101.52 128.326 102.48 128.326 103.68V115H121.086V100.52C121.086 98.3334 120.979 96.3867 120.766 94.68H127.566L127.926 97.68C128.699 96.5334 129.659 95.6534 130.806 95.04C131.953 94.4267 133.246 94.12 134.686 94.12Z" fill="#A9B5C7"/>
    <path d="M158.047 109.48C158.527 109.48 159.167 109.4 159.967 109.24V114.72C158.98 115.12 157.727 115.32 156.207 115.32C153.46 115.32 151.367 114.547 149.927 113C148.513 111.453 147.807 109.307 147.807 106.56V100H144.007V94.68H147.807V90.08L155.047 87.76V94.68H159.927V100H155.047V106.56C155.047 107.52 155.327 108.253 155.887 108.76C156.473 109.24 157.193 109.48 158.047 109.48Z" fill="#A9B5C7"/>
    <path d="M181.447 105.56H168.687C168.821 107.133 169.274 108.267 170.047 108.96C170.821 109.653 171.954 110 173.447 110C174.461 110 175.474 109.84 176.487 109.52C177.501 109.173 178.421 108.707 179.247 108.12L181.087 112.92C180.074 113.667 178.847 114.253 177.407 114.68C175.967 115.107 174.527 115.32 173.087 115.32C170.767 115.32 168.754 114.893 167.047 114.04C165.341 113.187 164.034 111.973 163.127 110.4C162.221 108.8 161.767 106.92 161.767 104.76C161.767 102.707 162.194 100.88 163.047 99.28C163.927 97.6534 165.127 96.3867 166.647 95.48C168.194 94.5734 169.954 94.12 171.927 94.12C173.847 94.12 175.527 94.5467 176.967 95.4C178.407 96.2534 179.514 97.48 180.287 99.08C181.061 100.653 181.447 102.493 181.447 104.6V105.56ZM172.127 99.08C170.341 99.08 169.221 100.12 168.767 102.2H175.247C174.981 100.12 173.941 99.08 172.127 99.08Z" fill="#A9B5C7"/>
    <path d="M197.637 94.2C198.623 94.2 199.383 94.3467 199.917 94.64V101.24C198.77 100.707 197.663 100.44 196.597 100.44C193.557 100.44 192.037 101.893 192.037 104.8V115H184.797V100.52C184.797 98.3334 184.69 96.3867 184.477 94.68H191.277L191.717 98.08C192.197 96.8267 192.97 95.8667 194.037 95.2C195.103 94.5334 196.303 94.2 197.637 94.2Z" fill="#A9B5C7"/>
    <path d="M234.986 94.68V115H227.866V112.24C227.279 113.2 226.426 113.96 225.306 114.52C224.186 115.053 222.959 115.32 221.626 115.32C219.893 115.32 218.346 114.893 216.986 114.04C215.626 113.187 214.559 111.973 213.786 110.4C213.039 108.8 212.666 106.96 212.666 104.88C212.666 102.773 213.053 100.907 213.826 99.28C214.599 97.6534 215.666 96.3867 217.026 95.48C218.386 94.5734 219.919 94.12 221.626 94.12C222.959 94.12 224.173 94.4134 225.266 95C226.386 95.56 227.253 96.32 227.866 97.28V94.68H234.986ZM223.866 109.92C225.146 109.92 226.133 109.48 226.826 108.6C227.519 107.72 227.866 106.453 227.866 104.8C227.866 103.12 227.519 101.84 226.826 100.96C226.133 100.053 225.146 99.6 223.866 99.6C222.613 99.6 221.626 100.067 220.906 101C220.186 101.907 219.826 103.2 219.826 104.88C219.826 106.507 220.173 107.76 220.866 108.64C221.559 109.493 222.559 109.92 223.866 109.92Z" fill="#A9B5C7"/>
    <path d="M265.169 94.12C267.516 94.12 269.249 94.84 270.369 96.28C271.516 97.72 272.089 99.92 272.089 102.88V115H264.849V103.08C264.849 101.88 264.662 101.013 264.289 100.48C263.942 99.9467 263.342 99.68 262.489 99.68C261.476 99.68 260.689 100.053 260.129 100.8C259.569 101.547 259.289 102.6 259.289 103.96V115H252.049V103.08C252.049 101.88 251.862 101.013 251.489 100.48C251.116 99.9467 250.516 99.68 249.689 99.68C248.676 99.68 247.889 100.053 247.329 100.8C246.796 101.547 246.529 102.6 246.529 103.96V115H239.289V100.52C239.289 98.3334 239.182 96.3867 238.969 94.68H245.769L246.129 97.52C246.742 96.4267 247.596 95.5867 248.689 95C249.809 94.4134 251.089 94.12 252.529 94.12C255.436 94.12 257.409 95.3467 258.449 97.8C259.169 96.68 260.116 95.7867 261.289 95.12C262.489 94.4534 263.782 94.12 265.169 94.12Z" fill="#A9B5C7"/>
    <path d="M286.521 115.32C284.254 115.32 282.281 114.893 280.601 114.04C278.921 113.187 277.628 111.96 276.721 110.36C275.814 108.76 275.361 106.88 275.361 104.72C275.361 102.56 275.814 100.68 276.721 99.08C277.628 97.48 278.921 96.2534 280.601 95.4C282.281 94.5467 284.254 94.12 286.521 94.12C288.761 94.12 290.708 94.56 292.361 95.44C294.041 96.2934 295.334 97.52 296.241 99.12C297.148 100.693 297.601 102.56 297.601 104.72C297.601 106.88 297.148 108.76 296.241 110.36C295.334 111.933 294.041 113.16 292.361 114.04C290.708 114.893 288.761 115.32 286.521 115.32ZM286.521 109.92C289.134 109.92 290.441 108.187 290.441 104.72C290.441 102.96 290.108 101.667 289.441 100.84C288.801 99.9867 287.828 99.56 286.521 99.56C285.188 99.56 284.188 99.9867 283.521 100.84C282.854 101.667 282.521 102.96 282.521 104.72C282.521 106.507 282.854 107.827 283.521 108.68C284.188 109.507 285.188 109.92 286.521 109.92Z" fill="#A9B5C7"/>
    <path d="M321.448 94.68V115H314.368V112.28C313.061 114.307 311.128 115.32 308.568 115.32C305.981 115.32 304.048 114.6 302.768 113.16C301.514 111.72 300.888 109.52 300.888 106.56V94.68H308.128V106.76C308.128 108.76 308.994 109.76 310.728 109.76C311.741 109.76 312.554 109.4 313.168 108.68C313.808 107.96 314.128 107 314.128 105.8V94.68H321.448Z" fill="#A9B5C7"/>
    <path d="M339.373 94.12C341.773 94.12 343.56 94.8534 344.733 96.32C345.933 97.76 346.533 99.9467 346.533 102.88V115H339.293V103.2C339.293 101.947 339.08 101.053 338.653 100.52C338.227 99.96 337.56 99.68 336.653 99.68C335.56 99.68 334.68 100.053 334.013 100.8C333.347 101.52 333.013 102.48 333.013 103.68V115H325.773V100.52C325.773 98.3334 325.667 96.3867 325.453 94.68H332.253L332.613 97.68C333.387 96.5334 334.347 95.6534 335.493 95.04C336.64 94.4267 337.933 94.12 339.373 94.12Z" fill="#A9B5C7"/>
    <path d="M362.734 109.48C363.214 109.48 363.854 109.4 364.654 109.24V114.72C363.668 115.12 362.414 115.32 360.894 115.32C358.148 115.32 356.054 114.547 354.614 113C353.201 111.453 352.494 109.307 352.494 106.56V100H348.694V94.68H352.494V90.08L359.734 87.76V94.68H364.614V100H359.734V106.56C359.734 107.52 360.014 108.253 360.574 108.76C361.161 109.24 361.881 109.48 362.734 109.48Z" fill="#A9B5C7"/>
    <g clip-path="url(#clip0)">
        <path d="M56.5297 253.646C55.0809 255.098 53.3553 256.242 51.4555 257.012C49.5558 257.782 47.5208 258.162 45.4716 258.128C43.4343 258.167 41.4104 257.79 39.5236 257.019C37.6368 256.249 35.9267 255.101 34.4979 253.646C33.0358 252.221 31.8823 250.509 31.109 248.618C30.3358 246.727 29.9595 244.697 30.0035 242.654C30.0035 238.18 31.5016 234.453 34.4979 231.473C35.9277 230.02 37.6382 228.875 39.5249 228.106C41.4117 227.337 43.4352 226.962 45.4716 227.003C47.52 226.968 49.5545 227.345 51.4542 228.113C53.3539 228.881 55.0799 230.023 56.5297 231.473C59.5949 234.453 61.1276 238.18 61.1276 242.654C61.1673 244.705 60.7789 246.743 59.9871 248.636C59.1954 250.529 58.0178 252.235 56.5297 253.646Z" fill="#8A93B1"/>
        <path d="M45.5749 232.315L39.3391 242.644L45.5749 239.813V232.315Z" fill="white"/>
        <path d="M45.5749 240.591L39.3391 242.644L45.5749 246.321V240.591Z" fill="white"/>
        <path d="M45.575 232.315V239.813L51.8048 242.644L45.575 232.315Z" fill="white"/>
        <path d="M45.575 240.591V246.321L51.8048 242.644L45.575 240.591Z" fill="white"/>
        <path d="M39.3391 243.823L45.5749 252.596V247.503L39.3391 243.823Z" fill="white"/>
        <path d="M51.8107 243.823L45.575 247.503V252.596L51.8107 243.823Z" fill="white"/>
    </g>
    <path d="M72.5748 238.749C71.9398 238.749 71.3919 238.612 70.9311 238.338C70.4704 238.064 70.1155 237.671 69.8665 237.161C69.6174 236.65 69.4929 236.043 69.4929 235.34C69.4929 234.636 69.6174 234.032 69.8665 233.528C70.1155 233.024 70.4704 232.635 70.9311 232.361C71.3919 232.087 71.9398 231.95 72.5748 231.95C73.0293 231.95 73.4496 232.021 73.8356 232.165C74.2216 232.301 74.5547 232.51 74.8349 232.79L74.5454 233.379C74.2278 233.105 73.9134 232.909 73.6021 232.79C73.2908 232.672 72.9515 232.613 72.5842 232.613C71.8557 232.613 71.2891 232.849 70.8844 233.323C70.486 233.796 70.2867 234.468 70.2867 235.34C70.2867 236.218 70.486 236.896 70.8844 237.376C71.2829 237.849 71.8495 238.086 72.5842 238.086C72.9515 238.086 73.2908 238.026 73.6021 237.908C73.9134 237.79 74.2278 237.594 74.5454 237.32L74.8349 237.908C74.5547 238.188 74.2216 238.4 73.8356 238.543C73.4496 238.68 73.0293 238.749 72.5748 238.749Z" fill="#758295"/>
    <path d="M77.8778 238.739C77.4296 238.739 77.0373 238.64 76.7011 238.44C76.3711 238.241 76.1127 237.961 75.926 237.6C75.7454 237.233 75.6551 236.8 75.6551 236.302C75.6551 235.81 75.7454 235.38 75.926 235.013C76.1127 234.646 76.3711 234.362 76.7011 234.163C77.0373 233.964 77.4296 233.864 77.8778 233.864C78.3261 233.864 78.7152 233.964 79.0452 234.163C79.3814 234.362 79.6398 234.646 79.8204 235.013C80.0071 235.38 80.1005 235.81 80.1005 236.302C80.1005 236.8 80.0071 237.233 79.8204 237.6C79.6398 237.961 79.3814 238.241 79.0452 238.44C78.7152 238.64 78.3261 238.739 77.8778 238.739ZM77.8778 238.114C78.3386 238.114 78.6934 237.961 78.9425 237.656C79.1978 237.345 79.3254 236.893 79.3254 236.302C79.3254 235.723 79.1978 235.278 78.9425 234.966C78.6872 234.655 78.3323 234.499 77.8778 234.499C77.4233 234.499 77.0653 234.655 76.8038 234.966C76.5486 235.278 76.4209 235.723 76.4209 236.302C76.4209 236.893 76.5455 237.345 76.7945 237.656C77.0498 237.961 77.4109 238.114 77.8778 238.114Z" fill="#758295"/>
    <path d="M81.2797 238.674V231.8H82.0362V238.674H81.2797Z" fill="#758295"/>
    <path d="M83.5051 238.674V231.8H84.2616V238.674H83.5051Z" fill="#758295"/>
    <path d="M87.5329 238.739C87.1157 238.739 86.7484 238.643 86.4309 238.45C86.1195 238.251 85.8767 237.97 85.7024 237.609C85.5343 237.242 85.4502 236.812 85.4502 236.32C85.4502 235.829 85.5374 235.399 85.7117 235.032C85.8861 234.664 86.1289 234.378 86.4402 234.172C86.7577 233.967 87.1219 233.864 87.5329 233.864C87.9625 233.864 88.3267 233.97 88.6255 234.182C88.9244 234.393 89.1267 234.695 89.2326 235.088L89.1205 235.162V233.976H89.8676V238.674H89.1205V237.46L89.2326 237.516C89.1267 237.908 88.9244 238.21 88.6255 238.422C88.3267 238.633 87.9625 238.739 87.5329 238.739ZM87.6823 238.114C88.143 238.114 88.4979 237.958 88.7469 237.647C88.996 237.329 89.1205 236.881 89.1205 236.302C89.1205 235.723 88.9929 235.278 88.7376 234.966C88.4886 234.655 88.1368 234.499 87.6823 234.499C87.2216 234.499 86.8604 234.661 86.599 234.985C86.3437 235.302 86.2161 235.748 86.2161 236.32C86.2161 236.893 86.3437 237.335 86.599 237.647C86.8604 237.958 87.2216 238.114 87.6823 238.114Z" fill="#758295"/>
    <path d="M90.6672 234.574V233.976H93.6837V234.574H90.6672ZM93.665 238.001V238.646C93.5592 238.677 93.4533 238.699 93.3475 238.711C93.2479 238.73 93.1358 238.739 93.0113 238.739C92.5754 238.739 92.2268 238.615 91.9653 238.366C91.71 238.117 91.5824 237.743 91.5824 237.245V232.772L92.3389 232.501V237.142C92.3389 237.391 92.3731 237.584 92.4416 237.721C92.5163 237.858 92.6159 237.955 92.7404 238.011C92.865 238.061 93.005 238.086 93.1607 238.086C93.2541 238.086 93.3381 238.079 93.4129 238.067C93.4876 238.054 93.5716 238.033 93.665 238.001Z" fill="#758295"/>
    <path d="M98.443 238.114C98.2375 238.307 97.9729 238.459 97.6492 238.571C97.3316 238.683 97.0048 238.739 96.6686 238.739C96.1829 238.739 95.7627 238.643 95.4078 238.45C95.0591 238.257 94.7883 237.98 94.5953 237.619C94.4085 237.251 94.3151 236.815 94.3151 236.311C94.3151 235.825 94.4085 235.399 94.5953 235.032C94.7821 234.664 95.0404 234.378 95.3704 234.172C95.7066 233.967 96.0926 233.864 96.5285 233.864C96.9456 233.864 97.3036 233.958 97.6025 234.144C97.9013 234.325 98.1286 234.586 98.2842 234.929C98.4461 235.271 98.527 235.682 98.527 236.162V236.302H94.9782V235.807H98.0974L97.8546 236.152C97.8671 235.604 97.7581 235.184 97.5278 234.892C97.3036 234.599 96.9736 234.453 96.5378 234.453C96.0833 234.453 95.7253 234.614 95.4638 234.938C95.2085 235.256 95.0809 235.698 95.0809 236.264C95.0809 236.875 95.2148 237.335 95.4825 237.647C95.7564 237.958 96.1549 238.114 96.6779 238.114C96.9518 238.114 97.2133 238.07 97.4624 237.983C97.7176 237.889 97.9605 237.749 98.1908 237.563L98.443 238.114Z" fill="#758295"/>
    <path d="M99.6752 238.674V235.293C99.6752 235.075 99.669 234.857 99.6566 234.639C99.6503 234.415 99.6317 234.194 99.6005 233.976H100.32L100.422 235.134L100.32 235.106C100.407 234.695 100.594 234.387 100.88 234.182C101.173 233.97 101.499 233.864 101.861 233.864C101.942 233.864 102.016 233.87 102.085 233.883C102.159 233.889 102.228 233.902 102.29 233.92L102.272 234.611C102.128 234.562 101.963 234.537 101.777 234.537C101.453 234.537 101.191 234.608 100.992 234.751C100.799 234.895 100.656 235.078 100.562 235.302C100.475 235.52 100.432 235.751 100.432 235.994V238.674H99.6752Z" fill="#758295"/>
    <path d="M104.77 238.739C104.353 238.739 103.986 238.643 103.668 238.45C103.357 238.251 103.114 237.97 102.94 237.609C102.772 237.242 102.687 236.812 102.687 236.32C102.687 235.829 102.775 235.399 102.949 235.032C103.123 234.664 103.366 234.378 103.677 234.172C103.995 233.967 104.359 233.864 104.77 233.864C105.2 233.864 105.564 233.97 105.863 234.182C106.162 234.393 106.364 234.695 106.47 235.088L106.358 235.162V233.976H107.105V238.674H106.358V237.46L106.47 237.516C106.364 237.908 106.162 238.21 105.863 238.422C105.564 238.633 105.2 238.739 104.77 238.739ZM104.92 238.114C105.38 238.114 105.735 237.958 105.984 237.647C106.233 237.329 106.358 236.881 106.358 236.302C106.358 235.723 106.23 235.278 105.975 234.966C105.726 234.655 105.374 234.499 104.92 234.499C104.459 234.499 104.098 234.661 103.836 234.985C103.581 235.302 103.453 235.748 103.453 236.32C103.453 236.893 103.581 237.335 103.836 237.647C104.098 237.958 104.459 238.114 104.92 238.114Z" fill="#758295"/>
    <path d="M108.567 238.674V231.8H109.324V238.674H108.567Z" fill="#758295"/>
    <path d="M110.662 237.712H111.624V238.674H110.662V237.712ZM110.662 234.079H111.624V235.05H110.662V234.079Z" fill="#758295"/>
    <path d="M115.483 238.674V232.024H119.685V232.659H116.239V234.976H119.499V235.62H116.239V238.039H119.685V238.674H115.483Z" fill="#758295"/>
    <path d="M122.47 238.674V232.678H120.154V232.024H125.561V232.678H123.245V238.674H122.47Z" fill="#758295"/>
    <path d="M131.235 238.674V232.024H132.001V238.674H131.235ZM126.491 238.674V232.024H127.247V238.674H126.491ZM126.846 235.62V234.976H131.665V235.62H126.846Z" fill="#758295"/>
    <path d="M72.5741 254.314C71.939 254.314 71.3911 254.177 70.9304 253.903C70.4697 253.629 70.1148 253.237 69.8658 252.726C69.6167 252.216 69.4922 251.609 69.4922 250.905C69.4922 250.202 69.6167 249.598 69.8658 249.093C70.1148 248.589 70.4697 248.2 70.9304 247.926C71.3911 247.652 71.939 247.515 72.5741 247.515C73.0286 247.515 73.4489 247.587 73.8349 247.73C74.2209 247.867 74.554 248.075 74.8342 248.356L74.5446 248.944C74.2271 248.67 73.9127 248.474 73.6014 248.356C73.2901 248.237 72.9508 248.178 72.5834 248.178C71.855 248.178 71.2884 248.415 70.8837 248.888C70.4852 249.361 70.286 250.034 70.286 250.905C70.286 251.783 70.4852 252.462 70.8837 252.941C71.2822 253.414 71.8488 253.651 72.5834 253.651C72.9508 253.651 73.2901 253.592 73.6014 253.473C73.9127 253.355 74.2271 253.159 74.5446 252.885L74.8342 253.473C74.554 253.754 74.2209 253.965 73.8349 254.109C73.4489 254.246 73.0286 254.314 72.5741 254.314Z" fill="#5074EB"/>
    <path d="M76.0258 254.239V247.366H76.7822V250.494L76.6608 250.588C76.7916 250.208 77.0095 249.922 77.3146 249.729C77.6196 249.529 77.9714 249.43 78.3699 249.43C79.4968 249.43 80.0603 250.049 80.0603 251.288V254.239H79.3038V251.326C79.3038 250.89 79.2166 250.572 79.0423 250.373C78.868 250.167 78.594 250.065 78.2205 250.065C77.7846 250.065 77.436 250.199 77.1745 250.466C76.913 250.734 76.7822 251.095 76.7822 251.55V254.239H76.0258Z" fill="#5074EB"/>
    <path d="M83.2912 254.305C82.8741 254.305 82.5067 254.208 82.1892 254.015C81.8779 253.816 81.6351 253.536 81.4608 253.175C81.2927 252.807 81.2086 252.378 81.2086 251.886C81.2086 251.394 81.2958 250.964 81.4701 250.597C81.6444 250.23 81.8872 249.943 82.1986 249.738C82.5161 249.532 82.8803 249.43 83.2912 249.43C83.7208 249.43 84.0851 249.536 84.3839 249.747C84.6828 249.959 84.8851 250.261 84.9909 250.653L84.8789 250.728V249.542H85.626V254.239H84.8789V253.025L84.9909 253.081C84.8851 253.473 84.6828 253.775 84.3839 253.987C84.0851 254.199 83.7208 254.305 83.2912 254.305ZM83.4407 253.679C83.9014 253.679 84.2563 253.523 84.5053 253.212C84.7544 252.894 84.8789 252.446 84.8789 251.867C84.8789 251.288 84.7512 250.843 84.496 250.532C84.2469 250.22 83.8952 250.065 83.4407 250.065C82.9799 250.065 82.6188 250.227 82.3573 250.55C82.102 250.868 81.9744 251.313 81.9744 251.886C81.9744 252.459 82.102 252.901 82.3573 253.212C82.6188 253.523 82.9799 253.679 83.4407 253.679Z" fill="#5074EB"/>
    <path d="M87.0886 254.239V250.859C87.0886 250.641 87.0824 250.423 87.0699 250.205C87.0637 249.981 87.045 249.76 87.0139 249.542H87.733L87.817 250.513L87.7237 250.588C87.8544 250.208 88.0723 249.922 88.3774 249.729C88.6825 249.529 89.0342 249.43 89.4327 249.43C90.5596 249.43 91.1231 250.049 91.1231 251.288V254.239H90.3666V251.326C90.3666 250.89 90.2795 250.572 90.1051 250.373C89.9308 250.167 89.6569 250.065 89.2833 250.065C88.8475 250.065 88.4988 250.199 88.2373 250.466C87.9758 250.734 87.8451 251.095 87.8451 251.55V254.239H87.0886Z" fill="#5074EB"/>
    <path d="M94.6156 256.322C93.9058 256.322 93.2894 256.16 92.7664 255.836L92.8972 255.22C93.1898 255.388 93.4668 255.509 93.7283 255.584C93.9898 255.659 94.2856 255.696 94.6156 255.696C95.0638 255.696 95.4032 255.575 95.6335 255.332C95.8701 255.095 95.9884 254.741 95.9884 254.267V252.997L96.0911 252.876C96.0164 253.125 95.8981 253.343 95.7362 253.53C95.5806 253.71 95.3876 253.85 95.1572 253.95C94.9269 254.049 94.6654 254.099 94.3727 254.099C93.9556 254.099 93.5883 254.003 93.2707 253.81C92.9594 253.61 92.7135 253.337 92.5329 252.988C92.3586 252.639 92.2714 252.231 92.2714 251.764C92.2714 251.297 92.3586 250.89 92.5329 250.541C92.7135 250.192 92.9594 249.922 93.2707 249.729C93.5883 249.529 93.9556 249.43 94.3727 249.43C94.8086 249.43 95.1759 249.539 95.4748 249.757C95.7798 249.968 95.9853 250.267 96.0911 250.653L95.9791 250.55V249.542H96.7355V254.202C96.7355 254.905 96.555 255.435 96.1939 255.79C95.839 256.144 95.3129 256.322 94.6156 256.322ZM94.5222 253.464C94.9767 253.464 95.3316 253.315 95.5868 253.016C95.8483 252.711 95.9791 252.294 95.9791 251.764C95.9791 251.235 95.8483 250.821 95.5868 250.522C95.3316 250.217 94.9767 250.065 94.5222 250.065C94.0614 250.065 93.6972 250.217 93.4295 250.522C93.168 250.821 93.0372 251.235 93.0372 251.764C93.0372 252.3 93.168 252.717 93.4295 253.016C93.6972 253.315 94.0614 253.464 94.5222 253.464Z" fill="#5074EB"/>
    <path d="M102.036 253.679C101.83 253.872 101.566 254.025 101.242 254.137C100.924 254.249 100.597 254.305 100.261 254.305C99.7756 254.305 99.3553 254.208 99.0004 254.015C98.6517 253.822 98.3809 253.545 98.1879 253.184C98.0011 252.817 97.9077 252.381 97.9077 251.877C97.9077 251.391 98.0011 250.964 98.1879 250.597C98.3747 250.23 98.6331 249.943 98.9631 249.738C99.2993 249.532 99.6853 249.43 100.121 249.43C100.538 249.43 100.896 249.523 101.195 249.71C101.494 249.89 101.721 250.152 101.877 250.494C102.039 250.837 102.12 251.248 102.12 251.727V251.867H98.5708V251.372H101.69L101.447 251.718C101.46 251.17 101.351 250.75 101.12 250.457C100.896 250.164 100.566 250.018 100.13 250.018C99.6759 250.018 99.3179 250.18 99.0564 250.504C98.8012 250.821 98.6735 251.263 98.6735 251.83C98.6735 252.44 98.8074 252.901 99.0751 253.212C99.3491 253.523 99.7475 253.679 100.271 253.679C100.544 253.679 100.806 253.635 101.055 253.548C101.31 253.455 101.553 253.315 101.783 253.128L102.036 253.679Z" fill="#5074EB"/>
    <path fill-rule="evenodd" clip-rule="evenodd" d="M70 256H102V257H70V256Z" fill="#5074EB" fill-opacity="0.4"/>
    <path d="M141.163 171V163.296H138.187V162.456H145.135V163.296H142.159V171H141.163Z" fill="#A9B5C7"/>
    <path d="M147.78 171.084C147.204 171.084 146.7 170.956 146.268 170.7C145.844 170.444 145.512 170.084 145.272 169.62C145.04 169.148 144.924 168.592 144.924 167.952C144.924 167.32 145.04 166.768 145.272 166.296C145.512 165.824 145.844 165.46 146.268 165.204C146.7 164.948 147.204 164.82 147.78 164.82C148.356 164.82 148.856 164.948 149.28 165.204C149.712 165.46 150.044 165.824 150.276 166.296C150.516 166.768 150.636 167.32 150.636 167.952C150.636 168.592 150.516 169.148 150.276 169.62C150.044 170.084 149.712 170.444 149.28 170.7C148.856 170.956 148.356 171.084 147.78 171.084ZM147.78 170.28C148.372 170.28 148.828 170.084 149.148 169.692C149.476 169.292 149.64 168.712 149.64 167.952C149.64 167.208 149.476 166.636 149.148 166.236C148.82 165.836 148.364 165.636 147.78 165.636C147.196 165.636 146.736 165.836 146.4 166.236C146.072 166.636 145.908 167.208 145.908 167.952C145.908 168.712 146.068 169.292 146.388 169.692C146.716 170.084 147.18 170.28 147.78 170.28Z" fill="#A9B5C7"/>
    <path d="M157.776 171.084C157.2 171.084 156.696 170.956 156.264 170.7C155.84 170.444 155.508 170.084 155.268 169.62C155.036 169.148 154.92 168.592 154.92 167.952C154.92 167.32 155.036 166.768 155.268 166.296C155.508 165.824 155.84 165.46 156.264 165.204C156.696 164.948 157.2 164.82 157.776 164.82C158.352 164.82 158.852 164.948 159.276 165.204C159.708 165.46 160.04 165.824 160.272 166.296C160.512 166.768 160.632 167.32 160.632 167.952C160.632 168.592 160.512 169.148 160.272 169.62C160.04 170.084 159.708 170.444 159.276 170.7C158.852 170.956 158.352 171.084 157.776 171.084ZM157.776 170.28C158.368 170.28 158.824 170.084 159.144 169.692C159.472 169.292 159.636 168.712 159.636 167.952C159.636 167.208 159.472 166.636 159.144 166.236C158.816 165.836 158.36 165.636 157.776 165.636C157.192 165.636 156.732 165.836 156.396 166.236C156.068 166.636 155.904 167.208 155.904 167.952C155.904 168.712 156.064 169.292 156.384 169.692C156.712 170.084 157.176 170.28 157.776 170.28Z" fill="#A9B5C7"/>
    <path d="M162.147 173.592V166.656C162.147 166.376 162.139 166.096 162.123 165.816C162.115 165.528 162.091 165.244 162.051 164.964H162.975L163.083 166.212L162.987 166.392C163.123 165.888 163.383 165.5 163.767 165.228C164.151 164.956 164.615 164.82 165.159 164.82C165.687 164.82 166.151 164.952 166.551 165.216C166.959 165.48 167.275 165.848 167.499 166.32C167.731 166.792 167.847 167.344 167.847 167.976C167.847 168.608 167.731 169.16 167.499 169.632C167.275 170.096 166.963 170.456 166.563 170.712C166.163 170.96 165.695 171.084 165.159 171.084C164.615 171.084 164.151 170.948 163.767 170.676C163.383 170.404 163.123 170.016 162.987 169.512L163.119 169.392V173.592H162.147ZM164.979 170.28C165.563 170.28 166.019 170.08 166.347 169.68C166.675 169.28 166.839 168.712 166.839 167.976C166.839 167.24 166.675 166.668 166.347 166.26C166.019 165.844 165.563 165.636 164.979 165.636C164.379 165.636 163.919 165.836 163.599 166.236C163.279 166.636 163.119 167.208 163.119 167.952C163.119 168.696 163.279 169.272 163.599 169.68C163.919 170.08 164.379 170.28 164.979 170.28Z" fill="#A9B5C7"/>
    <path d="M174.286 170.28C174.022 170.528 173.682 170.724 173.266 170.868C172.858 171.012 172.438 171.084 172.006 171.084C171.382 171.084 170.842 170.96 170.386 170.712C169.938 170.464 169.59 170.108 169.342 169.644C169.102 169.172 168.982 168.612 168.982 167.964C168.982 167.34 169.102 166.792 169.342 166.32C169.582 165.848 169.914 165.48 170.338 165.216C170.77 164.952 171.266 164.82 171.826 164.82C172.362 164.82 172.822 164.94 173.206 165.18C173.59 165.412 173.882 165.748 174.082 166.188C174.29 166.628 174.394 167.156 174.394 167.772V167.952H169.834V167.316H173.842L173.53 167.76C173.546 167.056 173.406 166.516 173.11 166.14C172.822 165.764 172.398 165.576 171.838 165.576C171.254 165.576 170.794 165.784 170.458 166.2C170.13 166.608 169.966 167.176 169.966 167.904C169.966 168.688 170.138 169.28 170.482 169.68C170.834 170.08 171.346 170.28 172.018 170.28C172.37 170.28 172.706 170.224 173.026 170.112C173.354 169.992 173.666 169.812 173.962 169.572L174.286 170.28Z" fill="#A9B5C7"/>
    <path d="M175.87 171V166.656C175.87 166.376 175.862 166.096 175.846 165.816C175.838 165.528 175.814 165.244 175.774 164.964H176.698L176.806 166.212L176.686 166.308C176.854 165.82 177.134 165.452 177.526 165.204C177.918 164.948 178.37 164.82 178.882 164.82C180.33 164.82 181.054 165.616 181.054 167.208V171H180.082V167.256C180.082 166.696 179.97 166.288 179.746 166.032C179.522 165.768 179.17 165.636 178.69 165.636C178.13 165.636 177.682 165.808 177.346 166.152C177.01 166.496 176.842 166.96 176.842 167.544V171H175.87Z" fill="#A9B5C7"/>
    <path d="M185.166 165.732V164.964H189.042V165.732H185.166ZM189.018 170.136V170.964C188.882 171.004 188.746 171.032 188.61 171.048C188.482 171.072 188.338 171.084 188.178 171.084C187.618 171.084 187.17 170.924 186.834 170.604C186.506 170.284 186.342 169.804 186.342 169.164V163.416L187.314 163.068V169.032C187.314 169.352 187.358 169.6 187.446 169.776C187.542 169.952 187.67 170.076 187.83 170.148C187.99 170.212 188.17 170.244 188.37 170.244C188.49 170.244 188.598 170.236 188.694 170.22C188.79 170.204 188.898 170.176 189.018 170.136Z" fill="#A9B5C7"/>
    <path d="M190.213 171V162.168H191.185V166.188L191.029 166.308C191.197 165.82 191.477 165.452 191.869 165.204C192.261 164.948 192.713 164.82 193.225 164.82C194.673 164.82 195.397 165.616 195.397 167.208V171H194.425V167.256C194.425 166.696 194.313 166.288 194.089 166.032C193.865 165.768 193.513 165.636 193.033 165.636C192.473 165.636 192.025 165.808 191.689 166.152C191.353 166.496 191.185 166.96 191.185 167.544V171H190.213Z" fill="#A9B5C7"/>
    <path d="M202.177 170.28C201.913 170.528 201.573 170.724 201.157 170.868C200.749 171.012 200.329 171.084 199.897 171.084C199.273 171.084 198.733 170.96 198.277 170.712C197.829 170.464 197.481 170.108 197.233 169.644C196.993 169.172 196.873 168.612 196.873 167.964C196.873 167.34 196.993 166.792 197.233 166.32C197.473 165.848 197.805 165.48 198.229 165.216C198.661 164.952 199.157 164.82 199.717 164.82C200.253 164.82 200.713 164.94 201.097 165.18C201.481 165.412 201.773 165.748 201.973 166.188C202.181 166.628 202.285 167.156 202.285 167.772V167.952H197.725V167.316H201.733L201.421 167.76C201.437 167.056 201.297 166.516 201.001 166.14C200.713 165.764 200.289 165.576 199.729 165.576C199.145 165.576 198.685 165.784 198.349 166.2C198.021 166.608 197.857 167.176 197.857 167.904C197.857 168.688 198.029 169.28 198.373 169.68C198.725 170.08 199.237 170.28 199.909 170.28C200.261 170.28 200.597 170.224 200.917 170.112C201.245 169.992 201.557 169.812 201.853 169.572L202.177 170.28Z" fill="#A9B5C7"/>
    <path d="M206.889 171V162.168H207.861V171H206.889Z" fill="#A9B5C7"/>
    <path d="M212.245 171.084C211.669 171.084 211.165 170.956 210.733 170.7C210.309 170.444 209.977 170.084 209.737 169.62C209.505 169.148 209.389 168.592 209.389 167.952C209.389 167.32 209.505 166.768 209.737 166.296C209.977 165.824 210.309 165.46 210.733 165.204C211.165 164.948 211.669 164.82 212.245 164.82C212.821 164.82 213.321 164.948 213.745 165.204C214.177 165.46 214.509 165.824 214.741 166.296C214.981 166.768 215.101 167.32 215.101 167.952C215.101 168.592 214.981 169.148 214.741 169.62C214.509 170.084 214.177 170.444 213.745 170.7C213.321 170.956 212.821 171.084 212.245 171.084ZM212.245 170.28C212.837 170.28 213.293 170.084 213.613 169.692C213.941 169.292 214.105 168.712 214.105 167.952C214.105 167.208 213.941 166.636 213.613 166.236C213.285 165.836 212.829 165.636 212.245 165.636C211.661 165.636 211.201 165.836 210.865 166.236C210.537 166.636 210.373 167.208 210.373 167.952C210.373 168.712 210.533 169.292 210.853 169.692C211.181 170.084 211.645 170.28 212.245 170.28Z" fill="#A9B5C7"/>
    <path d="M218.932 171.084C218.396 171.084 217.924 170.96 217.516 170.712C217.116 170.456 216.804 170.096 216.58 169.632C216.364 169.16 216.256 168.608 216.256 167.976C216.256 167.344 216.368 166.792 216.592 166.32C216.816 165.848 217.128 165.48 217.528 165.216C217.936 164.952 218.404 164.82 218.932 164.82C219.484 164.82 219.952 164.956 220.336 165.228C220.72 165.5 220.98 165.888 221.116 166.392L220.972 166.488V164.964H221.932V171H220.972V169.44L221.116 169.512C220.98 170.016 220.72 170.404 220.336 170.676C219.952 170.948 219.484 171.084 218.932 171.084ZM219.124 170.28C219.716 170.28 220.172 170.08 220.492 169.68C220.812 169.272 220.972 168.696 220.972 167.952C220.972 167.208 220.808 166.636 220.48 166.236C220.16 165.836 219.708 165.636 219.124 165.636C218.532 165.636 218.068 165.844 217.732 166.26C217.404 166.668 217.24 167.24 217.24 167.976C217.24 168.712 217.404 169.28 217.732 169.68C218.068 170.08 218.532 170.28 219.124 170.28Z" fill="#A9B5C7"/>
    <path d="M223.811 171V166.656C223.811 166.376 223.803 166.096 223.787 165.816C223.779 165.528 223.755 165.244 223.715 164.964H224.639L224.747 166.212L224.627 166.308C224.795 165.82 225.075 165.452 225.467 165.204C225.859 164.948 226.311 164.82 226.823 164.82C228.271 164.82 228.995 165.616 228.995 167.208V171H228.023V167.256C228.023 166.696 227.911 166.288 227.687 166.032C227.463 165.768 227.111 165.636 226.631 165.636C226.071 165.636 225.623 165.808 225.287 166.152C224.951 166.496 224.783 166.96 224.783 167.544V171H223.811Z" fill="#A9B5C7"/>
    <path d="M231.167 172.38L230.711 172.032C230.927 171.8 231.071 171.588 231.143 171.396C231.215 171.204 231.251 171.008 231.251 170.808L231.539 171H230.663V169.764H231.899V170.64C231.899 170.96 231.843 171.26 231.731 171.54C231.627 171.828 231.439 172.108 231.167 172.38Z" fill="#A9B5C7"/>
    <path d="M236.449 173.724L236.245 172.968C236.613 172.88 236.921 172.776 237.169 172.656C237.425 172.544 237.637 172.396 237.805 172.212C237.981 172.028 238.133 171.784 238.261 171.48L238.645 170.592L238.861 170.292L241.069 164.964H242.041L239.221 171.552C239.005 172.04 238.761 172.428 238.489 172.716C238.217 173.012 237.909 173.236 237.565 173.388C237.229 173.54 236.857 173.652 236.449 173.724ZM238.657 171.312L235.945 164.964H236.965L239.149 170.292L238.657 171.312Z" fill="#A9B5C7"/>
    <path d="M245.538 171.084C244.962 171.084 244.458 170.956 244.026 170.7C243.602 170.444 243.27 170.084 243.03 169.62C242.798 169.148 242.682 168.592 242.682 167.952C242.682 167.32 242.798 166.768 243.03 166.296C243.27 165.824 243.602 165.46 244.026 165.204C244.458 164.948 244.962 164.82 245.538 164.82C246.114 164.82 246.614 164.948 247.038 165.204C247.47 165.46 247.802 165.824 248.034 166.296C248.274 166.768 248.394 167.32 248.394 167.952C248.394 168.592 248.274 169.148 248.034 169.62C247.802 170.084 247.47 170.444 247.038 170.7C246.614 170.956 246.114 171.084 245.538 171.084ZM245.538 170.28C246.13 170.28 246.586 170.084 246.906 169.692C247.234 169.292 247.398 168.712 247.398 167.952C247.398 167.208 247.234 166.636 246.906 166.236C246.578 165.836 246.122 165.636 245.538 165.636C244.954 165.636 244.494 165.836 244.158 166.236C243.83 166.636 243.666 167.208 243.666 167.952C243.666 168.712 243.826 169.292 244.146 169.692C244.474 170.084 244.938 170.28 245.538 170.28Z" fill="#A9B5C7"/>
    <path d="M252.045 171.084C251.325 171.084 250.781 170.884 250.413 170.484C250.053 170.084 249.873 169.492 249.873 168.708V164.964H250.845V168.684C250.845 169.228 250.957 169.628 251.181 169.884C251.405 170.14 251.745 170.268 252.201 170.268C252.737 170.268 253.169 170.096 253.497 169.752C253.825 169.408 253.989 168.948 253.989 168.372V164.964H254.961V171H254.013V169.692L254.157 169.62C253.997 170.1 253.725 170.464 253.341 170.712C252.965 170.96 252.533 171.084 252.045 171.084Z" fill="#A9B5C7"/>
    <path d="M261.583 171L259.351 164.964H260.371L262.231 170.28H261.919L263.839 164.964H264.691L266.587 170.28H266.275L268.171 164.964H269.131L266.899 171H265.963L263.971 165.564H264.499L262.519 171H261.583Z" fill="#A9B5C7"/>
    <path d="M270.393 171V164.964H271.365V171H270.393ZM270.297 162.408H271.485V163.512H270.297V162.408Z" fill="#A9B5C7"/>
    <path d="M273.252 171V162.168H274.224V171H273.252Z" fill="#A9B5C7"/>
    <path d="M276.112 171V162.168H277.084V171H276.112Z" fill="#A9B5C7"/>
    <path d="M287.416 171H286.456V169.38L286.6 169.512C286.464 170.016 286.204 170.404 285.82 170.676C285.436 170.948 284.968 171.084 284.416 171.084C283.888 171.084 283.42 170.956 283.012 170.7C282.612 170.436 282.3 170.068 282.076 169.596C281.852 169.116 281.74 168.56 281.74 167.928C281.74 167.296 281.848 166.748 282.064 166.284C282.288 165.82 282.6 165.46 283 165.204C283.408 164.948 283.88 164.82 284.416 164.82C284.968 164.82 285.436 164.96 285.82 165.24C286.204 165.512 286.464 165.896 286.6 166.392L286.444 166.512V162.168H287.416V171ZM284.608 170.28C285.192 170.28 285.644 170.08 285.964 169.68C286.292 169.272 286.456 168.696 286.456 167.952C286.456 167.216 286.296 166.648 285.976 166.248C285.656 165.84 285.2 165.636 284.608 165.636C284.016 165.636 283.552 165.836 283.216 166.236C282.888 166.636 282.724 167.2 282.724 167.928C282.724 168.672 282.888 169.252 283.216 169.668C283.552 170.076 284.016 170.28 284.608 170.28Z" fill="#A9B5C7"/>
    <path d="M294.239 170.28C293.975 170.528 293.635 170.724 293.219 170.868C292.811 171.012 292.391 171.084 291.959 171.084C291.335 171.084 290.795 170.96 290.339 170.712C289.891 170.464 289.543 170.108 289.295 169.644C289.055 169.172 288.935 168.612 288.935 167.964C288.935 167.34 289.055 166.792 289.295 166.32C289.535 165.848 289.867 165.48 290.291 165.216C290.723 164.952 291.219 164.82 291.779 164.82C292.315 164.82 292.775 164.94 293.159 165.18C293.543 165.412 293.835 165.748 294.035 166.188C294.243 166.628 294.347 167.156 294.347 167.772V167.952H289.787V167.316H293.795L293.483 167.76C293.499 167.056 293.359 166.516 293.063 166.14C292.775 165.764 292.351 165.576 291.791 165.576C291.207 165.576 290.747 165.784 290.411 166.2C290.083 166.608 289.919 167.176 289.919 167.904C289.919 168.688 290.091 169.28 290.435 169.68C290.787 170.08 291.299 170.28 291.971 170.28C292.323 170.28 292.659 170.224 292.979 170.112C293.307 169.992 293.619 169.812 293.915 169.572L294.239 170.28Z" fill="#A9B5C7"/>
    <path d="M295.823 173.592V166.656C295.823 166.376 295.815 166.096 295.799 165.816C295.791 165.528 295.767 165.244 295.727 164.964H296.651L296.759 166.212L296.663 166.392C296.799 165.888 297.059 165.5 297.443 165.228C297.827 164.956 298.291 164.82 298.835 164.82C299.363 164.82 299.827 164.952 300.227 165.216C300.635 165.48 300.951 165.848 301.175 166.32C301.407 166.792 301.523 167.344 301.523 167.976C301.523 168.608 301.407 169.16 301.175 169.632C300.951 170.096 300.639 170.456 300.239 170.712C299.839 170.96 299.371 171.084 298.835 171.084C298.291 171.084 297.827 170.948 297.443 170.676C297.059 170.404 296.799 170.016 296.663 169.512L296.795 169.392V173.592H295.823ZM298.655 170.28C299.239 170.28 299.695 170.08 300.023 169.68C300.351 169.28 300.515 168.712 300.515 167.976C300.515 167.24 300.351 166.668 300.023 166.26C299.695 165.844 299.239 165.636 298.655 165.636C298.055 165.636 297.595 165.836 297.275 166.236C296.955 166.636 296.795 167.208 296.795 167.952C296.795 168.696 296.955 169.272 297.275 169.68C297.595 170.08 298.055 170.28 298.655 170.28Z" fill="#A9B5C7"/>
    <path d="M305.514 171.084C304.938 171.084 304.434 170.956 304.002 170.7C303.578 170.444 303.246 170.084 303.006 169.62C302.774 169.148 302.658 168.592 302.658 167.952C302.658 167.32 302.774 166.768 303.006 166.296C303.246 165.824 303.578 165.46 304.002 165.204C304.434 164.948 304.938 164.82 305.514 164.82C306.09 164.82 306.59 164.948 307.014 165.204C307.446 165.46 307.778 165.824 308.01 166.296C308.25 166.768 308.37 167.32 308.37 167.952C308.37 168.592 308.25 169.148 308.01 169.62C307.778 170.084 307.446 170.444 307.014 170.7C306.59 170.956 306.09 171.084 305.514 171.084ZM305.514 170.28C306.106 170.28 306.562 170.084 306.882 169.692C307.21 169.292 307.374 168.712 307.374 167.952C307.374 167.208 307.21 166.636 306.882 166.236C306.554 165.836 306.098 165.636 305.514 165.636C304.93 165.636 304.47 165.836 304.134 166.236C303.806 166.636 303.642 167.208 303.642 167.952C303.642 168.712 303.802 169.292 304.122 169.692C304.45 170.084 304.914 170.28 305.514 170.28Z" fill="#A9B5C7"/>
    <path d="M311.925 171.084C310.909 171.084 310.105 170.824 309.513 170.304L309.837 169.584C310.157 169.832 310.485 170.016 310.821 170.136C311.165 170.248 311.545 170.304 311.961 170.304C312.417 170.304 312.761 170.228 312.993 170.076C313.233 169.916 313.353 169.688 313.353 169.392C313.353 169.152 313.273 168.964 313.113 168.828C312.953 168.684 312.689 168.568 312.321 168.48L311.301 168.24C310.797 168.128 310.405 167.928 310.125 167.64C309.853 167.352 309.717 167.008 309.717 166.608C309.717 166.256 309.813 165.948 310.005 165.684C310.197 165.412 310.465 165.2 310.809 165.048C311.153 164.896 311.561 164.82 312.033 164.82C312.457 164.82 312.857 164.888 313.233 165.024C313.609 165.16 313.925 165.356 314.181 165.612L313.857 166.32C313.569 166.08 313.273 165.904 312.969 165.792C312.673 165.672 312.361 165.612 312.033 165.612C311.601 165.612 311.265 165.696 311.025 165.864C310.793 166.032 310.677 166.26 310.677 166.548C310.677 166.796 310.749 166.992 310.893 167.136C311.045 167.28 311.285 167.392 311.613 167.472L312.633 167.724C313.201 167.844 313.617 168.044 313.881 168.324C314.153 168.596 314.289 168.944 314.289 169.368C314.289 169.888 314.077 170.304 313.653 170.616C313.229 170.928 312.653 171.084 311.925 171.084Z" fill="#A9B5C7"/>
    <path d="M315.838 171V164.964H316.81V171H315.838ZM315.742 162.408H316.93V163.512H315.742V162.408Z" fill="#A9B5C7"/>
    <path d="M317.846 165.732V164.964H321.722V165.732H317.846ZM321.698 170.136V170.964C321.562 171.004 321.426 171.032 321.29 171.048C321.162 171.072 321.018 171.084 320.858 171.084C320.298 171.084 319.85 170.924 319.514 170.604C319.186 170.284 319.022 169.804 319.022 169.164V163.416L319.994 163.068V169.032C319.994 169.352 320.038 169.6 320.126 169.776C320.222 169.952 320.35 170.076 320.51 170.148C320.67 170.212 320.85 170.244 321.05 170.244C321.17 170.244 321.278 170.236 321.374 170.22C321.47 170.204 321.578 170.176 321.698 170.136Z" fill="#A9B5C7"/>
    <defs>
        <clipPath id="clip0">
            <rect x="30" y="227" width="31.1304" height="31.1304" fill="white"/>
        </clipPath>
    </defs>
</svg>
