<svg viewBox="0 0 50 50" fill="none" 
    xmlns="http://www.w3.org/2000/svg" class="gradient-susd">
    <circle cx="25" cy="25" r="25"/>
    <path d="M36.7153 30.6078C36.7153 29.0269 35.5831 27.9845 34.1896 27.9845L30.0525 27.9845L30.0525 29.3396L34.1983 29.3396C34.9125 29.3396 35.4873 29.8 35.4873 30.6165C35.4873 31.3983 34.9125 31.85 34.1983 31.85L30.0525 31.85L30.0525 33.292L34.1896 33.292C35.5831 33.292 36.7153 32.2496 36.7153 30.6078Z" fill="white"/>
    <path d="M36.7153 24.5291C36.7153 23.0784 35.9315 22.0881 34.686 22.0881C33.5973 22.0881 32.9441 22.8091 32.7002 23.9992L32.5609 24.6246C32.4215 25.2501 32.1864 25.4933 31.8293 25.4933C31.3938 25.4933 31.1064 25.1632 31.1064 24.5551C31.1064 23.8776 31.4373 23.5562 31.8815 23.4432L31.8815 22.314L31.2196 22.314C30.4183 22.4964 29.9219 23.3216 29.9219 24.5204C29.9219 25.9537 30.6535 26.8918 31.9077 26.8918C32.9615 26.8918 33.5973 26.2316 33.8325 25.0416L33.9457 24.4422C34.0938 23.782 34.3376 23.4867 34.7644 23.4867C35.2521 23.4867 35.5308 23.8949 35.5308 24.503C35.5308 25.1979 35.226 25.6149 34.7383 25.7886L34.7383 26.9266L35.3915 26.9266C36.1144 26.6486 36.7153 25.8755 36.7153 24.5291Z" fill="white"/>
    <path d="M36.5847 21.0155L36.5847 18.7309C36.5847 16.7243 35.1041 15.4821 33.2925 15.4821C31.507 15.4821 30.0525 16.7243 30.0525 18.7309L30.0525 21.0155L36.5847 21.0155ZM35.3566 19.5735L31.2806 19.5735L31.2806 18.757C31.2806 17.619 32.1864 16.9675 33.2925 16.9675C34.4334 16.9675 35.3566 17.619 35.3566 18.757L35.3566 19.5735Z" fill="white"/>
    <path d="M21.5841 23.4788C22.2474 23.4788 22.7851 24.0145 22.7851 24.6753C22.7851 25.336 22.2474 25.8717 21.5841 25.8717H18.4668C15.4476 25.8717 13 23.4333 13 20.4255C13 17.4176 15.4476 14.9792 18.4668 14.9792H26.5062C27.1695 14.9792 27.7072 15.5149 27.7072 16.1757C27.7072 16.8365 27.1695 17.3721 26.5062 17.3721H18.4668C16.7741 17.3721 15.4019 18.7392 15.4019 20.4255C15.4019 22.1118 16.7741 23.4788 18.4668 23.4788H21.5841Z" fill="white"/>
    <path d="M19.1229 25.8718C18.4597 25.8718 17.922 25.3361 17.922 24.6753C17.922 24.0146 18.4597 23.4789 19.1229 23.4789H22.2403C25.2595 23.4789 27.707 25.9172 27.707 28.9251C27.707 31.933 25.2595 34.3713 22.2403 34.3713H14.2008C13.5376 34.3713 12.9999 33.8357 12.9999 33.1749C12.9999 32.5141 13.5376 31.9785 14.2008 31.9785H22.2403C23.9329 31.9785 25.3051 30.6114 25.3051 28.9251C25.3051 27.2388 23.9329 25.8718 22.2403 25.8718H19.1229Z" fill="white"/>
    <path d="M15.1502 33.8888L13.1978 32.495L25.4777 15.4221L27.4301 16.8159L15.1502 33.8888Z" fill="white" fill-opacity="0.5"/>
</svg>
