<svg width="67" height="67" viewBox="0 0 67 67" fill="none" 
    xmlns="http://www.w3.org/2000/svg">
    <path d="M66.0575 33.1152C66.0893 14.8899 51.3405 0.0895074 33.1151 0.0576981C14.8898 0.0258888 0.0894051 14.7747 0.0575958 33.0001C0.0257865 51.2254 14.7746 66.0258 32.9999 66.0576C51.2253 66.0894 66.0257 51.3406 66.0575 33.1152Z" fill="#3574B9"/>
    <path d="M27.8312 51.9728C27.8312 52.6583 27.3623 52.8982 26.659 52.8982C22.3995 51.5553 18.6817 48.8974 16.0456 45.3107C13.4095 41.7239 11.9923 37.3951 12 32.9531C12.0077 28.511 13.4398 24.1871 16.0884 20.6094C18.7369 17.0316 22.4639 14.3865 26.7279 13.0582C27.4175 12.832 27.9002 13.2912 27.8933 13.9904V15.6424C27.8985 15.8802 27.8367 16.1148 27.7148 16.3195C27.593 16.5242 27.4159 16.691 27.2037 16.8009C23.8497 18.001 20.9489 20.1991 18.896 23.096C16.8432 25.993 15.7378 29.4483 15.7302 32.9919C15.7227 36.5354 16.8134 39.9953 18.8539 42.9009C20.8945 45.8065 23.7859 48.0167 27.1348 49.2309C27.3475 49.3402 27.525 49.5068 27.6469 49.7117C27.7689 49.9166 27.8303 50.1514 27.8243 50.3894L27.8312 51.9728Z" fill="white"/>
    <path d="M34.8372 46.2147C34.8293 46.4609 34.7296 46.6954 34.5576 46.8727C34.3856 47.05 34.1535 47.1575 33.9063 47.1744H32.0376C31.7949 47.1581 31.5665 47.0545 31.3952 46.8829C31.2238 46.7113 31.1213 46.4835 31.1067 46.2421V43.5002C27.3693 43.0272 25.5075 40.9434 24.811 37.9272C24.811 37.468 25.0524 37.0018 25.5006 37.0018H27.6037C28.0658 37.0018 28.2933 37.2349 28.5347 37.6873C28.9967 39.3119 29.9138 40.7034 32.9616 40.7103C35.2923 40.7103 36.9266 39.5587 36.9335 37.7079C36.9404 35.8571 36.0026 35.1579 32.741 34.6849C27.8382 33.9994 25.5075 32.5874 25.5144 28.6527C25.5144 25.6435 27.8589 23.3265 31.1274 22.8741V20.0362C31.1421 19.7956 31.2449 19.5686 31.4164 19.3981C31.5879 19.2277 31.8162 19.1255 32.0583 19.1108H33.927C34.1691 19.1255 34.3974 19.2277 34.5689 19.3981C34.7404 19.5686 34.8432 19.7956 34.8579 20.0362V22.8193C37.6575 23.2854 39.5194 24.91 39.9814 27.46C39.9814 27.9192 39.7469 28.3854 39.2918 28.3854H37.4369C36.968 28.3854 36.7473 28.1523 36.506 27.6999C36.044 26.0753 34.8786 25.3761 32.7755 25.3761C30.4447 25.3761 29.2725 26.5277 29.2725 28.118C29.2725 29.7083 29.962 30.668 33.465 31.141C38.3609 31.8265 40.6916 33.2386 40.6847 37.1732C40.6847 40.1825 38.3471 42.7256 34.8441 43.4179L34.8372 46.2147Z" fill="white"/>
    <path d="M38.0918 52.0139C38.0918 52.7063 38.5676 53.1724 39.2572 52.9393C43.5208 51.609 47.2477 48.9641 49.8983 45.3877C52.5489 41.8112 53.9854 37.4889 54 33.0467C54.0138 23.7859 47.7319 15.896 39.3399 13.0993C38.6366 13.0993 38.1677 13.3392 38.1677 14.0247V15.6493C38.1625 15.8871 38.2243 16.1216 38.3461 16.3263C38.468 16.5311 38.645 16.6978 38.8572 16.8077C42.2059 18.0226 45.0968 20.2335 47.1367 23.1395C49.1767 26.0455 50.2666 29.5056 50.2583 33.0492C50.25 36.5928 49.1439 40.0478 47.0904 42.9443C45.0369 45.8409 42.1357 48.0383 38.7814 49.2377C38.5692 49.3459 38.392 49.5113 38.27 49.715C38.148 49.9187 38.0863 50.1524 38.0918 50.3894V52.0139Z" fill="white"/>
</svg>