<svg width="140" height="46" viewBox="0 0 140 46" fill="none" 
    xmlns="http://www.w3.org/2000/svg">
    <path d="M0 9.2C0 4.11898 4.09674 0 9.15033 0H36.6013C41.6549 0 45.7516 4.11898 45.7516 9.2V36.8C45.7516 41.881 41.6549 46 36.6013 46H9.15033C4.09674 46 0 41.881 0 36.8V9.2Z" fill="url(#paint0_linear)"/>
    <path d="M18.324 0H13.7363V10.607H18.324V0Z" fill="white"/>
    <path d="M26.0245 32.5954H19.9622C16.5214 32.5954 13.736 29.789 13.736 26.3224V21.8652H18.3237V26.2893C18.3237 27.2138 19.0446 27.9401 19.9622 27.9401H26.0245C26.942 27.9401 27.663 27.2138 27.663 26.2893V20.2144C27.663 19.29 26.942 18.5636 26.0245 18.5636H0V13.9414H26.0245C29.4653 13.9414 32.2507 16.7478 32.2507 20.2144V26.3224C32.2507 29.789 29.4653 32.5954 26.0245 32.5954Z" fill="white"/>
    <path d="M117.764 36.9679C117.568 36.7727 117.489 36.5774 117.489 36.3041C117.489 36.0307 117.568 35.7964 117.764 35.5621L125.15 25.7604L118.314 16.5444C118.157 16.3101 118.039 16.0758 118.039 15.8024C118.039 15.5291 118.118 15.3338 118.314 15.1386C118.511 14.9433 118.707 14.8652 118.982 14.8652H122.793C123.107 14.8652 123.343 14.9433 123.5 15.0605C123.657 15.1776 123.814 15.3729 124.011 15.6072L128.843 22.0115L133.636 15.6072C133.675 15.5681 133.754 15.451 133.95 15.2167C134.147 14.9824 134.422 14.8652 134.854 14.8652H138.547C138.822 14.8652 139.018 14.9433 139.215 15.1386C139.372 15.3338 139.49 15.5291 139.49 15.7634C139.49 16.0368 139.411 16.3101 139.215 16.5444L132.3 25.7994L139.725 35.5621C139.882 35.7964 140 36.0307 140 36.3041C140 36.5774 139.922 36.7727 139.725 36.9679C139.529 37.1632 139.332 37.2413 139.057 37.2413H135.09C134.618 37.2413 134.225 37.007 133.911 36.5384L128.725 29.7435L123.5 36.5384C123.186 37.007 122.793 37.2413 122.321 37.2413H118.471C118.157 37.2413 117.921 37.1632 117.764 36.9679Z" fill="#283049"/>
    <path d="M86.241 24.5099C86.1615 21.4324 85.2085 19.0142 83.6201 17.1204C82.0317 15.2265 79.7682 14.2796 76.8297 14.2796C74.0102 14.2796 71.7865 15.2265 70.1584 17.1598V7.49331C70.1584 6.86203 69.523 6.46748 68.967 6.70421L64.2812 8.63751V36.2956C64.2812 36.5718 64.4004 36.848 64.5989 37.0453C64.7975 37.2426 65.0357 37.3609 65.3534 37.3609H68.8479C69.1656 37.3609 69.4436 37.2426 69.6421 37.0453C69.8407 36.848 69.9598 36.6113 69.9598 36.2956V34.678C71.5482 36.7296 73.8911 37.7555 76.9091 37.7555C79.8476 37.7555 82.1111 36.8086 83.6995 34.9542C85.2879 33.0998 86.1218 30.5746 86.241 27.4577C86.3399 26.4751 86.241 25.4838 86.241 24.5099ZM80.1256 27.2998C79.927 31.127 78.2592 33.0208 75.1618 33.0208C73.494 33.0208 72.263 32.4685 71.4291 31.4032C70.5952 30.3379 70.1584 29.0359 70.1186 27.4971C70.0789 27.142 70.0789 26.5896 70.0789 25.84C70.0789 25.0509 70.0789 24.4985 70.1186 24.1434C70.1584 22.6836 70.6349 21.4605 71.4688 20.4346C72.3027 19.4088 73.5337 18.8959 75.1221 18.8959C78.2592 18.8959 79.8873 20.7897 80.0859 24.6169C80.1256 24.8931 80.1256 25.3271 80.1256 25.9189C80.1653 26.5896 80.1653 27.0237 80.1256 27.2998Z" fill="#283049"/>
    <path d="M113.378 32.2602H97.8304L102.028 26.6284C102.572 25.9195 102.067 24.8955 101.173 24.8955H95.7315L90.5231 31.7088C90.3676 31.9451 90.2121 32.1814 90.0566 32.4177C89.94 32.654 89.8623 32.9691 89.8623 33.3235V36.3954C89.8623 36.7104 89.94 36.9861 90.1344 37.183C90.3287 37.38 90.5619 37.4981 90.8729 37.4981H110.813C111.357 37.4981 111.862 37.2224 112.173 36.7892L114.194 34.0324C114.738 33.2447 114.233 32.2602 113.378 32.2602Z" fill="#283049"/>
    <path d="M90.1476 11.7658H105.857L101.615 17.2827C101.066 17.9771 101.576 18.9802 102.479 18.9802H107.978L113.24 12.3059C113.397 12.0745 113.555 11.843 113.712 11.6115C113.829 11.38 113.908 11.0714 113.908 10.7242V7.71499C113.908 7.40635 113.829 7.1363 113.633 6.9434C113.437 6.7505 113.201 6.63477 112.887 6.63477H92.7396C92.1898 6.63477 91.6792 6.90482 91.365 7.3292L89.3228 10.0298C88.773 10.7628 89.2835 11.7658 90.1476 11.7658Z" fill="#283049"/>
    <defs>
        <linearGradient id="paint0_linear" x1="42.7778" y1="43.01" x2="5.97832" y2="6.40923" gradientUnits="userSpaceOnUse">
            <stop offset="0.159375" stop-color="#003CDA"/>
            <stop offset="1" stop-color="#33DFCC"/>
        </linearGradient>
    </defs>
</svg>
