<svg width="40" height="40" viewBox="0 0 40 40" fill="none" 
    xmlns="http://www.w3.org/2000/svg">
    <path d="M40 20C40 8.9543 31.0457 0 20 0C8.9543 0 0 8.9543 0 20C0 31.0457 8.9543 40 20 40C31.0457 40 40 31.0457 40 20Z" fill="#C63B86"/>
    <path d="M33.0569 28.7187L20.0287 21.26L6.875 28.7493L33.0569 28.7187Z" fill="#662D91"/>
    <path d="M20.0346 6.25L20.0303 21.26L33.0583 28.7188L20.0346 6.25Z" fill="#9E1F63"/>
    <path d="M6.875 28.75L20.0287 21.26L20.0325 6.25L6.875 28.75Z" fill="#FF5000"/>
    <path d="M25.9573 24.6506H14.0723L14.3554 24.1775L19.7335 15.195L20.001 14.7481L20.2698 15.1944L25.6723 24.1769L25.9573 24.6506V24.6506Z" fill="white"/>
    <path d="M20.0021 15.3556L14.624 24.3381H25.4053L20.0021 15.3556ZM20.0009 14.1412L20.5384 15.0338L25.9402 24.0156L26.5103 24.9631H13.5215L14.0877 24.0169L19.4659 15.0344L20.0009 14.1406V14.1412Z" fill="black"/>
</svg>
