<svg width="40" height="40" viewBox="0 0 40 40" fill="none" 
    xmlns="http://www.w3.org/2000/svg">
    <path d="M20 40C31.0457 40 40 31.0457 40 20C40 8.9543 31.0457 0 20 0C8.9543 0 0 8.9543 0 20C0 31.0457 8.9543 40 20 40Z" fill="url(#paint0_linear)"/>
    <path d="M29.6449 24.5085C29.6449 23.1989 28.707 22.3354 27.5527 22.3354H24.1257V23.4579H27.5599C28.1515 23.4579 28.6276 23.8393 28.6276 24.5156C28.6276 25.1633 28.1515 25.5375 27.5599 25.5375H24.1257V26.7319H27.5527C28.707 26.7319 29.6449 25.8685 29.6449 24.5085Z" fill="white"/>
    <path d="M29.6448 19.473C29.6448 18.2714 28.9955 17.4511 27.9638 17.4511C27.062 17.4511 26.521 18.0484 26.3189 19.0341L26.2035 19.5522C26.0881 20.0703 25.8933 20.2718 25.5975 20.2718C25.2367 20.2718 24.9986 19.9984 24.9986 19.4947C24.9986 18.9334 25.2728 18.6672 25.6408 18.5736V17.6382H25.0925C24.4287 17.7893 24.0175 18.4729 24.0175 19.4659C24.0175 20.6531 24.6235 21.4302 25.6624 21.4302C26.5353 21.4302 27.062 20.8834 27.2568 19.8976L27.3506 19.4011C27.4733 18.8542 27.6753 18.6096 28.0288 18.6096C28.4328 18.6096 28.6636 18.9478 28.6636 19.4515C28.6636 20.0271 28.4111 20.3725 28.0071 20.5164V21.459H28.5482C29.147 21.2288 29.6448 20.5884 29.6448 19.473Z" fill="white"/>
    <path d="M29.5367 16.5626V14.6702C29.5367 13.008 28.3102 11.979 26.8095 11.979C25.3305 11.979 24.1257 13.008 24.1257 14.6702V16.5626H29.5367ZM28.5194 15.3681H25.143V14.6918C25.143 13.7491 25.8933 13.2094 26.8095 13.2094C27.7547 13.2094 28.5194 13.7491 28.5194 14.6918V15.3681Z" fill="white"/>
    <path d="M17.1107 18.6031C17.6601 18.6031 18.1055 19.0469 18.1055 19.5942C18.1055 20.1416 17.6601 20.5853 17.1107 20.5853H14.5284C12.0274 20.5853 10 18.5654 10 16.0739C10 13.5823 12.0274 11.5625 14.5284 11.5625H21.1879C21.7373 11.5625 22.1827 12.0062 22.1827 12.5536C22.1827 13.1009 21.7373 13.5446 21.1879 13.5446H14.5284C13.1263 13.5446 11.9896 14.6771 11.9896 16.0739C11.9896 17.4707 13.1263 18.6031 14.5284 18.6031H17.1107Z" fill="white"/>
    <path d="M15.072 20.5853C14.5226 20.5853 14.0772 20.1415 14.0772 19.5942C14.0772 19.0468 14.5226 18.6031 15.072 18.6031H17.6542C20.1552 18.6031 22.1827 20.623 22.1827 23.1145C22.1827 25.6061 20.1552 27.6259 17.6542 27.6259H10.9948C10.4454 27.6259 10 27.1822 10 26.6348C10 26.0875 10.4454 25.6438 10.9948 25.6438H17.6542C19.0564 25.6438 20.1931 24.5114 20.1931 23.1145C20.1931 21.7176 19.0564 20.5853 17.6542 20.5853H15.072Z" fill="white"/>
    <path d="M11.7809 27.2261L10.1636 26.0715L20.3357 11.9292L21.953 13.0837L11.7809 27.2261Z" fill="white" fill-opacity="0.5"/>
    <defs>
        <linearGradient id="paint0_linear" x1="9.21875" y1="3.28125" x2="38.2813" y2="32.3437" gradientUnits="userSpaceOnUse">
            <stop stop-color="#342F49"/>
            <stop offset="1"/>
        </linearGradient>
    </defs>
</svg>
