<svg width="137" height="29" viewBox="0 0 137 29" fill="none"
    xmlns="http://www.w3.org/2000/svg">
    <path d="M135.107 10.1491C133.792 8.7567 132.14 8.04353 130.083 8.04353C128.802 8.04353 127.621 8.34917 126.508 8.96047C125.396 9.57176 124.553 10.3868 123.946 11.4056C122.833 9.16423 120.911 8.04353 118.146 8.04353C115.886 8.04353 114.065 8.89255 112.716 10.6245V9.23215C112.716 8.82462 112.312 8.5869 111.974 8.72274L107.962 10.3529V27.1295C107.962 27.3672 108.063 27.605 108.231 27.7748C108.4 27.9446 108.602 28.0465 108.872 28.0465H112.042C112.312 28.0465 112.548 27.9446 112.683 27.7748C112.851 27.605 112.919 27.4012 112.919 27.1295V16.6017C112.919 15.0395 113.256 13.9188 113.964 13.1716C114.638 12.4584 115.482 12.0849 116.459 12.0849C117.505 12.0849 118.382 12.4584 119.056 13.1716C119.73 13.8848 120.068 15.0395 120.068 16.6017V27.1295C120.068 27.3672 120.169 27.605 120.337 27.7748C120.506 27.9446 120.708 28.0465 120.978 28.0465H124.114C124.384 28.0465 124.62 27.9446 124.755 27.7748C124.924 27.605 124.991 27.4012 124.991 27.1295V16.6017C124.991 15.0395 125.328 13.9188 126.036 13.1716C126.711 12.4584 127.554 12.0849 128.532 12.0849C129.611 12.0849 130.488 12.4245 131.128 13.1377C131.803 13.8508 132.106 14.9715 132.106 16.5677V27.605C132.106 27.8427 132.747 27.9785 133.017 27.9785H136.119C136.389 27.9785 136.625 27.8767 136.76 27.7069C136.928 27.537 136.996 27.3333 136.996 27.0616V16.296C137.063 13.6131 136.389 11.5415 135.107 10.1491ZM31.7171 8.7567L30.0647 9.43592L29.0193 9.87741L28.1426 10.251L27.4344 10.5566V19.6921C27.4344 21.1185 27.0635 22.2731 26.2879 23.0882C25.5123 23.9032 24.5006 24.3447 23.1855 24.3447C20.5215 24.3447 19.1726 22.7825 19.1726 19.6921V9.26612C19.1726 8.82462 18.7342 8.55294 18.3296 8.72274L13.9795 10.5227V19.9298C13.9795 22.5788 14.6539 24.6504 15.9691 26.1447C17.2842 27.6389 19.1052 28.42 21.3982 28.42C24.1634 28.42 26.2542 27.4691 27.603 25.6013V27.4691C27.603 27.9106 28.0414 28.1823 28.4461 28.0125L32.5264 26.3145V9.30008C32.5601 8.89255 32.1217 8.5869 31.7171 8.7567ZM41.5638 0.0966882L37.6521 1.72681V27.2314C37.6521 27.7748 38.1916 28.1144 38.6637 27.9106L42.5754 26.2805V0.775905C42.6091 0.266492 42.0696 -0.107077 41.5638 0.0966882ZM10.8434 0.0966882H8.24682C5.78514 0.0966882 3.93045 0.640062 2.71647 1.76077C1.50249 2.88148 0.895508 4.57952 0.895508 6.8549V27.1635C0.895508 27.7069 1.43505 28.0465 1.90716 27.8427L5.78514 26.2465V12.4584H10.4387C10.6748 12.4584 10.9445 12.3566 11.1132 12.1867C11.2818 12.0169 11.3492 11.8132 11.3492 11.5415V9.30008C11.3492 9.06235 11.248 8.82462 11.0794 8.65482C10.9108 8.48502 10.7085 8.38313 10.4387 8.38313H5.75142V7.05866C5.75142 6.03984 5.95375 5.32666 6.35841 4.81725C6.76307 4.34179 7.4375 4.10407 8.41543 4.10407H10.8097C11.0457 4.10407 11.2818 4.00219 11.4504 3.83238C11.619 3.66258 11.7201 3.45881 11.7201 3.18713V0.945709C11.7201 0.707983 11.619 0.470258 11.4504 0.300453C11.3155 0.198571 11.0794 0.0966882 10.8434 0.0966882ZM102.229 8.7567L100.577 9.43592L99.5312 9.87741L98.6544 10.251L97.9463 10.5566V19.6921C97.9463 21.1185 97.5753 22.2731 96.7998 23.0882C96.0242 23.9032 95.0125 24.3447 93.6974 24.3447C91.0334 24.3447 89.6845 22.7825 89.6845 19.6921V9.26612C89.6845 8.82462 89.2461 8.55294 88.8414 8.72274L84.4914 10.5227V19.9298C84.4914 22.5788 85.1658 24.6504 86.4809 26.1447C87.7961 27.6389 89.617 28.42 91.9101 28.42C94.6753 28.42 96.766 27.4691 98.1149 25.6013V27.4691C98.1149 27.9106 98.5533 28.1823 98.9579 28.0125L103.038 26.3145V9.30008C103.038 8.89255 102.6 8.5869 102.229 8.7567ZM64.6968 17.5186L62.1677 18.4695C61.7293 18.6393 61.4258 19.0129 61.2909 19.4544C60.7851 21.2543 59.5037 22.7825 57.649 23.4957C54.4117 24.7183 50.8035 22.9523 49.7918 19.5563C48.9825 16.7715 50.2639 13.7829 52.8268 12.4584C54.8501 11.4396 57.1094 11.6773 58.8292 12.798C59.2339 13.0697 59.706 13.1037 60.1444 12.9678L62.6735 12.0169C63.1456 11.8471 63.3142 11.2358 62.9433 10.8623C60.0769 7.8058 55.4908 6.71905 51.4105 8.55294C46.6894 10.6585 44.2952 16.0922 45.8801 21.0505C47.6674 26.6541 53.7373 29.5407 59.1327 27.5031C63.0782 26.0088 65.5398 22.3071 65.7084 18.2997C65.6747 17.7224 65.1689 17.3488 64.6968 17.5186ZM80.8832 8.41709H79.2982C76.9377 8.41709 75.1505 9.23216 73.9028 10.8962V9.33404C73.9028 9.06235 73.8016 8.82462 73.633 8.65482C73.4644 8.48502 73.2284 8.38313 72.9586 8.38313H69.8899C69.6539 8.38313 69.4178 8.48502 69.2492 8.65482C69.0806 8.82462 68.9794 9.06235 68.9794 9.33404V27.2314C68.9794 27.7748 69.519 28.1144 69.9911 27.9106L74.1051 26.2126V16.7715C74.1051 15.5828 74.4423 14.6659 75.1168 13.9867C75.7912 13.3075 76.7017 12.9678 77.8819 12.9678H80.8494C81.1192 12.9678 81.3553 12.866 81.4901 12.6962C81.6588 12.5264 81.7262 12.3226 81.7262 12.0509V9.30008C81.7262 9.02839 81.6588 8.79066 81.4901 8.65482C81.3553 8.48502 81.1529 8.41709 80.8832 8.41709Z" fill="white"/>
</svg>