<svg width="172.028" height="36" viewBox="0 0 187 41" fill="none" xmlns="http://www.w3.org/2000/svg">
<path d="M0 8.18381C0 3.66401 3.66402 0 8.18381 0H32.7352C37.255 0 40.919 3.66402 40.919 8.18381V32.7352C40.919 37.255 37.255 40.919 32.7352 40.919H8.18381C3.66401 40.919 0 37.255 0 32.7352V8.18381Z" fill="url(#paint0_linear)"/>
<path d="M185.23 15.9482C184 14.6533 182.455 13.9901 180.532 13.9901C179.334 13.9901 178.23 14.2743 177.19 14.8428C176.149 15.4113 175.361 16.1693 174.794 17.1168C173.753 15.0323 171.956 13.9901 169.371 13.9901C167.258 13.9901 165.556 14.7796 164.294 16.3904V15.0955C164.294 14.7165 163.916 14.4954 163.601 14.6217L159.849 16.1377V31.7396C159.849 31.9607 159.943 32.1818 160.101 32.3397C160.259 32.4976 160.448 32.5924 160.7 32.5924H163.664C163.916 32.5924 164.137 32.4976 164.263 32.3397C164.42 32.1818 164.484 31.9923 164.484 31.7396V21.9489C164.484 20.4961 164.799 19.4539 165.461 18.7591C166.092 18.0958 166.88 17.7484 167.794 17.7484C168.772 17.7484 169.591 18.0958 170.222 18.7591C170.853 19.4223 171.168 20.4961 171.168 21.9489V31.7396C171.168 31.9607 171.262 32.1818 171.42 32.3397C171.578 32.4976 171.767 32.5924 172.019 32.5924H174.951C175.204 32.5924 175.424 32.4976 175.55 32.3397C175.708 32.1818 175.771 31.9923 175.771 31.7396V21.9489C175.771 20.4961 176.086 19.4539 176.749 18.7591C177.379 18.0958 178.167 17.7484 179.082 17.7484C180.091 17.7484 180.91 18.0643 181.51 18.7275C182.14 19.3907 182.424 20.433 182.424 21.9174V32.1818C182.424 32.4029 183.023 32.5292 183.275 32.5292H186.176C186.428 32.5292 186.649 32.4344 186.775 32.2765C186.933 32.1186 186.996 31.9291 186.996 31.6765V21.6647C187.059 19.1697 186.428 17.2431 185.23 15.9482ZM88.56 14.6533L87.015 15.285L86.0376 15.6955L85.2178 16.043L84.5557 16.3272V24.823C84.5557 26.1495 84.2089 27.2233 83.4837 27.9813C82.7585 28.7393 81.8126 29.1498 80.583 29.1498C78.0921 29.1498 76.8309 27.697 76.8309 24.823V15.127C76.8309 14.7165 76.421 14.4638 76.0427 14.6217L71.9753 16.2956V25.0441C71.9753 27.5075 72.6059 29.4341 73.8356 30.8237C75.0653 32.2134 76.7679 32.9398 78.9119 32.9398C81.4973 32.9398 83.4522 32.0555 84.7134 30.3184V32.0555C84.7134 32.466 85.1232 32.7187 85.5016 32.5608L89.3167 30.9816V15.1586C89.3482 14.7796 88.9383 14.4954 88.56 14.6533ZM97.7667 6.59968L94.1092 8.11566V31.8344C94.1092 32.3397 94.6137 32.6555 95.0551 32.466L98.7125 30.9501V7.23134C98.7441 6.75759 98.2396 6.41018 97.7667 6.59968ZM69.0431 6.59968H66.6153C64.3136 6.59968 62.5795 7.105 61.4444 8.14724C60.3094 9.18947 59.7418 10.7686 59.7418 12.8847V31.7712C59.7418 32.2765 60.2463 32.5924 60.6877 32.4029L64.3136 30.9185V18.0958H68.6647C68.8854 18.0958 69.1377 18.0011 69.2953 17.8432C69.453 17.6853 69.516 17.4958 69.516 17.2431V15.1586C69.516 14.9376 69.4214 14.7165 69.2638 14.5586C69.1061 14.4006 68.917 14.3059 68.6647 14.3059H64.2821V13.0742C64.2821 12.1267 64.4713 11.4634 64.8496 10.9897C65.228 10.5475 65.8586 10.3265 66.7729 10.3265H69.0116C69.2323 10.3265 69.453 10.2317 69.6106 10.0738C69.7683 9.91588 69.8629 9.72638 69.8629 9.47372V7.38925C69.8629 7.16817 69.7683 6.94709 69.6106 6.78918C69.4845 6.69443 69.2638 6.59968 69.0431 6.59968ZM154.489 14.6533L152.944 15.285L151.966 15.6955L151.146 16.043L150.484 16.3272V24.823C150.484 26.1495 150.137 27.2233 149.412 27.9813C148.687 28.7393 147.741 29.1498 146.512 29.1498C144.021 29.1498 142.76 27.697 142.76 24.823V15.127C142.76 14.7165 142.35 14.4638 141.971 14.6217L137.904 16.2956V25.0441C137.904 27.5075 138.535 29.4341 139.764 30.8237C140.994 32.2134 142.696 32.9398 144.84 32.9398C147.426 32.9398 149.381 32.0555 150.642 30.3184V32.0555C150.642 32.466 151.052 32.7187 151.43 32.5608L155.245 30.9816V15.1586C155.245 14.7796 154.835 14.4954 154.489 14.6533ZM119.396 22.8017L117.031 23.686C116.621 23.8439 116.338 24.1913 116.212 24.6019C115.739 26.2758 114.54 27.697 112.806 28.3603C109.779 29.4972 106.406 27.8549 105.46 24.6967C104.703 22.1069 105.901 19.3276 108.298 18.0958C110.189 17.1484 112.302 17.3694 113.91 18.4117C114.288 18.6643 114.73 18.6959 115.14 18.5696L117.504 17.6853C117.946 17.5273 118.103 16.9589 117.756 16.6114C115.076 13.769 110.788 12.7583 106.973 14.4638C102.559 16.4219 100.321 21.4752 101.802 26.0863C103.474 31.2975 109.149 33.982 114.194 32.087C117.883 30.6974 120.184 27.2549 120.342 23.5281C120.31 22.9912 119.837 22.6438 119.396 22.8017ZM134.53 14.3375H133.048C130.841 14.3375 129.17 15.0955 128.004 16.643V15.1902C128.004 14.9376 127.909 14.7165 127.751 14.5586C127.594 14.4006 127.373 14.3059 127.121 14.3059H124.252C124.031 14.3059 123.81 14.4006 123.653 14.5586C123.495 14.7165 123.4 14.9376 123.4 15.1902V31.8344C123.4 32.3397 123.905 32.6555 124.346 32.466L128.193 30.8869V22.1069C128.193 21.0015 128.508 20.1487 129.139 19.5171C129.769 18.8854 130.621 18.5696 131.724 18.5696H134.499C134.751 18.5696 134.972 18.4748 135.098 18.3169C135.255 18.159 135.319 17.9695 135.319 17.7168V15.1586C135.319 14.906 135.255 14.6849 135.098 14.5586C134.972 14.4006 134.783 14.3375 134.53 14.3375Z" fill="white"/>
<path d="M19.3017 18.9835C18.4971 19.2729 17.9511 20.0833 18.0085 20.9516C18.0085 21.1252 18.066 21.3278 18.1235 21.5015L18.4683 22.4276C18.8419 23.4406 19.934 23.9905 20.9398 23.6142L22.2905 23.1222L25.7103 21.9067C26.7161 21.5304 27.2622 20.4306 26.8886 19.4176L26.5437 18.4915C26.1701 17.4785 25.0781 16.9286 24.0723 17.3049L20.2501 18.6652L19.4167 18.9546L19.3017 18.9835Z" fill="white"/>
<path d="M23.0224 29.3292C22.7907 29.4164 22.559 29.5328 22.3274 29.5909C20.1267 30.3471 18.0418 30.2308 15.9279 29.2129C15.4067 28.9511 14.8855 28.6603 14.4221 28.3113C14.0167 27.9914 13.6113 27.6715 13.2639 27.2643C12.9164 26.8862 12.5978 26.45 12.3083 26.0137C12.0187 25.5193 11.7581 24.9667 11.5554 24.4142C10.9473 22.7273 10.8894 21.0987 11.3527 19.4701C11.4975 18.9466 11.7002 18.4521 11.9318 17.9577C12.5689 16.6199 13.4376 15.5729 14.538 14.7586C15.204 14.2933 15.9279 13.9152 16.6808 13.6244C16.9124 13.5371 17.173 13.4499 17.4047 13.3917L18.0128 13.2172L16.3623 8.59302L15.8121 8.76752C15.5515 8.85476 15.3198 8.91293 15.0592 9.00018C13.2928 9.64 11.7871 10.5125 10.513 11.6758C10.4261 11.7631 10.3392 11.8503 10.2234 11.9376C9.09406 13.0427 8.16744 14.3514 7.47247 15.8056C5.96671 19.0047 5.73505 22.2911 6.7775 25.6066C6.83542 25.752 6.86437 25.8974 6.92229 26.0428C7.61725 28.0495 8.68866 29.7363 10.1076 31.1323C11.179 32.1793 12.4241 33.0227 13.7561 33.6625C14.1905 33.8661 14.6248 34.0406 15.0592 34.2151C15.3488 34.3315 15.6094 34.4187 15.8989 34.506C17.9549 35.0876 20.1556 35.1458 22.2405 34.6514C22.7907 34.535 23.3409 34.3605 23.8911 34.157C24.1517 34.0697 24.4123 33.9534 24.6439 33.8661L25.1652 33.6335L23.8911 29.9981L23.5436 29.0384L23.0224 29.3292Z" fill="white"/>
<mask id="mask0" mask-type="alpha" maskUnits="userSpaceOnUse" x="0" y="0" width="41" height="41">
<path d="M0 8.18381C0 3.66401 3.66402 0 8.18381 0H32.7352C37.255 0 40.919 3.66402 40.919 8.18381V32.7352C40.919 37.255 37.255 40.919 32.7352 40.919H8.18381C3.66401 40.919 0 37.255 0 32.7352V8.18381Z" fill="url(#paint1_linear)"/>
</mask>
<g mask="url(#mask0)">
<path d="M25.3187 5.16192L24.1678 5.57009L21.9812 6.35727L20.0823 7.02783L18.4136 7.61092L20.0535 12.2757L20.1398 12.2465L21.1468 11.8967L27.6491 9.5643L29.8357 8.77712L31.0441 8.33979L32.4539 7.84416L37.2012 6.12403L40.5099 4.92868C40.1934 3.20855 39.2439 1.6925 37.8917 0.61377L35.5612 1.48841L25.3187 5.16192Z" fill="white"/>
</g>
<defs>
<linearGradient id="paint0_linear" x1="38.2593" y1="38.2593" x2="5.52407" y2="5.52407" gradientUnits="userSpaceOnUse">
<stop offset="0.159375" stop-color="#003CDA"/>
<stop offset="1" stop-color="#33DFCC"/>
</linearGradient>
<linearGradient id="paint1_linear" x1="38.2593" y1="38.2593" x2="5.52407" y2="5.52407" gradientUnits="userSpaceOnUse">
<stop offset="0.159375" stop-color="#003CDA"/>
<stop offset="1" stop-color="#33DFCC"/>
</linearGradient>
</defs>
</svg>
