<svg width="131" height="194" viewBox="0 0 131 194" fill="none" xmlns="http://www.w3.org/2000/svg">
<path fill-rule="evenodd" clip-rule="evenodd" d="M91.2854 129.119C93.2154 128.818 95.0281 130.11 95.3342 132.004C96.5646 139.617 98.1458 150.738 99.0858 161.334C99.5556 166.63 99.8692 171.838 99.8932 176.434C99.9168 180.968 99.6626 185.142 98.893 188.254C98.4321 190.117 96.519 191.261 94.6201 190.809C92.7211 190.357 91.5554 188.479 92.0163 186.616C92.5757 184.354 92.8398 180.871 92.8169 176.47C92.7943 172.131 92.4966 167.127 92.0361 161.936C91.1155 151.558 89.5602 140.61 88.3452 133.092C88.0391 131.198 89.3555 129.419 91.2854 129.119Z" fill="#11171C"/>
<path d="M95.8611 182.566C97.9526 181.925 100.567 183.421 102.972 183.421C106.946 183.528 110.188 182.352 113.116 185.451C116.463 188.764 116.463 194 110.293 194C104.123 194 95.3382 193.038 93.0375 191.542C90.6322 190.046 90.3185 184.276 95.8611 182.566Z" fill="#11161C"/>
<path fill-rule="evenodd" clip-rule="evenodd" d="M39.715 129.119C41.6449 129.419 42.9613 131.198 42.6551 133.092C41.4401 140.61 39.8849 151.558 38.9642 161.936C38.5038 167.127 38.206 172.131 38.1834 176.47C38.1605 180.871 38.4246 184.354 38.9841 186.616C39.445 188.479 38.2792 190.357 36.3803 190.809C34.4813 191.261 32.5683 190.117 32.1074 188.254C31.3378 185.142 31.0836 180.968 31.1072 176.434C31.1311 171.838 31.4447 166.63 31.9146 161.334C32.8545 150.738 34.4358 139.617 35.6662 132.004C35.9723 130.11 37.785 128.818 39.715 129.119Z" fill="#11171C"/>
<path d="M35.1394 182.566C33.0479 181.925 30.4335 183.421 28.0282 183.421C24.0543 183.528 20.8125 182.352 17.8843 185.451C14.5379 188.764 14.5379 194 20.7079 194C26.8779 194 35.6623 193.038 37.963 191.542C40.3682 190.046 40.6819 184.276 35.1394 182.566Z" fill="#11161C"/>
<path d="M123.862 73.9977L98.3087 48.4543L117.5 29.2706C122.193 24.579 122.193 16.8639 117.5 12.068L108.947 3.51873C104.254 -1.17291 96.5357 -1.17291 91.7379 3.51873L69.3136 25.9344C66.8104 25.5173 64.203 25.5173 61.6998 25.9344L39.2755 3.51873C34.5821 -1.17291 26.8639 -1.17291 22.0662 3.51873L13.5136 12.068C8.82019 16.7596 8.82019 24.4747 13.5136 29.2706L32.7047 48.4543L7.15141 73.9977C-2.1312 83.2767 -2.1312 98.3942 7.15141 107.777L48.5581 149.168C57.8407 158.447 72.9641 158.447 82.351 149.168L123.758 107.777C133.145 98.3942 133.145 83.2767 123.862 73.9977Z" fill="#33DFCC"/>
<path d="M51.2014 53.3314C51.2014 54.5874 49.9615 55.6501 48.4962 55.6501C47.0309 55.6501 45.791 54.5874 45.791 53.3314C45.791 52.0754 47.0309 51.0127 48.4962 51.0127C49.9615 51.0127 51.2014 51.9788 51.2014 53.3314Z" fill="#333333"/>
<path d="M85.2094 53.3314C85.2094 54.5874 83.9695 55.6501 82.5042 55.6501C81.0389 55.6501 79.7991 54.5874 79.7991 53.3314C79.7991 52.0754 81.0389 51.0127 82.5042 51.0127C84.0823 51.0127 85.2094 51.9788 85.2094 53.3314Z" fill="#333333"/>
<path d="M71.297 56.4219C71.297 59.3923 68.8571 61.8322 65.8867 61.8322C62.9163 61.8322 60.4763 59.3923 60.4763 56.4219" stroke="#333333" stroke-width="2.662" stroke-miterlimit="10" stroke-linecap="round"/>
<path fill-rule="evenodd" clip-rule="evenodd" d="M18.4965 85.1502C20.3596 85.6692 21.4481 87.596 20.928 89.4541C20.928 89.4542 20.9281 89.4539 20.928 89.4541L20.9237 89.4694L20.9076 89.5278C20.893 89.581 20.8706 89.6626 20.8412 89.7715C20.7823 89.9892 20.6952 90.3155 20.5846 90.741C20.3634 91.5921 20.0487 92.8389 19.6795 94.4043C18.9406 97.5372 17.9862 101.935 17.1262 106.985C15.3913 117.171 14.1015 129.672 15.5484 139.774C15.822 141.684 14.4913 143.453 12.5762 143.726C10.6611 143.999 8.88684 142.672 8.61326 140.762C7.00772 129.553 8.45457 116.178 10.2195 105.815C11.1094 100.59 12.0957 96.0456 12.86 92.8046C13.2425 91.183 13.57 89.8849 13.8031 88.9879C13.9197 88.5394 14.0127 88.1909 14.0773 87.9523C14.1096 87.8329 14.1347 87.741 14.1521 87.6777L14.1724 87.6044L14.1802 87.5763C14.1804 87.5756 14.1806 87.575 17.5542 88.5148L14.1806 87.575C14.701 85.7168 16.6333 84.6312 18.4965 85.1502Z" fill="#11171C"/>
<path d="M9.79652 133.113C4.63913 136.955 3.58661 149.105 6.21792 151.078C8.84924 153.051 16.2169 152.843 17.5852 148.274C19.0588 143.601 16.2169 128.232 9.79652 133.113Z" fill="#11161C"/>
<path d="M15.8473 136.805C18.7132 140.437 20.8626 145.316 20.1462 146.561C19.4297 147.807 16.3591 144.797 14.005 142.513C11.7532 140.126 15.8473 136.805 15.8473 136.805Z" fill="#11161C"/>
<path fill-rule="evenodd" clip-rule="evenodd" d="M112.504 85.1502C114.367 84.6312 116.299 85.7168 116.82 87.575L113.446 88.5148C116.82 87.575 116.82 87.5756 116.82 87.5763L116.828 87.6044L116.848 87.6777C116.866 87.741 116.891 87.8329 116.923 87.9523C116.988 88.1909 117.081 88.5394 117.197 88.9879C117.43 89.8849 117.758 91.183 118.14 92.8046C118.905 96.0456 119.891 100.59 120.781 105.815C122.546 116.178 123.993 129.553 122.387 140.762C122.114 142.672 120.339 143.999 118.424 143.726C116.509 143.453 115.178 141.684 115.452 139.774C116.899 129.672 115.609 117.171 113.874 106.985C113.014 101.935 112.06 97.5372 111.321 94.4043C110.952 92.8389 110.637 91.5921 110.416 90.741C110.305 90.3155 110.218 89.9891 110.159 89.7715C110.13 89.6626 110.107 89.581 110.093 89.5278L110.077 89.4694L110.073 89.4545C110.072 89.4544 110.073 89.4547 110.073 89.4545C109.552 87.5965 110.641 85.6691 112.504 85.1502Z" fill="#11171C"/>
<path d="M121.218 133.113C126.361 136.955 127.41 149.105 124.786 151.078C122.163 153.051 114.816 152.843 113.452 148.274C111.877 143.601 114.816 128.232 121.218 133.113Z" fill="#11161C"/>
<path d="M114.873 136.805C111.689 140.437 109.301 145.316 110.097 146.561C110.893 147.807 114.305 144.797 116.92 142.513C119.422 140.126 114.873 136.805 114.873 136.805Z" fill="#11161C"/>
</svg>
