<svg xmlns="http://www.w3.org/2000/svg" width="64" height="64" viewBox="0 0 64 64">
    <defs>
        <style>
            .cls-1{fill:#f3b306}.cls-2{fill:#fff}
        </style>
    </defs>
    <g id="ic_token_btc" transform="translate(-32 -184)">
        <circle id="Ellipse_49" cx="32" cy="32" r="32" class="cls-1" data-name="Ellipse 49" transform="translate(32 184)"/>
        <g id="Group_375" data-name="Group 375" transform="translate(-46.599 110.535)">
            <path id="Path_189" d="M107.651 95.5c.855.217 1.706.434 2.558.648.871.218 1.745.425 2.613.656.22.059.3.025.36-.211.316-1.329.654-2.653.973-3.982.053-.22.13-.285.357-.224q1.127.309 2.265.578c.211.049.237.133.188.328-.324 1.3-.639 2.6-.956 3.907-.021.088-.033.178-.053.291.663.162 1.3.323 1.944.461.053.011.18-.131.2-.221.258-1.01.5-2.025.75-3.038.075-.307.152-.614.226-.922.035-.144.107-.2.258-.161.8.206 1.6.405 2.4.61a1.036 1.036 0 0 1 .183.092c-.244 1-.485 1.993-.728 2.985-.1.405-.192.814-.308 1.215-.067.23-.017.327.213.429.874.387 1.753.769 2.589 1.231a5.349 5.349 0 0 1 2.01 1.917 4.793 4.793 0 0 1 .462 3.75 4.694 4.694 0 0 1-1.209 2.318 4.324 4.324 0 0 1-1.739 1.042l-.316.1c.323.214.627.4.913.61a4.447 4.447 0 0 1 1.847 2.725 5.722 5.722 0 0 1-.141 2.683 7.474 7.474 0 0 1-1.447 2.958 5.211 5.211 0 0 1-3.225 1.775 13.819 13.819 0 0 1-4.818-.191c-.273-.05-.376 0-.438.273-.308 1.305-.63 2.607-.948 3.909-.087.358-.088.36-.438.272-.73-.183-1.458-.378-2.191-.55-.226-.053-.245-.159-.2-.357.332-1.334.655-2.671.987-4.006.033-.133.06-.245-.1-.288-.637-.169-1.275-.332-1.941-.5l-.531 2.155c-.179.722-.363 1.442-.533 2.166-.042.178-.1.221-.283.174-.772-.2-1.546-.4-2.323-.584-.2-.049-.232-.147-.183-.342.335-1.337.659-2.676.986-4.015.024-.1.041-.2.067-.326l-5.475-1.406c.129-.311.24-.584.355-.855.3-.7.6-1.4.895-2.107.088-.215.193-.267.42-.2.573.163 1.153.3 1.734.437a.943.943 0 0 0 1.211-.753q1.509-6.119 3.006-12.242a1.329 1.329 0 0 0-.928-1.572c-.681-.218-1.379-.379-2.07-.562-.121-.033-.236-.042-.189-.228.229-.91.45-1.823.676-2.734a.618.618 0 0 1 .065-.118zm4.018 19.668a1.631 1.631 0 0 0 .183.075 24.16 24.16 0 0 0 3.9.8 6.544 6.544 0 0 0 2.664-.219 2.536 2.536 0 0 0 1.254-3.724 4.389 4.389 0 0 0-1.68-1.413 19.793 19.793 0 0 0-4.6-1.468c-.216-.053-.264.016-.31.208-.18.77-.377 1.536-.565 2.3-.285 1.142-.563 2.28-.846 3.44zm6.588-8.142c.194-.032.523-.068.843-.141a2.4 2.4 0 0 0 1.524-3.443 3.719 3.719 0 0 0-1.818-1.522 16.974 16.974 0 0 0-3.336-1.019c-.222-.054-.309-.008-.363.219q-.6 2.478-1.215 4.949c-.048.188.014.252.176.292.294.07.586.151.879.225a11.572 11.572 0 0 0 3.31.439z" class="cls-2" data-name="Path 189" transform="translate(-3.881 -2.899)"/>
        </g>
    </g>
</svg>
