<svg width="128" height="128" viewBox="0 0 128 128" fill="none" xmlns="http://www.w3.org/2000/svg">
<path d="M109.055 109.604C103.093 115.568 95.9939 120.268 88.181 123.427C80.3681 126.585 72.0007 128.136 63.5769 127.988C55.2058 128.153 46.8891 126.606 39.1348 123.443C31.3806 120.279 24.3516 115.565 18.4773 109.589C12.4648 103.724 7.72259 96.6821 4.54625 88.9012C1.36992 81.1203 -0.172449 72.7674 0.0152953 64.3632C0.0152953 45.9742 6.1798 30.6519 18.5088 18.3961C24.3868 12.4212 31.4191 7.70941 39.176 4.5486C46.9329 1.38779 55.2517 -0.155709 63.6242 0.0123937C72.0463 -0.130521 80.4111 1.42471 88.2211 4.58559C96.0311 7.74647 103.127 12.4484 109.086 18.4119C121.688 30.6782 127.989 46.0058 127.989 64.3947C128.148 72.8356 126.547 81.2168 123.286 89.0018C120.026 96.7868 115.178 103.804 109.055 109.604Z" fill="#49BC98"/>
<path d="M84.4302 40.6626L66.5572 27L65.6551 27.0729C65.2256 27.6289 64.8788 28.2481 64.6262 28.9101C63.0461 35.9627 61.5006 43.0332 59.9559 50.1006L59.9549 50.105L59.9514 50.121C59.5271 52.0623 59.1028 54.0034 58.6779 55.9438C58.5352 56.6135 58.4011 57.2921 58.249 58.0621L58.1141 58.7434C58.32 58.6338 58.4965 58.5446 58.6537 58.465C58.8732 58.3541 59.0552 58.262 59.2276 58.1601L78.4396 47.195C80.568 45.9994 82.6823 44.8037 84.7966 43.5789C85.0091 43.4655 85.1902 43.2982 85.3229 43.0925C85.4556 42.8869 85.5356 42.6497 85.5553 42.4033C85.575 42.1569 85.5339 41.9093 85.4357 41.6839C85.3375 41.4585 85.1855 41.2626 84.994 41.1146L84.4302 40.6626Z" fill="white"/>
<path d="M40.5935 42.2083C39.4562 43.0068 38.5693 44.132 38.0423 45.4453L38 83.1961C38.5027 84.151 39.1183 85.0375 39.8324 85.8353C43.8603 89.2661 47.9348 92.6568 52.0041 96.043L52.0068 96.0453C53.419 97.2205 54.8306 98.3952 56.2394 99.5709C56.775 100.023 57.353 100.358 58.0295 99.9208C58.3148 99.7188 58.5266 99.424 58.6313 99.0832C58.736 98.7424 58.7276 98.3751 58.6074 98.0398C56.4743 87.24 54.3647 76.4304 52.2786 65.6111C52.1165 64.7787 52.1165 63.9211 52.2786 63.0886C54.3929 52.3082 56.5307 41.5375 58.692 30.7766C58.8471 29.9892 58.833 29.2601 58.1 28.8227C57.3671 28.3852 56.7891 28.8081 56.2394 29.2747C54.7722 30.489 53.306 31.7044 51.8401 32.9196C48.0953 36.024 44.3517 39.1274 40.5935 42.2083Z" fill="white"/>
<path d="M65.5282 101C65.1098 100.471 64.7679 99.8813 64.5134 99.2503C62.8661 91.7366 61.2536 84.205 59.6417 76.6766C59.1985 74.6063 58.7553 72.5363 58.3114 70.4669C58.3114 70.2538 58.2679 70.0407 58.2138 69.7764C58.1866 69.6428 58.1566 69.496 58.1282 69.3296C58.2611 69.3961 58.381 69.4545 58.491 69.5081C58.7424 69.6307 58.9427 69.7283 59.1289 69.8399L84.4161 84.3191C85.9806 85.2231 86.037 86.2001 84.557 87.2353L66.5572 100.796L66.4304 100.927L65.5282 101Z" fill="white"/>
<path d="M62.5541 61.4411L58.9034 63.5845L59.8478 64.1824L76.5368 73.9081L85.6565 79.3323C86.5304 79.8426 87.3338 79.7551 87.7144 79.0698C87.9239 78.6155 88.0207 78.1144 87.9963 77.6117V49.9073C87.9963 47.8951 87.066 47.341 85.3745 48.318L62.5541 61.4411Z" fill="white"/>
</svg>
