<svg width="28" height="28" viewBox="0 0 28 28" fill="none" 
    xmlns="http://www.w3.org/2000/svg">
    <path fill-rule="evenodd" clip-rule="evenodd" d="M23.0171 23.1289L23.0286 23.1181C24.2474 21.9654 25.2123 20.5705 25.8614 19.0227C26.5105 17.4749 26.8295 15.8084 26.7979 14.1299L26.7976 14.1159L26.7977 14.1018C26.8146 10.3887 25.5641 7.35217 23.0506 4.90506L23.0439 4.89854L23.0373 4.89192C21.8492 3.69867 20.4335 2.75716 18.8744 2.12342C17.3154 1.48969 15.6448 1.17668 13.9625 1.20301L13.9401 1.20336L13.9177 1.20288C12.2482 1.1667 10.5889 1.47177 9.04115 2.09945C7.49339 2.72714 6.08967 3.66428 4.91584 4.85366L4.91079 4.85878L4.90567 4.86385C2.43942 7.3035 1.20003 10.3395 1.20003 14.059V14.0611C1.19367 17.664 2.41647 20.6532 4.87482 23.1059L4.87968 23.1107L4.88448 23.1156C6.05353 24.309 7.45339 25.251 8.9984 25.884C10.5434 26.5171 12.2011 26.828 13.8702 26.7977L13.8925 26.7973L13.9149 26.7977C15.5978 26.8299 17.2699 26.5227 18.8317 25.8944C20.3935 25.266 21.8131 24.3294 23.0059 23.1401L23.0171 23.1289ZM13.892 27.9975C15.736 28.0328 17.5682 27.6962 19.2796 27.0077C20.9909 26.3192 22.5463 25.2929 23.8532 23.9899C25.1934 22.7224 26.2543 21.1886 26.968 19.4868C27.6817 17.785 28.0324 15.9527 27.9976 14.1073C28.016 10.0848 26.646 6.73077 23.8877 4.04525C22.586 2.73786 21.0347 1.7062 19.3263 1.01175C17.6179 0.31731 15.7873 -0.0257021 13.9437 0.00316058C12.1109 -0.0365532 10.2893 0.298358 8.59017 0.98742C6.89107 1.67648 5.3502 2.70522 4.06175 4.01073C1.35393 6.68935 2.64326e-05 10.0388 2.64326e-05 14.059C-0.00686953 17.9711 1.33555 21.2699 4.02727 23.9554C5.31054 25.2653 6.84725 26.2994 8.54341 26.9944C10.2396 27.6895 12.0595 28.0308 13.892 27.9975Z" class="wbtc-svg-fill" fill="white"/>
    <path d="M21.1008 6.21204C17.082 2.53538 10.9227 2.53538 6.90384 6.21204L6.14346 5.46868C10.5779 1.37698 17.4094 1.37698 21.8439 5.46868L21.1008 6.21204Z" class="wbtc-svg-fill" fill="white"/>
    <path d="M21.7894 6.89089L22.5324 6.14753V6.13018C26.6224 10.5666 26.6224 17.4013 22.5324 21.8374L21.7894 21.094C25.4642 17.0734 25.4642 10.9115 21.7894 6.89089Z" class="wbtc-svg-fill" fill="white"/>
    <path d="M6.21039 21.1015C2.54003 17.0819 2.54003 10.9254 6.21039 6.90577L5.46736 6.16241C1.37742 10.5988 1.37742 17.4332 5.46736 21.8696L6.21039 21.1015Z" class="wbtc-svg-fill" fill="white"/>
    <path d="M6.8964 21.7878C10.9152 25.4644 17.0746 25.4644 21.0934 21.7878L21.8538 22.5311C17.4193 26.6228 10.5878 26.6228 6.15336 22.5311L6.8964 21.7878Z" class="wbtc-svg-fill" fill="white"/>
    <path fill-rule="evenodd" clip-rule="evenodd" d="M16.346 11.8262C16.346 13.3341 13.9925 13.1506 13.2448 13.1506V10.4943C13.9925 10.4943 16.346 10.2581 16.346 11.8262ZM16.9607 15.9502C16.9607 17.5988 14.1405 17.4103 13.2423 17.4103V14.4851C14.1405 14.4876 16.9607 14.2287 16.9607 15.9502ZM18.8174 11.2306C18.6669 9.65743 17.312 9.12968 15.5983 8.96884V6.80005H14.2735V8.92612C13.9248 8.92612 13.5685 8.92612 13.2147 8.93869V6.80005H11.8974V8.98141H11.0544H9.21274V10.4013C9.21274 10.4013 10.1913 10.3837 10.1762 10.4013C10.543 10.3608 10.8757 10.6187 10.9289 10.9843V16.958C10.9129 17.2171 10.6903 17.4138 10.4316 17.398C10.4301 17.398 10.4286 17.398 10.4271 17.3977C10.4447 17.4128 9.46365 17.3977 9.46365 17.3977L9.2002 18.9835H10.9264H11.8749V21.2H13.1996V19.0162H14.2585V21.19H15.5858V18.9986C17.8239 18.8629 19.3845 18.31 19.5802 16.2116C19.7383 14.5228 18.9454 13.7688 17.6783 13.4648C18.4486 13.0727 18.9329 12.3816 18.8174 11.2306Z" class="wbtc-svg-fill" fill="white"/>
</svg>
