<svg xmlns="http://www.w3.org/2000/svg" width="64" height="64" viewBox="0 0 64 64">
  <defs>
    <style>
      .cls-1{fill:#3674BA}.cls-2{fill:#FFFFFF}
    </style>
  </defs>
  <g id="ic_token_usdc">
    <circle class="cls-1" cx="32" cy="32" r="32" />
    <path class="cls-2" d="M26.02,54.255c0,0.75-0.599,1.174-1.299,0.949C15.026,52.106,8.029,43.061,8.029,32.342 c0-10.694,6.997-19.765,16.691-22.863c0.725-0.225,1.299,0.2,1.299,0.949v1.874c0,0.5-0.375,1.074-0.849,1.25 c-7.671,2.823-13.143,10.194-13.143,18.79c0,8.62,5.472,15.967,13.143,18.765c0.475,0.175,0.849,0.75,0.849,1.25V54.255z" />
    <path class="cls-2" d="M34.016,47.334c0,0.549-0.45,0.999-1,0.999h-1.999c-0.55,0-1-0.45-1-0.999v-3.148 c-4.373-0.6-6.497-3.023-7.071-6.372c-0.1-0.575,0.35-1.075,0.924-1.075h2.273c0.475,0,0.875,0.35,0.975,0.799 c0.425,1.974,1.575,3.499,5.073,3.499c2.574,0,4.423-1.449,4.423-3.598s-1.075-2.974-4.873-3.598 c-5.597-0.75-8.246-2.449-8.246-6.821c0-3.373,2.574-6.022,6.522-6.572V17.35c0-0.55,0.45-1,1-1h1.999c0.55,0,1,0.45,1,1v3.173 c3.224,0.575,5.272,2.398,5.947,5.447c0.125,0.574-0.325,1.1-0.925,1.1h-2.099c-0.449,0-0.824-0.3-0.949-0.725 c-0.575-1.924-1.949-2.773-4.348-2.773c-2.649,0-4.023,1.274-4.023,3.073c0,1.899,0.775,2.849,4.848,3.423 c5.497,0.75,8.345,2.324,8.345,6.996c0,3.549-2.649,6.422-6.771,7.071v3.199H34.016z" />
    <path class="cls-2" d="M39.313,55.205c-0.725,0.225-1.299-0.2-1.299-0.949v-1.874c0-0.55,0.324-1.075,0.849-1.25 c7.646-2.799,13.143-10.17,13.143-18.765c0-8.621-5.472-15.966-13.143-18.765c-0.475-0.175-0.849-0.75-0.849-1.25v-1.875 c0-0.749,0.599-1.174,1.299-0.949c9.695,3.048,16.691,12.119,16.691,22.813C56.004,43.061,49.008,52.106,39.313,55.205z" />
  </g>
</svg>
