<svg xmlns="http://www.w3.org/2000/svg" width="64" height="64" viewBox="0 0 64 64">
    <defs>
        <style>
            .cls-1{fill:#fff}.cls-2{fill:#8a92b2}.cls-3{fill:#454a75}.cls-4{fill:gray}.cls-5{fill:#62688f}
        </style>
    </defs>
    <g id="ic_token_eth" transform="translate(-181 -184)">
        <rect id="Rectangle_417" width="64" height="64" class="cls-1" data-name="Rectangle 417" rx="32" transform="translate(181 184)"/>
        <g id="Group_376" data-name="Group 376" transform="translate(200.651 196.218)">
            <path id="Path_190" d="M239.925 80.8a.06.06 0 0 1 0 .023 1.8 1.8 0 0 1 .021.329V95.26a1.512 1.512 0 0 1-.008.245c-.016.08-.082.107-.145.137-.41.194-.825.379-1.239.566l-1.754.8-2.088.948q-.861.39-1.72.783l-2.055.934q-.871.4-1.742.793c-.473.215-.947.427-1.418.646a.233.233 0 0 1-.117.03.049.049 0 0 1-.034-.014c.181-.3.363-.593.542-.89l3.078-5.106q1.653-2.743 3.3-5.486l3.059-5.075 2.229-3.7a.176.176 0 0 0 .042-.1h.025a.063.063 0 0 1 .024.029z" class="cls-2" data-name="Path 190" transform="translate(-227.601 -80.769)"/>
            <path id="Path_191" d="M259.287 109.763h.01l.008.007v.025l-2.923 1.729-9.195 5.435c-.035.021-.071.039-.107.057-.058 0-.057-.051-.063-.089a1.189 1.189 0 0 1 0-.171v-12.289a.916.916 0 0 1 .011-.208c.028-.083.085-.058.139-.034.265.117.529.239.793.359l2.334 1.061 2.01.914 2.033.924 1.753.8 1.754.8c.454.206.908.414 1.363.619a.446.446 0 0 1 .08.061z" class="cls-3" data-name="Path 191" transform="translate(-234.75 -89.41)"/>
            <path id="Path_192" d="M239.943 134l-.023.051h-.02c0-.041-.031-.065-.052-.095l-3.7-5.214-3.785-5.333-3.657-5.153-.958-1.351-.075-.111a.247.247 0 0 1 .128.053l5.165 3.053 5.947 3.514c.335.2.67.393 1 .59a.147.147 0 0 1 .044.122v9.582a1.517 1.517 0 0 1-.014.292z" class="cls-2" data-name="Path 192" transform="translate(-227.618 -94.054)"/>
            <path id="Path_193" d="M227.61 113.015h.03a.021.021 0 0 1-.007.027h-.046v-.025a.1.1 0 0 1 .023-.002z" class="cls-4" data-name="Path 193" transform="translate(-227.587 -92.66)"/>
            <path id="Path_194" d="M247.1 80.8c-.013-.007-.023-.015-.022-.03h.025z" class="cls-1" data-name="Path 194" transform="translate(-234.774 -80.769)"/>
            <path id="Path_195" d="M227.66 109.785l.007-.027 1.885-.859 2.444-1.11 1.874-.853 2.723-1.237 1.864-.847 1.328-.6a.48.48 0 0 0 .128-.071.02.02 0 0 1 0 .032v12.635c0 .054-.024.115.027.162-.042.05-.074 0-.1-.013-.177-.1-.352-.207-.528-.311l-11.538-6.821a1.18 1.18 0 0 0-.114-.08z" class="cls-5" data-name="Path 195" transform="translate(-227.614 -89.401)"/>
            <path id="Path_196" d="M259.277 116.791a.03.03 0 0 0 .022 0c0 .049-.04.08-.065.115l-10.987 15.476-1.151 1.62a.051.051 0 0 1-.026-.051V124.189v-.184q1.24-.735 2.481-1.468l9.655-5.7z" class="cls-5" data-name="Path 196" transform="translate(-234.771 -94.052)"/>
            <path id="Path_197" d="M247.072 95.609v-.032-.123-14.448c0-.051-.021-.107.022-.152q6.052 10.042 12.1 20.084a.68.68 0 0 1 .113.216c-.27-.106-.529-.237-.793-.355-.324-.144-.648-.291-.971-.437l-.613-.28-1.015-.46-.59-.27c-.435-.2-.87-.394-1.3-.592-.223-.1-.444-.206-.668-.307l-.949-.427-.59-.27-1.3-.591c-.223-.1-.444-.206-.668-.307a273 273 0 0 0-.949-.427c-.212-.1-.423-.194-.634-.292l-1.148-.523a.134.134 0 0 0-.047-.007z" class="cls-5" data-name="Path 197" transform="translate(-234.769 -80.8)"/>
        </g>
    </g>
</svg>
