<svg viewBox="0 0 128 128" fill="none" 
    xmlns="http://www.w3.org/2000/svg">
    <path d="M126.096 79.5086C123.027 91.7937 116.383 102.892 107.005 111.4C97.6264 119.909 85.9348 125.443 73.4096 127.305C60.8844 129.166 48.0885 127.27 36.6411 121.857C25.1938 116.444 15.6095 107.757 9.10101 96.8949C2.59257 86.033 -0.547486 73.4846 0.0781982 60.8377C0.703882 48.1907 5.06718 36.0135 12.616 25.8471C20.1647 15.6806 30.5597 7.98185 42.4855 3.72497C54.4112 -0.531902 67.3318 -1.15556 79.6121 1.93292C96.0539 6.07229 110.182 16.5649 118.897 31.1084C127.611 45.652 130.2 63.0585 126.096 79.5086Z" class="fill-svg wbtc-svg-bg" fill="#884294"/>
    <path fill-rule="evenodd" clip-rule="evenodd" d="M75.9999 61.9192C78.8193 60.3931 80.5834 57.7056 80.1713 53.2283C79.6165 47.1096 74.6437 45.0579 68.3665 44.4735L68.3654 35.9865H63.5017L63.5003 44.2504C62.2207 44.2504 60.9161 44.2771 59.6175 44.3048L59.6165 35.9876L54.7572 35.9871L54.7563 44.4721C53.7032 44.4949 52.669 44.5167 51.6591 44.5167V44.4916L44.9506 44.4887L44.9515 50.0054C44.9515 50.0054 48.5433 49.9336 48.4841 50.0033C50.4533 50.0047 51.0963 51.2197 51.2813 52.2684L51.2827 75.5183C51.196 76.1764 50.8312 77.228 49.4543 77.2299C49.5169 77.2885 45.9163 77.2293 45.9163 77.2293L44.9515 83.3981H51.2797C52.0522 83.3991 52.8158 83.4078 53.5702 83.4164C53.9664 83.4209 54.3631 83.4254 54.7542 83.4287L54.7584 92.0119L59.6165 92.0134L59.6152 83.5202C60.9516 83.5492 62.2418 83.5617 63.502 83.5599L63.5005 92.0134H68.3641L68.3668 83.4445C76.5422 82.9457 82.2655 80.7577 82.9771 72.6008C83.5506 66.0339 80.6414 63.1026 75.9999 61.9192ZM59.7337 50.3778C60.0113 50.3778 60.3491 50.3683 60.7321 50.3575C64.1344 50.2618 71.1037 50.0657 71.1049 55.5375C71.1037 60.8877 63.8566 60.7605 60.534 60.7021C60.232 60.6968 59.9625 60.6921 59.7337 60.6921V50.3778ZM59.7316 77.2718L59.7337 65.8992C60.0635 65.8991 60.4638 65.889 60.9171 65.8774C64.9946 65.7739 73.3667 65.5612 73.3679 71.5829C73.3691 77.471 64.6636 77.3411 60.6808 77.2817C60.323 77.2764 60.0034 77.2716 59.7316 77.2718Z" class="wbtc-svg-fill" fill="white"/>
    <path d="M63.9999 28.4444C53.933 28.4444 44.8432 32.6281 38.3744 39.3517L35.4445 36.5361C42.6526 29.0433 52.7818 24.3809 63.9999 24.3809C75.2243 24.3809 85.3585 29.0485 92.5674 36.5487L89.6515 39.3788C83.1811 32.6394 74.0804 28.4444 63.9999 28.4444Z" class="wbtc-svg-fill" fill="white"/>
    <path d="M32.7771 39.6084L35.7241 42.4405C31.157 48.4212 28.4444 55.8938 28.4444 63.9999C28.4444 73.6615 32.298 82.423 38.552 88.8313L35.6314 91.6567C28.6699 84.5171 24.3809 74.7594 24.3809 63.9999C24.3809 54.8003 27.5164 46.333 32.7771 39.6084Z" class="wbtc-svg-fill" fill="white"/>
    <path d="M41.5566 91.5784L38.6175 94.4216C45.492 100.164 54.3424 103.619 63.9999 103.619C73.6863 103.619 82.5609 100.143 89.444 94.37L86.5057 91.5275C80.3758 96.545 72.5395 99.5555 63.9999 99.5555C55.4894 99.5555 47.6772 96.5654 41.5566 91.5784Z" class="wbtc-svg-fill" fill="white"/>
    <path d="M92.4243 91.5993L89.5037 88.774C95.7248 82.3708 99.5555 73.6327 99.5555 63.9999C99.5555 55.9078 96.8522 48.4471 92.2994 42.4716L95.2342 39.6231C100.488 46.3453 103.619 54.807 103.619 63.9999C103.619 74.7306 99.3529 84.4649 92.4243 91.5993Z" class="wbtc-svg-fill" fill="white"/>
    <path fill-rule="evenodd" clip-rule="evenodd" d="M114.424 63.9999C114.424 91.8485 91.8485 114.424 63.9999 114.424C36.1514 114.424 13.5757 91.8485 13.5757 63.9999C13.5757 36.1514 36.1514 13.5757 63.9999 13.5757C91.8485 13.5757 114.424 36.1514 114.424 63.9999ZM63.9999 110.822C89.8593 110.822 110.822 89.8593 110.822 63.9999C110.822 38.1406 89.8593 17.1774 63.9999 17.1774C38.1406 17.1774 17.1774 38.1406 17.1774 63.9999C17.1774 89.8593 38.1406 110.822 63.9999 110.822Z" class="wbtc-svg-fill" fill="white"/>
</svg>
