<svg width="16" height="16" viewBox="0 0 16 16" fill="none" xmlns="http://www.w3.org/2000/svg">
  <path d="M8 -3.49691e-07C12.4183 -1.56562e-07 16 3.58172 16 8V8C16 12.4183 12.4183 16 8 16V16C3.58172 16 -5.4282e-07 12.4183 -3.49691e-07 8V8C-1.56562e-07 3.58172 3.58172 -5.4282e-07 8 -3.49691e-07V-3.49691e-07Z" fill="#8695AC"/>
  <path d="M4.56524 7.51563C4.20392 7.51563 3.91101 7.22272 3.91101 6.8614V6.8614C3.91101 6.50008 4.20392 6.20717 4.56524 6.20717L11.1075 6.20717C11.4689 6.20717 11.7618 6.50008 11.7618 6.8614V6.8614C11.7618 7.22272 11.4689 7.51563 11.1075 7.51563L4.56524 7.51563Z" fill="white"/>
  <path d="M11.4346 8.64551C11.796 8.64551 12.0889 8.93842 12.0889 9.29974V9.29974C12.0889 9.66106 11.796 9.95397 11.4346 9.95397L4.89235 9.95397C4.53103 9.95397 4.23812 9.66106 4.23812 9.29974V9.29974C4.23812 8.93842 4.53103 8.64551 4.89235 8.64551L11.4346 8.64551Z" fill="white"/>
  <path d="M8.42246 4.81241C8.19747 4.58742 8.19747 4.22264 8.42246 3.99765V3.99765C8.64745 3.77266 9.01223 3.77266 9.23722 3.99765L11.6815 6.44194C11.9065 6.66693 11.9065 7.03171 11.6815 7.2567V7.2567C11.4565 7.48169 11.0917 7.48169 10.8667 7.2567L8.42246 4.81241Z" fill="white"/>
  <path d="M7.57742 11.3487C7.80241 11.5737 7.80241 11.9385 7.57742 12.1635V12.1635C7.35243 12.3885 6.98765 12.3885 6.76266 12.1635L4.31837 9.7192C4.09338 9.49421 4.09338 9.12942 4.31837 8.90443V8.90443C4.54336 8.67944 4.90814 8.67944 5.13313 8.90443L7.57742 11.3487Z" fill="white"/>
</svg>