
<svg width="178px" height="26px" viewBox="0 0 178 26" version="1.1" xmlns="http://www.w3.org/2000/svg" xmlns:xlink="http://www.w3.org/1999/xlink">
    <!-- Generator: Sketch 51.2 (57519) - http://www.bohemiancoding.com/sketch -->
    <desc>Created with Sketch.</desc>
    <defs></defs>
    <g id="Identity" stroke="none" stroke-width="1" fill="none" fill-rule="evenodd">
        <g id="Artboard" transform="translate(-68.000000, -61.000000)">
            <g id="Logo-Blue" transform="translate(68.000000, 61.000000)">
                <g id="Group-8" transform="translate(31.000000, 3.000000)" fill="#3964DF">
                    <path d="M1.13502646,16.1263158 C0.922455026,15.9131579 0.804359788,15.7947368 1.01693122,15.4157895 L1.86721693,13.9473684 C2.05616931,13.6157895 2.45769312,13.6157895 2.67026455,13.7815789 C2.78835979,13.8526316 4.70150265,15.25 6.23674074,15.25 C7.46493122,15.25 8.38607407,14.4447368 8.38607407,13.4263158 C8.38607407,12.2184211 7.37045503,11.3894737 5.38645503,10.5842105 C3.16626455,9.68421053 0.946074074,8.26315789 0.946074074,5.46842105 C0.946074074,3.36052632 2.50493122,0.921052632 6.26035979,0.921052632 C8.66950265,0.921052632 10.5117884,2.15263158 10.9841693,2.50789474 C11.2203598,2.65 11.2912169,3.05263158 11.1258836,3.28947368 L10.2283598,4.63947368 C10.0394074,4.92368421 9.68512169,5.11315789 9.40169312,4.92368421 C9.21274074,4.80526316 7.41769312,3.62105263 6.1186455,3.62105263 C4.77235979,3.62105263 4.04016931,4.52105263 4.04016931,5.27894737 C4.04016931,6.39210526 4.91407407,7.15 6.82721693,7.93157895 C9.11826455,8.85526316 11.7635979,10.2289474 11.7635979,13.2842105 C11.7635979,15.7236842 9.66150265,17.9736842 6.33121693,17.9736842 C3.35521693,17.9736842 1.60740741,16.5763158 1.13502646,16.1263158 Z M13.6058836,9.47105263 C13.6058836,4.73421053 17.3613122,0.921052632 22.0851217,0.921052632 C26.8089312,0.921052632 30.5879788,4.73421053 30.5879788,9.47105263 C30.5879788,12.6921053 28.7220741,15.5342105 25.9822646,17.05 L28.9346455,21.7157895 C29.1472169,22.0473684 28.9346455,22.4263158 28.5567407,22.4263158 L26.0531217,22.4263158 C25.9586455,22.4263158 25.7460741,22.3315789 25.6752169,22.1894737 L23.1479788,17.9026316 C22.7700741,17.95 22.3685503,17.9736842 22.0851217,17.9736842 C17.3613122,17.9736842 13.6058836,14.2078947 13.6058836,9.47105263 Z M16.6763598,9.47105263 C16.6763598,12.4552632 19.1091217,14.8947368 22.0851217,14.8947368 C25.0611217,14.8947368 27.5175026,12.4552632 27.5175026,9.47105263 C27.5175026,6.48684211 25.0611217,4 22.0851217,4 C19.1091217,4 16.6763598,6.48684211 16.6763598,9.47105263 Z M33.4695026,11.4605263 L33.4695026,1.60789474 C33.4695026,1.37105263 33.6820741,1.15789474 33.9182646,1.15789474 L36.1620741,1.15789474 C36.4218836,1.15789474 36.610836,1.37105263 36.610836,1.60789474 L36.610836,11.2947368 C36.610836,13.3078947 37.9807407,14.8947368 40.0355979,14.8947368 C42.090455,14.8947368 43.4839788,13.3078947 43.4839788,11.3184211 L43.4839788,1.60789474 C43.4839788,1.37105263 43.6729312,1.15789474 43.9327407,1.15789474 L46.1765503,1.15789474 C46.4127407,1.15789474 46.6253122,1.37105263 46.6253122,1.60789474 L46.6253122,11.4605263 C46.6253122,15.0605263 43.7674074,17.9736842 40.0355979,17.9736842 C36.3274074,17.9736842 33.4695026,15.0605263 33.4695026,11.4605263 Z M48.9399788,17.7368421 C48.5856931,17.7368421 48.3967407,17.4289474 48.538455,17.1210526 L55.8839788,1.18157895 C55.954836,1.03947368 56.0729312,0.921052632 56.2855026,0.921052632 L56.5216931,0.921052632 C56.7578836,0.921052632 56.8523598,1.03947368 56.9232169,1.18157895 L64.1978836,17.1210526 C64.3395979,17.4289474 64.1506455,17.7368421 63.7963598,17.7368421 L61.7415026,17.7368421 C61.3872169,17.7368421 61.2218836,17.5947368 61.0565503,17.2631579 L59.8992169,14.7052632 L52.8371217,14.7052632 L51.6797884,17.2631579 C51.5853122,17.5 51.3727407,17.7368421 50.994836,17.7368421 L48.9399788,17.7368421 Z M53.994455,12.0763158 L58.7418836,12.0763158 L56.3799788,6.86578947 L56.3091217,6.86578947 L53.994455,12.0763158 Z M66.3472169,17.2868421 L66.3472169,1.60789474 C66.3472169,1.37105263 66.5361693,1.15789474 66.7959788,1.15789474 L73.5510265,1.15789474 C76.3853122,1.15789474 78.6999788,3.43157895 78.6999788,6.25 C78.6999788,8.42894737 77.2592169,10.2052632 75.2043598,11.0342105 L78.4401693,17.05 C78.6055026,17.3578947 78.4401693,17.7368421 78.0386455,17.7368421 L75.5586455,17.7368421 C75.3460741,17.7368421 75.2279788,17.6184211 75.1807407,17.5236842 L72.0394074,11.2473684 L69.4176931,11.2473684 L69.4176931,17.2868421 C69.4176931,17.5236842 69.2051217,17.7368421 68.9689312,17.7368421 L66.7959788,17.7368421 C66.5361693,17.7368421 66.3472169,17.5236842 66.3472169,17.2868421 Z M69.4413122,8.71315789 L73.2912169,8.71315789 C74.5430265,8.71315789 75.6295026,7.62368421 75.6295026,6.29736842 C75.6295026,5.04210526 74.5430265,4 73.2912169,4 L69.4413122,4 L69.4413122,8.71315789 Z M82.0775026,17.2868421 L82.0775026,1.60789474 C82.0775026,1.37105263 82.266455,1.15789474 82.5262646,1.15789474 L92.1392169,1.15789474 C92.3990265,1.15789474 92.5879788,1.37105263 92.5879788,1.60789474 L92.5879788,3.55 C92.5879788,3.78684211 92.3990265,4 92.1392169,4 L85.1479788,4 L85.1479788,7.88421053 L90.9818836,7.88421053 C91.2180741,7.88421053 91.4306455,8.09736842 91.4306455,8.33421053 L91.4306455,10.3 C91.4306455,10.5605263 91.2180741,10.75 90.9818836,10.75 L85.1479788,10.75 L85.1479788,14.8947368 L92.1392169,14.8947368 C92.3990265,14.8947368 92.5879788,15.1078947 92.5879788,15.3447368 L92.5879788,17.2868421 C92.5879788,17.5236842 92.3990265,17.7368421 92.1392169,17.7368421 L82.5262646,17.7368421 C82.266455,17.7368421 82.0775026,17.5236842 82.0775026,17.2868421 Z" id="SQUARELINK"></path>
                </g>
                <g id="Group-9" transform="translate(127.090566, 3.500000)" fill="#819CEA">
                    <path d="M0.34,16.8773333 L0.34,0.989333333 C0.34,0.749333333 0.528307692,0.533333333 0.787230769,0.533333333 L2.95276923,0.533333333 C3.18815385,0.533333333 3.4,0.749333333 3.4,0.989333333 L3.4,14.4533333 L9.40230769,14.4533333 C9.66123077,14.4533333 9.84953846,14.6693333 9.84953846,14.9093333 L9.84953846,16.8773333 C9.84953846,17.1173333 9.66123077,17.3333333 9.40230769,17.3333333 L0.787230769,17.3333333 C0.528307692,17.3333333 0.34,17.1173333 0.34,16.8773333 Z" id="Path"></path>
                    <path d="M12.2269231,16.8773333 L12.2269231,0.989333333 C12.2269231,0.749333333 12.4387692,0.533333333 12.6741538,0.533333333 L14.8632308,0.533333333 C15.0986154,0.533333333 15.3104615,0.749333333 15.3104615,0.989333333 L15.3104615,16.8773333 C15.3104615,17.1173333 15.0986154,17.3333333 14.8632308,17.3333333 L12.6741538,17.3333333 C12.4387692,17.3333333 12.2269231,17.1173333 12.2269231,16.8773333 Z" id="Path"></path>
                    <path d="M19.5944615,16.8773333 L19.5944615,0.725333333 C19.5944615,0.485333333 19.8063077,0.293333333 20.0416923,0.293333333 L20.6301538,0.293333333 L30.4221538,10.9013333 L30.4456923,10.9013333 L30.4456923,0.989333333 C30.4456923,0.749333333 30.634,0.533333333 30.8929231,0.533333333 L33.0584615,0.533333333 C33.2938462,0.533333333 33.5056923,0.749333333 33.5056923,0.989333333 L33.5056923,17.1413333 C33.5056923,17.3813333 33.2938462,17.5733333 33.0584615,17.5733333 L32.4935385,17.5733333 L22.6544615,6.55733333 L22.6309231,6.55733333 L22.6309231,16.8773333 C22.6309231,17.1173333 22.4426154,17.3333333 22.1836923,17.3333333 L20.0416923,17.3333333 C19.8063077,17.3333333 19.5944615,17.1173333 19.5944615,16.8773333 Z" id="Path"></path>
                    <path d="M37.7896923,16.7573333 L37.7896923,1.10933333 C37.7896923,0.797333333 38.0250769,0.533333333 38.3546154,0.533333333 L40.426,0.533333333 C40.732,0.533333333 40.9909231,0.797333333 40.9909231,1.10933333 L40.9909231,7.58933333 L46.9226154,0.773333333 C47.0167692,0.653333333 47.158,0.533333333 47.3698462,0.533333333 L49.7236923,0.533333333 C50.1709231,0.533333333 50.4063077,1.03733333 50.1003077,1.39733333 L43.9567692,8.45333333 L50.5475385,16.4933333 C50.7829231,16.8053333 50.5946154,17.3333333 50.1238462,17.3333333 L47.5581538,17.3333333 C47.3227692,17.3333333 47.1815385,17.2373333 47.1344615,17.1653333 L40.9909231,9.43733333 L40.9909231,16.7573333 C40.9909231,17.0693333 40.732,17.3333333 40.426,17.3333333 L38.3546154,17.3333333 C38.0250769,17.3333333 37.7896923,17.0693333 37.7896923,16.7573333 Z" id="Path"></path>
                </g>
                <path d="M0,0.975977199 L18,0.975977199 C20.7614237,0.975977199 23,3.21455345 23,5.9759772 L23,19.0240228 C23,21.7854466 20.7614237,24.0240228 18,24.0240228 L5,24.0240228 C2.23857625,24.0240228 1.2263553e-15,21.7854466 8.8817842e-16,19.0240228 L0,0.975977199 Z M3.24485012,3.87812743 L3.24485012,19.1069391 C3.24485012,20.2115086 4.14028062,21.1069391 5.24485012,21.1069391 L17.7755807,21.1069391 C18.8801502,21.1069391 19.7755807,20.2115086 19.7755807,19.1069391 L19.7755807,5.87812743 C19.7755807,4.77355793 18.8801502,3.87812743 17.7755807,3.87812743 L3.24485012,3.87812743 Z M6.74049016,3.87812743 L9.96398804,3.87812743 L9.96398804,11.2702748 L9.96398804,15.5104895 C9.96398804,16.615059 9.06855754,17.5104895 7.96398804,17.5104895 L3.24485012,17.5104895 L3.24485012,14.6993529 L6.74049016,14.6993529 L6.74049016,3.87812743 Z M6.74049016,3.87812743 L9.96398804,3.87812743 L6.74049016,3.87812743 Z M3.24485012,17.5104895 L3.24485012,14.6993529 L3.24485012,17.5104895 Z M16.2799407,21.1069391 L13.0564428,21.1069391 L13.0564428,13.7147917 L13.0564428,9.47457701 C13.0564428,8.37000751 13.9518733,7.47457701 15.0564428,7.47457701 L19.7755807,7.47457701 L19.7755807,10.2857136 L16.2799407,10.2857136 L16.2799407,21.1069391 Z M19.7755807,7.47457701 L19.7755807,10.2857136 L19.7755807,7.47457701 Z M16.2799407,21.1069391 L13.0564428,21.1069391 L16.2799407,21.1069391 Z" id="Icon-Blue" fill="#3964DF"></path>
            </g>
        </g>
    </g>
</svg>