<svg width="35" height="35" viewBox="0 0 35 35" fill="none" xmlns="http://www.w3.org/2000/svg">
<path d="M7.29297 18.7748L8.06026 18.4491L17.5039 14.4614L27.7073 18.7748L23.8763 26.4646L14.4957 27.7525L7.45405 20.361L7.29297 18.7748Z" fill="#133444"/>
<path d="M25.5854 14.0266C23.9009 12.0539 21.5134 10.7703 18.8985 10.4312L18.732 10.4101C17.9162 10.3138 17.0914 10.3138 16.2755 10.4101L16.1069 10.4302C13.4916 10.7682 11.1038 12.0521 9.41999 14.0255L8.99553 14.7097L8.29027 15.8517L7.77439 16.6861C7.76843 16.7099 7.75889 16.7327 7.74609 16.7537V16.7675L8.88343 17.4263L16.1177 21.5821L17.5141 22.3826V12.4499L16.1177 13.0611V11.5796L17.5141 10.9684L18.9094 11.5796L26.0076 14.7192L25.5854 14.0266Z" fill="#C42370"/>
<path d="M28.0208 21.2416C28.0108 22.8507 27.636 24.438 26.9231 25.8904C26.2102 27.3429 25.1766 28.6248 23.8959 29.6452C22.9097 30.4328 21.7841 31.0395 20.5743 31.4354C19.5865 31.7504 18.5534 31.9103 17.5138 31.9092C11.6965 31.9092 6.97852 26.8842 6.97852 21.2416C6.98175 20.4072 7.08734 19.5762 7.29305 18.7661L17.4964 24.6318L27.7008 18.7661C27.9152 19.5747 28.0227 20.4066 28.0208 21.2416Z" fill="#1C4D6B"/>
<path d="M16.2712 10.4198L17.4989 10.9559L16.1025 11.5714V10.3447L16.2712 10.4198Z" fill="black"/>
<path d="M16.1074 13.0604L17.5038 12.4429V22.3776L16.1074 21.5771V13.0604Z" fill="black"/>
<path d="M17.5039 12.4468V22.3815L27.2817 16.7665L17.5039 12.4468Z" fill="#1D4259"/>
<path d="M17.5039 1V12.4469L27.2817 16.7666L17.5039 1Z" fill="#4B6B9A"/>
<path d="M17.5029 12.4472V22.3788L16.1066 21.5783L7.73926 16.7669H7.74579C7.74579 16.7468 7.76756 16.7193 7.77409 16.6992L8.99631 14.7249L16.1076 11.5928V13.0732L17.5029 12.4472Z" fill="#343535"/>
<path d="M17.5024 12.4468V22.3815L16.106 21.581L7.7257 16.7739L7.72461 16.7612L7.73876 16.7474L16.106 13.0601L17.5024 12.4468Z" fill="#3E5578"/>
<path d="M17.5024 1V12.4469L7.72461 16.7666L17.5024 1Z" fill="#6DB2D8"/>
<path d="M13.5459 31.0952C13.6939 31.1565 13.8398 31.2179 13.9812 31.2708C13.8398 31.2179 13.6983 31.1565 13.5459 31.0952Z" fill="#335F8A"/>
<path d="M13.9854 31.2705C14.1312 31.3255 14.2857 31.3763 14.4381 31.4228C14.2841 31.3812 14.1329 31.3303 13.9854 31.2705Z" fill="#335F8A"/>
<path d="M14.8242 31.5488C14.9418 31.5837 15.0539 31.6102 15.1714 31.6377C15.0604 31.6123 14.9439 31.5763 14.8242 31.5488Z" fill="#335F8A"/>
<path d="M7.29305 18.7749L17.4964 24.6406C17.3578 25.5312 17.112 26.4029 16.7639 27.2377C15.9433 29.1633 14.301 31.1915 11.1045 29.6445C9.82348 28.6248 8.7896 27.3433 8.07646 25.8911C7.36331 24.439 6.98843 22.8519 6.97852 21.243C6.98444 20.4112 7.08999 19.583 7.29305 18.7749Z" fill="#6DB2D8"/>
<path d="M23.8897 29.6442L23.8614 29.6653C23.8058 29.7055 23.7525 29.7468 23.7046 29.788L23.6905 29.8007C23.635 29.8483 23.5729 29.8895 23.5163 29.9307C23.4544 29.9794 23.3893 30.0243 23.3215 30.065C23.2538 30.1066 23.1888 30.1522 23.1267 30.2014C23.0636 30.249 23.007 30.2765 22.9526 30.3178L22.9167 30.3379C22.8557 30.3791 22.7926 30.4129 22.736 30.4521C22.7316 30.4523 22.7273 30.4537 22.7237 30.4561C22.72 30.4585 22.7171 30.4619 22.7153 30.4658C22.6522 30.5071 22.5891 30.5409 22.527 30.5821C22.465 30.6234 22.3866 30.6572 22.3181 30.6963C22.2495 30.7355 22.1777 30.7714 22.1091 30.8021H22.1004L21.8914 30.9078L21.6738 31.0136C21.459 31.1103 21.2412 31.2005 21.0207 31.2843C20.8793 31.3372 20.7204 31.39 20.568 31.4376C20.5082 31.4594 20.4471 31.4778 20.3851 31.4926L20.1838 31.5539C20.0641 31.5878 19.9531 31.6153 19.8344 31.6428C19.792 31.6555 19.743 31.6629 19.7006 31.6766L19.6255 31.6903L19.4372 31.7305C19.3741 31.7443 19.3283 31.7517 19.263 31.7644C19.2115 31.7769 19.1591 31.7861 19.1063 31.7919C19.0497 31.7993 18.9866 31.813 18.9322 31.8194C18.9035 31.817 18.8747 31.8217 18.8484 31.8331L18.7145 31.8468H18.6449C18.5967 31.8552 18.5479 31.8598 18.499 31.8606C18.4384 31.869 18.3774 31.8736 18.3162 31.8743H18.1758C18.1257 31.8743 18.092 31.8817 18.0517 31.8817H17.2986C17.233 31.8858 17.1672 31.8858 17.1016 31.8817H16.9557C16.9133 31.8817 16.8719 31.8743 16.8295 31.8743H16.6891C16.6291 31.8667 16.5688 31.8621 16.5084 31.8606C16.4594 31.8628 16.4103 31.8582 16.3626 31.8468H16.2886C16.2452 31.8385 16.2011 31.8339 16.1569 31.8331C16.1285 31.8317 16.1004 31.8271 16.0731 31.8194C16.0144 31.814 15.9563 31.8048 15.8989 31.7919C15.846 31.7868 15.7936 31.7776 15.7422 31.7644C15.6836 31.7562 15.6254 31.7449 15.5681 31.7305C15.5115 31.7168 15.4418 31.7041 15.3798 31.6903L15.3025 31.6766C15.2539 31.6733 15.2056 31.6673 15.1578 31.6586C15.038 31.6311 14.9205 31.5973 14.8084 31.5698L14.5994 31.5085C14.5363 31.4884 14.4732 31.4746 14.4166 31.4535C14.2599 31.4059 14.1162 31.3477 13.9638 31.3012C13.8115 31.2547 13.6634 31.187 13.5285 31.1257C13.4588 31.0918 13.3826 31.0643 13.3108 31.0305L13.0931 30.9248L12.8842 30.819C12.8145 30.7852 12.746 30.7439 12.6752 30.7133C12.6045 30.6826 12.5348 30.6382 12.4663 30.5991C12.3977 30.5599 12.34 30.524 12.278 30.4827L12.2573 30.469C12.1937 30.4351 12.1326 30.3969 12.0744 30.3548L12.0396 30.3347C11.9841 30.3009 11.9221 30.2596 11.8655 30.2184C11.8089 30.1771 11.7338 30.1317 11.6707 30.082C11.6075 30.0323 11.539 29.9953 11.4758 29.9477L11.3017 29.8176L11.2876 29.8049C11.2339 29.7658 11.1816 29.7249 11.1308 29.6822L11.1025 29.6611C14.2914 31.2071 15.9457 29.1736 16.762 27.2607C17.1105 26.4259 17.3571 25.5542 17.4966 24.6636C17.6349 25.557 17.8807 26.4315 18.2291 27.2691C19.053 29.1567 20.7008 31.1923 23.8897 29.6442Z" fill="#529BBA"/>
<path d="M19.8281 31.6377C19.9457 31.6102 20.0654 31.5763 20.1775 31.5488C20.0654 31.5763 19.9457 31.6123 19.8281 31.6377Z" fill="#335F8A"/>
<path d="M20.5664 31.4282C20.7231 31.3806 20.8668 31.3224 21.0213 31.2759C20.8733 31.3288 20.721 31.3816 20.5664 31.4282Z" fill="#335F8A"/>
<path d="M28.0207 21.2419C28.0107 22.851 27.6359 24.4382 26.923 25.8907C26.2101 27.3431 25.1765 28.6251 23.8958 29.6454C20.7069 31.1914 19.0526 29.1569 18.2364 27.245C17.8888 26.41 17.643 25.5384 17.5039 24.6479L27.7073 18.7822C27.9161 19.5863 28.0214 20.4125 28.0207 21.2419Z" fill="#4B6B9A"/>
</svg>
