<svg width="25" height="25" viewBox="0 0 25 25" fill="none" xmlns="http://www.w3.org/2000/svg">
<path d="M9.5121 0H21.0477C23.2224 0 25 1.8472 24.9937 4.01483V15.431H9.5121V0Z" fill="white"/>
<path d="M4.03429 0H5.96949V5.94999H0V4.02111C0 1.76552 1.85956 0 4.03429 0Z" fill="white"/>
<path d="M5.96949 9.5627H0V15.5127H5.96949V9.5627Z" fill="white"/>
<path d="M20.9657 24.9937H19.0305V19.05H25V20.9726C25 23.2282 23.1404 24.9937 20.9657 24.9937Z" fill="white"/>
<path d="M15.4816 19.05H9.5121V25H15.4816V19.05Z" fill="white"/>
<path d="M0 20.9789V19.05H5.96949V25H4.03429C1.77131 25 0 23.1465 0 20.9789Z" fill="white"/>
</svg>
