<svg width="28" height="28" viewBox="0 0 28 28" fill="none" xmlns="http://www.w3.org/2000/svg">
<path fill-rule="evenodd" clip-rule="evenodd" d="M0.623092 6.17911C0 7.821 0 9.88066 0 14C0 18.1194 0 20.179 0.623092 21.8208C1.59515 24.3823 3.61766 26.4049 6.17911 27.3769C7.821 28 9.88066 28 14 28C18.1194 28 20.179 28 21.8208 27.3769C24.3823 26.4049 26.4049 24.3823 27.3769 21.8208C28 20.179 28 18.1194 28 14C28 9.88066 28 7.821 27.3769 6.17911C26.4049 3.61766 24.3823 1.59515 21.8208 0.623092C20.179 0 18.1194 0 14 0C9.88066 0 7.821 0 6.17911 0.623092C3.61766 1.59515 1.59515 3.61766 0.623092 6.17911ZM13.3924 22.8002C13.5949 22.9001 13.7975 23 14 23C14.2025 23 14.4051 23 14.5064 22.9001C15.4177 22.3009 16.1265 21.9015 16.8354 21.502C20.6835 19.4049 21.7974 18.3065 22 8.02076C22 7.72118 21.8987 7.52145 21.6962 7.32173C21.4937 7.122 21.2911 7.02214 20.9873 7.02214H20.7848C19.7721 7.02214 17.038 7.02214 14.6076 5.22464C14.3037 4.92505 13.7975 4.92505 13.3924 5.22464C10.962 7.02214 8.22785 7.02214 7.21519 7.02214H7.01266C6.81013 7.02214 6.50633 7.122 6.3038 7.22187C6.10127 7.42159 6 7.62131 6 7.9209C6.10127 18.2066 7.21519 19.3051 11.0633 21.4022C11.2171 21.4889 11.3757 21.5756 11.538 21.6643C12.1238 21.9844 12.758 22.3311 13.3924 22.8002ZM12.0475 19.7879C9.13334 18.1035 8.2272 17.5796 8.02532 9.01937C9.44303 8.91951 11.9747 8.61992 14 7.22187C16.2279 8.71978 18.3544 8.91951 19.7721 9.01937C19.5696 17.6074 18.7594 18.1067 15.7216 19.8044C15.5331 19.916 15.3304 20.0413 15.114 20.1753C14.7487 20.4014 14.3437 20.6521 13.8988 20.9029C13.4345 20.5977 12.9112 20.2925 12.4644 20.0319C12.3263 19.9513 12.1955 19.8751 12.076 19.8044L12.0475 19.7879Z" fill="white"/>
</svg>
