<svg width="26" height="26" viewBox="0 0 26 26" fill="none" xmlns="http://www.w3.org/2000/svg">
  <circle cx="13" cy="13" r="13" fill="#586473" class="icon-extend-dark" />
  <path fill-rule="evenodd" clip-rule="evenodd" d="M13 8.5C10.5147 8.5 8.5 10.5147 8.5 13C8.5 14.0138 8.83466 14.948 9.39975 15.7001L8.60025 16.3008C7.90952 15.3815 7.5 14.2378 7.5 13C7.5 9.96243 9.96243 7.5 13 7.5C16.0376 7.5 18.5 9.96243 18.5 13C18.5 16.0376 16.0376 18.5 13 18.5V17.5C15.4853 17.5 17.5 15.4853 17.5 13C17.5 10.5147 15.4853 8.5 13 8.5Z" fill="white"  class="icon-extend-light"/>
  <path d="M13.4998 15.5L10.0943 18.5671L14.4998 20L13.4998 15.5Z" fill="white" class="icon-extend-light" />
</svg>
