<svg width="35" height="35" viewBox="0 0 35 35" fill="none" 
    xmlns="http://www.w3.org/2000/svg">
    <path d="M15.8333 15C15.3731 15 15 15.3731 15 15.8333V19.1667C15 19.6269 15.3731 20 15.8333 20H19.1667C19.6269 20 20 19.6269 20 19.1667V15.8333C20 15.3731 19.6269 15 19.1667 15H15.8333Z" fill="#1A2DEB"/>
    <path fill-rule="evenodd" clip-rule="evenodd" d="M17.5 5C10.5964 5 5 10.5964 5 17.5C5 24.4036 10.5964 30 17.5 30C24.4036 30 30 24.4036 30 17.5C30 10.5964 24.4036 5 17.5 5ZM10 17.5C10 13.3579 13.3578 10 17.5 10C21.6422 10 25 13.3579 25 17.5C25 21.6421 21.6422 25 17.5 25C13.3578 25 10 21.6421 10 17.5Z" fill="#1A2DEB"/>
</svg>