<svg width="240" height="40" viewBox="0 0 240 40" fill="none" 
    xmlns="http://www.w3.org/2000/svg">
    <path d="M0 7.99858C0 3.58109 3.57922 0 7.9944 0H31.9776C36.3928 0 39.972 3.58109 39.972 7.99858V31.9943C39.972 36.4118 36.3928 39.9929 31.9776 39.9929H7.9944C3.57921 39.9929 0 36.4118 0 31.9943V7.99858Z" fill="url(#paint0_linear)"/>
    <path d="M16.6666 0H12.2222V8.88889H16.6666V0Z" fill="white"/>
    <path d="M22.4151 27.7777H17.1936C14.23 27.7777 11.8309 25.4375 11.8309 22.5467V18.8298H15.7824V22.5191C15.7824 23.29 16.4033 23.8957 17.1936 23.8957H22.4151C23.2054 23.8957 23.8263 23.29 23.8263 22.5191V17.4532C23.8263 16.6823 23.2054 16.0766 22.4151 16.0766H0V12.2222H22.4151C25.3787 12.2222 27.7778 14.5624 27.7778 17.4532V22.5467C27.7778 25.4375 25.3787 27.7777 22.4151 27.7777Z" fill="white"/>
    <path d="M93.3854 30.0201C93.2487 29.8848 93.194 29.7496 93.194 29.5603C93.194 29.3709 93.2487 29.2086 93.3854 29.0464L98.526 22.2576L93.7682 15.8744C93.6588 15.7122 93.5768 15.5499 93.5768 15.3606C93.5768 15.1712 93.6315 15.036 93.7682 14.9008C93.9049 14.7655 94.0416 14.7114 94.233 14.7114H96.8854C97.1041 14.7114 97.2682 14.7655 97.3775 14.8467C97.4869 14.9278 97.5963 15.063 97.733 15.2253L101.096 19.661L104.432 15.2253C104.46 15.1983 104.514 15.1171 104.651 14.9548C104.788 14.7926 104.979 14.7114 105.28 14.7114H107.85C108.042 14.7114 108.178 14.7655 108.315 14.9008C108.424 15.036 108.506 15.1712 108.506 15.3335C108.506 15.5228 108.452 15.7122 108.315 15.8744L103.503 22.2846L108.67 29.0464C108.78 29.2086 108.862 29.3709 108.862 29.5603C108.862 29.7496 108.807 29.8848 108.67 30.0201C108.534 30.1553 108.397 30.2094 108.206 30.2094H105.444C105.116 30.2094 104.842 30.0471 104.624 29.7225L101.014 25.0163L97.3775 29.7225C97.1588 30.0471 96.8854 30.2094 96.5572 30.2094H93.8776C93.6588 30.2094 93.4947 30.1553 93.3854 30.0201Z" fill="#283049"/>
    <path d="M71.4449 21.3915C71.3897 19.26 70.7263 17.5852 69.6208 16.2735C68.5152 14.9618 66.9398 14.3059 64.8946 14.3059C62.9322 14.3059 61.3845 14.9618 60.2513 16.3008V9.60563C60.2513 9.16839 59.8091 8.89512 59.4221 9.05908L56.1608 10.3981V29.5545C56.1608 29.7458 56.2437 29.9371 56.3819 30.0737C56.5201 30.2104 56.6859 30.2923 56.907 30.2923H59.3392C59.5603 30.2923 59.7538 30.2104 59.892 30.0737C60.0302 29.9371 60.1131 29.7731 60.1131 29.5545V28.4341C61.2186 29.8551 62.8493 30.5656 64.9499 30.5656C66.9951 30.5656 68.5705 29.9098 69.6761 28.6254C70.7816 27.341 71.362 25.5921 71.4449 23.4332C71.5138 22.7526 71.4449 22.0661 71.4449 21.3915ZM67.1886 23.3239C67.0504 25.9746 65.8896 27.2864 63.7338 27.2864C62.5729 27.2864 61.7161 26.9038 61.1357 26.1659C60.5553 25.4281 60.2513 24.5263 60.2237 23.4605C60.196 23.2146 60.196 22.832 60.196 22.3128C60.196 21.7662 60.196 21.3837 60.2237 21.1377C60.2513 20.1266 60.583 19.2795 61.1634 18.569C61.7438 17.8585 62.6006 17.5032 63.7061 17.5032C65.8896 17.5032 67.0228 18.8149 67.161 21.4657C67.1886 21.6569 67.1886 21.9575 67.1886 22.3674C67.2162 22.832 67.2162 23.1326 67.1886 23.3239Z" fill="#283049"/>
    <path d="M90.3322 26.7595H79.5111L82.4328 22.8589C82.8115 22.3679 82.4598 21.6587 81.8376 21.6587H78.0502L74.4251 26.3777C74.3169 26.5413 74.2087 26.705 74.1005 26.8687C74.0193 27.0323 73.9652 27.2505 73.9652 27.496V29.6237C73.9652 29.8419 74.0193 30.0328 74.1546 30.1692C74.2898 30.3056 74.4522 30.3874 74.6686 30.3874H88.5468C88.9255 30.3874 89.2772 30.1965 89.4936 29.8964L90.9004 27.987C91.2791 27.4415 90.9274 26.7595 90.3322 26.7595Z" fill="#283049"/>
    <path d="M74.1637 12.5648H85.0976L82.1454 16.3859C81.7628 16.8668 82.1181 17.5616 82.7468 17.5616H86.5737L90.2365 12.9389C90.3459 12.7786 90.4552 12.6183 90.5645 12.4579C90.6465 12.2976 90.7012 12.0839 90.7012 11.8434V9.75916C90.7012 9.5454 90.6465 9.35835 90.5099 9.22475C90.3732 9.09115 90.2092 9.01099 89.9905 9.01099H75.9678C75.5851 9.01099 75.2297 9.19803 75.0111 9.49196L73.5897 11.3624C73.207 11.8701 73.5623 12.5648 74.1637 12.5648Z" fill="#283049"/>
    <g clip-path="url(#logo-stacker)">
        <path fill-rule="evenodd" clip-rule="evenodd" d="M200.612 12.0615L197.804 13.3795C197.258 13.6401 196.634 13.2416 196.634 12.6592V10.6822C196.634 10.3757 196.822 10.0845 197.102 9.96189L199.91 8.64388C200.456 8.38334 201.08 8.78181 201.08 9.36419V11.3259C201.08 11.6477 200.893 11.9236 200.612 12.0615ZM157.168 27.5249C157.387 27.5249 157.574 27.5862 157.714 27.7242C157.855 27.8468 157.917 28.0307 157.933 28.2452V30.1916C157.933 30.3908 157.87 30.5747 157.73 30.7127C157.605 30.8506 157.418 30.9272 157.184 30.9272H154.61C152.707 30.9272 151.272 30.4368 150.305 29.456C149.337 28.4904 148.854 27.0498 148.854 25.1494V10.2529C148.854 10.2376 148.869 10.2222 148.885 10.2069L151.896 8.99618C152.41 8.78162 152.972 9.14944 152.972 9.70116V14.8353C152.972 14.8506 152.988 14.8812 153.019 14.8812H157.433C157.636 14.8812 157.823 14.9579 157.964 15.0958C158.104 15.2337 158.182 15.4176 158.182 15.6169V17.456C158.182 17.6552 158.104 17.8238 157.979 17.9617C157.823 18.1303 157.605 18.2069 157.371 18.2069H153.003C152.988 18.2069 152.956 18.2222 152.956 18.2529V24.8429C152.956 25.7318 153.112 26.3908 153.424 26.8506C153.736 27.295 154.251 27.5249 154.969 27.5249H157.168ZM179.631 30.7587C179.491 30.6208 179.413 30.4369 179.413 30.2376V10.6208L182.782 9.01158C182.985 9.01158 183.172 9.08821 183.313 9.22614C183.453 9.36407 183.531 9.54798 183.531 9.74722V20.3219L188.757 15.4024C188.788 15.3794 188.827 15.3488 188.876 15.3105C188.924 15.2722 188.983 15.2262 189.053 15.1725C189.194 15.0652 189.318 14.9886 189.443 14.9426C189.568 14.8966 189.724 14.8813 189.911 14.8813H192.906C193.109 14.8813 193.281 14.9426 193.405 15.0652C193.53 15.1878 193.593 15.3564 193.593 15.5556C193.593 15.7396 193.483 15.9235 193.281 16.1074L186.854 22.0691L194.061 29.7319C194.248 29.9158 194.341 30.0997 194.341 30.253C194.341 30.4522 194.279 30.6208 194.154 30.7434C194.029 30.866 193.873 30.9273 193.686 30.9273H190.644C190.348 30.9273 190.13 30.8966 190.005 30.82C189.864 30.7434 189.693 30.6055 189.49 30.4062L183.547 24.184V29.3181L180.177 30.9273C179.959 30.9733 179.787 30.8966 179.631 30.7587ZM127.733 28.2608C128.435 29.165 129.449 29.9006 130.79 30.4523C132.132 31.0041 133.738 31.2799 135.579 31.3106C137.373 31.3106 138.933 31.0654 140.29 30.5443C141.647 30.0385 142.692 29.2876 143.441 28.3067C144.19 27.3259 144.564 26.1611 144.564 24.8278C144.564 23.6018 144.315 22.6056 143.784 21.824C143.269 21.0424 142.458 20.3987 141.351 19.8776C140.243 19.3565 138.761 18.8968 136.889 18.483C135.517 18.1305 134.487 17.8087 133.77 17.5328C133.052 17.2416 132.537 16.9198 132.194 16.5519C131.866 16.1841 131.695 15.709 131.695 15.1573C131.695 14.3297 132.022 13.7014 132.693 13.2723C133.364 12.8431 134.269 12.6286 135.423 12.6286C136.484 12.6286 137.357 12.8431 138.075 13.2876C138.792 13.732 139.198 14.2838 139.307 14.9428C139.479 15.3106 139.791 15.4945 140.259 15.4945H143.285C143.472 15.4945 143.628 15.4332 143.753 15.2952C143.878 15.1726 143.94 15.0194 143.94 14.8508C143.893 13.9619 143.55 13.0577 142.879 12.1688C142.209 11.2799 141.242 10.529 139.978 9.93126C138.699 9.33356 137.201 9.02705 135.454 9.02705C133.801 9.02705 132.35 9.28758 131.102 9.82398C129.854 10.3604 128.887 11.096 128.216 12.0309C127.545 12.9657 127.202 14.0385 127.202 15.2339C127.202 16.9964 127.779 18.3604 128.934 19.3106C130.088 20.2608 131.898 21.0117 134.378 21.5941C135.891 21.9926 137.03 22.3297 137.794 22.6056C138.558 22.8968 139.136 23.2186 139.51 23.5864C139.884 23.9542 140.072 24.4293 140.072 24.9811C140.072 25.824 139.697 26.483 138.948 26.9734C138.2 27.4485 137.092 27.6937 135.626 27.6937C134.315 27.6937 133.302 27.4638 132.553 26.9887C131.804 26.5136 131.32 25.9313 131.118 25.2263C130.993 25.0424 130.852 24.9044 130.712 24.7972C130.572 24.6899 130.385 24.6439 130.151 24.6439H127.28C127.093 24.6439 126.937 24.7052 126.812 24.8431C126.688 24.9811 126.625 25.119 126.625 25.2876C126.672 26.3604 127.046 27.3565 127.733 28.2608ZM161.084 28.9349C161.599 29.6552 162.301 30.2222 163.19 30.6514C164.079 31.0652 165.062 31.2797 166.169 31.295C167.433 31.295 168.478 31.0958 169.32 30.6667C170.163 30.2376 170.802 29.7012 171.27 29.0422V30.2529C171.27 30.4521 171.348 30.636 171.488 30.774C171.629 30.9119 171.816 30.9885 172.019 30.9885H174.624C174.842 30.9885 175.029 30.9119 175.17 30.774C175.31 30.636 175.373 30.4521 175.373 30.2529V20.5364C175.373 18.774 174.811 17.3334 173.672 16.2452C172.534 15.1571 170.74 14.6054 168.259 14.6054C166.746 14.6054 165.483 14.8353 164.453 15.3257C163.424 15.8161 162.675 16.3832 162.176 17.0268C161.692 17.6705 161.427 18.2529 161.411 18.774C161.411 18.9732 161.474 19.1418 161.614 19.2644C161.739 19.387 161.911 19.4483 162.098 19.4483H164.547C164.781 19.4483 164.937 19.3257 165.015 19.0805L165.53 18.5747C165.795 18.3295 166.138 18.069 166.559 17.8238C166.98 17.5786 167.542 17.456 168.228 17.456C169.227 17.456 169.96 17.6705 170.428 18.1303C170.88 18.5747 171.114 19.2491 171.114 20.138V20.7816L166.809 21.3947C164.796 21.7012 163.205 22.2989 162.051 23.1571C160.897 24.0307 160.32 25.1648 160.32 26.5594C160.32 27.4176 160.569 28.2146 161.084 28.9349ZM171.145 23.9847C171.145 25.3947 170.771 26.4675 170.038 27.2031C169.305 27.9387 168.353 28.3065 167.199 28.3065C166.419 28.3065 165.764 28.138 165.202 27.7701C164.656 27.4023 164.375 26.8966 164.375 26.2376C164.375 25.0268 165.576 24.2299 167.994 23.8621L171.145 23.3717V23.9847ZM196.759 30.2377C196.759 30.437 196.837 30.6209 196.978 30.7588C197.118 30.8967 197.305 30.9734 197.508 30.9734L200.94 29.3642V15.6324C200.94 15.4331 200.862 15.2492 200.721 15.1113C200.581 14.9734 200.394 14.8967 200.191 14.8967L196.712 16.4599L196.759 30.2377ZM205.323 30.7588C205.183 30.6208 205.105 30.4369 205.105 30.2377V16.5059L208.474 14.8967C208.708 14.8967 208.895 14.958 209.02 15.0959C209.16 15.2339 209.223 15.4178 209.223 15.6323V16.9044C210.502 15.3565 212.249 14.5902 214.48 14.5902C216.414 14.5902 217.943 15.2032 219.082 16.4446C220.22 17.686 220.782 19.3871 220.782 21.5481V29.3641L217.194 30.9733C216.991 30.9733 216.804 30.8967 216.664 30.7588C216.523 30.6208 216.445 30.4369 216.445 30.2377V21.732C216.445 20.5366 216.149 19.6017 215.541 18.9274C214.948 18.253 214.09 17.9159 212.982 17.9159C211.906 17.9159 211.048 18.253 210.408 18.9427C209.753 19.617 209.426 20.5519 209.426 21.732V29.3641L205.869 30.9733C205.635 30.9733 205.463 30.8967 205.323 30.7588ZM239.75 15.1113C239.891 15.2492 239.969 15.4331 239.969 15.663L239.984 30.5595C239.984 32.8431 239.329 34.6208 238.035 35.8776C236.74 37.1343 234.774 37.7626 232.154 37.7626C231.732 37.7626 231.311 37.7473 230.921 37.7166C230.531 37.686 230.235 37.3795 230.235 36.9963V35.6323C230.235 35.0806 230.687 34.6362 231.249 34.6362H231.998C233.261 34.6362 234.182 34.3756 234.774 33.8239C235.367 33.2722 235.663 32.322 235.663 30.958V28.8584C234.525 30.1764 232.918 30.8354 230.843 30.8354C228.659 30.8354 227.022 30.1917 225.914 28.889C224.806 27.5864 224.214 25.8239 224.136 23.571L224.105 22.7435L224.136 21.9159C224.214 19.709 224.822 17.9312 225.93 16.5979C227.053 15.2645 228.675 14.5902 230.843 14.5902C231.966 14.5902 232.934 14.7894 233.776 15.2032C234.618 15.617 235.305 16.1687 235.851 16.8737V16.5366L239.22 14.8967C239.423 14.8967 239.61 14.9733 239.75 15.1113ZM234.681 26.4676C235.274 25.7166 235.601 24.8124 235.663 23.7396C235.679 23.571 235.695 23.2492 235.695 22.7894C235.695 22.2837 235.679 21.9618 235.663 21.7933C235.601 20.7205 235.274 19.8009 234.681 19.0653C234.104 18.3143 233.214 17.9465 232.044 17.9465C229.783 17.9465 228.581 19.2952 228.457 22.0231L228.425 22.7588C228.425 25.9772 229.627 27.5864 232.044 27.5864C233.214 27.5864 234.088 27.2032 234.681 26.4676Z" fill="#283049"/>
    </g>
    <path d="M111.29 33.0804C111.409 33.2027 111.548 33.2638 111.707 33.2638H113.644C113.902 33.2638 114.1 33.1925 114.239 33.0498C114.398 32.9275 114.508 32.7849 114.567 32.6218L124.757 7.64503C124.796 7.54313 124.816 7.43103 124.816 7.30875C124.816 7.12532 124.757 6.97246 124.637 6.85018C124.518 6.72789 124.369 6.66675 124.19 6.66675H122.254C122.016 6.66675 121.817 6.73808 121.658 6.88075C121.499 7.00303 121.38 7.1457 121.3 7.30875L111.171 32.2855C111.131 32.3874 111.111 32.4995 111.111 32.6218C111.111 32.8052 111.171 32.9581 111.29 33.0804Z" fill="#283049"/>
    <defs>
        <linearGradient id="paint0_linear" x1="37.3738" y1="37.3934" x2="5.37951" y2="5.41577" gradientUnits="userSpaceOnUse">
            <stop offset="0.159375" stop-color="#003CDA"/>
            <stop offset="1" stop-color="#33DFCC"/>
        </linearGradient>
        <clipPath id="logo-stacker">
            <rect width="184.444" height="31.1111" fill="white" transform="translate(55.5555 6.66675)"/>
        </clipPath>
    </defs>
</svg>