<svg width="135" height="44" viewBox="0 0 135 44" fill="none" 
    xmlns="http://www.w3.org/2000/svg">
    <path d="M0 8.8C0 3.93989 3.94848 0 8.81917 0H35.2767C40.1474 0 44.0959 3.93989 44.0959 8.8V35.2C44.0959 40.0601 40.1474 44 35.2767 44H8.81917C3.94848 44 0 40.0601 0 35.2V8.8Z" fill="url(#paint0_linear)"/>
    <path d="M17.6606 0H13.2389V10.1458H17.6606V0Z" fill="white"/>
    <path d="M25.0827 31.1783H19.2397C15.9235 31.1783 13.2389 28.494 13.2389 25.1781V20.9147H17.6606V25.1465C17.6606 26.0307 18.3554 26.7255 19.2397 26.7255H25.0827C25.967 26.7255 26.6618 26.0307 26.6618 25.1465V19.3357C26.6618 18.4514 25.967 17.7567 25.0827 17.7567H0V13.3354H25.0827C28.3989 13.3354 31.0835 16.0198 31.0835 19.3357V25.1781C31.0835 28.494 28.3989 31.1783 25.0827 31.1783Z" fill="white"/>
    <path d="M113.502 35.3603C113.313 35.1735 113.237 34.9868 113.237 34.7253C113.237 34.4638 113.313 34.2397 113.502 34.0156L120.621 24.64L114.032 15.8248C113.881 15.6007 113.767 15.3765 113.767 15.1151C113.767 14.8536 113.843 14.6668 114.032 14.4801C114.221 14.2933 114.411 14.2186 114.676 14.2186H118.349C118.652 14.2186 118.879 14.2933 119.03 14.4054C119.182 14.5174 119.333 14.7042 119.522 14.9283L124.18 21.0542L128.799 14.9283C128.837 14.8909 128.913 14.7789 129.102 14.5548C129.291 14.3307 129.557 14.2186 129.973 14.2186H133.532C133.797 14.2186 133.987 14.2933 134.176 14.4801C134.327 14.6668 134.441 14.8536 134.441 15.0777C134.441 15.3392 134.365 15.6007 134.176 15.8248L127.512 24.6774L134.668 34.0156C134.82 34.2397 134.933 34.4638 134.933 34.7253C134.933 34.9868 134.858 35.1735 134.668 35.3603C134.479 35.5471 134.29 35.6218 134.025 35.6218H130.2C129.746 35.6218 129.367 35.3976 129.064 34.9494L124.066 28.45L119.03 34.9494C118.727 35.3976 118.349 35.6218 117.894 35.6218H114.184C113.881 35.6218 113.653 35.5471 113.502 35.3603Z" fill="#283049"/>
    <path d="M83.1197 23.4441C83.0431 20.5004 82.1246 18.1874 80.5937 16.3759C79.0628 14.5644 76.8812 13.6586 74.049 13.6586C71.3316 13.6586 69.1883 14.5644 67.6191 16.4136V7.16738C67.6191 6.56354 67.0068 6.18614 66.4709 6.41258L61.9547 8.26183V34.7174C61.9547 34.9816 62.0695 35.2458 62.2609 35.4345C62.4523 35.6232 62.6819 35.7364 62.9881 35.7364H66.3561C66.6623 35.7364 66.9302 35.6232 67.1216 35.4345C67.3129 35.2458 67.4278 35.0193 67.4278 34.7174V33.1701C68.9587 35.1326 71.2168 36.1138 74.1255 36.1138C76.9577 36.1138 79.1393 35.208 80.6702 33.4343C82.2011 31.6605 83.0049 29.2452 83.1197 26.2637C83.215 25.3238 83.1197 24.3756 83.1197 23.4441ZM77.2256 26.1128C77.0343 29.7735 75.4268 31.585 72.4415 31.585C70.8341 31.585 69.6476 31.0567 68.8439 30.0377C68.0401 29.0187 67.6191 27.7733 67.5808 26.3014C67.5426 25.9618 67.5426 25.4334 67.5426 24.7164C67.5426 23.9616 67.5426 23.4332 67.5808 23.0936C67.6191 21.6972 68.0784 20.5273 68.8821 19.546C69.6859 18.5648 70.8723 18.0742 72.4032 18.0742C75.4268 18.0742 76.996 19.8857 77.1874 23.5464C77.2256 23.8106 77.2256 24.2258 77.2256 24.7919C77.2639 25.4334 77.2639 25.8486 77.2256 26.1128Z" fill="#283049"/>
    <path d="M109.274 30.8576H94.2893L98.3352 25.4706C98.8597 24.7926 98.3727 23.8131 97.5111 23.8131H92.2664L87.2465 30.3302C87.0966 30.5562 86.9468 30.7822 86.7969 31.0082C86.6845 31.2343 86.6096 31.5356 86.6096 31.8747V34.813C86.6096 35.1144 86.6845 35.3781 86.8719 35.5664C87.0592 35.7548 87.2839 35.8678 87.5836 35.8678H106.802C107.326 35.8678 107.813 35.6041 108.113 35.1897L110.061 32.5527C110.585 31.7993 110.098 30.8576 109.274 30.8576Z" fill="#283049"/>
    <path d="M86.8847 11.2541H102.026L97.9376 16.5311C97.4076 17.1954 97.8997 18.1548 98.7703 18.1548H104.07L109.142 11.7708C109.293 11.5493 109.445 11.3279 109.596 11.1065C109.71 10.8851 109.785 10.5899 109.785 10.2578V7.37942C109.785 7.0842 109.71 6.82589 109.52 6.64138C109.331 6.45687 109.104 6.34616 108.801 6.34616H89.383C88.853 6.34616 88.361 6.60448 88.0581 7.0104L86.0898 9.59354C85.5599 10.2947 86.052 11.2541 86.8847 11.2541Z" fill="#283049"/>
    <defs>
        <linearGradient id="paint0_linear" x1="41.2296" y1="41.14" x2="6.02972" y2="5.86339" gradientUnits="userSpaceOnUse">
            <stop offset="0.159375" stop-color="#003CDA"/>
            <stop offset="1" stop-color="#33DFCC"/>
        </linearGradient>
    </defs>
</svg>
