<svg width="83" height="24" viewBox="0 0 83 24" fill="none" xmlns="http://www.w3.org/2000/svg">
<path fill-rule="evenodd" clip-rule="evenodd" d="M11.1637 8.72519V8.76651C11.1637 10.8738 9.36772 11.948 6.67387 11.9274H0.965454V0.337455H6.54561C8.98286 0.337455 10.5009 1.51503 10.5009 3.33307V3.37438C10.5009 4.67594 9.77395 5.41965 8.91878 5.87414C10.3084 6.39069 11.1637 7.17571 11.1637 8.72519ZM5.96831 5.02714C7.14426 5.02714 7.87108 4.67594 7.87108 3.80819V3.76688C7.87108 3.00251 7.25116 2.56866 6.13938 2.56866H3.53106V5.02714H5.96831ZM6.67385 9.7168C7.82835 9.7168 8.5339 9.32429 8.5339 8.45663V8.41532C8.5339 7.63021 7.93525 7.15506 6.58831 7.15506H3.53106V9.7168H6.67385ZM16.701 0.358113V11.948H14.0499V0.358113H16.701ZM30.8972 0.358113V11.948H28.6524L22.837 4.57265V11.948H20.2287V0.358113H22.6661L28.2889 7.50625V0.358113H30.8972ZM40.3685 0.27547L45.5211 11.948H42.7203L41.63 9.34495H36.563L35.4725 11.948H32.7787L37.9312 0.27547H40.3685ZM37.525 7.09308H40.7106L39.1286 3.33307L37.525 7.09308ZM58.0925 0.358113V11.948H55.8476L50.0322 4.57265V11.948H47.4239V0.358113H49.8612L55.4842 7.50625V0.358113H58.0925ZM70.0441 8.43597L71.7328 10.068C70.4924 11.3489 69.1246 12.1339 66.8154 12.1339C66.0021 12.1457 65.1946 11.9992 64.441 11.7031C63.6874 11.407 63.0031 10.9674 62.4287 10.4104C61.8543 9.85339 61.4015 9.19039 61.0973 8.46079C60.7932 7.7312 60.6438 6.9499 60.6581 6.16335V6.12204C60.6581 2.83723 63.245 0.130859 66.9223 0.130859C69.1888 0.130859 70.5355 0.874593 71.6476 1.92822L69.958 3.80821C69.0174 3.00252 68.0767 2.5067 66.8796 2.5067C64.8485 2.5067 63.3947 4.13883 63.3947 6.12205V6.16337C63.3947 8.14668 64.8271 9.79945 66.8796 9.79945C68.2693 9.79943 69.1035 9.26231 70.0442 8.43597H70.0441ZM83 9.67548V11.9274H73.8708V0.337455H82.9148V2.60998H76.479V4.96516H82.1447V7.23769H76.479V9.67548H83Z" fill="#F0B90B"/>
<path d="M4.168 23.7179C3.52214 23.7359 2.88038 23.613 2.29035 23.3584C1.78568 23.1261 1.33496 22.7972 0.965454 22.3917L1.94506 21.5712C2.22977 21.8898 2.57784 22.1497 2.96856 22.3356C3.36793 22.5135 3.8037 22.6018 4.24332 22.594C4.69363 22.6255 5.14146 22.5064 5.51185 22.2567C5.6514 22.1476 5.76268 22.0085 5.8368 21.8505C5.91093 21.6924 5.94586 21.5198 5.93881 21.3464C5.94561 21.2109 5.92221 21.0755 5.87021 20.9494C5.81822 20.8233 5.73883 20.7095 5.63741 20.6157C5.32536 20.391 4.95672 20.2513 4.56989 20.2111L3.79118 20.0875C2.93714 19.9453 2.29662 19.6943 1.86962 19.3345C1.65522 19.149 1.48642 18.9195 1.37561 18.6628C1.2648 18.4061 1.21477 18.1286 1.22919 17.8508C1.22454 17.5255 1.29984 17.2038 1.4489 16.9122C1.59391 16.6328 1.80473 16.3902 2.06439 16.204C2.35414 16.0009 2.67965 15.8504 3.02505 15.76C3.43821 15.6505 3.86521 15.5975 4.29357 15.6027C4.88302 15.5894 5.4689 15.6946 6.01412 15.9117C6.49375 16.1137 6.9191 16.4194 7.25745 16.8053L6.26538 17.5921C6.03758 17.3286 5.75518 17.1142 5.43641 16.9628C5.05468 16.7941 4.63772 16.7132 4.21826 16.7266C3.80996 16.7035 3.40368 16.7974 3.05023 16.9964C2.91626 17.0813 2.80754 17.1985 2.73484 17.3366C2.66214 17.4746 2.62799 17.6286 2.63575 17.7833C2.62531 17.9235 2.6508 18.0641 2.70996 18.1925C2.76912 18.3209 2.86013 18.4333 2.97492 18.5196C3.29456 18.7147 3.65474 18.8394 4.02984 18.8847L4.80844 19.0308C5.68766 19.1809 6.3303 19.4357 6.73635 19.7952C6.9424 19.9855 7.10349 20.2166 7.20861 20.4727C7.31372 20.7287 7.36037 21.0038 7.34536 21.2789C7.35032 21.6234 7.27746 21.9648 7.13189 22.2792C6.98944 22.5791 6.7766 22.8428 6.51028 23.0491C6.21374 23.275 5.87464 23.443 5.51184 23.5437C5.07524 23.6656 4.62239 23.7243 4.168 23.7179Z" fill="#F0B90B"/>
<path d="M15.7599 17.5798H15.6971L15.0063 18.8499L13.0847 21.986L11.1632 18.8499L10.4724 17.5798H10.4098V23.582H9.05334V15.7363H10.7362L13.0847 19.7266H13.1601L15.5086 15.7363H17.1161V23.582H15.7599V17.5798Z" fill="#F0B90B"/>
<path d="M24.7519 23.582L23.9609 21.4576H20.6829L19.9168 23.582H18.4725L21.4615 15.7363H23.2449L26.2341 23.582L24.7519 23.582ZM22.3533 16.9055H22.2905L21.0221 20.3673H23.6092L22.3533 16.9055Z" fill="#F0B90B"/>
<path d="M29.0092 23.5819H27.5902V15.7363H31.3705C31.7083 15.718 32.0465 15.7648 32.3656 15.8738C32.6846 15.9828 32.9782 16.152 33.2292 16.3714C33.4598 16.5978 33.6392 16.8681 33.7559 17.1651C33.8727 17.4622 33.9242 17.7795 33.9073 18.0969C33.9269 18.5968 33.7746 19.0889 33.4741 19.4961C33.1522 19.8879 32.7031 20.1631 32.1994 20.2774L34.0958 23.5819H32.5134L30.755 20.4122H29.0092V23.5819ZM31.27 19.3444C31.5728 19.3623 31.8719 19.2729 32.1114 19.0927C32.2142 19.0018 32.2947 18.8898 32.3468 18.7649C32.399 18.6399 32.4216 18.5053 32.4129 18.3708V17.8338C32.4216 17.6994 32.399 17.5648 32.3468 17.4399C32.2946 17.315 32.2142 17.203 32.1114 17.1121C31.8719 16.9321 31.5728 16.8426 31.27 16.8604H29.0092V19.3444H31.27Z" fill="#F0B90B"/>
<path d="M38.768 16.8605V23.582H37.3487V16.8605H34.7366V15.7363H41.3803V16.8605L38.768 16.8605Z" fill="#F0B90B"/>
<path d="M49.0162 23.717C47.8689 23.717 46.9689 23.3704 46.316 22.6773C45.6629 21.9844 45.3364 20.9784 45.3364 19.6595C45.326 19.0696 45.4107 18.4817 45.5876 17.9171C45.7355 17.449 45.9837 17.0162 46.316 16.647C46.6345 16.3021 47.0325 16.0346 47.4777 15.866C47.9684 15.6838 48.4906 15.5941 49.0162 15.6017C49.6846 15.5793 50.3466 15.7332 50.9315 16.0469C51.462 16.3606 51.8838 16.8199 52.1433 17.3664L50.9502 17.951C50.8131 17.5937 50.5708 17.283 50.2532 17.0574C49.8138 16.7981 49.2984 16.6859 48.7865 16.7382C48.2747 16.7904 47.7948 17.0042 47.4211 17.3465C47.012 17.8273 46.8057 18.4398 46.8435 19.0615V20.2575C46.8056 20.8792 47.0119 21.4917 47.4211 21.9725C47.6241 22.1822 47.8721 22.3464 48.1476 22.4536C48.4232 22.5608 48.7196 22.6084 49.0162 22.5931C49.4754 22.6131 49.9284 22.4845 50.3036 22.2277C50.6328 21.9859 50.887 21.6612 51.0383 21.2891L52.181 21.9074C51.9081 22.454 51.4816 22.9153 50.9502 23.2384C50.3656 23.5722 49.6948 23.7382 49.0162 23.717Z" fill="#F0B90B"/>
<path d="M59.0758 20.165H55.107V23.582H53.688V15.7363H55.107V19.0411H59.0758V15.7363H60.4948V23.582H59.0758V20.165Z" fill="#F0B90B"/>
<path d="M68.1304 23.582L67.3393 21.4576H64.0613L63.2952 23.582H61.851L64.8399 15.7363H66.6233L69.6125 23.582L68.1304 23.582ZM65.7317 16.9055H65.6689L64.4005 20.3673H66.9876L65.7317 16.9055Z" fill="#F0B90B"/>
<path d="M71.7849 23.582V15.7363H73.2042V23.582L71.7849 23.582Z" fill="#F0B90B"/>
<path d="M78.5542 19.2434L77.5873 17.5798H77.5497V23.582H76.1932V15.7363H77.7756L80.6391 20.075L81.6063 21.7387H81.6439V15.7363H83.0001V23.582H81.4177L78.5542 19.2434Z" fill="#F0B90B"/>
</svg>
