<svg width="32" height="30" viewBox="0 0 32 30" fill="none" xmlns="http://www.w3.org/2000/svg">
<path d="M9.50469 12.5763L13.0039 9.19217L13.761 8.45996L15.51 6.7685L21.5152 12.5763L25.0147 9.19217L15.51 0L6.00525 9.19217L9.50469 12.5763Z" fill="#F0B90B"/>
<path d="M15.5099 11.6158L12.0106 15L15.5099 18.3842L19.0092 15L15.5099 11.6158Z" fill="#F0B90B"/>
<path d="M21.5152 17.4219L15.51 23.2297L13.401 21.1901L13.0039 20.806L9.50469 17.4219L6.00525 20.806L15.51 29.9982L25.0147 20.806L21.5152 17.4219Z" fill="#F0B90B"/>
<path d="M3.49929 11.6158L0 15L3.49929 18.3842L6.99857 15L3.49929 11.6158Z" fill="#F0B90B"/>
<path d="M27.5207 11.6158L24.0214 15L27.5206 18.3842L31.0199 15L27.5207 11.6158Z" fill="#F0B90B"/>
</svg>
