<svg id="Layer_1" xmlns="http://www.w3.org/2000/svg" viewBox="0 0 1000 1000"><title>fulcrum_logo_wrd_black-C</title><path d="M277.46,421.19h-14q-20.06,0-30,9t-9.93,27.46V566.28a4.85,4.85,0,0,0,4.87,4.87h16.82a4.62,4.62,0,0,0,3.54-1.42,4.89,4.89,0,0,0,1.32-3.45V487.46h25.33a4.85,4.85,0,0,0,4.86-4.87V470.64a4.85,4.85,0,0,0-4.86-4.87H250.1v-7.09q0-8.1,3.24-11.95t11.15-3.85h13a4.85,4.85,0,0,0,4.86-4.87V426.06a4.85,4.85,0,0,0-4.86-4.87Z"/><path d="M575.9,513.47,561.41,519a3.65,3.65,0,0,0-2.29,2.76,38.53,38.53,0,0,1-2.64,8.9,34.11,34.11,0,0,1-19.87,18.57,34.5,34.5,0,0,1-27.23-.91c-1.19-.54-2.32-1.12-3.41-1.75l-23.09,8.85a56.6,56.6,0,0,0,17.74,12.3,56.92,56.92,0,0,0,75.26-28.3A59.38,59.38,0,0,0,580.8,517,3.63,3.63,0,0,0,575.9,513.47Z"/><path d="M491.8,501.41a34.26,34.26,0,0,1,19.75-18.53,33.87,33.87,0,0,1,27,.71,39.29,39.29,0,0,1,7.86,4.92,3.63,3.63,0,0,0,3.54.56l14.5-5.48a3.61,3.61,0,0,0,1.34-5.87,59.22,59.22,0,0,0-18.48-13.53q-21.51-9.7-43.37-1.38a54.87,54.87,0,0,0-31.57,29.84,56.85,56.85,0,0,0-5.23,21.83l23-8.82A40.27,40.27,0,0,1,491.8,501.41Z"/><path d="M490.82,528.44a35.11,35.11,0,0,1-2.26-12.68l-20.83,7.92a58.61,58.61,0,0,0,3.13,12.26A57.8,57.8,0,0,0,477,548L497.84,540A34.59,34.59,0,0,1,490.82,528.44Z"/><path d="M444.43,427.27h-2l-19.88,7.44v107l26.75-9.93V432.14a4.55,4.55,0,0,0-4.86-4.87Z"/><path d="M158.88,491a13.28,13.28,0,0,0-17.29-7.39l-32.12,12.88a13.3,13.3,0,0,0-7.4,17.29l2.51,6.25a13.31,13.31,0,0,0,17.3,7.4L154,514.57a13.28,13.28,0,0,0,7.4-17.29Z"/><path d="M141.34,562.17c-1.54.75-3.12,1.44-4.69,2-14.71,5.68-28.94,5.42-43.54-.83-14.86-6.35-24.93-16.53-30.8-31.12s-5.64-28.89.7-43.71c6.16-14.41,16.31-24.36,31-30.41,1.59-.65,3.23-1.25,4.87-1.77l4.15-1.33L90.69,424.21l-3.64,1.25c-1.67.57-3.34,1.18-5,1.85-23.11,9.27-39.74,25.46-49.43,48.12-9.81,22.93-10.14,46.21-1,69.19S57.06,584.23,80,594a94.67,94.67,0,0,0,14.89,5c17.88,4.35,36,2.9,54.09-4.35q2.58-1,5.05-2.19l3.49-1.62-12.27-30.58Z"/><polygon points="99.05 419.91 111.46 450.85 208.12 412.09 152.35 398.53 99.05 419.91"/><path d="M390.59,465.15h-18a4.85,4.85,0,0,0-3.44,1.32,4.6,4.6,0,0,0-1.42,3.55v55.74q0,11.55-6.19,18.24t-16.72,6.69q-21.69,0-21.68-24.93V470a4.85,4.85,0,0,0-4.87-4.87H317l-21.91,8.19V527q0,21.28,10.75,33.45c7.16,8.1,17,13.37,29.39,12.16,21.42-2.1,27.76-8.86,33.64-20.54v13.65a4.85,4.85,0,0,0,4.87,4.86h16.82a4.6,4.6,0,0,0,3.55-1.42,4.9,4.9,0,0,0,1.32-3.44V470a4.55,4.55,0,0,0-4.87-4.87Z"/><path d="M782.43,465.87h-18a4.85,4.85,0,0,0-3.44,1.32,4.59,4.59,0,0,0-1.42,3.54v55.74q0,11.55-6.19,18.24t-16.72,6.69q-21.69,0-21.69-24.93V470.73a4.83,4.83,0,0,0-4.86-4.86h-6.26L687,472.17v55.52q0,21.28,10.74,33.44t29.39,12.16q22.5,0,33.64-15.2v8.31a4.73,4.73,0,0,0,1.42,3.45,5.76,5.76,0,0,0,.68.56l24.45-9.14V470.73a4.53,4.53,0,0,0-4.86-4.86Z"/><path d="M964.46,475.19a34.29,34.29,0,0,0-19.23-10.64,43.16,43.16,0,0,0-7.93-.71c-1.27,0-2.51.12-3.75.23A38.75,38.75,0,0,0,918,468.81a36.25,36.25,0,0,0-13.78,13.07q-8.93-18-31.42-18-18.44,0-29.38,13.78v-6.89c0-1.17-.36-7.94-.9-8.73l-24.85,9.29V566.4a4.83,4.83,0,0,0,4.87,4.86h17.23a4.62,4.62,0,0,0,3.54-1.41,4.89,4.89,0,0,0,1.32-3.45V509.85q0-12.57,5.58-18.34a18,18,0,0,1,13.47-5.78,18.43,18.43,0,0,1,14,5.78q5.47,5.78,5.47,18.34V566.4a4.83,4.83,0,0,0,4.87,4.86h17a4.62,4.62,0,0,0,3.55-1.41,4.89,4.89,0,0,0,1.32-3.45V509.85q0-12.57,5.57-18.34A18,18,0,0,1,929,485.73a22.34,22.34,0,0,1,4.57.46,18.87,18.87,0,0,1,2.56.7l.22.08a18.5,18.5,0,0,1,2.4,1.08l0,0a16.18,16.18,0,0,1,2,1.3l.46.35a18.11,18.11,0,0,1,1.85,1.68q5.37,5.67,5.37,18.44V566.4a4.71,4.71,0,0,0,.42,2,4.92,4.92,0,0,0,1,1.45c.15.14.31.25.46.38h0a4.74,4.74,0,0,0,1.35.75l.11,0a4.81,4.81,0,0,0,1.53.25h16.82a4.62,4.62,0,0,0,3.55-1.41,5,5,0,0,0,.7-1.11,4.91,4.91,0,0,0,.62-2.34V508.23Q975,486.54,964.46,475.19Z"/><path d="M668.58,478.4l-69.1,25.85v9h0V550h0v16.24a4.82,4.82,0,0,0,.08.86,4.62,4.62,0,0,0,1.34,2.59l.06,0a4.68,4.68,0,0,0,3.38,1.37h1.48l21.42-8v-1.79h0v-5h0V518.81c0-.7,0-1.39.08-2.07a3.22,3.22,0,0,1,0-.43c0-.65.12-1.28.22-1.9,0-.11,0-.21,0-.31.1-.57.21-1.11.34-1.65,0-.1,0-.2.08-.3a17.31,17.31,0,0,1,.52-1.68c0-.12.08-.24.13-.36a17.6,17.6,0,0,1,1.54-3.14c.08-.14.18-.28.27-.41a12.72,12.72,0,0,1,.75-1.06l.3-.39c.37-.45.75-.88,1.16-1.29q5.47-5.47,15-5.47h16a6,6,0,0,0,1.07-.09,5.45,5.45,0,0,0,.84-.24l.24-.1a4.63,4.63,0,0,0,.54-.29l.22-.14a4.76,4.76,0,0,0,.63-.56h0a4.82,4.82,0,0,0,.78-1.16,5,5,0,0,0,.54-2.29v-7h0Z"/></svg>
