<svg xmlns="http://www.w3.org/2000/svg" width="144.498" height="27.395" viewBox="0 0 144.498 27.395">
    <defs>
        <style>
            .cls-1{fill:#fff}.cls-2{fill:#e17726;stroke:#e17726}.cls-10,.cls-11,.cls-2,.cls-3,.cls-4,.cls-5,.cls-6,.cls-7,.cls-8,.cls-9{stroke-linecap:round;stroke-linejoin:round}.cls-3{fill:#e27625;stroke:#e27625}.cls-4{fill:#d5bfb2;stroke:#d5bfb2}.cls-5{fill:#233447;stroke:#233447}.cls-6{fill:#cc6228;stroke:#cc6228}.cls-7{fill:#e27525;stroke:#e27525}.cls-8{fill:#f5841f;stroke:#f5841f}.cls-9{fill:#c0ac9d;stroke:#c0ac9d}.cls-10{fill:#161616;stroke:#161616}.cls-11{fill:#763e1a;stroke:#763e1a}
        </style>
    </defs>
    <g id="logo_big___metamask" transform="translate(-119.5 -119.5)">
        <g id="Group_516" data-name="Group 516" transform="translate(159.602 126.588)">
            <path id="Path_491" d="M1223.643 186.586c-.748-.495-1.573-.847-2.353-1.287a10.058 10.058 0 0 1-1.485-.9 1.5 1.5 0 0 1 .187-2.353 2.026 2.026 0 0 1 3.178 1.2.062.062 0 0 0 .066.055h1.694a.062.062 0 0 0 .066-.077 3.342 3.342 0 0 0-1.243-2.5 3.933 3.933 0 0 0-2.4-.825c-4.476 0-4.883 4.74-2.475 6.236.275.176 2.639 1.364 3.475 1.881a1.719 1.719 0 0 1 .737 2.21 2.166 2.166 0 0 1-2.046 1.1 2.023 2.023 0 0 1-1.914-1.353 2.4 2.4 0 0 1-.066-.539.071.071 0 0 0-.066-.066h-1.836a.071.071 0 0 0-.066.066 2.946 2.946 0 0 0 1.232 2.738 4.415 4.415 0 0 0 2.727.9c2.508 0 3.805-1.419 4.069-2.892a3.409 3.409 0 0 0-1.481-3.594z" class="cls-1" data-name="Path 491" transform="translate(-1136.048 -179.9)"/>
            <path id="Path_492" d="M487.952 182.1h-1.7a.074.074 0 0 0-.066.044l-1.507 4.971a.069.069 0 0 1-.132 0l-1.507-4.971a.06.06 0 0 0-.066-.044h-2.8a.071.071 0 0 0-.066.066v12.691a.071.071 0 0 0 .066.066H482a.071.071 0 0 0 .066-.066v-9.645a.068.068 0 0 1 .132-.022l1.518 5 .11.352a.06.06 0 0 0 .066.044h1.408a.074.074 0 0 0 .066-.044l.11-.352 1.518-5a.067.067 0 0 1 .132.022v9.645a.071.071 0 0 0 .066.066h1.837a.071.071 0 0 0 .066-.066v-12.691a.071.071 0 0 0-.066-.066z" class="cls-1" data-name="Path 492" transform="translate(-480.1 -181.858)"/>
            <path id="Path_493" d="M971.237 182.1a.074.074 0 0 0-.066.044l-1.507 4.971a.069.069 0 0 1-.132 0l-1.507-4.971a.06.06 0 0 0-.066-.044h-2.793a.071.071 0 0 0-.066.066v12.691a.071.071 0 0 0 .066.066H967a.071.071 0 0 0 .066-.066v-9.645a.068.068 0 0 1 .132-.022l1.518 5 .11.352a.06.06 0 0 0 .066.044h1.408a.074.074 0 0 0 .066-.044l.11-.352 1.518-5a.068.068 0 0 1 .132.022v9.645a.071.071 0 0 0 .066.066h1.837a.071.071 0 0 0 .066-.066v-12.691a.071.071 0 0 0-.066-.066z" class="cls-1" data-name="Path 493" transform="translate(-911.762 -181.858)"/>
            <path id="Path_494" d="M734.743 182.1h-8.677a.071.071 0 0 0-.066.066v1.584a.071.071 0 0 0 .066.066h3.354v11.042a.071.071 0 0 0 .066.066h1.837a.071.071 0 0 0 .066-.066v-11.042h3.354a.071.071 0 0 0 .066-.066v-1.584a.063.063 0 0 0-.066-.066z" class="cls-1" data-name="Path 494" transform="translate(-698.957 -181.858)"/>
            <path id="Path_495" d="M841.681 194.567h1.672a.07.07 0 0 0 .066-.088l-3.453-12.735a.06.06 0 0 0-.066-.044h-2.4a.074.074 0 0 0-.066.044l-3.453 12.735a.07.07 0 0 0 .066.088h1.672a.074.074 0 0 0 .066-.044l1-3.706a.06.06 0 0 1 .066-.044h3.7a.074.074 0 0 1 .066.044l1 3.706a.091.091 0 0 0 .064.044zm-4.388-5.609l1.342-4.96a.069.069 0 0 1 .132 0l1.342 4.96a.07.07 0 0 1-.066.088h-2.683a.07.07 0 0 1-.067-.088z" class="cls-1" data-name="Path 495" transform="translate(-795.063 -181.502)"/>
            <path id="Path_496" d="M1100.881 194.567h1.672a.07.07 0 0 0 .066-.088l-3.453-12.735a.06.06 0 0 0-.066-.044h-2.4a.074.074 0 0 0-.066.044l-3.453 12.735a.071.071 0 0 0 .066.088h1.672a.074.074 0 0 0 .066-.044l1-3.706a.06.06 0 0 1 .066-.044h3.7a.074.074 0 0 1 .066.044l1 3.706a.074.074 0 0 0 .064.044zm-4.388-5.609l1.342-4.96a.069.069 0 0 1 .132 0l1.342 4.96a.07.07 0 0 1-.066.088h-2.683a.07.07 0 0 1-.067-.088z" class="cls-1" data-name="Path 496" transform="translate(-1025.757 -181.502)"/>
            <path id="Path_497" d="M613.768 193.131v-3.937a.071.071 0 0 1 .066-.066h4.894a.071.071 0 0 0 .066-.066v-1.584a.071.071 0 0 0-.066-.066h-4.894a.071.071 0 0 1-.066-.066v-3.365a.071.071 0 0 1 .066-.066h5.566a.071.071 0 0 0 .066-.066v-1.584a.071.071 0 0 0-.066-.066h-7.533a.071.071 0 0 0-.066.066v12.68a.071.071 0 0 0 .066.066h7.764a.071.071 0 0 0 .066-.066v-1.672a.071.071 0 0 0-.066-.066h-5.807a.073.073 0 0 1-.056-.076z" class="cls-1" data-name="Path 497" transform="translate(-597.316 -181.947)"/>
            <path id="Path_498" d="M1348.3 194.9l-6.357-6.566a.067.067 0 0 1 0-.088l5.719-5.939a.063.063 0 0 0-.044-.11h-2.343a.057.057 0 0 0-.044.022l-4.85 5.037a.064.064 0 0 1-.11-.044v-4.949a.071.071 0 0 0-.066-.066h-1.837a.071.071 0 0 0-.066.066v12.691a.071.071 0 0 0 .066.066h1.837a.071.071 0 0 0 .066-.066v-5.584c0-.055.077-.088.11-.044l5.5 5.675a.083.083 0 0 0 .044.022h2.343c.04-.011.072-.088.032-.123z" class="cls-1" data-name="Path 498" transform="translate(-1243.919 -181.947)"/>
        </g>
        <g id="Group_522" data-name="Group 522" transform="translate(120 120)">
            <path id="Path_499" d="M276.018 120l-11.118 8.248 2.068-4.861z" class="cls-2" data-name="Path 499" transform="translate(-248.965 -120)"/>
            <g id="Group_517" data-name="Group 517" transform="translate(.231)">
                <path id="Path_500" d="M132.8 120l11.019 8.325-1.969-4.938z" class="cls-3" data-name="Path 500" transform="translate(-131.623 -120)"/>
                <path id="Path_501" d="M305.658 293.9l-2.958 4.531 6.335 1.749 1.814-6.18z" class="cls-3" data-name="Path 501" transform="translate(-282.839 -274.775)"/>
                <path id="Path_502" d="M122.1 294l1.8 6.181 6.324-1.749-2.944-4.532z" class="cls-3" data-name="Path 502" transform="translate(-122.1 -274.775)"/>
                <path id="Path_503" d="M178.66 193.416l-1.76 2.661 6.269.286-.209-6.763z" class="cls-3" data-name="Path 503" transform="translate(-170.873 -181.946)"/>
                <path id="Path_504" d="M269.409 192.793l-4.366-3.893-.143 6.84 6.269-.286z" class="cls-3" data-name="Path 504" transform="translate(-249.196 -181.323)"/>
                <path id="Path_505" d="M196 299.588l3.794-1.837-3.266-2.551z" class="cls-3" data-name="Path 505" transform="translate(-187.873 -275.932)"/>
                <path id="Path_506" d="M268.3 297.751l3.783 1.837-.517-4.388z" class="cls-3" data-name="Path 506" transform="translate(-252.222 -275.932)"/>
            </g>
            <g id="Group_518" data-name="Group 518" transform="translate(8.358 21.819)">
                <path id="Path_507" d="M272.083 320.237L268.3 318.4l.308 2.463-.033 1.045z" class="cls-4" data-name="Path 507" transform="translate(-260.349 -318.4)"/>
                <path id="Path_508" d="M196 320.237l3.519 1.672-.022-1.045.3-2.463z" class="cls-4" data-name="Path 508" transform="translate(-196 -318.4)"/>
            </g>
            <path id="Path_509" d="M203.145 264.647l-3.145-.924 2.221-1.023z" class="cls-5" data-name="Path 509" transform="translate(-191.202 -247.007)"/>
            <path id="Path_510" d="M270.2 264.647l.924-1.947 2.232 1.023z" class="cls-5" data-name="Path 510" transform="translate(-253.682 -247.007)"/>
            <g id="Group_519" data-name="Group 519" transform="translate(5.411 14.132)">
                <path id="Path_511" d="M172.147 298.431l.55-4.531-3.5.1z" class="cls-6" data-name="Path 511" transform="translate(-169.2 -288.907)"/>
                <path id="Path_512" d="M297.8 293.9l.539 4.531L301.3 294z" class="cls-6" data-name="Path 512" transform="translate(-283.657 -288.907)"/>
                <path id="Path_513" d="M271.169 248.5l-6.269.286.583 3.222.924-1.947 2.233 1.023z" class="cls-6" data-name="Path 513" transform="translate(-254.375 -248.5)"/>
                <path id="Path_514" d="M179.44 251.084l2.221-1.023.924 1.947.583-3.222-6.268-.286z" class="cls-6" data-name="Path 514" transform="translate(-176.053 -248.5)"/>
            </g>
            <g id="Group_520" data-name="Group 520" transform="translate(6.258 14.132)">
                <path id="Path_515" d="M176.9 248.5l2.628 5.136-.088-2.551z" class="cls-7" data-name="Path 515" transform="translate(-176.9 -248.5)"/>
                <path id="Path_516" d="M298.1 251.084l-.1 2.551 2.628-5.136z" class="cls-7" data-name="Path 516" transform="translate(-284.682 -248.5)"/>
                <path id="Path_517" d="M229.183 251.1l-.583 3.222.737 3.805.165-5.015z" class="cls-7" data-name="Path 517" transform="translate(-222.914 -250.814)"/>
                <path id="Path_518" d="M262.408 251.1l-.308 2 .154 5.026.737-3.805z" class="cls-7" data-name="Path 518" transform="translate(-252.73 -250.814)"/>
            </g>
            <path id="Path_519" d="M264.237 272.924l-.737 3.805.528.374 3.266-2.551.1-2.551z" class="cls-8" data-name="Path 519" transform="translate(-247.719 -255.284)"/>
            <path id="Path_520" d="M200 272l.088 2.551 3.266 2.551.528-.374-.737-3.805z" class="cls-8" data-name="Path 520" transform="translate(-191.202 -255.284)"/>
            <path id="Path_521" d="M204.226 336.772l.033-1.045-.286-.242h-4.2l-.275.242.022 1.045L196 335.1l1.232 1.012 2.5 1.727h4.278l2.507-1.727 1.221-1.012z" class="cls-9" data-name="Path 521" transform="translate(-187.642 -311.444)"/>
            <path id="Path_522" d="M232.254 315.374l-.528-.374h-3.1l-.528.374-.3 2.463.275-.242h4.2l.286.242z" class="cls-10" data-name="Path 522" transform="translate(-215.945 -293.555)"/>
            <g id="Group_521" data-name="Group 521">
                <path id="Path_523" d="M279.517 128.787l.935-4.553-1.407-4.234-10.745 7.973 4.135 3.5 5.84 1.7 1.287-1.507-.561-.407.891-.814-.682-.528.891-.682z" class="cls-11" data-name="Path 523" transform="translate(-251.991 -120)"/>
                <path id="Path_524" d="M120 124.234l.946 4.553-.6.451.9.682-.682.528.891.814-.561.407 1.287 1.507 5.84-1.7 4.135-3.5L121.408 120z" class="cls-11" data-name="Path 524" transform="translate(-120 -120)"/>
            </g>
            <path id="Path_525" d="M304.708 226l-5.84-1.7 1.76 2.661L298 232.1l3.475-.044h5.191z" class="cls-8" data-name="Path 525" transform="translate(-278.424 -212.83)"/>
            <path id="Path_526" d="M129.886 224.3l-5.84 1.7-1.947 6.049h5.18l3.475.044-2.628-5.136z" class="cls-8" data-name="Path 526" transform="translate(-121.869 -212.83)"/>
            <path id="Path_527" d="M220.577 161.83l.374-6.445 1.694-4.586H215.1l1.694 4.586.374 6.445.143 2.024.011 5h3.1l.011-5z" class="cls-8" data-name="Path 527" transform="translate(-204.641 -147.413)"/>
        </g>
    </g>
</svg>
