<svg
  version="1.1"
  xmlns="http://www.w3.org/2000/svg"
  xmlns:xlink="http://www.w3.org/1999/xlink"
  preserveAspectRatio="xMidYMid meet"
  viewBox="-1 -1 544.8602613197941 103.13514908997035"
  width="540.86"
  height="99.14"
>
  <defs>
    <path
      d="M468.91 45.02C467.01 43.95 464.99 43 463.33 41.64C460.52 39.32 461.1 34.78 464.04 32.8C468.25 29.99 475.23 31.56 475.97 37.3C475.97 37.42 476.1 37.51 476.22 37.51C476.86 37.51 481.95 37.51 482.58 37.51C482.75 37.51 482.87 37.38 482.83 37.22C482.5 33.25 480.97 29.95 478.16 27.84C475.48 25.82 472.42 24.74 469.16 24.74C452.35 24.74 450.82 42.55 459.86 48.16C460.9 48.82 469.78 53.29 472.92 55.23C476.06 57.17 477.05 60.72 475.68 63.53C474.44 66.09 471.22 67.87 468 67.66C464.49 67.45 461.76 65.55 460.81 62.58C460.65 62.04 460.57 61.01 460.57 60.56C460.57 60.43 460.44 60.31 460.32 60.31C459.63 60.31 454.11 60.31 453.42 60.31C453.3 60.31 453.17 60.43 453.17 60.56C453.17 65.55 454.41 68.32 457.8 70.84C460.98 73.24 464.45 74.23 468.04 74.23C477.46 74.23 482.33 68.9 483.33 63.36C484.19 57.95 482.58 53.08 477.75 49.86C474.94 48 471.84 46.68 468.91 45.02Z"
      id="bkxHI87O5"
    ></path>
    <path
      d="M175.18 25.65C173.17 25.65 172.06 25.65 171.83 25.65C171.71 25.65 171.63 25.73 171.59 25.82C171.02 27.68 166.49 42.62 165.93 44.49C165.84 44.73 165.51 44.73 165.43 44.49C164.87 42.62 160.34 27.68 159.77 25.82C159.73 25.69 159.65 25.65 159.52 25.65C159.3 25.65 158.19 25.65 156.18 25.65L153.12 25.65C150.64 25.65 149.27 25.65 148.99 25.65C148.87 25.65 148.74 25.78 148.74 25.9C148.74 30.67 148.74 68.8 148.74 73.57C148.74 73.69 148.87 73.81 148.99 73.81C149.68 73.81 155.2 73.81 155.89 73.81C156.01 73.81 156.14 73.69 156.14 73.57C156.14 69.94 156.14 40.96 156.14 37.34C156.14 37.05 156.55 37.01 156.63 37.26C157.01 38.51 158.91 44.78 162.33 56.05C162.58 56.85 162.72 57.29 162.75 57.37C162.79 57.5 162.87 57.54 162.99 57.54C163.52 57.54 167.75 57.54 168.28 57.54C168.41 57.54 168.49 57.46 168.53 57.37C168.56 57.29 168.69 56.85 168.94 56.05C172.36 44.78 174.26 38.51 174.64 37.26C174.73 36.97 175.14 37.05 175.14 37.34C175.14 40.96 175.14 69.94 175.14 73.57C175.14 73.69 175.26 73.81 175.39 73.81C176.08 73.81 181.59 73.81 182.28 73.81C182.41 73.81 182.53 73.69 182.53 73.57C182.53 68.8 182.53 30.67 182.53 25.9C182.53 25.78 182.41 25.65 182.28 25.65C182.01 25.65 180.67 25.65 178.24 25.65L175.18 25.65Z"
      id="aCfRsPDCp"
    ></path>
    <path
      d="M371.88 25.82C371.31 27.68 366.79 42.62 366.22 44.49C366.14 44.73 365.81 44.73 365.73 44.49C365.16 42.62 360.63 27.68 360.07 25.82C360.03 25.69 359.94 25.65 359.82 25.65C358.77 25.65 350.38 25.65 349.33 25.65C349.2 25.65 349.08 25.78 349.08 25.9C349.08 30.67 349.08 68.8 349.08 73.57C349.08 73.69 349.2 73.81 349.33 73.81C350.02 73.81 355.54 73.81 356.23 73.81C356.35 73.81 356.47 73.69 356.47 73.57C356.47 69.94 356.47 40.96 356.47 37.34C356.47 37.05 356.89 37.01 356.97 37.26C357.35 38.51 359.25 44.78 362.67 56.05C362.92 56.85 363.05 57.29 363.08 57.37C363.12 57.5 363.21 57.54 363.33 57.54C363.86 57.54 368.09 57.54 368.62 57.54C368.74 57.54 368.82 57.46 368.87 57.37C368.89 57.29 369.03 56.85 369.28 56.05C372.7 44.78 374.6 38.51 374.98 37.26C375.06 36.97 375.47 37.05 375.47 37.34C375.47 40.96 375.47 69.94 375.47 73.57C375.47 73.69 375.6 73.81 375.72 73.81C376.41 73.81 381.93 73.81 382.62 73.81C382.74 73.81 382.87 73.69 382.87 73.57C382.87 68.8 382.87 30.67 382.87 25.9C382.87 25.78 382.74 25.65 382.62 25.65C381.92 25.65 378.42 25.65 372.13 25.65C371.99 25.71 371.91 25.76 371.88 25.82Z"
      id="a5bbgx2Uy"
    ></path>
    <path
      d="M270.31 25.65L263.41 25.65C255.7 25.65 251.42 25.65 250.56 25.65C250.44 25.65 250.32 25.78 250.32 25.9C250.32 26.49 250.32 31.25 250.32 31.85C250.32 31.97 250.44 32.1 250.56 32.1C251.4 32.1 255.6 32.1 263.16 32.1C263.16 56.98 263.16 70.8 263.16 73.57C263.16 73.69 263.29 73.81 263.41 73.81C264.1 73.81 269.62 73.81 270.31 73.81C270.43 73.81 270.56 73.69 270.56 73.57C270.56 70.8 270.56 56.98 270.56 32.1C278.12 32.1 282.31 32.1 283.15 32.1C283.28 32.1 283.4 31.97 283.4 31.85C283.4 31.25 283.4 26.49 283.4 25.9C283.4 25.78 283.32 25.65 283.15 25.65C281.44 25.65 277.16 25.65 270.31 25.65Z"
      id="a3WFIU8zCk"
    ></path>
    <path
      d="M317.17 25.49L317.18 25.49L317.19 25.49L317.2 25.49L317.21 25.49L317.22 25.49L317.23 25.49L317.24 25.5L317.25 25.5L317.26 25.5L317.27 25.5L317.28 25.51L317.29 25.51L317.29 25.52L317.3 25.52L317.31 25.52L317.32 25.53L317.32 25.53L317.33 25.54L317.34 25.55L317.34 25.55L317.35 25.56L317.35 25.57L317.36 25.58L317.37 25.58L317.37 25.59L317.38 25.6L317.38 25.61L317.39 25.62L317.39 25.63L317.39 25.64L317.4 25.65L330.37 73.48L330.37 73.5L330.37 73.51L330.38 73.53L330.38 73.54L330.38 73.56L330.37 73.57L330.37 73.59L330.37 73.6L330.37 73.62L330.36 73.63L330.36 73.64L330.35 73.66L330.35 73.67L330.34 73.68L330.33 73.69L330.33 73.71L330.32 73.72L330.31 73.73L330.3 73.74L330.29 73.75L330.28 73.76L330.27 73.77L330.26 73.77L330.24 73.78L330.23 73.79L330.22 73.79L330.21 73.8L330.19 73.8L330.18 73.81L330.16 73.81L330.15 73.81L330.13 73.81L330.12 73.81L323.84 73.81L323.83 73.81L323.83 73.81L323.82 73.81L323.81 73.81L323.8 73.81L323.79 73.81L323.78 73.8L323.78 73.8L323.77 73.8L323.76 73.79L323.75 73.79L323.74 73.79L323.73 73.78L323.72 73.78L323.71 73.77L323.71 73.77L323.7 73.76L323.69 73.75L323.68 73.75L323.67 73.74L323.67 73.74L323.66 73.73L323.65 73.72L323.64 73.72L323.64 73.71L323.63 73.7L323.62 73.69L323.62 73.69L323.61 73.68L323.61 73.67L323.6 73.66L323.6 73.66L323.59 73.65L319.83 59.73L319.83 59.72L319.83 59.71L319.82 59.71L319.82 59.7L319.81 59.69L319.81 59.68L319.8 59.68L319.8 59.67L319.79 59.66L319.79 59.66L319.78 59.65L319.77 59.64L319.77 59.64L319.76 59.63L319.75 59.62L319.75 59.62L319.74 59.61L319.73 59.61L319.72 59.6L319.71 59.6L319.71 59.59L319.7 59.59L319.69 59.58L319.68 59.58L319.67 59.58L319.66 59.57L319.65 59.57L319.64 59.57L319.63 59.57L319.62 59.57L319.61 59.56L319.6 59.56L319.59 59.56L305.71 59.56L305.7 59.56L305.69 59.56L305.68 59.56L305.66 59.57L305.65 59.57L305.64 59.57L305.63 59.57L305.63 59.57L305.62 59.57L305.61 59.58L305.6 59.58L305.59 59.58L305.58 59.59L305.57 59.59L305.56 59.59L305.56 59.6L305.55 59.6L305.54 59.61L305.54 59.61L305.53 59.62L305.52 59.62L305.52 59.63L305.51 59.64L305.5 59.65L305.5 59.65L305.49 59.66L305.49 59.67L305.48 59.68L305.48 59.69L305.47 59.7L305.47 59.71L305.46 59.72L305.46 59.73L301.7 73.65L301.7 73.66L301.69 73.66L301.69 73.67L301.68 73.68L301.68 73.69L301.67 73.69L301.67 73.7L301.66 73.71L301.66 73.72L301.65 73.72L301.65 73.73L301.64 73.74L301.63 73.74L301.63 73.75L301.62 73.75L301.61 73.76L301.6 73.77L301.6 73.77L301.59 73.78L301.58 73.78L301.57 73.79L301.56 73.79L301.55 73.79L301.55 73.8L301.54 73.8L301.53 73.8L301.52 73.81L301.51 73.81L301.5 73.81L301.49 73.81L301.48 73.81L301.46 73.81L301.45 73.81L295.17 73.81L295.16 73.81L295.15 73.81L295.13 73.81L295.12 73.81L295.1 73.8L295.09 73.8L295.08 73.79L295.06 73.79L295.05 73.78L295.04 73.77L295.03 73.77L295.02 73.76L295.01 73.75L295 73.74L294.99 73.73L294.98 73.72L294.97 73.71L294.96 73.69L294.95 73.68L294.95 73.67L294.94 73.66L294.94 73.64L294.93 73.63L294.93 73.62L294.92 73.6L294.92 73.59L294.92 73.57L294.92 73.56L294.92 73.54L294.92 73.53L294.92 73.51L294.92 73.5L294.93 73.48L307.9 25.65L307.9 25.64L307.91 25.64L307.91 25.63L307.91 25.62L307.92 25.61L307.92 25.61L307.93 25.6L307.93 25.59L307.94 25.59L307.95 25.58L307.95 25.57L307.96 25.57L307.97 25.56L307.97 25.55L307.98 25.55L307.99 25.54L307.99 25.53L308 25.53L308.01 25.52L308.02 25.52L308.03 25.51L308.03 25.51L308.04 25.51L308.05 25.5L308.06 25.5L308.07 25.5L308.08 25.49L308.09 25.49L308.1 25.49L308.11 25.49L308.12 25.49L308.13 25.49L308.15 25.49L317.15 25.49L317.16 25.49L317.17 25.49ZM312.53 33.96L312.47 34L312.43 34.05L312.4 34.12L307.36 52.75L307.35 52.8L307.35 52.85L307.36 52.89L307.38 52.94L307.41 52.98L307.44 53.01L307.47 53.04L307.51 53.06L307.56 53.07L307.61 53.08L317.69 53.08L317.74 53.07L317.78 53.06L317.82 53.04L317.86 53.01L317.89 52.98L317.91 52.94L317.93 52.89L317.94 52.85L317.94 52.8L317.93 52.75L312.9 34.12L312.86 34.05L312.82 34L312.77 33.96L312.71 33.94L312.65 33.93L312.59 33.94L312.53 33.96Z"
      id="eTSfneMtZ"
    ></path>
    <path
      d="M424.24 25.49L424.25 25.49L424.26 25.49L424.27 25.49L424.28 25.49L424.29 25.49L424.3 25.49L424.31 25.5L424.32 25.5L424.33 25.5L424.33 25.5L424.34 25.51L424.35 25.51L424.36 25.52L424.37 25.52L424.37 25.52L424.38 25.53L424.39 25.53L424.4 25.54L424.4 25.55L424.41 25.55L424.41 25.56L424.42 25.57L424.43 25.58L424.43 25.58L424.44 25.59L424.44 25.6L424.45 25.61L424.45 25.62L424.46 25.63L424.46 25.64L424.46 25.65L437.43 73.48L437.44 73.5L437.44 73.51L437.44 73.53L437.44 73.54L437.44 73.56L437.44 73.57L437.44 73.59L437.44 73.6L437.43 73.62L437.43 73.63L437.42 73.64L437.42 73.66L437.41 73.67L437.41 73.68L437.4 73.69L437.39 73.71L437.38 73.72L437.37 73.73L437.36 73.74L437.35 73.75L437.34 73.76L437.33 73.77L437.32 73.77L437.31 73.78L437.3 73.79L437.28 73.79L437.27 73.8L437.26 73.8L437.24 73.81L437.23 73.81L437.22 73.81L437.2 73.81L437.19 73.81L430.91 73.81L430.9 73.81L430.89 73.81L430.87 73.81L430.86 73.81L430.85 73.81L430.84 73.81L430.83 73.8L430.82 73.8L430.82 73.8L430.81 73.79L430.8 73.79L430.79 73.79L430.78 73.78L430.77 73.78L430.76 73.77L430.76 73.77L430.75 73.76L430.74 73.75L430.73 73.75L430.73 73.74L430.72 73.74L430.71 73.73L430.71 73.72L430.7 73.72L430.7 73.71L430.69 73.7L430.69 73.69L430.68 73.69L430.68 73.68L430.67 73.67L430.67 73.66L430.66 73.66L430.66 73.65L426.9 59.73L426.9 59.72L426.89 59.71L426.89 59.71L426.88 59.7L426.88 59.69L426.87 59.68L426.87 59.68L426.86 59.67L426.86 59.66L426.85 59.66L426.85 59.65L426.84 59.64L426.83 59.64L426.83 59.63L426.82 59.62L426.81 59.62L426.8 59.61L426.8 59.61L426.79 59.6L426.78 59.6L426.77 59.59L426.76 59.59L426.75 59.58L426.75 59.58L426.74 59.58L426.73 59.57L426.72 59.57L426.71 59.57L426.7 59.57L426.69 59.57L426.67 59.56L426.66 59.56L426.65 59.56L412.77 59.56L412.76 59.56L412.75 59.56L412.74 59.56L412.73 59.57L412.72 59.57L412.71 59.57L412.7 59.57L412.69 59.57L412.68 59.57L412.67 59.58L412.66 59.58L412.66 59.58L412.65 59.59L412.64 59.59L412.63 59.59L412.62 59.6L412.62 59.6L412.61 59.61L412.6 59.61L412.59 59.62L412.59 59.62L412.58 59.63L412.58 59.64L412.57 59.65L412.56 59.65L412.56 59.66L412.55 59.67L412.55 59.68L412.54 59.69L412.54 59.7L412.53 59.71L412.53 59.72L412.53 59.73L408.77 73.65L408.76 73.66L408.76 73.66L408.75 73.67L408.75 73.68L408.75 73.69L408.74 73.69L408.74 73.7L408.73 73.71L408.72 73.72L408.72 73.72L408.71 73.73L408.71 73.74L408.7 73.74L408.69 73.75L408.69 73.75L408.68 73.76L408.67 73.77L408.66 73.77L408.65 73.78L408.65 73.78L408.64 73.79L408.63 73.79L408.62 73.79L408.61 73.8L408.6 73.8L408.59 73.8L408.58 73.81L408.57 73.81L408.56 73.81L408.55 73.81L408.54 73.81L408.53 73.81L408.52 73.81L402.24 73.81L402.23 73.81L402.21 73.81L402.2 73.81L402.18 73.81L402.17 73.8L402.16 73.8L402.14 73.79L402.13 73.79L402.12 73.78L402.11 73.77L402.09 73.77L402.08 73.76L402.07 73.75L402.06 73.74L402.05 73.73L402.04 73.72L402.04 73.71L402.03 73.69L402.02 73.68L402.01 73.67L402.01 73.66L402 73.64L402 73.63L401.99 73.62L401.99 73.6L401.99 73.59L401.99 73.57L401.99 73.56L401.99 73.54L401.99 73.53L401.99 73.51L401.99 73.5L401.99 73.48L414.96 25.65L414.97 25.64L414.97 25.64L414.98 25.63L414.98 25.62L414.98 25.61L414.99 25.61L415 25.6L415 25.59L415.01 25.59L415.01 25.58L415.02 25.57L415.02 25.57L415.03 25.56L415.04 25.55L415.05 25.55L415.05 25.54L415.06 25.53L415.07 25.53L415.08 25.52L415.08 25.52L415.09 25.51L415.1 25.51L415.11 25.51L415.12 25.5L415.13 25.5L415.14 25.5L415.15 25.49L415.16 25.49L415.17 25.49L415.18 25.49L415.19 25.49L415.2 25.49L415.21 25.49L424.22 25.49L424.23 25.49L424.24 25.49ZM419.59 33.96L419.54 34L419.5 34.05L419.47 34.12L414.43 52.75L414.42 52.8L414.42 52.85L414.43 52.89L414.45 52.94L414.47 52.98L414.5 53.01L414.54 53.04L414.58 53.06L414.63 53.07L414.67 53.08L424.75 53.08L424.8 53.07L424.85 53.06L424.89 53.04L424.92 53.01L424.95 52.98L424.98 52.94L425 52.89L425.01 52.85L425.01 52.8L425 52.75L419.96 34.12L419.93 34.05L419.89 34L419.83 33.96L419.77 33.94L419.71 33.93L419.65 33.94L419.59 33.96Z"
      id="caLJqjUYE"
    ></path>
    <path
      d="M210.54 51.96C210.54 51.84 210.66 51.72 210.79 51.72C212.62 51.72 227.33 51.72 229.17 51.72C229.29 51.72 229.42 51.59 229.42 51.47C229.42 50.87 229.42 46.11 229.42 45.52C229.42 45.4 229.29 45.27 229.17 45.27C227.33 45.27 212.62 45.27 210.79 45.27C210.66 45.27 210.54 45.15 210.54 45.02C210.54 43.76 210.54 33.65 210.54 32.38C210.54 32.26 210.66 32.14 210.79 32.14C212.88 32.14 229.6 32.14 231.69 32.14C231.81 32.14 231.93 32.01 231.93 31.89C231.93 31.29 231.93 26.54 231.93 25.94C231.93 25.82 231.81 25.69 231.69 25.69C230.28 25.69 223.23 25.69 210.54 25.69C206.25 25.69 203.87 25.69 203.39 25.69C203.27 25.69 203.14 25.82 203.14 25.94C203.14 26.35 203.14 28.42 203.14 32.14L203.14 45.31L203.14 51.76L203.14 67.04C203.14 70.96 203.14 73.13 203.14 73.57C203.14 73.69 203.27 73.81 203.39 73.81C203.87 73.81 206.25 73.81 210.54 73.81C223.75 73.81 231.09 73.81 232.55 73.81C232.68 73.81 232.8 73.69 232.8 73.57C232.8 72.94 232.8 67.92 232.8 67.29C232.8 67.16 232.68 67.04 232.55 67.04C230.37 67.04 212.93 67.04 210.74 67.04C210.62 67 210.54 66.92 210.54 66.75C210.54 63.79 210.54 53.44 210.54 51.96Z"
      id="b3iu26VeRK"
    ></path>
    <path
      d="M516.91 48.74C516.82 48.66 516.82 48.49 516.91 48.41C519.06 46.18 536.24 28.34 538.39 26.11C538.55 25.94 538.43 25.69 538.22 25.69C537.34 25.69 530.3 25.69 529.42 25.69C529.34 25.69 529.3 25.73 529.26 25.78C527.44 27.67 512.86 42.8 511.04 44.69C510.88 44.86 510.63 44.73 510.63 44.53C510.63 42.67 510.63 27.8 510.63 25.94C510.63 25.82 510.5 25.69 510.38 25.69C509.69 25.69 504.17 25.69 503.48 25.69C503.36 25.69 503.23 25.82 503.23 25.94C503.23 30.71 503.23 68.84 503.23 73.61C503.23 73.73 503.36 73.86 503.48 73.86C504.17 73.86 509.69 73.86 510.38 73.86C510.5 73.86 510.63 73.73 510.63 73.61C510.63 71.51 510.63 54.72 510.63 52.62C510.63 52.42 510.92 52.29 511.04 52.46C513.11 54.59 529.63 71.64 531.69 73.77C531.74 73.81 531.82 73.86 531.86 73.86C532.74 73.86 539.78 73.86 540.66 73.86C540.82 73.81 540.95 73.53 540.78 73.4C536.01 68.47 519.29 51.21 516.91 48.74Z"
      id="c15jMTidK"
    ></path>
    <path d="M59.85 30.98L67.62 12.72L101.61 0L59.85 30.98Z" id="c2aZYWXel8"></path>
    <path d="M46.68 31.27L39.28 12.72L5.29 0L46.68 31.27Z" id="g3iv0XPWOp"></path>
    <path d="M75.47 88.85L99.26 95.42L106.07 72.2L86.58 71.83L75.47 88.85Z" id="b3EXFSXKH"></path>
    <path d="M7.64 95.42L31.39 88.85L20.32 71.83L0.87 72.2L7.64 95.42Z" id="b4B9HLBkP"></path>
    <path d="M23.5 53.08L47.05 54.15L46.26 28.75L30.11 43.08L23.5 53.08Z" id="d2CO8CY4Lh"></path>
    <path d="M60.39 28.46L59.85 54.15L83.4 53.08L76.79 43.08L60.39 28.46Z" id="a1FTFsIzTK"></path>
    <path d="M45.64 81.95L33.38 72.37L31.39 88.85L45.64 81.95Z" id="e2UaJtelwB"></path>
    <path d="M75.47 88.85L73.53 72.37L61.26 81.95L75.47 88.85Z" id="b1eM1EsUH7"></path>
    <path d="M61.26 81.95L62.41 91.2L62.29 95.13L75.47 88.85L61.26 81.95Z" id="b2fWmYFx3"></path>
    <path d="M44.61 95.13L44.53 91.2L45.64 81.95L31.39 88.85L44.61 95.13Z" id="cEWVB77qd"></path>
    <path d="M33.05 62.79L41.39 58.94L44.86 66.26L33.05 62.79Z" id="brHWGtLYU"></path>
    <path d="M65.51 58.94L73.9 62.79L62.04 66.26L65.51 58.94Z" id="fVNa2aGWI"></path>
    <path d="M33.46 71.83L20.32 72.2L31.39 88.85L33.46 71.83Z" id="d5sf56Am3X"></path>
    <path d="M75.47 88.85L86.58 72.2L73.44 71.83L75.47 88.85Z" id="a4bZVkFXlb"></path>
    <path d="M59.85 54.15L62.04 66.26L65.51 58.94L73.9 62.79L83.4 53.08L59.85 54.15Z" id="b1JtX78WCD"></path>
    <path d="M41.39 58.94L44.86 66.26L47.05 54.15L23.5 53.08L33.05 62.79L41.39 58.94Z" id="dcKVorlIF"></path>
    <path d="M33.38 72.37L33.05 62.79L23.5 53.08L33.38 72.37Z" id="b12eAvQH7E"></path>
    <path d="M73.53 72.37L83.4 53.08L73.9 62.79L73.53 72.37Z" id="d7NsgNi8q"></path>
    <path d="M44.86 66.26L47.63 80.55L48.25 61.71L47.05 54.15L44.86 66.26Z" id="aE1UAwmK5"></path>
    <path d="M58.7 61.67L59.27 80.55L62.04 66.26L59.85 54.15L58.7 61.67Z" id="dfyCdddPV"></path>
    <path d="M59.27 80.55L61.26 81.95L73.53 72.37L73.9 62.79L62.04 66.26L59.27 80.55Z" id="a1aIve8pHW"></path>
    <path d="M33.38 72.37L45.64 81.95L47.63 80.55L44.86 66.26L33.05 62.79L33.38 72.37Z" id="d29PznbPru"></path>
    <path
      d="M62.41 91.2L61.34 90.3L45.56 90.3L44.53 91.2L44.61 95.13L31.39 88.85L36.02 92.65L45.4 99.14L61.46 99.14L70.88 92.65L75.47 88.85L62.29 95.13L62.41 91.2Z"
      id="bsBOE2C1r"
    ></path>
    <path
      d="M59.27 80.55L47.63 80.55L45.64 81.95L44.53 91.2L45.56 90.3L61.34 90.3L62.41 91.2L61.26 81.95L59.27 80.55Z"
      id="bWW4n7T7l"
    ></path>
    <path
      d="M106.9 15.9L101.61 0L61.26 29.95L76.79 43.08L98.72 49.48L103.55 43.83L101.45 42.3L104.79 39.24L102.23 37.26L105.58 34.7L103.39 33L106.9 15.9Z"
      id="aXg0V52jQ"
    ></path>
    <path
      d="M3.55 33L1.28 34.7L4.67 37.26L2.11 39.24L5.45 42.3L3.35 43.83L8.18 49.48L30.11 43.08L45.64 29.95L5.29 0L0 15.9L3.55 33Z"
      id="b456KGDKUC"
    ></path>
    <path d="M76.79 43.08L83.4 53.08L73.53 72.37L86.58 72.2L106.07 72.2L98.72 49.48L76.79 43.08Z" id="c2RTuOXhU"></path>
    <path d="M8.18 49.48L0.87 72.2L20.32 72.2L33.38 72.37L23.5 53.08L30.11 43.08L8.18 49.48Z" id="a1kd6G2WWc"></path>
    <path
      d="M61.26 29.95L67.62 12.72L39.28 12.72L45.64 29.95L47.05 54.15L47.58 61.75L47.63 80.55L59.27 80.55L59.32 61.75L59.85 54.15L61.26 29.95Z"
      id="c2gcOzHkZq"
    ></path>
  </defs>
  <g>
    <g>
      <use xlink:href="#bkxHI87O5" opacity="1" fill="#161616" fill-opacity="1"></use>
      <g>
        <use
          xlink:href="#bkxHI87O5"
          opacity="1"
          fill-opacity="0"
          stroke="#000000"
          stroke-width="1"
          stroke-opacity="0"
        ></use>
      </g>
    </g>
    <g>
      <use xlink:href="#aCfRsPDCp" opacity="1" fill="#161616" fill-opacity="1"></use>
      <g>
        <use
          xlink:href="#aCfRsPDCp"
          opacity="1"
          fill-opacity="0"
          stroke="#000000"
          stroke-width="1"
          stroke-opacity="0"
        ></use>
      </g>
    </g>
    <g>
      <use xlink:href="#a5bbgx2Uy" opacity="1" fill="#161616" fill-opacity="1"></use>
      <g>
        <use
          xlink:href="#a5bbgx2Uy"
          opacity="1"
          fill-opacity="0"
          stroke="#000000"
          stroke-width="1"
          stroke-opacity="0"
        ></use>
      </g>
    </g>
    <g>
      <use xlink:href="#a3WFIU8zCk" opacity="1" fill="#161616" fill-opacity="1"></use>
      <g>
        <use
          xlink:href="#a3WFIU8zCk"
          opacity="1"
          fill-opacity="0"
          stroke="#000000"
          stroke-width="1"
          stroke-opacity="0"
        ></use>
      </g>
    </g>
    <g>
      <use xlink:href="#eTSfneMtZ" opacity="1" fill="#161616" fill-opacity="1"></use>
      <g>
        <use
          xlink:href="#eTSfneMtZ"
          opacity="1"
          fill-opacity="0"
          stroke="#000000"
          stroke-width="1"
          stroke-opacity="0"
        ></use>
      </g>
    </g>
    <g>
      <use xlink:href="#caLJqjUYE" opacity="1" fill="#161616" fill-opacity="1"></use>
      <g>
        <use
          xlink:href="#caLJqjUYE"
          opacity="1"
          fill-opacity="0"
          stroke="#000000"
          stroke-width="1"
          stroke-opacity="0"
        ></use>
      </g>
    </g>
    <g>
      <use xlink:href="#b3iu26VeRK" opacity="1" fill="#161616" fill-opacity="1"></use>
      <g>
        <use
          xlink:href="#b3iu26VeRK"
          opacity="1"
          fill-opacity="0"
          stroke="#000000"
          stroke-width="1"
          stroke-opacity="0"
        ></use>
      </g>
    </g>
    <g>
      <use xlink:href="#c15jMTidK" opacity="1" fill="#161616" fill-opacity="1"></use>
      <g>
        <use
          xlink:href="#c15jMTidK"
          opacity="1"
          fill-opacity="0"
          stroke="#000000"
          stroke-width="1"
          stroke-opacity="0"
        ></use>
      </g>
    </g>
    <g>
      <use xlink:href="#c2aZYWXel8" opacity="1" fill="#e17726" fill-opacity="1"></use>
      <g>
        <use
          xlink:href="#c2aZYWXel8"
          opacity="1"
          fill-opacity="0"
          stroke="#e17726"
          stroke-width="1"
          stroke-opacity="1"
        ></use>
      </g>
    </g>
    <g>
      <use xlink:href="#g3iv0XPWOp" opacity="1" fill="#e27625" fill-opacity="1"></use>
      <g>
        <use
          xlink:href="#g3iv0XPWOp"
          opacity="1"
          fill-opacity="0"
          stroke="#e27625"
          stroke-width="1"
          stroke-opacity="1"
        ></use>
      </g>
    </g>
    <g>
      <use xlink:href="#b3EXFSXKH" opacity="1" fill="#e27625" fill-opacity="1"></use>
      <g>
        <use
          xlink:href="#b3EXFSXKH"
          opacity="1"
          fill-opacity="0"
          stroke="#e27625"
          stroke-width="1"
          stroke-opacity="1"
        ></use>
      </g>
    </g>
    <g>
      <use xlink:href="#b4B9HLBkP" opacity="1" fill="#e27625" fill-opacity="1"></use>
      <g>
        <use
          xlink:href="#b4B9HLBkP"
          opacity="1"
          fill-opacity="0"
          stroke="#e27625"
          stroke-width="1"
          stroke-opacity="1"
        ></use>
      </g>
    </g>
    <g>
      <use xlink:href="#d2CO8CY4Lh" opacity="1" fill="#e27625" fill-opacity="1"></use>
      <g>
        <use
          xlink:href="#d2CO8CY4Lh"
          opacity="1"
          fill-opacity="0"
          stroke="#e27625"
          stroke-width="1"
          stroke-opacity="1"
        ></use>
      </g>
    </g>
    <g>
      <use xlink:href="#a1FTFsIzTK" opacity="1" fill="#e27625" fill-opacity="1"></use>
      <g>
        <use
          xlink:href="#a1FTFsIzTK"
          opacity="1"
          fill-opacity="0"
          stroke="#e27625"
          stroke-width="1"
          stroke-opacity="1"
        ></use>
      </g>
    </g>
    <g>
      <use xlink:href="#e2UaJtelwB" opacity="1" fill="#e27625" fill-opacity="1"></use>
      <g>
        <use
          xlink:href="#e2UaJtelwB"
          opacity="1"
          fill-opacity="0"
          stroke="#e27625"
          stroke-width="1"
          stroke-opacity="1"
        ></use>
      </g>
    </g>
    <g>
      <use xlink:href="#b1eM1EsUH7" opacity="1" fill="#e27625" fill-opacity="1"></use>
      <g>
        <use
          xlink:href="#b1eM1EsUH7"
          opacity="1"
          fill-opacity="0"
          stroke="#e27625"
          stroke-width="1"
          stroke-opacity="1"
        ></use>
      </g>
    </g>
    <g>
      <use xlink:href="#b2fWmYFx3" opacity="1" fill="#d5bfb2" fill-opacity="1"></use>
      <g>
        <use
          xlink:href="#b2fWmYFx3"
          opacity="1"
          fill-opacity="0"
          stroke="#d5bfb2"
          stroke-width="1"
          stroke-opacity="1"
        ></use>
      </g>
    </g>
    <g>
      <use xlink:href="#cEWVB77qd" opacity="1" fill="#d5bfb2" fill-opacity="1"></use>
      <g>
        <use
          xlink:href="#cEWVB77qd"
          opacity="1"
          fill-opacity="0"
          stroke="#d5bfb2"
          stroke-width="1"
          stroke-opacity="1"
        ></use>
      </g>
    </g>
    <g>
      <use xlink:href="#brHWGtLYU" opacity="1" fill="#233447" fill-opacity="1"></use>
      <g>
        <use
          xlink:href="#brHWGtLYU"
          opacity="1"
          fill-opacity="0"
          stroke="#233447"
          stroke-width="1"
          stroke-opacity="1"
        ></use>
      </g>
    </g>
    <g>
      <use xlink:href="#fVNa2aGWI" opacity="1" fill="#233447" fill-opacity="1"></use>
      <g>
        <use
          xlink:href="#fVNa2aGWI"
          opacity="1"
          fill-opacity="0"
          stroke="#233447"
          stroke-width="1"
          stroke-opacity="1"
        ></use>
      </g>
    </g>
    <g>
      <use xlink:href="#d5sf56Am3X" opacity="1" fill="#cc6228" fill-opacity="1"></use>
      <g>
        <use
          xlink:href="#d5sf56Am3X"
          opacity="1"
          fill-opacity="0"
          stroke="#cc6228"
          stroke-width="1"
          stroke-opacity="1"
        ></use>
      </g>
    </g>
    <g>
      <use xlink:href="#a4bZVkFXlb" opacity="1" fill="#cc6228" fill-opacity="1"></use>
      <g>
        <use
          xlink:href="#a4bZVkFXlb"
          opacity="1"
          fill-opacity="0"
          stroke="#cc6228"
          stroke-width="1"
          stroke-opacity="1"
        ></use>
      </g>
    </g>
    <g>
      <use xlink:href="#b1JtX78WCD" opacity="1" fill="#cc6228" fill-opacity="1"></use>
      <g>
        <use
          xlink:href="#b1JtX78WCD"
          opacity="1"
          fill-opacity="0"
          stroke="#cc6228"
          stroke-width="1"
          stroke-opacity="1"
        ></use>
      </g>
    </g>
    <g>
      <use xlink:href="#dcKVorlIF" opacity="1" fill="#cc6228" fill-opacity="1"></use>
      <g>
        <use
          xlink:href="#dcKVorlIF"
          opacity="1"
          fill-opacity="0"
          stroke="#cc6228"
          stroke-width="1"
          stroke-opacity="1"
        ></use>
      </g>
    </g>
    <g>
      <use xlink:href="#b12eAvQH7E" opacity="1" fill="#e27525" fill-opacity="1"></use>
      <g>
        <use
          xlink:href="#b12eAvQH7E"
          opacity="1"
          fill-opacity="0"
          stroke="#e27525"
          stroke-width="1"
          stroke-opacity="1"
        ></use>
      </g>
    </g>
    <g>
      <use xlink:href="#d7NsgNi8q" opacity="1" fill="#e27525" fill-opacity="1"></use>
      <g>
        <use
          xlink:href="#d7NsgNi8q"
          opacity="1"
          fill-opacity="0"
          stroke="#e27525"
          stroke-width="1"
          stroke-opacity="1"
        ></use>
      </g>
    </g>
    <g>
      <use xlink:href="#aE1UAwmK5" opacity="1" fill="#e27525" fill-opacity="1"></use>
      <g>
        <use
          xlink:href="#aE1UAwmK5"
          opacity="1"
          fill-opacity="0"
          stroke="#e27525"
          stroke-width="1"
          stroke-opacity="1"
        ></use>
      </g>
    </g>
    <g>
      <use xlink:href="#dfyCdddPV" opacity="1" fill="#e27525" fill-opacity="1"></use>
      <g>
        <use
          xlink:href="#dfyCdddPV"
          opacity="1"
          fill-opacity="0"
          stroke="#e27525"
          stroke-width="1"
          stroke-opacity="1"
        ></use>
      </g>
    </g>
    <g>
      <use xlink:href="#a1aIve8pHW" opacity="1" fill="#f5841f" fill-opacity="1"></use>
      <g>
        <use
          xlink:href="#a1aIve8pHW"
          opacity="1"
          fill-opacity="0"
          stroke="#f5841f"
          stroke-width="1"
          stroke-opacity="1"
        ></use>
      </g>
    </g>
    <g>
      <use xlink:href="#d29PznbPru" opacity="1" fill="#f5841f" fill-opacity="1"></use>
      <g>
        <use
          xlink:href="#d29PznbPru"
          opacity="1"
          fill-opacity="0"
          stroke="#f5841f"
          stroke-width="1"
          stroke-opacity="1"
        ></use>
      </g>
    </g>
    <g>
      <use xlink:href="#bsBOE2C1r" opacity="1" fill="#c0ac9d" fill-opacity="1"></use>
      <g>
        <use
          xlink:href="#bsBOE2C1r"
          opacity="1"
          fill-opacity="0"
          stroke="#c0ac9d"
          stroke-width="1"
          stroke-opacity="1"
        ></use>
      </g>
    </g>
    <g>
      <use xlink:href="#bWW4n7T7l" opacity="1" fill="#161616" fill-opacity="1"></use>
      <g>
        <use
          xlink:href="#bWW4n7T7l"
          opacity="1"
          fill-opacity="0"
          stroke="#161616"
          stroke-width="1"
          stroke-opacity="1"
        ></use>
      </g>
    </g>
    <g>
      <use xlink:href="#aXg0V52jQ" opacity="1" fill="#763e1a" fill-opacity="1"></use>
      <g>
        <use
          xlink:href="#aXg0V52jQ"
          opacity="1"
          fill-opacity="0"
          stroke="#763e1a"
          stroke-width="1"
          stroke-opacity="1"
        ></use>
      </g>
    </g>
    <g>
      <use xlink:href="#b456KGDKUC" opacity="1" fill="#763e1a" fill-opacity="1"></use>
      <g>
        <use
          xlink:href="#b456KGDKUC"
          opacity="1"
          fill-opacity="0"
          stroke="#763e1a"
          stroke-width="1"
          stroke-opacity="1"
        ></use>
      </g>
    </g>
    <g>
      <use xlink:href="#c2RTuOXhU" opacity="1" fill="#f5841f" fill-opacity="1"></use>
      <g>
        <use
          xlink:href="#c2RTuOXhU"
          opacity="1"
          fill-opacity="0"
          stroke="#f5841f"
          stroke-width="1"
          stroke-opacity="1"
        ></use>
      </g>
    </g>
    <g>
      <use xlink:href="#a1kd6G2WWc" opacity="1" fill="#f5841f" fill-opacity="1"></use>
      <g>
        <use
          xlink:href="#a1kd6G2WWc"
          opacity="1"
          fill-opacity="0"
          stroke="#f5841f"
          stroke-width="1"
          stroke-opacity="1"
        ></use>
      </g>
    </g>
    <g>
      <use xlink:href="#c2gcOzHkZq" opacity="1" fill="#f5841f" fill-opacity="1"></use>
      <g>
        <use
          xlink:href="#c2gcOzHkZq"
          opacity="1"
          fill-opacity="0"
          stroke="#f5841f"
          stroke-width="1"
          stroke-opacity="1"
        ></use>
      </g>
    </g>
  </g>
</svg>
