<svg width="40" height="40" viewBox="0 0 40 40" fill="none" 
    xmlns="http://www.w3.org/2000/svg">
    <g clip-path="url(#clip0)">
        <path d="M39.405 24.8465C38.4461 28.6856 36.3699 32.154 33.4391 34.8127C30.5083 37.4715 26.8547 39.2011 22.9405 39.7828C19.0264 40.3645 15.0277 39.772 11.4504 38.0804C7.87307 36.3888 4.87797 33.6741 2.84407 30.2797C0.81018 26.8854 -0.17109 22.964 0.024437 19.0118C0.219964 15.0596 1.5835 11.2542 3.9425 8.07722C6.3015 4.9002 9.54993 2.49433 13.2767 1.16406C17.0035 -0.16622 21.0412 -0.361114 24.8788 0.604038C30.0169 1.8976 34.432 5.17654 37.1553 9.72141C39.8786 14.2663 40.6876 19.7058 39.405 24.8465Z" fill="#884294"/>
        <path fill-rule="evenodd" clip-rule="evenodd" d="M23.6174 19.3728C24.4672 18.9128 24.999 18.1026 24.8748 16.753C24.7075 14.9085 23.2085 14.2901 21.3163 14.1139L21.316 11.5556H19.8498L19.8494 14.0467C19.4637 14.0467 19.0705 14.0547 18.679 14.063L18.6787 11.5559L17.2139 11.5558L17.2136 14.1135C16.8962 14.1204 16.5844 14.1269 16.28 14.1269V14.1194L14.2578 14.1185L14.258 15.7815C14.258 15.7815 15.3408 15.7598 15.3229 15.7808C15.9165 15.7813 16.1103 16.1475 16.1661 16.4636L16.1666 23.4721C16.1404 23.6705 16.0304 23.9875 15.6154 23.9881C15.6342 24.0057 14.5489 23.9879 14.5489 23.9879L14.258 25.8474H16.1656C16.3985 25.8477 16.6287 25.8503 16.8561 25.8529C16.9755 25.8543 17.0951 25.8557 17.213 25.8567L17.2143 28.444L18.6787 28.4444L18.6783 25.8842C19.0812 25.893 19.4701 25.8968 19.85 25.8962L19.8495 28.4444H21.3156L21.3164 25.8614C23.7808 25.711 25.5061 25.0515 25.7206 22.5927C25.8934 20.6131 25.0165 19.7295 23.6174 19.3728ZM18.714 15.8937C18.7977 15.8937 18.8995 15.8908 19.015 15.8876C20.0406 15.8587 22.1414 15.7996 22.1418 17.4491C22.1414 19.0618 19.9568 19.0235 18.9553 19.0059C18.8642 19.0043 18.783 19.0029 18.714 19.0029V15.8937ZM18.7134 24.0007L18.714 20.5725C18.8134 20.5725 18.9341 20.5694 19.0708 20.566C20.2999 20.5347 22.8236 20.4706 22.8239 22.2858C22.8243 24.0607 20.2001 24.0216 18.9995 24.0037C18.8917 24.0021 18.7953 24.0006 18.7134 24.0007Z" fill="white"/>
        <path d="M20 9.28205C16.9654 9.28205 14.2254 10.5432 12.2754 12.57L11.3922 11.7212C13.5651 9.4626 16.6184 8.05715 20 8.05715C23.3836 8.05715 26.4384 9.46417 28.6115 11.725L27.7325 12.5782C25.7821 10.5466 23.0387 9.28205 20 9.28205Z" fill="white"/>
        <path d="M10.5882 12.6474L11.4765 13.5011C10.0998 15.3039 9.2821 17.5565 9.2821 20C9.2821 22.9124 10.4437 25.5535 12.329 27.4852L11.4486 28.3369C9.35007 26.1847 8.05719 23.2434 8.05719 20C8.05719 17.2268 9.00238 14.6744 10.5882 12.6474Z" fill="white"/>
        <path d="M13.2347 28.3133L12.3487 29.1704C14.421 30.9013 17.0889 31.9429 20 31.9429C22.9199 31.9429 25.5951 30.895 27.67 29.1548L26.7842 28.298C24.9364 29.8105 22.5742 30.7179 20 30.7179C17.4346 30.7179 15.0797 29.8166 13.2347 28.3133Z" fill="white"/>
        <path d="M28.5684 28.3196L27.688 27.468C29.5633 25.5378 30.718 22.9037 30.718 20C30.718 17.5607 29.9031 15.3117 28.5307 13.5104L29.4154 12.6518C30.9991 14.6781 31.9429 17.2289 31.9429 20C31.9429 23.2347 30.6569 26.169 28.5684 28.3196Z" fill="white"/>
        <path fill-rule="evenodd" clip-rule="evenodd" d="M35.2 20C35.2 28.3947 28.3948 35.2 20 35.2C11.6053 35.2 4.80005 28.3947 4.80005 20C4.80005 11.6053 11.6053 4.8 20 4.8C28.3948 4.8 35.2 11.6053 35.2 20ZM20 34.1143C27.7952 34.1143 34.1143 27.7951 34.1143 20C34.1143 12.2049 27.7952 5.88572 20 5.88572C12.2049 5.88572 5.88576 12.2049 5.88576 20C5.88576 27.7951 12.2049 34.1143 20 34.1143Z" fill="white"/>
    </g>
    <defs>
        <clipPath id="clip0">
            <rect width="40" height="40" fill="white"/>
        </clipPath>
    </defs>
</svg>
