<svg width="64" height="64" viewBox="0 0 64 64" fill="none" xmlns="http://www.w3.org/2000/svg">
<circle cx="32" cy="32" r="32" fill="white"/>
<path d="M26.0509 15.7809C26.3515 15.4803 26.5519 14.8624 26.6145 14.5911C26.7397 14.5284 27.6791 13.9648 28.4932 13.4639C27.7417 14.9668 26.9276 15.4052 26.0509 15.7809Z" fill="#D21318"/>
<path fill-rule="evenodd" clip-rule="evenodd" d="M32 64C49.6731 64 64 49.6731 64 32C64 21.2775 58.7262 11.7867 50.631 5.98001C50.255 6.39531 49.5746 6.72654 48.407 6.7006C47.0454 6.67034 45.2012 6.31841 43.4115 5.97686C41.4973 5.61158 39.6454 5.25817 38.5127 5.3229C36.3209 5.44814 34.7554 6.7006 34.7554 8.07829C42.7084 6.51274 46.8415 11.5851 47.6556 13.5891C47.1546 13.0881 46.6536 12.9002 45.5264 12.9628C47.0293 15.8434 49.91 16.8454 52.1644 16.9707C51.3294 17.4925 48.908 17.91 47.2798 17.0959C48.2192 19.1624 49.3464 23.1703 46.1526 27.9296C43.442 31.9689 39.1526 33.437 35.8878 34.5545C35.3058 34.7536 34.7565 34.9417 34.2544 35.1311C36.2583 35.0059 37.5734 35.1938 39.2016 36.5088C28.8063 35.1311 22.6693 41.8317 21.8552 48.2818C21.0411 54.7319 26.6145 56.7358 29.7456 56.7358C29.4325 57.049 27.6164 57.5499 26.3014 57.5499C32.8767 59.0529 37.9491 53.8552 39.452 52.2897C39.2516 53.1413 38.8258 54.3562 38.638 54.8572C40.4123 53.2499 44.5871 49.8098 47.092 48.9081C50.2231 47.7809 53.1037 48.7202 54.8571 50.0353C50.9083 48.9785 49.3798 50.194 47.2008 51.9269C46.9264 52.1452 46.6417 52.3716 46.3405 52.6027C47.5929 52.1018 49.7847 52.1018 50.9745 52.728C48.9706 52.6027 47.8028 52.9392 46.0274 54.1683C44.1828 55.4453 42.3382 57.7941 40.8173 59.7305C40.3246 60.358 39.8658 60.9421 39.452 61.4325C39.4751 61.3576 39.5521 61.224 39.6661 61.0263C39.9653 60.5074 40.5188 59.5473 41.0176 58.0509C38.3503 62.1246 32.8912 63.657 29.0904 63.8695C30.0487 63.9559 31.0192 64 32 64Z" fill="#3D3D3C"/>
<path fill-rule="evenodd" clip-rule="evenodd" d="M18.8697 61.1908C17.0118 58.9847 14.9441 55.7543 14.09 51.9765C13.9022 52.7906 13.6517 55.1076 13.6517 55.6712C12.8376 48.9706 12.3366 44.0861 16.6575 36.9472C15.5303 37.4481 13.6517 38.5127 12.4618 40.0157C15.2798 35.1937 18.2857 33.3151 21.1663 32.1252C21.951 31.8011 23.2932 31.3562 24.9044 30.8222C29.2083 29.3956 35.4316 27.3328 38.0744 25.2368C41.7065 22.3562 41.0802 18.9746 39.3268 16.9706C37.5734 14.9667 35.3816 15.3425 34.8806 15.8434C34.3796 16.3444 34.6301 16.8454 35.4442 17.0959C34.3796 17.409 33.4403 17.7221 33.2524 18.4736C33.0646 19.225 33.5656 19.9765 33.8787 20.3523C32.7515 20.1018 31.8748 19.9765 30.998 20.1018C30.1213 20.227 29.8082 20.5401 30.3092 21.2916C29.3699 20.9159 26.8075 20.4715 25.1742 22.3562C23.546 24.2348 24.9863 25.6125 28.3679 25.6125C28.1941 25.6537 28.0167 25.6978 27.8357 25.7429C25.5381 26.3147 22.6682 27.0289 19.4755 23.546C19.2833 23.7382 18.9436 23.9059 18.711 24.0206C18.6405 24.0554 18.5799 24.0853 18.5362 24.1096C18.2231 22.9824 18.0352 20.2395 20.0391 18.0352C20.0391 18.9746 20.7906 19.6008 21.8552 18.4736C22.7069 17.5718 23.7547 15.4677 24.1722 14.5284L22.6693 14.2153C23.4834 13.9857 24.6732 13.2133 25.9883 11.6477C25.6751 10.8337 25.0489 9.14286 26.6771 7.32681L26.75 7.2454C28.3755 5.4299 30.7542 2.77302 39.5147 3.94521C39.343 3.94521 39.1505 3.94351 38.9402 3.94164C35.7743 3.91368 28.5794 3.85013 27.9922 9.01761C28.3893 8.22331 28.953 7.69961 29.4192 7.2665C29.7616 6.9484 30.0514 6.67917 30.184 6.38748C30.0838 7.13894 30.0169 7.99479 29.9961 8.32877C30.2137 7.67577 30.6626 7.4431 31.0991 7.21679C31.4161 7.05246 31.7266 6.89148 31.9374 6.57534C32.0376 7.07632 32.1879 7.7443 32.2505 8.01566C32.4384 6.90934 33.1272 4.82192 36.3209 4.44618C39.1259 4.11619 41.456 4.50881 43.773 5.13503C44.0157 5.20062 44.2569 5.26825 44.4968 5.33551C46.4456 5.88185 48.3038 6.40279 50.0713 5.58747C44.9291 2.06241 38.7054 0 32 0C14.3269 0 0 14.3269 0 32C0 44.9938 7.74465 56.1788 18.8697 61.1908Z" fill="#D21318"/>
</svg>
