<svg width="70" height="70" viewBox="0 0 70 70" fill="none" xmlns="http://www.w3.org/2000/svg">
<g clip-path="url(#clip0)">
<path d="M68.9524 43.4674C64.2772 62.2175 45.2844 73.6286 26.53 68.9528C7.78336 64.2782 -3.62895 45.2863 1.04843 26.5372C5.72143 7.78487 24.7142 -3.62732 43.4631 1.04737C62.2163 5.72206 73.6276 24.7161 68.9524 43.4674Z" fill="#F7931A"/>
<path d="M50.4322 30.0133C51.1289 25.3562 47.583 22.8526 42.7344 21.1824L44.3072 14.8737L40.4671 13.9166L38.9358 20.0591C37.9263 19.8076 36.8894 19.5702 35.8591 19.3351L37.4013 13.1521L33.5633 12.1951L31.9894 18.5016C31.1538 18.3113 30.3335 18.1232 29.5372 17.9252L29.5416 17.9055L24.2456 16.5832L23.2241 20.6848C23.2241 20.6848 26.0733 21.3377 26.0131 21.3782C27.5685 21.7665 27.8496 22.7957 27.8025 23.6116L26.011 30.7987C26.1181 30.826 26.257 30.8654 26.4102 30.9266C26.2822 30.8949 26.1455 30.8599 26.0044 30.826L23.4931 40.894C23.3028 41.3665 22.8205 42.0752 21.7333 41.8062C21.7716 41.8619 18.9421 41.1094 18.9421 41.1094L17.0356 45.5052L22.033 46.751C22.9627 46.984 23.8738 47.2279 24.7706 47.4576L23.1814 53.8385L27.0172 54.7955L28.5911 48.4824C29.6389 48.7668 30.6561 49.0293 31.6514 49.2765L30.083 55.5601L33.9231 56.5171L35.5124 50.1482C42.0606 51.3874 46.9847 50.8876 49.0574 44.9649C50.7275 40.1962 48.9742 37.4454 45.5289 35.6516C48.038 35.073 49.928 33.4226 50.4322 30.0133ZM41.6581 42.3169C40.4714 47.0857 32.4422 44.5077 29.8391 43.8613L31.9478 35.4077C34.551 36.0574 42.8985 37.3437 41.6581 42.3169ZM42.846 29.9444C41.7631 34.2823 35.0803 32.0783 32.9125 31.538L34.8244 23.8708C36.9922 24.4112 43.9736 25.4196 42.846 29.9444Z" fill="white"/>
</g>
<defs>
<clipPath id="clip0">
<rect width="70" height="70" fill="white"/>
</clipPath>
</defs>
</svg>
