<svg width="70" height="70" viewBox="0 0 70 70" fill="none" xmlns="http://www.w3.org/2000/svg">
<path d="M35 70C54.3305 70 70 54.3305 70 35C70 15.6695 54.3305 0 35 0C15.6695 0 0 15.6695 0 35C0 54.3305 15.6695 70 35 70Z" fill="#F3BA2F"/>
<path d="M35 21.3L25.2896 31.0104L19.64 25.36L35 10L50.365 25.3646L44.715 31.0146L35 21.3Z" fill="white"/>
<path d="M15.6502 29.349L10 35L15.6498 40.649L21.3 34.9988L15.6502 29.349Z" fill="white"/>
<path d="M35 48.7L25.2896 38.9902L19.632 44.632L35 60L50.365 44.6356L50.3678 44.6326L44.7148 38.9856L35 48.7Z" fill="white"/>
<path d="M54.3502 29.3522L48.7 35.0024L54.35 40.6522L60 35.002L54.3502 29.3522Z" fill="white"/>
<path d="M40.7327 34.9969H40.7307L40.7359 34.9997L40.7331 35.0029L34.9999 40.7361L29.2717 35.0071L29.2637 34.9989L29.2717 34.9911L34.9999 29.2637L40.7327 34.9969Z" fill="white"/>
</svg>
