<svg width="70" height="70" viewBox="0 0 70 70" fill="none" xmlns="http://www.w3.org/2000/svg">
<path d="M35 70C54.3305 70 70 54.3305 70 35C70 15.6695 54.3305 0 35 0C15.6695 0 0 15.6695 0 35C0 54.3305 15.6695 70 35 70Z" fill="#F0B90B"/>
<path d="M40.4507 18.5655L35 13L21.2746 26.8155L26.7254 32.25L40.4507 18.5655Z" fill="white"/>
<path d="M48.7254 26.8155L43.2746 21.25L21.2746 43.3155L26.7254 48.75L48.7254 26.8155Z" fill="white"/>
<path d="M18.4507 29.5L23.9015 35.0655L18.4507 40.5L13 35.0655L18.4507 29.5Z" fill="white"/>
<path d="M57 35.0655L51.5493 29.5L29.5493 51.5655L35 57L57 35.0655Z" fill="white"/>
<path d="M40.4507 18.5655L35 13L21.2746 26.8155L26.7254 32.25L40.4507 18.5655Z" stroke="#F0B90B"/>
<path d="M48.7254 26.8155L43.2746 21.25L21.2746 43.3155L26.7254 48.75L48.7254 26.8155Z" stroke="#F0B90B"/>
<path d="M18.4507 29.5L23.9015 35.0655L18.4507 40.5L13 35.0655L18.4507 29.5Z" stroke="#F0B90B"/>
<path d="M57 35.0655L51.5493 29.5L29.5493 51.5655L35 57L57 35.0655Z" stroke="#F0B90B"/>
</svg>
